<svg width="24" height="24" viewBox="0 0 24 24" fill="none" xmlns="http://www.w3.org/2000/svg">
<path d="M11.625 12.75H3.375C2.75475 12.75 2.25 12.2453 2.25 11.625V6.375H19.5V11.625C19.5 12.1211 20.25 12.1215 20.25 11.625V3.375C20.25 2.34113 19.4089 1.5 18.375 1.5H3.375C2.34113 1.5 1.5 2.34113 1.5 3.375V11.625C1.5 12.6589 2.34113 13.5 3.375 13.5H11.625C12.1208 13.5 12.1215 12.75 11.625 12.75ZM2.25 5.625V4.5H19.5V5.625H2.25ZM3.375 2.25H18.375C18.9953 2.25 19.5 2.75475 19.5 3.375V3.75H2.25V3.375C2.25 2.75475 2.75475 2.25 3.375 2.25Z" fill="#2563EB"/>
<path d="M4.125 7.5C3.918 7.5 3.75 7.668 3.75 7.875V10.125C3.75 10.332 3.918 10.5 4.125 10.5H7.125C7.332 10.5 7.5 10.332 7.5 10.125V7.875C7.5 7.668 7.332 7.5 7.125 7.5H4.125ZM6.75 9.75H4.5V8.25H6.75V9.75Z" fill="#2563EB"/>
<path d="M18 8.625V7.875C18 7.668 17.8324 7.5 17.625 7.5H9C8.793 7.5 8.625 7.668 8.625 7.875V10.125C8.625 10.332 8.793 10.5 9 10.5H15C15.4965 10.5 15.4958 9.75 15 9.75H9.375V8.25H17.25V8.625C17.25 9.12112 18 9.1215 18 8.625Z" fill="#2563EB"/>
<path d="M22.3902 13.9849L20.8902 12.4849C20.5392 12.1339 20.0093 12.6645 20.3599 13.0151L20.8448 13.5L20.4177 13.9271C19.6542 13.272 18.687 12.8505 17.625 12.7691V12.3218C18.27 12.1541 18.75 11.5718 18.75 10.875C18.75 10.0477 18.0773 9.375 17.25 9.375C16.4228 9.375 15.75 10.0477 15.75 10.875C15.75 11.5718 16.2297 12.1541 16.875 12.3218V12.7691C15.8127 12.8505 14.8459 13.272 14.0824 13.9271L13.6553 13.5L14.1402 13.0151C14.4912 12.6641 13.9605 12.1342 13.6099 12.4849L12.1099 13.9849C11.7582 14.3366 12.2933 14.8616 12.6402 14.5151L13.125 14.0303L13.5518 14.4574C12.8202 15.3101 12.375 16.4156 12.375 17.625C12.375 20.313 14.562 22.5 17.25 22.5C19.938 22.5 22.125 20.313 22.125 17.625C22.125 16.4156 21.6799 15.3101 20.9479 14.4574L21.375 14.0303L21.8599 14.5151C22.2057 14.8609 22.7457 14.3404 22.3902 13.9849ZM16.5 10.875C16.5 10.4614 16.8364 10.125 17.25 10.125C17.6633 10.125 18 10.4614 18 10.875C18 11.2886 17.6633 11.625 17.25 11.625C16.8364 11.625 16.5 11.2886 16.5 10.875ZM17.25 21.75C14.9757 21.75 13.125 19.8994 13.125 17.625C13.125 15.3506 14.9757 13.5 17.25 13.5C19.5244 13.5 21.375 15.3506 21.375 17.625C21.375 19.8994 19.5244 21.75 17.25 21.75Z" fill="#2563EB"/>
<path d="M19.125 17.25H17.625V14.625C17.625 14.1289 16.875 14.1285 16.875 14.625V17.625C16.875 17.832 17.0426 18 17.25 18H19.125C19.6215 18 19.6208 17.25 19.125 17.25Z" fill="#2563EB"/>
<path d="M11.1401 16.6098L9.64015 15.1098C9.49352 14.9632 9.25652 14.9632 9.1099 15.1098C8.96327 15.2565 8.96327 15.4935 9.1099 15.6401L9.96977 16.5H6.37502C5.87927 16.5 5.87852 17.25 6.37502 17.25H9.96977L9.1099 18.1098C8.7544 18.4653 9.2944 18.9858 9.64015 18.6401L11.1401 17.1401C11.2856 16.9946 11.2856 16.7553 11.1401 16.6098Z" fill="#2563EB"/>
<path d="M4.87502 17.25C5.37077 17.25 5.37152 16.5 4.87502 16.5H4.50002C4.00427 16.5 4.00352 17.25 4.50002 17.25H4.87502Z" fill="#2563EB"/>
<path d="M2.62502 17.25H3.00002C3.49577 17.25 3.49652 16.5 3.00002 16.5H2.62502C2.12927 16.5 2.12852 17.25 2.62502 17.25Z" fill="#2563EB"/>
<path d="M7.12488 19.875H3.53013L4.39 19.0151C4.741 18.6641 4.21038 18.1342 3.85976 18.4848L2.35976 19.9848C2.21313 20.1311 2.21501 20.3707 2.35976 20.5155L3.85976 22.0155C4.20551 22.3612 4.7455 21.8407 4.39 21.4852L3.53013 20.625H7.12488C7.62063 20.625 7.62138 19.875 7.12488 19.875Z" fill="#2563EB"/>
<path d="M9.00002 19.875H8.62502C8.12927 19.875 8.12852 20.625 8.62502 20.625H9.00002C9.49577 20.625 9.49652 19.875 9.00002 19.875Z" fill="#2563EB"/>
<path d="M10.875 19.875H10.5C10.0043 19.875 10.0035 20.625 10.5 20.625H10.875C11.3708 20.625 11.3715 19.875 10.875 19.875Z" fill="#2563EB"/>
<path d="M16.875 20.625V21C16.875 21.4962 17.625 21.4965 17.625 21V20.625C17.625 20.1289 16.875 20.1285 16.875 20.625Z" fill="#2563EB"/>
<path d="M14.2496 17.25H13.8742C13.3785 17.2504 13.3785 18 13.8746 18H14.25C14.7457 17.9992 14.7457 17.25 14.2496 17.25Z" fill="#2563EB"/>
<path d="M20.2495 18H20.6245C21.1203 18 21.121 17.25 20.6245 17.25H20.2495C19.753 17.25 19.7538 18 20.2495 18Z" fill="#2563EB"/>
</svg>
