<svg width="24" height="24" viewBox="0 0 24 24" fill="none" xmlns="http://www.w3.org/2000/svg">
<path d="M4.15504 12.75C4.15614 13.8527 4.3906 14.9428 4.84302 15.9485C5.29545 16.9541 5.95558 17.8527 6.78004 18.585L6.06379 19.8262C5.97303 19.9802 5.91429 20.1509 5.89109 20.3281C5.86789 20.5053 5.88071 20.6854 5.92879 20.8575C5.99853 21.1166 6.1435 21.3492 6.34537 21.526C6.54724 21.7027 6.79697 21.8157 7.063 21.8506C7.32904 21.8855 7.59945 21.8408 7.84009 21.7221C8.08073 21.6034 8.28081 21.4161 8.41504 21.1838L9.08629 20.025C10.957 20.785 13.0505 20.785 14.9213 20.025L15.5925 21.1838C15.773 21.4946 16.0694 21.7212 16.4168 21.8139C16.7641 21.9065 17.134 21.8576 17.4453 21.6778C17.7566 21.4981 17.9839 21.2022 18.0774 20.8551C18.1708 20.508 18.1228 20.138 17.9438 19.8262L17.2275 18.585C18.3249 17.6094 19.1258 16.345 19.5388 14.936C19.9519 13.527 19.9604 12.0303 19.5635 10.6166C19.1666 9.20302 18.3802 7.92948 17.2941 6.94142C16.2081 5.95335 14.866 5.29057 13.4213 5.02875V3.75C13.4213 3.4019 13.283 3.06806 13.0369 2.82192C12.7907 2.57578 12.4569 2.4375 12.1088 2.4375C11.7607 2.4375 11.4269 2.57578 11.1807 2.82192C10.9346 3.06806 10.7963 3.4019 10.7963 3.75V4.98375C8.94437 5.27209 7.25676 6.21361 6.03867 7.63804C4.82058 9.06247 4.15242 10.8758 4.15504 12.75ZM7.76254 20.8013C7.6818 20.9403 7.54923 21.0417 7.39388 21.0831C7.23854 21.1246 7.07309 21.1028 6.93379 21.0225C6.86289 20.9832 6.80094 20.9295 6.75188 20.8649C6.70282 20.8004 6.66771 20.7263 6.64879 20.6475C6.62779 20.5705 6.62229 20.49 6.63259 20.4109C6.64288 20.3317 6.66878 20.2553 6.70879 20.1863L7.36504 19.0613C7.69173 19.3024 8.0365 19.518 8.39629 19.7062L7.76254 20.8013ZM17.2913 20.1937C17.3313 20.2628 17.3572 20.3392 17.3675 20.4184C17.3778 20.4975 17.3723 20.578 17.3513 20.655C17.3324 20.7338 17.2973 20.8079 17.2482 20.8724C17.1991 20.937 17.1372 20.9907 17.0663 21.03C16.9974 21.0703 16.9213 21.0965 16.8423 21.1071C16.7632 21.1178 16.6828 21.1127 16.6058 21.0921C16.5287 21.0716 16.4565 21.0359 16.3933 20.9873C16.3301 20.9387 16.2772 20.878 16.2375 20.8088L15.6038 19.71C15.9636 19.5218 16.3083 19.3061 16.635 19.065L17.2913 20.1937ZM11.5575 3.75C11.5575 3.60082 11.6168 3.45774 11.7223 3.35225C11.8278 3.24676 11.9709 3.1875 12.12 3.1875C12.2692 3.1875 12.4123 3.24676 12.5178 3.35225C12.6233 3.45774 12.6825 3.60082 12.6825 3.75V4.91625C12.4613 4.8975 12.2363 4.8825 12.0113 4.8825C11.8613 4.8825 11.715 4.8825 11.5688 4.905L11.5575 3.75ZM12 5.625C13.4031 5.62427 14.7749 6.03932 15.9422 6.81773C17.1095 7.59615 18.0199 8.70302 18.5585 9.99855C19.0972 11.2941 19.2398 12.7202 18.9684 14.0967C18.6971 15.4733 18.0239 16.7385 17.0339 17.7327C16.0439 18.7269 14.7815 19.4054 13.4061 19.6826C12.0307 19.9598 10.604 19.8232 9.30622 19.29C8.00843 18.7568 6.89773 17.8511 6.11439 16.6871C5.33106 15.5231 4.91023 14.153 4.90504 12.75C4.90503 10.8673 5.65218 9.06145 6.98243 7.7291C8.31268 6.39674 10.1173 5.64673 12 5.64375V5.625Z" fill="#2563EB"/>
<path d="M12.0001 19.0125C13.2414 19.0125 14.4548 18.6442 15.4868 17.9544C16.5187 17.2645 17.3228 16.284 17.7973 15.137C18.2718 13.9899 18.3954 12.7279 18.1524 11.5106C17.9095 10.2933 17.3108 9.17548 16.4323 8.29853C15.5538 7.42158 14.4348 6.82495 13.2171 6.58415C11.9994 6.34335 10.7376 6.46919 9.59141 6.94576C8.44523 7.42234 7.46619 8.22821 6.77817 9.2614C6.09016 10.2946 5.7241 11.5087 5.72633 12.75C5.73129 14.4113 6.39422 16.003 7.57002 17.1767C8.74583 18.3504 10.3387 19.0105 12.0001 19.0125ZM12.0001 7.21872C13.0923 7.21872 14.1599 7.54249 15.0681 8.14912C15.9763 8.75575 16.6843 9.618 17.1026 10.6269C17.5209 11.6358 17.6308 12.746 17.4182 13.8173C17.2057 14.8886 16.6804 15.8729 15.9086 16.6457C15.1368 17.4185 14.1533 17.9452 13.0823 18.1592C12.0113 18.3731 10.9009 18.2648 9.89142 17.8479C8.88196 17.431 8.01875 16.7241 7.41089 15.8168C6.80303 14.9094 6.47781 13.8421 6.47633 12.75C6.47584 12.0241 6.61832 11.3052 6.89565 10.6344C7.17298 9.96358 7.57972 9.35396 8.09264 8.84034C8.60557 8.32671 9.21464 7.91915 9.88508 7.64091C10.5555 7.36267 11.2742 7.21921 12.0001 7.21872Z" fill="#2563EB"/>
<path d="M11.16 13.9575C11.2584 13.9571 11.3527 13.918 11.4225 13.8487L13.125 12.165C13.1966 12.0924 13.2365 11.9943 13.2357 11.8923C13.235 11.7904 13.1939 11.6929 13.1213 11.6212C13.0487 11.5496 12.9506 11.5098 12.8486 11.5105C12.7466 11.5112 12.6491 11.5524 12.5775 11.625L10.8938 13.305C10.8586 13.3399 10.8307 13.3813 10.8117 13.427C10.7926 13.4727 10.7828 13.5217 10.7828 13.5712C10.7828 13.6208 10.7926 13.6698 10.8117 13.7155C10.8307 13.7612 10.8586 13.8026 10.8938 13.8375C10.9279 13.8743 10.969 13.9039 11.0147 13.9245C11.0605 13.9451 11.1099 13.9563 11.16 13.9575Z" fill="#2563EB"/>
<path d="M11.25 12.375C11.3242 12.375 11.3967 12.353 11.4583 12.3118C11.52 12.2706 11.5681 12.212 11.5965 12.1435C11.6248 12.075 11.6323 11.9996 11.6178 11.9268C11.6033 11.8541 11.5676 11.7873 11.5152 11.7348C11.4627 11.6824 11.3959 11.6467 11.3232 11.6322C11.2504 11.6177 11.175 11.6252 11.1065 11.6535C11.038 11.6819 10.9794 11.73 10.9382 11.7917C10.897 11.8533 10.875 11.9258 10.875 12C10.875 12.0995 10.9145 12.1948 10.9848 12.2652C11.0552 12.3355 11.1505 12.375 11.25 12.375Z" fill="#2563EB"/>
<path d="M12.75 13.8676C12.9571 13.8676 13.125 13.6997 13.125 13.4926C13.125 13.2854 12.9571 13.1176 12.75 13.1176C12.5429 13.1176 12.375 13.2854 12.375 13.4926C12.375 13.6997 12.5429 13.8676 12.75 13.8676Z" fill="#2563EB"/>
<path d="M22.4587 2.57627C22.3262 2.43979 22.1677 2.33129 21.9925 2.25721C21.8173 2.18313 21.629 2.14498 21.4387 2.14502C21.0895 2.14979 20.7543 2.28333 20.4975 2.52002C19.8064 2.233 19.0458 2.15712 18.3117 2.30195C17.5776 2.44677 16.9028 2.80582 16.3725 3.33377L15.8437 3.86252C15.7599 3.94581 15.6935 4.04485 15.6481 4.15393C15.6027 4.26302 15.5793 4.38 15.5793 4.49814C15.5793 4.61629 15.6027 4.73327 15.6481 4.84235C15.6935 4.95144 15.7599 5.05048 15.8437 5.13377L19.9012 9.19127C19.9842 9.27495 20.0829 9.34136 20.1917 9.38669C20.3005 9.43201 20.4171 9.45535 20.535 9.45535C20.6528 9.45535 20.7695 9.43201 20.8783 9.38669C20.987 9.34136 21.0858 9.27495 21.1687 9.19127L21.7012 8.66252C22.2296 8.13251 22.589 7.4577 22.7338 6.72345C22.8787 5.9892 22.8025 5.22849 22.515 4.53752C22.7578 4.26523 22.8872 3.91038 22.8767 3.54571C22.8663 3.18105 22.7167 2.8342 22.4587 2.57627ZM21.4312 2.89502C21.5222 2.89456 21.6124 2.91261 21.6962 2.94806C21.78 2.98352 21.8557 3.03564 21.9187 3.10127C22.0061 3.18907 22.0682 3.29878 22.0986 3.41887C22.1289 3.53895 22.1264 3.665 22.0912 3.78377C21.9715 3.61938 21.8399 3.46396 21.6975 3.31877C21.5511 3.18188 21.3944 3.0565 21.2287 2.94377C21.2935 2.91764 21.3617 2.90121 21.4312 2.89502ZM21.1725 8.14502L20.625 8.66252C20.55 8.73752 20.4937 8.73752 20.415 8.66252L16.3575 4.58627C16.3435 4.57296 16.3324 4.55696 16.3248 4.53923C16.3172 4.52151 16.3133 4.50243 16.3133 4.48314C16.3133 4.46386 16.3172 4.44478 16.3248 4.42705C16.3324 4.40933 16.3435 4.39333 16.3575 4.38002L16.875 3.84752C17.1562 3.56534 17.4902 3.34131 17.858 3.18822C18.2257 3.03513 18.6201 2.95598 19.0184 2.95528C19.4168 2.95458 19.8114 3.03236 20.1797 3.18416C20.548 3.33597 20.8828 3.55883 21.165 3.84002C21.4472 4.12121 21.6712 4.45523 21.8243 4.823C21.9774 5.19078 22.0565 5.5851 22.0572 5.98347C22.0579 6.38183 21.9801 6.77643 21.8283 7.14474C21.6765 7.51304 21.4537 7.84784 21.1725 8.13002V8.14502Z" fill="#2563EB"/>
<path d="M2.29879 8.66253L2.83129 9.19128C2.91451 9.2745 3.01331 9.34052 3.12205 9.38556C3.23079 9.4306 3.34734 9.45379 3.46504 9.45379C3.58274 9.45379 3.69928 9.4306 3.80802 9.38556C3.91676 9.34052 4.01556 9.2745 4.09879 9.19128L8.17129 5.11878C8.25508 5.03548 8.32157 4.93645 8.36695 4.82736C8.41232 4.71828 8.43568 4.6013 8.43568 4.48315C8.43568 4.365 8.41232 4.24802 8.36695 4.13894C8.32157 4.02986 8.25508 3.93082 8.17129 3.84753L7.64254 3.31878C7.11279 2.78996 6.43798 2.43033 5.70362 2.28546C4.96926 2.14059 4.20842 2.21701 3.51754 2.50503C3.25898 2.26869 2.92279 2.13528 2.57254 2.13003C2.29392 2.12855 2.02088 2.20814 1.7867 2.35911C1.55252 2.51008 1.36731 2.7259 1.25364 2.98028C1.13996 3.23466 1.10273 3.51661 1.14648 3.79178C1.19023 4.06694 1.31307 4.32345 1.50004 4.53003C1.20952 5.22061 1.13035 5.98185 1.27252 6.71744C1.4147 7.45304 1.77185 8.12994 2.29879 8.66253ZM4.97254 2.96253C5.37192 2.96109 5.76765 3.03854 6.13703 3.19041C6.50641 3.34228 6.84216 3.56559 7.12504 3.84753L7.65379 4.38003C7.66774 4.39333 7.67885 4.40933 7.68644 4.42706C7.69403 4.44479 7.69794 4.46387 7.69794 4.48315C7.69794 4.50243 7.69403 4.52151 7.68644 4.53924C7.67885 4.55697 7.66774 4.57297 7.65379 4.58627L3.57004 8.66253C3.49129 8.73753 3.43504 8.73753 3.36004 8.66253L2.82754 8.13003C2.40353 7.70656 2.11479 7.16675 1.99791 6.579C1.88103 5.99125 1.94128 5.38204 2.17102 4.82857C2.40076 4.2751 2.78965 3.80231 3.2884 3.4701C3.78714 3.13789 4.37328 2.96124 4.97254 2.96253ZM2.07754 3.10128C2.14057 3.03565 2.21629 2.98352 2.3001 2.94807C2.3839 2.91261 2.47404 2.89457 2.56504 2.89503C2.63238 2.89553 2.6993 2.90563 2.76379 2.92503C2.59811 3.03776 2.44139 3.16313 2.29504 3.30003C2.157 3.44539 2.03155 3.6022 1.92004 3.76878C1.88505 3.65351 1.88119 3.53104 1.90885 3.41381C1.93652 3.29657 1.99471 3.18874 2.07754 3.10128Z" fill="#2563EB"/>
<path d="M8.475 13.7888C8.4137 14.0974 8.46661 14.4178 8.6239 14.6903C8.78118 14.9627 9.03212 15.1688 9.33 15.2701L9.86625 15.4501C10.1809 15.5575 10.4714 15.7257 10.7212 15.9451L11.145 16.3201C11.3823 16.5259 11.6859 16.6392 12 16.6392C12.3141 16.6392 12.6177 16.5259 12.855 16.3201L13.2787 15.9451C13.5286 15.7257 13.8191 15.5575 14.1337 15.4501L14.67 15.2701C14.9679 15.1688 15.2188 14.9627 15.3761 14.6903C15.5334 14.4178 15.5863 14.0974 15.525 13.7888L15.375 13.0838C15.33 12.8585 15.33 12.6266 15.375 12.4013L15.5175 11.6926C15.5788 11.384 15.5259 11.0636 15.3686 10.7911C15.2113 10.5186 14.9604 10.3126 14.6625 10.2113L14.1262 10.0313C13.8116 9.9239 13.5211 9.75572 13.2712 9.53632L12.8475 9.16132C12.6116 8.95254 12.3075 8.83728 11.9925 8.83728C11.6775 8.83728 11.3734 8.95254 11.1375 9.16132L10.7137 9.53632C10.4631 9.75655 10.1712 9.9248 9.855 10.0313L9.3225 10.2113C9.02462 10.3126 8.77368 10.5186 8.6164 10.7911C8.45911 11.0636 8.4062 11.384 8.4675 11.6926L8.58 12.2476C8.6437 12.5732 8.6437 12.9082 8.58 13.2338L8.475 13.7888ZM9.3225 12.0976L9.21 11.5463C9.1847 11.4146 9.20901 11.2781 9.27823 11.1632C9.34745 11.0483 9.45671 10.963 9.585 10.9238L10.1175 10.7438C10.5316 10.6057 10.9141 10.3864 11.2425 10.0988L11.6662 9.72382C11.766 9.63678 11.8939 9.58882 12.0262 9.58882C12.1586 9.58882 12.2865 9.63678 12.3862 9.72382L12.81 10.0988C13.1384 10.3864 13.5209 10.6057 13.935 10.7438L14.4675 10.9238C14.5958 10.963 14.705 11.0483 14.7743 11.1632C14.8435 11.2781 14.8678 11.4146 14.8425 11.5463L14.7 12.2513C14.6362 12.5745 14.6362 12.9069 14.7 13.2301L14.8425 13.9351C14.8671 14.0672 14.8426 14.2038 14.7735 14.3192C14.7044 14.4345 14.5956 14.5206 14.4675 14.5613L13.935 14.7413C13.5204 14.8765 13.1376 15.0947 12.81 15.3826L12.375 15.7501C12.2735 15.8455 12.1394 15.8987 12 15.8987C11.8606 15.8987 11.7265 15.8455 11.625 15.7501L11.2012 15.3751C10.8733 15.0876 10.4907 14.8695 10.0762 14.7338L9.54 14.5538C9.41188 14.5131 9.30305 14.427 9.23399 14.3117C9.16493 14.1963 9.14039 14.0597 9.165 13.9276L9.2775 13.3763C9.3739 12.9568 9.38917 12.5228 9.3225 12.0976Z" fill="#2563EB"/>
</svg>
