<svg width="24" height="24" viewBox="0 0 24 24" fill="none" xmlns="http://www.w3.org/2000/svg">
<path d="M5.51282 16.5C5.4903 16.496 5.4447 16.4941 5.42181 16.4941C5.41504 16.4927 5.4079 16.4916 5.40076 16.4905C5.36816 16.4813 5.33594 16.4506 5.33594 16.4066C5.33594 16.3766 5.35004 16.3564 5.36304 16.3433C5.37805 16.3282 5.40002 16.3195 5.42328 16.3195H5.72284C5.92993 16.3195 6.09784 16.1517 6.09784 15.9445C6.09784 15.764 5.9679 15.6206 5.79828 15.5847V15.5526C5.79828 15.3453 5.63037 15.1776 5.42328 15.1776C5.21619 15.1776 5.04828 15.3453 5.04828 15.5526V15.6622C4.96858 15.7021 4.89367 15.7513 4.83093 15.8148C4.67291 15.973 4.58594 16.1832 4.58594 16.4066C4.58594 16.8127 4.87653 17.1595 5.27679 17.2306C5.28302 17.2317 5.28943 17.2328 5.29584 17.2335C5.32495 17.2383 5.35626 17.2416 5.39362 17.2427C5.42236 17.2551 5.44708 17.2837 5.44708 17.3236C5.44708 17.3474 5.43774 17.369 5.42401 17.3833C5.40497 17.4016 5.38354 17.4111 5.35992 17.4111H4.92944C4.72235 17.4111 4.55444 17.5789 4.55444 17.7861C4.55444 17.9934 4.72235 18.1611 4.92944 18.1611H4.99284C5.01333 18.349 5.16673 18.4969 5.35992 18.4969C5.56702 18.4969 5.73492 18.3292 5.73492 18.1219V18.0675C5.81341 18.0276 5.88821 17.9784 5.95428 17.9136C6.11084 17.7543 6.19708 17.5448 6.19708 17.3236C6.19708 16.92 5.90924 16.5736 5.51282 16.5Z" fill="#2563EB"/>
<path d="M10.0497 12.8049C10.6074 12.8049 11.0755 12.4354 11.2359 11.9301H12.4561C12.6631 11.9301 12.8311 11.7623 12.8311 11.5551C12.8311 11.3478 12.6631 11.1801 12.4561 11.1801H11.2359C11.1133 10.7939 10.8109 10.4916 10.4247 10.369V8.71692C10.4247 8.50964 10.2568 8.34192 10.0497 8.34192C9.84259 8.34192 9.67468 8.50964 9.67468 8.71692V10.369C9.16938 10.5294 8.7998 10.9973 8.7998 11.5551C8.7998 12.2443 9.36047 12.8049 10.0497 12.8049ZM10.0497 11.0552C10.3254 11.0552 10.5497 11.2793 10.5497 11.5551C10.5497 11.8308 10.3254 12.0549 10.0497 12.0549C9.77411 12.0549 9.5498 11.8308 9.5498 11.5551C9.5498 11.2793 9.77411 11.0552 10.0497 11.0552Z" fill="#2563EB"/>
<path d="M20.9571 12.1699L20.459 10.5787C20.3885 10.3531 20.2343 10.1689 20.025 10.0594C19.8159 9.94958 19.5762 9.92798 19.3506 9.99902L17.5406 10.5659C17.0538 6.86169 13.8839 3.9906 10.0491 3.9906C5.8783 3.9906 2.48517 7.38354 2.48517 11.5543C2.48517 12.6117 2.71151 13.6656 3.13682 14.6224C2.55807 15.1936 2.19824 15.986 2.19824 16.8615C2.19824 18.5973 3.61035 20.0094 5.34619 20.0094C6.35838 20.0094 7.25797 19.5273 7.83423 18.7828C8.54827 19.0012 9.29081 19.1184 10.0491 19.1184C11.7008 19.1184 13.2257 18.5801 14.4711 17.6781H20.9169C21.4047 17.6781 21.8015 17.2815 21.8015 16.7937V13.0503C21.8015 12.5763 21.4259 12.1915 20.9571 12.1699ZM19.575 10.7146C19.6207 10.7003 19.6588 10.7142 19.6773 10.7238C19.6958 10.7333 19.7288 10.7567 19.7432 10.8029L20.1698 12.1659H17.5818C17.5981 11.9636 17.6128 11.7607 17.6128 11.5543C17.6128 11.4795 17.6037 11.4069 17.6016 11.3326L19.575 10.7146ZM17.1843 14.0409H19.9265V15.8031H16.3023C16.6708 15.2625 16.9646 14.6691 17.1843 14.0409ZM5.34619 19.2594C4.02399 19.2594 2.94824 18.1838 2.94824 16.8615C2.94824 15.5391 4.02399 14.4635 5.34619 14.4635C6.6684 14.4635 7.74414 15.5391 7.74414 16.8615C7.74414 18.1838 6.6684 19.2594 5.34619 19.2594ZM5.14349 11.1801H4.37914C4.56522 8.34238 6.83683 6.07075 9.67462 5.88457V6.64893C9.67462 6.8562 9.84253 7.02393 10.0496 7.02393C10.2567 7.02393 10.4246 6.8562 10.4246 6.64893V5.88464C13.2619 6.07132 15.5328 8.34274 15.7188 11.1801H14.9559C14.7488 11.1801 14.5809 11.3478 14.5809 11.5551C14.5809 11.7623 14.7488 11.9301 14.9559 11.9301H15.7188C15.5321 14.767 13.2614 17.0377 10.4246 17.2244V16.4612C10.4246 16.2539 10.2567 16.0862 10.0496 16.0862C9.84253 16.0862 9.67462 16.2539 9.67462 16.4612V17.2279C9.27142 17.2012 8.87422 17.1303 8.4862 17.0185C8.48881 16.9661 8.49414 16.9145 8.49414 16.8615C8.49414 15.1256 7.08203 13.7135 5.34619 13.7135C5.16537 13.7135 4.98918 13.7322 4.8166 13.7616C4.56806 13.1808 4.42213 12.5678 4.38097 11.9301H5.14349C5.35059 11.9301 5.51849 11.7623 5.51849 11.5551C5.51849 11.3478 5.35059 11.1801 5.14349 11.1801ZM8.23001 18.1195C8.28053 18.0042 8.32433 17.8855 8.36091 17.7634C8.91045 17.9138 9.47591 17.9934 10.0491 17.9934C13.5995 17.9934 16.4878 15.1047 16.4878 11.5543C16.4878 8.00391 13.5995 5.1156 10.0491 5.1156C6.49866 5.1156 3.61017 8.00391 3.61017 11.5543C3.61017 12.4001 3.77913 13.2106 4.09375 13.9749C3.97475 14.0267 3.86079 14.0874 3.74995 14.153C3.41294 13.3361 3.23517 12.4465 3.23517 11.5543C3.23517 7.79736 6.29193 4.7406 10.0491 4.7406C13.8062 4.7406 16.8628 7.79736 16.8628 11.5543C16.8628 15.3116 13.8062 18.3684 10.0491 18.3684C9.42791 18.3684 8.81865 18.2822 8.23001 18.1195ZM21.0515 16.7937C21.0515 16.8677 20.9911 16.9281 20.9169 16.9281H15.3644C15.4854 16.8084 15.5979 16.6807 15.7106 16.5531H20.3015C20.5086 16.5531 20.6765 16.3854 20.6765 16.1781V13.6659C20.6765 13.4586 20.5086 13.2909 20.3015 13.2909H17.4037C17.433 13.1668 17.4604 13.0423 17.4835 12.9159H20.9169C20.9911 12.9159 21.0515 12.9763 21.0515 13.0503V16.7937Z" fill="#2563EB"/>
</svg>
