<svg width="24" height="24" viewBox="0 0 24 24" fill="none" xmlns="http://www.w3.org/2000/svg">
<path d="M18.0488 11.1225H17.8988C17.9483 11.1125 17.9993 11.1125 18.0488 11.1225Z" fill="#2563EB"/>
<path d="M14.4675 21.5217H12.8137V11.873H17.5988V12.563C17.5988 12.6624 17.6383 12.7578 17.7086 12.8281C17.7789 12.8984 17.8743 12.938 17.9738 12.938C18.0732 12.938 18.1686 12.8984 18.2389 12.8281C18.3092 12.7578 18.3488 12.6624 18.3488 12.563V11.873H18.4725C18.6695 11.873 18.8646 11.8342 19.0466 11.7589C19.2286 11.6835 19.394 11.573 19.5333 11.4337C19.6726 11.2944 19.7831 11.1291 19.8584 10.947C19.9338 10.765 19.9726 10.57 19.9725 10.373V7.56045C19.9725 7.36346 19.9338 7.16838 19.8584 6.98637C19.7831 6.80436 19.6726 6.63898 19.5333 6.49968C19.394 6.36039 19.2286 6.2499 19.0466 6.17454C18.8646 6.09917 18.6695 6.06041 18.4725 6.06045H16.2188C17.9282 4.66924 16.8916 1.75098 14.6887 1.72923C14.2829 1.71825 13.8811 1.81183 13.5218 2.00095C13.1626 2.19008 12.8581 2.46841 12.6375 2.8092L10.7362 5.74545L8.835 2.8092C8.61467 2.46813 8.31018 2.18958 7.95089 2.00041C7.5916 1.81124 7.18964 1.71784 6.78375 1.7292C4.58873 1.75328 3.53836 4.66207 5.25381 6.06045L3 6.06044C2.803 6.06039 2.60792 6.09915 2.42591 6.17451C2.2439 6.24987 2.07852 6.36036 1.93922 6.49966C1.79992 6.63896 1.68943 6.80434 1.61407 6.98635C1.53871 7.16836 1.49995 7.36344 1.5 7.56044V10.3729C1.50091 10.5803 1.5445 10.7853 1.62805 10.975C1.7116 11.1648 1.83332 11.3354 1.98564 11.4761C2.13796 11.6168 2.31761 11.7246 2.51341 11.7929C2.70921 11.8612 2.91697 11.8884 3.12375 11.8729V20.5805C3.12385 21.029 3.30207 21.4591 3.61922 21.7762C3.93636 22.0934 4.36648 22.2716 4.815 22.2717H14.4675C14.5657 22.2699 14.6593 22.2295 14.7282 22.1594C14.797 22.0893 14.8355 21.995 14.8355 21.8967C14.8355 21.7984 14.797 21.7041 14.7282 21.634C14.6593 21.5639 14.5657 21.5235 14.4675 21.5217ZM18.4725 6.81044C18.6712 6.81102 18.8617 6.89023 19.0022 7.03076C19.1427 7.17128 19.2219 7.36171 19.2225 7.56044V10.3729C19.2225 10.4714 19.2031 10.569 19.1655 10.66C19.1278 10.751 19.0725 10.8337 19.0029 10.9033C18.9332 10.973 18.8505 11.0282 18.7595 11.0659C18.6685 11.1036 18.571 11.123 18.4725 11.1229H12.8137V6.81044H18.4725ZM13.2675 3.21794C13.4269 2.98251 13.644 2.79191 13.8981 2.66434C14.1522 2.53677 14.4348 2.4765 14.7188 2.4893C15.0029 2.5021 15.2789 2.58753 15.5205 2.73743C15.762 2.88733 15.9612 3.09669 16.0988 3.3455C16.2432 3.58901 16.323 3.86538 16.3306 4.1484C16.3382 4.43141 16.2734 4.71168 16.1423 4.9626C16.0112 5.21353 15.8181 5.4268 15.5814 5.58218C15.3448 5.73756 15.0723 5.82989 14.79 5.85042L11.4488 6.02295L13.2675 3.21794ZM5.3775 3.33794C5.51615 3.09056 5.71575 2.88275 5.95734 2.73424C6.19892 2.58573 6.47447 2.50146 6.7578 2.48944C7.04112 2.47742 7.32282 2.53805 7.57612 2.66556C7.82941 2.79308 8.0459 2.98324 8.205 3.21798L10.0237 6.02295L6.6825 5.85045C6.39936 5.82989 6.12621 5.73715 5.88909 5.58107C5.65196 5.425 5.45876 5.21078 5.32791 4.95886C5.19706 4.70693 5.13292 4.42569 5.1416 4.14194C5.15028 3.85819 5.23149 3.5814 5.3775 3.33794ZM8.655 21.5217H4.815C4.56561 21.5209 4.32666 21.4215 4.15031 21.2451C3.97396 21.0688 3.87454 20.8298 3.87375 20.5804V11.8729H8.655V21.5217ZM8.655 11.1229H3.57375C3.52425 11.113 3.47325 11.113 3.42375 11.1229H3C2.9015 11.123 2.80396 11.1036 2.71296 11.0659C2.62195 11.0282 2.53926 10.973 2.46961 10.9033C2.39996 10.8337 2.34472 10.751 2.30704 10.66C2.26935 10.569 2.24997 10.4714 2.25 10.3729V7.56044C2.25058 7.36171 2.32979 7.17128 2.47032 7.03076C2.61084 6.89023 2.80127 6.81102 3 6.81044H8.655V11.1229ZM12.0637 21.5217H9.405V11.8729H12.0637V21.5217ZM12.0637 11.1229H9.405V6.81044H12.0637V11.1229Z" fill="#2563EB"/>
<path d="M18.2024 13.6804C17.3528 13.6808 16.5224 13.9331 15.8162 14.4054C15.11 14.8777 14.5597 15.5488 14.235 16.3339C13.9102 17.119 13.8255 17.9827 13.9916 18.8159C14.1577 19.6491 14.5672 20.4143 15.1682 21.0148C15.7692 21.6153 16.5348 22.0241 17.3681 22.1895C18.2015 22.3549 19.0651 22.2694 19.8499 21.944C20.6347 21.6185 21.3053 21.0676 21.777 20.361C22.2487 19.6544 22.5003 18.8238 22.4999 17.9742C22.4982 16.8353 22.0448 15.7436 21.2391 14.9386C20.4334 14.1337 19.3413 13.6812 18.2024 13.6804ZM18.2024 21.5217C17.5013 21.5213 16.8161 21.3131 16.2333 20.9233C15.6505 20.5336 15.1964 19.9798 14.9282 19.332C14.6601 18.6842 14.59 17.9715 14.7269 17.2839C14.8638 16.5963 15.2014 15.9647 15.6972 15.4689C16.1929 14.9732 16.8245 14.6355 17.5121 14.4986C18.1998 14.3618 18.9125 14.4318 19.5603 14.7C20.2081 14.9681 20.7619 15.4222 21.1516 16.005C21.5414 16.5878 21.7496 17.2731 21.7499 17.9742C21.7496 18.9149 21.3757 19.817 20.7105 20.4822C20.0453 21.1474 19.1432 21.5213 18.2024 21.5217Z" fill="#2563EB"/>
<path d="M20.4884 20.037H18.7061C18.6382 20.037 18.5716 20.0186 18.5133 19.9837C18.4551 19.9489 18.4074 19.8988 18.3754 19.839C18.3434 19.7791 18.3282 19.7117 18.3315 19.6439C18.3348 19.5761 18.3564 19.5105 18.3941 19.454L19.8311 17.2985C19.8665 17.2454 19.889 17.1846 19.8968 17.1212C19.9045 17.0578 19.8974 16.9934 19.8758 16.9333C19.8542 16.8731 19.8189 16.8188 19.7726 16.7748C19.7263 16.7308 19.6703 16.6982 19.6091 16.6796C19.548 16.6611 19.4833 16.6572 19.4204 16.6681C19.3574 16.679 19.2979 16.7045 19.2466 16.7426C19.1952 16.7807 19.1535 16.8302 19.1248 16.8873C19.0961 16.9444 19.0811 17.0074 19.0811 17.0713V17.4121C19.0811 17.5115 19.0415 17.6069 18.9712 17.6772C18.9009 17.7475 18.8055 17.7871 18.7061 17.7871C18.6066 17.7871 18.5112 17.7475 18.4409 17.6772C18.3706 17.6069 18.3311 17.5115 18.3311 17.4121V17.0713C18.3311 16.8903 18.3735 16.7119 18.4548 16.5502C18.5362 16.3886 18.6543 16.2482 18.7996 16.1404C18.945 16.0325 19.1136 15.9602 19.2919 15.9292C19.4702 15.8982 19.6532 15.9094 19.8265 15.9619C19.9997 16.0143 20.1582 16.1066 20.2893 16.2313C20.4205 16.356 20.5206 16.5097 20.5817 16.6801C20.6428 16.8504 20.6632 17.0327 20.6412 17.2123C20.6192 17.392 20.5555 17.564 20.4551 17.7145L19.4066 19.287H20.4884C20.5866 19.2889 20.6801 19.3293 20.7489 19.3994C20.8177 19.4695 20.8562 19.5638 20.8562 19.662C20.8562 19.7602 20.8176 19.8545 20.7489 19.9247C20.6801 19.9948 20.5866 20.0351 20.4884 20.037Z" fill="#2563EB"/>
<path d="M17.7225 19.0462C17.7906 19.1173 17.8282 19.2123 17.8271 19.3108C17.826 19.4092 17.7864 19.5034 17.7168 19.573C17.6472 19.6426 17.553 19.6822 17.4546 19.6833C17.3561 19.6843 17.2611 19.6468 17.19 19.5787L16.7062 19.0949L16.2225 19.5787C16.1519 19.6493 16.0561 19.689 15.9562 19.689C15.8564 19.689 15.7606 19.6493 15.69 19.5787C15.6194 19.5081 15.5797 19.4123 15.5797 19.3124C15.5797 19.2126 15.6194 19.1168 15.69 19.0462L16.1737 18.5624L15.69 18.0787C15.6194 18.0081 15.5797 17.9123 15.5797 17.8124C15.5797 17.7126 15.6194 17.6168 15.69 17.5462C15.7606 17.4756 15.8564 17.4359 15.9562 17.4359C16.0561 17.4359 16.1519 17.4756 16.2225 17.5462L16.7062 18.0299L17.19 17.5462C17.2611 17.4778 17.3561 17.44 17.4548 17.4409C17.5534 17.4418 17.6478 17.4814 17.7175 17.5512C17.7873 17.6209 17.8269 17.7153 17.8278 17.8139C17.8287 17.9126 17.7909 18.0076 17.7225 18.0787L17.2387 18.5624L17.7225 19.0462Z" fill="#2563EB"/>
</svg>
