<svg width="24" height="24" viewBox="0 0 24 24" fill="none" xmlns="http://www.w3.org/2000/svg">
<path fill-rule="evenodd" clip-rule="evenodd" d="M20.4569 20.7944C19.4587 20.7944 18.6573 19.993 18.6573 18.9947C18.6573 17.9965 19.4587 17.181 20.4569 17.181C21.4552 17.181 22.2707 17.9965 22.2707 18.9947C22.2707 19.993 21.4552 20.7944 20.4569 20.7944ZM21.877 22.1019H2.12302C0.956063 22.1019 0 21.1459 0 19.9789V7.66257V5.13181C0 3.96486 0.956063 3.00879 2.12302 3.00879H4.42882V2.27768C4.42882 2.06679 4.59754 1.89807 4.80844 1.89807C5.01933 1.89807 5.18805 2.06679 5.18805 2.27768V3.00879H9.2232V2.27768C9.2232 2.06679 9.39192 1.89807 9.60281 1.89807C9.81371 1.89807 9.98243 2.06679 9.98243 2.27768V3.00879H14.0176V2.27768C14.0176 2.06679 14.1863 1.89807 14.3972 1.89807C14.6081 1.89807 14.7627 2.06679 14.7627 2.27768V3.00879H18.812V2.27768C18.812 2.06679 18.9807 1.89807 19.1916 1.89807C19.3884 1.89807 19.5571 2.06679 19.5571 2.27768V3.00879H21.877C23.0439 3.00879 24 3.96486 24 5.13181V19.9789C24 21.1459 23.0439 22.1019 21.877 22.1019ZM2.12302 3.75396C1.3638 3.75396 0.745167 4.37259 0.745167 5.13181V7.29702H23.2408V5.13181C23.2408 4.37259 22.6362 3.75396 21.877 3.75396H19.5571V4.49913C19.5571 4.69596 19.3884 4.86468 19.1916 4.86468C18.9807 4.86468 18.812 4.69596 18.812 4.49913V3.75396H14.7627V4.49913C14.7627 4.69596 14.6081 4.86468 14.3972 4.86468C14.1863 4.86468 14.0176 4.69596 14.0176 4.49913V3.75396H9.98243V4.49913C9.98243 4.69596 9.81371 4.86468 9.60281 4.86468C9.39192 4.86468 9.2232 4.69596 9.2232 4.49913V3.75396H5.18805V4.49913C5.18805 4.69596 5.01933 4.86468 4.80844 4.86468C4.59754 4.86468 4.42882 4.69596 4.42882 4.49913V3.75396H2.12302ZM0.745167 8.04218V19.9789C0.745167 20.7381 1.3638 21.3427 2.12302 21.3427H21.877C22.6362 21.3427 23.2408 20.7381 23.2408 19.9789V8.04218H0.745167ZM19.6696 6.41125H4.3304C4.11951 6.41125 3.95079 6.24254 3.95079 6.03164C3.95079 5.82074 4.11951 5.65203 4.3304 5.65203H19.6696C19.8805 5.65203 20.0492 5.82074 20.0492 6.03164C20.0492 6.24254 19.8805 6.41125 19.6696 6.41125ZM11.993 20.3023C10.5026 20.3023 9.09666 19.7258 8.02812 18.6573C6.97364 17.6028 6.38313 16.1968 6.38313 14.6924C6.38313 13.2021 6.97364 11.7821 8.02812 10.7276C9.09666 9.67312 10.5026 9.08261 11.993 9.08261C13.4974 9.08261 14.9033 9.67312 15.9578 10.7276C17.0264 11.7821 17.6028 13.2021 17.6028 14.6924C17.6028 16.1968 17.0264 17.6028 15.9578 18.6573C14.9033 19.7258 13.4974 20.3023 11.993 20.3023ZM11.993 9.84183C10.6995 9.84183 9.47627 10.348 8.56239 11.2619C7.64851 12.1758 7.14236 13.399 7.14236 14.6924C7.14236 15.9859 7.64851 17.2091 8.56239 18.1371C9.47627 19.051 10.6995 19.5571 11.993 19.5571C13.3005 19.5571 14.5097 19.051 15.4376 18.1371C16.3515 17.2091 16.8576 15.9859 16.8576 14.6924C16.8576 13.399 16.3515 12.1758 15.4376 11.2619C14.5097 10.348 13.3005 9.84183 11.993 9.84183ZM11.5993 16.8295C11.1213 16.7171 10.7276 16.3937 10.5729 15.9438C10.5167 15.7469 10.6151 15.536 10.812 15.4657C11.0088 15.4095 11.2197 15.5079 11.29 15.7047C11.3603 15.9438 11.6555 16.1125 11.9649 16.1125H11.9789H11.993C12.0492 16.1125 12.1195 16.1125 12.1757 16.0984C12.3866 16.0422 12.5554 15.9297 12.6397 15.7891C12.6678 15.7188 12.71 15.6063 12.6678 15.4798C12.5835 15.1845 12.4007 15.1424 11.9367 15.0721C11.4868 14.9877 10.8541 14.8893 10.6151 14.1441C10.5167 13.8348 10.5448 13.5114 10.7135 13.2302C10.8963 12.9069 11.2197 12.6819 11.5993 12.5835V12.4148C11.5993 12.2039 11.768 12.0352 11.9789 12.0352C12.1898 12.0352 12.3585 12.2039 12.3585 12.4148V12.5554C12.8506 12.6538 13.2724 12.9912 13.4271 13.4552C13.4833 13.652 13.3708 13.8629 13.174 13.9192C12.9772 13.9895 12.7663 13.877 12.71 13.6801C12.6116 13.3849 12.2039 13.2162 11.8102 13.3005C11.6134 13.3427 11.4446 13.4552 11.3603 13.5958C11.3181 13.6661 11.2759 13.7786 11.3322 13.9192C11.4165 14.2004 11.5852 14.2566 12.0633 14.3269C12.5132 14.3972 13.1459 14.4956 13.3849 15.2408C13.4833 15.5501 13.4411 15.8735 13.2865 16.1687C13.1037 16.4921 12.7522 16.7311 12.3585 16.8155V16.9701C12.3585 17.181 12.1898 17.3497 11.9789 17.3497C11.768 17.3497 11.5993 17.181 11.5993 16.9701V16.8295ZM11.0228 18.6995C10.9947 18.6995 10.9525 18.6995 10.9244 18.6854C9.85589 18.4042 8.97012 17.7153 8.40773 16.7592C7.8594 15.8032 7.7188 14.6924 8 13.6239C8.05624 13.4271 8.25308 13.3005 8.46397 13.3568C8.66081 13.413 8.77329 13.6239 8.73111 13.8207C8.49209 14.6924 8.60457 15.6063 9.06854 16.3937C9.51845 17.167 10.2496 17.7294 11.1213 17.9684C11.3181 18.0246 11.4446 18.2214 11.3884 18.4323C11.3462 18.6011 11.1916 18.6995 11.0228 18.6995ZM15.6344 16.0422C15.6063 16.0422 15.5641 16.0422 15.536 16.0281C15.3392 15.9719 15.2127 15.775 15.2689 15.5782C15.5079 14.6924 15.3814 13.7786 14.9315 13.0053C14.4815 12.2179 13.7504 11.6555 12.8787 11.4165C12.6678 11.3743 12.5554 11.1634 12.6116 10.9666C12.6678 10.7698 12.8647 10.6432 13.0756 10.6995C15.2689 11.29 16.5905 13.5677 16 15.761C15.9438 15.9297 15.8032 16.0422 15.6344 16.0422ZM3.54306 12.2039C2.54482 12.2039 1.72935 11.3884 1.72935 10.3902C1.72935 9.40598 2.54482 8.59051 3.54306 8.59051C4.52724 8.59051 5.34271 9.40598 5.34271 10.3902C5.34271 11.3884 4.52724 12.2039 3.54306 12.2039ZM3.54306 9.33568C2.95255 9.33568 2.47452 9.81371 2.47452 10.3902C2.47452 10.9807 2.95255 11.4587 3.54306 11.4587C4.11951 11.4587 4.59754 10.9807 4.59754 10.3902C4.59754 9.81371 4.11951 9.33568 3.54306 9.33568ZM20.4569 12.2039C19.4587 12.2039 18.6573 11.3884 18.6573 10.3902C18.6573 9.40598 19.4587 8.59051 20.4569 8.59051C21.4552 8.59051 22.2707 9.40598 22.2707 10.3902C22.2707 11.3884 21.4552 12.2039 20.4569 12.2039ZM20.4569 9.33568C19.8805 9.33568 19.4025 9.81371 19.4025 10.3902C19.4025 10.9807 19.8805 11.4587 20.4569 11.4587C21.0475 11.4587 21.5114 10.9807 21.5114 10.3902C21.5114 9.81371 21.0475 9.33568 20.4569 9.33568ZM3.54306 16.5062C2.54482 16.5062 1.72935 15.6907 1.72935 14.6924C1.72935 13.6942 2.54482 12.8928 3.54306 12.8928C4.52724 12.8928 5.34271 13.6942 5.34271 14.6924C5.34271 15.6907 4.52724 16.5062 3.54306 16.5062ZM3.54306 13.638C2.95255 13.638 2.47452 14.116 2.47452 14.6924C2.47452 15.283 2.95255 15.7469 3.54306 15.7469C4.11951 15.7469 4.59754 15.283 4.59754 14.6924C4.59754 14.116 4.11951 13.638 3.54306 13.638ZM20.4569 16.5062C19.4587 16.5062 18.6573 15.6907 18.6573 14.6924C18.6573 13.6942 19.4587 12.8928 20.4569 12.8928C21.4552 12.8928 22.2707 13.6942 22.2707 14.6924C22.2707 15.6907 21.4552 16.5062 20.4569 16.5062ZM20.4569 13.638C19.8805 13.638 19.4025 14.116 19.4025 14.6924C19.4025 15.283 19.8805 15.7469 20.4569 15.7469C21.0475 15.7469 21.5114 15.283 21.5114 14.6924C21.5114 14.116 21.0475 13.638 20.4569 13.638ZM3.54306 20.7944C2.54482 20.7944 1.72935 19.993 1.72935 18.9947C1.72935 17.9965 2.54482 17.181 3.54306 17.181C4.52724 17.181 5.34271 17.9965 5.34271 18.9947C5.34271 19.993 4.52724 20.7944 3.54306 20.7944ZM3.54306 17.9403C2.95255 17.9403 2.47452 18.4042 2.47452 18.9947C2.47452 19.5712 2.95255 20.0492 3.54306 20.0492C4.11951 20.0492 4.59754 19.5712 4.59754 18.9947C4.59754 18.4042 4.11951 17.9403 3.54306 17.9403ZM20.4569 17.9403C19.8805 17.9403 19.4025 18.4042 19.4025 18.9947C19.4025 19.5712 19.8805 20.0492 20.4569 20.0492C21.0475 20.0492 21.5114 19.5712 21.5114 18.9947C21.5114 18.4042 21.0475 17.9403 20.4569 17.9403Z" fill="#2563EB"/>
</svg>
