<svg width="24" height="24" viewBox="0 0 24 24" fill="none" xmlns="http://www.w3.org/2000/svg">
<g clip-path="url(#clip0_413_6590)">
<path d="M20.2147 3.57706V2.47942C20.2147 1.48412 19.403 0.672363 18.4041 0.672363C17.4088 0.672363 16.5971 1.48412 16.5971 2.47942V3.43234H14.2959V2.47942C14.2959 1.48412 13.4841 0.672363 12.4853 0.672363C11.49 0.672363 10.6783 1.48412 10.6783 2.47942V3.43234H8.37709V2.47942C8.37709 1.48412 7.56531 0.672363 6.5665 0.672363C5.5712 0.672363 4.75944 1.48412 4.75944 2.47942V3.43941C2.43002 3.4994 0.552368 5.40883 0.552368 7.75236V19.0076C0.552368 21.39 2.49001 23.3276 4.86885 23.3276H19.1277C21.51 23.3276 23.4477 21.39 23.4477 19.0076V7.75236C23.4477 5.74413 22.0712 4.06059 20.2147 3.57706ZM17.303 2.47942C17.303 1.87235 17.7971 1.37825 18.4041 1.37825C19.0147 1.37825 19.5088 1.87235 19.5088 2.47942V3.45352C19.3818 3.43941 19.2547 3.43234 19.1277 3.43234H17.303V2.47942ZM11.3841 2.47942C11.3841 1.87235 11.8783 1.37825 12.4853 1.37825C13.0959 1.37825 13.59 1.87235 13.59 2.47942V3.43234H11.3841V2.47942ZM5.46532 2.47942C5.46532 1.87235 5.95943 1.37825 6.5665 1.37825C7.17708 1.37825 7.67121 1.87235 7.67121 2.47942V3.43234H5.46532V2.47942ZM22.7418 19.0076C22.7418 21.0018 21.1218 22.6218 19.1277 22.6218H4.86885C2.87826 22.6218 1.25825 21.0018 1.25825 19.0076V9.27354H22.7418V19.0076ZM22.7418 8.56766H1.25825V7.75236C1.25825 5.75824 2.87826 4.13823 4.86885 4.13823H7.67121V5.49C7.67121 6.00883 7.30767 6.44294 6.82767 6.55942C6.83472 6.49236 6.84532 6.42177 6.84532 6.35117C6.84532 5.57823 6.21707 4.94648 5.44062 4.94648C4.66414 4.94648 4.0359 5.57823 4.0359 6.35117C4.0359 7.12765 4.66414 7.75587 5.44062 7.75587C5.85355 7.75587 6.2206 7.57589 6.47826 7.29001C6.51002 7.29352 6.53826 7.30059 6.5665 7.30059C7.56531 7.30059 8.37709 6.48883 8.37709 5.49V4.13823H13.59V5.49C13.59 6.03705 13.1912 6.48883 12.6688 6.57353C12.683 6.50294 12.6936 6.42883 12.6936 6.35117C12.6936 5.57823 12.0618 4.94648 11.2853 4.94648C10.5088 4.94648 9.8806 5.57823 9.8806 6.35117C9.8806 7.12765 10.5088 7.75587 11.2853 7.75587C11.7018 7.75587 12.0724 7.57236 12.33 7.28294C12.383 7.29001 12.4324 7.30059 12.4853 7.30059C13.4841 7.30059 14.2959 6.48883 14.2959 5.49V4.13823H19.1277C19.2547 4.13823 19.3818 4.14529 19.5088 4.1594V5.49C19.5088 6.00883 19.1453 6.44294 18.6653 6.55942C18.6724 6.49236 18.683 6.42177 18.683 6.35117C18.683 5.57823 18.0512 4.94648 17.2783 4.94648C16.5018 4.94648 15.8736 5.57823 15.8736 6.35117C15.8736 7.12765 16.5018 7.75587 17.2783 7.75587C17.6912 7.75587 18.0583 7.57589 18.3159 7.29001C18.3477 7.29352 18.3759 7.30059 18.4041 7.30059C19.403 7.30059 20.2147 6.48883 20.2147 5.49V4.30412C21.6759 4.76647 22.7418 6.13589 22.7418 7.75236V8.56766ZM5.48297 5.6594C5.85002 5.68058 6.13943 5.98059 6.13943 6.35117C6.13943 6.40412 6.1359 6.45001 6.12532 6.4994C5.78649 6.35117 5.53943 6.03352 5.48297 5.6594ZM5.6206 7.0253C5.5606 7.03941 5.50061 7.04999 5.44062 7.04999C5.05237 7.04999 4.74178 6.73589 4.74178 6.35117C4.74178 6.22059 4.77709 6.10058 4.84061 5.99823C4.96767 6.42883 5.24648 6.79235 5.6206 7.0253ZM11.4018 5.66647C11.7335 5.72295 11.9877 6.00883 11.9877 6.35117C11.9877 6.38999 11.9806 6.4253 11.9735 6.46059C11.6735 6.30176 11.4583 6.01234 11.4018 5.66647ZM11.5112 7.00764C11.4406 7.03235 11.363 7.04999 11.2853 7.04999C10.9006 7.04999 10.5865 6.73589 10.5865 6.35117C10.5865 6.18881 10.643 6.04412 10.7382 5.92411C10.8477 6.37588 11.13 6.76411 11.5112 7.00764ZM17.3206 5.6594C17.6877 5.68058 17.9771 5.98059 17.9771 6.35117C17.9771 6.40412 17.9735 6.45001 17.963 6.4994C17.6241 6.35117 17.3771 6.03352 17.3206 5.6594ZM17.4583 7.0253C17.3983 7.03941 17.3383 7.04999 17.2783 7.04999C16.89 7.04999 16.5794 6.73589 16.5794 6.35117C16.5794 6.22059 16.6147 6.10058 16.6783 5.99823C16.8053 6.42883 17.0841 6.79235 17.4583 7.0253Z" fill="#2563EB"/>
<path d="M11.999 10.3353C8.89245 10.3353 6.36499 12.8621 6.36499 15.9676C6.36499 19.073 8.89245 21.5995 11.999 21.5995C15.1046 21.5995 17.6312 19.073 17.6312 15.9676C17.6312 12.8621 15.1046 10.3353 11.999 10.3353ZM11.999 20.8936C9.28158 20.8936 7.07087 18.6839 7.07087 15.9676C7.07087 13.2512 9.28158 11.0412 11.999 11.0412C14.7153 11.0412 16.9253 13.2512 16.9253 15.9676C16.9253 18.6839 14.7153 20.8936 11.999 20.8936Z" fill="#2563EB"/>
<path d="M11.997 14.5325C12.2964 14.5325 12.54 14.7751 12.54 15.0736C12.54 15.2687 12.6981 15.4265 12.893 15.4265C13.0879 15.4265 13.2459 15.2687 13.2459 15.0736C13.2459 14.5092 12.8661 14.0367 12.35 13.8835V13.5922C12.35 13.3971 12.1919 13.2393 11.997 13.2393C11.8021 13.2393 11.6441 13.3971 11.6441 13.5922V13.8837C11.129 14.037 10.75 14.5094 10.75 15.0736C10.75 15.7612 11.3094 16.3206 11.997 16.3206C12.2964 16.3206 12.54 16.5632 12.54 16.8614C12.54 17.1599 12.2964 17.4025 11.997 17.4025C11.6987 17.4025 11.4559 17.1599 11.4559 16.8614C11.4559 16.6663 11.2979 16.5084 11.1029 16.5084C10.908 16.5084 10.75 16.6663 10.75 16.8614C10.75 17.4256 11.129 17.898 11.6441 18.0513V18.3428C11.6441 18.5379 11.8021 18.6957 11.997 18.6957C12.1919 18.6957 12.35 18.5379 12.35 18.3428V18.0515C12.8661 17.8983 13.2459 17.4258 13.2459 16.8614C13.2459 16.1741 12.6857 15.6147 11.997 15.6147C11.6987 15.6147 11.4559 15.3721 11.4559 15.0736C11.4559 14.7751 11.6987 14.5325 11.997 14.5325Z" fill="#2563EB"/>
<path d="M13.9655 15.9676C13.9655 16.6059 14.4849 17.125 15.1232 17.125C15.7615 17.125 16.2808 16.6059 16.2808 15.9676C16.2808 15.3292 15.7615 14.8098 15.1232 14.8098C14.4849 14.8098 13.9655 15.3292 13.9655 15.9676ZM15.5749 15.9676C15.5749 16.2164 15.3722 16.4191 15.1232 16.4191C14.874 16.4191 14.6713 16.2164 14.6713 15.9676C14.6713 15.7184 14.874 15.5157 15.1232 15.5157C15.3722 15.5157 15.5749 15.7184 15.5749 15.9676Z" fill="#2563EB"/>
<path d="M8.87295 14.8098C8.23463 14.8098 7.71521 15.3292 7.71521 15.9676C7.71521 16.6059 8.23463 17.125 8.87295 17.125C9.51128 17.125 10.0307 16.6059 10.0307 15.9676C10.0307 15.3292 9.51128 14.8098 8.87295 14.8098ZM8.87295 16.4191C8.62376 16.4191 8.42109 16.2164 8.42109 15.9676C8.42109 15.7184 8.62376 15.5157 8.87295 15.5157C9.12215 15.5157 9.32481 15.7184 9.32481 15.9676C9.32481 16.2164 9.12215 16.4191 8.87295 16.4191Z" fill="#2563EB"/>
</g>
<defs>
<clipPath id="clip0_413_6590">
<rect width="24" height="24" fill="white"/>
</clipPath>
</defs>
</svg>
