<svg width="24" height="24" viewBox="0 0 24 24" fill="none" xmlns="http://www.w3.org/2000/svg">
<g clip-path="url(#clip0_413_6777)">
<path d="M11.2668 11.5404L12.0186 8.53947L12.7461 8.72172L11.9943 11.7227L11.2668 11.5404Z" fill="#2563EB"/>
<path d="M2.625 10.875H10.5V11.625H2.625V10.875Z" fill="#2563EB"/>
<path d="M3 9H4.5C4.59946 9 4.69484 8.96049 4.76516 8.89017C4.83549 8.81984 4.875 8.72446 4.875 8.625V7.125C4.875 7.02554 4.83549 6.93016 4.76516 6.85983C4.69484 6.78951 4.59946 6.75 4.5 6.75H3C2.90054 6.75 2.80516 6.78951 2.73484 6.85983C2.66451 6.93016 2.625 7.02554 2.625 7.125V8.625C2.625 8.72446 2.66451 8.81984 2.73484 8.89017C2.80516 8.96049 2.90054 9 3 9ZM3.375 7.5H4.125V8.25H3.375V7.5Z" fill="#2563EB"/>
<path d="M6 9H7.5C7.59946 9 7.69484 8.96049 7.76517 8.89017C7.83549 8.81984 7.875 8.72446 7.875 8.625V7.125C7.875 7.02554 7.83549 6.93016 7.76517 6.85983C7.69484 6.78951 7.59946 6.75 7.5 6.75H6C5.90054 6.75 5.80516 6.78951 5.73484 6.85983C5.66451 6.93016 5.625 7.02554 5.625 7.125V8.625C5.625 8.72446 5.66451 8.81984 5.73484 8.89017C5.80516 8.96049 5.90054 9 6 9ZM6.375 7.5H7.125V8.25H6.375V7.5Z" fill="#2563EB"/>
<path d="M10.5 6.75H9C8.90054 6.75 8.80516 6.78951 8.73483 6.85983C8.66451 6.93016 8.625 7.02554 8.625 7.125V8.625C8.625 8.72446 8.66451 8.81984 8.73483 8.89017C8.80516 8.96049 8.90054 9 9 9H10.5C10.5995 9 10.6948 8.96049 10.7652 8.89017C10.8355 8.81984 10.875 8.72446 10.875 8.625V7.125C10.875 7.02554 10.8355 6.93016 10.7652 6.85983C10.6948 6.78951 10.5995 6.75 10.5 6.75ZM10.125 8.25H9.375V7.5H10.125V8.25Z" fill="#2563EB"/>
<path d="M23.625 12.375C23.6246 11.3517 23.345 10.3479 22.8163 9.47166C22.2877 8.59545 21.5301 7.88005 20.625 7.4025V2.25C20.625 1.75272 20.4275 1.27581 20.0758 0.924175C19.7242 0.572544 19.2473 0.375 18.75 0.375H2.25C2.00377 0.375 1.75995 0.423498 1.53247 0.517726C1.30498 0.611953 1.09828 0.750065 0.924175 0.924175C0.572544 1.27581 0.375 1.75272 0.375 2.25V12C0.375 12.4973 0.572544 12.9742 0.924175 13.3258C1.09828 13.4999 1.30498 13.638 1.53247 13.7323C1.75995 13.8265 2.00377 13.875 2.25 13.875H12.585C12.8609 14.8742 13.4076 15.7776 14.1646 16.4857C14.9217 17.1938 15.8596 17.6789 16.875 17.8875V19.5H16.5C16.4005 19.5 16.3052 19.5395 16.2348 19.6098C16.1645 19.6802 16.125 19.7755 16.125 19.875V23.625H16.875V20.25H19.125V23.625H19.875V19.875C19.875 19.7755 19.8355 19.6802 19.7652 19.6098C19.6948 19.5395 19.5995 19.5 19.5 19.5H19.125V17.8875C20.3955 17.6282 21.5374 16.9378 22.3575 15.9333C23.1775 14.9287 23.6253 13.6717 23.625 12.375ZM19.875 5.25H1.125V3.75H19.875V5.25ZM2.25 1.125H18.75C19.0484 1.125 19.3345 1.24353 19.5455 1.4545C19.7565 1.66548 19.875 1.95163 19.875 2.25V3H1.125V2.25C1.125 1.95163 1.24353 1.66548 1.4545 1.4545C1.66548 1.24353 1.95163 1.125 2.25 1.125ZM2.25 13.125C1.95163 13.125 1.66548 13.0065 1.4545 12.7955C1.24353 12.5845 1.125 12.2984 1.125 12V6H19.875V7.08C19.2737 6.8629 18.6393 6.75126 18 6.75C16.5082 6.75 15.0774 7.34263 14.0225 8.39752C12.9676 9.45242 12.375 10.8832 12.375 12.375C12.3767 12.626 12.3955 12.8766 12.4313 13.125H2.25ZM13.125 12.375C13.125 11.4108 13.4109 10.4683 13.9466 9.6666C14.4823 8.86491 15.2436 8.24006 16.1344 7.87109C17.0252 7.50211 18.0054 7.40557 18.9511 7.59367C19.8967 7.78177 20.7654 8.24607 21.4471 8.92785C22.1289 9.60964 22.5932 10.4783 22.7813 11.4239C22.9694 12.3696 22.8729 13.3498 22.5039 14.2406C22.1349 15.1314 21.5101 15.8927 20.7084 16.4284C19.9067 16.9641 18.9642 17.25 18 17.25C16.7071 17.25 15.4671 16.7364 14.5529 15.8221C13.6386 14.9079 13.125 13.6679 13.125 12.375ZM18.375 19.5H17.625V18H18C18 18 18.2512 18 18.375 18V19.5Z" fill="#2563EB"/>
<path d="M22.125 12.375C22.125 11.5592 21.8831 10.7616 21.4298 10.0833C20.9766 9.40492 20.3323 8.87621 19.5786 8.564C18.8248 8.25179 17.9954 8.1701 17.1953 8.32926C16.3951 8.48843 15.6601 8.88129 15.0832 9.45819C14.5063 10.0351 14.1134 10.7701 13.9543 11.5703C13.7951 12.3704 13.8768 13.1998 14.189 13.9536C14.5012 14.7073 15.0299 15.3516 15.7083 15.8048C16.3866 16.2581 17.1842 16.5 18 16.5C19.094 16.5 20.1432 16.0654 20.9168 15.2918C21.6904 14.5182 22.125 13.469 22.125 12.375ZM14.625 12.375C14.625 11.7075 14.8229 11.055 15.1938 10.5C15.5646 9.94494 16.0917 9.51235 16.7084 9.25691C17.3251 9.00146 18.0037 8.93463 18.6584 9.06485C19.3131 9.19508 19.9145 9.51651 20.3865 9.98852C20.8585 10.4605 21.1799 11.0619 21.3102 11.7166C21.4404 12.3713 21.3735 13.0499 21.1181 13.6666C20.8626 14.2833 20.4301 14.8104 19.8751 15.1812C19.32 15.5521 18.6675 15.75 18 15.75C17.1049 15.75 16.2465 15.3944 15.6135 14.7615C14.9806 14.1286 14.625 13.2701 14.625 12.375Z" fill="#2563EB"/>
<path d="M15.75 12H18.75V12.75H15.75V12Z" fill="#2563EB"/>
<path d="M19.5 12H20.25V12.75H19.5V12Z" fill="#2563EB"/>
</g>
<defs>
<clipPath id="clip0_413_6777">
<rect width="24" height="24" fill="white"/>
</clipPath>
</defs>
</svg>
