<svg width="24" height="24" viewBox="0 0 24 24" fill="none" xmlns="http://www.w3.org/2000/svg">
<path d="M11.8601 20.9201C10.1789 20.9201 8.53547 20.4217 7.13761 19.4877C5.73975 18.5537 4.65023 17.2262 4.00684 15.673C3.36346 14.1198 3.19509 12.4107 3.52304 10.7619C3.85099 9.113 4.66053 7.59841 5.84928 6.40963C7.03802 5.22084 8.55259 4.41127 10.2015 4.08327C11.8503 3.75527 13.5594 3.92359 15.1126 4.56693C16.6658 5.21028 17.9934 6.29975 18.9274 7.69759C19.8614 9.09543 20.3599 10.7388 20.3599 12.42C20.3574 14.6735 19.461 16.8341 17.8676 18.4276C16.2741 20.0211 14.1136 20.9175 11.8601 20.9201ZM11.8601 4.63993C10.3213 4.63988 8.81708 5.09613 7.53762 5.95099C6.25816 6.80585 5.26093 8.02091 4.67204 9.44253C4.08314 10.8642 3.92904 12.4285 4.22921 13.9377C4.52938 15.4469 5.27034 16.8332 6.35839 17.9213C7.44645 19.0094 8.83272 19.7504 10.3419 20.0506C11.8511 20.3508 13.4154 20.1967 14.8371 19.6079C16.2587 19.019 17.4738 18.0218 18.3287 16.7424C19.1836 15.463 19.6399 13.9588 19.6399 12.42C19.6376 10.3573 18.8172 8.37981 17.3587 6.92127C15.9002 5.46272 13.9227 4.64228 11.8601 4.63993Z" fill="#2563EB"/>
<path d="M11.86 19.0001C10.5586 19.0002 9.28634 18.6143 8.20422 17.8913C7.1221 17.1683 6.27868 16.1407 5.78061 14.9383C5.28255 13.736 5.1522 12.4129 5.40607 11.1365C5.65994 9.86006 6.28661 8.68758 7.20684 7.76731C8.12707 6.84705 9.29953 6.22033 10.5759 5.96642C11.8524 5.71251 13.1754 5.8428 14.3778 6.34082C15.5801 6.83885 16.6078 7.68223 17.3309 8.76433C18.0539 9.84642 18.4398 11.1186 18.4398 12.42C18.4379 14.1645 17.744 15.837 16.5105 17.0706C15.2769 18.3042 13.6045 18.9981 11.86 19.0001ZM11.86 6.55997C10.701 6.55992 9.56795 6.90357 8.60423 7.54745C7.64052 8.19134 6.88938 9.10654 6.44581 10.1773C6.00223 11.2481 5.88615 12.4264 6.11224 13.5631C6.33832 14.6999 6.89642 15.7441 7.71596 16.5637C8.5355 17.3832 9.57966 17.9414 10.7164 18.1675C11.8532 18.3936 13.0314 18.2776 14.1022 17.8341C15.173 17.3906 16.0883 16.6394 16.7322 15.6758C17.3761 14.7121 17.7198 13.5791 17.7198 12.42C17.7181 10.8664 17.1002 9.37693 16.0016 8.27833C14.9031 7.17973 13.4136 6.56175 11.86 6.55997Z" fill="#2563EB"/>
<path d="M6.04053 22.5288C5.80633 22.5291 5.57436 22.4833 5.35787 22.394C5.14139 22.3046 4.94463 22.1735 4.77885 22.008L3.74109 20.9712L6.34317 18.3694L6.85221 18.8784L4.75965 20.9712L5.28765 21.4992C5.48747 21.6981 5.7579 21.8097 6.03981 21.8097C6.32171 21.8097 6.59215 21.6981 6.79197 21.4992L8.57277 19.7184L9.08157 20.2272L7.30077 22.008C7.13538 22.1736 6.9389 22.3048 6.72262 22.3942C6.50635 22.4836 6.27454 22.5293 6.04053 22.5288Z" fill="#2563EB"/>
<path d="M17.7573 22.5281C17.5231 22.5286 17.2911 22.483 17.0746 22.3937C16.858 22.3045 16.6612 22.1734 16.4954 22.008L14.6927 20.2056L15.2018 19.6966L17.0042 21.499C17.2047 21.6978 17.4756 21.8093 17.7579 21.8093C18.0402 21.8093 18.3112 21.6978 18.5116 21.499L19.037 20.971L16.9099 18.8422L17.4194 18.3331L20.0543 20.971L19.0207 22.008C18.8546 22.1735 18.6575 22.3045 18.4407 22.3938C18.224 22.483 17.9917 22.5287 17.7573 22.5281Z" fill="#2563EB"/>
<path d="M20.976 8.49146L15.588 3.10346L17.2248 1.46618C17.5637 1.12832 18.0227 0.938599 18.5013 0.938599C18.9798 0.938599 19.4388 1.12832 19.7777 1.46618L20.0513 1.73978C20.3703 1.54965 20.7437 1.47135 21.1122 1.51728C21.4808 1.56321 21.8235 1.73074 22.0861 1.99336C22.3487 2.25598 22.5163 2.59869 22.5622 2.96724C22.6081 3.33579 22.5298 3.70913 22.3397 4.02818L22.6133 4.30178C22.9512 4.64067 23.1409 5.09968 23.1409 5.57822C23.1409 6.05675 22.9512 6.51577 22.6133 6.85466L20.976 8.49146ZM16.6063 3.10346L20.976 7.47338L22.104 6.34538C22.307 6.14161 22.421 5.86571 22.421 5.5781C22.421 5.29048 22.307 5.01458 22.104 4.81082L21.3658 4.07282L21.6017 3.81842C21.7685 3.6385 21.8591 3.40094 21.8545 3.15562C21.8499 2.9103 21.7504 2.67632 21.5769 2.50282C21.4034 2.32932 21.1694 2.22981 20.9241 2.22519C20.6788 2.22056 20.4412 2.31118 20.2613 2.47802L20.0069 2.71394L19.2689 1.97522C19.0651 1.77223 18.7892 1.65827 18.5016 1.65827C18.214 1.65827 17.9381 1.77223 17.7343 1.97522L16.6063 3.10346Z" fill="#2563EB"/>
<path d="M16.3486 5.55688L17.5257 4.37982L18.0347 4.88886L16.8577 6.06592L16.3486 5.55688Z" fill="#2563EB"/>
<path d="M18.0051 7.3241L19.1824 6.14686L19.6914 6.6559L18.5142 7.83314L18.0051 7.3241Z" fill="#2563EB"/>
<path d="M2.78396 8.49156L1.14692 6.85476C0.808941 6.51593 0.619141 6.05689 0.619141 5.57832C0.619141 5.09974 0.808941 4.64071 1.14692 4.30188L1.42052 4.02828C1.23047 3.70933 1.15219 3.33613 1.19808 2.9677C1.24396 2.59927 1.41139 2.25666 1.67386 1.99408C1.93634 1.73149 2.27888 1.56393 2.64728 1.51789C3.01569 1.47185 3.38893 1.54996 3.70796 1.73988L3.98156 1.46628C4.32041 1.12843 4.77938 0.938721 5.25788 0.938721C5.73637 0.938721 6.19535 1.12843 6.5342 1.46628L8.171 3.10356L2.78396 8.49156ZM1.65596 4.81092C1.45251 5.01444 1.33821 5.29043 1.33821 5.5782C1.33821 5.86597 1.45251 6.14196 1.65596 6.34548L2.78396 7.47348L7.15196 3.10356L6.02396 1.97556C5.82026 1.77253 5.54439 1.65853 5.2568 1.65853C4.9692 1.65853 4.69333 1.77253 4.48964 1.97556L3.7514 2.71428L3.49724 2.47836C3.31681 2.31461 3.08029 2.22657 2.83671 2.2325C2.59313 2.23842 2.36118 2.33786 2.18893 2.5102C2.01669 2.68253 1.91738 2.91454 1.91158 3.15813C1.90578 3.40171 1.99395 3.63818 2.1578 3.81852L2.39348 4.07268L1.65596 4.81092Z" fill="#2563EB"/>
<path d="M5.72083 4.88818L6.22987 4.37914L7.40694 5.55621L6.8979 6.06525L5.72083 4.88818Z" fill="#2563EB"/>
<path d="M4.06396 6.6543L4.573 6.14526L5.75008 7.32233L5.24104 7.83137L4.06396 6.6543Z" fill="#2563EB"/>
<path d="M14.0793 15.3816H9.83997V14.6616H13.355L13.342 12.4738H9.93789L9.95997 9.09863H14.16V9.81863H10.6754L10.6624 11.7538H14.0577L14.0793 15.3816Z" fill="#2563EB"/>
<path d="M11.64 8.22241H12.36V16.3983H11.64V8.22241Z" fill="#2563EB"/>
</svg>
