<svg width="24" height="24" viewBox="0 0 24 24" fill="none" xmlns="http://www.w3.org/2000/svg">
<g clip-path="url(#clip0_413_6441)">
<path d="M23.25 2.625H21.375V1.875C21.375 1.47718 21.217 1.09564 20.9357 0.81434C20.6544 0.533035 20.2728 0.375 19.875 0.375C19.4772 0.375 19.0956 0.533035 18.8143 0.81434C18.533 1.09564 18.375 1.47718 18.375 1.875V2.625H16.125V1.875C16.125 1.47718 15.967 1.09564 15.6857 0.81434C15.4044 0.533035 15.0228 0.375 14.625 0.375C14.2272 0.375 13.8456 0.533035 13.5643 0.81434C13.283 1.09564 13.125 1.47718 13.125 1.875V2.625H10.875V1.875C10.875 1.47718 10.717 1.09564 10.4357 0.81434C10.1544 0.533035 9.77282 0.375 9.375 0.375C8.97718 0.375 8.59564 0.533035 8.31434 0.81434C8.03304 1.09564 7.875 1.47718 7.875 1.875V2.625H5.625V1.875C5.625 1.47718 5.46696 1.09564 5.18566 0.81434C4.90436 0.533035 4.52282 0.375 4.125 0.375C3.72718 0.375 3.34564 0.533035 3.06434 0.81434C2.78304 1.09564 2.625 1.47718 2.625 1.875V2.625H0.75C0.650544 2.625 0.555161 2.66451 0.484835 2.73484C0.414509 2.80516 0.375 2.90054 0.375 3V23.25C0.375 23.3495 0.414509 23.4448 0.484835 23.5152C0.555161 23.5855 0.650544 23.625 0.75 23.625H23.25C23.3495 23.625 23.4448 23.5855 23.5152 23.5152C23.5855 23.4448 23.625 23.3495 23.625 23.25V3C23.625 2.90054 23.5855 2.80516 23.5152 2.73484C23.4448 2.66451 23.3495 2.625 23.25 2.625ZM19.125 1.875C19.125 1.67609 19.204 1.48532 19.3447 1.34467C19.4853 1.20402 19.6761 1.125 19.875 1.125C20.0739 1.125 20.2647 1.20402 20.4053 1.34467C20.546 1.48532 20.625 1.67609 20.625 1.875V4.125C20.625 4.32391 20.546 4.51468 20.4053 4.65533C20.2647 4.79598 20.0739 4.875 19.875 4.875C19.6761 4.875 19.4853 4.79598 19.3447 4.65533C19.204 4.51468 19.125 4.32391 19.125 4.125V1.875ZM13.875 1.875C13.875 1.67609 13.954 1.48532 14.0947 1.34467C14.2353 1.20402 14.4261 1.125 14.625 1.125C14.8239 1.125 15.0147 1.20402 15.1553 1.34467C15.296 1.48532 15.375 1.67609 15.375 1.875V4.125C15.375 4.32391 15.296 4.51468 15.1553 4.65533C15.0147 4.79598 14.8239 4.875 14.625 4.875C14.4261 4.875 14.2353 4.79598 14.0947 4.65533C13.954 4.51468 13.875 4.32391 13.875 4.125V1.875ZM8.625 1.875C8.625 1.67609 8.70402 1.48532 8.84467 1.34467C8.98532 1.20402 9.17609 1.125 9.375 1.125C9.57391 1.125 9.76468 1.20402 9.90533 1.34467C10.046 1.48532 10.125 1.67609 10.125 1.875V4.125C10.125 4.32391 10.046 4.51468 9.90533 4.65533C9.76468 4.79598 9.57391 4.875 9.375 4.875C9.17609 4.875 8.98532 4.79598 8.84467 4.65533C8.70402 4.51468 8.625 4.32391 8.625 4.125V1.875ZM3.375 1.875C3.375 1.67609 3.45402 1.48532 3.59467 1.34467C3.73532 1.20402 3.92609 1.125 4.125 1.125C4.32391 1.125 4.51468 1.20402 4.65533 1.34467C4.79598 1.48532 4.875 1.67609 4.875 1.875V4.125C4.875 4.32391 4.79598 4.51468 4.65533 4.65533C4.51468 4.79598 4.32391 4.875 4.125 4.875C3.92609 4.875 3.73532 4.79598 3.59467 4.65533C3.45402 4.51468 3.375 4.32391 3.375 4.125V1.875ZM2.625 3.375V4.125C2.625 4.52282 2.78304 4.90436 3.06434 5.18566C3.34564 5.46696 3.72718 5.625 4.125 5.625C4.52282 5.625 4.90436 5.46696 5.18566 5.18566C5.46696 4.90436 5.625 4.52282 5.625 4.125V3.375H7.875V4.125C7.875 4.52282 8.03304 4.90436 8.31434 5.18566C8.59564 5.46696 8.97718 5.625 9.375 5.625C9.77282 5.625 10.1544 5.46696 10.4357 5.18566C10.717 4.90436 10.875 4.52282 10.875 4.125V3.375H13.125V4.125C13.125 4.52282 13.283 4.90436 13.5643 5.18566C13.8456 5.46696 14.2272 5.625 14.625 5.625C15.0228 5.625 15.4044 5.46696 15.6857 5.18566C15.967 4.90436 16.125 4.52282 16.125 4.125V3.375H18.375V4.125C18.375 4.52282 18.533 4.90436 18.8143 5.18566C19.0956 5.46696 19.4772 5.625 19.875 5.625C20.2728 5.625 20.6544 5.46696 20.9357 5.18566C21.217 4.90436 21.375 4.52282 21.375 4.125V3.375H22.875V6.375H1.125V3.375H2.625ZM1.125 7.125H22.875V18.75H19.125C19.0255 18.75 18.9302 18.7895 18.8598 18.8598C18.7895 18.9302 18.75 19.0255 18.75 19.125V22.875H1.125V7.125ZM22.3447 19.5L19.5 22.3447V19.5H22.3447ZM20.0303 22.875L22.875 20.0303V22.875H20.0303Z" fill="#2563EB"/>
<path d="M16.4659 13.8319C16.4882 13.7227 16.4996 13.6115 16.5 13.5C16.4998 13.1335 16.3919 12.7751 16.1896 12.4695C15.9873 12.1638 15.6996 11.9244 15.3623 11.781C15.3195 11.408 15.1652 11.0565 14.9197 10.7723C14.6742 10.4882 14.3488 10.2846 13.986 10.1881C13.6231 10.0915 13.2395 10.1065 12.8853 10.2312C12.5311 10.3558 12.2226 10.5842 12 10.8866C11.7775 10.5842 11.469 10.3558 11.1148 10.2312C10.7606 10.1065 10.377 10.0915 10.0141 10.1881C9.65125 10.2846 9.32585 10.4882 9.08035 10.7723C8.83485 11.0565 8.68064 11.408 8.6378 11.781C8.30049 11.9244 8.01279 12.1638 7.8105 12.4695C7.60821 12.7751 7.50024 13.1335 7.50005 13.5C7.50045 13.6115 7.51188 13.7227 7.53417 13.8319C7.26928 14.1636 7.125 14.5755 7.125 15C7.125 15.4245 7.26928 15.8364 7.53417 16.1681C7.51188 16.2774 7.50045 16.3885 7.50005 16.5C7.50024 16.8665 7.60821 17.2249 7.8105 17.5306C8.01279 17.8362 8.30049 18.0756 8.6378 18.219C8.68064 18.5921 8.83485 18.9436 9.08035 19.2277C9.32585 19.5119 9.65125 19.7155 10.0141 19.812C10.377 19.9085 10.7606 19.8935 11.1148 19.7689C11.469 19.6443 11.7775 19.4159 12 19.1134C12.2226 19.4159 12.5311 19.6443 12.8853 19.7689C13.2395 19.8935 13.6231 19.9085 13.986 19.812C14.3488 19.7155 14.6742 19.5119 14.9197 19.2277C15.1652 18.9436 15.3195 18.5921 15.3623 18.219C15.6996 18.0756 15.9873 17.8362 16.1896 17.5306C16.3919 17.2249 16.4998 16.8665 16.5 16.5C16.4996 16.3885 16.4882 16.2774 16.4659 16.1681C16.7308 15.8364 16.8751 15.4245 16.8751 15C16.8751 14.5755 16.7308 14.1636 16.4659 13.8319ZM10.5 19.125C10.2061 19.1251 9.92381 19.0101 9.71356 18.8047C9.50331 18.5993 9.38181 18.3198 9.37505 18.0259C9.37505 18.012 9.38067 17.9749 9.38105 17.961C9.3837 17.8758 9.35721 17.7921 9.30594 17.724C9.25467 17.6558 9.18169 17.6071 9.09905 17.586C8.8569 17.5252 8.64195 17.3854 8.48818 17.1887C8.33442 16.992 8.25062 16.7497 8.25005 16.5C8.25212 16.3897 8.2707 16.2804 8.30517 16.1756C8.32488 16.1104 8.32643 16.041 8.30964 15.9749C8.29286 15.9088 8.25838 15.8486 8.20992 15.8006C8.10386 15.6962 8.01964 15.5717 7.96215 15.4343C7.90467 15.297 7.87506 15.1496 7.87506 15.0008C7.87506 14.8519 7.90467 14.7045 7.96215 14.5672C8.01964 14.4299 8.10386 14.3054 8.20992 14.2009C8.25838 14.153 8.29286 14.0927 8.30964 14.0266C8.32643 13.9606 8.32488 13.8912 8.30517 13.8259C8.27055 13.7207 8.25197 13.6108 8.25005 13.5C8.25022 13.2503 8.33371 13.0077 8.48728 12.8107C8.64085 12.6137 8.85574 12.4736 9.09792 12.4125C9.18057 12.3914 9.25355 12.3427 9.30481 12.2746C9.35608 12.2064 9.38258 12.1228 9.37992 12.0375C9.38003 12.0249 9.37839 12.0122 9.37505 12C9.37505 11.7017 9.49357 11.4155 9.70455 11.2045C9.91553 10.9935 10.2017 10.875 10.5 10.875C10.7984 10.875 11.0846 10.9935 11.2955 11.2045C11.5065 11.4155 11.625 11.7017 11.625 12V13.1006C11.1574 13.0353 10.7238 12.8191 10.3902 12.4849L9.85992 13.0151C10.3338 13.4909 10.9572 13.7886 11.625 13.8581V14.625H10.125V15.375H11.625V16.1419C10.9572 16.2114 10.3338 16.5091 9.85992 16.9849L10.3902 17.5151C10.7238 17.181 11.1574 16.9648 11.625 16.8994V18C11.625 18.2984 11.5065 18.5845 11.2955 18.7955C11.0846 19.0065 10.7984 19.125 10.5 19.125ZM15.7902 15.7999C15.7417 15.8478 15.7072 15.9081 15.6904 15.9742C15.6737 16.0402 15.6752 16.1096 15.6949 16.1749C15.7295 16.2799 15.7481 16.3895 15.75 16.5C15.7499 16.7498 15.6664 16.9924 15.5128 17.1893C15.3592 17.3863 15.1444 17.5264 14.9022 17.5875C14.8195 17.6086 14.7465 17.6573 14.6953 17.7255C14.644 17.7936 14.6175 17.8773 14.6202 17.9625C14.6202 17.9843 14.6202 18.0041 14.625 18C14.625 18.2984 14.5065 18.5845 14.2955 18.7955C14.0846 19.0065 13.7984 19.125 13.5 19.125C13.2017 19.125 12.9155 19.0065 12.7046 18.7955C12.4936 18.5845 12.375 18.2984 12.375 18V16.8994C12.8427 16.9648 13.2763 17.181 13.6099 17.5151L14.1402 16.9849C13.6663 16.5091 13.0429 16.2114 12.375 16.1419V15.375H13.875V14.625H12.375V13.8581C13.0429 13.7886 13.6663 13.4909 14.1402 13.0151L13.6099 12.4849C13.2763 12.8191 12.8427 13.0353 12.375 13.1006V12C12.3716 11.7017 12.4869 11.4141 12.6954 11.2007C12.904 10.9873 13.1887 10.8655 13.4871 10.8621C13.7855 10.8587 14.073 10.9739 14.2864 11.1824C14.4998 11.391 14.6216 11.6758 14.625 11.9741C14.6232 11.988 14.6194 12.0251 14.619 12.039C14.6164 12.1243 14.6429 12.2079 14.6942 12.2761C14.7454 12.3442 14.8184 12.3929 14.901 12.414C15.1432 12.4748 15.3581 12.6146 15.5119 12.8113C15.6657 13.008 15.7495 13.2504 15.75 13.5C15.748 13.6103 15.7294 13.7196 15.6949 13.8244C15.6752 13.8897 15.6737 13.9591 15.6904 14.0251C15.7072 14.0912 15.7417 14.1515 15.7902 14.1994C15.8962 14.3039 15.9805 14.4284 16.0379 14.5657C16.0954 14.703 16.125 14.8504 16.125 14.9993C16.125 15.1481 16.0954 15.2955 16.0379 15.4328C15.9805 15.5702 15.8962 15.6947 15.7902 15.7991V15.7999Z" fill="#2563EB"/>
<path d="M9.375 14.625H8.625V15.375H9.375V14.625Z" fill="#2563EB"/>
<path d="M15.375 14.625H14.625V15.375H15.375V14.625Z" fill="#2563EB"/>
<path d="M19.125 15C19.125 13.5908 18.7071 12.2133 17.9242 11.0416C17.1413 9.86987 16.0285 8.95664 14.7266 8.41736C13.4247 7.87809 11.9921 7.73699 10.61 8.01191C9.22787 8.28683 7.95832 8.96542 6.96187 9.96187C5.96542 10.9583 5.28683 12.2279 5.01191 13.61C4.73699 14.9921 4.87809 16.4247 5.41736 17.7266C5.95664 19.0285 6.86987 20.1413 8.04157 20.9242C9.21327 21.7071 10.5908 22.125 12 22.125C13.889 22.1229 15.7001 21.3716 17.0358 20.0358C18.3716 18.7001 19.1229 16.889 19.125 15ZM12 21.375C10.7391 21.375 9.50661 21.0011 8.45824 20.3006C7.40988 19.6001 6.59278 18.6045 6.11027 17.4396C5.62776 16.2747 5.50152 14.9929 5.7475 13.7563C5.99348 12.5197 6.60064 11.3838 7.4922 10.4922C8.38376 9.60064 9.51967 8.99348 10.7563 8.7475C11.9929 8.50152 13.2747 8.62776 14.4396 9.11027C15.6045 9.59278 16.6001 10.4099 17.3006 11.4582C18.0011 12.5066 18.375 13.7391 18.375 15C18.3731 16.6902 17.7009 18.3106 16.5057 19.5057C15.3106 20.7009 13.6902 21.3731 12 21.375Z" fill="#2563EB"/>
</g>
<defs>
<clipPath id="clip0_413_6441">
<rect width="24" height="24" fill="white"/>
</clipPath>
</defs>
</svg>
