<svg width="24" height="24" viewBox="0 0 24 24" fill="none" xmlns="http://www.w3.org/2000/svg">
<path d="M18.0378 4.80334C15.5772 4.80334 13.5754 6.80212 13.5754 9.25894C13.5754 11.7158 15.5772 13.7145 18.0378 13.7145C20.4983 13.7145 22.5001 11.7158 22.5001 9.25894C22.5001 6.80212 20.4983 4.80334 18.0378 4.80334ZM18.1929 11.2797C17.9859 11.2797 17.8179 11.1118 17.8179 10.9047C17.8179 10.6976 17.9859 10.5297 18.1929 10.5297C19.4407 10.5297 19.4407 8.62764 18.1929 8.62764H17.3569L17.7708 9.118C17.9044 9.27627 17.8844 9.51284 17.7261 9.64644C17.5682 9.7798 17.3315 9.76029 17.1977 9.60176L16.2631 8.49452C16.1443 8.35379 16.1468 8.14803 16.2631 8.01076L17.1977 6.90354C17.3313 6.7452 17.5679 6.72531 17.7261 6.85886C17.8844 6.99246 17.9044 7.22906 17.7708 7.38731L17.3569 7.87764H18.1929C19.1225 7.87764 19.8788 8.6329 19.8788 9.56127C19.8788 10.5787 19.0808 11.2797 18.1929 11.2797Z" fill="#2563EB"/>
<path d="M18.4979 17.3243C18.2908 17.3243 18.1229 17.4922 18.1229 17.6993V20.6807C18.1229 20.9858 17.874 21.234 17.568 21.234H2.8049C2.49893 21.234 2.25 20.9858 2.25 20.6807V5.30518H4.80872C5.01581 5.30518 5.18372 5.13729 5.18372 4.93018V2.76587H17.568C17.874 2.76587 18.1229 3.01411 18.1229 3.31924V3.64395C18.1229 3.85107 18.2908 4.01895 18.4979 4.01895C18.705 4.01895 18.8729 3.85107 18.8729 3.64395V3.31924C18.8729 2.60055 18.2875 2.01587 17.568 2.01587L4.80845 2.01588C4.72356 2.01588 4.63303 2.04708 4.56331 2.10733L1.62959 4.64664C1.55157 4.71423 1.5 4.81768 1.5 4.93018V20.6807C1.5 21.3993 2.08539 21.984 2.8049 21.984H17.568C18.2875 21.984 18.8729 21.3993 18.8729 20.6807V17.6993C18.8729 17.4922 18.705 17.3243 18.4979 17.3243ZM4.43372 3.21141V4.55518H2.88126L4.43372 3.21141Z" fill="#2563EB"/>
<path d="M5.61131 12.5095C5.08699 12.5095 4.6604 12.0839 4.6604 11.5608C4.6604 11.3536 4.49249 11.1858 4.2854 11.1858C4.07831 11.1858 3.9104 11.3536 3.9104 11.5608C3.9104 12.3687 4.47834 13.0463 5.23631 13.2174V13.9187C5.23631 14.1258 5.40422 14.2937 5.61131 14.2937C5.8184 14.2937 5.98631 14.1258 5.98631 13.9187V13.2174C6.74429 13.0463 7.31223 12.3687 7.31223 11.5608C7.31223 10.6241 6.54918 9.86204 5.61131 9.86204C5.08699 9.86204 4.6604 9.43646 4.6604 8.91332C4.6604 8.39019 5.08699 7.96461 5.61131 7.96461C6.13563 7.96461 6.56223 8.39019 6.56223 8.91332C6.56223 9.12044 6.73013 9.28832 6.93723 9.28832C7.14432 9.28832 7.31223 9.12044 7.31223 8.91332C7.31223 8.10535 6.74429 7.4278 5.98631 7.25672V6.43103C5.98631 6.22391 5.8184 6.05603 5.61131 6.05603C5.40422 6.05603 5.23631 6.22391 5.23631 6.43103V7.25672C4.47834 7.4278 3.9104 8.10535 3.9104 8.91332C3.9104 9.85 4.67345 10.612 5.61131 10.612C6.13564 10.612 6.56223 11.0376 6.56223 11.5608C6.56223 12.0839 6.13563 12.5095 5.61131 12.5095Z" fill="#2563EB"/>
<path d="M3.9104 19.9243C3.9104 20.1314 4.07831 20.2993 4.2854 20.2993L16.0887 20.2905C16.2953 20.2898 16.4624 20.1221 16.4624 19.9155V15.1179C16.4624 14.9108 16.2945 14.7429 16.0874 14.7429H13.5751C13.368 14.7429 13.2001 14.9108 13.2001 15.1179V19.5462L11.7334 19.5476V16.5181C11.7334 16.311 11.5655 16.1431 11.3584 16.1431H9.01442C8.80733 16.1431 8.63942 16.311 8.63942 16.5181V19.5506L7.17275 19.552V17.6755C7.17275 17.4684 7.00484 17.3005 6.79775 17.3005H4.2854C4.07831 17.3005 3.9104 17.4684 3.9104 17.6755L3.9104 19.9243ZM13.9501 15.4929H15.7124V19.5418L14.9191 19.5446C14.919 19.5446 14.9189 19.5446 14.9188 19.5446H14.9184L13.9501 19.5455V15.4929ZM9.38942 19.5493V16.8931H10.9834V19.5483L10.025 19.5493H9.38942ZM4.6604 18.0505H6.42274V19.5493H4.6604V18.0505Z" fill="#2563EB"/>
<path d="M18.4979 15.2909C18.731 15.2909 18.92 15.102 18.92 14.8689C18.92 14.6358 18.731 14.4469 18.4979 14.4469C18.2649 14.4469 18.0759 14.6358 18.0759 14.8689C18.0759 15.102 18.2649 15.2909 18.4979 15.2909Z" fill="#2563EB"/>
<path d="M18.4979 16.6034C18.731 16.6034 18.92 16.4145 18.92 16.1814C18.92 15.9483 18.731 15.7594 18.4979 15.7594C18.2649 15.7594 18.0759 15.9483 18.0759 16.1814C18.0759 16.4145 18.2649 16.6034 18.4979 16.6034Z" fill="#2563EB"/>
<path d="M8.32812 7.10156H12.1578C12.3649 7.10156 12.5328 6.93368 12.5328 6.72656C12.5328 6.51945 12.3649 6.35156 12.1578 6.35156H8.32812C8.12103 6.35156 7.95312 6.51945 7.95312 6.72656C7.95312 6.93368 8.12103 7.10156 8.32812 7.10156Z" fill="#2563EB"/>
<path d="M8.32812 9.40039H12.1578C12.3649 9.40039 12.5328 9.23251 12.5328 9.02539C12.5328 8.81828 12.3649 8.65039 12.1578 8.65039H8.32812C8.12103 8.65039 7.95312 8.81828 7.95312 9.02539C7.95312 9.23251 8.12103 9.40039 8.32812 9.40039Z" fill="#2563EB"/>
<path d="M12.2095 10.9493H8.37988C8.17279 10.9493 8.00488 11.1172 8.00488 11.3243C8.00488 11.5315 8.17279 11.6993 8.37988 11.6993H12.2095C12.4166 11.6993 12.5845 11.5315 12.5845 11.3243C12.5845 11.1172 12.4166 10.9493 12.2095 10.9493Z" fill="#2563EB"/>
<path d="M8.32812 13.9982H12.1578C12.3649 13.9982 12.5328 13.8303 12.5328 13.6232C12.5328 13.4161 12.3649 13.2482 12.1578 13.2482H8.32812C8.12103 13.2482 7.95312 13.4161 7.95312 13.6232C7.95312 13.8303 8.12103 13.9982 8.32812 13.9982Z" fill="#2563EB"/>
</svg>
