<svg width="18" height="18" viewBox="0 0 18 18" fill="none" xmlns="http://www.w3.org/2000/svg">
<path d="M8.5 10.6466C10.543 10.6466 12.1957 8.9353 12.1957 6.8233C12.1957 4.71131 10.543 3 8.5 3C6.45704 3 4.80435 4.71131 4.80435 6.8233C4.80435 8.9353 6.45704 10.6466 8.5 10.6466ZM8.5 4.52932C9.72252 4.52932 10.7174 5.55856 10.7174 6.8233C10.7174 8.08805 9.72252 9.11729 8.5 9.11729C7.27748 9.11729 6.28261 8.08805 6.28261 6.8233C6.28261 5.55856 7.27748 4.52932 8.5 4.52932ZM14.413 11.4113C14.9031 11.4113 15.3731 11.2099 15.7197 10.8514C16.0662 10.4929 16.2609 10.0066 16.2609 9.49962C16.2609 8.99262 16.0662 8.50638 15.7197 8.14788C15.3731 7.78937 14.9031 7.58797 14.413 7.58797C13.923 7.58797 13.453 7.78937 13.1064 8.14788C12.7599 8.50638 12.5652 8.99262 12.5652 9.49962C12.5652 10.0066 12.7599 10.4929 13.1064 10.8514C13.453 11.2099 13.923 11.4113 14.413 11.4113ZM14.413 8.35263C15.0243 8.35263 15.5217 8.86724 15.5217 9.49962C15.5217 10.132 15.0243 10.6466 14.413 10.6466C13.8018 10.6466 13.3043 10.132 13.3043 9.49962C13.3043 8.86724 13.8018 8.35263 14.413 8.35263ZM14.413 11.8624C13.4293 11.8624 12.6894 12.1729 12.257 12.6034C11.4329 11.9014 10.1298 11.4113 8.5 11.4113C6.82513 11.4113 5.54717 11.9068 4.73635 12.6072C4.29583 12.1752 3.54783 11.8617 2.58696 11.8617C0.969739 11.8617 0 12.6959 0 13.5309C0 13.9476 0.969739 14.3659 2.58696 14.3659C3.03339 14.3659 3.434 14.3269 3.78657 14.2642L3.757 14.4707C3.757 15.2353 5.53461 16 8.5 16C11.2806 16 13.243 15.2353 13.243 14.4707L13.2275 14.2757C13.5697 14.3315 13.9637 14.3659 14.413 14.3659C15.929 14.3659 17 13.9476 17 13.5309C17 12.6959 15.9852 11.8624 14.413 11.8624ZM2.58696 13.6005C1.61943 13.6005 1.05843 13.4422 0.800478 13.3298C0.97713 13.0201 1.54183 12.6263 2.58696 12.6263C3.40517 12.6263 3.94474 12.8947 4.21896 13.1662L4.04526 13.4292C3.71117 13.5202 3.2263 13.6005 2.58696 13.6005ZM8.5 14.4699C6.90126 14.4699 5.9123 14.2313 5.40748 14.0409C5.79257 13.5225 6.82513 12.9406 8.5 12.9406C10.1032 12.9406 11.1535 13.5225 11.5659 14.0302C11.0079 14.2367 9.96791 14.4699 8.5 14.4699ZM14.413 13.6005C13.7375 13.6005 13.2703 13.5217 12.9547 13.4376C12.9007 13.3374 12.8394 13.2416 12.7714 13.1509C13.0346 12.8871 13.563 12.6271 14.413 12.6271C15.3917 12.6271 15.9955 13.0102 16.1899 13.3237C15.9017 13.4483 15.2993 13.6005 14.413 13.6005ZM2.58696 11.4113C3.07703 11.4113 3.54703 11.2099 3.89357 10.8514C4.2401 10.4929 4.43478 10.0066 4.43478 9.49962C4.43478 8.99262 4.2401 8.50638 3.89357 8.14788C3.54703 7.78937 3.07703 7.58797 2.58696 7.58797C2.09688 7.58797 1.62688 7.78937 1.28035 8.14788C0.933812 8.50638 0.73913 8.99262 0.73913 9.49962C0.73913 10.0066 0.933812 10.4929 1.28035 10.8514C1.62688 11.2099 2.09688 11.4113 2.58696 11.4113ZM2.58696 8.35263C3.19822 8.35263 3.69565 8.86724 3.69565 9.49962C3.69565 10.132 3.19822 10.6466 2.58696 10.6466C1.9757 10.6466 1.47826 10.132 1.47826 9.49962C1.47826 8.86724 1.9757 8.35263 2.58696 8.35263Z" fill="#404040"/>
</svg>
