<svg width="12" height="12" viewBox="0 0 12 12" fill="none" xmlns="http://www.w3.org/2000/svg">
<path d="M2.07749 6.375C2.07804 6.92637 2.19527 7.47139 2.42148 7.97423C2.64769 8.47706 2.97776 8.92633 3.38999 9.2925L3.03186 9.91313C2.98648 9.9901 2.95711 10.0754 2.94551 10.1641C2.93392 10.2527 2.94033 10.3427 2.96436 10.4288C2.99924 10.5583 3.07172 10.6746 3.17265 10.763C3.27359 10.8514 3.39845 10.9078 3.53147 10.9253C3.66449 10.9427 3.7997 10.9204 3.92002 10.8611C4.04034 10.8017 4.14037 10.708 4.20749 10.5919L4.54311 10.0125C5.47849 10.3925 6.52524 10.3925 7.46061 10.0125L7.79624 10.5919C7.88648 10.7473 8.03469 10.8606 8.20835 10.9069C8.38202 10.9532 8.56696 10.9288 8.72261 10.8389C8.87827 10.749 8.99192 10.6011 9.03865 10.4276C9.08538 10.254 9.06136 10.069 8.97186 9.91313L8.61374 9.2925C9.1624 8.80471 9.56285 8.17248 9.76938 7.46799C9.97591 6.7635 9.98019 6.01513 9.78173 5.30832C9.58328 4.60151 9.19009 3.96474 8.64704 3.47071C8.104 2.97668 7.43299 2.64529 6.71061 2.51437V1.875C6.71061 1.70095 6.64147 1.53403 6.5184 1.41096C6.39533 1.28789 6.22841 1.21875 6.05436 1.21875C5.88031 1.21875 5.7134 1.28789 5.59032 1.41096C5.46725 1.53403 5.39811 1.70095 5.39811 1.875V2.49187C4.47215 2.63605 3.62835 3.10681 3.01931 3.81902C2.41026 4.53124 2.07618 5.43789 2.07749 6.375ZM3.88124 10.4006C3.84087 10.4701 3.77458 10.5208 3.69691 10.5416C3.61924 10.5623 3.53651 10.5514 3.46686 10.5113C3.43141 10.4916 3.40044 10.4648 3.37591 10.4325C3.35138 10.4002 3.33382 10.3632 3.32436 10.3238C3.31387 10.2852 3.31111 10.245 3.31626 10.2054C3.32141 10.1658 3.33436 10.1277 3.35436 10.0931L3.68249 9.53063C3.84583 9.6512 4.01822 9.75901 4.19811 9.85312L3.88124 10.4006ZM8.64561 10.0969C8.66561 10.1314 8.67856 10.1696 8.68371 10.2092C8.68886 10.2488 8.68611 10.289 8.67561 10.3275C8.66615 10.3669 8.6486 10.4039 8.62407 10.4362C8.59954 10.4685 8.56856 10.4953 8.53311 10.515C8.49869 10.5351 8.46062 10.5482 8.4211 10.5536C8.38158 10.5589 8.34139 10.5564 8.30286 10.5461C8.26434 10.5358 8.22823 10.518 8.19662 10.4936C8.16502 10.4693 8.13855 10.439 8.11874 10.4044L7.80186 9.855C7.98176 9.76089 8.15414 9.65307 8.31749 9.5325L8.64561 10.0969ZM5.77874 1.875C5.77874 1.80041 5.80837 1.72887 5.86111 1.67613C5.91386 1.62338 5.9854 1.59375 6.05999 1.59375C6.13458 1.59375 6.20612 1.62338 6.25886 1.67613C6.31161 1.72887 6.34124 1.80041 6.34124 1.875V2.45812C6.23061 2.44875 6.11811 2.44125 6.00561 2.44125C5.93061 2.44125 5.85749 2.44125 5.78436 2.4525L5.77874 1.875ZM5.99999 2.8125C6.70151 2.81213 7.3874 3.01966 7.97105 3.40887C8.5547 3.79807 9.00993 4.35151 9.27924 4.99927C9.54856 5.64704 9.61988 6.36009 9.48419 7.04836C9.34851 7.73663 9.01192 8.36927 8.51692 8.86636C8.02191 9.36346 7.39071 9.70272 6.70301 9.8413C6.01532 9.97989 5.30198 9.91158 4.65308 9.645C4.00418 9.37842 3.44883 8.92554 3.05717 8.34353C2.6655 7.76153 2.45508 7.07652 2.45249 6.375C2.45249 5.43363 2.82606 4.53073 3.49118 3.86455C4.15631 3.19837 5.05862 2.82337 5.99999 2.82188V2.8125Z" fill="#2563EB"/>
<path d="M5.99998 9.50617C6.62063 9.50617 7.22734 9.32206 7.74332 8.97712C8.25929 8.63219 8.66135 8.14194 8.89861 7.56843C9.13586 6.99491 9.19765 6.3639 9.07616 5.75525C8.95467 5.14661 8.65535 4.58768 8.21609 4.1492C7.77682 3.71073 7.21736 3.41241 6.6085 3.29201C5.99963 3.17161 5.36874 3.23454 4.79565 3.47282C4.22256 3.71111 3.73303 4.11404 3.38903 4.63064C3.04502 5.14724 2.86199 5.75427 2.8631 6.37492C2.86558 7.20559 3.19705 8.00145 3.78495 8.5883C4.37285 9.17515 5.1693 9.50519 5.99998 9.50617ZM5.99998 3.6093C6.54607 3.6093 7.0799 3.77119 7.534 4.0745C7.98811 4.37781 8.34211 4.80894 8.55126 5.31339C8.76041 5.81783 8.81532 6.37296 8.70906 6.90861C8.60279 7.44426 8.34012 7.93638 7.95424 8.32279C7.56836 8.70919 7.07659 8.97253 6.54109 9.07952C6.00558 9.18651 5.45038 9.13235 4.94565 8.92389C4.44092 8.71542 4.00931 8.36201 3.70538 7.90832C3.40146 7.45462 3.23884 6.92101 3.2381 6.37492C3.23786 6.01198 3.3091 5.65255 3.44776 5.31714C3.58643 4.98173 3.7898 4.67692 4.04626 4.42011C4.30272 4.1633 4.60726 3.95951 4.94248 3.82039C5.2777 3.68127 5.63704 3.60954 5.99998 3.6093Z" fill="#2563EB"/>
<path d="M5.57998 6.97875C5.62916 6.97854 5.6763 6.95901 5.71122 6.92437L6.56248 6.0825C6.59828 6.0462 6.6182 5.99716 6.61784 5.94617C6.61749 5.89519 6.5969 5.84643 6.5606 5.81062C6.5243 5.77482 6.47526 5.7549 6.42427 5.75525C6.37329 5.75561 6.32453 5.7762 6.28873 5.8125L5.44685 6.6525C5.42928 6.66993 5.41533 6.69067 5.40581 6.71352C5.39629 6.73636 5.39139 6.76087 5.39139 6.78562C5.39139 6.81038 5.39629 6.83488 5.40581 6.85773C5.41533 6.88058 5.42928 6.90132 5.44685 6.91875C5.4639 6.93715 5.48447 6.95193 5.50733 6.96224C5.5302 6.97255 5.5549 6.97816 5.57998 6.97875Z" fill="#2563EB"/>
<path d="M5.625 6.1875C5.66208 6.1875 5.69834 6.1765 5.72917 6.1559C5.76 6.1353 5.78404 6.10601 5.79823 6.07175C5.81242 6.03749 5.81613 5.99979 5.8089 5.96342C5.80166 5.92705 5.78381 5.89364 5.75758 5.86742C5.73136 5.8412 5.69795 5.82334 5.66158 5.8161C5.62521 5.80887 5.58751 5.81258 5.55325 5.82677C5.51899 5.84096 5.4897 5.865 5.4691 5.89583C5.4485 5.92666 5.4375 5.96292 5.4375 6C5.4375 6.04973 5.45725 6.09742 5.49242 6.13258C5.52758 6.16775 5.57527 6.1875 5.625 6.1875Z" fill="#2563EB"/>
<path d="M6.375 6.93372C6.47855 6.93372 6.5625 6.84977 6.5625 6.74622C6.5625 6.64266 6.47855 6.55872 6.375 6.55872C6.27145 6.55872 6.1875 6.64266 6.1875 6.74622C6.1875 6.84977 6.27145 6.93372 6.375 6.93372Z" fill="#2563EB"/>
<path d="M11.2294 1.28813C11.1631 1.21989 11.0838 1.16564 10.9962 1.12861C10.9086 1.09157 10.8145 1.07249 10.7194 1.07251C10.5448 1.0749 10.3772 1.14166 10.2487 1.26001C9.90322 1.1165 9.52292 1.07856 9.15585 1.15097C8.78878 1.22339 8.45139 1.40291 8.18624 1.66688L7.92187 1.93126C7.87997 1.97291 7.84673 2.02242 7.82404 2.07697C7.80135 2.13151 7.78967 2.19 7.78967 2.24907C7.78967 2.30815 7.80135 2.36663 7.82404 2.42118C7.84673 2.47572 7.87997 2.52524 7.92187 2.56688L9.95062 4.59563C9.9921 4.63747 10.0415 4.67068 10.0959 4.69334C10.1502 4.71601 10.2086 4.72767 10.2675 4.72767C10.3264 4.72767 10.3847 4.71601 10.4391 4.69334C10.4935 4.67068 10.5429 4.63747 10.5844 4.59563L10.8506 4.33126C11.1148 4.06625 11.2945 3.72885 11.3669 3.36173C11.4393 2.9946 11.4013 2.61424 11.2575 2.26876C11.3789 2.13261 11.4436 1.95519 11.4384 1.77286C11.4331 1.59052 11.3584 1.4171 11.2294 1.28813ZM10.7156 1.44751C10.7611 1.44728 10.8062 1.4563 10.8481 1.47403C10.89 1.49176 10.9279 1.51782 10.9594 1.55063C11.0031 1.59454 11.0341 1.64939 11.0493 1.70943C11.0645 1.76948 11.0632 1.8325 11.0456 1.89188C10.9858 1.80969 10.92 1.73198 10.8487 1.65938C10.7756 1.59094 10.6972 1.52825 10.6144 1.47188C10.6467 1.45882 10.6809 1.4506 10.7156 1.44751ZM10.5862 4.07251L10.3125 4.33126C10.275 4.36876 10.2469 4.36876 10.2075 4.33126L8.17874 2.29313C8.17177 2.28648 8.16621 2.27848 8.16242 2.26962C8.15862 2.26075 8.15667 2.25121 8.15667 2.24157C8.15667 2.23193 8.15862 2.22239 8.16242 2.21353C8.16621 2.20466 8.17177 2.19666 8.17874 2.19001L8.43749 1.92376C8.57809 1.78267 8.7451 1.67066 8.92899 1.59411C9.11287 1.51757 9.31004 1.47799 9.50922 1.47764C9.7084 1.47729 9.9057 1.51618 10.0899 1.59208C10.274 1.66798 10.4414 1.77941 10.5825 1.92001C10.7236 2.06061 10.8356 2.22762 10.9121 2.4115C10.9887 2.59539 11.0283 2.79255 11.0286 2.99173C11.029 3.19091 10.9901 3.38821 10.9142 3.57237C10.8383 3.75652 10.7268 3.92392 10.5862 4.06501V4.07251Z" fill="#2563EB"/>
<path d="M1.14936 4.3312L1.41561 4.59558C1.45723 4.63719 1.50663 4.6702 1.561 4.69272C1.61537 4.71524 1.67364 4.72683 1.73249 4.72683C1.79134 4.72683 1.84961 4.71524 1.90398 4.69272C1.95835 4.6702 2.00775 4.63719 2.04936 4.59558L4.08561 2.55933C4.12751 2.51768 4.16075 2.46816 4.18344 2.41362C4.20613 2.35908 4.21781 2.30059 4.21781 2.24151C4.21781 2.18244 4.20613 2.12395 4.18344 2.06941C4.16075 2.01487 4.12751 1.96535 4.08561 1.9237L3.82124 1.65933C3.55637 1.39492 3.21896 1.2151 2.85178 1.14267C2.4846 1.07024 2.10418 1.10844 1.75874 1.25245C1.62946 1.13428 1.46137 1.06758 1.28624 1.06495C1.14693 1.06421 1.01041 1.10401 0.893321 1.17949C0.776232 1.25498 0.683626 1.36289 0.626788 1.49008C0.56995 1.61727 0.551334 1.75824 0.573209 1.89583C0.595084 2.03341 0.656505 2.16166 0.749988 2.26495C0.60473 2.61025 0.565142 2.99086 0.636232 3.35866C0.707321 3.72646 0.885895 4.06491 1.14936 4.3312ZM2.48624 1.4812C2.68593 1.48049 2.88379 1.51921 3.06848 1.59514C3.25317 1.67108 3.42105 1.78273 3.56249 1.9237L3.82686 2.18995C3.83384 2.19661 3.83939 2.20461 3.84319 2.21347C3.84698 2.22233 3.84894 2.23187 3.84894 2.24151C3.84894 2.25116 3.84698 2.2607 3.84319 2.26956C3.83939 2.27842 3.83384 2.28642 3.82686 2.29308L1.78499 4.3312C1.74561 4.3687 1.71749 4.3687 1.67999 4.3312L1.41374 4.06495C1.20173 3.85322 1.05736 3.58331 0.998924 3.28944C0.940486 2.99557 0.970611 2.69096 1.08548 2.41422C1.20035 2.13749 1.3948 1.90109 1.64417 1.73499C1.89354 1.56889 2.18661 1.48056 2.48624 1.4812ZM1.03874 1.55058C1.07026 1.51776 1.10812 1.4917 1.15002 1.47397C1.19192 1.45624 1.23699 1.44722 1.28249 1.44745C1.31616 1.44771 1.34962 1.45276 1.38186 1.46245C1.29902 1.51882 1.22067 1.58151 1.14749 1.64995C1.07847 1.72263 1.01575 1.80104 0.959988 1.88433C0.942494 1.82669 0.940565 1.76546 0.954397 1.70684C0.968228 1.64822 0.997327 1.59431 1.03874 1.55058Z" fill="#2563EB"/>
<path d="M4.2375 6.89435C4.20685 7.04865 4.23331 7.20882 4.31195 7.34507C4.39059 7.48131 4.51606 7.58434 4.665 7.63498L4.93312 7.72498C5.09046 7.77868 5.23571 7.86278 5.36062 7.97248L5.5725 8.15998C5.69115 8.26288 5.84294 8.31953 6 8.31953C6.15706 8.31953 6.30884 8.26288 6.4275 8.15998L6.63937 7.97248C6.76429 7.86278 6.90954 7.77868 7.06687 7.72498L7.335 7.63498C7.48394 7.58434 7.60941 7.48131 7.68805 7.34507C7.76669 7.20882 7.79315 7.04865 7.7625 6.89435L7.6875 6.54185C7.66502 6.42921 7.66502 6.31324 7.6875 6.2006L7.75875 5.84623C7.7894 5.69193 7.76294 5.53175 7.6843 5.39551C7.60566 5.25926 7.48019 5.15623 7.33125 5.1056L7.06312 5.0156C6.90579 4.96189 6.76054 4.8778 6.63562 4.7681L6.42375 4.5806C6.30581 4.47621 6.15375 4.41858 5.99625 4.41858C5.83875 4.41858 5.68669 4.47621 5.56875 4.5806L5.35687 4.7681C5.23154 4.87821 5.0856 4.96234 4.9275 5.0156L4.66125 5.1056C4.51231 5.15623 4.38684 5.25926 4.3082 5.39551C4.22956 5.53175 4.2031 5.69193 4.23375 5.84623L4.29 6.12373C4.32185 6.28656 4.32185 6.45402 4.29 6.61685L4.2375 6.89435ZM4.66125 6.04872L4.605 5.7731C4.59235 5.70723 4.6045 5.63901 4.63911 5.58155C4.67373 5.5241 4.72835 5.48146 4.7925 5.46185L5.05875 5.37185C5.26581 5.30279 5.45704 5.19316 5.62125 5.04935L5.83312 4.86185C5.88299 4.81833 5.94694 4.79435 6.01312 4.79435C6.07931 4.79435 6.14326 4.81833 6.19312 4.86185L6.405 5.04935C6.56921 5.19316 6.76043 5.30279 6.9675 5.37185L7.23375 5.46185C7.29789 5.48146 7.35252 5.5241 7.38713 5.58155C7.42174 5.63901 7.43389 5.70723 7.42125 5.7731L7.35 6.1256C7.31811 6.28717 7.31811 6.45341 7.35 6.61497L7.42125 6.96748C7.43355 7.03355 7.42128 7.10185 7.38675 7.15952C7.35222 7.21718 7.29781 7.26025 7.23375 7.2806L6.9675 7.3706C6.76019 7.4382 6.5688 7.54729 6.405 7.69123L6.1875 7.87498C6.13673 7.9227 6.06968 7.94927 6 7.94927C5.93032 7.94927 5.86327 7.9227 5.8125 7.87498L5.60062 7.68748C5.43667 7.54375 5.24533 7.43469 5.03812 7.36685L4.77 7.27685C4.70594 7.2565 4.65153 7.21343 4.617 7.15577C4.58247 7.0981 4.5702 7.0298 4.5825 6.96373L4.63875 6.6881C4.68695 6.47836 4.69459 6.26133 4.66125 6.04872Z" fill="#2563EB"/>
</svg>
