<svg width="12" height="12" viewBox="0 0 12 12" fill="none" xmlns="http://www.w3.org/2000/svg">
<g clip-path="url(#clip0_413_7034)">
<path d="M8.14216 1.81244C8.21582 1.81244 8.27561 1.75267 8.27561 1.67899C8.27561 1.6053 8.21585 1.54553 8.14216 1.54553H7.34592C7.27225 1.54553 7.21246 1.6053 7.21246 1.67899C7.21246 1.75267 7.27223 1.81244 7.34592 1.81244H8.14216Z" fill="#2563EB"/>
<path d="M10.8672 1.58332C10.7952 1.56553 10.7231 1.60913 10.7053 1.68031C10.6875 1.75235 10.732 1.82442 10.8032 1.84221C11.2489 1.95253 11.5603 2.35109 11.5603 2.81102V4.15172H0.439734V2.81102C0.439734 2.35106 0.751102 1.95251 1.19681 1.84221C1.26799 1.82442 1.31159 1.75235 1.29469 1.68031C1.2769 1.60913 1.20483 1.56553 1.13278 1.58332C0.567867 1.72301 0.172852 2.22832 0.172852 2.81102V10.1248C0.172852 10.8223 0.740438 11.3899 1.4388 11.3899H10.5612C11.2596 11.3899 11.8272 10.8223 11.8272 10.1248V2.81102C11.8272 2.2283 11.4322 1.72301 10.8672 1.58332ZM11.5603 10.1248C11.5603 10.6755 11.1119 11.123 10.5612 11.123H1.4388C0.888117 11.123 0.439734 10.6755 0.439734 10.1248V4.4186H11.5603V10.1248Z" fill="#2563EB"/>
<path d="M3.85762 1.54553C3.78396 1.54553 3.72417 1.6053 3.72417 1.67899C3.72417 1.75267 3.78393 1.81244 3.85762 1.81244H4.65386C4.72753 1.81244 4.78732 1.75267 4.78732 1.67899C4.78732 1.6053 4.72755 1.54553 4.65386 1.54553H3.85762Z" fill="#2563EB"/>
<path d="M9.89575 5.39197H2.23858C1.94144 5.39197 1.69945 5.63305 1.69945 5.93108V9.90244C1.69945 10.1996 1.94142 10.4416 2.23858 10.4416H9.89575C10.1929 10.4416 10.4349 10.1996 10.4349 9.90244V5.93108C10.4349 5.63305 10.1929 5.39197 9.89575 5.39197ZM10.168 9.90244C10.168 10.0519 10.0461 10.1747 9.89575 10.1747H2.23858C2.08823 10.1747 1.96635 10.0519 1.96635 9.90244V5.93108C1.96635 5.78073 2.08823 5.65885 2.23858 5.65885H9.89575C10.0461 5.65885 10.168 5.78073 10.168 5.93108V9.90244Z" fill="#2563EB"/>
<path d="M9.61107 6.60628C9.35485 6.62852 9.14044 6.41412 9.16358 6.15701C9.17157 6.07873 9.10929 6.01111 9.03101 6.01111H3.05529C2.97701 6.01111 2.91563 6.07784 2.92273 6.15612C2.94497 6.40521 2.74925 6.60806 2.51082 6.60806C2.43697 6.60806 2.37737 6.66855 2.37737 6.74151V9.08662C2.37737 9.16045 2.43697 9.22008 2.51082 9.22008C2.75368 9.22008 2.94676 9.43003 2.92273 9.67556C2.91472 9.75387 2.9761 9.82237 3.05529 9.82237H9.03104C9.10932 9.82237 9.17159 9.75387 9.1636 9.67556C9.14047 9.42469 9.33708 9.22008 9.57551 9.22008C9.58796 9.22008 9.59954 9.22097 9.61109 9.22275C9.68937 9.22898 9.75699 9.1676 9.75699 9.0893V6.73973C9.75697 6.66145 9.69113 6.60007 9.61107 6.60628ZM9.49008 8.95851C9.1805 8.99766 8.93494 9.24497 8.89937 9.55547H3.18694C3.15315 9.261 2.93072 9.02346 2.64427 8.96651V6.8625C2.92986 6.80555 3.15047 6.56981 3.18608 6.27799H8.90026C8.93761 6.5858 9.18228 6.83135 9.49008 6.8696V8.95851Z" fill="#2563EB"/>
<path d="M6.06673 9.09903C6.58706 9.09903 7.00887 8.56969 7.00887 7.9167C7.00887 7.26372 6.58706 6.73438 6.06673 6.73438C5.5464 6.73438 5.12459 7.26372 5.12459 7.9167C5.12459 8.56969 5.5464 9.09903 6.06673 9.09903Z" fill="#2563EB"/>
<path d="M8.24991 8.65063C8.65525 8.65063 8.98385 8.32203 8.98385 7.91668C8.98385 7.51134 8.65525 7.18274 8.24991 7.18274C7.84456 7.18274 7.51596 7.51134 7.51596 7.91668C7.51596 8.32203 7.84456 8.65063 8.24991 8.65063Z" fill="#2563EB"/>
<path d="M3.88441 8.65063C4.28976 8.65063 4.61836 8.32203 4.61836 7.91668C4.61836 7.51134 4.28976 7.18274 3.88441 7.18274C3.47907 7.18274 3.15047 7.51134 3.15047 7.91668C3.15047 8.32203 3.47907 8.65063 3.88441 8.65063Z" fill="#2563EB"/>
<path d="M3.09798 0.610107H1.92366C1.72616 0.610107 1.56514 0.771123 1.56514 0.968631V1.88675C1.56514 2.40896 1.9895 2.83332 2.51082 2.83332C3.03214 2.83332 3.45739 2.40896 3.45739 1.88675V0.968631C3.45741 0.771123 3.29637 0.610107 3.09798 0.610107ZM3.19051 1.88675C3.19051 2.26128 2.88535 2.56644 2.51082 2.56644C2.13629 2.56644 1.83202 2.26128 1.83202 1.88675V0.968631C1.83202 0.917912 1.87294 0.87699 1.92366 0.87699H3.098C3.14872 0.87699 3.19053 0.917912 3.19053 0.968631L3.19051 1.88675Z" fill="#2563EB"/>
<path d="M6.58715 0.610107H5.41281C5.21531 0.610107 5.05429 0.771123 5.05429 0.968631V1.88675C5.05429 2.40896 5.47865 2.83332 5.99999 2.83332C6.52131 2.83332 6.94567 2.40896 6.94567 1.88675V0.968631C6.94567 0.771123 6.78466 0.610107 6.58715 0.610107ZM6.67879 1.88675C6.67879 2.26128 6.37453 2.56644 5.99999 2.56644C5.62546 2.56644 5.3212 2.26128 5.3212 1.88675V0.968631C5.3212 0.917912 5.36212 0.87699 5.41284 0.87699H6.58717C6.63789 0.87699 6.67881 0.917912 6.67881 0.968631V1.88675H6.67879Z" fill="#2563EB"/>
<path d="M10.0763 0.610107H8.902C8.7036 0.610107 8.54259 0.771123 8.54259 0.968631V1.88675C8.54259 2.40896 8.96695 2.83332 9.48916 2.83332C10.0105 2.83332 10.4348 2.40896 10.4348 1.88675V0.968631C10.4349 0.771123 10.2738 0.610107 10.0763 0.610107ZM10.168 1.88675C10.168 2.26128 9.86371 2.56644 9.48918 2.56644C9.11465 2.56644 8.80949 2.26128 8.80949 1.88675V0.968631C8.80949 0.917912 8.85131 0.87699 8.90202 0.87699H10.0764C10.1271 0.87699 10.168 0.917912 10.168 0.968631L10.168 1.88675Z" fill="#2563EB"/>
</g>
<defs>
<clipPath id="clip0_413_7034">
<rect width="12" height="12" fill="white"/>
</clipPath>
</defs>
</svg>
