<svg width="20" height="20" viewBox="0 0 20 20" fill="none" xmlns="http://www.w3.org/2000/svg">
<g clip-path="url(#clip0_43_85)">
<path d="M18.179 18.8027C18.179 18.9685 18.1132 19.1274 17.996 19.2446C17.8788 19.3618 17.7198 19.4277 17.554 19.4277H0.625C0.45924 19.4277 0.300269 19.3618 0.183058 19.2446C0.065848 19.1274 0 18.9685 0 18.8027C0 16.392 0.957644 14.08 2.66226 12.3754C4.36688 10.6708 6.67884 9.71316 9.08953 9.71316C9.84155 9.71282 10.5907 9.80547 11.32 9.98898C11.4001 10.0086 11.4755 10.0439 11.5418 10.0927C11.6082 10.1416 11.6643 10.2032 11.7068 10.2738C11.7493 10.3444 11.7774 10.4228 11.7895 10.5043C11.8016 10.5859 11.7974 10.669 11.7773 10.7489C11.7571 10.8288 11.7213 10.904 11.672 10.97C11.6226 11.0361 11.5607 11.0917 11.4898 11.1337C11.4189 11.1758 11.3404 11.2033 11.2587 11.2149C11.1771 11.2264 11.094 11.2217 11.0142 11.201C10.3849 11.0427 9.73849 10.9628 9.08961 10.9632C4.97715 10.9632 1.59414 14.1459 1.27473 18.1777H17.554C17.7198 18.1777 17.8788 18.2435 17.996 18.3608C18.1132 18.478 18.179 18.6369 18.179 18.8027ZM13.2415 16.9099C13.3587 17.0271 13.5177 17.093 13.6835 17.093C13.8492 17.093 14.0082 17.0271 14.1254 16.9099L19.1982 11.837C19.3154 11.7198 19.3812 11.5609 19.3812 11.3951C19.3812 11.2293 19.3154 11.0704 19.1982 10.9531C19.081 10.8359 18.922 10.7701 18.7562 10.7701C18.5905 10.7701 18.4315 10.8359 18.3143 10.9531L13.2414 16.0261C13.1242 16.1433 13.0584 16.3022 13.0584 16.468C13.0584 16.6337 13.1242 16.7927 13.2414 16.9099H13.2415ZM20 15.9137C20 16.3297 19.8558 16.7329 19.5919 17.0544C19.328 17.376 18.9607 17.5961 18.5527 17.6773C18.1447 17.7584 17.7212 17.6956 17.3543 17.4995C16.9875 17.3034 16.7 16.9862 16.5408 16.6018C16.3816 16.2175 16.3606 15.7899 16.4813 15.3918C16.6021 14.9937 16.8572 14.6498 17.203 14.4187C17.5489 14.1876 17.9642 14.0836 18.3782 14.1244C18.7922 14.1652 19.1793 14.3482 19.4734 14.6424C19.6409 14.809 19.7736 15.0071 19.864 15.2253C19.9544 15.4436 20.0006 15.6775 20 15.9137ZM18.75 15.9137C18.7502 15.8418 18.7361 15.7704 18.7086 15.7039C18.681 15.6374 18.6405 15.577 18.5895 15.5262C18.4998 15.4366 18.3819 15.3808 18.2557 15.3684C18.1295 15.3559 18.0029 15.3876 17.8975 15.4581C17.7921 15.5285 17.7143 15.6333 17.6775 15.7547C17.6407 15.876 17.6471 16.0064 17.6956 16.1235C17.7441 16.2406 17.8318 16.3373 17.9436 16.3971C18.0554 16.4569 18.1845 16.476 18.3089 16.4513C18.4332 16.4265 18.5452 16.3595 18.6256 16.2614C18.706 16.1634 18.75 16.0405 18.75 15.9137ZM12.9662 10.6779C13.3036 10.3413 13.7609 10.1522 14.2376 10.1522C14.7142 10.1522 15.1715 10.3413 15.5089 10.6779C15.7604 10.9294 15.9316 11.2498 16.0009 11.5985C16.0703 11.9473 16.0347 12.3088 15.8986 12.6373C15.7625 12.9659 15.532 13.2467 15.2364 13.4442C14.9407 13.6418 14.5931 13.7472 14.2375 13.7472C13.8819 13.7472 13.5342 13.6418 13.2386 13.4442C12.9429 13.2467 12.7124 12.9659 12.5763 12.6373C12.4402 12.3088 12.4046 11.9473 12.474 11.5985C12.5433 11.2498 12.7145 10.9294 12.966 10.6779H12.9662ZM13.8501 12.3369C13.9267 12.4134 14.0243 12.4655 14.1305 12.4866C14.2368 12.5077 14.3469 12.4968 14.4469 12.4553C14.547 12.4139 14.6325 12.3437 14.6926 12.2536C14.7528 12.1635 14.7849 12.0577 14.7849 11.9494C14.7849 11.8411 14.7528 11.7352 14.6926 11.6451C14.6325 11.5551 14.547 11.4848 14.4469 11.4434C14.3469 11.4019 14.2368 11.391 14.1305 11.4121C14.0243 11.4332 13.9267 11.4853 13.8501 11.5618C13.7475 11.6647 13.6898 11.8041 13.6898 11.9494C13.6898 12.0947 13.7475 12.234 13.8501 12.3369ZM5.12984 4.53203C5.12984 3.74888 5.36208 2.98331 5.79717 2.33215C6.23227 1.68098 6.85069 1.17346 7.57422 0.873757C8.29776 0.574058 9.09392 0.495643 9.86203 0.648428C10.6301 0.801213 11.3357 1.17834 11.8895 1.73211C12.4432 2.28588 12.8203 2.99143 12.9731 3.75953C13.1259 4.52764 13.0475 5.3238 12.7478 6.04734C12.4481 6.77088 11.9406 7.38929 11.2894 7.82439C10.6382 8.25949 9.87268 8.49172 9.08953 8.49172C8.03972 8.49053 7.03325 8.07297 6.29092 7.33064C5.54859 6.58831 5.13103 5.58184 5.12984 4.53203ZM6.37984 4.53203C6.37985 5.06796 6.53878 5.59184 6.83653 6.03744C7.13428 6.48304 7.55747 6.83034 8.05261 7.03543C8.54774 7.24051 9.09256 7.29417 9.61819 7.18961C10.1438 7.08505 10.6266 6.82697 11.0056 6.44802C11.3845 6.06906 11.6426 5.58624 11.7472 5.06061C11.8517 4.53498 11.798 3.99016 11.593 3.49503C11.3879 2.9999 11.0406 2.57671 10.5949 2.27897C10.1493 1.98122 9.62545 1.8223 9.08953 1.8223C8.37112 1.82311 7.68236 2.10886 7.17437 2.61686C6.66638 3.12486 6.38064 3.81362 6.37984 4.53203Z" fill="black"/>
</g>
<defs>
<clipPath id="clip0_43_85">
<rect width="20" height="20" fill="white"/>
</clipPath>
</defs>
</svg>
