<svg width="20" height="20" viewBox="0 0 20 20" fill="none" xmlns="http://www.w3.org/2000/svg">
<path d="M10 7.5C11.723 7.5 13.125 6.09802 13.125 4.375C13.125 2.65198 11.723 1.25 10 1.25C8.27698 1.25 6.875 2.65198 6.875 4.375C6.875 6.09802 8.27698 7.5 10 7.5ZM10 2.5C11.0339 2.5 11.875 3.34106 11.875 4.375C11.875 5.40894 11.0339 6.25 10 6.25C8.96606 6.25 8.125 5.40894 8.125 4.375C8.125 3.34106 8.96606 2.5 10 2.5Z" fill="black"/>
<path d="M3.4375 8.125C4.81598 8.125 5.9375 7.00378 5.9375 5.625C5.9375 4.24622 4.81598 3.125 3.4375 3.125C2.05902 3.125 0.9375 4.24622 0.9375 5.625C0.9375 7.00378 2.05902 8.125 3.4375 8.125ZM3.4375 4.375C4.12689 4.375 4.6875 4.93591 4.6875 5.625C4.6875 6.31409 4.12689 6.875 3.4375 6.875C2.74811 6.875 2.1875 6.31409 2.1875 5.625C2.1875 4.93591 2.74811 4.375 3.4375 4.375Z" fill="black"/>
<path d="M16.5625 8.125C17.941 8.125 19.0625 7.00378 19.0625 5.625C19.0625 4.24622 17.941 3.125 16.5625 3.125C15.184 3.125 14.0625 4.24622 14.0625 5.625C14.0625 7.00378 15.184 8.125 16.5625 8.125ZM16.5625 4.375C17.2519 4.375 17.8125 4.93591 17.8125 5.625C17.8125 6.31409 17.2519 6.875 16.5625 6.875C15.8731 6.875 15.3125 6.31409 15.3125 5.625C15.3125 4.93591 15.8731 4.375 16.5625 4.375Z" fill="black"/>
<path d="M18.9947 10.3857C18.3511 9.73389 17.4872 9.375 16.5625 9.375C15.5154 9.375 14.5465 9.85817 13.9067 10.6381C12.9898 9.48936 11.5806 8.75 10 8.75C8.42037 8.75 7.01195 9.48834 6.09497 10.6358C6.02413 10.5502 5.95016 10.4663 5.87006 10.3864C5.25177 9.75953 4.42292 9.40124 3.53578 9.37622C1.60403 9.32173 0 11.0597 0 12.9462V15.625C0 16.6589 0.841063 17.5 1.875 17.5H5.11521C5.37403 18.2259 6.06129 18.75 6.875 18.75H13.125C13.9387 18.75 14.626 18.2259 14.8848 17.5H18.125C19.1589 17.5 20 16.6589 20 15.625V12.8125C20 11.8878 19.6411 11.0242 18.9947 10.3857ZM1.25 15.625C1.25 15.625 1.25 12.9477 1.25 12.9462C1.25 11.7412 2.26753 10.6019 3.50096 10.6262C4.29463 10.6419 5.03291 11.1312 5.38185 11.8376C5.13679 12.4272 5 13.0727 5 13.75V16.25H1.875C1.53046 16.25 1.25 15.9699 1.25 15.625ZM13.125 17.5H6.875C6.53046 17.5 6.25 17.2198 6.25 16.875V13.75C6.25 11.6821 7.93213 10 10 10C12.0679 10 13.75 11.6821 13.75 13.75V16.875C13.75 17.2198 13.4695 17.5 13.125 17.5ZM18.75 15.625C18.75 15.9699 18.4695 16.25 18.125 16.25H15V13.75C15 13.0697 14.8624 12.4213 14.6152 11.8296C14.978 11.1022 15.7307 10.625 16.5625 10.625C17.7288 10.625 18.75 11.6512 18.75 12.8125V15.625Z" fill="black"/>
</svg>
