<svg width="20" height="20" viewBox="0 0 20 20" fill="none" xmlns="http://www.w3.org/2000/svg">
<path fill-rule="evenodd" clip-rule="evenodd" d="M15.625 2.5C14.5894 2.5 13.75 3.33946 13.75 4.375V15.625C13.75 16.6606 14.5894 17.5 15.625 17.5H16.875C17.9106 17.5 18.75 16.6606 18.75 15.625V4.375C18.75 3.33947 17.9106 2.5 16.875 2.5H15.625ZM15 4.375C15 4.02982 15.2798 3.75 15.625 3.75H16.875C17.2202 3.75 17.5 4.02982 17.5 4.375V15.625C17.5 15.9702 17.2202 16.25 16.875 16.25H15.625C15.2798 16.25 15 15.9702 15 15.625V4.375Z" fill="black"/>
<path fill-rule="evenodd" clip-rule="evenodd" d="M10 6.875C8.96444 6.875 8.125 7.71444 8.125 8.75V15.625C8.125 16.6606 8.96444 17.5 10 17.5H10.625C11.6606 17.5 12.5 16.6606 12.5 15.625V8.75C12.5 7.71444 11.6606 6.875 10.625 6.875H10ZM9.375 8.75C9.375 8.40481 9.65481 8.125 10 8.125H10.625C10.9702 8.125 11.25 8.40481 11.25 8.75V15.625C11.25 15.9702 10.9702 16.25 10.625 16.25H10C9.65481 16.25 9.375 15.9702 9.375 15.625V8.75Z" fill="black"/>
<path fill-rule="evenodd" clip-rule="evenodd" d="M6.24707 12.6057C6.97687 12.8622 7.5 13.5575 7.5 14.375V16.875C7.5 17.2202 7.22019 17.5 6.875 17.5H1.875C1.52983 17.5 1.25 17.2202 1.25 16.875V14.375C1.25 13.5575 1.77316 12.8622 2.50293 12.6057C2.50099 12.5707 2.5 12.5354 2.5 12.5C2.5 11.4644 3.33947 10.625 4.375 10.625C5.41053 10.625 6.25 11.4644 6.25 12.5C6.25 12.5354 6.24901 12.5707 6.24707 12.6057ZM2.99054 13.7645C3.3334 14.1397 3.82672 14.375 4.375 14.375C4.92328 14.375 5.4166 14.1397 5.75946 13.7645C6.04001 13.826 6.25 14.076 6.25 14.375V16.25H2.5V14.375C2.5 14.076 2.70999 13.826 2.99054 13.7645ZM3.75 12.5C3.75 12.1548 4.02982 11.875 4.375 11.875C4.72018 11.875 5 12.1548 5 12.5C5 12.8452 4.72018 13.125 4.375 13.125C4.02982 13.125 3.75 12.8452 3.75 12.5Z" fill="black"/>
</svg>
