<svg width="20" height="20" viewBox="0 0 20 20" fill="none" xmlns="http://www.w3.org/2000/svg">
<path d="M17.4068 8.20339C17.4068 4.22507 14.1817 1 10.2034 1C6.22507 1 3 4.22507 3 8.20339C3 10.222 3.83527 12.0412 5.17297 13.349L10.2034 18L15.2338 13.349C16.5715 12.0412 17.4068 10.222 17.4068 8.20339Z" stroke="black" stroke-width="1.5" stroke-miterlimit="10" stroke-linecap="round" stroke-linejoin="round"/>
<path d="M10.2034 6.7627C10.999 6.7627 11.6441 6.11769 11.6441 5.32203C11.6441 4.52636 10.999 3.88135 10.2034 3.88135C9.40771 3.88135 8.7627 4.52636 8.7627 5.32203C8.7627 6.11769 9.40771 6.7627 10.2034 6.7627Z" stroke="black" stroke-width="1.5" stroke-miterlimit="10" stroke-linecap="round" stroke-linejoin="round"/>
<path d="M13.0847 12.0068H7.32202V10.5661C7.32202 8.97477 8.61204 9.12543 10.2034 9.12543C11.7947 9.12543 13.0847 8.97477 13.0847 10.5661V12.0068Z" stroke="black" stroke-width="1.5" stroke-miterlimit="10" stroke-linecap="round" stroke-linejoin="round"/>
</svg>
