<svg width="104" height="104" viewBox="0 0 104 104" fill="none" xmlns="http://www.w3.org/2000/svg">
<rect width="104" height="104" rx="8" fill="#3C61D6"/>
<g clip-path="url(#clip0_569_1578)">
<path d="M29.1199 61.63H45.5799L43.3999 81.78C43.353 82.213 43.4488 82.6495 43.6726 83.0231C43.8964 83.3967 44.236 83.6871 44.6399 83.85C45.0466 84.0216 45.4985 84.0538 45.9254 83.9416C46.3523 83.8295 46.7301 83.5793 46.9999 83.23L76.4499 45.6C76.6799 45.3051 76.8227 44.9516 76.8619 44.5796C76.901 44.2076 76.8351 43.8321 76.6716 43.4957C76.5081 43.1593 76.2535 42.8755 75.9368 42.6765C75.6201 42.4775 75.2539 42.3714 74.8799 42.37H58.4199L60.5999 22.22C60.6468 21.787 60.5511 21.3506 60.3272 20.977C60.1034 20.6034 59.7638 20.313 59.3599 20.15C58.9533 19.9785 58.5013 19.9463 58.0744 20.0584C57.6475 20.1706 57.2697 20.4208 56.9999 20.77L27.5499 58.4C27.3199 58.695 27.1772 59.0485 27.138 59.4205C27.0988 59.7925 27.1647 60.168 27.3282 60.5044C27.4917 60.8408 27.7463 61.1246 28.063 61.3236C28.3797 61.5225 28.7459 61.6287 29.1199 61.63ZM55.8699 28.74L54.1999 44.15C54.1689 44.4306 54.1975 44.7145 54.284 44.9831C54.3706 45.2518 54.5129 45.4991 54.7018 45.7087C54.8908 45.9184 55.1219 46.0858 55.3801 46.1997C55.6383 46.3137 55.9177 46.3718 56.1999 46.37H70.7699L48.1299 75.26L49.7999 59.85C49.831 59.5695 49.8023 59.2856 49.7158 59.017C49.6293 58.7483 49.4869 58.501 49.298 58.2913C49.1091 58.0816 48.8779 57.9143 48.6197 57.8003C48.3615 57.6864 48.0821 57.6283 47.7999 57.63H33.2299L55.8699 28.74Z" fill="white"/>
</g>
<defs>
<clipPath id="clip0_569_1578">
<rect width="64" height="64" fill="white" transform="translate(20 20)"/>
</clipPath>
</defs>
</svg>
