<svg width="64" height="64" viewBox="0 0 64 64" fill="none" xmlns="http://www.w3.org/2000/svg">
<g clip-path="url(#clip0_545_1081)">
<path d="M62.0606 61.0909H58.0849V33.9394C58.0849 33.3576 57.697 32.9697 57.1152 32.9697H52.5576C51.9758 32.9697 51.5879 33.3576 51.5879 33.9394V61.0909H47.1273V38.9818C47.1273 38.4 46.7394 38.0121 46.1576 38.0121H41.6C41.0182 38.0121 40.6303 38.4 40.6303 38.9818V61.0909H36.1697V48.097C36.1697 47.5151 35.7818 47.1273 35.2 47.1273H30.6425C30.0606 47.1273 29.6728 47.5151 29.6728 48.097V61.0909H25.2122V45.0909C25.2122 44.5091 24.8243 44.1212 24.2425 44.1212H19.6849C19.1031 44.1212 18.7152 44.5091 18.7152 45.0909V61.0909H14.2546V52.1697C14.2546 51.5879 13.8667 51.2 13.2849 51.2H8.7273C8.14548 51.2 7.75761 51.5879 7.75761 52.1697V61.0909H2.90912V9.50302C2.90912 8.9212 2.52124 8.53333 1.93942 8.53333C1.35761 8.53333 0.969727 8.9212 0.969727 9.50302V62.0606C0.969727 62.6424 1.35761 63.0303 1.93942 63.0303H62.0606C62.6425 63.0303 63.0303 62.6424 63.0303 62.0606C63.0303 61.4788 62.6425 61.0909 62.0606 61.0909ZM12.3152 61.0909H9.697V53.1394H12.3152V61.0909ZM23.2728 61.0909H20.6546V46.0606H23.2728V61.0909ZM34.2303 61.0909H31.6122V49.0667H34.2303V61.0909ZM45.1879 61.0909H42.5697V39.9515H45.1879V61.0909ZM56.1455 61.0909H53.5273V34.9091H56.1455V61.0909Z" fill="white"/>
<path d="M10.9576 40.2425C8.82427 40.2425 7.17578 41.988 7.17578 44.0243C7.17578 46.0607 8.92124 47.8061 10.9576 47.8061C12.994 47.8061 14.7394 46.0607 14.7394 44.0243C14.7394 43.5395 14.6424 43.0546 14.4485 42.6668L19.4909 39.0789C20.1697 39.6607 20.9455 39.9516 21.9152 39.9516C23.2728 39.9516 24.4364 39.2728 25.1152 38.2062L29.0909 39.5637V39.8546C29.0909 41.988 30.8364 43.6365 32.8728 43.6365C34.9091 43.6365 36.6546 41.891 36.6546 39.8546C36.6546 39.2728 36.5576 38.788 36.2667 38.3031L41.5031 34.1334C42.1818 34.6183 42.9576 34.9092 43.7334 34.9092C45.8667 34.9092 47.5152 33.1637 47.5152 31.1274C47.5152 30.7395 47.4182 30.3516 47.3212 29.9637L52.0728 26.9577C52.7515 27.6365 53.6243 28.0243 54.6909 28.0243C56.8243 28.0243 58.4728 26.2789 58.4728 24.2425C58.4728 22.1092 56.7273 20.4607 54.6909 20.4607C52.5576 20.4607 50.9091 22.2061 50.9091 24.2425C50.9091 24.6304 51.0061 25.0183 51.1031 25.4061L46.5455 28.3152C45.8667 27.6365 44.994 27.2486 43.9273 27.2486C41.794 27.2486 40.1455 28.994 40.1455 31.0304C40.1455 31.6122 40.2424 32.0971 40.5334 32.5819L35.2 36.8486C34.5212 36.3637 33.7455 36.0728 32.9697 36.0728C31.6121 36.0728 30.4485 36.7516 29.7697 37.8183L25.794 36.4607C25.794 36.3637 25.794 36.2668 25.794 36.1698C25.794 34.0365 24.0485 32.388 22.0121 32.388C19.9758 32.388 18.2303 34.1334 18.2303 36.1698C18.2303 36.6546 18.3273 37.1395 18.5212 37.5274L13.5758 41.1152C12.8 40.6304 11.9273 40.2425 10.9576 40.2425ZM10.9576 45.9637C9.89093 45.9637 9.11517 45.091 9.11517 44.1213C9.11517 43.1516 9.9879 42.2789 10.9576 42.2789C11.5394 42.2789 12.1212 42.5698 12.5091 43.0546C12.7031 43.3455 12.897 43.7334 12.897 44.1213C12.897 45.091 12.0243 45.9637 10.9576 45.9637ZM54.8849 22.3031C55.9515 22.3031 56.7273 23.1758 56.7273 24.1455C56.7273 25.1152 55.8546 25.988 54.8849 25.988C54.2061 25.988 53.6243 25.6001 53.3334 25.1152C53.1394 24.8243 53.0424 24.4365 53.0424 24.1455C52.9455 23.1758 53.8182 22.3031 54.8849 22.3031ZM43.9273 29.188C44.994 29.188 45.7697 30.0607 45.7697 31.0304C45.7697 32.0001 44.897 32.9698 43.9273 32.9698C42.9576 32.9698 42.0849 32.0971 42.0849 31.1274C42.0849 30.1577 42.8606 29.188 43.9273 29.188ZM32.9697 38.0122C34.0364 38.0122 34.8121 38.8849 34.8121 39.8546C34.8121 40.8243 33.9394 41.794 32.9697 41.794C32 41.794 31.0303 41.0183 31.0303 39.9516C31.0303 38.8849 31.9031 38.0122 32.9697 38.0122ZM22.0121 34.2304C23.0788 34.2304 23.8546 35.1031 23.8546 36.0728C23.8546 37.0425 22.9818 37.9152 22.0121 37.9152C21.4303 37.9152 20.8485 37.6243 20.4606 37.1395C20.2667 36.8486 20.0728 36.4607 20.0728 36.0728C20.0728 35.1031 20.9455 34.2304 22.0121 34.2304Z" fill="white"/>
<path d="M28.7998 31.0303C37.0423 31.0303 43.8301 24.2425 43.8301 16C43.8301 7.75761 37.1392 0.969727 28.7998 0.969727C20.4604 0.969727 13.7695 7.75761 13.7695 16C13.7695 24.3394 20.5574 31.0303 28.7998 31.0303ZM27.8301 3.00609V4.46064C27.8301 5.04245 28.218 5.43033 28.7998 5.43033C29.3817 5.43033 29.7695 5.04245 29.7695 4.46064V3.00609C36.1695 3.49094 41.4059 8.63033 41.7938 15.0303H40.3392C39.7574 15.0303 39.3695 15.4182 39.3695 16C39.3695 16.5818 39.7574 16.9697 40.3392 16.9697H41.7938C41.3089 23.3697 36.1695 28.6061 29.7695 28.994V27.5394C29.7695 26.9576 29.3817 26.5697 28.7998 26.5697C28.218 26.5697 27.8301 26.9576 27.8301 27.5394V29.0909C21.4301 28.6061 16.1938 23.4667 15.8059 17.0667H17.2604C17.8423 17.0667 18.2301 16.6788 18.2301 16.097C18.2301 15.5152 17.8423 15.1273 17.2604 15.1273H15.8059C16.2907 8.63033 21.4301 3.49094 27.8301 3.00609Z" fill="white"/>
<path d="M24.4362 23.6607C24.921 23.9516 25.5029 23.7577 25.7938 23.2728L28.121 19.2001C28.315 19.2971 28.6059 19.2971 28.8968 19.2971C30.7392 19.2971 32.1938 17.8425 32.1938 16.0001C32.1938 14.5455 31.2241 13.2849 29.8665 12.8971V7.75766C29.8665 7.17584 29.4786 6.78796 28.8968 6.78796C28.315 6.78796 27.9271 7.17584 27.9271 7.75766V12.8971C26.5695 13.2849 25.5998 14.5455 25.5998 16.0001C25.5998 16.8728 25.8907 17.6486 26.4725 18.2304L24.0483 22.3031C23.7574 22.788 23.9513 23.3698 24.4362 23.6607ZM28.7998 14.6425C29.5756 14.6425 30.1574 15.2243 30.1574 16.0001C30.1574 16.7758 29.5756 17.3577 28.7998 17.3577C28.5089 17.3577 28.315 17.2607 28.121 17.1637C27.7332 16.9698 27.4422 16.4849 27.4422 16.0001C27.4422 15.3213 28.0241 14.6425 28.7998 14.6425Z" fill="white"/>
</g>
<defs>
<clipPath id="clip0_545_1081">
<rect width="64" height="64" fill="white"/>
</clipPath>
</defs>
</svg>
