<svg width="24" height="24" viewBox="0 0 24 24" fill="none" xmlns="http://www.w3.org/2000/svg">
<g clip-path="url(#clip0_545_10103)">
<path d="M23.2729 22.909H21.782V12.7272C21.782 12.509 21.6365 12.3636 21.4183 12.3636H19.7092C19.491 12.3636 19.3456 12.509 19.3456 12.7272V22.909H17.6729V14.6181C17.6729 14.4 17.5274 14.2545 17.3092 14.2545H15.6001C15.382 14.2545 15.2365 14.4 15.2365 14.6181V22.909H13.5638V18.0363C13.5638 17.8181 13.4183 17.6727 13.2001 17.6727H11.491C11.2729 17.6727 11.1274 17.8181 11.1274 18.0363V22.909H9.45468V16.909C9.45468 16.6909 9.30922 16.5454 9.09104 16.5454H7.38195C7.16377 16.5454 7.01831 16.6909 7.01831 16.909V22.909H5.34559V19.5636C5.34559 19.3454 5.20013 19.2 4.98195 19.2H3.27286C3.05468 19.2 2.90922 19.3454 2.90922 19.5636V22.909H1.09104V3.56359C1.09104 3.34541 0.945588 3.19995 0.727406 3.19995C0.509224 3.19995 0.36377 3.34541 0.36377 3.56359V23.2727C0.36377 23.4909 0.509224 23.6363 0.727406 23.6363H23.2729C23.491 23.6363 23.6365 23.4909 23.6365 23.2727C23.6365 23.0545 23.491 22.909 23.2729 22.909ZM4.61832 22.909H3.6365V19.9272H4.61832V22.909ZM8.72741 22.909H7.74559V17.2727H8.72741V22.909ZM12.8365 22.909H11.8547V18.4H12.8365V22.909ZM16.9456 22.909H15.9638V14.9818H16.9456V22.909ZM21.0547 22.909H20.0729V13.0909H21.0547V22.909Z" fill="white"/>
<path d="M4.1091 15.0909C3.3091 15.0909 2.69092 15.7455 2.69092 16.5091C2.69092 17.2727 3.34546 17.9273 4.1091 17.9273C4.87274 17.9273 5.52728 17.2727 5.52728 16.5091C5.52728 16.3273 5.49092 16.1455 5.41819 16L7.3091 14.6545C7.56365 14.8727 7.85456 14.9818 8.21819 14.9818C8.72728 14.9818 9.16365 14.7273 9.41819 14.3273L10.9091 14.8364V14.9455C10.9091 15.7455 11.5636 16.3636 12.3273 16.3636C13.0909 16.3636 13.7455 15.7091 13.7455 14.9455C13.7455 14.7273 13.7091 14.5455 13.6 14.3636L15.5636 12.8C15.8182 12.9818 16.1091 13.0909 16.4 13.0909C17.2 13.0909 17.8182 12.4364 17.8182 11.6727C17.8182 11.5273 17.7818 11.3818 17.7455 11.2364L19.5273 10.1091C19.7818 10.3636 20.1091 10.5091 20.5091 10.5091C21.3091 10.5091 21.9273 9.85455 21.9273 9.09091C21.9273 8.29091 21.2727 7.67273 20.5091 7.67273C19.7091 7.67273 19.0909 8.32727 19.0909 9.09091C19.0909 9.23637 19.1273 9.38182 19.1636 9.52728L17.4546 10.6182C17.2 10.3636 16.8727 10.2182 16.4727 10.2182C15.6727 10.2182 15.0546 10.8727 15.0546 11.6364C15.0546 11.8545 15.0909 12.0364 15.2 12.2182L13.2 13.8182C12.9455 13.6364 12.6546 13.5273 12.3636 13.5273C11.8546 13.5273 11.4182 13.7818 11.1636 14.1818L9.67274 13.6727C9.67274 13.6364 9.67274 13.6 9.67274 13.5636C9.67274 12.7636 9.01819 12.1455 8.25456 12.1455C7.49092 12.1455 6.83637 12.8 6.83637 13.5636C6.83637 13.7455 6.87274 13.9273 6.94546 14.0727L5.09092 15.4182C4.80001 15.2364 4.47274 15.0909 4.1091 15.0909ZM4.1091 17.2364C3.7091 17.2364 3.41819 16.9091 3.41819 16.5455C3.41819 16.1818 3.74546 15.8545 4.1091 15.8545C4.32728 15.8545 4.54546 15.9636 4.69092 16.1455C4.76365 16.2545 4.83637 16.4 4.83637 16.5455C4.83637 16.9091 4.5091 17.2364 4.1091 17.2364ZM20.5818 8.36364C20.9818 8.36364 21.2727 8.69091 21.2727 9.05455C21.2727 9.41818 20.9455 9.74546 20.5818 9.74546C20.3273 9.74546 20.1091 9.6 20 9.41818C19.9273 9.30909 19.8909 9.16364 19.8909 9.05455C19.8546 8.69091 20.1818 8.36364 20.5818 8.36364ZM16.4727 10.9455C16.8727 10.9455 17.1636 11.2727 17.1636 11.6364C17.1636 12 16.8364 12.3636 16.4727 12.3636C16.1091 12.3636 15.7818 12.0364 15.7818 11.6727C15.7818 11.3091 16.0727 10.9455 16.4727 10.9455ZM12.3636 14.2545C12.7636 14.2545 13.0546 14.5818 13.0546 14.9455C13.0546 15.3091 12.7273 15.6727 12.3636 15.6727C12 15.6727 11.6364 15.3818 11.6364 14.9818C11.6364 14.5818 11.9636 14.2545 12.3636 14.2545ZM8.25456 12.8364C8.65456 12.8364 8.94546 13.1636 8.94546 13.5273C8.94546 13.8909 8.61819 14.2182 8.25456 14.2182C8.03637 14.2182 7.81819 14.1091 7.67274 13.9273C7.60001 13.8182 7.52728 13.6727 7.52728 13.5273C7.52728 13.1636 7.85456 12.8364 8.25456 12.8364Z" fill="white"/>
<path d="M10.7999 11.6364C13.8908 11.6364 16.4363 9.09092 16.4363 6.00001C16.4363 2.9091 13.9272 0.363647 10.7999 0.363647C7.67267 0.363647 5.16357 2.9091 5.16357 6.00001C5.16357 9.12728 7.70903 11.6364 10.7999 11.6364ZM10.4363 1.12728V1.67274C10.4363 1.89092 10.5818 2.03637 10.7999 2.03637C11.0181 2.03637 11.1636 1.89092 11.1636 1.67274V1.12728C13.5636 1.3091 15.5272 3.23637 15.6727 5.63637H15.1272C14.909 5.63637 14.7636 5.78183 14.7636 6.00001C14.7636 6.21819 14.909 6.36365 15.1272 6.36365H15.6727C15.4908 8.76365 13.5636 10.7273 11.1636 10.8727V10.3273C11.1636 10.1091 11.0181 9.96365 10.7999 9.96365C10.5818 9.96365 10.4363 10.1091 10.4363 10.3273V10.9091C8.0363 10.7273 6.07266 8.80001 5.92721 6.40001H6.47266C6.69085 6.40001 6.8363 6.25456 6.8363 6.03638C6.8363 5.81819 6.69085 5.67274 6.47266 5.67274H5.92721C6.10903 3.23638 8.0363 1.3091 10.4363 1.12728Z" fill="white"/>
<path d="M9.164 8.87268C9.34581 8.98177 9.564 8.90905 9.67309 8.72723L10.5458 7.19996C10.6185 7.23632 10.7276 7.23632 10.8367 7.23632C11.5276 7.23632 12.0731 6.69087 12.0731 5.99996C12.0731 5.4545 11.7095 4.98177 11.2004 4.83632V2.90905C11.2004 2.69086 11.0549 2.54541 10.8367 2.54541C10.6185 2.54541 10.4731 2.69086 10.4731 2.90905V4.83632C9.964 4.98177 9.60036 5.4545 9.60036 5.99996C9.60036 6.32723 9.70945 6.61814 9.92763 6.83632L9.01854 8.36359C8.90945 8.54541 8.98218 8.76359 9.164 8.87268ZM10.8004 5.49086C11.0913 5.49086 11.3095 5.70905 11.3095 5.99996C11.3095 6.29086 11.0913 6.50905 10.8004 6.50905C10.6913 6.50905 10.6185 6.47268 10.5458 6.43632C10.4004 6.36359 10.2913 6.18177 10.2913 5.99996C10.2913 5.74541 10.5095 5.49086 10.8004 5.49086Z" fill="white"/>
</g>
<defs>
<clipPath id="clip0_545_10103">
<rect width="24" height="24" fill="white"/>
</clipPath>
</defs>
</svg>
