<svg width="24" height="24" viewBox="0 0 24 24" fill="none" xmlns="http://www.w3.org/2000/svg">
<path d="M11.5405 10.9597C10.6799 10.9597 9.97965 11.6599 9.97965 12.5205C9.97965 12.992 10.187 13.4272 10.5434 13.7218V15.3393C10.5434 15.8891 10.9907 16.3364 11.5405 16.3364C12.0903 16.3364 12.5376 15.8891 12.5376 15.3393V13.7218C12.894 13.4272 13.1013 12.992 13.1013 12.5205C13.1013 11.6599 12.4012 10.9597 11.5405 10.9597ZM11.9656 13.2111C11.855 13.2794 11.7876 13.4002 11.7876 13.5302V15.3394C11.7876 15.4733 11.6745 15.5864 11.5405 15.5864C11.4066 15.5864 11.2935 15.4733 11.2935 15.3394V13.5302C11.2935 13.4002 11.2261 13.2794 11.1154 13.2111C10.8739 13.062 10.7297 12.8038 10.7297 12.5205C10.7297 12.0735 11.0935 11.7097 11.5405 11.7097C11.9876 11.7097 12.3514 12.0735 12.3514 12.5205C12.3513 12.8038 12.2072 13.062 11.9656 13.2111ZM21.1177 14.6392C21.2603 13.9115 21.3335 13.1599 21.3335 12.4015V4.78621C21.3335 4.63621 21.2441 4.5006 21.1062 4.44149L11.6882 0.40527C11.5939 0.36491 11.4871 0.36491 11.3928 0.40527L1.97486 4.44153C1.837 4.50064 1.74756 4.63621 1.74756 4.78625V12.4016C1.74756 15.2032 2.7062 17.7673 4.51984 19.8164C6.26795 21.7917 8.7384 23.1422 11.4761 23.6195C11.4974 23.6232 11.5189 23.625 11.5405 23.625C11.5621 23.625 11.5836 23.6232 11.6049 23.6195C13.396 23.3073 15.0949 22.6151 16.5329 21.6157C16.976 21.7702 17.4516 21.8544 17.9466 21.8544C20.3208 21.8544 22.2523 19.9229 22.2523 17.5488C22.2524 16.4279 21.8218 15.406 21.1177 14.6392ZM11.5405 22.8692C6.21282 21.9111 2.49756 17.6156 2.49756 12.4015V5.03352L11.5405 1.15799L20.5834 5.03352V12.4016C20.5834 12.9591 20.5412 13.5125 20.4587 14.0539C20.1872 13.8583 19.8923 13.6935 19.5788 13.5646C19.6232 13.1818 19.646 12.792 19.646 12.4016V5.89892C19.646 5.74892 19.5566 5.61332 19.4187 5.55421L11.6882 2.24122C11.5939 2.20086 11.4871 2.20086 11.3928 2.24122L3.66236 5.55425C3.5245 5.61336 3.43506 5.74892 3.43506 5.89897V12.4016C3.43506 14.7473 4.22434 16.8987 5.71754 18.623C7.17053 20.3008 9.15836 21.4342 11.4662 21.9007C11.4907 21.9056 11.5156 21.9081 11.5405 21.9081C11.5654 21.9081 11.5903 21.9056 11.6148 21.9007C12.8129 21.6585 13.9315 21.232 14.945 20.6324C15.1846 20.8657 15.4511 21.0714 15.7395 21.2443C14.4895 22.0396 13.0513 22.5973 11.5405 22.8692ZM13.662 17.1235H7.46181C7.3329 17.1235 7.22804 17.0186 7.22804 16.8897V10.4064C7.22804 10.2775 7.3329 10.1726 7.46181 10.1726H15.6192C15.7481 10.1726 15.853 10.2775 15.853 10.4064V13.7875C14.6517 14.4588 13.8032 15.6888 13.662 17.1235ZM14.497 9.42256H13.7218V8.42671C13.7218 7.22394 12.7433 6.24538 11.5405 6.24538C10.3377 6.24538 9.35917 7.22394 9.35917 8.42671V9.42256H8.584V8.42671C8.584 6.79653 9.91028 5.47025 11.5405 5.47025C13.1707 5.47025 14.497 6.79653 14.497 8.42671V9.42256ZM10.1092 9.42256V8.42671C10.1092 7.63747 10.7513 6.99538 11.5405 6.99538C12.3297 6.99538 12.9718 7.63747 12.9718 8.42671V9.42256H10.1092ZM15.6192 9.42256H15.2471V8.42671C15.2471 6.38296 13.5843 4.72025 11.5405 4.72025C9.49675 4.72025 7.83404 6.383 7.83404 8.42671V9.42256H7.46186C6.91942 9.42256 6.47809 9.86389 6.47809 10.4063V16.8897C6.47809 17.4321 6.91942 17.8734 7.46186 17.8734H13.6532C13.7139 18.683 13.9996 19.4308 14.4475 20.0546C13.5581 20.5639 12.5826 20.9318 11.5406 21.1501C7.13743 20.228 4.18515 16.7211 4.18515 12.4015V6.14624L11.5406 2.99394L18.8961 6.14624V12.4015C18.8961 12.7157 18.88 13.0293 18.849 13.3384C18.558 13.276 18.2561 13.243 17.9467 13.243C17.4777 13.243 17.0261 13.3186 16.6031 13.4579V10.4064C16.603 9.86389 16.1617 9.42256 15.6192 9.42256ZM17.9466 21.1043C15.986 21.1043 14.391 19.5093 14.391 17.5487C14.391 15.588 15.986 13.993 17.9466 13.993C19.9073 13.993 21.5023 15.588 21.5023 17.5487C21.5024 19.5093 19.9073 21.1043 17.9466 21.1043ZM20.4293 15.6965C20.2487 15.5168 20.0091 15.4181 19.7544 15.4181C19.7531 15.4181 19.7518 15.4181 19.7506 15.4181C19.4949 15.419 19.255 15.5196 19.0752 15.7011L17.4291 17.3637L16.8173 16.7519C16.4438 16.3783 15.8359 16.3784 15.4624 16.7519C15.089 17.1255 15.089 17.7332 15.4625 18.1068L16.7543 19.3985C16.941 19.5853 17.1864 19.6787 17.4317 19.6787C17.677 19.6787 17.9224 19.5853 18.1091 19.3985C18.5981 18.9095 19.0913 18.4093 19.5683 17.9255C19.8565 17.6331 20.1448 17.3407 20.4338 17.0491C20.8047 16.6746 20.8027 16.0679 20.4293 15.6965ZM19.901 16.5212C19.6116 16.8132 19.3229 17.1061 19.0342 17.399C18.5582 17.8818 18.0659 18.381 17.5787 18.8682C17.4977 18.9493 17.3657 18.9493 17.2846 18.8682L15.9928 17.5765C15.9117 17.4954 15.9117 17.3633 15.9928 17.2823C16.0333 17.2417 16.0866 17.2214 16.1399 17.2214C16.1932 17.2214 16.2464 17.2417 16.287 17.2823L17.1652 18.1605C17.2356 18.2308 17.331 18.2704 17.4304 18.2704H17.4313C17.5311 18.2701 17.6267 18.2301 17.6969 18.1592L19.6082 16.2289C19.6468 16.1899 19.6984 16.1683 19.7535 16.1681C19.8078 16.166 19.8612 16.1893 19.9005 16.2283C19.9812 16.3086 19.9814 16.44 19.901 16.5212Z" fill="white"/>
</svg>
