<svg width="64" height="64" viewBox="0 0 64 64" fill="none" xmlns="http://www.w3.org/2000/svg">
<path d="M30.7747 29.2258C28.4797 29.2258 26.6124 31.093 26.6124 33.388C26.6124 34.6453 27.1654 35.806 28.1158 36.5913V40.9048C28.1158 42.371 29.3085 43.5637 30.7747 43.5637C32.2408 43.5637 33.4335 42.371 33.4335 40.9048V36.5913C34.384 35.8058 34.9368 34.6453 34.9368 33.388C34.9369 31.093 33.0698 29.2258 30.7747 29.2258ZM31.9083 35.2297C31.6133 35.4118 31.4337 35.7338 31.4337 36.0806V40.905C31.4337 41.2621 31.1319 41.5638 30.7748 41.5638C30.4177 41.5638 30.1159 41.2622 30.1159 40.905V36.0806C30.1159 35.7338 29.9362 35.4117 29.6412 35.2296C28.997 34.832 28.6125 34.1436 28.6125 33.3881C28.6125 32.196 29.5825 31.226 30.7748 31.226C31.967 31.226 32.937 32.196 32.937 33.3881C32.9369 34.1435 32.5524 34.832 31.9083 35.2297ZM56.3138 39.0378C56.6942 37.0972 56.8893 35.0931 56.8893 33.0707V12.7632C56.8893 12.3632 56.6509 12.0016 56.2832 11.844L31.1687 1.08072C30.9172 0.973094 30.6323 0.973094 30.3808 1.08072L5.26628 11.8441C4.89866 12.0017 4.66016 12.3632 4.66016 12.7633V33.0708C4.66016 40.542 7.21653 47.3793 12.0529 52.8438C16.7145 58.1111 23.3024 61.7126 30.6029 62.9852C30.6598 62.9951 30.7172 63.0001 30.7747 63.0001C30.8322 63.0001 30.8895 62.9951 30.9464 62.9852C35.7227 62.1527 40.253 60.307 44.0878 57.642C45.2693 58.0538 46.5377 58.2785 47.8577 58.2785C54.1888 58.2785 59.3395 53.1277 59.3395 46.7967C59.3397 43.8078 58.1915 41.0827 56.3138 39.0378ZM30.7747 60.9845C16.5675 58.4297 6.66016 46.975 6.66016 33.0707V13.4227L30.7747 3.08797L54.8892 13.4227V33.0708C54.8892 34.5577 54.7764 36.0332 54.5564 37.477C53.8327 36.9553 53.046 36.516 52.2102 36.1723C52.3285 35.1516 52.3893 34.1121 52.3893 33.0708V15.7305C52.3893 15.3305 52.1509 14.9688 51.7832 14.8112L31.1687 5.97659C30.9172 5.86897 30.6323 5.86897 30.3808 5.97659L9.76628 14.8113C9.39866 14.969 9.16016 15.3305 9.16016 15.7306V33.0708C9.16016 39.3262 11.2649 45.0631 15.2468 49.6612C19.1214 54.1355 24.4223 57.158 30.5765 58.4018C30.6419 58.415 30.7083 58.4216 30.7747 58.4216C30.841 58.4216 30.9074 58.415 30.9728 58.4018C34.1677 57.7561 37.1507 56.6186 39.8533 55.0198C40.4923 55.642 41.2029 56.1905 41.972 56.6515C38.6387 58.7722 34.8034 60.2595 30.7747 60.9845ZM36.4319 45.6626H19.8982C19.5544 45.6626 19.2748 45.383 19.2748 45.0393V27.7503C19.2748 27.4066 19.5544 27.127 19.8982 27.127H41.6513C41.995 27.127 42.2747 27.4066 42.2747 27.7503V36.7666C39.0712 38.5568 36.8087 41.8367 36.4319 45.6626ZM38.6588 25.1268H36.5915V22.4712C36.5915 19.2638 33.982 16.6543 30.7747 16.6543C27.5673 16.6543 24.9578 19.2638 24.9578 22.4712V25.1268H22.8907V22.4712C22.8907 18.1241 26.4274 14.5873 30.7747 14.5873C35.1219 14.5873 38.6588 18.1241 38.6588 22.4712V25.1268ZM26.9578 25.1268V22.4712C26.9578 20.3666 28.67 18.6543 30.7747 18.6543C32.8793 18.6543 34.5915 20.3666 34.5915 22.4712V25.1268H26.9578ZM41.6513 25.1268H40.6589V22.4712C40.6589 17.0212 36.2249 12.5873 30.7748 12.5873C25.3247 12.5873 20.8908 17.0213 20.8908 22.4712V25.1268H19.8983C18.4518 25.1268 17.2749 26.3037 17.2749 27.7502V45.0392C17.2749 46.4857 18.4518 47.6625 19.8983 47.6625H36.4087C36.5704 49.8213 37.3322 51.8156 38.5268 53.479C36.155 54.837 33.5535 55.8182 30.7749 56.4003C19.0332 53.9413 11.1604 44.5897 11.1604 33.0706V16.39L30.7749 7.98384L50.3895 16.39V33.0707C50.3895 33.9085 50.3468 34.7447 50.264 35.569C49.4879 35.4027 48.683 35.3146 47.8579 35.3146C46.6072 35.3146 45.4029 35.5163 44.2749 35.8877V27.7503C44.2747 26.3037 43.0978 25.1268 41.6513 25.1268ZM47.8577 56.2782C42.6294 56.2782 38.3759 52.0247 38.3759 46.7965C38.3759 41.5681 42.6294 37.3146 47.8577 37.3146C53.086 37.3146 57.3395 41.5681 57.3395 46.7965C57.3397 52.0247 53.086 56.2782 47.8577 56.2782ZM54.4782 41.8575C53.9964 41.3782 53.3575 41.1148 52.6783 41.1148C52.675 41.1148 52.6715 41.1148 52.6683 41.1148C51.9863 41.1175 51.3468 41.3856 50.8673 41.8697L46.4775 46.3032L44.8462 44.6717C43.85 43.6756 42.2292 43.6757 41.2332 44.6718C40.2373 45.668 40.2373 47.2886 41.2333 48.2847L44.678 51.7295C45.176 52.2275 45.8304 52.4766 46.4845 52.4766C47.1387 52.4766 47.793 52.2275 48.291 51.7293C49.595 50.4252 50.9102 49.0913 52.1822 47.8012C52.9508 47.0216 53.7195 46.2418 54.4902 45.4642C55.4793 44.4657 55.4739 42.8478 54.4782 41.8575ZM53.0694 44.0565C52.2975 44.8353 51.5277 45.6163 50.7579 46.3972C49.4884 47.6847 48.1758 49.0161 46.8767 50.3152C46.6604 50.5315 46.3084 50.5315 46.0922 50.3152L42.6474 46.8706C42.4312 46.6543 42.4312 46.3022 42.6474 46.0861C42.7555 45.978 42.8975 45.9238 43.0397 45.9238C43.1818 45.9238 43.3237 45.978 43.4319 46.0861L45.7739 48.4281C45.9615 48.6156 46.2159 48.721 46.481 48.721H46.4835C46.7497 48.7203 47.0045 48.6137 47.1917 48.4246L52.2884 43.277C52.3914 43.173 52.529 43.1153 52.676 43.1148C52.8209 43.1092 52.9632 43.1713 53.0679 43.2755C53.2832 43.4897 53.2838 43.84 53.0694 44.0565Z" fill="white"/>
</svg>
