<svg width="64" height="64" viewBox="0 0 64 64" fill="none" xmlns="http://www.w3.org/2000/svg">
<g clip-path="url(#clip0_545_1072)">
<path d="M9.11991 41.63H25.5799L23.3999 61.78C23.353 62.213 23.4488 62.6495 23.6726 63.0231C23.8964 63.3967 24.236 63.6871 24.6399 63.85C25.0466 64.0216 25.4985 64.0538 25.9254 63.9416C26.3523 63.8295 26.7301 63.5793 26.9999 63.23L56.4499 25.6C56.6799 25.3051 56.8227 24.9516 56.8619 24.5796C56.901 24.2076 56.8351 23.8321 56.6716 23.4957C56.5081 23.1593 56.2535 22.8755 55.9368 22.6765C55.6201 22.4775 55.2539 22.3714 54.8799 22.37H38.4199L40.5999 2.22004C40.6468 1.78705 40.5511 1.35059 40.3272 0.976971C40.1034 0.603355 39.7638 0.313006 39.3599 0.150039C38.9533 -0.0215001 38.5013 -0.0537066 38.0744 0.0584374C37.6475 0.170582 37.2697 0.420777 36.9999 0.770039L7.54991 38.4C7.31988 38.695 7.17716 39.0485 7.13796 39.4205C7.09877 39.7925 7.16467 40.168 7.32819 40.5044C7.4917 40.8408 7.74627 41.1246 8.06299 41.3236C8.37971 41.5225 8.74588 41.6287 9.11991 41.63ZM35.8699 8.74004L34.1999 24.15C34.1689 24.4306 34.1975 24.7145 34.284 24.9831C34.3706 25.2518 34.5129 25.4991 34.7018 25.7087C34.8908 25.9184 35.1219 26.0858 35.3801 26.1997C35.6383 26.3137 35.9177 26.3718 36.1999 26.37H50.7699L28.1299 55.26L29.7999 39.85C29.831 39.5695 29.8023 39.2856 29.7158 39.017C29.6293 38.7483 29.4869 38.501 29.298 38.2913C29.1091 38.0816 28.8779 37.9143 28.6197 37.8003C28.3615 37.6864 28.0821 37.6283 27.7999 37.63H13.2299L35.8699 8.74004Z" fill="white"/>
</g>
<defs>
<clipPath id="clip0_545_1072">
<rect width="64" height="64" fill="white"/>
</clipPath>
</defs>
</svg>
