<svg width="12" height="12" viewBox="0 0 12 12" fill="none" xmlns="http://www.w3.org/2000/svg">
<path d="M3.62681 6.89026C3.64673 6.8655 3.66958 6.8387 3.69522 6.80984C3.72085 6.78113 3.74766 6.75271 3.77563 6.72473C3.80361 6.69675 3.82954 6.67156 3.85356 6.64915C3.9 6.60593 3.94717 6.56023 3.99522 6.51233C4.04326 6.46428 4.08648 6.41433 4.12485 6.36233C4.16323 6.31033 4.19443 6.25628 4.21846 6.20032C4.24248 6.14436 4.25435 6.08591 4.25435 6.02512C4.25435 5.95159 4.24365 5.88552 4.22197 5.82708C4.20044 5.76878 4.16675 5.71912 4.12119 5.67825C4.07563 5.63753 4.01763 5.60588 3.94717 5.58347C3.87685 5.56106 3.79277 5.54993 3.69521 5.54993C3.58799 5.54993 3.48765 5.57117 3.39404 5.6135C3.30044 5.65584 3.21841 5.70989 3.14795 5.77551L3.32563 6.02512C3.33677 6.01384 3.35361 5.99905 3.37603 5.98074C3.39844 5.96228 3.42524 5.94397 3.45645 5.92551C3.48765 5.90706 3.52207 5.89109 3.55957 5.87747C3.59722 5.86384 3.63765 5.85711 3.68086 5.85711C3.74004 5.85711 3.78955 5.87146 3.82954 5.90032C3.86953 5.92903 3.8896 5.97869 3.8896 6.04915C3.8896 6.08108 3.88242 6.11272 3.86807 6.14392C3.85356 6.17513 3.83364 6.20633 3.80801 6.23753C3.78237 6.26873 3.75278 6.30066 3.71924 6.33347C3.68555 6.36629 3.64966 6.40115 3.61128 6.43792C3.56162 6.48596 3.51167 6.53387 3.46128 6.58191C3.41074 6.62996 3.36562 6.68152 3.32563 6.73675C3.28564 6.79182 3.25327 6.85159 3.22837 6.91546C3.20361 6.97947 3.19116 7.04993 3.19116 7.12669V7.18426C3.19116 7.2115 3.19277 7.23391 3.19599 7.25149H4.30488V6.95149H3.5896C3.59443 6.93552 3.60674 6.91516 3.62681 6.89026Z" fill="#2563EB"/>
<path d="M4.93361 6.88672H4.55919C4.55919 6.89141 4.55963 6.90107 4.56036 6.91543C4.56124 6.92993 4.56198 6.94502 4.56285 6.96113C4.56359 6.9771 4.56432 6.99263 4.5652 7.00786C4.56593 7.0231 4.56637 7.0354 4.56637 7.04507C4.56637 7.10586 4.55919 7.18262 4.54484 7.27549C4.53048 7.36821 4.50485 7.46753 4.46808 7.573L4.74874 7.64272C4.77921 7.59307 4.80646 7.54107 4.83048 7.48672C4.85436 7.43223 4.87443 7.37788 4.89039 7.32354C4.90636 7.26904 4.91881 7.21514 4.9276 7.16152C4.93639 7.10791 4.94078 7.05708 4.94078 7.00903C4.94078 6.9979 4.94034 6.98428 4.93961 6.96831C4.93873 6.95234 4.93683 6.9251 4.93361 6.88672Z" fill="#2563EB"/>
<path d="M5.5551 6.19556C5.55993 6.15557 5.56433 6.10884 5.56828 6.05522C5.57224 6.00161 5.5759 5.94595 5.57912 5.88838H6.17912V5.58838H5.27912C5.27268 5.72271 5.26389 5.8667 5.25276 6.02036C5.24148 6.17402 5.22712 6.3252 5.20954 6.47402C5.34065 6.47402 5.44948 6.48032 5.53591 6.49321C5.62234 6.50596 5.69104 6.52441 5.74231 6.54829C5.79343 6.57231 5.82946 6.60234 5.85027 6.63838C5.87107 6.67441 5.88147 6.71558 5.88147 6.76201C5.88147 6.82119 5.85671 6.87275 5.80706 6.9167C5.75754 6.96079 5.67756 6.98276 5.56711 6.98276C5.47585 6.98276 5.39748 6.97441 5.33186 6.95757C5.26623 6.94072 5.2135 6.92358 5.17351 6.90601L5.10876 7.20117C5.12795 7.21069 5.15505 7.22036 5.19036 7.23003C5.22551 7.23955 5.26506 7.24878 5.30916 7.25757C5.3531 7.26636 5.39866 7.27353 5.44597 7.2791C5.49314 7.28481 5.53826 7.2876 5.58147 7.2876C5.69192 7.2876 5.78831 7.27397 5.87078 7.24673C5.9531 7.21963 6.02151 7.18198 6.07586 7.13393C6.13035 7.08603 6.17107 7.0292 6.19832 6.96357C6.22556 6.89795 6.23904 6.82676 6.23904 6.75C6.23904 6.58359 6.18352 6.45351 6.07234 6.35991C5.96101 6.26631 5.78874 6.21152 5.5551 6.19556Z" fill="#2563EB"/>
<path d="M8.70001 6.41249C8.45927 6.41249 8.22734 6.45039 8.00924 6.51965L7.29569 4.21873C7.56677 3.93032 7.86958 3.48919 7.98429 2.88486C8.04464 2.56625 8.04464 2.24018 7.98429 1.91571C7.97404 1.86034 7.93947 1.81244 7.88995 1.78549C7.58453 1.6185 7.28981 1.56137 7.01368 1.61601C6.62169 1.6935 6.40358 1.96948 6.22823 2.19125C6.07589 2.38403 5.9754 2.50268 5.8361 2.51308C5.69034 2.52363 5.58165 2.40893 5.41539 2.22055C5.23551 2.01694 5.01183 1.76352 4.65045 1.76249H4.6484C4.29464 1.76249 4.07989 2.00683 3.90734 2.20312C3.73902 2.39472 3.62667 2.51249 3.45675 2.51249H3.45235C3.28917 2.51044 3.16773 2.40277 2.98331 2.22714C2.77765 2.03144 2.52174 1.78783 2.11144 1.76279C1.87677 1.74931 1.64093 1.80688 1.40875 1.93622C1.35631 1.96537 1.32101 2.01796 1.31383 2.07773C1.27736 2.38183 1.27574 2.85248 1.47511 3.36767C1.60687 3.70822 1.81371 4.02199 2.07139 4.28301L1.14244 7.27763C1.05616 7.5539 1.01251 7.83969 1.01251 8.12695C1.01251 8.16972 1.01398 8.2141 1.01559 8.25878C1.03991 8.7747 1.20514 9.27729 1.49386 9.71279C2.02487 10.511 2.91491 10.9875 3.87452 10.9875H5.51251C5.98331 10.9875 6.45016 10.8703 6.8628 10.6485C6.98394 10.5834 7.09672 10.5079 7.20489 10.428C7.61991 10.7882 8.14872 10.9875 8.70001 10.9875C8.84122 10.9875 8.98102 10.9745 9.11782 10.9491C9.52823 10.873 9.91177 10.6854 10.2261 10.4027C10.7099 9.96972 10.9875 9.34907 10.9875 8.69999C10.9875 7.43862 9.96139 6.41249 8.70001 6.41249ZM6.50471 8.06249H1.38997C1.39056 8.03965 1.39134 8.01683 1.39258 7.99402C1.39397 7.96837 1.39508 7.9427 1.39726 7.91711C1.40028 7.88179 1.40481 7.84661 1.40936 7.81144C1.41247 7.78735 1.41499 7.76321 1.41882 7.7392C1.42504 7.70017 1.43309 7.66138 1.44119 7.62261C1.44533 7.60279 1.44857 7.58285 1.4532 7.56311C1.46691 7.50468 1.48248 7.44657 1.50045 7.38896L2.19918 5.13749H7.18785L7.66141 6.66443C7.10593 6.94903 6.68199 7.45309 6.50471 8.06249ZM2.43165 4.38749H6.95538L7.07166 4.76249H2.31531L2.43165 4.38749ZM1.67653 2.22055C1.81642 2.15683 1.95558 2.12797 2.08859 2.1372C2.36237 2.1539 2.53844 2.32133 2.72477 2.49872C2.85895 2.62658 3.00668 2.76503 3.19431 2.83711L3.26442 3.32651C3.27775 3.42011 3.35802 3.48749 3.44972 3.48749C3.45866 3.48749 3.46759 3.48691 3.47653 3.48559C3.57906 3.47094 3.65026 3.37587 3.63561 3.27348L3.57881 2.87694C3.85645 2.82871 4.03876 2.62163 4.18903 2.45067C4.35968 2.25658 4.47321 2.13749 4.6484 2.13749H4.64943C4.82931 2.13808 4.95251 2.26303 5.13429 2.46869C5.23837 2.58665 5.35075 2.71273 5.4898 2.79606L5.36618 3.41322C5.34582 3.51474 5.41159 3.61347 5.51325 3.63383C5.52555 3.63632 5.538 3.63749 5.55016 3.63749C5.63776 3.63749 5.71598 3.57597 5.73385 3.48676L5.85403 2.88678C5.85747 2.88655 5.86047 2.88719 5.86393 2.8869C6.17462 2.8639 6.35934 2.63012 6.52252 2.42372C6.68073 2.22362 6.83014 2.03451 7.08634 1.98397C7.25158 1.95145 7.43439 1.98134 7.63053 2.07406C7.66686 2.32265 7.66203 2.57152 7.61574 2.81498C7.50608 3.39358 7.18534 3.79801 6.97245 4.01249H2.33114C2.11273 3.78933 1.93707 3.52225 1.82491 3.23231C1.6736 2.84135 1.6569 2.48012 1.67653 2.22055ZM6.68527 10.3182C6.32711 10.5107 5.9215 10.6125 5.51251 10.6125H3.87452C3.04074 10.6125 2.26744 10.1985 1.80631 9.50536C1.59183 9.18176 1.45628 8.8155 1.40803 8.43749H6.42877C6.41886 8.52377 6.41251 8.6111 6.41251 8.69999C6.41251 9.23559 6.60399 9.75004 6.94175 10.1573C6.86001 10.215 6.7753 10.2699 6.68527 10.3182ZM8.53193 10.6048C8.5134 10.6032 8.49516 10.6 8.47673 10.5979C8.43981 10.5935 8.40293 10.5891 8.36647 10.5826C8.34472 10.5788 8.32333 10.5736 8.30178 10.569C8.26901 10.562 8.23628 10.5549 8.20399 10.5462C8.18165 10.5402 8.15964 10.5332 8.13756 10.5264C8.10657 10.5168 8.07572 10.5069 8.04527 10.4958C8.02334 10.4878 8.00166 10.4791 7.98003 10.4703C7.95007 10.4581 7.92039 10.4452 7.89107 10.4314C7.87014 10.4216 7.84935 10.4115 7.82878 10.4009C7.79931 10.3858 7.77033 10.3697 7.74163 10.353C7.72241 10.3418 7.70317 10.3307 7.68432 10.3188C7.65471 10.3001 7.62584 10.2802 7.59721 10.2598C7.58039 10.2479 7.56335 10.2364 7.54689 10.2239C7.5405 10.219 7.53456 10.2135 7.52823 10.2086C7.74955 9.77242 8.20485 9.48749 8.70001 9.48749C9.19518 9.48749 9.6505 9.77242 9.87182 10.2086C9.8656 10.2135 9.85976 10.2189 9.85349 10.2236C9.83641 10.2366 9.81874 10.2486 9.80129 10.2609C9.77334 10.2807 9.7452 10.3002 9.71631 10.3184C9.6969 10.3307 9.67708 10.3421 9.65727 10.3536C9.62913 10.37 9.60071 10.3858 9.57183 10.4007C9.55084 10.4115 9.52964 10.4218 9.50828 10.4318C9.47936 10.4453 9.4501 10.458 9.42055 10.4701C9.39862 10.479 9.37663 10.4878 9.35439 10.4959C9.32416 10.5069 9.29355 10.5168 9.2628 10.5263C9.24058 10.5331 9.21842 10.5402 9.19594 10.5462C9.16369 10.5549 9.13102 10.562 9.0983 10.569C9.07673 10.5736 9.05534 10.5788 9.03358 10.5826C8.9971 10.5891 8.96019 10.5935 8.92326 10.5979C8.90484 10.6 8.88662 10.6032 8.86809 10.6048C8.81242 10.6097 8.75638 10.6125 8.70001 10.6125C8.64365 10.6125 8.5876 10.6097 8.53193 10.6048ZM7.98751 8.39999C7.98751 8.00712 8.30714 7.68749 8.70001 7.68749C9.09288 7.68749 9.41251 8.00712 9.41251 8.39999C9.41251 8.79286 9.09288 9.11249 8.70001 9.11249C8.30714 9.11249 7.98751 8.79286 7.98751 8.39999ZM10.1514 9.94093C9.96883 9.63452 9.69313 9.39538 9.37059 9.25444C9.62395 9.05516 9.78751 8.74664 9.78751 8.39999C9.78751 7.80028 9.29972 7.31249 8.70001 7.31249C8.10031 7.31249 7.61251 7.80028 7.61251 8.39999C7.61251 8.74664 7.77607 9.05516 8.02943 9.25444C7.70689 9.39538 7.43118 9.63453 7.24859 9.94095C6.95418 9.59699 6.78751 9.15747 6.78751 8.69999C6.78751 7.64545 7.64547 6.78749 8.70001 6.78749C9.75455 6.78749 10.6125 7.64545 10.6125 8.69999C10.6125 9.15738 10.4459 9.59682 10.1514 9.94093Z" fill="#2563EB"/>
<path d="M6.00002 8.9624H3.15002C3.04646 8.9624 2.96252 9.04634 2.96252 9.1499C2.96252 9.25347 3.04646 9.3374 3.15002 9.3374H6.00002C6.10359 9.3374 6.18752 9.25347 6.18752 9.1499C6.18752 9.04634 6.10359 8.9624 6.00002 8.9624Z" fill="#2563EB"/>
<path d="M5.4 9.86243H3.75C3.64644 9.86243 3.5625 9.94636 3.5625 10.0499C3.5625 10.1535 3.64644 10.2374 3.75 10.2374H5.4C5.50356 10.2374 5.5875 10.1535 5.5875 10.0499C5.5875 9.94636 5.50356 9.86243 5.4 9.86243Z" fill="#2563EB"/>
<path d="M8.32854 4.37324C8.47283 4.43271 8.6073 4.52236 8.71746 4.63252C8.82776 4.74282 8.91741 4.8773 8.97659 5.02129C9.00559 5.0916 9.074 5.13745 9.15002 5.13745C9.22605 5.13745 9.29446 5.0916 9.32331 5.02144C9.38279 4.87715 9.47244 4.74268 9.58259 4.63252C9.6929 4.52222 9.82737 4.43257 9.97136 4.37339C10.0417 4.34438 10.0875 4.27598 10.0875 4.19995C10.0875 4.12407 10.0417 4.05552 9.97151 4.02666C9.82722 3.96719 9.69275 3.87754 9.58259 3.76738C9.47229 3.65708 9.38264 3.52261 9.32346 3.37861C9.29446 3.3083 9.22605 3.26245 9.15002 3.26245C9.074 3.26245 9.00559 3.3083 8.97673 3.37847C8.91726 3.52275 8.82761 3.65723 8.71746 3.76738C8.60715 3.87769 8.47268 3.96733 8.32869 4.02651C8.25837 4.05552 8.21252 4.12393 8.21252 4.19995C8.21252 4.27583 8.25837 4.34438 8.32854 4.37324ZM8.98259 4.03252C9.04412 3.971 9.10007 3.90508 9.15002 3.83506C9.19998 3.90508 9.25593 3.971 9.31746 4.03252C9.37898 4.09404 9.4449 4.15 9.51492 4.19995C9.4449 4.2499 9.37898 4.30586 9.31746 4.36738C9.25593 4.42891 9.19998 4.49482 9.15002 4.56484C9.10007 4.49482 9.04412 4.42891 8.98259 4.36738C8.92107 4.30586 8.85515 4.2499 8.78513 4.19995C8.85515 4.15 8.92107 4.09404 8.98259 4.03252Z" fill="#2563EB"/>
<path d="M9.2285 2.12324C9.37279 2.18271 9.50726 2.27236 9.61742 2.38252C9.72772 2.49282 9.81737 2.6273 9.87655 2.77129C9.90555 2.8416 9.97396 2.88745 10.05 2.88745C10.126 2.88745 10.1944 2.8416 10.2233 2.77144C10.2828 2.62715 10.3724 2.49268 10.4826 2.38252C10.5929 2.27222 10.7273 2.18257 10.8713 2.12339C10.9416 2.09438 10.9875 2.02598 10.9875 1.94995C10.9875 1.87407 10.9416 1.80552 10.8715 1.77666C10.7272 1.71719 10.5927 1.62754 10.4826 1.51738C10.3723 1.40708 10.2826 1.27261 10.2234 1.12861C10.1944 1.0583 10.126 1.01245 10.05 1.01245C9.97396 1.01245 9.90555 1.0583 9.8767 1.12847C9.81722 1.27275 9.72758 1.40723 9.61742 1.51738C9.50712 1.62769 9.37264 1.71733 9.22865 1.77651C9.15834 1.80552 9.11249 1.87393 9.11249 1.94995C9.11249 2.02583 9.15834 2.09438 9.2285 2.12324ZM9.88256 1.78252C9.94408 1.721 10 1.65508 10.05 1.58506C10.0999 1.65508 10.1559 1.721 10.2174 1.78252C10.2789 1.84404 10.3449 1.9 10.4149 1.94995C10.3449 1.9999 10.2789 2.05586 10.2174 2.11738C10.1559 2.17891 10.0999 2.24482 10.05 2.31484C10 2.24482 9.94408 2.17891 9.88256 2.11738C9.82103 2.05586 9.75512 1.9999 9.6851 1.94995C9.75512 1.9 9.82103 1.84404 9.88256 1.78252Z" fill="#2563EB"/>
</svg>
