<svg width="16" height="16" viewBox="0 0 16 16" fill="none" xmlns="http://www.w3.org/2000/svg">
<g clip-path="url(#clip0_96_88804)">
<path d="M8 7C9.65685 7 11 5.65685 11 4C11 2.34315 9.65685 1 8 1C6.34315 1 5 2.34315 5 4C5 5.65685 6.34315 7 8 7Z" stroke="#2563EB" stroke-linecap="round"/>
<path d="M10 2C10.212 1.65743 10.5282 1.38121 10.9083 1.20625C11.2886 1.0313 11.7159 0.965481 12.1363 1.01711C12.5565 1.06874 12.9511 1.23551 13.2698 1.49632C13.5885 1.75713 13.8173 2.10028 13.927 2.48236C14.0367 2.86445 14.0225 3.26831 13.8863 3.64288C13.75 4.01745 13.4977 4.3459 13.1613 4.58671C12.825 4.82751 12.4197 4.96985 11.9966 4.99572C11.5736 5.02159 11.1518 4.92983 10.7847 4.73205" stroke="#2563EB"/>
<path d="M6 2C5.788 1.65743 5.47188 1.38121 5.09164 1.20625C4.71141 1.0313 4.28411 0.965481 3.86378 1.01711C3.44344 1.06874 3.04896 1.23551 2.73022 1.49632C2.41147 1.75713 2.18277 2.10028 2.07304 2.48236C1.96331 2.86445 1.97748 3.26831 2.11376 3.64288C2.25004 4.01745 2.5023 4.3459 2.83865 4.58671C3.17499 4.82751 3.58032 4.96985 4.00337 4.99572C4.42642 5.02159 4.84819 4.92983 5.21535 4.73205" stroke="#2563EB"/>
<path d="M7.99999 9C12.5198 9 13.6866 12.3022 13.9878 14.007C14.0842 14.5524 13.5967 15 12.9848 15H3.01514C2.40334 15 1.91585 14.5524 2.0122 14.007C2.31337 12.3022 3.48013 9 7.99999 9Z" stroke="#2563EB" stroke-linecap="round"/>
<path d="M9.02461 8.5859L8.64239 8.2488L8 8.9283L8.93972 9.0791L9.02461 8.5859ZM13.2632 12.5L12.766 12.639L12.8742 13H13.2632V12.5ZM11.5226 8C12.5866 8 13.3338 8.5027 13.8813 9.2069C14.4397 9.9253 14.7676 10.8306 14.951 11.5377L15.9553 11.2948C15.7573 10.5315 15.3872 9.4787 14.7092 8.6065C14.0203 7.7203 12.9929 7 11.5226 7V8ZM9.40684 8.923C9.92489 8.375 10.602 8 11.5226 8V7C10.2625 7 9.32122 7.5306 8.64239 8.2488L9.40684 8.923ZM8.93972 9.0791C11.3214 9.4614 12.3291 11.1801 12.766 12.639L13.7605 12.361C13.2728 10.7326 12.0599 8.5663 9.10951 8.0927L8.93972 9.0791ZM14.5198 12H13.2632V13H14.5198V12ZM14.951 11.5377C15.0066 11.7526 14.8433 12 14.5198 12V13C15.4212 13 16.1971 12.2277 15.9553 11.2948L14.951 11.5377Z" fill="#2563EB"/>
<path d="M6.97539 8.5859L7.06028 9.0791L8 8.9283L7.35761 8.2488L6.97539 8.5859ZM2.73674 12.5V13H3.12585L3.23398 12.639L2.73674 12.5ZM4.47736 8C5.39805 8 6.07511 8.375 6.59306 8.923L7.35761 8.2488C6.67878 7.5306 5.73754 7 4.47736 7V8ZM1.049 11.5377C1.23234 10.8306 1.56025 9.9253 2.11867 9.2069C2.66613 8.5027 3.41338 8 4.47736 8V7C3.00707 7 1.97969 7.7203 1.29078 8.6065C0.612818 9.4787 0.242624 10.5315 0.044741 11.2948L1.049 11.5377ZM1.48022 12C1.15669 12 0.993302 11.7526 1.049 11.5377L0.044741 11.2948C-0.197141 12.2277 0.578767 13 1.48022 13V12ZM2.73674 12H1.48022V13H2.73674V12ZM3.23398 12.639C3.67093 11.1801 4.67858 9.4614 7.06028 9.0791L6.89049 8.0927C3.94007 8.5663 2.72723 10.7326 2.2395 12.361L3.23398 12.639Z" fill="#2563EB"/>
</g>
<defs>
<clipPath id="clip0_96_88804">
<rect width="16" height="16" fill="white"/>
</clipPath>
</defs>
</svg>
