<svg width="18" height="18" viewBox="0 0 18 18" fill="none" xmlns="http://www.w3.org/2000/svg">
<path d="M11.2497 15.1271C11.2797 15.3604 11.2047 15.6093 11.0322 15.7726C10.9628 15.8447 10.8804 15.9019 10.7897 15.9409C10.699 15.9799 10.6018 16 10.5035 16C10.4053 16 10.3081 15.9799 10.2174 15.9409C10.1266 15.9019 10.0442 15.8447 9.97486 15.7726L6.96778 12.6541C6.88604 12.5712 6.82388 12.4697 6.78616 12.3578C6.74844 12.2458 6.73617 12.1263 6.75031 12.0086V8.02696L3.15831 3.25983C3.03653 3.09771 2.98158 2.89219 3.00547 2.68819C3.02936 2.48418 3.13014 2.29827 3.28579 2.17109C3.42827 2.06221 3.58575 2 3.75073 2H14.2493C14.4142 2 14.5717 2.06221 14.7142 2.17109C14.8699 2.29827 14.9706 2.48418 14.9945 2.68819C15.0184 2.89219 14.9635 3.09771 14.8417 3.25983L11.2497 8.02696V15.1271ZM5.28051 3.55534L8.2501 7.49037V11.7831L9.7499 13.3385V7.48259L12.7195 3.55534H5.28051Z" fill="#404040"/>
</svg>
