<svg width="18" height="18" viewBox="0 0 18 18" fill="none" xmlns="http://www.w3.org/2000/svg">
<path d="M9 9C8.175 9 7.46875 8.70625 6.88125 8.11875C6.29375 7.53125 6 6.825 6 6C6 5.175 6.29375 4.46875 6.88125 3.88125C7.46875 3.29375 8.175 3 9 3C9.825 3 10.5312 3.29375 11.1187 3.88125C11.7062 4.46875 12 5.175 12 6C12 6.825 11.7062 7.53125 11.1187 8.11875C10.5312 8.70625 9.825 9 9 9ZM3 15V12.9C3 12.475 3.1095 12.0845 3.3285 11.7285C3.5475 11.3725 3.838 11.1005 4.2 10.9125C4.975 10.525 5.7625 10.2345 6.5625 10.041C7.3625 9.8475 8.175 9.7505 9 9.75C9.825 9.7495 10.6375 9.8465 11.4375 10.041C12.2375 10.2355 13.025 10.526 13.8 10.9125C14.1625 11.1 14.4532 11.372 14.6722 11.7285C14.8912 12.085 15.0005 12.4755 15 12.9V15H3ZM4.5 13.5H13.5V12.9C13.5 12.7625 13.4657 12.6375 13.3973 12.525C13.3287 12.4125 13.238 12.325 13.125 12.2625C12.45 11.925 11.7687 11.672 11.0812 11.5035C10.3937 11.335 9.7 11.2505 9 11.25C8.3 11.2495 7.60625 11.334 6.91875 11.5035C6.23125 11.673 5.55 11.926 4.875 12.2625C4.7625 12.325 4.67175 12.4125 4.60275 12.525C4.53375 12.6375 4.4995 12.7625 4.5 12.9V13.5ZM9 7.5C9.4125 7.5 9.76575 7.35325 10.0597 7.05975C10.3537 6.76625 10.5005 6.413 10.5 6C10.4995 5.587 10.3527 5.234 10.0597 4.941C9.76675 4.648 9.4135 4.501 9 4.5C8.5865 4.499 8.2335 4.646 7.941 4.941C7.6485 5.236 7.5015 5.589 7.5 6C7.4985 6.411 7.6455 6.76425 7.941 7.05975C8.2365 7.35525 8.5895 7.502 9 7.5Z" fill="#404040"/>
</svg>
