<svg width="52" height="52" viewBox="0 0 52 52" fill="none" xmlns="http://www.w3.org/2000/svg">
<rect width="52" height="52" rx="26" fill="#F8F8F8"/>
<rect width="52" height="52" rx="16" fill="#F3F1F9"/>
<g clip-path="url(#clip0_96_88861)">
<path d="M29.9999 32.9998C29.9999 34.6539 28.6539 35.9999 27 35.9999V37C27 37.552 26.553 38 26 38C25.447 38 25 37.552 25 37V35.9999H24.732C23.665 35.9999 22.6691 35.4259 22.1341 34.5009C21.8571 34.0228 22.0211 33.4118 22.4981 33.1348C22.9771 32.8568 23.588 33.0218 23.864 33.4998C24.043 33.8078 24.375 33.9998 24.731 33.9998H26.999C27.551 33.9998 27.999 33.5518 27.999 32.9998C27.999 32.6218 27.728 32.3018 27.355 32.2398L24.314 31.7327C22.9721 31.5097 21.9991 30.3597 21.9991 28.9996C21.9991 27.3456 23.3451 25.9995 24.999 25.9995V24.9995C24.999 24.4474 25.446 23.9994 25.999 23.9994C26.552 23.9994 26.999 24.4474 26.999 24.9995V25.9995H27.267C28.334 25.9995 29.3299 26.5735 29.8649 27.4986C30.1419 27.9766 29.9779 28.5876 29.5009 28.8646C29.0209 29.1406 28.4099 28.9766 28.135 28.4996C27.956 28.1916 27.624 27.9996 27.268 27.9996H25C24.448 27.9996 24 28.4476 24 28.9996C24 29.3776 24.271 29.6977 24.644 29.7597L27.685 30.2667C29.0269 30.4897 29.9999 31.6397 29.9999 32.9998ZM37.7068 24.8785L35.4138 22.5854C34.6348 21.8053 33.3648 21.8053 32.5859 22.5854L30.2929 24.8785C29.9019 25.2695 29.9019 25.9015 30.2929 26.2925C30.6839 26.6835 31.3159 26.6835 31.7069 26.2925L32.9999 24.9995V37C32.9999 37.552 33.4468 38 33.9998 38C34.5528 38 34.9998 37.552 34.9998 37V24.9995L36.2928 26.2925C36.4878 26.4875 36.7438 26.5855 36.9998 26.5855C37.2558 26.5855 37.5118 26.4875 37.7068 26.2925C38.0977 25.9015 38.0977 25.2695 37.7068 24.8785ZM23.707 18.2922L25 16.9991V20.9993C25 21.5513 25.447 21.9993 26 21.9993C26.553 21.9993 27 21.5513 27 20.9993V16.9991L28.293 18.2922C28.4879 18.4872 28.7439 18.5852 28.9999 18.5852C29.2559 18.5852 29.5119 18.4872 29.7069 18.2922C30.0979 17.9012 30.0979 17.2691 29.7069 16.8781L27.414 14.585C26.635 13.805 25.365 13.805 24.586 14.585L22.2931 16.8781C21.9021 17.2691 21.9021 17.9012 22.2931 18.2922C22.6841 18.6832 23.3161 18.6832 23.707 18.2922ZM21.7071 21.8783L19.4141 19.5852C18.6352 18.8052 17.3652 18.8052 16.5862 19.5852L14.2932 21.8783C13.9023 22.2693 13.9023 22.9014 14.2932 23.2924C14.6842 23.6834 15.3162 23.6834 15.7072 23.2924L17.0002 21.9993V37C17.0002 37.552 17.4472 38 18.0002 38C18.5532 38 19.0001 37.552 19.0001 37V21.9993L20.2931 23.2924C20.4881 23.4874 20.7441 23.5854 21.0001 23.5854C21.2561 23.5854 21.5121 23.4874 21.7071 23.2924C22.0981 22.9014 22.0981 22.2693 21.7071 21.8783Z" fill="#2563EB"/>
</g>
<defs>
<clipPath id="clip0_96_88861">
<rect width="24" height="24" fill="white" transform="translate(14 14)"/>
</clipPath>
</defs>
</svg>
