<svg width="12" height="12" viewBox="0 0 12 12" fill="none" xmlns="http://www.w3.org/2000/svg">
<g clip-path="url(#clip0_413_7048)">
<path d="M9.02437 5.56124H8.94937C8.97412 5.55625 8.99962 5.55625 9.02437 5.56124Z" fill="#2563EB"/>
<path d="M7.23375 10.7609H6.40687V5.93648H8.79938V6.28148C8.79938 6.33121 8.81913 6.3789 8.85429 6.41406C8.88946 6.44922 8.93715 6.46898 8.98688 6.46898C9.0366 6.46898 9.08429 6.44922 9.11946 6.41406C9.15462 6.3789 9.17438 6.33121 9.17438 6.28148V5.93648H9.23625C9.33475 5.9365 9.43229 5.91712 9.52329 5.87944C9.6143 5.84176 9.69699 5.78652 9.76664 5.71687C9.83629 5.64722 9.89153 5.56453 9.92921 5.47352C9.9669 5.38252 9.98628 5.28498 9.98625 5.18648V3.78023C9.98627 3.68173 9.96689 3.58419 9.92921 3.49319C9.89153 3.40218 9.83628 3.31949 9.76663 3.24984C9.69699 3.18019 9.6143 3.12495 9.52329 3.08727C9.43229 3.04959 9.33475 3.0302 9.23625 3.03023H8.10938C8.96408 2.33462 8.44582 0.875489 7.34434 0.864615C7.14143 0.859127 6.94053 0.905913 6.76092 1.00048C6.58132 1.09504 6.42905 1.2342 6.31875 1.4046L5.36812 2.87272L4.4175 1.4046C4.30734 1.23406 4.15509 1.09479 3.97545 1.00021C3.7958 0.905621 3.59482 0.858918 3.39188 0.864598C2.29436 0.876638 1.76918 2.33104 2.62691 3.03022L1.5 3.03022C1.4015 3.03019 1.30396 3.04957 1.21296 3.08726C1.12195 3.12494 1.03926 3.18018 0.969609 3.24983C0.89996 3.31948 0.844717 3.40217 0.807035 3.49318C0.769354 3.58418 0.749973 3.68172 0.75 3.78022V5.18647C0.750456 5.29015 0.77225 5.39263 0.814025 5.48752C0.855799 5.58241 0.91666 5.66769 0.992819 5.73804C1.06898 5.8084 1.1588 5.86232 1.2567 5.89645C1.3546 5.93059 1.45848 5.94421 1.56187 5.93646V10.2902C1.56192 10.5145 1.65103 10.7295 1.80961 10.8881C1.96818 11.0467 2.18324 11.1358 2.4075 11.1359H7.23375C7.28287 11.1349 7.32967 11.1148 7.36408 11.0797C7.39849 11.0446 7.41777 10.9975 7.41777 10.9484C7.41777 10.8992 7.39849 10.8521 7.36408 10.817C7.32967 10.7819 7.28287 10.7618 7.23375 10.7609ZM9.23625 3.40522C9.33562 3.40551 9.43083 3.44511 9.50109 3.51538C9.57135 3.58564 9.61096 3.68085 9.61125 3.78022V5.18647C9.61126 5.23572 9.60157 5.28449 9.58273 5.32999C9.56389 5.37549 9.53627 5.41684 9.50144 5.45166C9.46662 5.48649 9.42527 5.51411 9.37977 5.53295C9.33427 5.55179 9.2855 5.56148 9.23625 5.56147H6.40687V3.40522H9.23625ZM6.63375 1.60897C6.71346 1.49126 6.82202 1.39595 6.94907 1.33217C7.07611 1.26839 7.2174 1.23825 7.35941 1.24465C7.50143 1.25105 7.63943 1.29376 7.76023 1.36871C7.88102 1.44366 7.98058 1.54834 8.04938 1.67275C8.12158 1.79451 8.16148 1.93269 8.16529 2.0742C8.1691 2.2157 8.13668 2.35584 8.07113 2.4813C8.00558 2.60677 7.90906 2.7134 7.79072 2.79109C7.67239 2.86878 7.53617 2.91494 7.39498 2.92521L5.72438 3.01147L6.63375 1.60897ZM2.68875 1.66897C2.75807 1.54528 2.85787 1.44137 2.97867 1.36712C3.09946 1.29287 3.23724 1.25073 3.3789 1.24472C3.52056 1.23871 3.66141 1.26903 3.78806 1.33278C3.91471 1.39654 4.02295 1.49162 4.1025 1.60899L5.01188 3.01148L3.34125 2.92523C3.19968 2.91494 3.06311 2.86858 2.94454 2.79054C2.82598 2.7125 2.72938 2.60539 2.66396 2.47943C2.59853 2.35347 2.56646 2.21284 2.5708 2.07097C2.57514 1.92909 2.61575 1.7907 2.68875 1.66897ZM4.3275 10.7608H2.4075C2.2828 10.7605 2.16333 10.7107 2.07515 10.6226C1.98698 10.5344 1.93727 10.4149 1.93687 10.2902V5.93647H4.3275V10.7608ZM4.3275 5.56147H1.78688C1.76212 5.55648 1.73663 5.55648 1.71188 5.56147H1.5C1.45075 5.56148 1.40198 5.55179 1.35648 5.53295C1.31097 5.51411 1.26963 5.48649 1.23481 5.45166C1.19998 5.41684 1.17236 5.3755 1.15352 5.32999C1.13468 5.28449 1.12499 5.23572 1.125 5.18647V3.78022C1.12529 3.68085 1.1649 3.58564 1.23516 3.51538C1.30542 3.44511 1.40063 3.40551 1.5 3.40522H4.3275V5.56147ZM6.03187 10.7608H4.7025V5.93647H6.03187V10.7608ZM6.03187 5.56147H4.7025V3.40522H6.03187V5.56147Z" fill="#2563EB"/>
<path d="M9.10125 6.84021C8.67646 6.8404 8.26125 6.96654 7.90815 7.2027C7.55505 7.43886 7.2799 7.77442 7.11751 8.16696C6.95512 8.55949 6.91277 8.99136 6.99583 9.40796C7.07889 9.82456 7.28361 10.2072 7.58412 10.5074C7.88463 10.8077 8.26742 11.0121 8.68409 11.0947C9.10076 11.1774 9.5326 11.1347 9.92499 10.972C10.3174 10.8092 10.6527 10.5338 10.8886 10.1805C11.1244 9.8272 11.2502 9.41188 11.25 8.98709C11.2491 8.41764 11.0224 7.8718 10.6196 7.46931C10.2167 7.06683 9.6707 6.84058 9.10125 6.84021ZM9.10125 10.7608C8.7507 10.7606 8.40808 10.6565 8.11668 10.4617C7.82529 10.2668 7.59821 9.98992 7.46415 9.66602C7.33008 9.34211 7.29505 8.98574 7.36349 8.64193C7.43192 8.29813 7.60075 7.98233 7.84862 7.73445C8.0965 7.48658 8.4123 7.31775 8.7561 7.24932C9.09991 7.18089 9.45628 7.21591 9.78018 7.34998C10.1041 7.48404 10.381 7.71112 10.5758 8.00252C10.7707 8.29391 10.8748 8.63654 10.875 8.98709C10.8748 9.45746 10.6879 9.90851 10.3553 10.2411C10.0227 10.5737 9.57162 10.7606 9.10125 10.7608Z" fill="#2563EB"/>
<path d="M10.2442 10.0185H9.35303C9.31909 10.0185 9.28579 10.0093 9.25667 9.99187C9.22756 9.97443 9.20372 9.94942 9.18771 9.91949C9.1717 9.88957 9.16411 9.85586 9.16575 9.82196C9.16739 9.78807 9.1782 9.75525 9.19703 9.72701L9.91553 8.64926C9.93325 8.62268 9.94451 8.59231 9.94839 8.5606C9.95227 8.52889 9.94868 8.4967 9.9379 8.46663C9.92711 8.43655 9.90944 8.40942 9.88628 8.3874C9.86313 8.36538 9.83515 8.34908 9.80457 8.33982C9.77399 8.33056 9.74167 8.32858 9.71019 8.33405C9.67871 8.33951 9.64895 8.35227 9.62328 8.37131C9.59762 8.39034 9.57677 8.41512 9.5624 8.44365C9.54803 8.47219 9.54054 8.5037 9.54053 8.53565V8.70603C9.54053 8.75575 9.52077 8.80345 9.48561 8.83861C9.45045 8.87377 9.40276 8.89353 9.35303 8.89353C9.3033 8.89353 9.25561 8.87377 9.22045 8.83861C9.18528 8.80345 9.16553 8.75575 9.16553 8.70603V8.53565C9.16554 8.44516 9.18674 8.35593 9.22742 8.2751C9.26811 8.19428 9.32715 8.1241 9.39982 8.07018C9.47249 8.01627 9.55678 7.98012 9.64593 7.96462C9.73508 7.94912 9.82662 7.95471 9.91323 7.98094C9.99983 8.00717 10.0791 8.0533 10.1447 8.11566C10.2102 8.17801 10.2603 8.25485 10.2909 8.34003C10.3214 8.4252 10.3316 8.51635 10.3206 8.60617C10.3096 8.69598 10.2777 8.78198 10.2275 8.85727L9.70331 9.64352H10.2442C10.2933 9.64447 10.3401 9.66465 10.3744 9.69971C10.4088 9.73477 10.4281 9.78191 10.4281 9.83102C10.4281 9.88012 10.4088 9.92727 10.3744 9.96233C10.3401 9.99739 10.2933 10.0176 10.2442 10.0185Z" fill="#2563EB"/>
<path d="M8.86125 9.52316C8.89531 9.55872 8.91408 9.60621 8.91355 9.65544C8.91302 9.70468 8.89322 9.75175 8.8584 9.78657C8.82359 9.82138 8.77651 9.84118 8.72728 9.84171C8.67804 9.84223 8.63056 9.82346 8.595 9.7894L8.35312 9.54753L8.11125 9.78941C8.07594 9.82472 8.02805 9.84455 7.97812 9.84455C7.92819 9.84455 7.8803 9.82472 7.845 9.78941C7.80969 9.7541 7.78986 9.70622 7.78986 9.65629C7.78986 9.60635 7.80969 9.55847 7.845 9.52316L8.08687 9.28129L7.845 9.03941C7.80969 9.0041 7.78986 8.95622 7.78986 8.90629C7.78986 8.85635 7.80969 8.80847 7.845 8.77316C7.8803 8.73785 7.92819 8.71802 7.97812 8.71802C8.02805 8.71802 8.07594 8.73785 8.11125 8.77316L8.35312 9.01504L8.595 8.77316C8.63053 8.73895 8.67806 8.72004 8.72739 8.7205C8.77671 8.72097 8.82388 8.74077 8.85876 8.77565C8.89364 8.81052 8.91344 8.8577 8.91391 8.90702C8.91437 8.95634 8.89546 9.00388 8.86125 9.03941L8.61937 9.28129L8.86125 9.52316Z" fill="#2563EB"/>
</g>
<defs>
<clipPath id="clip0_413_7048">
<rect width="12" height="12" fill="white"/>
</clipPath>
</defs>
</svg>
