<svg width="12" height="12" viewBox="0 0 12 12" fill="none" xmlns="http://www.w3.org/2000/svg">
<g clip-path="url(#clip0_413_7191)">
<path d="M10.2855 2.68541H9.84365V2.59087C9.84365 2.40541 9.69274 2.25269 9.50729 2.25269H9.14183V1.00905C9.14183 0.649051 8.8491 0.356323 8.4891 0.356323C8.1291 0.356323 7.83638 0.649051 7.83638 1.00905V2.25451H7.47092C7.28547 2.25451 7.13456 2.40541 7.13456 2.59269V2.68723H4.86729V2.59269C4.86729 2.40723 4.71638 2.25451 4.53092 2.25451H4.16547V1.00905C4.16547 0.649051 3.87274 0.356323 3.51274 0.356323C3.15274 0.356323 2.86001 0.649051 2.86001 1.00905V2.25451H2.49456C2.3091 2.25451 2.15819 2.40541 2.15819 2.59269V2.68723H1.71456C0.916377 2.68723 0.269104 3.33632 0.269104 4.13269V10.1981C0.269104 10.9963 0.918195 11.6436 1.71456 11.6436H10.2837C11.0818 11.6436 11.7291 10.9945 11.7291 10.1981V4.13269C11.7309 3.33451 11.0818 2.68541 10.2855 2.68541ZM8.19274 1.00905C8.19274 0.847232 8.32547 0.714505 8.48729 0.714505C8.6491 0.714505 8.78183 0.847232 8.78183 1.00905V2.25451H8.19274V1.00905ZM3.2182 1.00905C3.2182 0.847232 3.35092 0.714505 3.51274 0.714505C3.67456 0.714505 3.80729 0.847232 3.80729 1.00905V2.25451H3.2182V1.00905ZM7.49092 2.61269H9.48547V3.11814H7.49092V2.61269ZM2.51456 2.61269H4.5091V3.11814H2.51456V2.61269ZM11.3727 10.1981C11.3727 10.7981 10.8855 11.2854 10.2855 11.2854H1.71456C1.11456 11.2854 0.627286 10.7981 0.627286 10.1981V4.13269C0.627286 3.53269 1.11456 3.04541 1.71456 3.04541H2.15638V3.13996C2.15638 3.32541 2.30729 3.47814 2.49274 3.47814H4.5291C4.71456 3.47814 4.86547 3.32723 4.86547 3.13996V3.04541H7.13092V3.13996C7.13092 3.32541 7.28183 3.47814 7.46729 3.47814H9.50365C9.6891 3.47814 9.84001 3.32723 9.84001 3.13996V3.04541H10.2818C10.8818 3.04541 11.3691 3.53269 11.3691 4.13269V10.1981H11.3727Z" fill="#2563EB"/>
<path d="M9.88363 5.83264H2.11635C1.6709 5.83264 1.30908 6.19446 1.30908 6.63991V9.79628C1.30908 10.2417 1.6709 10.6036 2.11635 10.6036H9.88181C10.3273 10.6036 10.6891 10.2417 10.6891 9.79628V6.63991C10.6891 6.19446 10.3273 5.83264 9.88363 5.83264ZM10.3309 9.79628C10.3309 10.0436 10.1291 10.2454 9.88181 10.2454H2.11635C1.86908 10.2454 1.66726 10.0436 1.66726 9.79628V6.63991C1.66726 6.39264 1.86908 6.19082 2.11635 6.19082H9.88181C10.1291 6.19082 10.3309 6.39264 10.3309 6.63991V9.79628Z" fill="#2563EB"/>
<path d="M6.00001 6.81445C5.22547 6.81445 4.59637 7.44354 4.59637 8.21809C4.59637 8.99264 5.22547 9.62173 6.00001 9.62173C6.77456 9.62173 7.40365 8.99264 7.40365 8.21809C7.40365 7.44354 6.77456 6.81445 6.00001 6.81445ZM6.00001 9.26354C5.42365 9.26354 4.95456 8.79445 4.95456 8.21809C4.95456 7.64173 5.42365 7.17264 6.00001 7.17264C6.57637 7.17264 7.04547 7.64173 7.04547 8.21809C7.04547 8.79445 6.57637 9.26354 6.00001 9.26354Z" fill="#2563EB"/>
<path d="M9.67094 7.70357H9.20731V7.60357C9.20731 7.45629 9.12004 7.32357 8.98549 7.2672C8.85094 7.20902 8.69458 7.23811 8.58731 7.33993L7.94549 7.95266C7.87276 8.02175 7.83276 8.11811 7.83276 8.21811C7.83276 8.31811 7.87458 8.41447 7.94549 8.48357L8.58731 9.09629C8.6564 9.16357 8.74731 9.19811 8.84004 9.19811C8.88913 9.19811 8.93822 9.18902 8.98367 9.16902C9.11822 9.11084 9.20549 8.97811 9.20549 8.83266V8.73266H9.66913C9.85276 8.73266 10.0037 8.58357 10.0037 8.39811V8.03811C10.0055 7.85447 9.85458 7.70357 9.67094 7.70357ZM9.64731 8.37448H9.02913C8.93095 8.37448 8.85095 8.45448 8.85095 8.55266L8.8364 8.83629L8.19458 8.21084L8.85095 7.60357V7.88175C8.85095 7.97993 8.93095 8.05993 9.02913 8.05993H9.64731V8.37448Z" fill="#2563EB"/>
<path d="M3.41276 7.33998C3.30731 7.23816 3.15094 7.21089 3.0164 7.26725C2.88185 7.32543 2.79458 7.45634 2.79458 7.60361V7.70361H2.33094C2.14731 7.70361 1.9964 7.8527 1.9964 8.03816V8.39816C1.9964 8.58179 2.14549 8.7327 2.33094 8.7327H2.79458V8.8327C2.79458 8.97998 2.88185 9.1127 3.0164 9.16907C3.06367 9.18907 3.11276 9.19816 3.16004 9.19816C3.25276 9.19816 3.34367 9.16361 3.41276 9.09634L4.05458 8.48361C4.12731 8.41452 4.16731 8.31816 4.16731 8.21816C4.16731 8.11816 4.12549 8.02179 4.05458 7.95452L3.41276 7.33998ZM3.15094 8.83089V8.5527C3.15094 8.45452 3.07094 8.37452 2.97276 8.37452H2.35276V8.06361H2.97276C3.07094 8.06361 3.15094 7.98361 3.15094 7.88543L3.16549 7.60179L3.80731 8.22725L3.15094 8.83089Z" fill="#2563EB"/>
</g>
<defs>
<clipPath id="clip0_413_7191">
<rect width="12" height="12" fill="white"/>
</clipPath>
</defs>
</svg>
