<svg width="12" height="12" viewBox="0 0 12 12" fill="none" xmlns="http://www.w3.org/2000/svg">
<g clip-path="url(#clip0_413_6996)">
<path d="M11.6 9.20005H11.0888C11.1607 9.07896 11.1992 8.94087 11.2 8.80005C11.2015 8.46646 10.9949 8.16724 10.6824 8.05044C10.37 7.93355 10.0178 8.02378 9.79999 8.27642C9.53134 7.96314 9.06776 7.90728 8.73231 8.14761C8.39686 8.38804 8.30087 8.84497 8.51122 9.20005H6.99999C6.88954 9.20005 6.79999 9.2896 6.79999 9.40005V10.6001C6.79999 10.7105 6.88954 10.8001 6.99999 10.8001H7.19999V11.4001C7.19999 11.7314 7.46864 12.0001 7.79999 12.0001H10.8C11.1313 12.0001 11.4 11.7314 11.4 11.4001V10.8001H11.6C11.7104 10.8001 11.8 10.7105 11.8 10.6001V9.40005C11.8 9.2896 11.7104 9.20005 11.6 9.20005ZM9.39999 10.4001V9.60005H10.2V10.4001H9.39999ZM10.2 10.8001V11.6001H9.39999V10.8001H10.2ZM10.4 8.40005C10.6209 8.40005 10.8 8.57915 10.8 8.80005C10.8 9.02095 10.6209 9.20005 10.4 9.20005H9.99999V8.80005C9.99999 8.57915 10.1791 8.40005 10.4 8.40005ZM8.79999 8.80005C8.79999 8.57915 8.97909 8.40005 9.19999 8.40005C9.42089 8.40005 9.59999 8.57915 9.59999 8.80005V9.20005H9.19999C8.97909 9.20005 8.79999 9.02095 8.79999 8.80005ZM7.19999 9.60005H8.99999V10.4001H7.19999V9.60005ZM7.59999 11.4001V10.8001H8.99999V11.6001H7.79999C7.68954 11.6001 7.59999 11.5105 7.59999 11.4001ZM11 11.4001C11 11.5105 10.9104 11.6001 10.8 11.6001H10.6V10.8001H11V11.4001ZM11.4 10.4001H10.6V9.60005H11.4V10.4001Z" fill="#2563EB"/>
<path d="M1.40001 2.2H9.00001C9.44181 2.2 9.80001 1.8418 9.80001 1.4V1C9.80001 0.889551 9.71046 0.8 9.60001 0.8H9.00001V1.2H9.40001V1.4C9.40001 1.6209 9.22091 1.8 9.00001 1.8C8.77911 1.8 8.60001 1.6209 8.60001 1.4V0.8C8.60001 0.579102 8.77911 0.4 9.00001 0.4H9.80001C10.0209 0.4 10.2 0.579102 10.2 0.8V7.6H10.6V0.8C10.6 0.358203 10.2418 0 9.80001 0H1.00001C0.558215 0 0.200012 0.358203 0.200012 0.8V1.4C0.200012 1.8418 0.558215 2.2 1.00001 2.2V11.4C1.00001 11.5104 1.08956 11.6 1.20001 11.6H6.80001V11.2H1.40001V2.2ZM0.600012 1.4V0.8C0.600012 0.579102 0.779114 0.4 1.00001 0.4H8.31124C8.23927 0.521094 8.20079 0.65918 8.20001 0.8V1.4C8.20079 1.54082 8.23927 1.67891 8.31124 1.8H1.00001C0.779114 1.8 0.600012 1.6209 0.600012 1.4Z" fill="#2563EB"/>
<path d="M9.40002 2.40002H9.80002V7.80002H9.40002V2.40002Z" fill="#2563EB"/>
<path d="M8.8 3.80005V3.00005C8.8 2.8896 8.71045 2.80005 8.6 2.80005H2.2C2.08955 2.80005 2 2.8896 2 3.00005V3.80005C2 3.9105 2.08955 4.00005 2.2 4.00005H8.6C8.71045 4.00005 8.8 3.9105 8.8 3.80005ZM8.4 3.60005H2.4V3.20005H8.4V3.60005Z" fill="#2563EB"/>
<path d="M3.00002 4.40002C2.66868 4.40002 2.40002 4.66868 2.40002 5.00002C2.40002 5.33137 2.66868 5.60002 3.00002 5.60002C3.33137 5.60002 3.60002 5.33137 3.60002 5.00002C3.60002 4.66868 3.33137 4.40002 3.00002 4.40002ZM3.00002 5.20002C2.88958 5.20002 2.80002 5.11047 2.80002 5.00002C2.80002 4.88958 2.88958 4.80002 3.00002 4.80002C3.11047 4.80002 3.20002 4.88958 3.20002 5.00002C3.20002 5.11047 3.11047 5.20002 3.00002 5.20002Z" fill="#2563EB"/>
<path d="M4.6 4.40002C4.26865 4.40002 4 4.66868 4 5.00002C4 5.33137 4.26865 5.60002 4.6 5.60002C4.93135 5.60002 5.2 5.33137 5.2 5.00002C5.2 4.66868 4.93135 4.40002 4.6 4.40002ZM4.6 5.20002C4.48955 5.20002 4.4 5.11047 4.4 5.00002C4.4 4.88958 4.48955 4.80002 4.6 4.80002C4.71045 4.80002 4.8 4.88958 4.8 5.00002C4.8 5.11047 4.71045 5.20002 4.6 5.20002Z" fill="#2563EB"/>
<path d="M6.19998 4.40002C5.86863 4.40002 5.59998 4.66868 5.59998 5.00002C5.59998 5.33137 5.86863 5.60002 6.19998 5.60002C6.53132 5.60002 6.79998 5.33137 6.79998 5.00002C6.79998 4.66868 6.53132 4.40002 6.19998 4.40002ZM6.19998 5.20002C6.08953 5.20002 5.99998 5.11047 5.99998 5.00002C5.99998 4.88958 6.08953 4.80002 6.19998 4.80002C6.31042 4.80002 6.39998 4.88958 6.39998 5.00002C6.39998 5.11047 6.31042 5.20002 6.19998 5.20002Z" fill="#2563EB"/>
<path d="M7.80001 4.40002C7.46866 4.40002 7.20001 4.66868 7.20001 5.00002C7.20001 5.33137 7.46866 5.60002 7.80001 5.60002C8.13136 5.60002 8.40001 5.33137 8.40001 5.00002C8.40001 4.66868 8.13136 4.40002 7.80001 4.40002ZM7.80001 5.20002C7.68956 5.20002 7.60001 5.11047 7.60001 5.00002C7.60001 4.88958 7.68956 4.80002 7.80001 4.80002C7.91046 4.80002 8.00001 4.88958 8.00001 5.00002C8.00001 5.11047 7.91046 5.20002 7.80001 5.20002Z" fill="#2563EB"/>
<path d="M3.00002 6C2.66868 6 2.40002 6.26865 2.40002 6.6C2.40002 6.93135 2.66868 7.2 3.00002 7.2C3.33137 7.2 3.60002 6.93135 3.60002 6.6C3.60002 6.26865 3.33137 6 3.00002 6ZM3.00002 6.8C2.88958 6.8 2.80002 6.71045 2.80002 6.6C2.80002 6.48955 2.88958 6.4 3.00002 6.4C3.11047 6.4 3.20002 6.48955 3.20002 6.6C3.20002 6.71045 3.11047 6.8 3.00002 6.8Z" fill="#2563EB"/>
<path d="M6.19998 6C5.86863 6 5.59998 6.26865 5.59998 6.6C5.59998 6.93135 5.86863 7.2 6.19998 7.2C6.53132 7.2 6.79998 6.93135 6.79998 6.6C6.79998 6.26865 6.53132 6 6.19998 6ZM6.19998 6.8C6.08953 6.8 5.99998 6.71045 5.99998 6.6C5.99998 6.48955 6.08953 6.4 6.19998 6.4C6.31042 6.4 6.39998 6.48955 6.39998 6.6C6.39998 6.71045 6.31042 6.8 6.19998 6.8Z" fill="#2563EB"/>
<path d="M7.80001 6C7.46866 6 7.20001 6.26865 7.20001 6.6C7.20001 6.93135 7.46866 7.2 7.80001 7.2C8.13136 7.2 8.40001 6.93135 8.40001 6.6C8.40001 6.26865 8.13136 6 7.80001 6ZM7.80001 6.8C7.68956 6.8 7.60001 6.71045 7.60001 6.6C7.60001 6.48955 7.68956 6.4 7.80001 6.4C7.91046 6.4 8.00001 6.48955 8.00001 6.6C8.00001 6.71045 7.91046 6.8 7.80001 6.8Z" fill="#2563EB"/>
<path d="M3.00002 7.59998C2.66868 7.59998 2.40002 7.86863 2.40002 8.19998C2.40002 8.53132 2.66868 8.79998 3.00002 8.79998C3.33137 8.79998 3.60002 8.53132 3.60002 8.19998C3.60002 7.86863 3.33137 7.59998 3.00002 7.59998ZM3.00002 8.39998C2.88958 8.39998 2.80002 8.31042 2.80002 8.19998C2.80002 8.08953 2.88958 7.99998 3.00002 7.99998C3.11047 7.99998 3.20002 8.08953 3.20002 8.19998C3.20002 8.31042 3.11047 8.39998 3.00002 8.39998Z" fill="#2563EB"/>
<path d="M4.6 7.59998C4.26865 7.59998 4 7.86863 4 8.19998C4 8.53132 4.26865 8.79998 4.6 8.79998C4.93135 8.79998 5.2 8.53132 5.2 8.19998C5.2 7.86863 4.93135 7.59998 4.6 7.59998ZM4.6 8.39998C4.48955 8.39998 4.4 8.31042 4.4 8.19998C4.4 8.08953 4.48955 7.99998 4.6 7.99998C4.71045 7.99998 4.8 8.08953 4.8 8.19998C4.8 8.31042 4.71045 8.39998 4.6 8.39998Z" fill="#2563EB"/>
<path d="M6.79998 8.19998C6.79998 7.86863 6.53132 7.59998 6.19998 7.59998C5.86863 7.59998 5.59998 7.86863 5.59998 8.19998C5.59998 8.53132 5.86863 8.79998 6.19998 8.79998C6.53132 8.79998 6.79998 8.53132 6.79998 8.19998ZM6.19998 8.39998C6.08953 8.39998 5.99998 8.31042 5.99998 8.19998C5.99998 8.08953 6.08953 7.99998 6.19998 7.99998C6.31042 7.99998 6.39998 8.08953 6.39998 8.19998C6.39998 8.31042 6.31042 8.39998 6.19998 8.39998Z" fill="#2563EB"/>
<path d="M7.80001 7.99998C7.91046 7.99998 8.00001 8.08953 8.00001 8.19998H8.40001C8.40001 7.86863 8.13136 7.59998 7.80001 7.59998C7.46866 7.59998 7.20001 7.86863 7.20001 8.19998C7.20001 8.53132 7.46866 8.79998 7.80001 8.79998V8.39998C7.68956 8.39998 7.60001 8.31042 7.60001 8.19998C7.60001 8.08953 7.68956 7.99998 7.80001 7.99998Z" fill="#2563EB"/>
<path d="M3.00002 9.19995C2.66868 9.19995 2.40002 9.4686 2.40002 9.79995C2.40002 10.1313 2.66868 10.4 3.00002 10.4C3.33137 10.4 3.60002 10.1313 3.60002 9.79995C3.60002 9.4686 3.33137 9.19995 3.00002 9.19995ZM3.00002 9.99995C2.88958 9.99995 2.80002 9.9104 2.80002 9.79995C2.80002 9.6895 2.88958 9.59995 3.00002 9.59995C3.11047 9.59995 3.20002 9.6895 3.20002 9.79995C3.20002 9.9104 3.11047 9.99995 3.00002 9.99995Z" fill="#2563EB"/>
<path d="M4.6 9.19995C4.26865 9.19995 4 9.4686 4 9.79995C4 10.1313 4.26865 10.4 4.6 10.4C4.93135 10.4 5.2 10.1313 5.2 9.79995C5.2 9.4686 4.93135 9.19995 4.6 9.19995ZM4.6 9.99995C4.48955 9.99995 4.4 9.9104 4.4 9.79995C4.4 9.6895 4.48955 9.59995 4.6 9.59995C4.71045 9.59995 4.8 9.6895 4.8 9.79995C4.8 9.9104 4.71045 9.99995 4.6 9.99995Z" fill="#2563EB"/>
<path d="M6.19998 9.59995H6.39998V9.19995H6.19998C5.86863 9.19995 5.59998 9.4686 5.59998 9.79995C5.59998 10.1313 5.86863 10.4 6.19998 10.4H6.39998V9.99995H6.19998C6.08953 9.99995 5.99998 9.9104 5.99998 9.79995C5.99998 9.6895 6.08953 9.59995 6.19998 9.59995Z" fill="#2563EB"/>
<path d="M4.34141 7.14141L4.6 6.88281L4.85859 7.14141L5.14141 6.85859L4.88281 6.6L5.14141 6.34141L4.85859 6.05859L4.6 6.31719L4.34141 6.05859L4.05859 6.34141L4.31719 6.6L4.05859 6.85859L4.34141 7.14141Z" fill="#2563EB"/>
</g>
<defs>
<clipPath id="clip0_413_6996">
<rect width="12" height="12" fill="white"/>
</clipPath>
</defs>
</svg>
