<svg width="12" height="12" viewBox="0 0 12 12" fill="none" xmlns="http://www.w3.org/2000/svg">
<g clip-path="url(#clip0_413_7069)">
<path d="M5.93006 10.46C5.08948 10.4601 4.26777 10.2108 3.56883 9.74384C2.8699 9.27685 2.32515 8.6131 2.00345 7.83651C1.68176 7.05991 1.59758 6.20537 1.76155 5.38093C1.92553 4.5565 2.33029 3.7992 2.92467 3.20481C3.51904 2.61042 4.27633 2.20563 5.10076 2.04163C5.92519 1.87764 6.77974 1.96179 7.55634 2.28347C8.33294 2.60514 8.99671 3.14988 9.46371 3.84879C9.93072 4.54771 10.18 5.36942 10.18 6.21C10.1787 7.33677 9.73055 8.41703 8.93382 9.21379C8.13708 10.0105 7.05683 10.4587 5.93006 10.46ZM5.93006 2.31996C5.16068 2.31994 4.40857 2.54807 3.76884 2.97549C3.12911 3.40292 2.6305 4.01046 2.33605 4.72127C2.0416 5.43208 1.96455 6.21424 2.11463 6.96884C2.26472 7.72344 2.6352 8.41659 3.17923 8.96063C3.72325 9.50468 4.41639 9.87518 5.17099 10.0253C5.92559 10.1754 6.70775 10.0984 7.41857 9.80394C8.12939 9.50952 8.73694 9.01092 9.16438 8.37121C9.59183 7.73149 9.81998 6.97939 9.81998 6.21C9.81884 5.17867 9.40865 4.18991 8.6794 3.46063C7.95015 2.73136 6.96139 2.32114 5.93006 2.31996Z" fill="#2563EB"/>
<path d="M5.93005 9.5C5.27934 9.50003 4.64323 9.30709 4.10217 8.94559C3.56111 8.58409 3.1394 8.07026 2.89037 7.46909C2.64133 6.86792 2.57616 6.2064 2.7031 5.56818C2.83003 4.92997 3.14337 4.34373 3.60348 3.8836C4.0636 3.42346 4.64983 3.11011 5.28804 2.98315C5.92624 2.85619 6.58777 2.92134 7.18895 3.17035C7.79013 3.41936 8.30397 3.84106 8.66549 4.3821C9.02701 4.92315 9.21997 5.55925 9.21997 6.20996C9.21899 7.08221 8.87206 7.91846 8.2553 8.53524C7.63854 9.15203 6.8023 9.49899 5.93005 9.5ZM5.93005 3.27992C5.35054 3.2799 4.78404 3.45172 4.30218 3.77367C3.82032 4.09561 3.44475 4.55321 3.22296 5.0886C3.00118 5.624 2.94314 6.21313 3.05618 6.78151C3.16922 7.34989 3.44827 7.87199 3.85804 8.28177C4.26781 8.69156 4.78989 8.97063 5.35827 9.08369C5.92664 9.19676 6.51578 9.13874 7.05118 8.91698C7.58659 8.69521 8.0442 8.31966 8.36617 7.83782C8.68813 7.35597 8.85997 6.78948 8.85997 6.20996C8.85912 5.43315 8.55016 4.6884 8.00088 4.1391C7.4516 3.5898 6.70687 3.28081 5.93005 3.27992Z" fill="#2563EB"/>
<path d="M3.0203 11.2643C2.90319 11.2645 2.78721 11.2415 2.67897 11.1969C2.57072 11.1522 2.47235 11.0866 2.38946 11.0039L1.87057 10.4855L3.17162 9.18457L3.42614 9.43909L2.37986 10.4855L2.64385 10.7495C2.74377 10.8489 2.87898 10.9047 3.01994 10.9047C3.16089 10.9047 3.2961 10.8489 3.39601 10.7495L4.28642 9.85909L4.54081 10.1135L3.65041 11.0039C3.56772 11.0867 3.46948 11.1523 3.36134 11.197C3.25321 11.2417 3.1373 11.2645 3.0203 11.2643Z" fill="#2563EB"/>
<path d="M8.87868 11.264C8.76158 11.2642 8.64558 11.2414 8.53731 11.1968C8.42904 11.1522 8.33064 11.0866 8.24773 11.0039L7.34641 10.1027L7.60092 9.84822L8.50212 10.7494C8.60236 10.8488 8.73782 10.9046 8.87898 10.9046C9.02015 10.9046 9.15561 10.8488 9.25585 10.7494L9.51852 10.4854L8.45496 9.42102L8.70973 9.1665L10.0272 10.4854L9.51036 11.0039C9.42732 11.0867 9.32879 11.1522 9.22041 11.1968C9.11202 11.2415 8.9959 11.2643 8.87868 11.264Z" fill="#2563EB"/>
<path d="M10.488 4.24567L7.79401 1.55167L8.61241 0.733027C8.78185 0.564098 9.01136 0.469238 9.25063 0.469238C9.48989 0.469238 9.7194 0.564098 9.88885 0.733027L10.0256 0.869827C10.1852 0.774762 10.3718 0.735614 10.5561 0.758579C10.7404 0.781545 10.9117 0.865311 11.0431 0.996621C11.1744 1.12793 11.2581 1.29928 11.2811 1.48356C11.3041 1.66783 11.2649 1.85451 11.1698 2.01403L11.3066 2.15083C11.4756 2.32027 11.5704 2.54978 11.5704 2.78905C11.5704 3.02831 11.4756 3.25782 11.3066 3.42727L10.488 4.24567ZM8.30317 1.55167L10.488 3.73663L11.052 3.17263C11.1535 3.07074 11.2105 2.9328 11.2105 2.78899C11.2105 2.64518 11.1535 2.50723 11.052 2.40535L10.6829 2.03635L10.8008 1.90915C10.8843 1.81919 10.9296 1.70041 10.9273 1.57775C10.9249 1.45509 10.8752 1.3381 10.7884 1.25135C10.7017 1.1646 10.5847 1.11484 10.462 1.11253C10.3394 1.11022 10.2206 1.15553 10.1306 1.23895L10.0034 1.35691L9.63445 0.987547C9.53256 0.886056 9.39461 0.829072 9.25081 0.829072C9.107 0.829072 8.96905 0.886056 8.86717 0.987547L8.30317 1.55167Z" fill="#2563EB"/>
<path d="M8.17438 2.77844L8.76291 2.18991L9.01743 2.44443L8.4289 3.03296L8.17438 2.77844Z" fill="#2563EB"/>
<path d="M9.00262 3.66199L9.59124 3.07337L9.84576 3.32789L9.25714 3.91651L9.00262 3.66199Z" fill="#2563EB"/>
<path d="M1.39201 4.24578L0.573489 3.42738C0.404501 3.25796 0.309601 3.02845 0.309601 2.78916C0.309601 2.54987 0.404501 2.32035 0.573489 2.15094L0.710289 2.01414C0.615264 1.85467 0.576128 1.66806 0.59907 1.48385C0.622013 1.29964 0.705725 1.12833 0.836962 0.997039C0.9682 0.865747 1.13947 0.781963 1.32367 0.758943C1.50788 0.735923 1.6945 0.774981 1.85401 0.869939L1.99081 0.733139C2.16023 0.564217 2.38972 0.46936 2.62897 0.46936C2.86822 0.46936 3.0977 0.564217 3.26713 0.733139L4.08553 1.55178L1.39201 4.24578ZM0.828009 2.40546C0.726283 2.50722 0.669138 2.64521 0.669138 2.7891C0.669138 2.93298 0.726283 3.07098 0.828009 3.17274L1.39201 3.73674L3.57601 1.55178L3.01201 0.987779C2.91016 0.886266 2.77223 0.829265 2.62843 0.829265C2.48463 0.829265 2.3467 0.886266 2.24485 0.987779L1.87573 1.35714L1.74865 1.23918C1.65844 1.1573 1.54018 1.11328 1.41839 1.11625C1.2966 1.11921 1.18062 1.16893 1.0945 1.2551C1.00838 1.34127 0.958719 1.45727 0.955821 1.57906C0.952922 1.70086 0.997004 1.81909 1.07893 1.90926L1.19677 2.03634L0.828009 2.40546Z" fill="#2563EB"/>
<path d="M2.86047 2.44397L3.11499 2.18945L3.70353 2.77798L3.44901 3.0325L2.86047 2.44397Z" fill="#2563EB"/>
<path d="M2.03201 3.32715L2.28653 3.07263L2.87507 3.66116L2.62055 3.91568L2.03201 3.32715Z" fill="#2563EB"/>
<path d="M7.03969 7.6908H4.92001V7.3308H6.67753L6.67105 6.23688H4.96897L4.98001 4.54932H7.08001V4.90932H5.33773L5.33125 5.87688H7.02889L7.03969 7.6908Z" fill="#2563EB"/>
<path d="M5.82001 4.11121H6.18001V8.19913H5.82001V4.11121Z" fill="#2563EB"/>
</g>
<defs>
<clipPath id="clip0_413_7069">
<rect width="12" height="12" fill="white"/>
</clipPath>
</defs>
</svg>
