<svg width="12" height="12" viewBox="0 0 12 12" fill="none" xmlns="http://www.w3.org/2000/svg">
<path d="M3.79742 9.34211C3.52998 9.25654 3.28436 9.20672 3.14944 9.017C3.30762 8.85484 3.4 8.63976 3.40869 8.4134L3.43112 7.82069C3.43884 7.60053 3.36717 7.38493 3.22916 7.21322C3.09116 7.04151 2.89603 6.92513 2.67937 6.88531V5.5249H3.23244C3.28169 5.52417 3.32867 5.50409 3.36324 5.46901C3.3978 5.43392 3.41718 5.38665 3.41718 5.3374C3.41718 5.28815 3.3978 5.24087 3.36323 5.20579C3.32866 5.17071 3.28168 5.15063 3.23243 5.1499H2.67937C2.57995 5.15 2.48462 5.18954 2.41432 5.25985C2.34401 5.33015 2.30447 5.42548 2.30437 5.5249V6.88564C2.12568 6.91839 1.79418 7.02951 1.92424 7.26661C1.95072 7.30867 1.99279 7.33852 2.04123 7.34962C2.08968 7.36072 2.14055 7.35217 2.1827 7.32584C2.54185 7.09282 3.08702 7.36081 3.05628 7.80688L3.03395 8.3992C3.02748 8.53859 2.96754 8.67014 2.86661 8.76649C2.76568 8.86285 2.6315 8.91662 2.49195 8.91663C2.35241 8.91664 2.21822 8.86289 2.11728 8.76655C2.01633 8.6702 1.95638 8.53867 1.94988 8.39928L1.92928 7.85181C1.92716 7.80228 1.90552 7.7556 1.86909 7.72199C1.83266 7.68837 1.7844 7.67054 1.73486 7.6724C1.68532 7.67427 1.63854 7.69567 1.60473 7.73193C1.57093 7.76819 1.55286 7.81636 1.55447 7.86591C1.57187 8.24221 1.52753 8.74393 1.83351 9.01778C1.69206 9.21829 1.37971 9.27838 1.18562 9.34231C1.0598 9.37385 0.94832 9.44695 0.869251 9.54978C0.790182 9.6526 0.74816 9.77912 0.749997 9.90882V10.1862C0.749737 10.2436 0.768344 10.2995 0.802952 10.3452C0.83756 10.391 0.88625 10.4241 0.941524 10.4395C1.95285 10.7423 3.03075 10.7423 4.04205 10.4394C4.09729 10.424 4.14594 10.3908 4.18054 10.3451C4.21514 10.2994 4.23377 10.2436 4.23358 10.1862V9.90882C4.23538 9.77903 4.19328 9.65244 4.11412 9.54957C4.03495 9.4467 3.92335 9.3736 3.79742 9.34211ZM3.85858 10.1005C2.96535 10.3564 2.01824 10.3564 1.125 10.1006V9.90882C1.12336 9.86347 1.13705 9.8189 1.16386 9.78229C1.19067 9.74568 1.22904 9.71917 1.27276 9.70704C1.55579 9.62436 1.9628 9.51491 2.14678 9.23023C2.36822 9.31852 2.61511 9.31845 2.83651 9.23005C2.90037 9.33099 2.98944 9.41354 3.09494 9.46955C3.28967 9.5733 3.4963 9.65298 3.71026 9.70686C3.88774 9.74832 3.85863 9.95919 3.85858 10.1005Z" fill="#2563EB"/>
<path d="M10.8128 9.3414C10.6213 9.28016 10.3112 9.21527 10.1626 9.02091C10.3234 8.85824 10.4173 8.64116 10.4257 8.4126L10.4478 7.82117C10.4554 7.60092 10.3837 7.38526 10.2456 7.21349C10.1075 7.04171 9.91236 6.92525 9.69562 6.88532V5.52502C9.69552 5.4256 9.65598 5.33027 9.58568 5.25997C9.51537 5.18966 9.42005 5.15012 9.32062 5.15002H8.76747C8.71817 5.15069 8.67112 5.17073 8.6365 5.20582C8.60188 5.24091 8.58246 5.28823 8.58246 5.33752C8.58246 5.38682 8.60188 5.43414 8.6365 5.46923C8.67112 5.50432 8.71817 5.52436 8.76747 5.52502H9.32063V6.88533C9.10393 6.92532 8.90879 7.04181 8.77076 7.2136C8.63274 7.38538 8.561 7.60103 8.56863 7.82126C8.58895 8.20632 8.53535 8.73624 8.85044 9.0168C8.70828 9.21796 8.39538 9.27889 8.20215 9.3417C8.07634 9.37335 7.96488 9.44651 7.88578 9.54934C7.80668 9.65217 7.76457 9.77867 7.76625 9.90839V10.1859C7.76678 10.2431 7.78562 10.2986 7.82 10.3444C7.85438 10.3901 7.9025 10.4236 7.95732 10.44L8.11671 10.4832C8.57235 10.6061 9.04224 10.6683 9.51417 10.6682C9.66146 10.6773 9.85966 10.6666 9.85676 10.4728C9.85651 10.448 9.85126 10.4236 9.84133 10.4009C9.8314 10.3782 9.817 10.3578 9.79897 10.3408C9.78095 10.3238 9.75968 10.3107 9.73645 10.3021C9.71321 10.2935 9.68849 10.2898 9.66376 10.291C9.14956 10.3057 8.63613 10.2418 8.14124 10.1014C8.14148 9.95872 8.11197 9.75029 8.2891 9.70652C8.57035 9.62488 8.98098 9.51356 9.16385 9.22956C9.3849 9.31772 9.63135 9.31774 9.85241 9.22961C9.91611 9.33071 10.0053 9.41323 10.1111 9.46886C10.3053 9.57329 10.5118 9.65304 10.7259 9.70625C10.7696 9.71869 10.808 9.74528 10.8349 9.78186C10.8619 9.81844 10.876 9.86294 10.875 9.90839V10.1013C10.7132 10.1463 10.5599 10.1833 10.3806 10.2151C10.3352 10.2241 10.2947 10.2496 10.2669 10.2867C10.2392 10.3238 10.226 10.3698 10.2301 10.4159C10.2342 10.4621 10.2552 10.5051 10.2891 10.5367C10.3229 10.5683 10.3673 10.5863 10.4136 10.5872C10.5776 10.5627 10.74 10.528 10.8996 10.4832L11.0664 10.4378C11.1196 10.4205 11.166 10.3868 11.199 10.3416C11.232 10.2964 11.2498 10.2419 11.25 10.1859V9.90838C11.2516 9.77846 11.2093 9.65179 11.13 9.54888C11.0507 9.44598 10.9389 9.37288 10.8128 9.3414ZM8.96559 8.3985L8.94343 7.80716C8.94044 7.73416 8.95233 7.66131 8.97838 7.59306C9.00443 7.52479 9.04409 7.46255 9.09495 7.4101C9.43473 7.05379 10.1006 7.29615 10.073 7.80717L10.0509 8.39859C10.0442 8.53805 9.98415 8.6696 9.8831 8.76595C9.78205 8.86229 9.64779 8.91604 9.50817 8.91603C9.36856 8.91601 9.2343 8.86225 9.13328 8.76589C9.03225 8.66952 8.9722 8.53796 8.96559 8.3985Z" fill="#2563EB"/>
<path d="M5.21173 3.89634C5.16573 3.89564 5.12052 3.88432 5.07961 3.86327C5.03871 3.84223 5.00322 3.81202 4.97591 3.775C5.07118 3.61763 5.17798 3.23498 4.88964 3.21582C4.83991 3.21583 4.79223 3.23558 4.75706 3.27074C4.7219 3.30591 4.70215 3.35359 4.70214 3.40332C4.70642 3.49028 4.67616 3.57541 4.61796 3.64016C4.55976 3.70491 4.47833 3.74404 4.39141 3.74902C4.34214 3.74972 4.29513 3.76978 4.26053 3.80487C4.22594 3.83996 4.20654 3.88725 4.20654 3.93652C4.20654 3.9858 4.22594 4.03309 4.26053 4.06818C4.29513 4.10327 4.34214 4.12333 4.39141 4.12402C4.50272 4.12307 4.61194 4.09361 4.70862 4.03843C4.77095 4.11097 4.84811 4.1693 4.9349 4.20947C5.02168 4.24965 5.11608 4.27075 5.21172 4.27133C5.26095 4.27059 5.30792 4.25051 5.34247 4.21543C5.37703 4.18035 5.3964 4.13308 5.3964 4.08384C5.3964 4.0346 5.37703 3.98734 5.34248 3.95225C5.30793 3.91717 5.26096 3.89709 5.21173 3.89634Z" fill="#2563EB"/>
<path d="M8.39969 4.64246C9.11613 4.31218 9.11733 3.17717 8.39975 2.84665C8.38834 2.63102 8.30574 2.42527 8.1649 2.26159C8.02406 2.09791 7.83292 1.98555 7.62141 1.9421C7.55548 1.76444 7.43736 1.61088 7.28256 1.50158C7.12775 1.39229 6.94351 1.33238 6.75403 1.32971C6.60493 1.33138 6.45845 1.36915 6.32713 1.43979C6.19581 1.51043 6.08356 1.61184 6 1.73534C5.91643 1.61184 5.80419 1.51043 5.67287 1.43979C5.54155 1.36915 5.39507 1.33138 5.24597 1.32971C5.05648 1.33237 4.87222 1.39228 4.7174 1.50158C4.56258 1.61087 4.44443 1.76444 4.37849 1.94211C4.16699 1.98559 3.97588 2.09795 3.83506 2.26162C3.69423 2.4253 3.61165 2.63104 3.60022 2.84665C3.43634 2.93249 3.29909 3.06155 3.20332 3.21983C3.10756 3.37811 3.05694 3.55958 3.05695 3.74458C3.05696 3.92958 3.10759 4.11105 3.20338 4.26932C3.29916 4.42759 3.43643 4.55663 3.60031 4.64246C3.6121 4.85755 3.6947 5.06271 3.83524 5.22598C3.97578 5.38924 4.16638 5.50143 4.37733 5.54508C4.43496 5.70398 4.53526 5.84393 4.66721 5.94957C4.79917 6.0552 4.95768 6.12243 5.12534 6.14388C5.293 6.16533 5.46334 6.14016 5.61763 6.07115C5.77193 6.00213 5.90423 5.89194 6 5.75266C6.09577 5.89193 6.22806 6.00212 6.38235 6.07113C6.53664 6.14013 6.70697 6.1653 6.87462 6.14384C7.04227 6.12239 7.20077 6.05516 7.33272 5.94953C7.46467 5.84389 7.56495 5.70395 7.62257 5.54505C7.83354 5.50142 8.02414 5.38923 8.1647 5.22598C8.30526 5.06272 8.38788 4.85756 8.39969 4.64246ZM5.24597 5.78256C5.15424 5.78102 5.06431 5.75677 4.98424 5.71199C4.90416 5.66721 4.83642 5.60329 4.78709 5.52593C5.01102 5.46082 5.20276 5.3148 5.32507 5.11624C5.35044 5.07411 5.35824 5.0237 5.34679 4.97588C5.33534 4.92805 5.30557 4.88664 5.26388 4.86056C5.22219 4.83448 5.17192 4.82583 5.12391 4.83646C5.0759 4.84709 5.03398 4.87615 5.0072 4.91739C4.68322 5.43499 3.93746 5.14289 3.9767 4.53413C3.98074 4.49128 3.96991 4.44835 3.94604 4.41254C3.92216 4.37673 3.8867 4.35023 3.84559 4.33749C3.72426 4.29283 3.61955 4.21204 3.54559 4.106C3.47162 3.99996 3.43196 3.87379 3.43196 3.7445C3.43196 3.61521 3.47162 3.48904 3.54559 3.383C3.61955 3.27696 3.72426 3.19617 3.84559 3.15151C3.8867 3.13875 3.92217 3.11222 3.94604 3.0764C3.96991 3.04058 3.98073 2.99763 3.97669 2.95477C3.92765 2.35208 4.68358 2.04835 5.00712 2.56999C5.02017 2.59088 5.03721 2.60899 5.05726 2.62329C5.07732 2.63759 5.1 2.6478 5.124 2.65334C5.148 2.65887 5.17285 2.65962 5.19715 2.65554C5.22144 2.65147 5.24469 2.64264 5.26557 2.62958C5.56467 2.39054 5.00187 2.01067 4.78751 1.96146C5.10859 1.47159 5.81962 1.74083 5.8125 2.32591V5.16321C5.819 5.32034 5.76308 5.47365 5.65694 5.58969C5.55079 5.70573 5.40305 5.77506 5.24597 5.78256ZM6.75403 5.78256C6.59695 5.77506 6.44921 5.70573 6.34307 5.58969C6.23692 5.47366 6.181 5.32034 6.1875 5.16321V2.3259C6.18051 1.74185 6.89087 1.47068 7.21246 1.96151C6.99907 2.00886 6.43499 2.39254 6.73434 2.62949C6.75519 2.6426 6.77843 2.65146 6.80272 2.65557C6.82702 2.65967 6.85188 2.65894 6.87589 2.65341C6.89989 2.64788 6.92257 2.63766 6.94262 2.62335C6.96267 2.60903 6.97969 2.59089 6.99271 2.56998C7.04132 2.48892 7.10984 2.42163 7.19177 2.37451C7.2737 2.32738 7.36631 2.30198 7.46082 2.30073C7.54134 2.30495 7.62016 2.32545 7.69253 2.36098C7.7649 2.39652 7.82931 2.44636 7.88188 2.5075C7.93445 2.56863 7.97407 2.63978 7.99837 2.71666C8.02266 2.79354 8.03112 2.87454 8.02323 2.95478C8.01917 2.99764 8.02999 3.0406 8.05386 3.07642C8.07773 3.11225 8.11321 3.13877 8.15433 3.15153C8.69863 3.31557 8.69912 4.1734 8.15431 4.3375C8.11322 4.35027 8.07776 4.37678 8.0539 4.41258C8.03003 4.44839 8.0192 4.49131 8.02323 4.53416C8.03128 4.61434 8.02293 4.69532 7.99868 4.77217C7.97443 4.84902 7.93478 4.92013 7.88217 4.98117C7.82955 5.0422 7.76506 5.09189 7.69262 5.1272C7.62018 5.16251 7.54132 5.18271 7.46082 5.18656C7.36632 5.1853 7.2737 5.15991 7.19177 5.11278C7.10984 5.06566 7.04132 4.99837 6.99271 4.91731C6.96615 4.87554 6.92416 4.84597 6.87588 4.83504C6.82761 4.82411 6.77697 4.83271 6.73501 4.85897C6.69306 4.88523 6.66318 4.92701 6.65191 4.97521C6.64064 5.02341 6.64888 5.0741 6.67484 5.11625C6.79721 5.31476 6.98895 5.46076 7.21286 5.52592C7.16354 5.60328 7.09582 5.66721 7.01575 5.71199C6.93568 5.75678 6.84576 5.78102 6.75403 5.78256Z" fill="#2563EB"/>
<path d="M6.78818 4.27138C6.88382 4.2708 6.97821 4.2497 7.065 4.20952C7.15179 4.16935 7.22895 4.11102 7.29128 4.03848C7.38796 4.09366 7.49718 4.12312 7.60849 4.12408C7.65776 4.12338 7.70478 4.10332 7.73937 4.06823C7.77397 4.03314 7.79336 3.98585 7.79336 3.93658C7.79336 3.8873 7.77397 3.84001 7.73937 3.80492C7.70478 3.76983 7.65776 3.74977 7.60849 3.74908C7.52157 3.74409 7.44015 3.70496 7.38195 3.64021C7.32375 3.57545 7.29349 3.49033 7.29777 3.40337C7.29708 3.3541 7.27701 3.30709 7.24193 3.27249C7.20684 3.2379 7.15955 3.21851 7.11027 3.21851C7.061 3.21851 7.0137 3.2379 6.97862 3.27249C6.94353 3.30709 6.92347 3.3541 6.92277 3.40337C6.92313 3.53402 6.95806 3.66225 7.02401 3.77503C6.9967 3.81205 6.96121 3.84226 6.9203 3.86331C6.8794 3.88436 6.83419 3.89568 6.78819 3.89638C6.7389 3.89704 6.69184 3.91708 6.65722 3.95217C6.62259 3.98726 6.60318 4.03458 6.60318 4.08388C6.60318 4.13317 6.62259 4.18049 6.65721 4.21558C6.69184 4.25067 6.73889 4.27072 6.78818 4.27138Z" fill="#2563EB"/>
</svg>
