<svg width="12" height="12" viewBox="0 0 12 12" fill="none" xmlns="http://www.w3.org/2000/svg">
<path d="M9.87937 7.63126C9.78758 7.50093 9.6493 7.41078 9.49302 7.37938C9.33674 7.34799 9.17436 7.37774 9.03937 7.46251L7.05374 8.70564C7.01694 8.58438 6.94269 8.47789 6.84164 8.40143C6.7406 8.32497 6.61793 8.28247 6.49124 8.28001H4.49999C4.13999 8.25751 3.70124 8.52751 3.38624 8.67001V8.50689C3.38575 8.422 3.35181 8.34074 3.29179 8.28071C3.23177 8.22069 3.1505 8.18675 3.06562 8.18626H2.32687C2.24216 8.18676 2.16109 8.22076 2.10136 8.28083C2.04164 8.34091 2.00812 8.42218 2.00812 8.50689V10.7438C2.00812 10.8283 2.0417 10.9094 2.10148 10.9692C2.16125 11.0289 2.24233 11.0625 2.32687 11.0625H3.06749C3.1522 11.0625 3.23347 11.029 3.29355 10.9693C3.35362 10.9095 3.38762 10.8285 3.38812 10.7438V10.5563H4.10437V10.2769H3.38624V8.97189L4.04624 8.65689C4.18809 8.58984 4.3431 8.55525 4.49999 8.55564H6.48187C6.56839 8.55564 6.65138 8.59001 6.71256 8.65119C6.77375 8.71238 6.80812 8.79536 6.80812 8.88189C6.80812 8.96841 6.77375 9.0514 6.71256 9.11258C6.65138 9.17376 6.56839 9.20814 6.48187 9.20814H5.09812V9.48189H6.48187C6.61619 9.48143 6.74648 9.43591 6.85186 9.35263C6.95725 9.26934 7.03164 9.1531 7.06312 9.02251L9.18749 7.68751C9.22652 7.66351 9.26989 7.64742 9.31514 7.64018C9.36038 7.63293 9.40661 7.63467 9.45118 7.64529C9.49575 7.65591 9.5378 7.6752 9.57491 7.70207C9.61203 7.72894 9.64349 7.76286 9.66749 7.80189C9.6915 7.84091 9.70759 7.88429 9.71483 7.92953C9.72207 7.97478 9.72034 8.021 9.70972 8.06558C9.6991 8.11015 9.6798 8.15219 9.65293 8.18931C9.62606 8.22642 9.59215 8.25788 9.55312 8.28189L6.43687 10.185C6.32404 10.2542 6.19419 10.2905 6.06187 10.29L4.69687 10.2769V10.5525C4.69687 10.5525 6.06187 10.5638 6.06749 10.5638C6.24868 10.5632 6.42628 10.5133 6.58124 10.4194L9.69374 8.52189C9.76623 8.47721 9.82885 8.41822 9.87777 8.34853C9.92669 8.27883 9.96088 8.19989 9.97825 8.11653C9.99563 8.03317 9.99582 7.94714 9.97882 7.86371C9.96181 7.78027 9.92798 7.70118 9.87937 7.63126ZM3.11437 10.7438C3.11388 10.7559 3.10873 10.7673 3.09999 10.7757C3.09125 10.7841 3.07961 10.7888 3.06749 10.7888H2.32687C2.32096 10.7888 2.31511 10.7876 2.30965 10.7853C2.30419 10.7831 2.29923 10.7798 2.29505 10.7756C2.29087 10.7714 2.28755 10.7664 2.28529 10.761C2.28303 10.7555 2.28187 10.7497 2.28187 10.7438V8.50689C2.28186 8.49477 2.28654 8.48313 2.29493 8.47439C2.30332 8.46565 2.31476 8.4605 2.32687 8.46001H3.06749C3.07992 8.46001 3.09185 8.46495 3.10064 8.47374C3.10943 8.48253 3.11437 8.49446 3.11437 8.50689V10.7438Z" fill="#2563EB"/>
<path d="M4.48687 4.67432C4.10279 4.67481 3.73462 4.82773 3.46322 5.09949C3.19181 5.37125 3.03937 5.73962 3.03937 6.12369C3.11249 8.04182 5.86312 8.04182 5.93624 6.12369C5.93575 5.73945 5.78289 5.37108 5.51118 5.09938C5.23948 4.82767 4.87111 4.67481 4.48687 4.67432ZM4.48687 7.29932C4.17572 7.29882 3.87746 7.175 3.65745 6.95499C3.43744 6.73497 3.31361 6.43671 3.31312 6.12557C3.36749 4.57119 5.60624 4.57119 5.66249 6.12557C5.6615 6.43671 5.5372 6.73477 5.31684 6.95444C5.09647 7.1741 4.79801 7.29744 4.48687 7.29744V7.29932Z" fill="#2563EB"/>
<path d="M3.77087 6.64648L5.01033 5.40702L5.20387 5.60057L3.96442 6.84003L3.77087 6.64648Z" fill="#2563EB"/>
<path d="M4.25813 5.93066C4.35908 5.92373 4.45364 5.87875 4.5227 5.80479C4.59175 5.73083 4.63016 5.63341 4.63016 5.53223C4.63016 5.43104 4.59175 5.33363 4.5227 5.25967C4.45364 5.18571 4.35908 5.14072 4.25813 5.13379C4.15719 5.14072 4.06263 5.18571 3.99357 5.25967C3.92452 5.33363 3.88611 5.43104 3.88611 5.53223C3.88611 5.63341 3.92452 5.73083 3.99357 5.80479C4.06263 5.87875 4.15719 5.92373 4.25813 5.93066ZM4.25813 5.40754C4.28857 5.41128 4.31659 5.42602 4.33691 5.44899C4.35722 5.47196 4.36844 5.50156 4.36844 5.53223C4.36844 5.56289 4.35722 5.5925 4.33691 5.61546C4.31659 5.63843 4.28857 5.65317 4.25813 5.65691C4.2277 5.65317 4.19968 5.63843 4.17936 5.61546C4.15904 5.5925 4.14783 5.56289 4.14783 5.53223C4.14783 5.50156 4.15904 5.47196 4.17936 5.44899C4.19968 5.42602 4.2277 5.41128 4.25813 5.40754Z" fill="#2563EB"/>
<path d="M4.71751 6.31689C4.61208 6.31689 4.51098 6.35877 4.43643 6.43332C4.36189 6.50787 4.32001 6.60897 4.32001 6.7144C4.32001 6.81982 4.36189 6.92092 4.43643 6.99547C4.51098 7.07002 4.61208 7.11189 4.71751 7.11189C4.82293 7.11189 4.92404 7.07002 4.99858 6.99547C5.07313 6.92092 5.11501 6.81982 5.11501 6.7144C5.11501 6.60897 5.07313 6.50787 4.99858 6.43332C4.92404 6.35877 4.82293 6.31689 4.71751 6.31689ZM4.71751 6.83815C4.68469 6.83815 4.65321 6.82511 4.63 6.8019C4.6068 6.77869 4.59376 6.74722 4.59376 6.7144C4.59376 6.68157 4.6068 6.6501 4.63 6.62689C4.65321 6.60368 4.68469 6.59065 4.71751 6.59065C4.75033 6.59065 4.7818 6.60368 4.80501 6.62689C4.82822 6.6501 4.84126 6.68157 4.84126 6.7144C4.84126 6.74722 4.82822 6.77869 4.80501 6.8019C4.7818 6.82511 4.75033 6.83815 4.71751 6.83815Z" fill="#2563EB"/>
<path d="M7.31247 5.93062C7.69622 5.93012 8.06411 5.77746 8.33546 5.50611C8.60681 5.23476 8.75948 4.86687 8.75997 4.48312C8.68685 2.56312 5.93622 2.565 5.8631 4.48312C5.86409 4.86704 6.01717 5.23493 6.28882 5.50622C6.56047 5.77752 6.92855 5.93013 7.31247 5.93062ZM7.31247 3.30562C7.62394 3.30612 7.92249 3.4302 8.14255 3.65062C8.36262 3.87103 8.48622 4.16977 8.48622 4.48125C8.43747 6.0375 6.18747 6.03562 6.13685 4.48312C6.13685 4.17133 6.26071 3.8723 6.48118 3.65183C6.70165 3.43136 7.00068 3.3075 7.31247 3.3075V3.30562Z" fill="#2563EB"/>
<path d="M6.59485 5.00696L7.83431 3.7675L8.02785 3.96104L6.78839 5.2005L6.59485 5.00696Z" fill="#2563EB"/>
<path d="M7.08187 4.29004C7.18281 4.28311 7.27737 4.23812 7.34643 4.16416C7.41548 4.0902 7.45389 3.99279 7.45389 3.8916C7.45389 3.79041 7.41548 3.693 7.34643 3.61904C7.27737 3.54508 7.18281 3.50009 7.08187 3.49316C6.98092 3.50009 6.88636 3.54508 6.8173 3.61904C6.74825 3.693 6.70984 3.79041 6.70984 3.8916C6.70984 3.99279 6.74825 4.0902 6.8173 4.16416C6.88636 4.23812 6.98092 4.28311 7.08187 4.29004ZM7.08187 3.76691C7.1123 3.77065 7.14032 3.7854 7.16064 3.80836C7.18096 3.83133 7.19217 3.86094 7.19217 3.8916C7.19217 3.92227 7.18096 3.95187 7.16064 3.97484C7.14032 3.99781 7.1123 4.01255 7.08187 4.01629C7.05143 4.01255 7.02341 3.99781 7.00309 3.97484C6.98278 3.95187 6.97156 3.92227 6.97156 3.8916C6.97156 3.86094 6.98278 3.83133 7.00309 3.80836C7.02341 3.7854 7.05143 3.77065 7.08187 3.76691Z" fill="#2563EB"/>
<path d="M7.54128 4.67432C7.44033 4.68125 7.34577 4.72623 7.27672 4.80019C7.20766 4.87415 7.16925 4.97157 7.16925 5.07275C7.16925 5.17394 7.20766 5.27135 7.27672 5.34531C7.34577 5.41927 7.44033 5.46426 7.54128 5.47119C7.64223 5.46426 7.73678 5.41927 7.80584 5.34531C7.87489 5.27135 7.9133 5.17394 7.9133 5.07275C7.9133 4.97157 7.87489 4.87415 7.80584 4.80019C7.73678 4.72623 7.64223 4.68125 7.54128 4.67432ZM7.54128 5.19744C7.51084 5.1937 7.48282 5.17896 7.46251 5.15599C7.44219 5.13302 7.43097 5.10342 7.43097 5.07275C7.43097 5.04209 7.44219 5.01248 7.46251 4.98952C7.48282 4.96655 7.51084 4.95181 7.54128 4.94807C7.57171 4.95181 7.59973 4.96655 7.62005 4.98952C7.64037 5.01248 7.65158 5.04209 7.65158 5.07275C7.65158 5.10342 7.64037 5.13302 7.62005 5.15599C7.59973 5.17896 7.57171 5.1937 7.54128 5.19744Z" fill="#2563EB"/>
<path d="M4.455 3.82498C4.83925 3.82448 5.20761 3.67162 5.47932 3.39992C5.75102 3.12822 5.90388 2.75985 5.90438 2.37561C5.83125 0.45748 3.07875 0.45748 3 2.37561C3 2.56641 3.03767 2.75535 3.11086 2.93156C3.18405 3.10777 3.29132 3.2678 3.4265 3.40246C3.56168 3.53712 3.72212 3.64377 3.89862 3.71627C4.07512 3.78878 4.26419 3.82572 4.455 3.82498ZM4.455 1.19998C4.76582 1.20147 5.0634 1.32598 5.28266 1.5463C5.50192 1.76661 5.625 2.06478 5.625 2.37561C5.56875 3.93186 3.33 3.92998 3.27562 2.37561C3.27587 2.22106 3.30658 2.06808 3.36601 1.92542C3.42544 1.78276 3.51241 1.65321 3.62195 1.5442C3.73149 1.43518 3.86145 1.34883 4.00439 1.29009C4.14733 1.23134 4.30046 1.20136 4.455 1.20186V1.19998Z" fill="#2563EB"/>
<path d="M3.7384 2.89966L4.97786 1.6602L5.1714 1.85374L3.93194 3.0932L3.7384 2.89966Z" fill="#2563EB"/>
<path d="M4.22627 2.18433C4.32722 2.1774 4.42178 2.13241 4.49084 2.05845C4.55989 1.98449 4.5983 1.88708 4.5983 1.78589C4.5983 1.6847 4.55989 1.58729 4.49084 1.51333C4.42178 1.43937 4.32722 1.39438 4.22627 1.38745C4.12533 1.39438 4.03077 1.43937 3.96171 1.51333C3.89266 1.58729 3.85425 1.6847 3.85425 1.78589C3.85425 1.88708 3.89266 1.98449 3.96171 2.05845C4.03077 2.13241 4.12533 2.1774 4.22627 2.18433ZM4.22627 1.6612C4.25671 1.66494 4.28473 1.67968 4.30505 1.70265C4.32536 1.72562 4.33658 1.75522 4.33658 1.78589C4.33658 1.81655 4.32536 1.84616 4.30505 1.86913C4.28473 1.89209 4.25671 1.90684 4.22627 1.91058C4.19584 1.90684 4.16782 1.89209 4.1475 1.86913C4.12718 1.84616 4.11597 1.81655 4.11597 1.78589C4.11597 1.75522 4.12718 1.72562 4.1475 1.70265C4.16782 1.67968 4.19584 1.66494 4.22627 1.6612Z" fill="#2563EB"/>
<path d="M4.68749 2.56873C4.58057 2.56873 4.47804 2.6112 4.40244 2.6868C4.32683 2.7624 4.28436 2.86494 4.28436 2.97185C4.28436 3.07877 4.32683 3.1813 4.40244 3.2569C4.47804 3.3325 4.58057 3.37498 4.68749 3.37498C4.7944 3.37498 4.89694 3.3325 4.97254 3.2569C5.04814 3.1813 5.09061 3.07877 5.09061 2.97185C5.09061 2.86494 5.04814 2.7624 4.97254 2.6868C4.89694 2.6112 4.7944 2.56873 4.68749 2.56873ZM4.68749 3.09185C4.65705 3.08811 4.62903 3.07337 4.60872 3.0504C4.5884 3.02743 4.57718 2.99783 4.57718 2.96716C4.57718 2.9365 4.5884 2.90689 4.60872 2.88392C4.62903 2.86096 4.65705 2.84621 4.68749 2.84248C4.71792 2.84621 4.74594 2.86096 4.76626 2.88392C4.78658 2.90689 4.79779 2.9365 4.79779 2.96716C4.79779 2.99783 4.78658 3.02743 4.76626 3.0504C4.74594 3.07337 4.71792 3.08811 4.68749 3.09185Z" fill="#2563EB"/>
<path d="M4.25812 10.2488H4.57874V10.5694H4.25812V10.2488Z" fill="#2563EB"/>
</svg>
