<svg width="12" height="12" viewBox="0 0 12 12" fill="none" xmlns="http://www.w3.org/2000/svg">
<g clip-path="url(#clip0_413_7083)">
<path d="M10.7259 2.08729H9.88893V1.43066C9.88893 0.948224 9.4965 0.555786 9.01406 0.555786C8.53162 0.555786 8.13918 0.948224 8.13918 1.43066V2.08729H3.86081V1.43066C3.86081 0.948224 3.46837 0.555786 2.98593 0.555786C2.5035 0.555786 2.11106 0.948224 2.11106 1.43066V2.08729H1.27425C0.778496 2.08729 0.375183 2.49154 0.375183 2.98822V10.5452C0.375183 11.041 0.778496 11.4443 1.27425 11.4443H10.7261C11.2219 11.4443 11.6252 11.041 11.6252 10.5452V2.98841C11.6252 2.49172 11.2219 2.08747 10.7261 2.08747L10.7259 2.08729ZM9.01406 0.930786C9.28968 0.930786 9.51393 1.15504 9.51393 1.43066V2.27029C9.51393 2.27197 9.513 2.27329 9.513 2.27479C9.513 2.27629 9.51393 2.27779 9.51393 2.27929V2.96479C9.51393 3.24041 9.28968 3.46466 9.01406 3.46466C8.73843 3.46466 8.51418 3.24041 8.51418 2.96479V2.27554C8.51418 2.27554 8.51418 2.27497 8.51418 2.2746C8.51418 2.27422 8.51418 2.27404 8.51418 2.27366V1.43029C8.51418 1.15466 8.73843 0.930411 9.01406 0.930411V0.930786ZM2.48587 1.43066C2.48587 1.15504 2.71012 0.930786 2.98575 0.930786C3.26137 0.930786 3.48562 1.15504 3.48562 1.43066V2.96497C3.48562 3.2406 3.26137 3.46485 2.98575 3.46485C2.71012 3.46485 2.48587 3.2406 2.48587 2.96497V1.43066ZM1.27406 2.46229H2.11087V2.96497C2.11087 3.44741 2.50331 3.83985 2.98575 3.83985C3.46818 3.83985 3.86062 3.44741 3.86062 2.96497V2.46229H8.139V2.96497C8.139 3.44741 8.53143 3.83985 9.01387 3.83985C9.49631 3.83985 9.88875 3.44741 9.88875 2.96497V2.46229H10.7257C11.0147 2.46229 11.2498 2.69816 11.2498 2.98822V4.04872H0.749996V2.98822C0.749996 2.69816 0.985121 2.46229 1.27406 2.46229ZM10.7259 11.0693H1.27406C0.985121 11.0693 0.749996 10.8342 0.749996 10.5452V4.42391H11.25V10.5452C11.25 10.8342 11.0149 11.0693 10.7259 11.0693Z" fill="#2563EB"/>
<path d="M6.00001 5.20575C4.01232 5.20575 2.45551 5.92969 2.45551 6.85369V8.64C2.45551 8.64263 2.45701 8.64488 2.45701 8.6475C2.46132 9.11494 2.86444 9.52988 3.51882 9.82594C3.52876 9.83138 3.53869 9.8355 3.54957 9.83888C4.18163 10.1181 5.03944 10.2883 5.99982 10.2883C6.96019 10.2883 7.81782 10.1181 8.45007 9.83888C8.46113 9.83532 8.47126 9.83119 8.48138 9.82575C9.13519 9.52988 9.53776 9.11532 9.54263 8.64825C9.54263 8.64525 9.54432 8.64282 9.54432 8.63982V6.8535C9.54432 5.9295 7.98732 5.20557 5.99982 5.20557L6.00001 5.20575ZM6.00001 5.58075C7.86788 5.58075 9.16951 6.25163 9.16951 6.85369C9.16951 7.45575 7.86788 8.12663 6.00001 8.12663C4.13213 8.12663 2.83051 7.45575 2.83051 6.85369C2.83051 6.25163 4.13213 5.58075 6.00001 5.58075ZM8.20651 8.15082V9.53382C7.86994 9.67107 7.45857 9.78225 6.98513 9.84788V8.43807C7.43757 8.37919 7.85026 8.28094 8.20651 8.15082ZM5.01507 8.43807V9.84788C4.54182 9.78244 4.13026 9.67107 3.79369 9.53382V8.15082C4.14976 8.28094 4.56244 8.37938 5.01507 8.43807ZM2.83144 8.64C2.83144 8.63869 2.83069 8.63757 2.83069 8.63644V7.59957C2.98538 7.74413 3.18338 7.87594 3.41888 7.99144V9.35194C3.04519 9.13538 2.83144 8.88244 2.83144 8.64ZM5.39007 9.88782V8.4765C5.58826 8.49188 5.79113 8.50163 6.00019 8.50163C6.20926 8.50163 6.41213 8.49188 6.61032 8.4765V9.88782C6.41457 9.90394 6.21151 9.91369 6.00019 9.91369C5.78888 9.91369 5.58582 9.90394 5.39007 9.88782ZM8.58151 9.35175V7.99125C8.81682 7.87575 9.01501 7.74394 9.16969 7.59938V8.63588C9.16969 8.63738 9.16894 8.6385 9.16894 8.64C9.16894 8.88244 8.95501 9.13538 8.58151 9.35175Z" fill="#2563EB"/>
</g>
<defs>
<clipPath id="clip0_413_7083">
<rect width="12" height="12" fill="white"/>
</clipPath>
</defs>
</svg>
