<svg width="24" height="24" viewBox="0 0 24 24" fill="none" xmlns="http://www.w3.org/2000/svg">
<g clip-path="url(#clip0_413_6491)">
<path d="M20.4119 17.3544L18.2183 19.548L17.2583 18.588C17.1167 18.4464 16.8887 18.4464 16.7495 18.588C16.6079 18.7296 16.6079 18.9576 16.7495 19.0968L17.9639 20.3112C18.0335 20.3808 18.1271 20.4168 18.2183 20.4168C18.3095 20.4168 18.4031 20.3808 18.4727 20.3112L20.9207 17.8632C21.0623 17.7216 21.0623 17.4936 20.9207 17.3544C20.7791 17.2152 20.5511 17.2152 20.4119 17.3544Z" fill="#2563EB"/>
<path d="M12.0001 0.839966C5.84649 0.839966 0.840088 5.84637 0.840088 12C0.840088 18.1536 5.84649 23.16 12.0001 23.16C13.4785 23.16 14.9113 22.872 16.2673 22.3104C17.0089 22.8576 17.9113 23.16 18.8353 23.16C21.2209 23.16 23.1601 21.2208 23.1601 18.8352C23.1601 17.9112 22.8577 17.0088 22.3105 16.2672C22.8721 14.9112 23.1601 13.4784 23.1601 12C23.1601 5.84637 18.1537 0.839966 12.0001 0.839966ZM12.0001 22.44C6.24249 22.44 1.56009 17.7576 1.56009 12C1.56009 6.24237 6.24249 1.55997 12.0001 1.55997C17.7577 1.55997 22.4401 6.24237 22.4401 12C22.4401 13.2648 22.2169 14.4936 21.7777 15.6648C21.7657 15.6528 21.7489 15.6432 21.7369 15.6312C21.6673 15.5688 21.5953 15.5064 21.5209 15.4488C21.4969 15.4296 21.4705 15.4104 21.4465 15.3912C21.3553 15.3216 21.2617 15.2544 21.1657 15.1944C21.1513 15.1848 21.1393 15.1776 21.1249 15.1704C21.0385 15.1152 20.9497 15.0648 20.8585 15.0168C20.8321 15.0024 20.8033 14.988 20.7769 14.9736C20.7745 14.9736 20.7745 14.9712 20.7721 14.9712C21.0937 14.0184 21.2593 13.02 21.2593 12.0048C21.2593 6.89997 17.1049 2.74557 12.0001 2.74557C6.89529 2.74557 2.74089 6.89517 2.74089 12C2.74089 17.1048 6.89529 21.2592 12.0001 21.2592C13.0177 21.2592 14.0137 21.0936 14.9665 20.772C14.9665 20.7744 14.9689 20.7768 14.9689 20.7768C14.9833 20.8032 14.9977 20.832 15.0121 20.8584C15.0625 20.952 15.1129 21.0408 15.1705 21.1296C15.1777 21.1416 15.1825 21.1512 15.1897 21.1632C15.2521 21.2616 15.3193 21.3552 15.3913 21.4488C15.4081 21.4704 15.4273 21.4944 15.4441 21.516C15.5065 21.5928 15.5689 21.6696 15.6361 21.744C15.6457 21.756 15.6553 21.768 15.6649 21.7776C14.4937 22.2168 13.2649 22.44 12.0001 22.44ZM19.8985 14.6424C19.8241 14.6232 19.7521 14.6064 19.6777 14.592C19.6345 14.5824 19.5913 14.5752 19.5481 14.568C19.4689 14.556 19.3873 14.544 19.3081 14.5368C19.2697 14.532 19.2313 14.5272 19.1953 14.5248C19.0777 14.5152 18.9577 14.5104 18.8377 14.5104C17.8681 14.5104 16.9729 14.8344 16.2505 15.3768C16.4305 15.0504 16.5337 14.676 16.5337 14.2752C16.5337 13.0176 15.5113 11.9952 14.2513 11.9952C12.9913 11.9952 11.9713 13.0176 11.9713 14.2752C11.9713 15.5328 12.9937 16.5576 14.2513 16.5576C14.6545 16.5576 15.0337 16.452 15.3625 16.2672C14.8273 16.9872 14.5081 17.8752 14.5081 18.8376C14.5081 18.9576 14.5129 19.0752 14.5225 19.1952C14.5249 19.2336 14.5321 19.272 14.5345 19.3104C14.5441 19.3896 14.5537 19.4688 14.5657 19.548C14.5729 19.5936 14.5825 19.6368 14.5897 19.6824C14.6041 19.7544 14.6209 19.8288 14.6377 19.9008C14.6497 19.9464 14.6593 19.9896 14.6737 20.0328C14.6809 20.0568 14.6857 20.0832 14.6929 20.1072C13.8241 20.3952 12.9193 20.5416 11.9953 20.5416C7.28649 20.5416 3.45609 16.7112 3.45609 12.0024C3.45609 7.29357 7.29129 3.46077 12.0001 3.46077C16.7089 3.46077 20.5393 7.29117 20.5393 12C20.5393 12.924 20.3929 13.8288 20.1049 14.6976C20.0809 14.6904 20.0545 14.6856 20.0281 14.6784C19.9849 14.664 19.9417 14.652 19.8985 14.6424ZM14.2513 15.8352C13.3897 15.8352 12.6913 15.1344 12.6913 14.2728C12.6913 13.4112 13.3921 12.7128 14.2513 12.7128C15.1105 12.7128 15.8137 13.4136 15.8137 14.2728C15.8137 15.132 15.1129 15.8352 14.2513 15.8352ZM18.8353 22.44C18.0025 22.44 17.1913 22.1496 16.5481 21.6216C16.0825 21.24 15.7153 20.7432 15.4897 20.1888L15.4489 20.088C15.3001 19.6872 15.2257 19.2672 15.2257 18.8352C15.2257 16.8456 16.8433 15.228 18.8329 15.228C19.2625 15.228 19.6849 15.3024 20.0833 15.4488C20.1193 15.4632 20.1529 15.4752 20.1841 15.4872C20.7409 15.7152 21.2377 16.08 21.6193 16.5456C22.1473 17.1888 22.4377 18 22.4377 18.8328C22.4401 20.8224 20.8225 22.44 18.8353 22.44Z" fill="#2563EB"/>
<path d="M15.6768 7.79285L7.77124 15.6984C7.62964 15.84 7.62964 16.068 7.77124 16.2072C7.84084 16.2768 7.93444 16.3128 8.02564 16.3128C8.11684 16.3128 8.21044 16.2768 8.28004 16.2072L16.1856 8.30165C16.3272 8.16005 16.3272 7.93205 16.1856 7.79285C16.0464 7.65125 15.8184 7.65125 15.6768 7.79285Z" fill="#2563EB"/>
<path d="M9.70554 12.0072C10.9631 12.0072 11.9855 10.9848 11.9855 9.72722C11.9855 8.46962 10.9631 7.44482 9.70554 7.44482C8.44794 7.44482 7.42554 8.46722 7.42554 9.72722C7.42554 10.9872 8.44554 12.0072 9.70554 12.0072ZM9.70554 8.16482C10.5671 8.16482 11.2655 8.86562 11.2655 9.72722C11.2655 10.5888 10.5647 11.2872 9.70554 11.2872C8.84634 11.2872 8.14554 10.5864 8.14554 9.72722C8.14554 8.86802 8.84394 8.16482 9.70554 8.16482Z" fill="#2563EB"/>
</g>
<defs>
<clipPath id="clip0_413_6491">
<rect width="24" height="24" fill="white"/>
</clipPath>
</defs>
</svg>
