<svg width="24" height="24" viewBox="0 0 24 24" fill="none" xmlns="http://www.w3.org/2000/svg">
<g clip-path="url(#clip0_27_62)">
<path d="M7.91209 12.8714H5.58501V17.4221H7.91209V12.8714Z" fill="black"/>
<path d="M7.91209 5.16612H5.58501V12.044H7.91209V5.16612Z" fill="black"/>
<path d="M2.32708 12.8714H0V17.4221H2.32708V12.8714Z" fill="black"/>
<path d="M2.32708 9.30316H0V12.044H2.32708V9.30316Z" fill="black"/>
<path d="M11.17 12.8714V17.4221H11.3562C11.4286 15.7052 12.1474 14.0815 13.3626 12.8714H11.17Z" fill="black"/>
<path d="M18.0892 11.7699C14.8261 11.7699 12.1784 14.4176 12.1784 17.6807C12.1784 20.9438 14.8261 23.5915 18.0892 23.5915C21.3523 23.5915 24 20.9438 24 17.6807C23.9948 14.4176 21.3471 11.7751 18.0892 11.7699ZM22.1332 19.6458C22.1332 20.4473 21.4867 21.0937 20.6852 21.0937H15.5139C14.7123 21.0937 14.0659 20.4473 14.0659 19.6458V15.7156C14.0659 14.914 14.7123 14.2676 15.5139 14.2676H20.6852C21.4867 14.2676 22.1332 14.914 22.1332 15.7156V19.6458Z" fill="black"/>
<path d="M13.4971 2.78732H11.17V12.0439H13.4971V2.78732Z" fill="black"/>
<path d="M16.755 0.408539V11.0718C17.1894 10.989 17.6341 10.9425 18.0789 10.9425C18.4305 10.9425 18.7822 10.9735 19.1338 11.0252V0.408539H16.755Z" fill="black"/>
<path d="M19.8423 17.1118C19.8009 17.1067 19.7595 17.1377 19.7544 17.1791C19.7544 17.1842 19.7544 17.1946 19.7544 17.1997V18.203C19.7492 18.2495 19.7854 18.2961 19.8319 18.3012C19.8371 18.3012 19.8371 18.3012 19.8423 18.3012H21.3058V17.1118H19.8423Z" fill="black"/>
<path d="M18.9218 17.1997C18.9166 16.6981 19.32 16.2896 19.8216 16.2844C19.8268 16.2844 19.8319 16.2844 19.8423 16.2844H21.3058V15.7311C21.3058 15.3846 21.0317 15.1002 20.6852 15.095H15.5139C15.1674 15.1002 14.8933 15.3846 14.8882 15.7311V19.6613C14.8933 19.9974 15.1674 20.2715 15.5036 20.2715H15.5087H20.68C21.0162 20.2767 21.2954 20.0078 21.3006 19.6716V19.6664V19.1286H19.8371C19.3303 19.1286 18.9218 18.7201 18.9218 18.2133C18.9218 18.2081 18.9218 18.2081 18.9218 18.203V17.1997Z" fill="black"/>
</g>
<defs>
<clipPath id="clip0_27_62">
<rect width="24" height="24" fill="white"/>
</clipPath>
</defs>
</svg>
