<svg width="24" height="24" viewBox="0 0 24 24" fill="none" xmlns="http://www.w3.org/2000/svg">
<path fill-rule="evenodd" clip-rule="evenodd" d="M17.4763 16.8708C17.6791 16.8708 17.8774 16.8106 18.0461 16.6979C18.2148 16.5851 18.3462 16.4249 18.4238 16.2375C18.5015 16.0501 18.5218 15.8438 18.4822 15.6449C18.4426 15.4459 18.3449 15.2631 18.2015 15.1197C18.058 14.9762 17.8752 14.8785 17.6763 14.8389C17.4773 14.7993 17.2711 14.8196 17.0836 14.8972C16.8962 14.9748 16.736 15.1063 16.6232 15.275C16.5105 15.4436 16.4503 15.6419 16.4503 15.8448C16.4506 16.1168 16.5588 16.3776 16.7511 16.57C16.9434 16.7623 17.2042 16.8705 17.4763 16.8708ZM17.4763 17.5468C17.7812 17.5465 18.0804 17.4645 18.3428 17.3091C18.6051 17.1538 18.821 16.9309 18.9678 16.6637C18.8345 17.0154 18.7806 17.3923 18.8099 17.7673C18.8392 18.1423 18.951 18.5063 19.1372 18.8331C19.1049 18.8369 19.0735 18.8413 19.0409 18.8441L15.7387 18.8296C15.1387 18.7519 14.7015 18.4883 14.4393 18.0465C14.0112 17.3237 14.0502 16.1099 14.5407 14.8786C14.8377 14.1346 15.292 13.4794 15.9274 12.8788H18.9631C19.5818 13.4051 20.1425 14.2522 20.48 15.1641C19.8757 15.3881 19.3773 15.8305 19.0831 16.4039C19.2016 16.0631 19.2087 15.6935 19.1033 15.3484C18.9979 15.0033 18.7856 14.7006 18.4969 14.4841C18.2083 14.2675 17.8583 14.1484 17.4975 14.1438C17.1367 14.1392 16.7838 14.2495 16.4897 14.4586C16.1957 14.6677 15.9757 14.9649 15.8616 15.3073C15.7476 15.6496 15.7452 16.0193 15.855 16.363C15.9648 16.7067 16.1811 17.0067 16.4725 17.2194C16.7639 17.4322 17.1154 17.5468 17.4763 17.5468ZM21.364 15.6825C20.991 15.6825 20.6263 15.7931 20.3161 16.0003C20.0059 16.2075 19.7641 16.5021 19.6213 16.8467C19.4785 17.1914 19.4411 17.5706 19.5138 17.9365C19.5865 18.3024 19.7661 18.6385 20.0299 18.9023C20.2936 19.1662 20.6297 19.3458 20.9956 19.4187C21.3615 19.4915 21.7407 19.4542 22.0854 19.3115C22.4301 19.1687 22.7247 18.927 22.932 18.6169C23.1393 18.3067 23.25 17.942 23.25 17.569C23.2495 17.0689 23.0506 16.5894 22.6971 16.2358C22.3435 15.8821 21.8641 15.6832 21.364 15.6825ZM20.9956 17.8143L21.0058 17.8181C21.1253 17.8591 21.2488 17.8874 21.3742 17.9025C21.5514 17.929 21.6162 17.9425 21.6871 18.028C21.7325 18.0821 21.7194 18.1154 21.7146 18.128C21.6968 18.1724 21.6325 18.2303 21.5084 18.2467C21.4634 18.252 21.0686 18.295 20.9994 17.9952C20.9788 17.9084 20.9247 17.8333 20.8489 17.7863C20.7731 17.7392 20.6818 17.7241 20.5949 17.7441C20.5079 17.7641 20.4325 17.8177 20.3849 17.8931C20.3373 17.9685 20.3215 18.0597 20.3408 18.1468C20.3808 18.3202 20.4669 18.4795 20.59 18.608C20.7132 18.7364 20.8687 18.8292 21.0402 18.8766V18.9625C21.0413 19.0514 21.0773 19.1364 21.1406 19.1989C21.2039 19.2615 21.2893 19.2966 21.3783 19.2966C21.4672 19.2966 21.5526 19.2615 21.6159 19.1989C21.6792 19.1364 21.7153 19.0514 21.7163 18.9625V18.8944C22.0123 18.8225 22.2426 18.6341 22.344 18.3749C22.3939 18.2447 22.4076 18.1035 22.3834 17.9662C22.3593 17.829 22.2983 17.7008 22.207 17.5956C21.9679 17.3083 21.6825 17.2653 21.4744 17.2346C21.3965 17.2256 21.3196 17.2093 21.2447 17.1859C21.2072 17.1699 21.1087 17.1226 21.1095 17.0589C21.1105 17.012 21.1564 16.9483 21.2428 16.916C21.5001 16.8208 21.6639 16.9763 21.7314 17.154C21.7468 17.1959 21.7704 17.2343 21.8008 17.267C21.8312 17.2997 21.8677 17.3261 21.9083 17.3446C21.9489 17.3631 21.9928 17.3734 22.0374 17.3748C22.082 17.3763 22.1265 17.3689 22.1682 17.3531C22.21 17.3373 22.2482 17.3134 22.2806 17.2827C22.313 17.252 22.3391 17.2153 22.3572 17.1745C22.3754 17.1337 22.3853 17.0897 22.3864 17.0451C22.3874 17.0005 22.3796 16.9561 22.3635 16.9145C22.2393 16.5871 22.0025 16.3602 21.7166 16.2636V16.1752C21.7166 16.0856 21.681 15.9997 21.6176 15.9363C21.5542 15.8729 21.4683 15.8373 21.3787 15.8373C21.289 15.8373 21.2031 15.8729 21.1397 15.9363C21.0763 15.9997 21.0407 16.0856 21.0407 16.1752V16.2709L21.0084 16.282C20.6646 16.41 20.4392 16.7107 20.4338 17.0487C20.4292 17.3833 20.6385 17.6694 20.9956 17.8143ZM15.5401 12.2038L19.3957 12.2028L19.3946 11.9251L15.5415 11.9257L15.5401 12.2038ZM16.615 11.2497H18.3714C18.6742 11.1154 19.0417 10.8364 19.0875 10.0329C18.3946 10.311 17.8747 10.1339 17.5343 9.89822C17.0374 10.1947 16.5309 10.2521 16.053 10.067C16.0887 10.6633 16.2736 11.0516 16.615 11.2497ZM17.247 9.28092C17.3409 9.2199 17.4515 9.18967 17.5634 9.19443C17.6753 9.19918 17.7829 9.23869 17.8713 9.30745C17.9591 9.38079 18.0612 9.43517 18.171 9.46716C18.2809 9.49916 18.3962 9.50808 18.5096 9.49336V5.39437L17.4026 4.54504L16.2954 5.39437V9.43617C16.5986 9.55443 16.9043 9.50395 17.247 9.28092ZM13.3278 17.7008V7.93743L12.2208 7.08811L11.1136 7.93743V17.7008H13.3278ZM8.14603 17.7008V10.9938L7.03903 10.1445L5.9318 10.9938V17.7008H8.14603ZM2.96428 17.7008V13.6513L1.85723 12.802L0.75 13.6513V17.7008H2.96428Z" fill="black"/>
</svg>
