<svg width="24" height="24" viewBox="0 0 24 24" fill="none" xmlns="http://www.w3.org/2000/svg">
<path d="M12 2C8.84277 2 6.27437 4.5688 6.27437 7.726V10.4808H6.02997C5.22957 10.4808 4.57837 11.132 4.57837 11.9324V20.5484C4.57837 21.3488 5.22957 22 6.02997 22H17.9708C18.7712 22 19.4224 21.3488 19.4224 20.5484V11.9324C19.4224 11.132 18.7712 10.4808 17.9708 10.4808H17.7264V7.726C17.7256 4.5688 15.1572 2 12 2ZM7.07437 7.726C7.07437 5.0096 9.28397 2.8 12 2.8C14.716 2.8 16.9256 5.0096 16.9256 7.726V10.4808H15.9256V7.726C15.9256 5.5612 14.1648 3.8004 12 3.8004C9.83517 3.8004 8.07437 5.5616 8.07437 7.726V10.4808H7.07437V7.726ZM15.1256 7.726V10.4808H8.87437V7.726C8.87437 6.0024 10.2768 4.6004 12 4.6004C13.7232 4.6004 15.1256 6.0024 15.1256 7.726ZM17.9704 11.2808C18.3296 11.2808 18.622 11.5732 18.622 11.9324V20.5484C18.622 20.9076 18.33 21.2 17.9704 21.2H6.02957C5.67037 21.2 5.37797 20.908 5.37797 20.5484V11.9324C5.37797 11.5732 5.66997 11.2808 6.02957 11.2808H6.67397H8.47397H15.5256H17.3256H17.9704Z" fill="#2563EB"/>
<path d="M14.3392 13.0376C14.1608 12.9068 13.9108 12.9468 13.7804 13.1248L9.57403 18.8844C9.44403 19.0628 9.48243 19.3128 9.66123 19.4432C9.73243 19.4952 9.81523 19.52 9.89683 19.52C10.0204 19.52 10.1416 19.4628 10.2204 19.356L14.4268 13.5964C14.5564 13.418 14.5176 13.168 14.3392 13.0376Z" fill="#2563EB"/>
<path d="M11.4057 14.3136C11.4057 13.374 10.7685 12.6096 9.98525 12.6096C9.20205 12.6096 8.56445 13.374 8.56445 14.3136C8.56445 15.2532 9.20205 16.0172 9.98525 16.0172C10.7685 16.0172 11.4057 15.2532 11.4057 14.3136ZM9.36445 14.3136C9.36445 13.8236 9.64885 13.4096 9.98525 13.4096C10.3217 13.4096 10.6057 13.8236 10.6057 14.3136C10.6057 14.8036 10.3217 15.2172 9.98525 15.2172C9.64885 15.2172 9.36445 14.8036 9.36445 14.3136Z" fill="#2563EB"/>
<path d="M14.0149 16.4633C13.2317 16.4633 12.5945 17.2277 12.5945 18.1673C12.5945 19.1069 13.2317 19.8713 14.0149 19.8713C14.7981 19.8713 15.4353 19.1069 15.4353 18.1673C15.4353 17.2277 14.7981 16.4633 14.0149 16.4633ZM14.0149 19.0713C13.6785 19.0713 13.3945 18.6573 13.3945 18.1673C13.3945 17.6773 13.6785 17.2633 14.0149 17.2633C14.3513 17.2633 14.6353 17.6773 14.6353 18.1673C14.6353 18.6573 14.3513 19.0713 14.0149 19.0713Z" fill="#2563EB"/>
</svg>
