<svg width="24" height="24" viewBox="0 0 24 24" fill="none" xmlns="http://www.w3.org/2000/svg">
<g clip-path="url(#clip0_27_2)">
<path d="M14.2969 14.6756C15.4003 13.8081 16.2058 12.6182 16.6014 11.2716C16.997 9.92486 16.9629 8.48835 16.5039 7.16193C16.0449 5.83551 15.1839 4.68516 14.0406 3.87096C12.8973 3.05676 11.5286 2.61922 10.125 2.61922C8.72142 2.61922 7.35274 3.05676 6.20944 3.87096C5.06614 4.68516 4.20508 5.83551 3.7461 7.16193C3.28712 8.48835 3.25304 9.92486 3.64861 11.2716C4.04418 12.6182 4.84972 13.8081 5.95313 14.6756C4.17865 15.3992 2.61058 16.5502 1.38844 18.0262C1.19649 18.2547 1.10317 18.5501 1.12902 18.8474C1.15486 19.1448 1.29775 19.4196 1.52625 19.6116C1.75475 19.8035 2.05015 19.8968 2.34745 19.871C2.64475 19.8451 2.91961 19.7022 3.11156 19.4737C4.395 17.9456 6.65625 16.125 10.125 16.125C13.5938 16.125 15.855 17.9456 17.1384 19.4737C17.3304 19.7022 17.6053 19.8451 17.9026 19.871C18.1999 19.8968 18.4953 19.8035 18.7238 19.6116C18.9523 19.4196 19.0951 19.1448 19.121 18.8474C19.1468 18.5501 19.0535 18.2547 18.8616 18.0262C17.6397 16.5499 16.0716 15.3988 14.2969 14.6756ZM5.625 9.375C5.625 8.48498 5.88892 7.61495 6.38339 6.87493C6.87786 6.13491 7.58066 5.55814 8.40293 5.21754C9.22519 4.87695 10.13 4.78783 11.0029 4.96147C11.8758 5.1351 12.6776 5.56368 13.307 6.19302C13.9363 6.82235 14.3649 7.62418 14.5385 8.49709C14.7122 9.37001 14.6231 10.2748 14.2825 11.0971C13.9419 11.9193 13.3651 12.6221 12.6251 13.1166C11.885 13.6111 11.015 13.875 10.125 13.875C8.93191 13.8738 7.78804 13.3993 6.94439 12.5556C6.10075 11.712 5.62624 10.5681 5.625 9.375ZM23.6709 12.7959L20.6709 15.7959C20.5664 15.9008 20.4422 15.984 20.3055 16.0408C20.1687 16.0976 20.0221 16.1268 19.8741 16.1268C19.726 16.1268 19.5794 16.0976 19.4426 16.0408C19.3059 15.984 19.1817 15.9008 19.0772 15.7959L17.5772 14.2959C17.3658 14.0846 17.2471 13.7979 17.2471 13.4991C17.2471 13.2002 17.3658 12.9135 17.5772 12.7022C17.7885 12.4908 18.0752 12.3721 18.3741 12.3721C18.673 12.3721 18.9596 12.4908 19.1709 12.7022L19.875 13.4062L22.0791 11.2012C22.1837 11.0966 22.3079 11.0136 22.4447 10.957C22.5814 10.9003 22.7279 10.8712 22.8759 10.8712C23.0239 10.8712 23.1705 10.9003 23.3072 10.957C23.4439 11.0136 23.5682 11.0966 23.6728 11.2012C23.7775 11.3059 23.8605 11.4301 23.9171 11.5669C23.9737 11.7036 24.0029 11.8501 24.0029 11.9981C24.0029 12.1461 23.9737 12.2927 23.9171 12.4294C23.8605 12.5661 23.7775 12.6904 23.6728 12.795L23.6709 12.7959Z" fill="black"/>
</g>
<defs>
<clipPath id="clip0_27_2">
<rect width="24" height="24" fill="white"/>
</clipPath>
</defs>
</svg>
