<svg width="24" height="24" viewBox="0 0 24 24" fill="none" xmlns="http://www.w3.org/2000/svg">
<path d="M19.5459 6.04406L6.04594 19.5441C5.9413 19.6487 5.81706 19.7317 5.68034 19.7884C5.54361 19.845 5.39706 19.8741 5.24907 19.8741C5.10108 19.8741 4.95453 19.845 4.8178 19.7884C4.68108 19.7317 4.55684 19.6487 4.45219 19.5441C4.34755 19.4394 4.26454 19.3152 4.2079 19.1785C4.15127 19.0417 4.12212 18.8952 4.12212 18.7472C4.12212 18.5992 4.15127 18.4526 4.2079 18.3159C4.26454 18.1792 4.34755 18.055 4.45219 17.9503L17.9522 4.45031C18.1635 4.23897 18.4502 4.12024 18.7491 4.12024C19.048 4.12024 19.3346 4.23897 19.5459 4.45031C19.7573 4.66166 19.876 4.9483 19.876 5.24719C19.876 5.54607 19.7573 5.83272 19.5459 6.04406ZM4.47376 9.77531C3.8606 9.16153 3.47923 8.35414 3.39462 7.4907C3.31001 6.62726 3.52741 5.7612 4.00976 5.04007C4.49212 4.31895 5.20959 3.78738 6.03993 3.53594C6.87027 3.2845 7.76211 3.32875 8.56349 3.66115C9.36486 3.99354 10.0262 4.59352 10.4348 5.35885C10.8434 6.12418 10.974 7.00751 10.8043 7.85833C10.6347 8.70916 10.1753 9.47483 9.50436 10.0249C8.83346 10.575 7.99258 10.8754 7.12501 10.875C6.63231 10.8762 6.14427 10.7796 5.68917 10.5909C5.23407 10.4021 4.82095 10.1249 4.47376 9.77531ZM5.62501 7.125C5.62485 7.47204 5.74503 7.8084 5.96507 8.07677C6.18511 8.34513 6.4914 8.5289 6.83174 8.59675C7.17208 8.6646 7.52542 8.61234 7.83156 8.44887C8.13769 8.2854 8.37767 8.02084 8.5106 7.70027C8.64353 7.3797 8.6612 7.02295 8.56058 6.69081C8.45997 6.35868 8.2473 6.0717 7.95881 5.87879C7.67033 5.68588 7.32388 5.59897 6.9785 5.63287C6.63311 5.66677 6.31017 5.81937 6.06469 6.06469C5.92484 6.2035 5.81396 6.36872 5.73848 6.55073C5.663 6.73275 5.62443 6.92795 5.62501 7.125ZM20.625 16.875C20.625 17.7426 20.3241 18.5833 19.7738 19.2539C19.2234 19.9245 18.4575 20.3835 17.6066 20.5528C16.7558 20.7221 15.8725 20.5911 15.1074 20.1821C14.3423 19.7732 13.7426 19.1116 13.4105 18.3101C13.0785 17.5086 13.0346 16.6168 13.2864 15.7866C13.5382 14.9564 14.07 14.2391 14.7913 13.7571C15.5126 13.275 16.3787 13.058 17.2421 13.1429C18.1055 13.2278 18.9127 13.6095 19.5263 14.2228C19.8758 14.5702 20.153 14.9835 20.3416 15.4387C20.5302 15.894 20.6265 16.3822 20.625 16.875ZM18.375 16.875C18.3757 16.6778 18.3372 16.4824 18.2617 16.3002C18.1862 16.118 18.0753 15.9527 17.9353 15.8137C17.6899 15.5685 17.367 15.4159 17.0216 15.3819C16.6763 15.348 16.3299 15.4349 16.0414 15.6277C15.7529 15.8206 15.5402 16.1075 15.4395 16.4395C15.3389 16.7716 15.3564 17.1283 15.4892 17.4489C15.6221 17.7695 15.8619 18.0341 16.1679 18.1977C16.474 18.3612 16.8272 18.4136 17.1676 18.3459C17.5079 18.2783 17.8143 18.0947 18.0344 17.8265C18.2546 17.5583 18.375 17.222 18.375 16.875Z" fill="black"/>
</svg>
