<svg width="24" height="24" viewBox="0 0 24 24" fill="none" xmlns="http://www.w3.org/2000/svg">
<g clip-path="url(#clip0_413_6417)">
<path fill-rule="evenodd" clip-rule="evenodd" d="M-0.00415039 20.3016V5.7983C-0.00415039 4.41749 1.11504 3.2976 2.49606 3.2976H21.4938C22.8741 3.2976 23.9933 4.41749 23.9933 5.7983V20.3016C23.9933 21.6825 22.8741 22.8018 21.4938 22.8018H2.49606C1.11504 22.8018 -0.00415039 21.6825 -0.00415039 20.3016ZM22.9937 7.29885V5.7983C22.9937 4.96981 22.322 4.29832 21.4938 4.29832H2.49606C1.66716 4.29832 0.996217 4.96981 0.996217 5.7983V7.29885H22.9937ZM0.996217 8.29902V20.3016C0.996217 21.1301 1.66716 21.8016 2.49606 21.8016H21.4938C22.322 21.8016 22.9937 21.1301 22.9937 20.3016V8.29902H0.996217ZM3.49572 19.8013V10.7997C3.49572 10.523 3.71984 10.2994 3.9959 10.2994H19.994C20.27 10.2994 20.4935 10.523 20.4935 10.7997V19.8013C20.4935 20.0774 20.27 20.3016 19.994 20.3016H3.9959C3.71984 20.3016 3.49572 20.0774 3.49572 19.8013ZM6.18946 11.2995C5.15138 11.2995 4.49537 11.2995 4.49537 11.2995V12.9943C5.33637 12.8029 5.99877 12.1404 6.18946 11.2995ZM16.7823 11.2995C14.0693 11.2995 9.91985 11.2995 7.2069 11.2995C6.99132 12.6933 5.8892 13.7963 4.49537 14.012V16.589C5.8892 16.8047 6.99132 17.9071 7.2069 19.3015H16.7823C16.9979 17.9071 18.1 16.8047 19.4938 16.589V14.012C18.1 13.7963 16.9979 12.6933 16.7823 11.2995ZM19.4938 12.9943V11.2995C19.4938 11.2995 18.8378 11.2995 17.7997 11.2995C17.9911 12.1404 18.6535 12.8029 19.4938 12.9943ZM17.7997 19.3015H19.4938V17.6067C18.6535 17.7981 17.9911 18.4606 17.7997 19.3015ZM4.49537 17.6067V19.3015H6.18946C5.99877 18.4606 5.33637 17.7981 4.49537 17.6067ZM11.9946 12.5499C13.5122 12.5499 14.7445 13.7822 14.7445 15.3002C14.7445 16.8183 13.5122 18.0511 11.9946 18.0511C10.477 18.0511 9.24464 16.8183 9.24464 15.3002C9.24464 13.7822 10.477 12.5499 11.9946 12.5499ZM11.9946 13.5501C11.0291 13.5501 10.245 14.3345 10.245 15.3002C10.245 16.2665 11.0291 17.051 11.9946 17.051C12.9601 17.051 13.7442 16.2665 13.7442 15.3002C13.7442 14.3345 12.9601 13.5501 11.9946 13.5501ZM4.24564 2.29741C3.96958 2.29741 3.74545 2.07378 3.74545 1.79762C3.74545 1.52146 3.96958 1.29724 4.24564 1.29724H7.74551C8.02086 1.29724 8.24498 1.52146 8.24498 1.79762C8.24498 2.07378 8.02086 2.29741 7.74551 2.29741H4.24564ZM16.2444 2.29741C15.9683 2.29741 15.7442 2.07378 15.7442 1.79762C15.7442 1.52146 15.9683 1.29724 16.2444 1.29724H19.7435C20.0196 1.29724 20.2437 1.52146 20.2437 1.79762C20.2437 2.07378 20.0196 2.29741 19.7435 2.29741H16.2444Z" fill="#2563EB"/>
</g>
<defs>
<clipPath id="clip0_413_6417">
<rect width="24" height="24" fill="white"/>
</clipPath>
</defs>
</svg>
