<svg width="24" height="24" viewBox="0 0 24 24" fill="none" xmlns="http://www.w3.org/2000/svg">
<path d="M10.5001 21.0001C5.53884 21.0001 1.50009 16.9613 1.50009 12.0001C1.50009 10.3463 1.95384 8.7263 2.80884 7.32005L2.16759 6.93005C1.23759 8.45255 0.746338 10.2076 0.746338 12.0001C0.746338 17.3776 5.11884 21.7501 10.4963 21.7501C11.9888 21.7501 13.4176 21.4201 14.7413 20.7751L14.4113 20.1001C13.1926 20.6963 11.8726 21.0001 10.4963 21.0001H10.5001Z" fill="#2563EB"/>
<path d="M10.5 3C15.4613 3 19.5 7.03875 19.5 12V12.12H20.25V12C20.25 6.6225 15.8775 2.25 10.5 2.25C8.17501 2.25 5.92501 3.0825 4.16626 4.59L4.65376 5.16C6.27751 3.76875 8.35501 3 10.5 3Z" fill="#2563EB"/>
<path d="M3.9037 5.88L3.35245 5.37C3.10495 5.64 2.8912 5.895 2.69995 6.15L3.3037 6.59625C3.4762 6.36375 3.67495 6.1275 3.9037 5.87625V5.88Z" fill="#2563EB"/>
<path d="M18.7499 12.75C17.4037 12.75 16.1999 13.3463 15.3749 14.2838V10.875H15.7499C15.9562 10.875 16.1249 10.7063 16.1249 10.5V9.00003C16.1249 8.79378 15.9562 8.62503 15.7499 8.62503H12.8849L13.2149 8.29503C13.6537 7.85628 13.6537 7.14378 13.2149 6.70503C12.7799 6.28128 12.0524 6.28503 11.6287 6.70503L10.5037 7.83003L9.37866 6.70503C8.95491 6.28128 8.23116 6.27378 7.78866 6.70503C7.34991 7.14378 7.34991 7.85628 7.78866 8.29128L8.11866 8.62128H5.25366C5.04741 8.62128 4.87866 8.79003 4.87866 8.99628V10.4963C4.87866 10.7025 5.04741 10.8713 5.25366 10.8713H5.62866V17.2463C5.62866 17.4525 5.79741 17.6213 6.00366 17.6213H14.2724C14.4637 19.9275 16.3987 21.7463 18.7537 21.7463C21.2362 21.7463 23.2537 19.7288 23.2537 17.2463C23.2537 14.7638 21.2362 12.7463 18.7537 12.7463L18.7499 12.75ZM14.6249 15.4575C14.4337 15.9 14.3099 16.3763 14.2687 16.875H11.6249V10.875H14.6249V15.4575ZM10.8749 10.875V16.875H10.1249V10.875H10.8749ZM12.1574 7.23753C12.2999 7.09503 12.5437 7.09503 12.6899 7.23753C12.8362 7.38378 12.8362 7.62003 12.6899 7.76628L11.8274 8.62878H10.7662L12.1574 7.24128V7.23753ZM8.31366 7.76628C8.16741 7.62003 8.16741 7.38378 8.31366 7.24128C8.46366 7.09503 8.70366 7.09503 8.84991 7.24128L10.2412 8.62878H9.17991L8.31741 7.76628H8.31366ZM5.62491 9.37878H15.3749V10.1288H5.62491V9.37878ZM6.37491 10.8788H9.37491V16.8788H6.37491V10.8788ZM18.7499 21.0038C16.6837 21.0038 14.9999 19.32 14.9999 17.2538C14.9999 15.1875 16.6837 13.5038 18.7499 13.5038C20.8162 13.5038 22.4999 15.1875 22.4999 17.2538C22.4999 19.32 20.8162 21.0038 18.7499 21.0038Z" fill="#2563EB"/>
<path d="M16.6074 18.8601L20.3563 15.1112L20.8865 15.6415L17.1377 19.3904L16.6074 18.8601Z" fill="#2563EB"/>
<path d="M17.625 17.25C18.2437 17.25 18.75 16.7437 18.75 16.125C18.75 15.5063 18.2437 15 17.625 15C17.0063 15 16.5 15.5063 16.5 16.125C16.5 16.7437 17.0063 17.25 17.625 17.25ZM17.625 15.75C17.8313 15.75 18 15.9187 18 16.125C18 16.3313 17.8313 16.5 17.625 16.5C17.4187 16.5 17.25 16.3313 17.25 16.125C17.25 15.9187 17.4187 15.75 17.625 15.75Z" fill="#2563EB"/>
<path d="M19.875 17.25C19.2563 17.25 18.75 17.7563 18.75 18.375C18.75 18.9937 19.2563 19.5 19.875 19.5C20.4937 19.5 21 18.9937 21 18.375C21 17.7563 20.4937 17.25 19.875 17.25ZM19.875 18.75C19.6687 18.75 19.5 18.5813 19.5 18.375C19.5 18.1687 19.6687 18 19.875 18C20.0813 18 20.25 18.1687 20.25 18.375C20.25 18.5813 20.0813 18.75 19.875 18.75Z" fill="#2563EB"/>
<path d="M10.5 3.75V4.5C14.6362 4.5 18 7.86375 18 12H18.75C18.75 7.45125 15.0488 3.75 10.5 3.75Z" fill="#2563EB"/>
<path d="M2.25 12C2.25 16.5488 5.95125 20.25 10.5 20.25V19.5C6.36375 19.5 3 16.1362 3 12H2.25Z" fill="#2563EB"/>
</svg>
