<svg width="24" height="24" viewBox="0 0 24 24" fill="none" xmlns="http://www.w3.org/2000/svg">
<path fill-rule="evenodd" clip-rule="evenodd" d="M15.75 6.38813C14.6775 5.66925 13.3875 5.25 12 5.25C8.38124 5.25 5.42249 8.10413 5.25749 11.682L4.65746 12.2831C4.07621 12.8633 3.74999 13.6504 3.74999 14.4709V18.75H2.99999C2.69624 18.75 2.42245 18.9326 2.3062 19.2131C2.18995 19.4933 2.25377 19.8158 2.47127 20.0303L5.47127 23.0303C5.76377 23.3231 6.2362 23.3231 6.5287 23.0303L9.5287 20.0303C9.7462 19.8158 9.81002 19.4933 9.69377 19.2131C9.57752 18.9326 9.30374 18.75 8.99999 18.75H8.24623L8.23497 17.6029C9.31122 18.327 10.6087 18.75 12 18.75C15.6187 18.75 18.5775 15.8959 18.7425 12.318L19.3425 11.7169C19.9238 11.1368 20.25 10.3496 20.25 9.52913V5.25H21C21.3037 5.25 21.5775 5.06738 21.6938 4.78688C21.81 4.50675 21.7462 4.18425 21.5287 3.96975L18.5287 0.969752C18.2362 0.676877 17.7638 0.676877 17.4713 0.969752L14.4713 3.96975C14.25 4.18838 14.19 4.51913 14.3137 4.80225C14.4375 5.08538 14.7225 5.26275 15.0338 5.24925L15.75 5.21775V6.38813ZM5.46001 13.6789C5.32501 13.9178 5.24999 14.1904 5.24999 14.4709V19.5C5.24999 19.8218 5.04747 20.0959 4.76247 20.2024L5.99999 21.4395L7.2375 20.2024C6.95625 20.0966 6.75374 19.8251 6.74999 19.5056L6.72746 16.2113C6.13871 15.4766 5.70001 14.6168 5.46001 13.6789ZM8.03996 15.4463C7.23746 14.5238 6.74999 13.3181 6.74999 12C6.74999 9.10238 9.10124 6.75 12 6.75C14.8987 6.75 17.25 9.10238 17.25 12C17.25 14.8976 14.8987 17.25 12 17.25C10.4212 17.25 9.00371 16.5514 8.03996 15.4463ZM13.875 7.875H10.125C9.71249 7.875 9.37499 8.211 9.37499 8.625C9.37499 9.039 9.71249 9.375 10.125 9.375H11.25C11.7412 9.375 12.1575 9.68813 12.3113 10.125H10.125C9.71249 10.125 9.37499 10.461 9.37499 10.875C9.37499 11.289 9.71249 11.625 10.125 11.625H12.3113C12.1575 12.0619 11.7412 12.375 11.25 12.375C10.6425 12.375 10.125 12.375 10.125 12.375C9.82124 12.375 9.54745 12.5576 9.4312 12.8381C9.31495 13.1183 9.37877 13.4408 9.59627 13.6553L12.2213 16.2803C12.5138 16.5731 12.9862 16.5731 13.2787 16.2803C13.575 15.9878 13.575 15.5122 13.2787 15.2198L11.8649 13.8026C12.8999 13.5551 13.695 12.6938 13.8487 11.625H13.875C14.2875 11.625 14.625 11.289 14.625 10.875C14.625 10.461 14.2875 10.125 13.875 10.125H13.8487C13.8112 9.86025 13.7325 9.60825 13.6238 9.375H13.875C14.2875 9.375 14.625 9.039 14.625 8.625C14.625 8.211 14.2875 7.875 13.875 7.875ZM18.54 10.3211C18.675 10.0823 18.75 9.80963 18.75 9.52913V4.5C18.75 4.17825 18.9525 3.90413 19.2375 3.79763L18 2.5605L16.8113 3.75113C16.8863 3.78563 16.9574 3.83325 17.0174 3.8925C17.1674 4.03388 17.25 4.22963 17.25 4.43438V7.75913C17.85 8.50013 18.2962 9.37013 18.54 10.3211Z" fill="black"/>
</svg>
