<svg width="24" height="24" viewBox="0 0 24 24" fill="none" xmlns="http://www.w3.org/2000/svg">
<path d="M23.0963 5.30156C22.9342 5.2004 22.7491 5.14215 22.5584 5.13231C22.3676 5.12247 22.1775 5.16136 22.0059 5.24531C18.1172 7.1475 15.3122 6.24937 12.3431 5.29781C9.2325 4.30218 5.7075 3.17343 1.00594 5.47218C0.816565 5.56475 0.657009 5.70867 0.545456 5.88752C0.433902 6.06637 0.37484 6.27296 0.375 6.48375V17.7431C0.374855 17.9341 0.423331 18.122 0.515862 18.289C0.608393 18.4561 0.741933 18.5969 0.9039 18.6981C1.06587 18.7993 1.25093 18.8576 1.44165 18.8675C1.63238 18.8774 1.82248 18.8386 1.99406 18.7547C5.88281 16.8525 8.68781 17.7506 11.6569 18.7022C13.4222 19.2647 15.3206 19.875 17.4919 19.875C19.1475 19.875 20.9606 19.5216 22.9941 18.5278C23.1834 18.4352 23.343 18.2913 23.4545 18.1125C23.5661 17.9336 23.6252 17.727 23.625 17.5162V6.25687C23.6252 6.06584 23.5768 5.8779 23.4843 5.71077C23.3918 5.54363 23.2582 5.4028 23.0963 5.30156ZM21.375 16.7925C17.8125 18.3075 15.1491 17.4553 12.3431 16.5572C10.5778 15.9947 8.67937 15.3834 6.50812 15.3834C5.18517 15.3858 3.8722 15.6125 2.625 16.0537V7.2075C6.1875 5.6925 8.85094 6.54375 11.6569 7.44281C14.4 8.32125 17.4647 9.30281 21.375 7.94625V16.7925ZM12 9C11.4067 9 10.8266 9.17594 10.3333 9.50559C9.83994 9.83523 9.45542 10.3038 9.22836 10.8519C9.0013 11.4001 8.94189 12.0033 9.05764 12.5853C9.1734 13.1672 9.45912 13.7018 9.87868 14.1213C10.2982 14.5409 10.8328 14.8266 11.4147 14.9424C11.9967 15.0581 12.5999 14.9987 13.1481 14.7716C13.6962 14.5446 14.1648 14.1601 14.4944 13.6667C14.8241 13.1734 15 12.5933 15 12C14.9985 11.2048 14.682 10.4426 14.1197 9.88032C13.5574 9.31803 12.7952 9.00148 12 9ZM12 12.75C11.8517 12.75 11.7067 12.706 11.5833 12.6236C11.46 12.5412 11.3639 12.4241 11.3071 12.287C11.2503 12.15 11.2355 11.9992 11.2644 11.8537C11.2934 11.7082 11.3648 11.5746 11.4697 11.4697C11.5746 11.3648 11.7082 11.2933 11.8537 11.2644C11.9992 11.2355 12.15 11.2503 12.287 11.3071C12.4241 11.3639 12.5412 11.46 12.6236 11.5833C12.706 11.7067 12.75 11.8517 12.75 12C12.75 12.1989 12.671 12.3897 12.5303 12.5303C12.3897 12.671 12.1989 12.75 12 12.75ZM6 9.375V13.125C6 13.4234 5.88147 13.7095 5.6705 13.9205C5.45952 14.1315 5.17337 14.25 4.875 14.25C4.57663 14.25 4.29048 14.1315 4.0795 13.9205C3.86853 13.7095 3.75 13.4234 3.75 13.125V9.375C3.75 9.07663 3.86853 8.79048 4.0795 8.5795C4.29048 8.36852 4.57663 8.25 4.875 8.25C5.17337 8.25 5.45952 8.36852 5.6705 8.5795C5.88147 8.79048 6 9.07663 6 9.375ZM18 14.625V10.875C18 10.5766 18.1185 10.2905 18.3295 10.0795C18.5405 9.86852 18.8266 9.75 19.125 9.75C19.4234 9.75 19.7095 9.86852 19.9205 10.0795C20.1315 10.2905 20.25 10.5766 20.25 10.875V14.625C20.25 14.9234 20.1315 15.2095 19.9205 15.4205C19.7095 15.6315 19.4234 15.75 19.125 15.75C18.8266 15.75 18.5405 15.6315 18.3295 15.4205C18.1185 15.2095 18 14.9234 18 14.625Z" fill="black"/>
</svg>
