<svg width="24" height="24" viewBox="0 0 24 24" fill="none" xmlns="http://www.w3.org/2000/svg">
<g clip-path="url(#clip0_27_24)">
<path d="M5.78033 0.96967C6.07324 1.26256 6.07324 1.73743 5.78033 2.03033L3.31066 4.5H4.3125C4.72673 4.5 5.0625 4.83577 5.0625 5.25C5.0625 5.66422 4.72673 6 4.3125 6H1.5C1.08579 6 0.75 5.66422 0.75 5.25V2.4375C0.75 2.02329 1.08579 1.6875 1.5 1.6875C1.91421 1.6875 2.25 2.02329 2.25 2.4375V3.43934L4.71968 0.96967C5.01255 0.676777 5.48745 0.676777 5.78033 0.96967Z" fill="black"/>
<path fill-rule="evenodd" clip-rule="evenodd" d="M9.89062 10.875C9.89062 10.4608 9.55485 10.125 9.14062 10.125C8.7264 10.125 8.39062 10.4608 8.39062 10.875V11.0893H7.5C7.08578 11.0893 6.75 11.4251 6.75 11.8393V16.6607C6.75 17.0749 7.08578 17.4107 7.5 17.4107H8.39062V17.625C8.39062 18.0392 8.7264 18.375 9.14062 18.375C9.55485 18.375 9.89062 18.0392 9.89062 17.625V17.4107H10.0781C11.1593 17.4107 12 16.5152 12 15.4554C12 15.0052 11.8484 14.5848 11.5911 14.25C11.8484 13.9152 12 13.4948 12 13.0446C12 11.9848 11.1593 11.0893 10.0781 11.0893H9.89062V10.875ZM8.25 12.5893H10.0781C10.2913 12.5893 10.5 12.7731 10.5 13.0446C10.5 13.3162 10.2913 13.5 10.0781 13.5H8.25V12.5893ZM8.25 15H10.0781C10.2913 15 10.5 15.1838 10.5 15.4554C10.5 15.7269 10.2913 15.9107 10.0781 15.9107H8.25V15.4554V15Z" fill="black"/>
<path d="M8.22548 7.5975C5.86133 8.0031 3.91726 9.63832 3.07514 11.8213C2.89598 12.2857 3.26611 12.75 3.76384 12.75C4.10708 12.75 4.40416 12.5218 4.53792 12.2057C5.33509 10.3218 7.20068 9 9.37501 9C12.2745 9 14.625 11.3505 14.625 14.25C14.625 17.1495 12.2745 19.5 9.37501 19.5C6.95918 19.5 4.92443 17.8683 4.31284 15.6468C4.21219 15.2811 3.89652 15 3.51727 15C3.06318 15 2.70643 15.3966 2.81287 15.838C3.52704 18.7997 6.19407 21 9.37501 21C12.3503 21 14.876 19.075 15.7745 16.4025C18.9549 15.8568 21.375 13.086 21.375 9.75C21.375 8.58709 21.0809 7.49288 20.5631 6.53767C20.3385 6.12341 19.7832 6.08081 19.45 6.41404C19.1921 6.67192 19.1571 7.07329 19.3206 7.39927C19.6753 8.10649 19.875 8.90494 19.875 9.75C19.875 12.136 18.2833 14.1503 16.1038 14.7888C16.1178 14.6111 16.125 14.4314 16.125 14.25C16.125 10.6891 13.3677 7.77229 9.87173 7.518C10.7106 5.73458 12.5236 4.5 14.625 4.5C15.4232 4.5 16.1797 4.67813 16.8571 4.99676C17.1809 5.14905 17.5726 5.10945 17.8256 4.85644C18.1647 4.51732 18.1148 3.95104 17.6876 3.73315C16.7684 3.26436 15.7276 3 14.625 3C11.6497 3 9.12402 4.92503 8.22548 7.5975Z" fill="black"/>
<path d="M18.2197 21.9697C17.9268 22.2625 17.9268 22.7374 18.2197 23.0303C18.5125 23.3232 18.9874 23.3232 19.2803 23.0303L21.75 20.5606V21.5625C21.75 21.9767 22.0858 22.3125 22.5 22.3125C22.9142 22.3125 23.25 21.9767 23.25 21.5625V18.75C23.25 18.3358 22.9142 18 22.5 18H19.6875C19.2733 18 18.9375 18.3358 18.9375 18.75C18.9375 19.1642 19.2733 19.5 19.6875 19.5H20.6893L18.2197 21.9697Z" fill="black"/>
</g>
<defs>
<clipPath id="clip0_27_24">
<rect width="24" height="24" fill="white"/>
</clipPath>
</defs>
</svg>
