<svg width="24" height="24" viewBox="0 0 24 24" fill="none" xmlns="http://www.w3.org/2000/svg">
<path d="M12 7.125C9.31499 7.125 7.125 9.31499 7.125 12C7.125 14.685 9.31499 16.875 12 16.875C14.685 16.875 16.875 14.685 16.875 12C16.875 9.31499 14.685 7.125 12 7.125ZM12.75 11.625C13.3725 11.625 13.875 12.1275 13.875 12.75C13.875 13.3725 13.3725 13.875 12.75 13.875H12.375V14.25C12.375 14.46 12.21 14.625 12 14.625C11.79 14.625 11.625 14.46 11.625 14.25V13.875H10.5C10.29 13.875 10.125 13.71 10.125 13.5C10.125 13.29 10.29 13.125 10.5 13.125H11.625V12.375H11.25C10.6275 12.375 10.125 11.8725 10.125 11.25C10.125 10.6275 10.6275 10.125 11.25 10.125H11.625V9.75C11.625 9.53998 11.79 9.375 12 9.375C12.21 9.375 12.375 9.53998 12.375 9.75V10.125H13.5C13.71 10.125 13.875 10.29 13.875 10.5C13.875 10.71 13.71 10.875 13.5 10.875H12.375V11.625H12.75Z" fill="black"/>
<path d="M13.125 12.75C13.125 12.96 12.96 13.125 12.75 13.125H12.375V12.375H12.75C12.96 12.375 13.125 12.54 13.125 12.75Z" fill="black"/>
<path d="M11.625 10.875V11.625H11.25C11.04 11.625 10.875 11.46 10.875 11.25C10.875 11.04 11.04 10.875 11.25 10.875H11.625Z" fill="black"/>
<path d="M3.48486 19.7651L4.23441 20.5147L4.23532 20.5156L6.48486 22.7651C6.55811 22.8384 6.65405 22.875 6.75 22.875C6.84595 22.875 6.94189 22.8384 7.01514 22.7651L9.26468 20.5156L9.26559 20.5147L10.0151 19.7651C10.1616 19.6187 10.1616 19.3813 10.0151 19.2349C9.86865 19.0884 9.63135 19.0884 9.48486 19.2349L9.375 19.3447V17.25C9.375 17.0427 9.20728 16.875 9 16.875C8.79272 16.875 8.625 17.0427 8.625 17.25V20.0947L6.75 21.9697L4.875 20.0947V12C4.875 10.0983 5.61621 8.30933 6.9624 6.96277C8.30933 5.61658 10.0979 4.875 12 4.875H12.75C12.9573 4.875 13.125 4.70728 13.125 4.5C13.125 4.29272 12.9573 4.125 12.75 4.125H12C9.89795 4.125 7.92041 4.94458 6.43213 6.4325C4.94458 7.92078 4.125 9.89795 4.125 12V19.3447L4.01514 19.2349C3.86865 19.0884 3.63135 19.0884 3.48486 19.2349C3.33838 19.3813 3.33838 19.6187 3.48486 19.7651Z" fill="black"/>
<path d="M20.5151 4.23486L19.7656 3.48532L19.7647 3.48441L17.5151 1.23486C17.3687 1.08838 17.1313 1.08838 16.9849 1.23486L14.7353 3.48441L14.7344 3.48532L13.9849 4.23486C13.8384 4.38135 13.8384 4.61865 13.9849 4.76514C14.1313 4.91162 14.3687 4.91162 14.5151 4.76514L14.625 4.65527V6.75C14.625 6.95728 14.7927 7.125 15 7.125C15.2073 7.125 15.375 6.95728 15.375 6.75V3.90527L17.25 2.03027L19.125 3.90527V12C19.125 13.9014 18.3838 15.6907 17.0376 17.0376C15.6907 18.3838 13.9014 19.125 12 19.125H11.25C11.0427 19.125 10.875 19.2927 10.875 19.5C10.875 19.7073 11.0427 19.875 11.25 19.875H12C14.1021 19.875 16.0796 19.0554 17.5679 17.5679C19.0554 16.0796 19.875 14.1021 19.875 12V4.65527L19.9849 4.76514C20.0581 4.83838 20.1541 4.875 20.25 4.875C20.3459 4.875 20.4419 4.83838 20.5151 4.76514C20.6616 4.61865 20.6616 4.38135 20.5151 4.23486Z" fill="black"/>
<path d="M5.25 5.625C5.34595 5.625 5.44189 5.58838 5.51514 5.51514C5.66162 5.36865 5.66162 5.13135 5.51514 4.98486L4.76514 4.23486C4.61865 4.08838 4.38135 4.08838 4.23486 4.23486C4.08838 4.38135 4.08838 4.61865 4.23486 4.76514L4.98486 5.51514C5.05811 5.58838 5.15405 5.625 5.25 5.625Z" fill="black"/>
<path d="M6.75 4.875C6.95728 4.875 7.125 4.70728 7.125 4.5V3.75C7.125 3.54272 6.95728 3.375 6.75 3.375C6.54272 3.375 6.375 3.54272 6.375 3.75V4.5C6.375 4.70728 6.54272 4.875 6.75 4.875Z" fill="black"/>
<path d="M3.375 6.75C3.375 6.95728 3.54272 7.125 3.75 7.125H4.5C4.70728 7.125 4.875 6.95728 4.875 6.75C4.875 6.54272 4.70728 6.375 4.5 6.375H3.75C3.54272 6.375 3.375 6.54272 3.375 6.75Z" fill="black"/>
<path d="M18.4849 18.4849C18.3384 18.6313 18.3384 18.8687 18.4849 19.0151L19.2349 19.7651C19.3081 19.8384 19.4041 19.875 19.5 19.875C19.5959 19.875 19.6919 19.8384 19.7651 19.7651C19.9116 19.6187 19.9116 19.3813 19.7651 19.2349L19.0151 18.4849C18.8687 18.3384 18.6313 18.3384 18.4849 18.4849Z" fill="black"/>
<path d="M17.25 19.125C17.0427 19.125 16.875 19.2927 16.875 19.5V20.25C16.875 20.4573 17.0427 20.625 17.25 20.625C17.4573 20.625 17.625 20.4573 17.625 20.25V19.5C17.625 19.2927 17.4573 19.125 17.25 19.125Z" fill="black"/>
<path d="M20.625 17.25C20.625 17.0427 20.4573 16.875 20.25 16.875H19.5C19.2927 16.875 19.125 17.0427 19.125 17.25C19.125 17.4573 19.2927 17.625 19.5 17.625H20.25C20.4573 17.625 20.625 17.4573 20.625 17.25Z" fill="black"/>
</svg>
