<svg width="24" height="24" viewBox="0 0 24 24" fill="none" xmlns="http://www.w3.org/2000/svg">
<g clip-path="url(#clip0_413_6620)">
<path d="M9.98109 12.7055V13.6866C9.98109 13.8417 9.855 13.9678 9.69984 13.9678C9.54469 13.9678 9.41859 13.8417 9.41859 13.6866V12.7055C9.41859 12.5503 9.54469 12.4242 9.69984 12.4242C9.855 12.4242 9.98109 12.5503 9.98109 12.7055ZM10.1325 6.64734C10.3795 6.64734 10.5802 6.84844 10.5802 7.095C10.5802 7.25016 10.7063 7.37625 10.8614 7.37625C11.0166 7.37625 11.1427 7.25016 11.1427 7.095C11.1427 6.63563 10.8342 6.2475 10.4138 6.12516V6.05578C10.4138 5.90063 10.2877 5.77453 10.1325 5.77453C9.97734 5.77453 9.85125 5.90063 9.85125 6.05578V6.12516C9.43078 6.2475 9.12234 6.63562 9.12234 7.09547C9.12234 7.87125 9.69094 8.00719 10.0673 8.09766C10.4573 8.19094 10.5806 8.23547 10.5806 8.55281C10.5806 8.79984 10.3795 9.00094 10.133 9.00094C9.88641 9.00094 9.68531 8.79984 9.68531 8.55328C9.68531 8.39813 9.55922 8.27203 9.40406 8.27203C9.24891 8.27203 9.12281 8.39813 9.12281 8.55328C9.12281 9.01266 9.43125 9.40078 9.85172 9.52313V9.5925C9.85172 9.74766 9.97781 9.87375 10.133 9.87375C10.2881 9.87375 10.4142 9.74766 10.4142 9.5925V9.52313C10.8347 9.40078 11.1431 9.01266 11.1431 8.55281C11.1431 7.77703 10.5745 7.64063 10.1981 7.55063C9.80812 7.45734 9.68484 7.41281 9.68484 7.095C9.68484 6.84844 9.88547 6.64734 10.1325 6.64734ZM19.5295 16.8239L18.0277 18.2072L19.5295 19.5909C19.7053 19.7531 19.7986 19.965 19.7986 20.2041V21.7162C19.7986 21.8714 19.6725 21.9975 19.5173 21.9975H15.7083C15.5531 21.9975 15.427 21.8714 15.427 21.7162V20.2041C15.427 19.965 15.5198 19.7531 15.6961 19.5909L17.198 18.2072L15.6961 16.8234C15.5203 16.6612 15.427 16.4494 15.427 16.2103V14.6981C15.427 14.543 15.5531 14.4169 15.7083 14.4169H19.5173C19.6725 14.4169 19.7986 14.543 19.7986 14.6981V16.2103C19.7986 16.4498 19.7053 16.6617 19.5295 16.8239ZM17.6128 18.5897L16.0772 20.0044C16.0177 20.0592 15.9895 20.123 15.9895 20.2041V21.435H19.2361V20.2041C19.2361 20.123 19.2084 20.0597 19.1484 20.0044L17.6128 18.5897ZM19.2361 14.9794H15.9895V16.2103C15.9895 16.2914 16.0172 16.3547 16.0772 16.41L17.6128 17.8247L19.1484 16.41C19.208 16.3552 19.2361 16.2919 19.2361 16.2103V14.9794ZM23.2594 17.7502L22.628 18.8433C22.5778 18.9305 22.485 18.9839 22.3842 18.9839C22.2834 18.9839 22.1911 18.9305 22.1405 18.8433L21.5091 17.7502C21.4589 17.663 21.4589 17.5561 21.5091 17.4689C21.5592 17.3817 21.652 17.3283 21.7528 17.3283H22.0533C21.6403 15.2278 19.7855 13.68 17.6123 13.68C15.5705 13.68 13.7733 15.0548 13.2413 17.0231C13.2009 17.1731 13.0462 17.2617 12.8962 17.2214C12.7462 17.1811 12.6577 17.0264 12.698 16.8764C13.2961 14.6634 15.3164 13.1175 17.6119 13.1175C17.8252 13.1175 18.0352 13.1311 18.2419 13.1569V12.9872H11.2519V14.1323C11.2519 14.9583 10.5802 15.63 9.75422 15.63C8.92828 15.63 8.25656 14.9583 8.25656 14.1323V12.9872H1.26562V15.5934C2.71781 15.7275 3.87703 16.8867 4.01062 18.3384H12.1547L12.5977 17.5711C12.6478 17.4839 12.7406 17.4305 12.8414 17.4305C12.9422 17.4305 13.0345 17.4839 13.0852 17.5711L13.7166 18.6642C13.7667 18.7514 13.7667 18.8583 13.7166 18.9455C13.6664 19.0327 13.5736 19.0861 13.4728 19.0861H13.1719C13.5848 21.1866 15.4397 22.7344 17.6128 22.7344C19.6547 22.7344 21.4519 21.3595 21.9839 19.3912C22.0242 19.2412 22.1789 19.1527 22.3289 19.193C22.4789 19.2333 22.5675 19.388 22.5272 19.538C21.9286 21.7509 19.9078 23.2969 17.6128 23.2969C15.1322 23.2969 13.0195 21.5034 12.5991 19.0861H12.21C12.1097 19.0861 12.0169 19.0327 11.9662 18.9455C11.9578 18.9309 11.9517 18.9159 11.9461 18.9009H2.20688C1.37766 18.9009 0.703125 18.2264 0.703125 17.3972V11.355C0.703125 11.3086 0.714375 11.265 0.734531 11.2266L1.98891 8.78578L0.712031 3.77906H0.7125C0.706406 3.75703 0.703125 3.73359 0.703125 3.70969V2.34703C0.703125 1.44047 1.44047 0.703125 2.34703 0.703125H17.1614C18.068 0.703125 18.8053 1.44047 18.8053 2.34703V3.70969C18.8053 3.73359 18.802 3.75703 18.7964 3.77906H18.7969L17.52 8.78531L18.7744 11.2261C18.7941 11.2645 18.8058 11.3081 18.8058 11.3545V13.2591C20.7455 13.7269 22.2759 15.3098 22.627 17.3278H23.0161C23.1164 17.3278 23.2092 17.3813 23.2598 17.4684C23.3095 17.5556 23.3095 17.663 23.2594 17.7502ZM12.697 18.5236H12.9853L12.8414 18.2742L12.697 18.5236ZM1.26562 16.1588V17.3977C1.26562 17.9166 1.68797 18.3389 2.20688 18.3389H3.44531C3.31594 17.197 2.4075 16.2886 1.26562 16.1588ZM17.0494 9.10031H16.0552C16.4536 9.60656 16.6927 10.2445 16.6927 10.9373C16.6927 10.9828 16.6913 11.0278 16.6894 11.0733H18.0633L17.0494 9.10031ZM14.7272 10.2084C14.7272 10.3636 14.6011 10.4897 14.4459 10.4897C14.2908 10.4897 14.1647 10.3636 14.1647 10.2084C14.1647 9.96141 13.9636 9.76078 13.717 9.76078C13.4705 9.76078 13.2694 9.96187 13.2694 10.2084C13.2694 10.5258 13.3927 10.5708 13.7827 10.6641C14.0325 10.7236 14.3592 10.8028 14.5566 11.0738H16.1264C16.1287 11.0283 16.1306 10.9833 16.1306 10.9378C16.1306 9.60703 15.0478 8.52422 13.717 8.52422C13.47 8.52422 13.2281 8.56172 12.9961 8.63437C12.7537 9.49031 12.1378 10.1897 11.3358 10.5455C11.3147 10.6744 11.3039 10.8061 11.3039 10.9378C11.3039 10.9833 11.3058 11.0288 11.3081 11.0738H13.2178C12.9469 10.9467 12.7069 10.7128 12.7069 10.2094C12.7069 9.74953 13.0153 9.36141 13.4358 9.23906V9.16969C13.4358 9.01453 13.5619 8.88844 13.717 8.88844C13.8722 8.88844 13.9983 9.01453 13.9983 9.16969V9.23906C14.4188 9.36094 14.7272 9.74906 14.7272 10.2084ZM10.7409 10.9373C10.7409 10.8698 10.7438 10.8028 10.7484 10.7358C10.5497 10.778 10.3439 10.8005 10.1325 10.8005C9.57609 10.8005 9.03281 10.6434 8.56453 10.3533C8.48109 10.6078 8.36297 10.8502 8.2125 11.0738H10.7442C10.7423 11.0283 10.7409 10.9828 10.7409 10.9373ZM12.5461 7.82437C12.5461 6.49359 11.4633 5.41078 10.1325 5.41078C9.00516 5.41078 8.04094 6.18141 7.785 7.26375C8.35594 7.80656 8.71313 8.57203 8.71313 9.42C8.71313 9.53484 8.70609 9.64875 8.69344 9.76078C9.10781 10.0687 9.61313 10.2375 10.1325 10.2375C11.4633 10.2375 12.5461 9.15516 12.5461 7.82437ZM6.74766 10.1484C6.74766 10.5614 6.49875 10.9167 6.14344 11.0733H7.49531C7.91859 10.6242 8.15109 10.0416 8.15109 9.42C8.15109 8.08922 7.06828 7.00641 5.7375 7.00641C4.40672 7.00641 3.32391 8.08922 3.32391 9.42C3.32391 10.0416 3.55594 10.6242 3.97969 11.0733H5.33156C4.97625 10.9167 4.72734 10.5614 4.72734 10.1489C4.72734 9.99375 4.85344 9.86766 5.00859 9.86766C5.16375 9.86766 5.28984 9.99375 5.28984 10.1489C5.28984 10.3959 5.49094 10.5966 5.7375 10.5966C5.98453 10.5966 6.18516 10.3955 6.18516 10.1484C6.18516 9.83156 6.06187 9.78656 5.67188 9.69328C5.29547 9.60328 4.72687 9.46734 4.72687 8.69109C4.72687 8.23125 5.03531 7.84313 5.45578 7.72078V7.65141C5.45578 7.49625 5.58187 7.37016 5.73703 7.37016C5.89219 7.37016 6.01828 7.49625 6.01828 7.65141V7.72078C6.43875 7.84313 6.74719 8.23125 6.74719 8.69062C6.74719 8.84578 6.62109 8.97187 6.46594 8.97187C6.31078 8.97187 6.18469 8.84578 6.18469 8.69062C6.18469 8.44359 5.98359 8.24297 5.73703 8.24297C5.49 8.24297 5.28937 8.44406 5.28937 8.69062C5.28937 9.00797 5.41266 9.05297 5.80266 9.14625C6.17906 9.23672 6.74766 9.37266 6.74766 10.1484ZM1.26562 3.42844H18.2428V2.34703C18.2428 1.75078 17.7577 1.26562 17.1614 1.26562H2.34703C1.75078 1.26562 1.26562 1.75078 1.26562 2.34703V3.42844ZM2.50594 8.53781H2.895C3.27187 7.32609 4.40344 6.44391 5.7375 6.44391C6.31266 6.44391 6.84984 6.60844 7.30547 6.89203C7.70016 5.68547 8.8275 4.84781 10.1325 4.84781C11.7736 4.84781 13.1086 6.18281 13.1086 7.82391C13.1086 7.89188 13.1053 7.95891 13.1011 8.02594C13.3027 7.98328 13.5084 7.96125 13.717 7.96125C14.3742 7.96125 14.9817 8.17547 15.4744 8.53781H17.0025L18.1622 3.99094H1.34625L2.50594 8.53781ZM1.44516 11.0738H3.26203C2.93625 10.5891 2.76141 10.0195 2.76141 9.42047C2.76141 9.31266 2.7675 9.20578 2.77875 9.10078H2.45906L1.44516 11.0738ZM18.2428 11.6363H14.3953C14.3948 11.6363 14.3939 11.6363 14.3934 11.6363C14.393 11.6363 14.3925 11.6363 14.392 11.6363H1.26562V12.4247H8.53781C8.69297 12.4247 8.81906 12.5508 8.81906 12.7059V14.1323C8.81906 14.648 9.23859 15.0675 9.75422 15.0675C10.2698 15.0675 10.6894 14.648 10.6894 14.1323V12.7059C10.6894 12.5508 10.8155 12.4247 10.9706 12.4247H18.2428V11.6363ZM22.5286 17.8908H22.3847C22.3842 17.8908 22.3842 17.8908 22.3837 17.8908H22.3833H22.2398L22.3837 18.1402L22.5286 17.8908Z" fill="#2563EB"/>
</g>
<defs>
<clipPath id="clip0_413_6620">
<rect width="24" height="24" fill="white"/>
</clipPath>
</defs>
</svg>
