<svg width="24" height="24" viewBox="0 0 24 24" fill="none" xmlns="http://www.w3.org/2000/svg">
<path d="M13.3351 21.6548C12.8928 21.7174 12.4466 21.7488 11.9999 21.7489C10.0717 21.7489 8.18671 21.1772 6.58342 20.1059C4.98012 19.0346 3.73051 17.5119 2.99259 15.7304C2.25468 13.9489 2.0616 11.9886 2.43779 10.0974C2.81398 8.20621 3.74252 6.46902 5.10602 5.10553C6.46951 3.74204 8.2067 2.81349 10.0979 2.4373C11.9891 2.06112 13.9494 2.25419 15.7309 2.99211C17.5124 3.73002 19.0351 4.97964 20.1064 6.58293C21.1776 8.18623 21.7494 10.0712 21.7494 11.9995C21.7505 12.5373 21.7059 13.0742 21.6161 13.6045C21.5992 13.7025 21.622 13.8031 21.6793 13.8844C21.7367 13.9656 21.8239 14.0208 21.9219 14.0377C22.0199 14.0546 22.1206 14.0318 22.2018 13.9745C22.2831 13.9172 22.3382 13.8299 22.3551 13.7319C22.4522 13.1595 22.5005 12.58 22.4994 11.9994C22.4994 9.92285 21.8836 7.89289 20.7299 6.16627C19.5762 4.43964 17.9364 3.0939 16.0179 2.29922C14.0994 1.50455 11.9883 1.29663 9.9516 1.70175C7.9149 2.10688 6.04408 3.10685 4.57571 4.57523C3.10733 6.0436 2.10736 7.91443 1.70224 9.95112C1.29711 11.9878 1.50504 14.0989 2.29972 16.0174C3.0944 17.9359 4.44014 19.5757 6.16676 20.7294C7.89339 21.8831 9.92335 22.4989 11.9999 22.4989C12.4817 22.4988 12.9628 22.4649 13.4398 22.3975C13.5378 22.3831 13.6262 22.3304 13.6855 22.2511C13.7449 22.1718 13.7704 22.0722 13.7566 21.9741C13.7428 21.876 13.6907 21.7873 13.6117 21.7275C13.5327 21.6677 13.4333 21.6416 13.3351 21.6548Z" fill="#2563EB"/>
<path d="M12 4.12598C11.9507 4.12595 11.9019 4.13563 11.8564 4.15446C11.8109 4.1733 11.7696 4.20092 11.7348 4.23574C11.6999 4.27057 11.6723 4.31192 11.6535 4.35743C11.6346 4.40293 11.625 4.45171 11.625 4.50096V10.5539C11.3672 10.621 11.1319 10.7557 10.9435 10.9441C10.7551 11.1325 10.6204 11.3678 10.5533 11.6256H6.37526C6.27602 11.6259 6.18094 11.6655 6.11088 11.7358C6.04081 11.8061 6.00146 11.9013 6.00146 12.0006C6.00146 12.0998 6.04081 12.195 6.11088 12.2653C6.18094 12.3356 6.27602 12.3752 6.37526 12.3755H10.5533C10.6189 12.6314 10.751 12.8653 10.9363 13.0535C11.1215 13.2418 11.3532 13.3777 11.608 13.4474C11.8627 13.5171 12.1313 13.5182 12.3866 13.4505C12.6419 13.3829 12.8747 13.2488 13.0615 13.0621C13.2482 12.8753 13.3823 12.6425 13.4499 12.3872C13.5176 12.1319 13.5165 11.8633 13.4468 11.6086C13.3771 11.3538 13.2412 11.1221 13.0529 10.9369C12.8647 10.7516 12.6308 10.6195 12.375 10.5539V4.50096C12.375 4.45171 12.3653 4.40293 12.3465 4.35742C12.3276 4.31191 12.3 4.27056 12.2652 4.23574C12.2304 4.20091 12.189 4.17329 12.1435 4.15446C12.098 4.13562 12.0492 4.12595 12 4.12598ZM12.7499 12.0006C12.7499 12.1489 12.7059 12.2939 12.6235 12.4172C12.5411 12.5406 12.424 12.6367 12.287 12.6934C12.1499 12.7502 11.9991 12.7651 11.8537 12.7361C11.7082 12.7072 11.5746 12.6358 11.4697 12.5309C11.3648 12.426 11.2934 12.2924 11.2644 12.1469C11.2355 12.0014 11.2503 11.8506 11.3071 11.7136C11.3639 11.5765 11.46 11.4594 11.5833 11.377C11.7066 11.2946 11.8516 11.2506 12 11.2506C12.1988 11.2509 12.3894 11.33 12.53 11.4705C12.6706 11.6111 12.7497 11.8017 12.7499 12.0006Z" fill="#2563EB"/>
<path d="M21.6909 16.3169C21.7948 16.061 21.8301 15.7824 21.7932 15.5087C21.7563 15.235 21.6486 14.9757 21.4807 14.7564C21.3128 14.5372 21.0906 14.3655 20.836 14.2585C20.5814 14.1516 20.3033 14.1129 20.0292 14.1464C19.9647 13.9012 19.8353 13.678 19.6545 13.5002C19.4736 13.3225 19.2482 13.1969 19.0019 13.1368C18.7556 13.0766 18.4976 13.0841 18.2552 13.1584C18.0128 13.2327 17.795 13.3711 17.6247 13.559C17.4529 13.3745 17.2349 13.2392 16.9933 13.167C16.7518 13.0948 16.4953 13.0882 16.2504 13.1481C16.0054 13.2079 15.7809 13.332 15.5998 13.5075C15.4188 13.683 15.2878 13.9035 15.2204 14.1465C14.9469 14.116 14.6703 14.1567 14.4173 14.2646C14.1642 14.3725 13.9434 14.544 13.7761 14.7624C13.6088 14.9808 13.5008 15.2387 13.4626 15.5111C13.4244 15.7836 13.4572 16.0612 13.5578 16.3172C13.31 16.4769 13.1062 16.6961 12.965 16.9549C12.8239 17.2137 12.75 17.5038 12.75 17.7986C12.75 18.0934 12.824 18.3834 12.9652 18.6422C13.1064 18.901 13.3103 19.1202 13.5582 19.2797C13.4574 19.5357 13.4246 19.8134 13.4628 20.0858C13.5009 20.3582 13.6089 20.6162 13.7761 20.8346C13.9434 21.053 14.1642 21.2245 14.4173 21.3324C14.6703 21.4403 14.947 21.481 15.2204 21.4505C15.2879 21.6934 15.4189 21.9139 15.6 22.0893C15.7811 22.2647 16.0056 22.3887 16.2505 22.4485C16.4954 22.5083 16.7518 22.5018 16.9934 22.4296C17.2349 22.3574 17.4528 22.2221 17.6247 22.0377C17.795 22.2255 18.0128 22.3639 18.2552 22.4382C18.4975 22.5125 18.7555 22.52 19.0017 22.4598C19.248 22.3997 19.4735 22.2742 19.6543 22.0965C19.8351 21.9189 19.9646 21.6957 20.0292 21.4505C20.3033 21.4842 20.5815 21.4456 20.8361 21.3387C21.0908 21.2317 21.3131 21.0601 21.481 20.8408C21.6489 20.6214 21.7565 20.362 21.7933 20.0883C21.83 19.8145 21.7946 19.5359 21.6906 19.2801C21.9386 19.1206 22.1427 18.9014 22.284 18.6425C22.4254 18.3837 22.4995 18.0935 22.4995 17.7986C22.4995 17.5037 22.4255 17.2135 22.2843 16.9546C22.143 16.6957 21.939 16.4764 21.6909 16.3169ZM17.2498 18.9048C17.1474 18.8708 17.0405 18.8528 16.9326 18.8513C16.6497 18.8515 16.3784 18.9641 16.1783 19.1641C15.9782 19.3641 15.8656 19.6354 15.8652 19.9184C15.8671 20.0165 15.9075 20.11 15.9776 20.1788C16.0477 20.2475 16.142 20.286 16.2402 20.286C16.3384 20.286 16.4326 20.2475 16.5027 20.1787C16.5729 20.11 16.6132 20.0165 16.6151 19.9183C16.6168 19.8353 16.651 19.7562 16.7103 19.698C16.7696 19.6399 16.8494 19.6073 16.9325 19.6073C17.0155 19.6074 17.0953 19.6399 17.1546 19.6981C17.2139 19.7562 17.2481 19.8353 17.2498 19.9184V21.0869C17.2497 21.1769 17.2313 21.266 17.1958 21.3487C17.1602 21.4314 17.1081 21.506 17.0428 21.568C16.9775 21.6299 16.9002 21.6779 16.8157 21.7091C16.7313 21.7402 16.6413 21.7538 16.5514 21.7491C16.4615 21.7444 16.3735 21.7214 16.2927 21.6816C16.212 21.6418 16.1402 21.5859 16.0817 21.5174C16.0232 21.449 15.9793 21.3693 15.9526 21.2834C15.9259 21.1974 15.917 21.1069 15.9263 21.0173C15.9333 20.9643 15.929 20.9104 15.9135 20.8592C15.8981 20.808 15.872 20.7606 15.8369 20.7203C15.8018 20.6799 15.7585 20.6475 15.7099 20.6252C15.6613 20.6028 15.6085 20.5911 15.555 20.5907C15.3748 20.6032 15.2183 20.73 15.0288 20.7119C14.807 20.7116 14.5943 20.6234 14.4374 20.4665C14.2805 20.3097 14.1923 20.097 14.1921 19.8751C14.1451 19.5282 14.53 19.3332 14.4452 19.0109C14.4278 18.9524 14.3964 18.899 14.3538 18.8553C14.3112 18.8116 14.2586 18.7789 14.2005 18.7601C14.0138 18.7003 13.8486 18.5873 13.7251 18.435C13.6016 18.2827 13.5252 18.0977 13.5052 17.9026C13.4852 17.7076 13.5226 17.511 13.6126 17.3368C13.7027 17.1627 13.8416 17.0185 14.0123 16.9221C14.1709 17.0385 14.3587 17.1086 14.5548 17.1245C14.7509 17.1404 14.9476 17.1016 15.1229 17.0122C15.2982 16.9229 15.4453 16.7867 15.5477 16.6187C15.6501 16.4507 15.7039 16.2576 15.703 16.0609C15.701 15.9627 15.6607 15.8692 15.5905 15.8005C15.5204 15.7317 15.4262 15.6932 15.328 15.6932C15.2298 15.6932 15.1355 15.7318 15.0654 15.8005C14.9953 15.8692 14.9549 15.9627 14.953 16.0609C14.952 16.1265 14.9307 16.1902 14.8921 16.2433C14.8535 16.2963 14.7994 16.3362 14.7373 16.3573C14.6752 16.3785 14.6081 16.38 14.5451 16.3616C14.4821 16.3432 14.4263 16.3059 14.3854 16.2546C14.286 16.1318 14.2232 15.9836 14.2042 15.8268C14.1852 15.67 14.2107 15.5111 14.2778 15.3681C14.345 15.2252 14.4511 15.1041 14.5839 15.0186C14.7167 14.9332 14.8709 14.8869 15.0288 14.8851C15.2891 14.8629 15.5332 15.1248 15.7747 14.9352C15.8373 14.8857 15.8844 14.8195 15.9107 14.7442C15.937 14.6689 15.9412 14.5877 15.923 14.5101C15.923 14.3341 15.9929 14.1654 16.1173 14.041C16.2417 13.9166 16.4105 13.8467 16.5864 13.8467C16.7623 13.8467 16.9311 13.9166 17.0555 14.041C17.1799 14.1654 17.2498 14.3341 17.2498 14.5101L17.2498 18.9048ZM21.2373 18.6747C21.078 18.5612 20.8906 18.4936 20.6955 18.4791C20.5004 18.4646 20.3051 18.504 20.1308 18.5928C19.9565 18.6816 19.8098 18.8164 19.7068 18.9828C19.6038 19.1491 19.5484 19.3405 19.5465 19.5361C19.5485 19.6342 19.5888 19.7277 19.659 19.7965C19.7291 19.8652 19.8233 19.9037 19.9215 19.9037C20.0197 19.9037 20.114 19.8652 20.1841 19.7964C20.2542 19.7277 20.2945 19.6342 20.2965 19.536C20.2976 19.4693 20.3196 19.4046 20.3594 19.351C20.3992 19.2975 20.4548 19.2578 20.5184 19.2375C20.582 19.2172 20.6503 19.2175 20.7138 19.2381C20.7773 19.2587 20.8326 19.2988 20.8721 19.3526C20.969 19.4759 21.0294 19.6239 21.0465 19.7799C21.0636 19.9358 21.0368 20.0933 20.969 20.2348C20.9012 20.3762 20.7952 20.4959 20.6629 20.5802C20.5307 20.6645 20.3775 20.7101 20.2206 20.7119C20.0953 20.7121 19.9716 20.6837 19.8589 20.6288C19.7916 20.5988 19.7173 20.5886 19.6444 20.5993C19.5716 20.61 19.5033 20.6411 19.4475 20.6891C19.3917 20.7371 19.3507 20.8 19.3293 20.8704C19.3078 20.9409 19.3069 21.0159 19.3265 21.0869C19.324 21.2612 19.253 21.4275 19.1288 21.5499C19.0047 21.6722 18.8374 21.7408 18.6631 21.7408C18.4887 21.7408 18.3214 21.6722 18.1973 21.5498C18.0732 21.4274 18.0022 21.2611 17.9997 21.0868V16.6921C18.1591 16.7421 18.3279 16.7539 18.4927 16.7266C18.6574 16.6993 18.8135 16.6337 18.9482 16.535C19.0829 16.4364 19.1926 16.3074 19.2684 16.1586C19.3441 16.0097 19.3838 15.8452 19.3843 15.6782C19.3823 15.58 19.342 15.4865 19.2719 15.4178C19.2017 15.3491 19.1075 15.3106 19.0093 15.3106C18.9111 15.3106 18.8168 15.3491 18.7467 15.4178C18.6766 15.4866 18.6363 15.5801 18.6343 15.6782C18.6327 15.7614 18.5986 15.8405 18.5393 15.8988C18.4799 15.957 18.4001 15.9896 18.317 15.9896C18.2339 15.9896 18.154 15.957 18.0947 15.8987C18.0354 15.8405 18.0013 15.7613 17.9997 15.6782V14.5101C18.0022 14.3358 18.0732 14.1695 18.1973 14.0471C18.3215 13.9247 18.4888 13.8561 18.6631 13.8561C18.8374 13.8561 19.0047 13.9247 19.1288 14.0471C19.253 14.1695 19.3239 14.3358 19.3264 14.5101C19.3069 14.5811 19.308 14.6562 19.3295 14.7266C19.351 14.797 19.392 14.8598 19.4478 14.9078C19.5037 14.9558 19.572 14.987 19.6448 14.9976C19.7177 15.0083 19.792 14.9981 19.8593 14.9682C19.9868 14.9082 20.1274 14.8812 20.2681 14.8898C20.4088 14.8983 20.545 14.9421 20.6644 15.0171C20.7837 15.0922 20.8822 15.196 20.9509 15.319C21.0196 15.4421 21.0562 15.5805 21.0574 15.7214C21.0587 15.9114 20.9935 16.0958 20.8732 16.2429C20.8353 16.2904 20.8094 16.3464 20.7978 16.4061C20.7861 16.4658 20.7891 16.5274 20.8063 16.5857C20.8236 16.644 20.8546 16.6973 20.8969 16.741C20.9391 16.7847 20.9913 16.8176 21.049 16.8369C21.2335 16.8991 21.3962 17.0132 21.5177 17.1654C21.6392 17.3176 21.7143 17.5015 21.7342 17.6952C21.754 17.889 21.7177 18.0843 21.6296 18.258C21.5416 18.4316 21.4054 18.5763 21.2373 18.6747Z" fill="#2563EB"/>
</svg>
