<svg width="24" height="24" viewBox="0 0 24 24" fill="none" xmlns="http://www.w3.org/2000/svg">
<path d="M21.375 15H13.125C12.5046 15 12 15.5046 12 16.125V21.375C12 21.9954 12.5046 22.5 13.125 22.5H21.375C21.9954 22.5 22.5 21.9954 22.5 21.375V16.125C22.5 15.5046 21.9954 15 21.375 15ZM21.75 16.875H14.25C13.7587 16.8832 13.7556 17.6163 14.25 17.625H21.75V21.375C21.75 21.5817 21.5819 21.75 21.375 21.75H13.125C12.9181 21.75 12.75 21.5817 12.75 21.375V16.125C12.75 15.9183 12.9181 15.75 13.125 15.75H21.375C21.5819 15.75 21.75 15.9183 21.75 16.125V16.875Z" fill="#2563EB"/>
<path d="M3.375 19.5H10.5C10.9948 19.4868 10.9928 18.7611 10.5 18.75H3.375C2.75464 18.75 2.25 18.2454 2.25 17.625V4.875C2.25 4.25464 2.75464 3.75 3.375 3.75H7.8059C7.65061 4.18556 7.23823 4.5 6.75 4.5C6.54273 4.5 6.375 4.66791 6.375 4.875C6.375 5.08209 6.54273 5.25 6.75 5.25C7.65541 5.25 8.41285 4.60474 8.5871 3.75H14.1809C14.0256 4.18556 13.6132 4.5 13.125 4.5C12.9177 4.5 12.75 4.66791 12.75 4.875C12.75 5.08209 12.9177 5.25 13.125 5.25C14.0304 5.25 14.7879 4.60474 14.9621 3.75H16.5C17.1204 3.75 17.625 4.25464 17.625 4.875V6H3.75C3.261 6.00767 3.25373 6.74102 3.75002 6.75C3.75 6.75 17.625 6.75 17.625 6.75V13.5C17.6277 13.9872 18.369 13.9964 18.375 13.5C18.375 13.5 18.375 4.875 18.375 4.875C18.375 3.84119 17.5338 3 16.5 3H14.9621C14.7879 2.14526 14.0304 1.5 13.125 1.5C12.2196 1.5 11.4622 2.14526 11.2879 3H8.5871C8.16498 1.01866 5.33693 1.01428 4.9129 3.00004C4.9129 3 3.375 3 3.375 3C2.34119 3 1.5 3.84119 1.5 4.875V17.625C1.5 18.6588 2.34119 19.5 3.375 19.5ZM13.125 2.25C13.6132 2.25 14.0256 2.56444 14.1809 3H12.0691C12.2244 2.56444 12.6368 2.25 13.125 2.25ZM6.75 2.25C7.23823 2.25 7.65061 2.56444 7.8059 3H5.6941C5.8494 2.56444 6.26178 2.25 6.75 2.25Z" fill="#2563EB"/>
<path d="M18.375 20.625H20.25C20.7424 20.6169 20.7433 19.8833 20.25 19.875H18.375C17.8826 19.8831 17.8817 20.6167 18.375 20.625Z" fill="#2563EB"/>
<path d="M8.24999 15.375C6.80272 15.375 5.62499 14.1974 5.62499 12.719C5.65355 12.5138 5.51037 12.3244 5.30529 12.2959C5.04061 12.2555 4.84702 12.4991 4.875 12.75C4.87499 14.6109 6.3889 16.125 8.24999 16.125C10.1111 16.125 11.625 14.6109 11.625 12.75C11.6624 10.0162 8.39617 8.37975 6.23836 10.0442C6.23839 10.0441 6.23839 9.83311 6.23839 9.83311C6.23095 9.34144 5.4964 9.33935 5.48839 9.83313C5.48839 9.83311 5.48839 10.8938 5.48839 10.8938C5.48657 11.1069 5.66566 11.2511 5.86339 11.2688C5.86339 11.2688 6.9243 11.2688 6.9243 11.2688C7.13158 11.2688 7.2993 11.1009 7.2993 10.8938C7.30095 10.6613 7.09217 10.4947 6.86619 10.5189C8.55195 9.42511 10.9142 10.731 10.875 12.75C10.875 14.1974 9.69725 15.375 8.24999 15.375Z" fill="#2563EB"/>
</svg>
