<svg width="24" height="24" viewBox="0 0 24 24" fill="none" xmlns="http://www.w3.org/2000/svg">
<g clip-path="url(#clip0_413_6754)">
<path d="M20.5708 5.37095H19.6872V5.18186C19.6872 4.81095 19.3854 4.5055 19.0145 4.5055H18.2835V2.01822C18.2835 1.29822 17.6981 0.712769 16.9781 0.712769C16.2581 0.712769 15.6726 1.29822 15.6726 2.01822V4.50913H14.9417C14.5708 4.50913 14.269 4.81095 14.269 5.1855V5.37459H9.73445V5.1855C9.73445 4.81459 9.43263 4.50913 9.06172 4.50913H8.33081V2.01822C8.33081 1.29822 7.74536 0.712769 7.02536 0.712769C6.30536 0.712769 5.7199 1.29822 5.7199 2.01822V4.50913H4.989C4.61809 4.50913 4.31627 4.81095 4.31627 5.1855V5.37459H3.429C1.83263 5.37459 0.538086 6.67277 0.538086 8.2655V20.3964C0.538086 21.9928 1.83627 23.2873 3.429 23.2873H20.5672C22.1635 23.2873 23.4581 21.9891 23.4581 20.3964V8.2655C23.4617 6.66913 22.1635 5.37095 20.5708 5.37095ZM16.3854 2.01822C16.3854 1.69459 16.6508 1.42913 16.9745 1.42913C17.2981 1.42913 17.5635 1.69459 17.5635 2.01822V4.50913H16.3854V2.01822ZM6.43627 2.01822C6.43627 1.69459 6.70172 1.42913 7.02536 1.42913C7.349 1.42913 7.61445 1.69459 7.61445 2.01822V4.50913H6.43627V2.01822ZM14.9817 5.2255H18.9708V6.2364H14.9817V5.2255ZM5.029 5.2255H9.01809V6.2364H5.029V5.2255ZM22.7454 20.3964C22.7454 21.5964 21.7708 22.571 20.5708 22.571H3.429C2.229 22.571 1.25445 21.5964 1.25445 20.3964V8.2655C1.25445 7.0655 2.229 6.09095 3.429 6.09095H4.31263V6.28004C4.31263 6.65095 4.61445 6.9564 4.98536 6.9564H9.05809C9.429 6.9564 9.73081 6.65459 9.73081 6.28004V6.09095H14.2617V6.28004C14.2617 6.65095 14.5635 6.9564 14.9345 6.9564H19.0072C19.3781 6.9564 19.6799 6.65459 19.6799 6.28004V6.09095H20.5635C21.7635 6.09095 22.7381 7.0655 22.7381 8.2655V20.3964H22.7454Z" fill="#2563EB"/>
<path d="M19.7673 11.6655H4.23271C3.3418 11.6655 2.61816 12.3892 2.61816 13.2801V19.5928C2.61816 20.4837 3.3418 21.2073 4.23271 21.2073H19.7636C20.6545 21.2073 21.3782 20.4837 21.3782 19.5928V13.2801C21.3782 12.3892 20.6545 11.6655 19.7673 11.6655ZM20.6618 19.5928C20.6618 20.0873 20.2582 20.491 19.7636 20.491H4.23271C3.73816 20.491 3.33453 20.0873 3.33453 19.5928V13.2801C3.33453 12.7855 3.73816 12.3819 4.23271 12.3819H19.7636C20.2582 12.3819 20.6618 12.7855 20.6618 13.2801V19.5928Z" fill="#2563EB"/>
<path d="M11.9999 13.6292C10.4508 13.6292 9.19263 14.8873 9.19263 16.4364C9.19263 17.9855 10.4508 19.2437 11.9999 19.2437C13.549 19.2437 14.8072 17.9855 14.8072 16.4364C14.8072 14.8873 13.549 13.6292 11.9999 13.6292ZM11.9999 18.5273C10.8472 18.5273 9.90899 17.5892 9.90899 16.4364C9.90899 15.2837 10.8472 14.3455 11.9999 14.3455C13.1526 14.3455 14.0908 15.2837 14.0908 16.4364C14.0908 17.5892 13.1526 18.5273 11.9999 18.5273Z" fill="#2563EB"/>
<path d="M19.3416 15.4074H18.4144V15.2074C18.4144 14.9128 18.2398 14.6474 17.9707 14.5346C17.7016 14.4183 17.3889 14.4765 17.1744 14.6801L15.8907 15.9056C15.7453 16.0437 15.6653 16.2365 15.6653 16.4365C15.6653 16.6365 15.7489 16.8292 15.8907 16.9674L17.1744 18.1928C17.3126 18.3274 17.4944 18.3965 17.6798 18.3965C17.778 18.3965 17.8762 18.3783 17.9671 18.3383C18.2362 18.2219 18.4107 17.9565 18.4107 17.6656V17.4656H19.338C19.7053 17.4656 20.0071 17.1674 20.0071 16.7965V16.0765C20.0107 15.7092 19.7089 15.4074 19.3416 15.4074ZM19.2944 16.7492H18.058C17.8616 16.7492 17.7016 16.9092 17.7016 17.1056L17.6726 17.6728L16.3889 16.4219L17.7016 15.2074V15.7637C17.7016 15.9601 17.8616 16.1201 18.058 16.1201H19.2944V16.7492Z" fill="#2563EB"/>
<path d="M6.8254 14.6801C6.61449 14.4764 6.30177 14.4219 6.03268 14.5346C5.76359 14.651 5.58904 14.9128 5.58904 15.2073V15.4073H4.66177C4.29449 15.4073 3.99268 15.7055 3.99268 16.0764V16.7964C3.99268 17.1637 4.29086 17.4655 4.66177 17.4655H5.58904V17.6655C5.58904 17.9601 5.76359 18.2255 6.03268 18.3383C6.12722 18.3783 6.2254 18.3964 6.31995 18.3964C6.5054 18.3964 6.68722 18.3273 6.8254 18.1928L8.10904 16.9673C8.25449 16.8292 8.33449 16.6364 8.33449 16.4364C8.33449 16.2364 8.25086 16.0437 8.10904 15.9092L6.8254 14.6801ZM6.30177 17.6619V17.1055C6.30177 16.9092 6.14177 16.7492 5.9454 16.7492H4.7054V16.1273H5.9454C6.14177 16.1273 6.30177 15.9673 6.30177 15.771L6.33086 15.2037L7.61449 16.4546L6.30177 17.6619Z" fill="#2563EB"/>
</g>
<defs>
<clipPath id="clip0_413_6754">
<rect width="24" height="24" fill="white"/>
</clipPath>
</defs>
</svg>
