<svg width="24" height="24" viewBox="0 0 24 24" fill="none" xmlns="http://www.w3.org/2000/svg">
<path d="M16.2843 3.62475C16.4316 3.62475 16.5512 3.50522 16.5512 3.35785C16.5512 3.21047 16.4317 3.09094 16.2843 3.09094H14.6918C14.5445 3.09094 14.4249 3.21047 14.4249 3.35785C14.4249 3.50522 14.5445 3.62475 14.6918 3.62475H16.2843Z" fill="#2563EB"/>
<path d="M21.7345 3.16677C21.5903 3.13119 21.4462 3.21837 21.4107 3.36073C21.3751 3.50483 21.4641 3.64897 21.6064 3.68455C22.4978 3.90519 23.1206 4.7023 23.1206 5.62217V8.30356H0.879469V5.62217C0.879469 4.70225 1.5022 3.90514 2.39362 3.68455C2.53598 3.64897 2.62317 3.50483 2.58938 3.36073C2.5538 3.21837 2.40966 3.13119 2.26556 3.16677C1.13573 3.44614 0.345703 4.45677 0.345703 5.62217V20.2497C0.345703 21.6447 1.48087 22.7798 2.87761 22.7798H21.1224C22.5191 22.7798 23.6543 21.6447 23.6543 20.2497V5.62217C23.6543 4.45672 22.8643 3.44614 21.7345 3.16677ZM23.1205 20.2497C23.1205 21.3511 22.2238 22.2461 21.1224 22.2461H2.87761C1.77623 22.2461 0.879469 21.3511 0.879469 20.2497V8.83733H23.1205V20.2497Z" fill="#2563EB"/>
<path d="M7.71527 3.09094C7.56794 3.09094 7.44836 3.21047 7.44836 3.35785C7.44836 3.50522 7.5679 3.62475 7.71527 3.62475H9.30776C9.45508 3.62475 9.57466 3.50522 9.57466 3.35785C9.57466 3.21047 9.45513 3.09094 9.30776 3.09094H7.71527Z" fill="#2563EB"/>
<path d="M19.7915 10.7839H4.47719C3.88291 10.7839 3.39893 11.2661 3.39893 11.8622V19.8049C3.39893 20.3992 3.88286 20.8832 4.47719 20.8832H19.7915C20.3858 20.8832 20.8698 20.3992 20.8698 19.8049V11.8622C20.8698 11.2661 20.3858 10.7839 19.7915 10.7839ZM20.336 19.8049C20.336 20.1038 20.0922 20.3493 19.7915 20.3493H4.47719C4.17649 20.3493 3.93274 20.1038 3.93274 19.8049V11.8622C3.93274 11.5615 4.17649 11.3177 4.47719 11.3177H19.7915C20.0922 11.3177 20.336 11.5615 20.336 11.8622V19.8049Z" fill="#2563EB"/>
<path d="M19.2222 13.2126C18.7097 13.257 18.2809 12.8282 18.3272 12.314C18.3432 12.1575 18.2186 12.0222 18.0621 12.0222H6.11062C5.95406 12.0222 5.83129 12.1557 5.8455 12.3122C5.88998 12.8104 5.49853 13.2161 5.02167 13.2161C4.87396 13.2161 4.75476 13.3371 4.75476 13.483V18.1732C4.75476 18.3209 4.87396 18.4402 5.02167 18.4402C5.50739 18.4402 5.89354 18.8601 5.8455 19.3511C5.82946 19.5077 5.95223 19.6447 6.11062 19.6447H18.0621C18.2187 19.6447 18.3432 19.5077 18.3272 19.3511C18.281 18.8494 18.6742 18.4402 19.1511 18.4402C19.1759 18.4402 19.1991 18.4419 19.2222 18.4455C19.3788 18.458 19.514 18.3352 19.514 18.1786V13.4795C19.514 13.3229 19.3823 13.2001 19.2222 13.2126ZM18.9802 17.917C18.361 17.9953 17.8699 18.4899 17.7988 19.1109H6.37392C6.30632 18.522 5.86148 18.0469 5.28857 17.933V13.725C5.85975 13.6111 6.30098 13.1396 6.37218 12.556H17.8005C17.8753 13.1716 18.3646 13.6627 18.9802 13.7392V17.917Z" fill="#2563EB"/>
<path d="M12.1334 18.1982C13.1741 18.1982 14.0177 17.1395 14.0177 15.8335C14.0177 14.5276 13.1741 13.4689 12.1334 13.4689C11.0928 13.4689 10.2491 14.5276 10.2491 15.8335C10.2491 17.1395 11.0928 18.1982 12.1334 18.1982Z" fill="#2563EB"/>
<path d="M16.4999 17.3014C17.3106 17.3014 17.9678 16.6442 17.9678 15.8335C17.9678 15.0228 17.3106 14.3656 16.4999 14.3656C15.6892 14.3656 15.032 15.0228 15.032 15.8335C15.032 16.6442 15.6892 17.3014 16.4999 17.3014Z" fill="#2563EB"/>
<path d="M7.76879 17.3014C8.57949 17.3014 9.23668 16.6442 9.23668 15.8335C9.23668 15.0228 8.57949 14.3656 7.76879 14.3656C6.9581 14.3656 6.3009 15.0228 6.3009 15.8335C6.3009 16.6442 6.9581 17.3014 7.76879 17.3014Z" fill="#2563EB"/>
<path d="M6.19592 1.22021H3.8473C3.45228 1.22021 3.13025 1.54225 3.13025 1.93726V3.7735C3.13025 4.81792 3.97897 5.66664 5.02161 5.66664C6.06425 5.66664 6.91475 4.81792 6.91475 3.7735V1.93726C6.9148 1.54225 6.59272 1.22021 6.19592 1.22021ZM6.38098 3.7735C6.38098 4.52256 5.77067 5.13287 5.02161 5.13287C4.27255 5.13287 3.66401 4.52256 3.66401 3.7735V1.93726C3.66401 1.83582 3.74586 1.75398 3.8473 1.75398H6.19597C6.29741 1.75398 6.38103 1.83582 6.38103 1.93726L6.38098 3.7735Z" fill="#2563EB"/>
<path d="M13.1744 1.22021H10.8257C10.4307 1.22021 10.1086 1.54225 10.1086 1.93726V3.7735C10.1086 4.81792 10.9574 5.66664 12 5.66664C13.0427 5.66664 13.8914 4.81792 13.8914 3.7735V1.93726C13.8914 1.54225 13.5694 1.22021 13.1744 1.22021ZM13.3576 3.7735C13.3576 4.52256 12.7491 5.13287 12 5.13287C11.251 5.13287 10.6425 4.52256 10.6425 3.7735V1.93726C10.6425 1.83582 10.7243 1.75398 10.8257 1.75398H13.1744C13.2758 1.75398 13.3577 1.83582 13.3577 1.93726V3.7735H13.3576Z" fill="#2563EB"/>
<path d="M20.1527 1.22021H17.804C17.4072 1.22021 17.0852 1.54225 17.0852 1.93726V3.7735C17.0852 4.81792 17.9339 5.66664 18.9783 5.66664C20.021 5.66664 20.8697 4.81792 20.8697 3.7735V1.93726C20.8698 1.54225 20.5477 1.22021 20.1527 1.22021ZM20.336 3.7735C20.336 4.52256 19.7275 5.13287 18.9784 5.13287C18.2293 5.13287 17.619 4.52256 17.619 3.7735V1.93726C17.619 1.83582 17.7026 1.75398 17.8041 1.75398H20.1528C20.2542 1.75398 20.336 1.83582 20.336 1.93726L20.336 3.7735Z" fill="#2563EB"/>
</svg>
