<svg width="24" height="24" viewBox="0 0 24 24" fill="none" xmlns="http://www.w3.org/2000/svg">
<path d="M18.75 6.375H15.75C15.6505 6.375 15.5552 6.33549 15.4848 6.26517C15.4145 6.19484 15.375 6.09946 15.375 6C15.375 5.90054 15.4145 5.80516 15.4848 5.73484C15.5552 5.66451 15.6505 5.625 15.75 5.625H18.75C18.8495 5.625 18.9448 5.58549 19.0152 5.51516C19.0855 5.44484 19.125 5.34946 19.125 5.25V1.5C19.125 1.40054 19.0855 1.30516 19.0152 1.23483C18.9448 1.16451 18.8495 1.125 18.75 1.125H3C2.90054 1.125 2.80516 1.16451 2.73484 1.23483C2.66451 1.30516 2.625 1.40054 2.625 1.5V5.25C2.625 5.34946 2.66451 5.44484 2.73484 5.51516C2.80516 5.58549 2.90054 5.625 3 5.625H6C6.09946 5.625 6.19484 5.66451 6.26517 5.73484C6.33549 5.80516 6.375 5.90054 6.375 6C6.375 6.09946 6.33549 6.19484 6.26517 6.26517C6.19484 6.33549 6.09946 6.375 6 6.375H3C2.70163 6.375 2.41548 6.25647 2.2045 6.0455C1.99353 5.83452 1.875 5.54837 1.875 5.25V1.5C1.875 1.20163 1.99353 0.915483 2.2045 0.704505C2.41548 0.493526 2.70163 0.375 3 0.375H18.75C19.0484 0.375 19.3345 0.493526 19.5455 0.704505C19.7565 0.915483 19.875 1.20163 19.875 1.5V5.25C19.875 5.54837 19.7565 5.83452 19.5455 6.0455C19.3345 6.25647 19.0484 6.375 18.75 6.375Z" fill="#2563EB"/>
<path d="M18 4.875H15.75C15.6505 4.875 15.5552 4.83549 15.4848 4.76516C15.4145 4.69484 15.375 4.59946 15.375 4.5C15.375 4.40054 15.4145 4.30516 15.4848 4.23484C15.5552 4.16451 15.6505 4.125 15.75 4.125H17.625V2.625H4.125V4.125H6C6.09946 4.125 6.19484 4.16451 6.26517 4.23484C6.33549 4.30516 6.375 4.40054 6.375 4.5C6.375 4.59946 6.33549 4.69484 6.26517 4.76516C6.19484 4.83549 6.09946 4.875 6 4.875H3.75C3.65054 4.875 3.55516 4.83549 3.48484 4.76516C3.41451 4.69484 3.375 4.59946 3.375 4.5V2.25C3.375 2.15054 3.41451 2.05516 3.48484 1.98484C3.55516 1.91451 3.65054 1.875 3.75 1.875H18C18.0995 1.875 18.1948 1.91451 18.2652 1.98484C18.3355 2.05516 18.375 2.15054 18.375 2.25V4.5C18.375 4.59946 18.3355 4.69484 18.2652 4.76516C18.1948 4.83549 18.0995 4.875 18 4.875Z" fill="#2563EB"/>
<path d="M3.75 20.2499C3.65054 20.2499 3.55516 20.2104 3.48484 20.1401C3.41451 20.0698 3.375 19.9744 3.375 19.8749V12.7499C3.37491 12.6819 3.39345 12.6151 3.42863 12.5568L5.67863 8.80682C5.7298 8.72154 5.81275 8.66008 5.90924 8.63595C6.00572 8.61183 6.10784 8.62703 6.19313 8.6782C6.27841 8.72937 6.33987 8.81232 6.36399 8.90881C6.38812 9.0053 6.37292 9.10741 6.32175 9.1927L4.125 12.8538V19.8749C4.125 19.9744 4.08549 20.0698 4.01517 20.1401C3.94484 20.2104 3.84946 20.2499 3.75 20.2499Z" fill="#2563EB"/>
<path d="M11.25 20.25C11.1505 20.25 11.0552 20.2105 10.9848 20.1402C10.9145 20.0698 10.875 19.9745 10.875 19.875V18C10.875 17.9005 10.9145 17.8052 10.9848 17.7348C11.0552 17.6645 11.1505 17.625 11.25 17.625C11.3495 17.625 11.4448 17.6645 11.5152 17.7348C11.5855 17.8052 11.625 17.9005 11.625 18V19.875C11.625 19.9745 11.5855 20.0698 11.5152 20.1402C11.4448 20.2105 11.3495 20.25 11.25 20.25Z" fill="#2563EB"/>
<path d="M15.75 15.825C15.6505 15.825 15.5552 15.7855 15.4848 15.7152C15.4145 15.6448 15.375 15.5495 15.375 15.45V3.375C15.375 3.27554 15.4145 3.18016 15.4848 3.10984C15.5552 3.03951 15.6505 3 15.75 3C15.8495 3 15.9448 3.03951 16.0152 3.10984C16.0855 3.18016 16.125 3.27554 16.125 3.375V15.45C16.125 15.5495 16.0855 15.6448 16.0152 15.7152C15.9448 15.7855 15.8495 15.825 15.75 15.825Z" fill="#2563EB"/>
<path d="M6 14.2162C5.90054 14.2162 5.80516 14.1767 5.73484 14.1064C5.66451 14.0361 5.625 13.9407 5.625 13.8412V3.375C5.625 3.27554 5.66451 3.18016 5.73484 3.10984C5.80516 3.03951 5.90054 3 6 3C6.09946 3 6.19484 3.03951 6.26517 3.10984C6.33549 3.18016 6.375 3.27554 6.375 3.375V13.8412C6.375 13.9407 6.33549 14.0361 6.26517 14.1064C6.19484 14.1767 6.09946 14.2162 6 14.2162Z" fill="#2563EB"/>
<path d="M11.625 23.625H3C2.90054 23.625 2.80516 23.5855 2.73484 23.5152C2.66451 23.4448 2.625 23.3495 2.625 23.25V19.875C2.625 19.7755 2.66451 19.6802 2.73484 19.6098C2.80516 19.5395 2.90054 19.5 3 19.5H11.625C11.7245 19.5 11.8198 19.5395 11.8902 19.6098C11.9605 19.6802 12 19.7755 12 19.875V23.25C12 23.3495 11.9605 23.4448 11.8902 23.5152C11.8198 23.5855 11.7245 23.625 11.625 23.625ZM3.375 22.875H11.25V20.25H3.375V22.875Z" fill="#2563EB"/>
<path d="M7.5 12.7238C7.40054 12.7238 7.30516 12.6842 7.23483 12.6139C7.16451 12.5436 7.125 12.4482 7.125 12.3488V3.375C7.125 3.27554 7.16451 3.18016 7.23483 3.10984C7.30516 3.03951 7.40054 3 7.5 3C7.59946 3 7.69484 3.03951 7.76517 3.10984C7.83549 3.18016 7.875 3.27554 7.875 3.375V12.3488C7.875 12.4482 7.83549 12.5436 7.76517 12.6139C7.69484 12.6842 7.59946 12.7238 7.5 12.7238Z" fill="#2563EB"/>
<path d="M10.875 12C10.3558 12 9.84831 11.846 9.41663 11.5576C8.98495 11.2692 8.6485 10.8592 8.44982 10.3795C8.25114 9.89989 8.19915 9.37209 8.30044 8.86289C8.40173 8.35369 8.65173 7.88596 9.01885 7.51885C9.38596 7.15173 9.85369 6.90173 10.3629 6.80044C10.8721 6.69915 11.3999 6.75114 11.8795 6.94982C12.3592 7.1485 12.7692 7.48495 13.0576 7.91663C13.346 8.34831 13.5 8.85583 13.5 9.375C13.4992 10.071 13.2224 10.7382 12.7303 11.2303C12.2382 11.7224 11.571 11.9992 10.875 12ZM10.875 7.5C10.5042 7.5 10.1416 7.60997 9.83331 7.816C9.52497 8.02202 9.28464 8.31486 9.14273 8.65747C9.00081 9.00008 8.96368 9.37708 9.03603 9.7408C9.10838 10.1045 9.28695 10.4386 9.54918 10.7008C9.8114 10.9631 10.1455 11.1416 10.5092 11.214C10.8729 11.2863 11.2499 11.2492 11.5925 11.1073C11.9351 10.9654 12.228 10.725 12.434 10.4167C12.64 10.1084 12.75 9.74584 12.75 9.375C12.7494 8.8779 12.5517 8.40134 12.2002 8.04983C11.8487 7.69833 11.3721 7.5006 10.875 7.5Z" fill="#2563EB"/>
<path d="M13.6575 18.375H6.00004C5.90059 18.375 5.8052 18.3355 5.73488 18.2652C5.66455 18.1949 5.62504 18.0995 5.62504 18V16.8788C5.62501 16.7779 5.66476 16.681 5.73567 16.6092L8.79454 13.5675C8.85967 13.5029 8.91136 13.426 8.94663 13.3413C8.98191 13.2566 9.00007 13.1658 9.00007 13.074C9.00007 12.9823 8.98191 12.8915 8.94663 12.8068C8.91136 12.7221 8.85967 12.6452 8.79454 12.5805C8.66187 12.449 8.48262 12.3752 8.29579 12.3752C8.10897 12.3752 7.92971 12.449 7.79704 12.5805L5.88942 14.4788C5.85472 14.5145 5.81326 14.5429 5.76746 14.5625C5.72165 14.582 5.67242 14.5922 5.62264 14.5925C5.57285 14.5927 5.52351 14.5831 5.47748 14.5641C5.43146 14.5451 5.38967 14.5172 5.35457 14.4819C5.31946 14.4466 5.29174 14.4046 5.27302 14.3585C5.25429 14.3124 5.24494 14.263 5.24551 14.2132C5.24608 14.1634 5.25655 14.1142 5.27632 14.0685C5.29609 14.0228 5.32477 13.9815 5.36067 13.947L7.26829 12.0488C7.54167 11.7779 7.91095 11.626 8.29579 11.626C8.68064 11.626 9.04991 11.7779 9.32329 12.0488C9.45849 12.1831 9.56578 12.3429 9.639 12.5188C9.71222 12.6948 9.74991 12.8835 9.74991 13.074C9.74991 13.2646 9.71222 13.4533 9.639 13.6293C9.56578 13.8052 9.45849 13.965 9.32329 14.0993L6.37504 17.031V17.625H13.6575C13.757 17.625 13.8524 17.6646 13.9227 17.7349C13.993 17.8052 14.0325 17.9006 14.0325 18C14.0325 18.0995 13.993 18.1949 13.9227 18.2652C13.8524 18.3355 13.757 18.375 13.6575 18.375Z" fill="#2563EB"/>
<path d="M16.875 3.75H4.875C4.77554 3.75 4.68016 3.71049 4.60984 3.64016C4.53951 3.56984 4.5 3.47446 4.5 3.375C4.5 3.27554 4.53951 3.18016 4.60984 3.10984C4.68016 3.03951 4.77554 3 4.875 3H16.875C16.9745 3 17.0698 3.03951 17.1402 3.10984C17.2105 3.18016 17.25 3.27554 17.25 3.375C17.25 3.47446 17.2105 3.56984 17.1402 3.64016C17.0698 3.71049 16.9745 3.75 16.875 3.75Z" fill="#2563EB"/>
<path d="M17.625 23.625C16.735 23.625 15.865 23.3611 15.1249 22.8666C14.3849 22.3721 13.8081 21.6693 13.4675 20.8471C13.1269 20.0248 13.0378 19.12 13.2115 18.2471C13.3851 17.3742 13.8137 16.5724 14.443 15.943C15.0724 15.3137 15.8742 14.8851 16.7471 14.7115C17.62 14.5378 18.5248 14.6269 19.3471 14.9675C20.1693 15.3081 20.8721 15.8849 21.3666 16.6249C21.8611 17.365 22.125 18.235 22.125 19.125C22.1237 20.3181 21.6492 21.4619 20.8056 22.3056C19.9619 23.1492 18.8181 23.6237 17.625 23.625ZM17.625 15.375C16.8833 15.375 16.1583 15.5949 15.5416 16.007C14.9249 16.419 14.4443 17.0047 14.1605 17.6899C13.8766 18.3752 13.8024 19.1292 13.9471 19.8566C14.0918 20.584 14.4489 21.2522 14.9734 21.7767C15.4978 22.3011 16.166 22.6583 16.8934 22.8029C17.6208 22.9476 18.3748 22.8734 19.0601 22.5896C19.7453 22.3057 20.331 21.8251 20.743 21.2084C21.1551 20.5917 21.375 19.8667 21.375 19.125C21.3738 18.1308 20.9783 17.1777 20.2753 16.4747C19.5723 15.7717 18.6192 15.3762 17.625 15.375Z" fill="#2563EB"/>
<path d="M17.625 21.75C17.5256 21.75 17.4302 21.7105 17.3599 21.6402L15.8599 20.1402C15.7916 20.0694 15.7538 19.9747 15.7547 19.8764C15.7555 19.7781 15.7949 19.684 15.8645 19.6145C15.934 19.5449 16.0281 19.5055 16.1264 19.5047C16.2247 19.5038 16.3194 19.5416 16.3902 19.6099L17.625 20.8448L18.8599 19.6099C18.9306 19.5416 19.0254 19.5038 19.1237 19.5047C19.222 19.5055 19.3161 19.5449 19.3856 19.6145C19.4551 19.684 19.4946 19.7781 19.4954 19.8764C19.4963 19.9747 19.4585 20.0694 19.3902 20.1402L17.8902 21.6402C17.8198 21.7105 17.7245 21.75 17.625 21.75Z" fill="#2563EB"/>
<path d="M17.625 21.75C17.5255 21.75 17.4302 21.7105 17.3598 21.6402C17.2895 21.5698 17.25 21.4745 17.25 21.375V16.875C17.25 16.7755 17.2895 16.6802 17.3598 16.6098C17.4302 16.5395 17.5255 16.5 17.625 16.5C17.7245 16.5 17.8198 16.5395 17.8902 16.6098C17.9605 16.6802 18 16.7755 18 16.875V21.375C18 21.4745 17.9605 21.5698 17.8902 21.6402C17.8198 21.7105 17.7245 21.75 17.625 21.75Z" fill="#2563EB"/>
<path d="M12.7499 16.875H8.99995C8.90049 16.875 8.80511 16.8355 8.73478 16.7652C8.66445 16.6948 8.62495 16.5995 8.62495 16.5C8.62538 16.2466 8.53994 16.0005 8.38256 15.8018C8.22518 15.6032 8.00514 15.4637 7.75832 15.4061C7.66446 15.3805 7.58421 15.3195 7.53452 15.2358C7.48484 15.1522 7.46961 15.0525 7.49204 14.9578C7.51448 14.8632 7.57283 14.7809 7.65477 14.7285C7.73672 14.676 7.83583 14.6575 7.9312 14.6768C8.27972 14.758 8.59756 14.9377 8.84686 15.1945C9.09617 15.4513 9.26646 15.7742 9.33745 16.125H12.4124C12.4866 15.765 12.6647 15.4346 12.9246 15.1746C13.1845 14.9147 13.5149 14.7367 13.8749 14.6625V3.375C13.8749 3.27554 13.9145 3.18016 13.9848 3.10984C14.0551 3.03951 14.1505 3 14.2499 3C14.3494 3 14.4448 3.03951 14.5151 3.10984C14.5854 3.18016 14.6249 3.27554 14.6249 3.375V15C14.6249 15.0995 14.5854 15.1948 14.5151 15.2652C14.4448 15.3355 14.3494 15.375 14.2499 15.375C13.9516 15.375 13.6654 15.4935 13.4545 15.7045C13.2435 15.9155 13.1249 16.2016 13.1249 16.5C13.1249 16.5995 13.0854 16.6948 13.0151 16.7652C12.9448 16.8355 12.8494 16.875 12.7499 16.875Z" fill="#2563EB"/>
</svg>
