<svg width="24" height="24" viewBox="0 0 24 24" fill="none" xmlns="http://www.w3.org/2000/svg">
<path d="M21.2767 5.95007H17.6978C17.9201 5.66135 18.0502 5.31455 18.0502 4.94183C18.0502 3.78839 17.4622 3.12671 16.4369 3.12671C15.4294 3.12671 14.2267 4.22903 13.6135 5.24039C13.0003 4.22903 11.7977 3.12671 10.7902 3.12671C9.76487 3.12671 9.17687 3.78815 9.17687 4.94183C9.17687 5.31479 9.30695 5.66159 9.52919 5.95007H5.95007C5.72735 5.95007 5.54687 6.13055 5.54687 6.35327V8.77319C5.54687 8.99591 5.72735 9.17663 5.95007 9.17663H6.35351V12.0247C5.87855 12.0665 5.41055 12.1814 4.97399 12.3749C4.76831 12.4637 4.67567 12.7017 4.76447 12.9074C4.76759 12.9141 4.77215 12.9199 4.77551 12.9264C4.87127 13.11 5.10599 13.1947 5.29679 13.1129C5.63183 12.9648 5.98967 12.8719 6.35351 12.8325C6.48743 12.8181 6.62207 12.8105 6.75695 12.8105C6.89159 12.8107 7.02623 12.8186 7.16015 12.8335C7.66775 12.8889 8.16383 13.0483 8.60399 13.3106C9.70535 13.9639 10.387 15.162 10.387 16.4366C10.3853 17.1818 10.157 17.8759 9.76823 18.4533C9.67271 18.5952 9.56711 18.7298 9.45335 18.8565C9.32231 19.0022 9.17975 19.1369 9.02735 19.26C8.40479 19.7623 7.61519 20.0649 6.75719 20.0666C4.76063 20.0625 3.13103 18.4329 3.12719 16.4366C3.12719 16.001 3.20375 15.5736 3.35303 15.1661C3.43103 14.9666 3.33023 14.7422 3.13679 14.6585C3.13055 14.6561 3.12527 14.6522 3.11903 14.6498C2.91311 14.5733 2.67527 14.6822 2.59871 14.8838C2.41319 15.3799 2.32031 15.9041 2.32031 16.4366C2.32031 18.8808 4.31279 20.8733 6.75719 20.8733C8.13239 20.8733 9.36263 20.2445 10.1767 19.26H13.6138H20.4703C20.693 19.26 20.8738 19.0795 20.8738 18.8565V12.4032V9.17663H21.2772C21.4999 9.17663 21.6804 8.99615 21.6804 8.77319V6.35327C21.6799 6.13055 21.4994 5.95007 21.2767 5.95007ZM20.8733 8.36999H20.4698H14.0167V6.75671H15.9662H20.8733V8.36999ZM20.0666 12H14.0167V9.17663H20.0666V12ZM20.0666 18.4533H14.0167V12.8066H20.0666V18.4533ZM11.1934 16.4366C11.1934 14.9921 10.4772 13.6313 9.30575 12.8066H13.2098V18.4533H10.7064C11.017 17.8476 11.1934 17.1624 11.1934 16.4366ZM9.98327 4.94159C9.98327 4.05527 10.3711 3.93335 10.7899 3.93335C11.598 3.93335 12.7198 5.18639 13.0877 5.95007H11.2606C10.5562 5.95007 9.98327 5.49743 9.98327 4.94159ZM16.4366 3.93335C16.8554 3.93335 17.2433 4.05551 17.2433 4.94159C17.2433 5.49743 16.6704 5.94983 15.9662 5.94983H14.1389C14.5068 5.18639 15.6286 3.93335 16.4366 3.93335ZM6.35327 6.75671H11.2606H13.2098V8.36999H6.75671H6.35327V6.75671ZM7.15991 9.17663H13.2098V12H7.15991V9.17663ZM15.63 17.6467H18.8568C19.0795 17.6467 19.2602 17.4662 19.2602 17.2433V14.0167C19.2602 13.794 19.0798 13.6133 18.8568 13.6133H15.63C15.4073 13.6133 15.2266 13.7937 15.2266 14.0167V17.2433C15.2266 17.466 15.4073 17.6467 15.63 17.6467ZM16.0332 14.4199H18.4534V16.8401H16.0332V14.4199ZM3.54623 13.9601C3.46967 13.8873 3.42527 13.7865 3.42119 13.6778C3.42119 13.5689 3.45743 13.4681 3.53399 13.3915C3.67919 13.2343 3.94535 13.2261 4.10279 13.3752C4.10759 13.38 4.11143 13.3857 4.11599 13.3905C4.18367 13.4618 4.22399 13.5557 4.22783 13.6577C4.23191 13.7623 4.19135 13.8672 4.11887 13.944C4.04231 14.0249 3.93743 14.069 3.82439 14.069C3.73055 14.069 3.63767 14.0364 3.56351 13.9735C3.55799 13.9687 3.55151 13.9651 3.54623 13.9601ZM6.75671 19.26C7.28567 19.26 7.77959 19.1109 8.20343 18.8565C8.39399 18.7423 8.57087 18.6077 8.72879 18.4533C9.25319 17.9405 9.57983 17.2265 9.57983 16.4366C9.57983 15.017 8.52575 13.8422 7.15991 13.6454C7.02767 13.6265 6.89399 13.6133 6.75671 13.6133C6.61943 13.6133 6.48551 13.6265 6.35327 13.6454C4.98743 13.8422 3.93335 15.017 3.93335 16.4366C3.93335 17.9935 5.20007 19.26 6.75671 19.26ZM6.35327 14.4607C6.48359 14.4341 6.61847 14.4201 6.75671 14.4201C6.89471 14.4201 7.02959 14.4343 7.15991 14.4607C8.07935 14.6481 8.77319 15.4627 8.77319 16.4366C8.77319 17.4103 8.07935 18.2251 7.15991 18.4125C7.02959 18.4392 6.89471 18.4533 6.75671 18.4533C6.61847 18.4533 6.48383 18.4392 6.35327 18.4125C5.43383 18.2251 4.73999 17.4103 4.73999 16.4366C4.73999 15.4627 5.43407 14.6481 6.35327 14.4607ZM5.96183 15.63C5.96183 15.4113 6.13607 15.2342 6.35327 15.2277C6.35711 15.2277 6.36095 15.2265 6.36503 15.2265H6.75647H7.15967H7.17143C7.30703 15.2265 7.43375 15.2947 7.50815 15.4082C7.58279 15.5215 7.59551 15.6645 7.54175 15.7893L7.15943 16.6783L6.84815 17.4026C6.82607 17.454 6.79415 17.4977 6.75623 17.5339C6.68135 17.6057 6.58127 17.6467 6.47735 17.6469C6.43583 17.6469 6.39383 17.6383 6.35279 17.6246C6.34127 17.6208 6.32975 17.6186 6.31823 17.6136C6.11351 17.5257 6.01919 17.2884 6.10727 17.0839L6.35279 16.5125L6.55871 16.0332H6.36455C6.36047 16.0332 6.35663 16.0322 6.35279 16.032C6.13631 16.0257 5.96183 15.8486 5.96183 15.63Z" fill="#2563EB"/>
</svg>
