<svg width="24" height="24" viewBox="0 0 24 24" fill="none" xmlns="http://www.w3.org/2000/svg">
<g clip-path="url(#clip0_413_6679)">
<path fill-rule="evenodd" clip-rule="evenodd" d="M8.25 0C6.8047 0 5.625 1.1797 5.625 2.625V9H0.375C0.167902 9.00002 2.07075e-05 9.1679 0 9.375V23.625C2.07075e-05 23.8321 0.167902 24 0.375 24H23.625C23.8321 24 24 23.8321 24 23.625V9.375C24 9.1679 23.8321 9.00002 23.625 9H18.375V2.625C18.375 1.1797 17.1953 0 15.75 0H8.25ZM8.25 0.75H15.75C16.79 0.75 17.625 1.58502 17.625 2.625V16.125H16.125V15.375C16.125 15.1679 15.9571 15 15.75 15C15.5429 15 15.375 15.1679 15.375 15.375V16.125H8.625V15.375C8.625 15.1679 8.45711 15 8.25 15C8.04289 15 7.875 15.1679 7.875 15.375V16.125H6.375V2.625C6.375 1.58502 7.21003 0.75 8.25 0.75ZM9.71118 2.25C9.53303 2.24985 9.37936 2.37506 9.34351 2.54956C9.2229 3.13915 8.76415 3.5979 8.17456 3.71851C8.00006 3.75436 7.87485 3.90803 7.875 4.08618V6.375C7.875 6.58211 8.04289 6.75 8.25 6.75C8.45711 6.75 8.625 6.58211 8.625 6.375V4.34473C9.25552 4.11788 9.74288 3.63052 9.96973 3H14.053C14.2805 3.61686 14.7581 4.09446 15.375 4.32202V6.375C15.375 6.58211 15.5429 6.75 15.75 6.75C15.9571 6.75 16.125 6.58211 16.125 6.375V4.06567C16.1251 3.88869 16.0014 3.73573 15.8284 3.69873C15.2498 3.5748 14.8002 3.12516 14.6763 2.54663C14.6393 2.37356 14.4863 2.24991 14.3093 2.25H9.71118ZM12 3.75C11.3831 3.75 10.875 4.25812 10.875 4.875C10.875 5.49188 11.3831 6 12 6C12.6169 6 13.125 5.49188 13.125 4.875C13.125 4.25812 12.6169 3.75 12 3.75ZM12 4.5C12.2115 4.5 12.375 4.66345 12.375 4.875C12.375 5.08655 12.2115 5.25 12 5.25C11.7885 5.25 11.625 5.08655 11.625 4.875C11.625 4.66345 11.7885 4.5 12 4.5ZM12 6.75C9.72627 6.75 7.875 8.60127 7.875 10.875C7.875 13.1487 9.72627 15 12 15C14.2737 15 16.125 13.1487 16.125 10.875C16.125 8.60127 14.2737 6.75 12 6.75ZM12 7.5C13.8684 7.5 15.375 9.0066 15.375 10.875C15.375 12.7434 13.8684 14.25 12 14.25C10.1316 14.25 8.625 12.7434 8.625 10.875C8.625 9.0066 10.1316 7.5 12 7.5ZM12.75 9.375C12.1331 9.375 11.625 9.88312 11.625 10.5H10.875V10.4341C10.875 10.2856 10.9607 10.153 11.0962 10.092C11.2851 10.0071 11.3694 9.78509 11.2844 9.59619C11.1995 9.40727 10.9775 9.32299 10.7886 9.40796C10.3857 9.58922 10.125 9.9923 10.125 10.4341V10.5H9.75C9.54289 10.5 9.375 10.6679 9.375 10.875C9.375 11.0821 9.54289 11.25 9.75 11.25H10.125C10.125 11.8669 10.6331 12.375 11.25 12.375C11.8669 12.375 12.375 11.8669 12.375 11.25H13.125V11.3159C13.125 11.4644 13.0392 11.597 12.9038 11.658C12.7149 11.7429 12.6306 11.9649 12.7156 12.1538C12.8005 12.3427 13.0225 12.427 13.2114 12.342C13.6143 12.1608 13.875 11.7577 13.875 11.3159V11.25H14.25C14.4571 11.25 14.625 11.0821 14.625 10.875C14.625 10.6679 14.4571 10.5 14.25 10.5H13.875C13.875 9.88313 13.3669 9.375 12.75 9.375ZM0.75 9.75H5.625V14.625H5.25C4.63312 14.625 4.125 15.1331 4.125 15.75V16.5V17.25C4.125 17.8669 4.63312 18.375 5.25 18.375H18.75C19.3669 18.375 19.875 17.8669 19.875 17.25V16.5V15.75C19.875 15.1331 19.3669 14.625 18.75 14.625H18.375V9.75H23.25V23.25H0.75V9.75ZM12.75 10.125C12.9615 10.125 13.125 10.2884 13.125 10.5H12.375C12.375 10.2885 12.5385 10.125 12.75 10.125ZM10.875 11.25H11.625C11.625 11.4615 11.4615 11.625 11.25 11.625C11.0385 11.625 10.875 11.4615 10.875 11.25ZM5.25 15.375H5.625V16.125H4.875V15.75C4.875 15.5385 5.03845 15.375 5.25 15.375ZM18.375 15.375H18.75C18.9615 15.375 19.125 15.5385 19.125 15.75V16.125H18.375V15.375ZM4.875 16.875H19.125V17.25C19.125 17.4615 18.9615 17.625 18.75 17.625H5.25C5.03845 17.625 4.875 17.4615 4.875 17.25V16.875ZM12 19.125C11.7929 19.125 11.625 19.2929 11.625 19.5V21.2197L11.5151 21.1099C11.3687 20.9635 11.1313 20.9635 10.9849 21.1099C10.8385 21.2563 10.8385 21.4937 10.9849 21.6401L11.7349 22.3901C11.8833 22.5344 12.1167 22.5344 12.2651 22.3901L13.0151 21.6401C13.1615 21.4937 13.1615 21.2563 13.0151 21.1099C12.8687 20.9635 12.6313 20.9635 12.4849 21.1099L12.375 21.2197V19.5C12.375 19.2929 12.2071 19.125 12 19.125Z" fill="#2563EB"/>
</g>
<defs>
<clipPath id="clip0_413_6679">
<rect width="24" height="24" fill="white"/>
</clipPath>
</defs>
</svg>
