<svg width="24" height="24" viewBox="0 0 24 24" fill="none" xmlns="http://www.w3.org/2000/svg">
<path fill-rule="evenodd" clip-rule="evenodd" d="M10.1219 18.673H8.24806C7.84258 18.673 7.51257 18.3432 7.51257 17.9377L7.51269 14.2354C7.51269 13.8299 7.8427 13.5002 8.24806 13.5002H10.1219C10.5272 13.5002 10.8571 13.8299 10.8571 14.2354V17.9377C10.8572 18.3432 10.5272 18.673 10.1219 18.673ZM8.24806 14.0452C8.14486 14.0452 8.05786 14.1323 8.05786 14.2354V17.9377C8.05786 18.0426 8.14318 18.1281 8.24806 18.1281H10.1219C10.2266 18.1281 10.3121 18.0427 10.3121 17.9377L10.3119 14.2354C10.3119 14.1306 10.2269 14.0452 10.1219 14.0452H8.24806Z" fill="#2563EB"/>
<path fill-rule="evenodd" clip-rule="evenodd" d="M14.4606 18.673H12.6219C12.2068 18.673 11.869 18.3352 11.869 17.9201V14.2529C11.869 13.8377 12.2069 13.5001 12.6219 13.5001H14.9409C15.0914 13.5001 15.2134 13.6222 15.2134 13.7726C15.2134 13.9231 15.0914 14.0452 14.9409 14.0452H12.6219C12.5074 14.0452 12.4142 14.1383 12.4142 14.2529V15.814H14.4607C14.8758 15.814 15.2136 16.1518 15.2136 16.5669V17.9202C15.2136 18.3351 14.8758 18.6729 14.4607 18.6729L14.4606 18.673ZM12.4141 16.3591V17.9203C12.4141 18.0348 12.5073 18.1281 12.6218 18.1281H14.4604C14.5749 18.1281 14.6682 18.0348 14.6682 17.9203V16.567C14.6682 16.4544 14.5729 16.3591 14.4604 16.3591H12.4139H12.4141Z" fill="#2563EB"/>
<path fill-rule="evenodd" clip-rule="evenodd" d="M9.7056 9.9709C9.555 9.9709 9.43308 9.84886 9.43308 9.69838V8.30709L9.12684 8.73598C9.07572 8.8075 8.99304 8.85022 8.90508 8.85022C8.81712 8.85022 8.73444 8.80774 8.68332 8.73598L8.3772 8.30721V9.69838C8.3772 9.84886 8.25516 9.9709 8.10467 9.9709C7.95419 9.9709 7.83215 9.84886 7.83215 9.69838L7.83227 7.45665C7.83227 7.33821 7.90883 7.23333 8.02163 7.19709C8.1348 7.16109 8.25792 7.20177 8.32668 7.29813L8.90532 8.10849L9.4842 7.29813C9.55296 7.20165 9.67632 7.16073 9.78912 7.19709C9.90192 7.23333 9.97848 7.33809 9.97848 7.45665V9.69838C9.9786 9.84898 9.85644 9.9709 9.70584 9.9709H9.7056Z" fill="#2563EB"/>
<path fill-rule="evenodd" clip-rule="evenodd" d="M12.0096 9.97097C11.859 9.97097 11.7371 9.84893 11.7371 9.69845V8.76665H11.1079V9.69845C11.1079 9.84905 10.9859 9.97097 10.8354 9.97097C10.6849 9.97097 10.5629 9.84893 10.5629 9.69845V7.9504C10.5629 7.528 10.9071 7.18396 11.3302 7.18396H11.5148C11.938 7.18396 12.2822 7.52776 12.2822 7.9504V9.69821C12.2821 9.84905 12.1602 9.97097 12.0096 9.97097ZM11.1078 8.22137H11.737V7.9504C11.737 7.82836 11.6372 7.72924 11.5147 7.72924H11.33C11.2075 7.72924 11.1078 7.82836 11.1078 7.9504V8.22137Z" fill="#2563EB"/>
<path fill-rule="evenodd" clip-rule="evenodd" d="M13.8804 9.97099C13.7299 9.97099 13.6079 9.84895 13.6079 9.69847V8.73583L12.9071 7.5999C12.828 7.47174 12.8679 7.30386 12.996 7.22478C13.1237 7.1457 13.2919 7.18554 13.3711 7.31346L13.8807 8.13942L14.3903 7.31346C14.4691 7.1853 14.6371 7.14546 14.7654 7.22478C14.8936 7.30386 14.9333 7.47174 14.8543 7.5999L14.1534 8.73583V9.69847C14.1531 9.84907 14.0311 9.97099 13.8805 9.97099H13.8804Z" fill="#2563EB"/>
<path fill-rule="evenodd" clip-rule="evenodd" d="M18.8052 22.24H5.41993C4.06837 22.24 2.96076 21.1826 2.89848 19.8328C2.89272 19.7073 2.97384 19.5936 3.09444 19.5586C3.21552 19.5236 3.34464 19.5755 3.40716 19.6848C3.66745 20.1388 4.15153 20.4208 4.67053 20.4208H18.0556C18.8577 20.4208 19.5103 19.7684 19.5103 18.9663V5.58105C19.5103 5.06229 19.2282 4.5782 18.7741 4.3178C18.6648 4.25516 18.6127 4.12604 18.6478 4.00508C18.6832 3.884 18.8024 3.80492 18.922 3.80912C20.2718 3.8714 21.3293 4.97901 21.3293 6.33057V19.7158C21.3293 21.1076 20.197 22.2399 18.8053 22.2399L18.8052 22.24ZM3.71257 20.7194C4.05685 21.3053 4.69321 21.6951 5.41969 21.6951H18.8049C19.8962 21.6951 20.784 20.8072 20.784 19.7159V6.33057C20.784 5.60409 20.3944 4.96773 19.8085 4.62344C19.9672 4.91313 20.0551 5.24169 20.0551 5.58105V18.9663C20.0551 20.0687 19.1581 20.9658 18.0554 20.9658H4.67029C4.33069 20.9658 4.00225 20.8782 3.71245 20.7194H3.71257Z" fill="#2563EB"/>
<path fill-rule="evenodd" clip-rule="evenodd" d="M18.0558 20.9659H4.67059C3.56802 20.9659 2.6709 20.0689 2.6709 18.9663V5.58111C2.6709 4.47867 3.56802 3.58142 4.67059 3.58142H4.83019C4.98067 3.58142 5.10271 3.70346 5.10271 3.85394V4.91091C5.10271 5.18223 5.32339 5.40291 5.59471 5.40291C5.86615 5.40291 6.08684 5.18235 6.08684 4.91091V3.85394C6.08684 3.70346 6.20888 3.58142 6.35936 3.58142H8.67561C8.82621 3.58142 8.94813 3.70346 8.94813 3.85394V4.91091C8.94813 5.18223 9.16881 5.40291 9.44013 5.40291C9.71157 5.40291 9.93225 5.18235 9.93225 4.91091V3.85394C9.93225 3.70346 10.0543 3.58142 10.2048 3.58142H12.521C12.6715 3.58142 12.7935 3.70346 12.7935 3.85394V4.91091C12.7935 5.18223 13.0142 5.40291 13.2856 5.40291C13.557 5.40291 13.7776 5.18235 13.7776 4.91091V3.85394C13.7776 3.70346 13.8996 3.58142 14.0501 3.58142H16.3664C16.5169 3.58142 16.639 3.70346 16.639 3.85394V4.91091C16.639 5.18223 16.8596 5.40291 17.131 5.40291C17.4024 5.40291 17.623 5.18235 17.623 4.91091V3.85394C17.623 3.70346 17.745 3.58142 17.8955 3.58142H18.0551C19.1578 3.58142 20.0548 4.47855 20.0548 5.58111V18.9663C20.055 20.0688 19.1578 20.9659 18.0553 20.9659H18.0558ZM4.55767 4.1309C3.80814 4.18862 3.21606 4.81695 3.21606 5.58111V18.9663C3.21606 19.7682 3.86862 20.421 4.67071 20.421L18.0557 20.4209C18.8578 20.4209 19.5103 19.7684 19.5103 18.9663V5.58111C19.5103 4.81707 18.918 4.18874 18.1685 4.1309V4.91115C18.1685 5.48307 17.7034 5.94831 17.1313 5.94831C16.5593 5.94831 16.0942 5.48307 16.0942 4.91115V4.1267H14.323V4.91115C14.323 5.48307 13.8578 5.94831 13.2858 5.94831C12.7137 5.94831 12.2486 5.48307 12.2486 4.91115V4.1267H10.4774V4.91115C10.4774 5.48307 10.0122 5.94831 9.44025 5.94831C8.86833 5.94831 8.40309 5.48307 8.40309 4.91115V4.1267H6.63188V4.91115C6.63188 5.48307 6.16664 5.94831 5.59471 5.94831C5.02279 5.94831 4.55755 5.48307 4.55755 4.91115V4.1309H4.55767Z" fill="#2563EB"/>
<path fill-rule="evenodd" clip-rule="evenodd" d="M19.7829 11.7523H2.94342C2.79294 11.7523 2.6709 11.6303 2.6709 11.4798C2.6709 11.3292 2.79294 11.2073 2.94342 11.2073H19.7829C19.9335 11.2073 20.0554 11.3293 20.0554 11.4798C20.0554 11.6303 19.9333 11.7523 19.7829 11.7523Z" fill="#2563EB"/>
<path fill-rule="evenodd" clip-rule="evenodd" d="M17.1313 5.94803C16.5594 5.94803 16.0941 5.48279 16.0941 4.91086V2.79705C16.0941 2.22513 16.5592 1.75989 17.1313 1.75989C17.7033 1.75989 18.1684 2.22513 18.1684 2.79705V4.9111C18.1684 5.48291 17.7033 5.94803 17.1313 5.94803ZM17.1313 2.30493C16.86 2.30493 16.6393 2.52549 16.6393 2.79693V4.91098C16.6393 5.1823 16.86 5.40287 17.1313 5.40287C17.4027 5.40287 17.6233 5.1823 17.6233 4.91098V2.79693C17.6235 2.52561 17.4027 2.30493 17.1313 2.30493Z" fill="#2563EB"/>
<path fill-rule="evenodd" clip-rule="evenodd" d="M13.2861 5.94803C12.7141 5.94803 12.2488 5.48279 12.2488 4.91086V2.79705C12.2488 2.22513 12.7139 1.75989 13.2859 1.75989C13.858 1.75989 14.3231 2.22513 14.3231 2.79705V4.9111C14.3231 5.48291 13.858 5.94803 13.2862 5.94803H13.2861ZM13.2861 2.30493C13.0147 2.30493 12.7938 2.52549 12.7938 2.79693V4.91098C12.7938 5.1823 13.0145 5.40287 13.2858 5.40287H13.2859C13.5573 5.40287 13.7778 5.1823 13.7778 4.91098V2.79693C13.7778 2.52561 13.5573 2.30493 13.2859 2.30493H13.2861Z" fill="#2563EB"/>
<path fill-rule="evenodd" clip-rule="evenodd" d="M9.44048 5.94803C8.86856 5.94803 8.4032 5.48279 8.4032 4.91086V2.79705C8.4032 2.22513 8.86844 1.75989 9.44036 1.75989C10.0123 1.75989 10.4775 2.22513 10.4775 2.79705V4.9111C10.4774 5.48291 10.0124 5.94803 9.44048 5.94803ZM9.44048 2.30493C9.16916 2.30493 8.94848 2.52549 8.94848 2.79693V4.91098C8.94848 5.1823 9.16904 5.40287 9.44048 5.40287C9.7118 5.40287 9.93237 5.1823 9.93237 4.91098V2.79693C9.93237 2.52561 9.71156 2.30493 9.44048 2.30493Z" fill="#2563EB"/>
<path fill-rule="evenodd" clip-rule="evenodd" d="M5.59466 5.94803C5.02274 5.94803 4.5575 5.48279 4.5575 4.91086V2.79705C4.5575 2.22513 5.02274 1.75989 5.59466 1.75989C6.16658 1.75989 6.63195 2.22513 6.63195 2.79705V4.9111C6.63171 5.48291 6.16646 5.94803 5.59466 5.94803ZM5.59466 2.30493C5.32346 2.30493 5.10266 2.52549 5.10266 2.79693V4.91098C5.10266 5.1823 5.32334 5.40287 5.59454 5.40287C5.86574 5.40287 6.08654 5.1823 6.08654 4.91098V2.79693C6.08666 2.52561 5.86586 2.30493 5.59466 2.30493Z" fill="#2563EB"/>
</svg>
