<svg width="24" height="24" viewBox="0 0 24 24" fill="none" xmlns="http://www.w3.org/2000/svg">
<g clip-path="url(#clip0_413_6651)">
<path fill-rule="evenodd" clip-rule="evenodd" d="M8.26041 21.0122C5.60547 21.0122 4.88208 18.5465 4.88208 15.8568C4.88208 14.1126 5.15425 12.2971 6.38578 11.3263C7.66901 10.3148 9.82213 10.4828 10.8187 12.0489C11.5224 13.1548 11.6584 14.3695 11.6584 15.8764C11.6584 18.3313 11.1068 21.0122 8.26041 21.0122ZM8.26041 11.2482C5.85417 11.2482 5.44835 13.749 5.44835 15.8373C5.44835 18.2075 5.9711 20.4459 8.2799 20.4459C10.7175 20.4459 11.131 17.9552 11.131 15.8568C11.131 13.8044 10.7071 11.2482 8.26041 11.2482ZM15.1929 20.856H13.9822C13.8274 20.856 13.7068 20.7327 13.7088 20.5826C13.732 18.7725 14.4798 16.3692 15.3882 14.6461C15.7983 13.8649 16.2474 13.1619 16.7161 12.5566H12.6542C12.498 12.5566 12.3808 12.4394 12.3808 12.2832V11.131C12.3808 10.9748 12.498 10.8576 12.6542 10.8576H18.8446C19.0009 10.8576 19.118 10.9748 19.118 11.131V12.0293C19.118 12.1074 19.0985 12.166 19.0399 12.2246C17.7182 13.5895 16.4599 16.0817 15.8959 18.0244C15.6616 18.8056 15.5249 19.6648 15.4663 20.6022C15.4663 20.7389 15.3296 20.856 15.1929 20.856ZM14.2751 20.2897H14.9195C15.1122 18.1699 15.7246 16.3482 16.7552 14.4899C17.341 13.4354 17.9269 12.5762 18.5322 11.9317V11.424H12.9276V11.9903H17.3215C17.6096 11.9903 17.6513 12.2982 17.5363 12.4395C16.9504 13.1034 16.4036 13.9236 15.8959 14.8805C15.0641 16.464 14.374 18.6072 14.2751 20.2897ZM8.26041 20.0554C7.63551 20.0554 7.08874 19.7429 6.67865 19.1571C6.26857 18.5908 6.0733 17.5168 6.0733 15.8568C6.0733 14.2165 6.28811 13.1034 6.71774 12.4785C7.46117 11.4369 8.95208 11.3345 9.84223 12.5762C10.2523 13.1425 10.4476 14.236 10.4476 15.8764C10.4476 17.5168 10.2523 18.5908 9.84223 19.1767C9.45163 19.7624 8.90485 20.0554 8.26041 20.0554ZM8.26041 12.2246C6.81147 12.2246 6.63957 14.1407 6.63957 15.8568C6.63957 17.3605 6.81529 18.3564 7.14731 18.8251C7.7742 19.718 8.78604 19.719 9.4126 18.8251C10.0851 17.8655 10.0665 13.8056 9.4126 12.8886C9.08058 12.4394 8.70958 12.2246 8.26041 12.2246Z" fill="#2563EB"/>
<path fill-rule="evenodd" clip-rule="evenodd" d="M22.6916 23.7853H1.28883C0.566266 23.7853 0 23.1994 0 22.4769V3.31984C0 2.59728 0.585865 2.01147 1.28883 2.01147H2.83155C3.19402 2.01147 3.19402 2.55825 2.83155 2.55825H1.28883C0.878743 2.55825 0.566266 2.89022 0.566266 3.3003V22.4574C0.566266 22.8479 0.898231 23.1994 1.28883 23.1994L22.6916 23.1995C23.1017 23.1995 23.4337 22.8675 23.4337 22.4574V3.31984C23.4337 2.90976 23.1017 2.5778 22.6916 2.5778H21.1489C20.7864 2.5778 20.7864 2.03102 21.1489 2.03102H22.6916C23.4142 2.03102 24 2.61688 24 3.33939V22.4964C24 23.1995 23.4141 23.7853 22.6916 23.7853ZM19.4499 2.59734H15.6224C15.26 2.59734 15.26 2.05056 15.6224 2.05056H19.4499C19.8124 2.05056 19.8124 2.59734 19.4499 2.59734ZM13.9235 2.59734H10.0765C9.71401 2.59734 9.71401 2.05056 10.0765 2.05056H13.904C14.2635 2.05056 14.2666 2.59734 13.9235 2.59734ZM8.37757 2.59734H4.55006C4.18759 2.59734 4.18759 2.05056 4.55006 2.05056H8.37757C8.74004 2.05056 8.73998 2.59734 8.37757 2.59734Z" fill="#2563EB"/>
<path fill-rule="evenodd" clip-rule="evenodd" d="M23.7071 8.49478H0.27344C-0.0890307 8.49478 -0.0890307 7.948 0.27344 7.948H23.7071C24.0696 7.948 24.0696 8.49478 23.7071 8.49478Z" fill="#2563EB"/>
<path fill-rule="evenodd" clip-rule="evenodd" d="M3.94459 4.39385H3.4369C2.9487 4.39385 2.55816 4.00331 2.55816 3.51511L2.55811 1.09359C2.55811 0.605384 2.94865 0.214844 3.43685 0.214844H3.94459C4.4328 0.214844 4.82334 0.605384 4.82334 1.09359L4.82339 3.51506C4.82339 4.00326 4.4328 4.39385 3.94459 4.39385ZM3.4369 0.781166C3.26112 0.781166 3.12443 0.91786 3.12443 1.09359V3.51506C3.12443 3.91063 3.59624 3.82753 3.94459 3.82753C4.12032 3.82753 4.25707 3.69084 4.25707 3.51506V1.09359C4.25707 0.697953 3.7852 0.78111 3.4369 0.781166Z" fill="#2563EB"/>
<path fill-rule="evenodd" clip-rule="evenodd" d="M9.49062 4.39385H8.98287C8.49467 4.39385 8.10413 4.00331 8.10413 3.51511V1.09359C8.10413 0.605384 8.49467 0.214844 8.98287 0.214844H9.49062C9.97882 0.214844 10.3694 0.605384 10.3694 1.09359V3.51506C10.3694 4.00326 9.95927 4.39385 9.49062 4.39385ZM8.98287 0.781166C8.80714 0.781166 8.67039 0.91786 8.67039 1.09364V3.51506C8.67039 3.91036 9.1736 3.82753 9.49062 3.82753C9.66634 3.82753 9.80309 3.69084 9.80309 3.51506L9.80304 1.09359C9.80304 0.697953 9.33117 0.78111 8.98287 0.781166Z" fill="#2563EB"/>
<path fill-rule="evenodd" clip-rule="evenodd" d="M15.0171 4.39385H14.5094C14.0212 4.39385 13.6306 4.00331 13.6306 3.51511V1.09359C13.6306 0.605384 14.0212 0.214844 14.5094 0.214844H15.0171C15.5053 0.214844 15.8958 0.605384 15.8958 1.09359V3.51506C15.8958 4.00326 15.5053 4.39385 15.0171 4.39385ZM14.5094 0.781166C14.3336 0.781166 14.1969 0.91786 14.1969 1.09364L14.1969 3.51506C14.1969 3.91063 14.6688 3.82753 15.0171 3.82753C15.1928 3.82753 15.3296 3.69084 15.3296 3.51506V1.09359C15.3296 0.697953 14.8577 0.78111 14.5094 0.781166Z" fill="#2563EB"/>
<path fill-rule="evenodd" clip-rule="evenodd" d="M20.563 4.39385H20.0553C19.5671 4.39385 19.1766 4.00331 19.1766 3.51511L19.1765 1.09359C19.1765 0.605384 19.5671 0.214844 20.0553 0.214844H20.563C21.0512 0.214844 21.4417 0.605384 21.4417 1.09359L21.4418 3.51506C21.4418 4.00326 21.0512 4.39385 20.563 4.39385ZM20.0553 0.781166C19.8796 0.781166 19.7428 0.937404 19.7428 1.09364V3.51506C19.7428 3.91063 20.2147 3.82753 20.563 3.82753C20.7387 3.82753 20.8755 3.69084 20.8755 3.51506V1.09359C20.8755 0.697953 20.4036 0.78111 20.0553 0.781166Z" fill="#2563EB"/>
<path fill-rule="evenodd" clip-rule="evenodd" d="M19.9577 23.7852C19.8015 23.7852 19.6843 23.668 19.6843 23.5118V20.8951C19.6843 20.1139 20.3288 19.4695 21.1099 19.4695H23.7071C24.0696 19.4695 24.0696 20.0163 23.7071 20.0163H21.1099C20.6217 20.0163 20.2312 20.4068 20.2312 20.895V23.4923C20.2506 23.6485 20.114 23.7852 19.9577 23.7852Z" fill="#2563EB"/>
<path fill-rule="evenodd" clip-rule="evenodd" d="M19.9577 23.7852C19.7095 23.7852 19.5761 23.4867 19.7625 23.3165L23.5118 19.5671C23.7859 19.2931 24.1632 19.7195 23.9024 19.9577L20.153 23.7071C20.114 23.7462 20.0358 23.7852 19.9577 23.7852Z" fill="#2563EB"/>
<path fill-rule="evenodd" clip-rule="evenodd" d="M16.3059 6.87393H14.8999C14.5374 6.87393 14.5374 6.32715 14.8999 6.32715H16.3059C16.6684 6.32715 16.6684 6.87393 16.3059 6.87393Z" fill="#2563EB"/>
<path fill-rule="evenodd" clip-rule="evenodd" d="M14.6655 7.3426C14.5041 7.3426 14.291 7.15104 14.4117 6.93252L15.3491 5.17498C15.4493 4.95928 15.7422 4.97876 15.8568 5.15543L16.8332 6.91297C17.0132 7.23254 16.5167 7.52685 16.3255 7.18636L15.6029 5.87799L14.9194 7.18636C14.8608 7.28403 14.7632 7.3426 14.6655 7.3426Z" fill="#2563EB"/>
<path fill-rule="evenodd" clip-rule="evenodd" d="M8.41659 6.38577H7.44019C7.07772 6.38577 7.07772 5.83899 7.44019 5.83899H8.41659C8.77906 5.83899 8.77906 6.38577 8.41659 6.38577Z" fill="#2563EB"/>
<path fill-rule="evenodd" clip-rule="evenodd" d="M8.08459 7.34262C7.63188 7.34262 7.14722 7.43779 7.14722 7.06923V5.31169C7.14722 4.9449 7.62451 5.03836 8.06505 5.03836C8.57606 5.03836 8.9243 5.34729 8.9243 5.76092C8.9243 6.07854 8.82603 6.00807 8.86573 6.13192C8.8815 6.18108 9.13541 6.50679 8.9243 6.9326C8.75666 7.27076 8.44606 7.34262 8.08459 7.34262ZM7.71354 6.77636C8.17328 6.77636 8.45564 6.83986 8.45564 6.54206C8.45564 6.3144 8.14859 6.41295 8.12368 6.11248C8.10674 5.90786 8.33849 5.81983 8.33849 5.78052C8.35632 5.76269 8.44701 5.52667 8.04561 5.52662L7.67451 5.52656V6.77636H7.71354Z" fill="#2563EB"/>
<path fill-rule="evenodd" clip-rule="evenodd" d="M6.30754 6.44436H5.05774C4.69527 6.44436 4.69527 5.89758 5.05774 5.89758H6.30754C6.67001 5.89758 6.67001 6.44436 6.30754 6.44436Z" fill="#2563EB"/>
<path fill-rule="evenodd" clip-rule="evenodd" d="M6.30761 7.34265H5.05781C4.90157 7.34265 4.78442 7.2255 4.78442 7.06926V5.31172C4.78442 5.15548 4.90157 5.03833 5.05781 5.03833L6.30761 5.03839C6.67008 5.03839 6.67008 5.58516 6.30761 5.58516H5.3312V6.79593L6.30761 6.79587C6.67002 6.79587 6.67008 7.34265 6.30761 7.34265Z" fill="#2563EB"/>
<path fill-rule="evenodd" clip-rule="evenodd" d="M10.4671 6.48334C9.78142 6.48334 9.58864 6.5464 9.58859 6.18243L9.58826 5.29212C9.5882 4.92356 10.0729 5.01873 10.5256 5.01873C11.4622 5.01873 11.426 6.19766 10.8771 6.42482C10.7795 6.46379 10.6428 6.48334 10.4671 6.48334ZM10.1545 5.91702C10.4455 5.91702 10.6818 5.9876 10.6818 5.72174C10.6818 5.4896 10.5456 5.54602 10.135 5.54596V5.91702H10.1545Z" fill="#2563EB"/>
<path fill-rule="evenodd" clip-rule="evenodd" d="M9.86165 7.34258C9.70541 7.34258 9.58826 7.22543 9.58826 7.06919V5.31165C9.58826 4.94918 10.135 4.94918 10.135 5.31165V7.06919C10.135 7.20588 10.0179 7.34258 9.86165 7.34258Z" fill="#2563EB"/>
<path fill-rule="evenodd" clip-rule="evenodd" d="M10.9747 7.30355C10.9162 7.30355 10.8576 7.28401 10.799 7.24497L9.82261 6.42481C9.53605 6.18497 9.90012 5.76597 10.1741 5.99523L11.1505 6.8154C11.341 6.9748 11.2526 7.30355 10.9747 7.30355Z" fill="#2563EB"/>
<path fill-rule="evenodd" clip-rule="evenodd" d="M2.65584 7.34265C2.4996 7.34265 2.38245 7.2255 2.38245 7.06926V5.31172C2.38245 5.15548 2.4996 5.03833 2.65584 5.03833L3.96421 5.03839C4.32668 5.03839 4.32668 5.58516 3.96421 5.58516H2.92922V5.85855H3.76894C4.13141 5.85855 4.13141 6.40533 3.76894 6.40533H2.92922C2.92922 6.80683 3.02168 7.34265 2.65584 7.34265Z" fill="#2563EB"/>
<path fill-rule="evenodd" clip-rule="evenodd" d="M12.8104 7.34258C11.6243 7.34258 11.8144 6.23003 11.8144 5.31165C11.8144 4.94918 12.3612 4.94918 12.3612 5.31165C12.3612 5.84392 12.3392 6.10524 12.4002 6.60053C12.4276 6.82304 13.0456 6.89191 13.1813 6.62007C13.249 6.4846 13.2203 5.52818 13.2203 5.33119C13.2203 4.96872 13.7671 4.96872 13.7671 5.33119C13.7671 5.71542 13.808 6.51887 13.689 6.81534C13.5511 7.15882 13.2328 7.34258 12.8104 7.34258Z" fill="#2563EB"/>
<path fill-rule="evenodd" clip-rule="evenodd" d="M18.2979 6.48334C17.6087 6.48334 17.4189 6.54695 17.4189 6.17673L17.4191 5.29212C17.4192 4.92356 17.9037 5.01873 18.3564 5.01873C19.2894 5.01873 19.2645 6.20264 18.7274 6.42482C18.6103 6.46379 18.4736 6.48334 18.2979 6.48334ZM17.9854 5.91702L18.454 5.89747C18.5735 5.77805 18.5355 5.56562 18.3369 5.56556L17.9659 5.56551V5.91702H17.9854Z" fill="#2563EB"/>
<path fill-rule="evenodd" clip-rule="evenodd" d="M17.6925 7.34258C17.5362 7.34258 17.4191 7.22543 17.4191 7.06919V5.31165C17.4191 4.94918 17.9658 4.94918 17.9658 5.31165V7.06919C17.9658 7.20588 17.8486 7.34258 17.6925 7.34258Z" fill="#2563EB"/>
<path fill-rule="evenodd" clip-rule="evenodd" d="M18.8056 7.30355C18.747 7.30355 18.6689 7.28401 18.6298 7.24497L17.6534 6.42481C17.3669 6.18497 17.7309 5.76597 18.0049 5.99523L18.9813 6.8154C19.1882 6.98847 19.057 7.30355 18.8056 7.30355Z" fill="#2563EB"/>
<path fill-rule="evenodd" clip-rule="evenodd" d="M20.6803 6.46385C20.5826 6.46385 20.5046 6.42482 20.4459 6.3467L19.8015 5.44841C19.5878 5.17237 20.0137 4.81344 20.2506 5.11645L20.6802 5.70231C20.9215 5.37328 21.2082 4.81433 21.5004 5.05787C21.6176 5.15554 21.6566 5.33126 21.559 5.44841L20.8951 6.3467C20.856 6.42482 20.7584 6.46385 20.6803 6.46385Z" fill="#2563EB"/>
<path fill-rule="evenodd" clip-rule="evenodd" d="M20.6803 7.34256C20.524 7.34256 20.4069 7.22541 20.4069 7.06917V6.19043C20.4069 5.82796 20.9536 5.82796 20.9536 6.19043V7.06917C20.9536 7.20587 20.8364 7.32308 20.6803 7.34256Z" fill="#2563EB"/>
</g>
<defs>
<clipPath id="clip0_413_6651">
<rect width="24" height="24" fill="white"/>
</clipPath>
</defs>
</svg>
