<svg width="24" height="24" viewBox="0 0 24 24" fill="none" xmlns="http://www.w3.org/2000/svg">
<g clip-path="url(#clip0_413_6559)">
<path d="M23.2001 18.4H22.1776C22.3216 18.1578 22.3985 17.8816 22.4001 17.6C22.403 16.9328 21.9899 16.3344 21.3649 16.1008C20.7401 15.867 20.0356 16.0474 19.6001 16.5527C19.0628 15.9262 18.1356 15.8144 17.4647 16.2951C16.7938 16.776 16.6019 17.6898 17.0226 18.4H14.0001C13.7792 18.4 13.6001 18.5791 13.6001 18.8V21.2C13.6001 21.4209 13.7792 21.6 14.0001 21.6H14.4001V22.8C14.4001 23.4627 14.9374 24 15.6001 24H21.6001C22.2628 24 22.8001 23.4627 22.8001 22.8V21.6H23.2001C23.421 21.6 23.6001 21.4209 23.6001 21.2V18.8C23.6001 18.5791 23.421 18.4 23.2001 18.4ZM18.8001 20.8V19.2H20.4001V20.8H18.8001ZM20.4001 21.6V23.2H18.8001V21.6H20.4001ZM20.8001 16.8C21.2419 16.8 21.6001 17.1582 21.6001 17.6C21.6001 18.0418 21.2419 18.4 20.8001 18.4H20.0001V17.6C20.0001 17.1582 20.3583 16.8 20.8001 16.8ZM17.6001 17.6C17.6001 17.1582 17.9583 16.8 18.4001 16.8C18.8419 16.8 19.2001 17.1582 19.2001 17.6V18.4H18.4001C17.9583 18.4 17.6001 18.0418 17.6001 17.6ZM14.4001 19.2H18.0001V20.8H14.4001V19.2ZM15.2001 22.8V21.6H18.0001V23.2H15.6001C15.3792 23.2 15.2001 23.0209 15.2001 22.8ZM22.0001 22.8C22.0001 23.0209 21.821 23.2 21.6001 23.2H21.2001V21.6H22.0001V22.8ZM22.8001 20.8H21.2001V19.2H22.8001V20.8Z" fill="#2563EB"/>
<path d="M2.7999 4.4H17.9999C18.8835 4.4 19.5999 3.68359 19.5999 2.8V2C19.5999 1.7791 19.4208 1.6 19.1999 1.6H17.9999V2.4H18.7999V2.8C18.7999 3.2418 18.4417 3.6 17.9999 3.6C17.5581 3.6 17.1999 3.2418 17.1999 2.8V1.6C17.1999 1.1582 17.5581 0.8 17.9999 0.8H19.5999C20.0417 0.8 20.3999 1.1582 20.3999 1.6V15.2H21.1999V1.6C21.1999 0.716406 20.4835 0 19.5999 0H1.9999C1.11631 0 0.399902 0.716406 0.399902 1.6V2.8C0.399902 3.68359 1.11631 4.4 1.9999 4.4V22.8C1.9999 23.0209 2.179 23.2 2.3999 23.2H13.5999V22.4H2.7999V4.4ZM1.1999 2.8V1.6C1.1999 1.1582 1.55811 0.8 1.9999 0.8H16.6224C16.4784 1.04219 16.4015 1.31836 16.3999 1.6V2.8C16.4015 3.08164 16.4784 3.35781 16.6224 3.6H1.9999C1.55811 3.6 1.1999 3.2418 1.1999 2.8Z" fill="#2563EB"/>
<path d="M18.8 4.80005H19.6V15.6H18.8V4.80005Z" fill="#2563EB"/>
<path d="M17.6 7.59998V5.99998C17.6 5.77908 17.4209 5.59998 17.2 5.59998H4.4C4.1791 5.59998 4 5.77908 4 5.99998V7.59998C4 7.82087 4.1791 7.99998 4.4 7.99998H17.2C17.4209 7.99998 17.6 7.82087 17.6 7.59998ZM16.8 7.19998H4.8V6.39998H16.8V7.19998Z" fill="#2563EB"/>
<path d="M6.00005 8.80005C5.33735 8.80005 4.80005 9.33735 4.80005 10C4.80005 10.6627 5.33735 11.2 6.00005 11.2C6.66274 11.2 7.20005 10.6627 7.20005 10C7.20005 9.33735 6.66274 8.80005 6.00005 8.80005ZM6.00005 10.4C5.77915 10.4 5.60005 10.2209 5.60005 10C5.60005 9.77915 5.77915 9.60005 6.00005 9.60005C6.22095 9.60005 6.40005 9.77915 6.40005 10C6.40005 10.2209 6.22095 10.4 6.00005 10.4Z" fill="#2563EB"/>
<path d="M9.2 8.80005C8.5373 8.80005 8 9.33735 8 10C8 10.6627 8.5373 11.2 9.2 11.2C9.8627 11.2 10.4 10.6627 10.4 10C10.4 9.33735 9.8627 8.80005 9.2 8.80005ZM9.2 10.4C8.9791 10.4 8.8 10.2209 8.8 10C8.8 9.77915 8.9791 9.60005 9.2 9.60005C9.4209 9.60005 9.6 9.77915 9.6 10C9.6 10.2209 9.4209 10.4 9.2 10.4Z" fill="#2563EB"/>
<path d="M12.4 8.80005C11.7373 8.80005 11.2 9.33735 11.2 10C11.2 10.6627 11.7373 11.2 12.4 11.2C13.0626 11.2 13.6 10.6627 13.6 10C13.6 9.33735 13.0626 8.80005 12.4 8.80005ZM12.4 10.4C12.1791 10.4 12 10.2209 12 10C12 9.77915 12.1791 9.60005 12.4 9.60005C12.6208 9.60005 12.8 9.77915 12.8 10C12.8 10.2209 12.6208 10.4 12.4 10.4Z" fill="#2563EB"/>
<path d="M15.5999 8.80005C14.9372 8.80005 14.3999 9.33735 14.3999 10C14.3999 10.6627 14.9372 11.2 15.5999 11.2C16.2626 11.2 16.7999 10.6627 16.7999 10C16.7999 9.33735 16.2626 8.80005 15.5999 8.80005ZM15.5999 10.4C15.379 10.4 15.1999 10.2209 15.1999 10C15.1999 9.77915 15.379 9.60005 15.5999 9.60005C15.8208 9.60005 15.9999 9.77915 15.9999 10C15.9999 10.2209 15.8208 10.4 15.5999 10.4Z" fill="#2563EB"/>
<path d="M6.00005 12C5.33735 12 4.80005 12.5373 4.80005 13.2C4.80005 13.8627 5.33735 14.4 6.00005 14.4C6.66274 14.4 7.20005 13.8627 7.20005 13.2C7.20005 12.5373 6.66274 12 6.00005 12ZM6.00005 13.6C5.77915 13.6 5.60005 13.4209 5.60005 13.2C5.60005 12.9791 5.77915 12.8 6.00005 12.8C6.22095 12.8 6.40005 12.9791 6.40005 13.2C6.40005 13.4209 6.22095 13.6 6.00005 13.6Z" fill="#2563EB"/>
<path d="M12.4 12C11.7373 12 11.2 12.5373 11.2 13.2C11.2 13.8627 11.7373 14.4 12.4 14.4C13.0626 14.4 13.6 13.8627 13.6 13.2C13.6 12.5373 13.0626 12 12.4 12ZM12.4 13.6C12.1791 13.6 12 13.4209 12 13.2C12 12.9791 12.1791 12.8 12.4 12.8C12.6208 12.8 12.8 12.9791 12.8 13.2C12.8 13.4209 12.6208 13.6 12.4 13.6Z" fill="#2563EB"/>
<path d="M15.5999 12C14.9372 12 14.3999 12.5373 14.3999 13.2C14.3999 13.8627 14.9372 14.4 15.5999 14.4C16.2626 14.4 16.7999 13.8627 16.7999 13.2C16.7999 12.5373 16.2626 12 15.5999 12ZM15.5999 13.6C15.379 13.6 15.1999 13.4209 15.1999 13.2C15.1999 12.9791 15.379 12.8 15.5999 12.8C15.8208 12.8 15.9999 12.9791 15.9999 13.2C15.9999 13.4209 15.8208 13.6 15.5999 13.6Z" fill="#2563EB"/>
<path d="M6.00005 15.2C5.33735 15.2 4.80005 15.7373 4.80005 16.4C4.80005 17.0626 5.33735 17.6 6.00005 17.6C6.66274 17.6 7.20005 17.0626 7.20005 16.4C7.20005 15.7373 6.66274 15.2 6.00005 15.2ZM6.00005 16.8C5.77915 16.8 5.60005 16.6208 5.60005 16.4C5.60005 16.1791 5.77915 16 6.00005 16C6.22095 16 6.40005 16.1791 6.40005 16.4C6.40005 16.6208 6.22095 16.8 6.00005 16.8Z" fill="#2563EB"/>
<path d="M9.2 15.2C8.5373 15.2 8 15.7373 8 16.4C8 17.0626 8.5373 17.6 9.2 17.6C9.8627 17.6 10.4 17.0626 10.4 16.4C10.4 15.7373 9.8627 15.2 9.2 15.2ZM9.2 16.8C8.9791 16.8 8.8 16.6208 8.8 16.4C8.8 16.1791 8.9791 16 9.2 16C9.4209 16 9.6 16.1791 9.6 16.4C9.6 16.6208 9.4209 16.8 9.2 16.8Z" fill="#2563EB"/>
<path d="M13.6 16.4C13.6 15.7373 13.0626 15.2 12.4 15.2C11.7373 15.2 11.2 15.7373 11.2 16.4C11.2 17.0626 11.7373 17.6 12.4 17.6C13.0626 17.6 13.6 17.0626 13.6 16.4ZM12.4 16.8C12.1791 16.8 12 16.6208 12 16.4C12 16.1791 12.1791 16 12.4 16C12.6208 16 12.8 16.1791 12.8 16.4C12.8 16.6208 12.6208 16.8 12.4 16.8Z" fill="#2563EB"/>
<path d="M15.5999 16C15.8208 16 15.9999 16.1791 15.9999 16.4H16.7999C16.7999 15.7373 16.2626 15.2 15.5999 15.2C14.9372 15.2 14.3999 15.7373 14.3999 16.4C14.3999 17.0626 14.9372 17.6 15.5999 17.6V16.8C15.379 16.8 15.1999 16.6208 15.1999 16.4C15.1999 16.1791 15.379 16 15.5999 16Z" fill="#2563EB"/>
<path d="M6.00005 18.4C5.33735 18.4 4.80005 18.9373 4.80005 19.6C4.80005 20.2627 5.33735 20.8 6.00005 20.8C6.66274 20.8 7.20005 20.2627 7.20005 19.6C7.20005 18.9373 6.66274 18.4 6.00005 18.4ZM6.00005 20C5.77915 20 5.60005 19.8209 5.60005 19.6C5.60005 19.3791 5.77915 19.2 6.00005 19.2C6.22095 19.2 6.40005 19.3791 6.40005 19.6C6.40005 19.8209 6.22095 20 6.00005 20Z" fill="#2563EB"/>
<path d="M9.2 18.4C8.5373 18.4 8 18.9373 8 19.6C8 20.2627 8.5373 20.8 9.2 20.8C9.8627 20.8 10.4 20.2627 10.4 19.6C10.4 18.9373 9.8627 18.4 9.2 18.4ZM9.2 20C8.9791 20 8.8 19.8209 8.8 19.6C8.8 19.3791 8.9791 19.2 9.2 19.2C9.4209 19.2 9.6 19.3791 9.6 19.6C9.6 19.8209 9.4209 20 9.2 20Z" fill="#2563EB"/>
<path d="M12.4 19.2H12.8V18.4H12.4C11.7373 18.4 11.2 18.9373 11.2 19.6C11.2 20.2627 11.7373 20.8 12.4 20.8H12.8V20H12.4C12.1791 20 12 19.8209 12 19.6C12 19.3791 12.1791 19.2 12.4 19.2Z" fill="#2563EB"/>
<path d="M8.68281 14.2828L9.2 13.7656L9.71719 14.2828L10.2828 13.7172L9.76563 13.2L10.2828 12.6828L9.71719 12.1172L9.2 12.6344L8.68281 12.1172L8.11719 12.6828L8.63438 13.2L8.11719 13.7172L8.68281 14.2828Z" fill="#2563EB"/>
</g>
<defs>
<clipPath id="clip0_413_6559">
<rect width="24" height="24" fill="white"/>
</clipPath>
</defs>
</svg>
