<svg width="24" height="24" viewBox="0 0 24 24" fill="none" xmlns="http://www.w3.org/2000/svg">
<path d="M5.34584 11.2803H4.07481C3.6636 11.2803 3.32715 11.6167 3.32715 12.0279V13.1494C3.32715 13.5606 3.6636 13.897 4.07481 13.897H5.34584C5.75705 13.897 6.0935 13.5606 6.0935 13.1494V12.0279C6.0935 11.6167 5.75705 11.2803 5.34584 11.2803ZM5.53275 13.112C5.53275 13.2241 5.45799 13.3363 5.30845 13.3363H4.07481C3.96266 13.3363 3.85051 13.2615 3.85051 13.112V11.9905C3.85051 11.8784 3.92528 11.7662 4.07481 11.7662H5.34584C5.45799 11.7662 5.57013 11.841 5.57013 11.9905V13.112H5.53275Z" fill="#2563EB"/>
<path d="M9.08412 11.2803H7.81309C7.40188 11.2803 7.06543 11.6167 7.06543 12.0279V13.1494C7.06543 13.5606 7.40188 13.897 7.81309 13.897H9.08412C9.49533 13.897 9.83178 13.5606 9.83178 13.1494V12.0279C9.83178 11.6167 9.49533 11.2803 9.08412 11.2803ZM9.27103 13.112C9.27103 13.2241 9.19627 13.3363 9.04673 13.3363H7.81309C7.70094 13.3363 7.58879 13.2615 7.58879 13.112V11.9905C7.58879 11.8784 7.66356 11.7662 7.81309 11.7662H9.08412C9.19627 11.7662 9.30842 11.841 9.30842 11.9905V13.112H9.27103Z" fill="#2563EB"/>
<path d="M12.8224 11.2803H11.5514C11.1402 11.2803 10.8037 11.6167 10.8037 12.0279V13.1494C10.8037 13.5606 11.1402 13.897 11.5514 13.897H12.8224C13.2336 13.897 13.5701 13.5606 13.5701 13.1494V12.0279C13.5701 11.6167 13.2336 11.2803 12.8224 11.2803ZM13.0093 13.112C13.0093 13.2241 12.9345 13.3363 12.785 13.3363H11.5514C11.4392 13.3363 11.3271 13.2615 11.3271 13.112V11.9905C11.3271 11.8784 11.4018 11.7662 11.5514 11.7662H12.8224C12.9345 11.7662 13.0467 11.841 13.0467 11.9905V13.112H13.0093Z" fill="#2563EB"/>
<path d="M16.5609 11.2803H15.2899C14.8787 11.2803 14.5422 11.6167 14.5422 12.0279V13.1494C14.5422 13.5606 14.8787 13.897 15.2899 13.897H16.5609C16.9721 13.897 17.3086 13.5606 17.3086 13.1494V12.0279C17.3086 11.6167 16.9721 11.2803 16.5609 11.2803ZM16.7852 13.112C16.7852 13.2241 16.7105 13.3363 16.5609 13.3363H15.2899C15.1777 13.3363 15.0656 13.2615 15.0656 13.112V11.9905C15.0656 11.8784 15.1404 11.7662 15.2899 11.7662H16.5609C16.6731 11.7662 16.7852 11.841 16.7852 11.9905V13.112Z" fill="#2563EB"/>
<path d="M5.34584 14.4944H4.07481C3.6636 14.4944 3.32715 14.8308 3.32715 15.242V16.3635C3.32715 16.7747 3.6636 17.1111 4.07481 17.1111H5.34584C5.75705 17.1111 6.0935 16.7747 6.0935 16.3635V15.242C6.0935 14.8308 5.75705 14.4944 5.34584 14.4944ZM5.53275 16.3635C5.53275 16.4756 5.45799 16.5878 5.30845 16.5878H4.07481C3.96266 16.5878 3.85051 16.513 3.85051 16.3635V15.242C3.85051 15.1299 3.92528 15.0177 4.07481 15.0177H5.34584C5.45799 15.0177 5.57013 15.0925 5.57013 15.242V16.3635H5.53275Z" fill="#2563EB"/>
<path d="M9.08412 14.4944H7.81309C7.40188 14.4944 7.06543 14.8308 7.06543 15.242V16.3635C7.06543 16.7747 7.40188 17.1111 7.81309 17.1111H9.08412C9.49533 17.1111 9.83178 16.7747 9.83178 16.3635V15.242C9.83178 14.8308 9.49533 14.4944 9.08412 14.4944ZM9.27103 16.3635C9.27103 16.4756 9.19627 16.5878 9.04673 16.5878H7.81309C7.70094 16.5878 7.58879 16.513 7.58879 16.3635V15.242C7.58879 15.1299 7.66356 15.0177 7.81309 15.0177H9.08412C9.19627 15.0177 9.30842 15.0925 9.30842 15.242V16.3635H9.27103Z" fill="#2563EB"/>
<path d="M12.8224 14.4944H11.5514C11.1402 14.4944 10.8037 14.8308 10.8037 15.242V16.3635C10.8037 16.7747 11.1402 17.1111 11.5514 17.1111H12.8224C13.2336 17.1111 13.5701 16.7747 13.5701 16.3635V15.242C13.5701 14.8308 13.2336 14.4944 12.8224 14.4944ZM13.0093 16.3635C13.0093 16.4756 12.9345 16.5878 12.785 16.5878H11.5514C11.4392 16.5878 11.3271 16.513 11.3271 16.3635V15.242C11.3271 15.1299 11.4018 15.0177 11.5514 15.0177H12.8224C12.9345 15.0177 13.0467 15.0925 13.0467 15.242V16.3635H13.0093Z" fill="#2563EB"/>
<path d="M5.34584 17.7465H4.07481C3.6636 17.7465 3.32715 18.0829 3.32715 18.4941V19.6156C3.32715 20.0268 3.6636 20.3632 4.07481 20.3632H5.34584C5.75705 20.3632 6.0935 20.0268 6.0935 19.6156V18.4941C6.0935 18.0829 5.75705 17.7465 5.34584 17.7465ZM5.53275 19.5782C5.53275 19.6903 5.45799 19.8025 5.30845 19.8025H4.07481C3.96266 19.8025 3.85051 19.7277 3.85051 19.5782V18.4567C3.85051 18.3446 3.92528 18.2324 4.07481 18.2324H5.34584C5.45799 18.2324 5.57013 18.3072 5.57013 18.4567V19.5782H5.53275Z" fill="#2563EB"/>
<path d="M9.08412 17.7465H7.81309C7.40188 17.7465 7.06543 18.0829 7.06543 18.4941V19.6156C7.06543 20.0268 7.40188 20.3632 7.81309 20.3632H9.08412C9.49533 20.3632 9.83178 20.0268 9.83178 19.6156V18.4941C9.83178 18.0829 9.49533 17.7465 9.08412 17.7465ZM9.27103 19.5782C9.27103 19.6903 9.19627 19.8025 9.04673 19.8025H7.81309C7.70094 19.8025 7.58879 19.7277 7.58879 19.5782V18.4567C7.58879 18.3446 7.66356 18.2324 7.81309 18.2324H9.08412C9.19627 18.2324 9.30842 18.3072 9.30842 18.4567V19.5782H9.27103Z" fill="#2563EB"/>
<path d="M12.8224 17.7465H11.5514C11.1402 17.7465 10.8037 18.0829 10.8037 18.4941V19.6156C10.8037 20.0268 11.1402 20.3632 11.5514 20.3632H12.8224C13.2336 20.3632 13.5701 20.0268 13.5701 19.6156V18.4941C13.5701 18.0829 13.2336 17.7465 12.8224 17.7465ZM13.0093 19.5782C13.0093 19.6903 12.9345 19.8025 12.785 19.8025H11.5514C11.4392 19.8025 11.3271 19.7277 11.3271 19.5782V18.4567C11.3271 18.3446 11.4018 18.2324 11.5514 18.2324H12.8224C12.9345 18.2324 13.0467 18.3072 13.0467 18.4567V19.5782H13.0093Z" fill="#2563EB"/>
<path d="M21.2336 5.67234H21.757C21.9065 5.67234 22.0187 5.78449 22.0187 5.93402V6.45737C22.0187 6.60689 22.1308 6.71904 22.2803 6.71904C22.4299 6.71904 22.542 6.60689 22.542 6.45737V5.93402C22.542 5.78449 22.6542 5.67234 22.8037 5.67234H23.3271C23.4766 5.67234 23.5887 5.5602 23.5887 5.41067C23.5887 5.26114 23.4766 5.14899 23.3271 5.14899H22.8037C22.6542 5.14899 22.542 5.03685 22.542 4.88732V4.36397C22.542 4.21444 22.4299 4.10229 22.2803 4.10229C22.1308 4.10229 22.0187 4.21444 22.0187 4.36397V4.88732C22.0187 5.03685 21.9065 5.14899 21.757 5.14899H21.2336C21.0841 5.14899 20.9719 5.26114 20.9719 5.41067C20.9719 5.5602 21.0841 5.67234 21.2336 5.67234Z" fill="#2563EB"/>
<path d="M1.00934 1.97161V2.49496C1.00934 2.64449 1.12149 2.75664 1.27103 2.75664C1.42056 2.75664 1.53271 2.64449 1.53271 2.49496V1.97161C1.53271 1.82209 1.64486 1.70994 1.79439 1.70994H2.31775C2.46728 1.70994 2.57943 1.59779 2.57943 1.44827C2.57943 1.29874 2.46728 1.18659 2.31775 1.18659H1.83177C1.68224 1.18659 1.57009 1.07444 1.57009 0.924916V0.401567C1.57009 0.252039 1.45794 0.139893 1.30841 0.139893C1.15888 0.139893 1.04673 0.252039 1.04673 0.401567V0.924916C1.04673 1.07444 0.934578 1.18659 0.785045 1.18659H0.261681C0.112149 1.18659 0 1.29874 0 1.44827C0 1.59779 0.112149 1.70994 0.261681 1.70994H0.785045C0.897195 1.70994 1.00934 1.82209 1.00934 1.97161Z" fill="#2563EB"/>
<path d="M16.5607 1.85976L17.3831 2.30834L17.8317 3.13075C17.8691 3.20551 17.9812 3.28028 18.056 3.28028C18.1681 3.28028 18.2429 3.2429 18.2803 3.13075L18.7289 2.30834L19.5513 1.85976C19.6261 1.82238 19.7008 1.71023 19.7008 1.63547C19.7008 1.5607 19.6635 1.44856 19.5513 1.41117L18.7289 0.962589L18.2803 0.140183C18.1681 -0.0467276 17.9065 -0.0467276 17.7943 0.140183L17.3457 0.962589L16.5233 1.41117C16.4859 1.41117 16.4111 1.52332 16.4111 1.59808C16.4111 1.67285 16.4859 1.82238 16.5607 1.85976ZM17.6822 1.37379C17.7195 1.33641 17.7569 1.29903 17.7943 1.26165L18.0186 0.813061L18.2429 1.26165C18.2803 1.29903 18.3177 1.33641 18.3551 1.37379L18.8037 1.59808L18.3551 1.82238C18.3177 1.85976 18.2803 1.89714 18.2429 1.93452L18.0186 2.38311L17.7943 1.93452C17.7569 1.89714 17.7195 1.85976 17.6822 1.82238L17.2336 1.59808L17.6822 1.37379Z" fill="#2563EB"/>
<path d="M19.6637 13.8223C19.7758 13.8223 19.9254 13.8597 20.0375 13.8597V8.55143V6.57018C20.0375 5.56087 19.2151 4.73846 18.2057 4.73846H16.9721V3.95344C16.9721 3.35532 16.4861 2.90674 15.9254 2.90674C15.3646 2.90674 14.8786 3.3927 14.8786 3.95344V4.73846H13.2712V3.95344C13.2712 3.35532 12.7852 2.90674 12.2244 2.90674C11.6263 2.90674 11.1777 3.3927 11.1777 3.95344V4.73846H9.57025V3.95344C9.57025 3.35532 9.08426 2.90674 8.52352 2.90674C7.96277 2.90674 7.47679 3.3927 7.47679 3.95344V4.73846H5.86932V3.95344C5.86932 3.35532 5.38334 2.90674 4.82259 2.90674C4.26184 2.90674 3.77586 3.3927 3.77586 3.95344V4.73846H2.54222C1.53288 4.73846 0.710449 5.56087 0.710449 6.57018V8.55143V21.4109C0.710449 22.4202 1.53288 23.2426 2.54222 23.2426H18.2805C18.3927 23.2426 18.5422 23.2426 18.6543 23.2052C18.617 23.2052 18.5796 23.2052 18.5048 23.1678C18.7291 23.2052 18.9908 23.2426 19.2525 23.2426C21.8693 23.2426 24.0001 21.1118 24.0001 18.4951C23.888 16.0652 22.0188 14.0466 19.6637 13.8223ZM15.402 3.95344C15.402 3.65438 15.6263 3.43009 15.9254 3.43009C16.2244 3.43009 16.4487 3.65438 16.4487 3.95344V5.00013V6.04683C16.4487 6.34589 16.2244 6.57018 15.9254 6.57018C15.8506 6.57018 15.7758 6.57018 15.7385 6.5328C15.6637 6.49542 15.6263 6.45803 15.5889 6.42065C15.5515 6.38327 15.5515 6.38327 15.5142 6.34589C15.5142 6.30851 15.4768 6.30851 15.4768 6.27113C15.4768 6.23374 15.4394 6.23374 15.4394 6.19636C15.4394 6.15898 15.4394 6.15898 15.4394 6.1216V6.08421V3.95344H15.402ZM12.1871 3.46747C12.4861 3.46747 12.7104 3.69176 12.7104 3.99082V5.03752V6.08421V6.19636C12.673 6.38327 12.5235 6.57018 12.2992 6.60756C12.2618 6.60756 12.2244 6.60756 12.1871 6.60756C12.1123 6.60756 12.0375 6.60756 12.0001 6.57018C11.9254 6.5328 11.888 6.49542 11.8506 6.45804C11.8132 6.42065 11.8132 6.42065 11.7758 6.38327C11.7758 6.34589 11.7385 6.34589 11.7385 6.30851V6.27113C11.7385 6.23374 11.7385 6.23374 11.7011 6.19636C11.7011 6.15898 11.7011 6.1216 11.7011 6.08421V5.03752V3.99082C11.6637 3.69176 11.888 3.46747 12.1871 3.46747ZM8.44875 3.46747C8.74782 3.46747 8.97211 3.69176 8.97211 3.99082V6.04683C8.97211 6.19636 8.89735 6.30851 8.82258 6.42065C8.74782 6.49542 8.59828 6.57018 8.44875 6.57018C8.37399 6.57018 8.29922 6.57018 8.26184 6.5328C8.18707 6.49542 8.14969 6.45803 8.1123 6.42065C8.07492 6.38327 8.07492 6.38327 8.03754 6.34589C8.03754 6.34589 8.03754 6.34589 8.03754 6.30851C8.03754 6.30851 8.00015 6.27112 8.00015 6.23374V6.19636V6.15898C8.00015 6.1216 8.00015 6.08421 8.00015 6.04683V5.00013V3.95344C7.92539 3.69176 8.18707 3.46747 8.44875 3.46747ZM4.74782 3.46747C5.04689 3.46747 5.27119 3.69176 5.27119 3.99082V6.04683C5.27119 6.23374 5.15904 6.38327 5.00951 6.49542C4.93474 6.5328 4.85997 6.57018 4.74782 6.57018C4.71044 6.57018 4.67306 6.57018 4.63568 6.57018H4.59829H4.56091C4.52353 6.57018 4.52353 6.5328 4.52353 6.5328C4.52353 6.5328 4.48614 6.5328 4.48614 6.49542C4.44876 6.49542 4.44876 6.45804 4.44876 6.45804L4.41138 6.42065C4.41138 6.42065 4.41138 6.38327 4.37399 6.38327C4.37399 6.38327 4.37399 6.34589 4.33661 6.34589C4.33661 6.30851 4.33661 6.30851 4.29923 6.27113V6.23374C4.29923 6.19636 4.29923 6.15898 4.29923 6.1216V5.0749V4.0282C4.22446 3.69176 4.44876 3.46747 4.74782 3.46747ZM1.15905 6.57018C1.15905 5.85992 1.71979 5.29919 2.43007 5.29919H3.66371V6.04683C3.66371 6.15898 3.7011 6.30851 3.73848 6.42065V6.45804C3.77586 6.49542 3.77586 6.5328 3.81325 6.60756C3.81325 6.60756 3.81325 6.64495 3.85063 6.64495C3.9254 6.75709 4.03755 6.86924 4.1497 6.944C4.18708 6.98138 4.22446 6.98138 4.26184 7.01877C4.29923 7.01877 4.29923 7.05615 4.33661 7.05615C4.37399 7.05615 4.41138 7.09353 4.44876 7.09353C4.48614 7.09353 4.48614 7.09353 4.52353 7.13091H4.63568H4.71044C4.89736 7.13091 5.08427 7.05615 5.2338 6.98138C5.53287 6.79447 5.75717 6.45804 5.75717 6.08421V5.33657H7.36464V6.08421V6.27113V6.30851C7.36464 6.34589 7.36464 6.38327 7.40203 6.38327C7.40203 6.42065 7.43941 6.45803 7.43941 6.49542C7.43941 6.5328 7.47679 6.5328 7.47679 6.57018C7.51417 6.60756 7.51417 6.64495 7.55156 6.68233L7.62632 6.75709L7.70109 6.83186C7.73847 6.86924 7.77586 6.90662 7.81324 6.90662C7.85062 6.90662 7.85062 6.944 7.85062 6.944C7.888 6.98138 7.96277 7.01877 8.00015 7.01877H8.03754C8.07492 7.05615 8.14969 7.05615 8.18707 7.05615H8.22445H8.37399H8.44875C8.74782 7.05615 9.0095 6.944 9.19641 6.75709C9.38333 6.57018 9.49548 6.30851 9.49548 6.00945V5.26181H11.103V6.00945C11.103 6.08421 11.103 6.15898 11.1403 6.19636C11.1777 6.38327 11.2899 6.57018 11.4394 6.71971C11.5142 6.79447 11.6263 6.86924 11.7385 6.90662C11.7385 6.90662 11.7758 6.90662 11.7758 6.944C11.8132 6.944 11.8506 6.98138 11.888 6.98138C11.9254 6.98138 11.9628 7.01877 11.9628 7.01877H12.0375H12.1497C12.2244 7.01877 12.2992 7.01877 12.374 6.98138C12.7852 6.90662 13.1216 6.57018 13.1964 6.15898C13.1964 6.08421 13.2338 6.00945 13.2338 5.93469V5.18704H14.8413V5.93469C14.8413 6.23374 14.9534 6.49542 15.1403 6.68233C15.2525 6.79447 15.3646 6.86924 15.4768 6.90662C15.5142 6.90662 15.5515 6.944 15.6263 6.944C15.6637 6.944 15.6637 6.944 15.7011 6.98138H15.8132H15.9254C16.5235 6.98138 16.9721 6.49542 16.9721 5.93469V5.18704H18.2057C18.916 5.18704 19.4768 5.74778 19.4768 6.45804V8.17761H1.15905V6.57018ZM2.43007 22.6819C1.71979 22.6819 1.15905 22.1211 1.15905 21.4109V8.81311H19.4768V13.7849H19.4394H19.5889C19.4394 13.7849 19.2899 13.7475 19.1403 13.7475C18.8039 13.7475 18.5048 13.7849 18.2057 13.8597C18.3179 13.8223 18.43 13.8223 18.5422 13.8223V10.7196C18.5422 10.2336 18.131 9.82242 17.645 9.82242H2.99082C2.50484 9.82242 2.09362 10.2336 2.09362 10.7196V20.8875C2.09362 21.3735 2.50484 21.7847 2.99082 21.7847H15.7385L15.7758 21.8221C16.2992 22.3828 16.9721 22.794 17.7198 23.0183C17.4581 22.9435 17.1964 22.8314 16.9347 22.6819H2.43007ZM18.2057 13.8597C16.0749 14.3083 14.43 16.2148 14.43 18.4951C14.43 19.5791 14.8039 20.5885 15.4394 21.3735C15.402 21.2987 15.3646 21.2613 15.2899 21.1866H2.99082C2.8039 21.1866 2.61699 21.037 2.61699 20.8128V10.7196C2.61699 10.5327 2.76652 10.3458 2.99082 10.3458H17.6824C17.8693 10.3458 18.0562 10.4953 18.0562 10.7196V13.9345C18.0562 13.8971 18.131 13.8971 18.2057 13.8597ZM17.9441 23.0557C18.0188 23.0931 18.0936 23.0931 18.1684 23.0931C18.0936 23.1304 18.0188 23.0931 17.9441 23.0557ZM19.1403 22.6819C16.8226 22.6819 14.9534 20.8128 14.9534 18.4951C14.9534 16.1774 16.8226 14.3083 19.1403 14.3083C21.4581 14.3083 23.3272 16.1774 23.3272 18.4951C23.3272 20.8128 21.4581 22.6819 19.1403 22.6819Z" fill="#2563EB"/>
<path d="M19.1402 15.3173C17.3832 15.3173 15.9626 16.7378 15.9626 18.4947C15.9626 20.2517 17.3832 21.6722 19.1402 21.6722C20.8972 21.6722 22.3178 20.2517 22.3178 18.4947C22.3178 16.7378 20.8972 15.3173 19.1402 15.3173ZM19.1402 21.1489C17.6823 21.1489 16.5234 19.9526 16.5234 18.5321C16.5234 17.0742 17.7197 15.9154 19.1402 15.9154C20.5982 15.9154 21.757 17.1116 21.757 18.5321C21.7944 19.9526 20.5982 21.1489 19.1402 21.1489Z" fill="#2563EB"/>
<path d="M19.1401 17.41C19.3644 17.41 19.5514 17.5969 19.5514 17.8212C19.5514 17.9707 19.6635 18.0829 19.813 18.0829C19.9626 18.0829 20.0747 17.9707 20.0747 17.8212C20.0747 17.3726 19.7757 17.0362 19.4018 16.924V16.7745C19.4018 16.625 19.2897 16.5128 19.1401 16.5128C18.9906 16.5128 18.8785 16.625 18.8785 16.7745V16.924C18.4672 17.0362 18.2056 17.41 18.2056 17.8212C18.2056 18.3445 18.6168 18.7931 19.1775 18.7931C19.4018 18.7931 19.5887 18.98 19.5887 19.2043C19.5887 19.4286 19.4018 19.6155 19.1775 19.6155C18.9532 19.6155 18.7663 19.4286 18.7663 19.2043C18.7663 19.0548 18.6542 18.9427 18.5046 18.9427C18.3551 18.9427 18.2429 19.0548 18.2429 19.2043C18.2429 19.6529 18.542 19.9894 18.9158 20.1015V20.251C18.9158 20.4006 19.028 20.5127 19.1775 20.5127C19.3271 20.5127 19.4392 20.4006 19.4392 20.251V20.1015C19.813 19.9894 20.1121 19.6155 20.1121 19.2043C20.1121 18.681 19.7009 18.2324 19.1401 18.2324C18.9158 18.2324 18.7289 18.0455 18.7289 17.8212C18.7663 17.5969 18.9158 17.41 19.1401 17.41Z" fill="#2563EB"/>
</svg>
