<svg width="24" height="24" viewBox="0 0 24 24" fill="none" xmlns="http://www.w3.org/2000/svg">
<path d="M7.59484 18.6843C7.05996 18.5132 6.56873 18.4136 6.29888 18.0341C6.61524 17.7098 6.8 17.2796 6.81738 16.8269L6.86224 15.6415C6.87768 15.2012 6.73433 14.77 6.45833 14.4266C6.18233 14.0831 5.79207 13.8504 5.35874 13.7708V11.0499H6.46488C6.56338 11.0485 6.65734 11.0083 6.72647 10.9381C6.79561 10.868 6.83436 10.7734 6.83435 10.6749C6.83435 10.5764 6.7956 10.4819 6.72646 10.4117C6.65732 10.3415 6.56336 10.3014 6.46487 10.2999H5.35874C5.15989 10.3001 4.96924 10.3792 4.82863 10.5198C4.68802 10.6604 4.60894 10.8511 4.60874 11.0499V13.7714C4.25137 13.8369 3.58837 14.0591 3.84849 14.5333C3.90144 14.6175 3.98558 14.6772 4.08247 14.6994C4.17935 14.7216 4.28109 14.7045 4.36539 14.6518C5.0837 14.1858 6.17405 14.7217 6.11256 15.6139L6.06791 16.7985C6.05495 17.0773 5.93509 17.3404 5.73322 17.5331C5.53135 17.7258 5.263 17.8334 4.98391 17.8334C4.70482 17.8334 4.43645 17.7259 4.23455 17.5332C4.03265 17.3405 3.91275 17.0775 3.89976 16.7987L3.85856 15.7037C3.85433 15.6047 3.81105 15.5113 3.73818 15.4441C3.66532 15.3769 3.5688 15.3412 3.46972 15.3449C3.37064 15.3487 3.27707 15.3915 3.20946 15.464C3.14186 15.5365 3.10571 15.6328 3.10893 15.7319C3.14374 16.4845 3.05506 17.488 3.66701 18.0357C3.38412 18.4367 2.75942 18.5569 2.37124 18.6848C2.1196 18.7478 1.89664 18.894 1.7385 19.0997C1.58036 19.3053 1.49632 19.5584 1.49999 19.8178V20.3726C1.49947 20.4873 1.53669 20.599 1.6059 20.6906C1.67512 20.7821 1.7725 20.8483 1.88305 20.879C3.90569 21.4848 6.0615 21.4847 8.0841 20.8788C8.19457 20.848 8.29188 20.7818 8.36108 20.6904C8.43028 20.5989 8.46754 20.4873 8.46716 20.3726V19.8178C8.47076 19.5582 8.38657 19.305 8.22823 19.0993C8.06989 18.8935 7.8467 18.7473 7.59484 18.6843ZM7.71716 20.2012C5.9307 20.7129 4.03649 20.713 2.24999 20.2014V19.8178C2.24672 19.7271 2.27411 19.6379 2.32773 19.5647C2.38135 19.4915 2.45808 19.4385 2.54553 19.4142C3.11158 19.2488 3.92559 19.0299 4.29356 18.4606C4.73645 18.6372 5.23022 18.637 5.67301 18.4602C5.80073 18.6621 5.97888 18.8272 6.18987 18.9392C6.57934 19.1467 6.99259 19.3061 7.42053 19.4138C7.77549 19.4968 7.71727 19.9185 7.71716 20.2012Z" fill="#2563EB"/>
<path d="M21.6256 18.6827C21.2425 18.5602 20.6223 18.4304 20.3252 18.0417C20.6467 17.7163 20.8344 17.2822 20.8513 16.8251L20.8956 15.6422C20.9108 15.2017 20.7673 14.7704 20.4911 14.4269C20.215 14.0833 19.8247 13.8504 19.3912 13.7705V11.0499C19.391 10.8511 19.3119 10.6604 19.1713 10.5198C19.0307 10.3792 18.84 10.3001 18.6412 10.2999H17.5349C17.4363 10.3012 17.3422 10.3413 17.2729 10.4115C17.2037 10.4817 17.1649 10.5763 17.1649 10.6749C17.1649 10.7735 17.2037 10.8681 17.2729 10.9383C17.3422 11.0085 17.4363 11.0486 17.5349 11.0499H18.6412V13.7705C18.2078 13.8505 17.8175 14.0835 17.5415 14.4271C17.2654 14.7706 17.1219 15.2019 17.1372 15.6424C17.1778 16.4125 17.0706 17.4724 17.7008 18.0335C17.4165 18.4358 16.7907 18.5577 16.4042 18.6833C16.1526 18.7466 15.9297 18.8929 15.7715 19.0986C15.6133 19.3042 15.5291 19.5572 15.5324 19.8167V20.3717C15.5335 20.4861 15.5712 20.5972 15.6399 20.6886C15.7087 20.7801 15.8049 20.8471 15.9146 20.88L16.2334 20.9662C17.1446 21.2121 18.0844 21.3365 19.0283 21.3363C19.3229 21.3545 19.7193 21.3331 19.7135 20.9455C19.713 20.896 19.7025 20.8471 19.6826 20.8017C19.6627 20.7563 19.6339 20.7154 19.5979 20.6815C19.5618 20.6475 19.5193 20.6212 19.4728 20.6041C19.4264 20.587 19.3769 20.5794 19.3275 20.5819C18.2991 20.6113 17.2722 20.4834 16.2824 20.2027C16.2829 19.9173 16.2239 19.5005 16.5781 19.4129C17.1406 19.2496 17.9619 19.027 18.3276 18.459C18.7697 18.6353 19.2626 18.6354 19.7048 18.4591C19.8322 18.6613 20.0106 18.8263 20.2221 18.9376C20.6106 19.1464 21.0236 19.3059 21.4517 19.4124C21.5391 19.4373 21.6158 19.4904 21.6698 19.5636C21.7238 19.6368 21.752 19.7258 21.75 19.8167V20.2025C21.4263 20.2925 21.1197 20.3664 20.7612 20.4301C20.6703 20.4481 20.5893 20.4991 20.5338 20.5733C20.4782 20.6474 20.452 20.7394 20.4602 20.8317C20.4684 20.924 20.5104 21.01 20.5781 21.0732C20.6458 21.1364 20.7345 21.1724 20.8271 21.1742C21.1552 21.1253 21.4799 21.0558 21.7992 20.9662L22.1326 20.8756C22.2391 20.8409 22.332 20.7736 22.3979 20.6831C22.4639 20.5926 22.4996 20.4836 22.5 20.3716V19.8166C22.5032 19.5568 22.4186 19.3035 22.2599 19.0976C22.1013 18.8918 21.8778 18.7456 21.6256 18.6827ZM17.9311 16.7969L17.8868 15.6142C17.8808 15.4682 17.9046 15.3225 17.9567 15.186C18.0088 15.0495 18.0881 14.925 18.1898 14.8201C18.8694 14.1074 20.2012 14.5922 20.1459 15.6142L20.1016 16.7971C20.0884 17.076 19.9682 17.3391 19.7661 17.5318C19.564 17.7245 19.2955 17.832 19.0163 17.8319C18.7371 17.8319 18.4685 17.7244 18.2665 17.5316C18.0644 17.3389 17.9443 17.0758 17.9311 16.7969Z" fill="#2563EB"/>
<path d="M10.4235 7.79268C10.3315 7.79128 10.241 7.76865 10.1592 7.72655C10.0774 7.68445 10.0064 7.62403 9.95182 7.54999C10.1424 7.23527 10.356 6.46997 9.77928 6.43164C9.67983 6.43165 9.58445 6.47116 9.51413 6.54149C9.4438 6.61181 9.40429 6.70719 9.40428 6.80664C9.41284 6.98056 9.35232 7.15081 9.23592 7.28031C9.11952 7.40982 8.95666 7.48808 8.78282 7.49805C8.68428 7.49944 8.59025 7.53956 8.52106 7.60974C8.45187 7.67991 8.41309 7.7745 8.41309 7.87305C8.41309 7.97159 8.45187 8.06618 8.52106 8.13636C8.59025 8.20653 8.68428 8.24665 8.78282 8.24805C9.00545 8.24615 9.22387 8.18721 9.41724 8.07687C9.54189 8.22194 9.69622 8.33859 9.86979 8.41895C10.0434 8.4993 10.2322 8.54149 10.4234 8.54267C10.5219 8.54118 10.6158 8.50101 10.6849 8.43085C10.7541 8.36069 10.7928 8.26617 10.7928 8.16768C10.7928 8.0692 10.7541 7.97467 10.685 7.90451C10.6159 7.83434 10.5219 7.79417 10.4235 7.79268Z" fill="#2563EB"/>
<path d="M16.7994 9.28479C18.2323 8.62423 18.2347 6.35423 16.7995 5.69318C16.7767 5.26192 16.6115 4.85041 16.3298 4.52305C16.0481 4.1957 15.6658 3.97098 15.2428 3.88407C15.111 3.52876 14.8747 3.22163 14.5651 3.00305C14.2555 2.78446 13.887 2.66463 13.5081 2.6593C13.2099 2.66263 12.9169 2.73817 12.6543 2.87945C12.3916 3.02074 12.1671 3.22356 12 3.47055C11.8329 3.22356 11.6084 3.02074 11.3457 2.87946C11.0831 2.73817 10.7901 2.66263 10.4919 2.6593C10.113 2.66462 9.74444 2.78444 9.43479 3.00303C9.12515 3.22162 8.88887 3.52876 8.75697 3.8841C8.33399 3.97105 7.95176 4.19578 7.67011 4.52313C7.38847 4.85047 7.22329 5.26195 7.20044 5.69318C6.87269 5.86486 6.59817 6.12297 6.40664 6.43954C6.21511 6.7561 6.11387 7.11905 6.11389 7.48904C6.11391 7.85904 6.21519 8.22197 6.40675 8.53851C6.59831 8.85506 6.87285 9.11314 7.20062 9.28479C7.2242 9.71499 7.3894 10.1253 7.67049 10.4518C7.95157 10.7783 8.33275 11.0027 8.75466 11.09C8.86991 11.4078 9.07051 11.6877 9.33442 11.899C9.59833 12.1103 9.91536 12.2447 10.2507 12.2876C10.586 12.3305 10.9267 12.2802 11.2353 12.1422C11.5439 12.0041 11.8085 11.7837 12 11.5052C12.1915 11.7837 12.4561 12.0041 12.7647 12.1421C13.0733 12.2801 13.4139 12.3305 13.7492 12.2876C14.0845 12.2447 14.4015 12.1102 14.6654 11.8989C14.9293 11.6877 15.1299 11.4078 15.2451 11.09C15.6671 11.0027 16.0483 10.7783 16.3294 10.4518C16.6105 10.1253 16.7758 9.715 16.7994 9.28479ZM10.4919 11.565C10.3085 11.5619 10.1286 11.5134 9.96847 11.4239C9.80832 11.3343 9.67285 11.2065 9.57417 11.0517C10.022 10.9215 10.4055 10.6295 10.6501 10.2323C10.7009 10.1481 10.7165 10.0473 10.6936 9.95163C10.6707 9.85598 10.6111 9.77316 10.5278 9.721C10.4444 9.66884 10.3438 9.65153 10.2478 9.67279C10.1518 9.69405 10.068 9.75218 10.0144 9.83466C9.36644 10.8698 7.87492 10.2857 7.95339 9.06813C7.96148 8.98244 7.93983 8.89658 7.89208 8.82496C7.84433 8.75335 7.77339 8.70034 7.69118 8.67485C7.44852 8.58554 7.2391 8.42395 7.09117 8.21187C6.94324 7.9998 6.86393 7.74745 6.86393 7.48888C6.86393 7.23031 6.94324 6.97796 7.09117 6.76588C7.2391 6.55381 7.44852 6.39221 7.69118 6.3029C7.7734 6.27737 7.84434 6.22433 7.89208 6.15268C7.93982 6.08103 7.96146 5.99514 7.95337 5.90943C7.8553 4.70404 9.36715 4.09658 10.0142 5.13987C10.0403 5.18164 10.0744 5.21787 10.1145 5.24647C10.1546 5.27507 10.2 5.29548 10.248 5.30655C10.296 5.31762 10.3457 5.31912 10.3943 5.31096C10.4429 5.30281 10.4894 5.28517 10.5311 5.25903C11.1293 4.78096 10.0037 4.02122 9.57501 3.9228C10.2172 2.94306 11.6392 3.48154 11.625 4.6517V10.3263C11.638 10.6405 11.5262 10.9472 11.3139 11.1793C11.1016 11.4113 10.8061 11.55 10.4919 11.565ZM13.5081 11.565C13.1939 11.55 12.8984 11.4113 12.6861 11.1793C12.4738 10.9472 12.362 10.6406 12.375 10.3263V4.65167C12.361 3.48359 13.7817 2.94124 14.4249 3.9229C13.9981 4.0176 12.87 4.78496 13.4687 5.25885C13.5104 5.28507 13.5569 5.3028 13.6054 5.31101C13.654 5.31922 13.7038 5.31775 13.7518 5.30669C13.7998 5.29564 13.8451 5.2752 13.8852 5.24657C13.9253 5.21793 13.9594 5.18166 13.9854 5.13983C14.0826 4.97771 14.2197 4.84314 14.3835 4.74889C14.5474 4.65464 14.7326 4.60385 14.9216 4.60133C15.0827 4.60977 15.2403 4.65077 15.3851 4.72185C15.5298 4.79292 15.6586 4.89261 15.7638 5.01487C15.8689 5.13713 15.9481 5.27944 15.9967 5.4332C16.0453 5.58695 16.0622 5.74896 16.0465 5.90944C16.0383 5.99516 16.06 6.08107 16.1077 6.15273C16.1555 6.22438 16.2264 6.27742 16.3087 6.30293C17.3973 6.63102 17.3982 8.34668 16.3086 8.67488C16.2264 8.70041 16.1555 8.75343 16.1078 8.82504C16.0601 8.89666 16.0384 8.98251 16.0465 9.06819C16.0626 9.22856 16.0459 9.39052 15.9974 9.54422C15.9489 9.69792 15.8696 9.84014 15.7643 9.96221C15.6591 10.0843 15.5301 10.1837 15.3852 10.2543C15.2404 10.3249 15.0826 10.3653 14.9216 10.373C14.7326 10.3705 14.5474 10.3197 14.3835 10.2254C14.2197 10.1312 14.0826 9.99662 13.9854 9.8345C13.9323 9.75096 13.8483 9.69181 13.7518 9.66995C13.6552 9.6481 13.5539 9.6653 13.47 9.71782C13.3861 9.77034 13.3264 9.8539 13.3038 9.9503C13.2813 10.0467 13.2978 10.1481 13.3497 10.2324C13.5944 10.6294 13.9779 10.9214 14.4257 11.0517C14.3271 11.2064 14.1916 11.3343 14.0315 11.4239C13.8714 11.5134 13.6915 11.5619 13.5081 11.565Z" fill="#2563EB"/>
<path d="M13.5763 8.54264C13.7676 8.54147 13.9564 8.49928 14.1299 8.41893C14.3035 8.33857 14.4578 8.22192 14.5825 8.07685C14.7759 8.18719 14.9943 8.24613 15.2169 8.24803C15.3155 8.24664 15.4095 8.20651 15.4787 8.13634C15.5479 8.06616 15.5867 7.97158 15.5867 7.87303C15.5867 7.77448 15.5479 7.67989 15.4787 7.60972C15.4095 7.53955 15.3155 7.49942 15.2169 7.49803C15.0431 7.48805 14.8802 7.40979 14.7638 7.28029C14.6474 7.15079 14.5869 6.98054 14.5955 6.80662C14.5941 6.70809 14.554 6.61406 14.4838 6.54487C14.4136 6.47568 14.319 6.43689 14.2205 6.43689C14.1219 6.43689 14.0273 6.47568 13.9572 6.54487C13.887 6.61406 13.8469 6.70809 13.8455 6.80662C13.8462 7.06792 13.9161 7.32437 14.048 7.54994C13.9933 7.62398 13.9224 7.68441 13.8405 7.7265C13.7587 7.7686 13.6683 7.79123 13.5763 7.79263C13.4777 7.79395 13.3836 7.83404 13.3144 7.90422C13.2451 7.9744 13.2063 8.06903 13.2063 8.16763C13.2063 8.26623 13.2451 8.36086 13.3144 8.43104C13.3836 8.50123 13.4777 8.54132 13.5763 8.54264Z" fill="#2563EB"/>
</svg>
