<svg width="24" height="24" viewBox="0 0 24 24" fill="none" xmlns="http://www.w3.org/2000/svg">
<path d="M22.875 17.25H21.375C21.168 17.25 21 17.4176 21 17.625H18.6075C18.3791 17.625 18.159 17.6933 17.9801 17.8163L16.5461 18.741L12.6592 17.2406C12.6364 17.232 12.6131 17.2253 12.5891 17.2211C12.1624 17.1461 11.7281 17.2624 11.3966 17.5406C11.0651 17.8189 10.875 18.2265 10.875 18.6596C10.875 19.1494 11.118 19.6039 11.5252 19.8746L16.3046 23.061C16.4921 23.1859 16.7104 23.2496 16.9294 23.2496C17.1011 23.2496 17.2736 23.2106 17.4323 23.1315L19.9639 21.8655H21V22.5C21 22.7074 21.168 22.875 21.375 22.875H22.875C23.082 22.875 23.25 22.7074 23.25 22.5V17.625C23.25 17.4176 23.082 17.25 22.875 17.25ZM21 21.1155H19.875C19.8169 21.1155 19.7591 21.129 19.7074 21.1549L17.097 22.4603C16.9759 22.5199 16.8323 22.5113 16.7209 22.437L11.9411 19.2506C11.7431 19.1186 11.625 18.8978 11.625 18.6596C11.625 18.4489 11.7176 18.2505 11.8789 18.1151C12.0319 17.9869 12.2306 17.9295 12.4268 17.9546L15.8415 19.2728C15.5632 19.6403 15.5359 20.1506 15.8018 20.5496C16.014 20.8684 16.3639 21.042 16.7216 21.042C16.9155 21.042 17.112 20.991 17.2901 20.8841L18.5681 20.1173L18.1823 19.4741L16.9042 20.241C16.7411 20.3374 16.5311 20.2916 16.4261 20.1334C16.3286 19.9871 16.3526 19.7944 16.4801 19.6763L18.3956 18.4403C18.4583 18.3979 18.5314 18.375 18.6075 18.375H21V21.1155ZM22.5 22.125H21.75V18H22.5V22.125Z" fill="#2563EB"/>
<path d="M6.99412 16.9654C6.88275 16.8694 6.72675 16.8484 6.59325 16.9095C6.4605 16.9706 6.375 17.1034 6.375 17.25V18H1.875C1.668 18 1.5 18.1676 1.5 18.375V20.625C1.5 20.8324 1.668 21 1.875 21H6.375V21.75C6.375 21.8966 6.4605 22.0294 6.59325 22.0905C6.6435 22.1137 6.69675 22.125 6.75 22.125C6.83775 22.125 6.92475 22.0942 6.99412 22.0346L9.61912 19.7846C9.70237 19.7134 9.75 19.6095 9.75 19.5C9.75 19.3905 9.70237 19.2866 9.61912 19.2154L6.99412 16.9654ZM7.125 20.9347V20.625C7.125 20.4176 6.957 20.25 6.75 20.25H2.25V18.75H6.75C6.957 18.75 7.125 18.5824 7.125 18.375V18.0652L8.79862 19.5L7.125 20.9347Z" fill="#2563EB"/>
<path d="M12 0.75C9.105 0.75 6.75 3.105 6.75 6C6.75 8.7795 9.09863 11.1304 11.9857 11.2403C11.9906 11.2406 11.9951 11.2406 12 11.2406C12.0967 11.2406 12.1901 11.2031 12.2599 11.136C12.3334 11.0651 12.375 10.9673 12.375 10.8656V6.375H16.875C17.082 6.375 17.25 6.20737 17.25 6C17.25 3.105 14.895 0.75 12 0.75ZM12 5.625C11.793 5.625 11.625 5.79263 11.625 6V10.4602C9.31725 10.1824 7.5 8.256 7.5 6C7.5 3.51862 9.51862 1.5 12 1.5C14.355 1.5 16.2934 3.31875 16.4843 5.625H12Z" fill="#2563EB"/>
<path d="M13.125 7.5V12.3656C13.125 12.567 13.284 12.7327 13.485 12.7402L13.5502 12.744C13.5982 12.747 13.6459 12.75 13.6946 12.75C16.6886 12.75 19.125 10.395 19.125 7.5C19.125 7.29263 18.957 7.125 18.75 7.125H13.5C13.293 7.125 13.125 7.29263 13.125 7.5ZM13.875 7.875H18.3589C18.165 10.1246 16.2424 11.91 13.875 11.9966V7.875Z" fill="#2563EB"/>
<path d="M4.125 12H4.875C5.08162 12 5.25 12.168 5.25 12.375H6C6 11.7547 5.49525 11.25 4.875 11.25V10.875H4.125V11.25C3.50475 11.25 3 11.7547 3 12.375V12.75C3 13.3703 3.50475 13.875 4.125 13.875H4.875C5.08162 13.875 5.25 14.043 5.25 14.25V14.625C5.25 14.832 5.08162 15 4.875 15H4.125C3.91838 15 3.75 14.832 3.75 14.625H3C3 15.2453 3.50475 15.75 4.125 15.75V16.125H4.875V15.75C5.49525 15.75 6 15.2453 6 14.625V14.25C6 13.6297 5.49525 13.125 4.875 13.125H4.125C3.91838 13.125 3.75 12.957 3.75 12.75V12.375C3.75 12.168 3.91838 12 4.125 12Z" fill="#2563EB"/>
</svg>
