<svg width="24" height="24" viewBox="0 0 24 24" fill="none" xmlns="http://www.w3.org/2000/svg">
<g clip-path="url(#clip0_413_6384)">
<path d="M11.6131 9.29035V10.0645H12.3873V9.29035C13.2412 9.29035 13.9357 8.5959 13.9357 7.74196C13.9357 6.88803 13.2412 6.19358 12.3873 6.19358H11.6131C11.1861 6.19358 10.8389 5.84635 10.8389 5.41938C10.8389 4.99241 11.1861 4.64519 11.6131 4.64519H12.3873C12.8142 4.64519 13.1615 4.99241 13.1615 5.41938H13.9357C13.9357 4.56545 13.2412 3.871 12.3873 3.871V3.0968H11.6131V3.871C10.7591 3.871 10.0647 4.56545 10.0647 5.41938C10.0647 6.27332 10.7591 6.96777 11.6131 6.96777H12.3873C12.8142 6.96777 13.1615 7.315 13.1615 7.74196C13.1615 8.16893 12.8142 8.51616 12.3873 8.51616H11.6131C11.1861 8.51616 10.8389 8.16893 10.8389 7.74196V7.35487H10.0647V7.74196C10.0647 8.5959 10.7591 9.29035 11.6131 9.29035Z" fill="#2563EB"/>
<path d="M12.0002 13.1613C15.6288 13.1613 18.5808 10.2093 18.5808 6.58064C18.5808 2.952 15.6288 0 12.0002 0C8.37156 0 5.41956 2.952 5.41956 6.58064C5.41956 10.2093 8.37156 13.1613 12.0002 13.1613ZM7.74214 6.58064C7.74214 4.2329 9.65246 2.32258 12.0002 2.32258C14.3479 2.32258 16.2583 4.2329 16.2583 6.58064C16.2583 8.92839 14.3479 10.8387 12.0002 10.8387C9.65246 10.8387 7.74214 8.92839 7.74214 6.58064ZM8.73001 10.3978C9.03272 10.6575 9.36601 10.8801 9.72446 11.0628L9.42794 11.7782C8.9762 11.5537 8.55852 11.2738 8.18265 10.9448L8.73001 10.3978ZM10.4387 11.3621C10.813 11.4848 11.2063 11.5622 11.6131 11.5935V12.3677C11.1021 12.3337 10.6094 12.2354 10.1425 12.077L10.4387 11.3621ZM12.3873 11.5932C12.7941 11.5618 13.1874 11.4844 13.5617 11.3617L13.8579 12.0766C13.391 12.235 12.8983 12.3333 12.3873 12.3674V11.5932ZM14.2756 11.0632C14.634 10.8805 14.9673 10.6575 15.27 10.3982L15.8174 10.9455C15.4415 11.2746 15.0238 11.5545 14.5721 11.779L14.2756 11.0632ZM15.8174 9.85045C16.0767 9.54774 16.2997 9.21445 16.4824 8.856L17.1977 9.15251C16.9732 9.60426 16.6934 10.0219 16.3643 10.3978L15.8174 9.85045ZM16.7812 8.14219C16.9039 7.76787 16.9814 7.37458 17.0127 6.96774H17.7869C17.7528 7.47871 17.6545 7.97148 17.4962 8.43832L16.7812 8.14219ZM17.0127 6.19355C16.9814 5.78671 16.9039 5.39342 16.7812 5.0191L17.4962 4.72297C17.6545 5.18981 17.7528 5.68258 17.7869 6.19355H17.0127ZM16.4824 4.3049C16.2997 3.94684 16.0767 3.61316 15.8174 3.31045L16.3647 2.7631C16.6937 3.13897 16.9736 3.55664 17.1981 4.00839L16.4824 4.3049ZM15.27 2.76348C14.9673 2.50374 14.634 2.28116 14.2756 2.09845L14.5721 1.3831C15.0238 1.60761 15.4415 1.88748 15.8174 2.21652L15.27 2.76348ZM13.5614 1.79923C13.187 1.67652 12.7937 1.5991 12.3869 1.56774V0.793548C12.8979 0.827613 13.3907 0.925935 13.8575 1.08426L13.5614 1.79923ZM11.6131 1.56813C11.2063 1.59948 10.813 1.6769 10.4387 1.79961L10.1425 1.08426C10.6094 0.925935 11.1021 0.827613 11.6131 0.793548V1.56813ZM9.72446 2.09806C9.36601 2.28077 9.03272 2.50374 8.73001 2.7631L8.18265 2.21574C8.55852 1.88671 8.9762 1.60684 9.42794 1.38232L9.72446 2.09806ZM8.18265 3.31084C7.9233 3.61355 7.70033 3.94684 7.51762 4.30529L6.80227 4.00877C7.02678 3.55703 7.30665 3.13935 7.63568 2.76348L8.18265 3.31084ZM7.21878 5.0191C7.09646 5.39342 7.01865 5.78671 6.9873 6.19355H6.2131C6.24717 5.68258 6.34549 5.18981 6.50381 4.72297L7.21878 5.0191ZM6.9873 6.96774C7.01865 7.37458 7.09607 7.76787 7.21878 8.14219L6.50381 8.43832C6.34549 7.97148 6.24717 7.47871 6.2131 6.96774H6.9873ZM7.51762 8.85639C7.70033 9.21445 7.9233 9.54813 8.18265 9.85084L7.6353 10.3982C7.30627 10.0223 7.02639 9.60464 6.80188 9.1529L7.51762 8.85639Z" fill="#2563EB"/>
<path d="M17.8067 13.9354H6.19376C5.5535 13.9354 5.03247 14.4565 5.03247 15.0967V22.8387C5.03247 23.4789 5.5535 23.9999 6.19376 23.9999H17.8067C18.4469 23.9999 18.968 23.4789 18.968 22.8387V15.0967C18.968 14.4565 18.4469 13.9354 17.8067 13.9354ZM6.19376 14.7096H17.8067C18.0203 14.7096 18.1938 14.8834 18.1938 15.0967V16.258H5.80666V15.0967C5.80666 14.8834 5.98008 14.7096 6.19376 14.7096ZM18.1938 17.0322V17.8064H5.80666V17.0322H18.1938ZM17.8067 23.2257H6.19376C5.98008 23.2257 5.80666 23.0519 5.80666 22.8387V18.5806H18.1938V22.8387C18.1938 23.0519 18.02 23.2257 17.8067 23.2257Z" fill="#2563EB"/>
<path d="M12.0001 22.4516H17.4195V19.3549H12.0001V22.4516ZM14.3227 21.6774V20.1291H15.0969V21.6774H14.3227ZM16.6453 21.6774H15.8711V20.1291H16.6453V21.6774ZM12.7743 20.1291H13.5485V21.6774H12.7743V20.1291Z" fill="#2563EB"/>
<path d="M6.58081 21.6774H9.67758V22.4516H6.58081V21.6774Z" fill="#2563EB"/>
<path d="M6.58081 20.129H9.67758V20.9032H6.58081V20.129Z" fill="#2563EB"/>
<path d="M23.3154 17.9458L22.8389 18.5179V4.64514H22.0647V19.4469L21.6776 19.9115L21.2905 19.4469V4.64514H20.5163V18.5179L20.0394 17.9458L19.4445 18.4413L21.6776 21.1208L23.9104 18.4413L23.3154 17.9458Z" fill="#2563EB"/>
<path d="M22.0647 1.54834H22.8389V2.32253H22.0647V1.54834Z" fill="#2563EB"/>
<path d="M22.0647 3.0968H22.8389V3.871H22.0647V3.0968Z" fill="#2563EB"/>
<path d="M22.0647 0H22.8389V0.774194H22.0647V0Z" fill="#2563EB"/>
<path d="M0.0895996 5.55876L0.684567 6.05424L1.16147 5.48211V19.3549H1.93566V4.55308L2.32276 4.08856L2.70986 4.55308V19.3549H3.48405V5.48211L3.96057 6.05424L4.55553 5.55876L2.32276 2.87927L0.0895996 5.55876Z" fill="#2563EB"/>
<path d="M1.1615 20.129H1.93569V20.9032H1.1615V20.129Z" fill="#2563EB"/>
<path d="M1.1615 23.2258H1.93569V24H1.1615V23.2258Z" fill="#2563EB"/>
<path d="M1.1615 21.6774H1.93569V22.4516H1.1615V21.6774Z" fill="#2563EB"/>
</g>
<defs>
<clipPath id="clip0_413_6384">
<rect width="24" height="24" fill="white"/>
</clipPath>
</defs>
</svg>
