<svg width="24" height="24" viewBox="0 0 24 24" fill="none" xmlns="http://www.w3.org/2000/svg">
<path d="M14.5854 11.3291L13.5 10.7864V2.25C13.5 1.83545 13.1646 1.5 12.75 1.5H9.75C9.33545 1.5 9 1.83545 9 2.25V3.75H6.75C6.33545 3.75 6 4.08545 6 4.5V6H3.75C3.33545 6 3 6.33545 3 6.75V10.7864L1.91455 11.3291C1.6604 11.4565 1.5 11.7158 1.5 12V18.75C1.5 19.0342 1.6604 19.2935 1.91455 19.4209L7.91455 22.4209C8.02002 22.4736 8.13501 22.5 8.25 22.5C8.36499 22.5 8.47998 22.4736 8.58545 22.4209L14.5854 19.4209C14.8396 19.2935 15 19.0342 15 18.75V12C15 11.7158 14.8396 11.4565 14.5854 11.3291ZM8.25 14.1614L3.92725 12L8.25 9.83862L12.5728 12L8.25 14.1614ZM12 3V10.0364L10.5 9.28638V3H12ZM9 5.25V8.53638L8.58545 8.3291C8.37451 8.22363 8.12549 8.22363 7.91455 8.3291L7.5 8.53638V5.25H9ZM4.5 7.5H6V9.28638L4.5 10.0364V7.5ZM3 13.2136L7.5 15.4636V20.5364L3 18.2864V13.2136ZM9 20.5364V15.4636L13.5 13.2136V18.2864L9 20.5364Z" fill="black"/>
<path d="M21.75 15H18.3105L18.5303 14.7803C18.8232 14.4873 18.8232 14.0127 18.5303 13.7197C18.2373 13.4268 17.7627 13.4268 17.4697 13.7197L15.9697 15.2197C15.6768 15.5127 15.6768 15.9873 15.9697 16.2803L17.4697 17.7803C17.6162 17.9268 17.8081 18 18 18C18.1919 18 18.3838 17.9268 18.5303 17.7803C18.8232 17.4873 18.8232 17.0127 18.5303 16.7197L18.3105 16.5H21.75C22.1646 16.5 22.5 16.1646 22.5 15.75C22.5 15.3354 22.1646 15 21.75 15Z" fill="black"/>
<path d="M18 9.75C17.5862 9.75 17.25 9.41382 17.25 9C17.25 8.58545 16.9146 8.25 16.5 8.25C16.0854 8.25 15.75 8.58545 15.75 9C15.75 9.97646 16.3789 10.8012 17.25 11.1118V11.25C17.25 11.6646 17.5854 12 18 12C18.4146 12 18.75 11.6646 18.75 11.25V11.1118C19.6211 10.8012 20.25 9.97646 20.25 9C20.25 7.75928 19.2407 6.75 18 6.75C17.5862 6.75 17.25 6.41382 17.25 6C17.25 5.58618 17.5862 5.25 18 5.25C18.4138 5.25 18.75 5.58618 18.75 6C18.75 6.41455 19.0854 6.75 19.5 6.75C19.9146 6.75 20.25 6.41455 20.25 6C20.25 5.02354 19.6211 4.19879 18.75 3.8882V3.75C18.75 3.33545 18.4146 3 18 3C17.5854 3 17.25 3.33545 17.25 3.75V3.8882C16.3789 4.19879 15.75 5.02354 15.75 6C15.75 7.24072 16.7593 8.25 18 8.25C18.4138 8.25 18.75 8.58618 18.75 9C18.75 9.41382 18.4138 9.75 18 9.75Z" fill="black"/>
</svg>
