<svg width="24" height="24" viewBox="0 0 24 24" fill="none" xmlns="http://www.w3.org/2000/svg">
<path d="M20.3209 4.65843L18.5647 5.82724V5.29459H16.5213L11.8982 11.7738L7.02278 7.3694H3.41158V6.09586H7.5136L11.6923 9.86993L15.8653 4.02104H18.5647V3.48834L20.3209 4.65843Z" fill="#231F20"/>
<path d="M18.6252 18.9904V20.5117H15.9223V18.9904C16.341 19.158 16.7969 19.2497 17.2738 19.2497C17.7506 19.2497 18.2065 19.158 18.6252 18.9904Z" fill="#231F20"/>
<path d="M18.6252 9.37802V12.182C18.2065 12.0157 17.7506 11.9226 17.2738 11.9226C16.7969 11.9226 16.341 12.0157 15.9223 12.182V9.37802H18.6252Z" fill="#231F20"/>
<path d="M18.5135 14.793C18.5135 15.2118 18.0751 15.5514 17.5343 15.5514H16.2666V14.0347H16.7795V14.4325H17.1284V14.0347H17.2854V14.4325H17.6343V14.0382C18.1274 14.0779 18.5135 14.4011 18.5135 14.793Z" fill="#231F20"/>
<path d="M17.2854 16.8958V17.4366H17.1284V16.8958H16.7795V17.4366H16.2666V15.9003H17.5343V15.9189C18.0751 15.9189 18.5135 16.2597 18.5135 16.6772C18.5135 17.0703 18.1274 17.3936 17.6343 17.432V16.8958H17.2854Z" fill="#231F20"/>
<path d="M17.1284 13.2869H16.7795V13.6858H15.9177V15.7445V15.9003V17.7855H16.7795V18.0415H17.1284V17.7855H17.2854V18.0415H17.6343V17.7809C18.3205 17.7378 18.8624 17.2598 18.8624 16.6772C18.8624 16.2794 18.609 15.9305 18.2298 15.7352C18.609 15.5397 18.8624 15.192 18.8624 14.793C18.8624 14.2103 18.3205 13.7324 17.6343 13.6893V13.2869H17.2854V13.6858H17.1284V13.2869ZM19.6161 13.244C20.2163 13.844 20.5884 14.6721 20.5884 15.5862C20.5884 17.4145 19.1009 18.9008 17.2738 18.9008C15.8455 18.9008 14.6255 17.9938 14.1603 16.7249C14.0301 16.3701 13.9591 15.9863 13.9591 15.5862C13.9591 13.7592 15.4455 12.2715 17.2738 12.2715C18.1879 12.2715 19.016 12.6438 19.6161 13.244Z" fill="#231F20"/>
<path d="M9.7664 13.7905H12.4693V20.5117H9.7664V13.7905Z" fill="#231F20"/>
<path d="M3.71391 9.378H6.41687V20.5117H3.71391V9.378Z" fill="#231F20"/>
</svg>
