<svg width="24" height="24" viewBox="0 0 24 24" fill="none" xmlns="http://www.w3.org/2000/svg">
<path d="M19.7587 15.2625C19.5752 15.0019 19.2986 14.8216 18.986 14.7588C18.6735 14.696 18.3487 14.7555 18.0787 14.925L14.1075 17.4113C14.0339 17.1688 13.8854 16.9558 13.6833 16.8029C13.4812 16.6499 13.2359 16.5649 12.9825 16.56H8.99999C8.27999 16.515 7.40249 17.055 6.77249 17.34V17.0138C6.7715 16.844 6.70363 16.6815 6.58358 16.5614C6.46354 16.4414 6.301 16.3735 6.13124 16.3725H4.65374C4.48432 16.3735 4.32217 16.4415 4.20273 16.5617C4.08328 16.6818 4.01623 16.8444 4.01624 17.0138V21.4875C4.01624 21.6566 4.0834 21.8188 4.20295 21.9383C4.32251 22.0579 4.48466 22.125 4.65374 22.125H6.13499C6.30441 22.125 6.46695 22.058 6.5871 21.9385C6.70725 21.8191 6.77524 21.6569 6.77624 21.4875V21.1125H8.20874V20.5538H6.77249V17.9438L8.09249 17.3138C8.37618 17.1797 8.6862 17.1105 8.99999 17.1113H12.9637C13.1368 17.1113 13.3028 17.18 13.4251 17.3024C13.5475 17.4248 13.6162 17.5907 13.6162 17.7638C13.6162 17.9368 13.5475 18.1028 13.4251 18.2252C13.3028 18.3475 13.1368 18.4163 12.9637 18.4163H10.1962V18.9638H12.9637C13.2324 18.9629 13.493 18.8718 13.7037 18.7053C13.9145 18.5387 14.0633 18.3062 14.1262 18.045L18.375 15.375C18.453 15.327 18.5398 15.2948 18.6303 15.2804C18.7208 15.2659 18.8132 15.2693 18.9024 15.2906C18.9915 15.3118 19.0756 15.3504 19.1498 15.4041C19.2241 15.4579 19.287 15.5257 19.335 15.6038C19.383 15.6818 19.4152 15.7686 19.4297 15.8591C19.4441 15.9496 19.4407 16.042 19.4194 16.1312C19.3982 16.2203 19.3596 16.3044 19.3059 16.3786C19.2521 16.4528 19.1843 16.5158 19.1062 16.5638L12.8737 20.37C12.6481 20.5083 12.3884 20.581 12.1237 20.58L9.39374 20.5538V21.105C9.39374 21.105 12.1237 21.1275 12.135 21.1275C12.4974 21.1264 12.8526 21.0266 13.1625 20.8388L19.3875 17.0438C19.5325 16.9544 19.6577 16.8364 19.7555 16.6971C19.8534 16.5577 19.9218 16.3998 19.9565 16.2331C19.9913 16.0663 19.9916 15.8943 19.9576 15.7274C19.9236 15.5605 19.856 15.4024 19.7587 15.2625ZM6.22874 21.4875C6.22777 21.5117 6.21746 21.5346 6.19999 21.5514C6.18251 21.5682 6.15921 21.5775 6.13499 21.5775H4.65374C4.64192 21.5775 4.63021 21.5752 4.61929 21.5707C4.60837 21.5662 4.59845 21.5595 4.5901 21.5512C4.58174 21.5428 4.57511 21.5329 4.57059 21.522C4.56606 21.511 4.56374 21.4993 4.56374 21.4875V17.0138C4.56372 16.9895 4.57308 16.9663 4.58986 16.9488C4.60663 16.9313 4.62953 16.921 4.65374 16.92H6.13499C6.15985 16.92 6.1837 16.9299 6.20128 16.9475C6.21886 16.9651 6.22874 16.9889 6.22874 17.0138V21.4875Z" fill="#2563EB"/>
<path d="M8.97374 9.34875C8.20559 9.34975 7.46924 9.65559 6.92643 10.1991C6.38362 10.7426 6.07873 11.4794 6.07874 12.2475C6.22499 16.0838 11.7262 16.0838 11.8725 12.2475C11.8715 11.479 11.5658 10.7423 11.0224 10.1989C10.479 9.65547 9.74223 9.34975 8.97374 9.34875ZM8.97374 14.5988C8.35144 14.5978 7.75492 14.3501 7.3149 13.9101C6.87487 13.4701 6.62723 12.8735 6.62624 12.2513C6.73499 9.1425 11.2125 9.1425 11.325 12.2513C11.323 12.8735 11.0744 13.4697 10.6337 13.909C10.1929 14.3483 9.59603 14.595 8.97374 14.595V14.5988Z" fill="#2563EB"/>
<path d="M7.54175 13.2928L10.0207 10.8139L10.4077 11.201L7.92883 13.6799L7.54175 13.2928Z" fill="#2563EB"/>
<path d="M8.51627 11.8612C8.71817 11.8473 8.90728 11.7574 9.04539 11.6095C9.18351 11.4615 9.26032 11.2667 9.26032 11.0643C9.26032 10.862 9.18351 10.6671 9.04539 10.5192C8.90728 10.3713 8.71817 10.2813 8.51627 10.2675C8.31437 10.2813 8.12526 10.3713 7.98715 10.5192C7.84903 10.6671 7.77222 10.862 7.77222 11.0643C7.77222 11.2667 7.84903 11.4615 7.98715 11.6095C8.12526 11.7574 8.31437 11.8473 8.51627 11.8612ZM8.51627 10.815C8.57714 10.8224 8.63318 10.8519 8.67381 10.8979C8.71445 10.9438 8.73688 11.003 8.73688 11.0643C8.73688 11.1257 8.71445 11.1849 8.67381 11.2308C8.63318 11.2767 8.57714 11.3062 8.51627 11.3137C8.4554 11.3062 8.39936 11.2767 8.35873 11.2308C8.31809 11.1849 8.29566 11.1257 8.29566 11.0643C8.29566 11.003 8.31809 10.9438 8.35873 10.8979C8.39936 10.8519 8.4554 10.8224 8.51627 10.815Z" fill="#2563EB"/>
<path d="M9.43501 12.6338C9.22417 12.6338 9.02196 12.7175 8.87286 12.8666C8.72377 13.0157 8.64001 13.2179 8.64001 13.4288C8.64001 13.6396 8.72377 13.8418 8.87286 13.9909C9.02196 14.14 9.22417 14.2238 9.43501 14.2238C9.64586 14.2238 9.84807 14.14 9.99716 13.9909C10.1463 13.8418 10.23 13.6396 10.23 13.4288C10.23 13.2179 10.1463 13.0157 9.99716 12.8666C9.84807 12.7175 9.64586 12.6338 9.43501 12.6338ZM9.43501 13.6763C9.36937 13.6763 9.30642 13.6502 9.26001 13.6038C9.21359 13.5574 9.18751 13.4944 9.18751 13.4288C9.18751 13.3631 9.21359 13.3002 9.26001 13.2538C9.30642 13.2074 9.36937 13.1813 9.43501 13.1813C9.50066 13.1813 9.56361 13.2074 9.61002 13.2538C9.65644 13.3002 9.68251 13.3631 9.68251 13.4288C9.68251 13.4944 9.65644 13.5574 9.61002 13.6038C9.56361 13.6502 9.50066 13.6763 9.43501 13.6763Z" fill="#2563EB"/>
<path d="M14.6249 11.8612C15.3924 11.8602 16.1282 11.5549 16.6709 11.0122C17.2136 10.4695 17.519 9.73374 17.5199 8.96624C17.3737 5.12624 11.8724 5.12999 11.7262 8.96624C11.7282 9.73408 12.0343 10.4699 12.5776 11.0124C13.1209 11.555 13.8571 11.8603 14.6249 11.8612ZM14.6249 6.61124C15.2479 6.61223 15.845 6.86039 16.2851 7.30123C16.7252 7.74207 16.9724 8.33955 16.9724 8.96249C16.8749 12.075 12.3749 12.0712 12.2737 8.96624C12.2737 8.34265 12.5214 7.7446 12.9624 7.30366C13.4033 6.86271 14.0014 6.61499 14.6249 6.61499V6.61124Z" fill="#2563EB"/>
<path d="M13.1897 10.014L15.6686 7.53512L16.0557 7.9222L13.5768 10.4011L13.1897 10.014Z" fill="#2563EB"/>
<path d="M14.1637 8.57996C14.3656 8.5661 14.5547 8.47612 14.6929 8.3282C14.831 8.18028 14.9078 7.98545 14.9078 7.78308C14.9078 7.58071 14.831 7.38588 14.6929 7.23796C14.5547 7.09004 14.3656 7.00006 14.1637 6.98621C13.9618 7.00006 13.7727 7.09004 13.6346 7.23796C13.4965 7.38588 13.4197 7.58071 13.4197 7.78308C13.4197 7.98545 13.4965 8.18028 13.6346 8.3282C13.7727 8.47612 13.9618 8.5661 14.1637 8.57996ZM14.1637 7.53371C14.2246 7.54119 14.2806 7.57067 14.3213 7.6166C14.3619 7.66254 14.3843 7.72175 14.3843 7.78308C14.3843 7.84441 14.3619 7.90362 14.3213 7.94956C14.2806 7.99549 14.2246 8.02498 14.1637 8.03246C14.1029 8.02498 14.0468 7.99549 14.0062 7.94956C13.9656 7.90362 13.9431 7.84441 13.9431 7.78308C13.9431 7.72175 13.9656 7.66254 14.0062 7.6166C14.0468 7.57067 14.1029 7.54119 14.1637 7.53371Z" fill="#2563EB"/>
<path d="M15.0826 9.34875C14.8807 9.36261 14.6915 9.45259 14.5534 9.60051C14.4153 9.74843 14.3385 9.94326 14.3385 10.1456C14.3385 10.348 14.4153 10.5428 14.5534 10.6907C14.6915 10.8387 14.8807 10.9286 15.0826 10.9425C15.2845 10.9286 15.4736 10.8387 15.6117 10.6907C15.7498 10.5428 15.8266 10.348 15.8266 10.1456C15.8266 9.94326 15.7498 9.74843 15.6117 9.60051C15.4736 9.45259 15.2845 9.36261 15.0826 9.34875ZM15.0826 10.395C15.0217 10.3875 14.9656 10.358 14.925 10.3121C14.8844 10.2662 14.8619 10.207 14.8619 10.1456C14.8619 10.0843 14.8844 10.0251 14.925 9.97915C14.9656 9.93322 15.0217 9.90373 15.0826 9.89625C15.1434 9.90373 15.1995 9.93322 15.2401 9.97915C15.2807 10.0251 15.3032 10.0843 15.3032 10.1456C15.3032 10.207 15.2807 10.2662 15.2401 10.3121C15.1995 10.358 15.1434 10.3875 15.0826 10.395Z" fill="#2563EB"/>
<path d="M8.91 7.64996C9.67849 7.64897 10.4152 7.34325 10.9586 6.79984C11.502 6.25643 11.8078 5.5197 11.8088 4.75121C11.6625 0.914961 6.1575 0.914961 6 4.75121C6 5.13283 6.07535 5.51069 6.22173 5.86312C6.3681 6.21555 6.58263 6.5356 6.853 6.80492C7.12336 7.07425 7.44425 7.28753 7.79724 7.43254C8.15023 7.57756 8.52839 7.65144 8.91 7.64996ZM8.91 2.39996C9.53164 2.40294 10.1268 2.65197 10.5653 3.09259C11.0038 3.53321 11.25 4.12956 11.25 4.75121C11.1375 7.86371 6.66 7.85996 6.55125 4.75121C6.55174 4.44212 6.61317 4.13617 6.73202 3.85084C6.85087 3.56552 7.02481 3.30643 7.24389 3.08839C7.46297 2.87036 7.72289 2.69766 8.00878 2.58017C8.29467 2.46269 8.60091 2.40272 8.91 2.40371V2.39996Z" fill="#2563EB"/>
<path d="M7.47681 5.79932L9.95573 3.3204L10.3428 3.70748L7.86389 6.1864L7.47681 5.79932Z" fill="#2563EB"/>
<path d="M8.45255 4.36877C8.65445 4.35492 8.84356 4.26494 8.98167 4.11702C9.11978 3.9691 9.1966 3.77427 9.1966 3.5719C9.1966 3.36953 9.11978 3.1747 8.98167 3.02678C8.84356 2.87886 8.65445 2.78888 8.45255 2.77502C8.25065 2.78888 8.06154 2.87886 7.92343 3.02678C7.78531 3.1747 7.7085 3.36953 7.7085 3.5719C7.7085 3.77427 7.78531 3.9691 7.92343 4.11702C8.06154 4.26494 8.25065 4.35492 8.45255 4.36877ZM8.45255 3.32252C8.51342 3.33 8.56946 3.35949 8.61009 3.40542C8.65073 3.45136 8.67316 3.51057 8.67316 3.5719C8.67316 3.63323 8.65073 3.69244 8.61009 3.73838C8.56946 3.78431 8.51342 3.8138 8.45255 3.82127C8.39168 3.8138 8.33564 3.78431 8.29501 3.73838C8.25437 3.69244 8.23194 3.63323 8.23194 3.5719C8.23194 3.51057 8.25437 3.45136 8.29501 3.40542C8.33564 3.35949 8.39168 3.33 8.45255 3.32252Z" fill="#2563EB"/>
<path d="M9.37498 5.13745C9.16114 5.13745 8.95607 5.2224 8.80487 5.3736C8.65367 5.5248 8.56873 5.72987 8.56873 5.9437C8.56873 6.15753 8.65367 6.3626 8.80487 6.51381C8.95607 6.66501 9.16114 6.74995 9.37498 6.74995C9.58881 6.74995 9.79388 6.66501 9.94508 6.51381C10.0963 6.3626 10.1812 6.15753 10.1812 5.9437C10.1812 5.72987 10.0963 5.5248 9.94508 5.3736C9.79388 5.2224 9.58881 5.13745 9.37498 5.13745ZM9.37498 6.1837C9.3141 6.17622 9.25807 6.14674 9.21743 6.1008C9.1768 6.05487 9.15436 5.99566 9.15436 5.93433C9.15436 5.873 9.1768 5.81378 9.21743 5.76785C9.25807 5.72191 9.3141 5.69243 9.37498 5.68495C9.43585 5.69243 9.49188 5.72191 9.53252 5.76785C9.57316 5.81378 9.59559 5.873 9.59559 5.93433C9.59559 5.99566 9.57316 6.05487 9.53252 6.1008C9.49188 6.14674 9.43585 6.17622 9.37498 6.1837Z" fill="#2563EB"/>
<path d="M8.51624 20.4976H9.15749V21.1388H8.51624V20.4976Z" fill="#2563EB"/>
</svg>
