<svg width="24" height="24" viewBox="0 0 24 24" fill="none" xmlns="http://www.w3.org/2000/svg">
<path d="M22.5439 15.6263C22.453 15.0088 22.022 14.5254 21.4194 14.3647C20.8602 14.2151 20.2639 14.2748 19.74 14.5329L16.8536 15.9589C16.6026 15.0648 15.7815 14.4157 14.816 14.4157H11.3035C9.02985 13.1488 6.76344 13.6475 4.56135 15.8978C4.39729 15.734 4.17894 15.6435 3.94597 15.6431H3.94452C3.71015 15.6431 3.49012 15.7341 3.32479 15.8994L1.69227 17.5319C1.35355 17.8729 1.35355 18.4277 1.69227 18.7686L6.05788 23.1342C6.22321 23.2996 6.44329 23.3906 6.67766 23.3906H6.67916C6.91344 23.3902 7.13301 23.2988 7.29646 23.1342L8.92804 21.5026C9.09374 21.3369 9.18482 21.1163 9.1844 20.8814C9.18412 20.7191 9.13926 20.5643 9.05755 20.4299C9.08779 20.4252 9.11694 20.422 9.1439 20.422H12.4723C13.3314 20.422 14.0133 20.3322 14.7527 20.122L17.2017 19.4243C18.0624 19.1786 18.7491 18.8482 19.5153 18.4279L21.812 17.1672C22.3511 16.8727 22.6385 16.2678 22.544 15.6262L22.5439 15.6263ZM8.39765 20.9724L6.76518 22.6049C6.73433 22.6359 6.69726 22.6406 6.67785 22.6407H6.67766C6.65783 22.6407 6.62005 22.6359 6.58822 22.604L2.22416 18.24C2.17602 18.1913 2.17607 18.1092 2.22346 18.0614L3.85513 16.4298C3.88701 16.3979 3.92469 16.3932 3.94452 16.3932H3.94471C3.96412 16.3932 4.00119 16.3979 4.03293 16.4298L8.39858 20.7955C8.42962 20.8263 8.43435 20.8634 8.43435 20.8827C8.43435 20.9025 8.42962 20.9404 8.39765 20.9724ZM21.4517 16.5095L19.1544 17.7704C18.4326 18.1664 17.7892 18.4767 16.9959 18.7031L14.5473 19.4006C13.8786 19.5908 13.2579 19.672 12.4721 19.672H9.14376C8.91135 19.672 8.68368 19.7417 8.49116 19.8273L5.09197 16.4282C7.07933 14.3922 9.02029 13.9627 11.0171 15.1154L11.1041 15.1657H14.8159C15.5413 15.1657 16.1408 15.7326 16.1808 16.4566C16.1843 16.5199 16.1684 16.5639 16.1245 16.6099C16.0811 16.6558 16.0377 16.6745 15.9746 16.6745H11.764C11.5569 16.6745 11.389 16.8424 11.389 17.0495C11.389 17.2566 11.5569 17.4245 11.764 17.4245H15.9746C16.2441 17.4245 16.4845 17.3209 16.6682 17.1265C16.7655 17.0247 16.8359 16.9087 16.8795 16.7827L20.0719 15.2055C20.4322 15.0279 20.842 14.9866 21.2258 15.0893C21.5392 15.1729 21.7545 15.4144 21.8018 15.7356C21.8508 16.0682 21.7169 16.3646 21.4516 16.5095H21.4517ZM7.02322 20.8509C7.02322 21.0595 6.85316 21.2295 6.64457 21.2295C6.43597 21.2295 6.26591 21.0595 6.26591 20.8509C6.26591 20.6423 6.43597 20.4722 6.64457 20.4722C6.85316 20.4722 7.02322 20.6422 7.02322 20.8509ZM8.74785 5.51356C7.77252 5.51356 6.97907 6.30701 6.97907 7.28234C6.97907 8.36201 7.59899 9.50951 8.74785 9.50951C9.89671 9.50951 10.5166 8.36201 10.5166 7.28234C10.5166 6.30701 9.72313 5.51356 8.74785 5.51356ZM8.74785 8.75956C7.97807 8.75956 7.72907 7.76436 7.72907 7.28239C7.72907 6.72064 8.1861 6.26361 8.74785 6.26361C9.3096 6.26361 9.76663 6.72064 9.76663 7.28239C9.76663 7.89575 9.45055 8.75956 8.74785 8.75956ZM6.37611 13.2644H9.72501C9.91855 13.5654 10.2562 13.7653 10.6399 13.7653H16.1154C16.4991 13.7653 16.8367 13.5654 17.0302 13.2644H20.3791C20.9266 13.2644 21.372 12.819 21.372 12.2716V11.3349C21.372 10.3625 20.5332 9.57139 19.5022 9.57139H16.5127C16.2791 9.57139 16.0524 9.6124 15.8364 9.69214C15.608 9.61165 15.3609 9.5674 15.103 9.5674H11.6524C11.3945 9.5674 11.1474 9.61165 10.9189 9.69218C10.7029 9.61245 10.4763 9.57139 10.2426 9.57139H7.25315C6.22213 9.57139 5.38335 10.3625 5.38335 11.3349V12.2716C5.38335 12.819 5.82876 13.2644 6.37621 13.2644H6.37611ZM20.6219 11.3349V12.2716C20.6219 12.4055 20.513 12.5144 20.3791 12.5144H17.2025V11.5448C17.2025 11.0832 17.0332 10.6583 16.7505 10.3214H19.5021C20.1196 10.3214 20.6219 10.776 20.6219 11.3349H20.6219ZM15.1029 10.3174C15.8471 10.3174 16.4526 10.868 16.4526 11.5448V12.6782C16.4526 12.8641 16.3013 13.0153 16.1154 13.0153H10.6399C10.4539 13.0153 10.3027 12.8641 10.3027 12.6782V11.5448C10.3027 10.868 10.9081 10.3174 11.6524 10.3174H15.1029ZM6.13326 11.3349C6.13326 10.776 6.63562 10.3214 7.25305 10.3214H10.0046C9.72201 10.6583 9.55265 11.0831 9.55265 11.5448V12.5144H6.37607C6.24219 12.5144 6.13321 12.4055 6.13321 12.2716L6.13326 11.3349ZM13.3769 4.92233C12.2837 4.92233 11.3942 5.81239 11.3942 6.90636C11.3942 8.12454 12.0891 9.41918 13.3769 9.41918C14.6648 9.41918 15.361 8.1245 15.361 6.90636C15.361 5.81234 14.471 4.92233 13.3769 4.92233ZM13.3769 8.66923C12.4455 8.66923 12.1442 7.48156 12.1442 6.9064C12.1442 6.22597 12.6972 5.67237 13.3769 5.67237C14.0567 5.67237 14.611 6.22597 14.611 6.9064C14.611 7.6384 14.2281 8.66923 13.3769 8.66923ZM12.0933 3.19554L11.9521 4.17565C11.9323 4.31342 11.9903 4.45081 12.103 4.53261C12.1683 4.57995 12.2456 4.60414 12.3233 4.60414C12.3798 4.60414 12.4366 4.59139 12.4891 4.56547L13.377 4.12765L14.2662 4.56556C14.3911 4.62706 14.5397 4.61431 14.6522 4.53256C14.7648 4.45081 14.8229 4.31342 14.803 4.1757L14.6619 3.19559L15.3519 2.48548C15.4488 2.38568 15.4826 2.24042 15.4395 2.10809C15.3965 1.97576 15.2837 1.87817 15.1466 1.85459L14.1712 1.68664L13.7086 0.80956C13.6437 0.686513 13.516 0.609497 13.3769 0.609497H13.3767C13.2375 0.609544 13.1099 0.6867 13.045 0.809888L12.5837 1.68668L11.6085 1.85464C11.4714 1.87826 11.3586 1.97586 11.3156 2.10814C11.2725 2.24047 11.3063 2.38573 11.4032 2.48553L12.0932 3.19564L12.0933 3.19554ZM12.8931 2.39436C13.0079 2.37458 13.107 2.30253 13.1614 2.1994L13.3773 1.78897L13.5939 2.19973C13.6482 2.30272 13.7473 2.37458 13.862 2.39436L14.3183 2.47292L13.9955 2.80512C13.9145 2.88851 13.8767 3.00481 13.8933 3.11989L13.9593 3.57833L13.5425 3.37311C13.4903 3.34737 13.4336 3.33453 13.3768 3.33453C13.3201 3.33453 13.2633 3.34742 13.211 3.3732L12.7959 3.5779L12.8618 3.11989C12.8784 3.00481 12.8406 2.88851 12.7596 2.80512L12.4368 2.47292L12.893 2.39436H12.8931ZM7.46408 4.01689L7.32299 4.99681C7.30316 5.13453 7.36115 5.27187 7.47374 5.35362C7.58624 5.43542 7.73488 5.44817 7.85962 5.38676L8.74776 4.94998L9.6359 5.38676C9.6883 5.41254 9.74493 5.42525 9.80132 5.42525C9.87913 5.42525 9.95657 5.40106 10.0218 5.35362C10.1343 5.27187 10.1923 5.13448 10.1725 4.99681L10.0314 4.01689L10.7225 3.30678C10.8195 3.20703 10.8534 3.06167 10.8103 2.92929C10.7673 2.79692 10.6545 2.69928 10.5173 2.67565L9.54074 2.5077L9.07949 1.63212C9.01462 1.50898 8.88688 1.43192 8.74771 1.43192C8.60854 1.43192 8.4808 1.50898 8.41593 1.63212L7.95463 2.5077L6.97808 2.67565C6.84088 2.69923 6.7281 2.79692 6.68502 2.92929C6.64199 3.06167 6.67583 3.20703 6.77291 3.30678L7.46399 4.01689H7.46408ZM8.26391 3.21551C8.37871 3.19578 8.47776 3.12378 8.53213 3.02075L8.7478 2.61143L8.96343 3.02075C9.01771 3.12383 9.1168 3.19578 9.23165 3.21556L9.6884 3.29412L9.36529 3.62614C9.28415 3.70953 9.24627 3.82592 9.26286 3.94109L9.32891 4.4L8.91327 4.19558C8.8611 4.16989 8.80447 4.15709 8.7478 4.15709C8.69113 4.15709 8.63451 4.16993 8.58233 4.19558L8.16669 4.4L8.23274 3.94109C8.24933 3.82587 8.21151 3.70953 8.13032 3.62609L7.80716 3.29408L8.26391 3.21551ZM16.7237 4.01689L16.5825 4.99681C16.5627 5.13448 16.6207 5.27187 16.7332 5.35362C16.7985 5.40106 16.8759 5.42525 16.9537 5.42525C17.0101 5.42525 17.0668 5.41254 17.1192 5.38676L18.0073 4.94993L18.8955 5.38672C19.0202 5.44812 19.1689 5.43537 19.2814 5.35358C19.3939 5.27183 19.4519 5.13443 19.4321 4.99676L19.291 4.01684L19.9821 3.30673C20.0791 3.20698 20.113 3.06162 20.0699 2.92925C20.0269 2.79687 19.9141 2.69923 19.7769 2.67561L18.8004 2.50765L18.3391 1.63208C18.2742 1.50893 18.1465 1.43187 18.0073 1.43187C17.8681 1.43187 17.7404 1.50893 17.6755 1.63208L17.2142 2.50765L16.2377 2.67561C16.1005 2.69918 15.9877 2.79687 15.9446 2.92925C15.9016 3.06162 15.9354 3.20698 16.0325 3.30673L16.7236 4.01684L16.7237 4.01689ZM17.5235 3.21551C17.6383 3.19578 17.7374 3.12378 17.7917 3.02075L18.0074 2.61139L18.2231 3.02075C18.2774 3.12378 18.3764 3.19578 18.4913 3.21551L18.948 3.29408L18.6249 3.62609C18.5437 3.70948 18.5059 3.82587 18.5225 3.94104L18.5885 4.39995L18.1729 4.19553C18.0685 4.1442 17.9463 4.1442 17.8419 4.19553L17.4262 4.39995L17.4923 3.94109C17.5089 3.82587 17.4711 3.70953 17.3899 3.62609L17.0667 3.29408L17.5235 3.21551H17.5235ZM18.0073 5.51365C17.032 5.51365 16.2386 6.30711 16.2386 7.28243C16.2386 8.36211 16.8585 9.50961 18.0073 9.50961C19.1562 9.50961 19.7761 8.36211 19.7761 7.28243C19.7761 6.30711 18.9826 5.51365 18.0073 5.51365ZM18.0073 8.75965C17.3046 8.75965 16.9886 7.89584 16.9886 7.28248C16.9886 6.72073 17.4456 6.2637 18.0073 6.2637C18.5691 6.2637 19.0261 6.72073 19.0261 7.28248C19.0261 7.76445 18.7771 8.75965 18.0073 8.75965Z" fill="#2563EB"/>
</svg>
