<svg width="24" height="24" viewBox="0 0 24 24" fill="none" xmlns="http://www.w3.org/2000/svg">
<g clip-path="url(#clip0_27_52)">
<path fill-rule="evenodd" clip-rule="evenodd" d="M2.5 12C2.5 9.48044 3.50089 7.06408 5.28249 5.28249C7.06408 3.50089 9.48044 2.5 12 2.5C13.95 2.49934 15.8529 3.09876 17.4505 4.21689C19.0481 5.33501 20.2629 6.91767 20.93 8.75H23.555C22.138 3.702 17.5 0 12 0C5.373 0 0 5.373 0 12C0 18.627 5.373 24 12 24C17.501 24 22.138 20.298 23.555 15.25H20.93C20.2629 17.0823 19.0481 18.665 17.4505 19.7831C15.8529 20.9012 13.95 21.5007 12 21.5C9.48044 21.5 7.06408 20.4991 5.28249 18.7175C3.50089 16.9359 2.5 14.5196 2.5 12ZM13.5 10.75H24V13.25H13.5V16.5H12L7.5 12L12 7.5H13.5V10.75Z" fill="black"/>
</g>
<defs>
<clipPath id="clip0_27_52">
<rect width="24" height="24" fill="white"/>
</clipPath>
</defs>
</svg>
