<svg width="24" height="24" viewBox="0 0 24 24" fill="none" xmlns="http://www.w3.org/2000/svg">
<path d="M16.673 12.9C16.9382 12.9 17.1926 12.7946 17.3801 12.6071C17.5676 12.4196 17.673 12.1652 17.673 11.9C17.673 11.6348 17.5676 11.3804 17.3801 11.1929C17.1926 11.0054 16.9382 10.9 16.673 10.9H15.692C15.6031 10.596 15.4779 10.3039 15.319 10.03L16.047 9.302C16.1425 9.20975 16.2187 9.09941 16.2711 8.9774C16.3235 8.8554 16.3511 8.72418 16.3522 8.5914C16.3534 8.45862 16.3281 8.32694 16.2778 8.20404C16.2275 8.08115 16.1533 7.9695 16.0594 7.8756C15.9655 7.78171 15.8538 7.70746 15.7309 7.65718C15.6081 7.6069 15.4764 7.58159 15.3436 7.58275C15.2108 7.5839 15.0796 7.61149 14.9576 7.6639C14.8356 7.71631 14.7252 7.79249 14.633 7.888L13.905 8.615C13.6 8.43874 13.2728 8.3042 12.932 8.215V7.463C12.932 7.19778 12.8266 6.94343 12.6391 6.75589C12.4516 6.56835 12.1972 6.463 11.932 6.463C11.6668 6.463 11.4124 6.56835 11.2249 6.75589C11.0374 6.94343 10.932 7.19778 10.932 7.463V8.208C10.5908 8.29867 10.2635 8.43525 9.95899 8.614L9.23099 7.886C9.04239 7.70384 8.78979 7.60305 8.52759 7.60532C8.2654 7.6076 8.01458 7.71277 7.82918 7.89818C7.64377 8.08359 7.5386 8.3344 7.53632 8.5966C7.53404 8.85879 7.63484 9.1114 7.81699 9.3L8.54499 10.028C8.36874 10.3326 8.2342 10.6595 8.14499 11H7.19099C6.92578 11 6.67142 11.1054 6.48389 11.2929C6.29635 11.4804 6.19099 11.7348 6.19099 12C6.19099 12.2652 6.29635 12.5196 6.48389 12.7071C6.67142 12.8946 6.92578 13 7.19099 13H8.13999C8.2292 13.3404 8.36374 13.6674 8.53999 13.972L7.81199 14.7C7.71648 14.7922 7.6403 14.9026 7.58789 15.0246C7.53548 15.1466 7.5079 15.2778 7.50674 15.4106C7.50559 15.5434 7.53089 15.6751 7.58117 15.798C7.63145 15.9208 7.70571 16.0325 7.7996 16.1264C7.89349 16.2203 8.00514 16.2945 8.12804 16.3448C8.25094 16.3951 8.38262 16.4204 8.5154 16.4192C8.64817 16.4181 8.77939 16.3905 8.9014 16.3381C9.0234 16.2857 9.13375 16.2095 9.22599 16.114L9.95399 15.386C10.2585 15.5647 10.5858 15.7013 10.927 15.792V16.537C10.927 16.8022 11.0324 17.0566 11.2199 17.2441C11.4074 17.4316 11.6618 17.537 11.927 17.537C12.1922 17.537 12.4466 17.4316 12.6341 17.2441C12.8216 17.0566 12.927 16.8022 12.927 16.537V15.792C13.2678 15.7028 13.595 15.5683 13.9 15.392L14.628 16.119C14.8162 16.3072 15.0714 16.4129 15.3375 16.4129C15.6036 16.4129 15.8588 16.3072 16.047 16.119C16.2352 15.9308 16.3409 15.6756 16.3409 15.4095C16.3409 15.1434 16.2352 14.8882 16.047 14.7L15.319 13.972C15.5174 13.6379 15.6644 13.2758 15.755 12.898L16.673 12.9ZM11.932 13.939C11.5489 13.9392 11.1744 13.8258 10.8558 13.6132C10.5372 13.4005 10.2887 13.0982 10.1419 12.7444C9.9951 12.3906 9.95648 12.0012 10.0309 11.6255C10.1054 11.2497 10.2896 10.9045 10.5603 10.6334C10.8309 10.3623 11.1759 10.1776 11.5515 10.1025C11.9271 10.0275 12.3166 10.0655 12.6706 10.2118C13.0247 10.358 13.3274 10.606 13.5405 10.9243C13.7536 11.2426 13.8676 11.6169 13.868 12C13.8675 12.5134 13.6634 13.0056 13.3004 13.3687C12.9375 13.7318 12.4454 13.9362 11.932 13.937V13.939Z" fill="black"/>
<path d="M20.494 9.024C20.4529 8.89713 20.3869 8.77975 20.2999 8.67877C20.2128 8.57779 20.1064 8.49524 19.9869 8.43598C19.8675 8.37673 19.7374 8.34196 19.6043 8.33373C19.4712 8.3255 19.3378 8.34397 19.212 8.38805C19.0861 8.43213 18.9704 8.50094 18.8715 8.59042C18.7726 8.6799 18.6927 8.78825 18.6363 8.9091C18.5799 9.02994 18.5483 9.16084 18.5433 9.29409C18.5382 9.42734 18.5599 9.56025 18.607 9.685C19.1466 11.2243 19.1317 12.9036 18.5649 14.4331C17.9982 15.9625 16.9151 17.246 15.5027 18.062C14.0904 18.8779 12.4374 19.175 10.8294 18.9019C9.22128 18.6289 7.75903 17.8029 6.69514 16.5665C5.63125 15.3301 5.03251 13.7611 5.00232 12.1303C4.97213 10.4994 5.51239 8.90929 6.5298 7.6344C7.5472 6.35951 8.97787 5.47993 10.5747 5.14756C12.1716 4.8152 13.8344 5.05091 15.276 5.814C15.5104 5.93812 15.7846 5.96402 16.0382 5.88601C16.2917 5.80799 16.5039 5.63245 16.628 5.398C16.7521 5.16355 16.778 4.88939 16.7 4.63584C16.622 4.3823 16.4464 4.17012 16.212 4.046C14.3587 3.06459 12.2209 2.76117 10.1677 3.18815C8.11453 3.61513 6.27491 4.74569 4.96655 6.3846C3.65818 8.02351 2.96321 10.0679 3.00165 12.1646C3.04009 14.2614 3.80953 16.2789 5.1771 17.8687C6.54466 19.4586 8.42448 20.5209 10.4919 20.8724C12.5594 21.2238 14.6846 20.8422 16.5007 19.7935C18.3168 18.7448 19.7096 17.0949 20.4387 15.1286C21.1678 13.1623 21.1874 11.0032 20.494 9.024Z" fill="black"/>
<path d="M18.001 7.847C18.5533 7.847 19.001 7.39928 19.001 6.847C19.001 6.29472 18.5533 5.847 18.001 5.847C17.4487 5.847 17.001 6.29472 17.001 6.847C17.001 7.39928 17.4487 7.847 18.001 7.847Z" fill="black"/>
</svg>
