<svg width="24" height="24" viewBox="0 0 24 24" fill="none" xmlns="http://www.w3.org/2000/svg">
<path d="M3.55522 22.0145H21.4615C21.7204 22.0145 21.9302 21.8046 21.9302 21.5457C21.9302 21.2869 21.7204 21.077 21.4615 21.077H20.4302V9.35827C20.4302 9.09938 20.2204 8.88952 19.9615 8.88952H17.6177C17.3588 8.88952 17.149 9.09938 17.149 9.35827V21.077H15.7427V11.0458C15.7427 10.7869 15.5329 10.577 15.274 10.577H12.9302C12.6713 10.577 12.4615 10.7869 12.4615 11.0458V21.077H11.0552V12.7801C11.0552 12.5213 10.8454 12.3114 10.5865 12.3114H8.24272C7.98384 12.3114 7.77397 12.5213 7.77397 12.7801V21.077H6.36772V14.5145C6.36772 14.2556 6.15786 14.0457 5.89897 14.0457H3.55522C3.29634 14.0457 3.08647 14.2556 3.08647 14.5145V21.077H2.14897C1.89009 21.077 1.68022 21.2869 1.68022 21.5457C1.68022 21.8046 1.89009 22.0145 2.14897 22.0145H3.55522ZM4.02397 14.9832H5.43022V21.077H4.02397V14.9832ZM8.71147 13.2489H10.1177V21.0301H8.71147V13.2489ZM13.399 11.5145H14.8052V21.077H13.399V16.2958V11.5145ZM18.0865 9.82702H19.4927V21.077H18.0865V9.82702Z" fill="black"/>
<path d="M6.9771 12.3582C9.89781 12.3582 12.274 9.98211 12.274 7.06139C12.274 4.14068 9.89781 1.76452 6.9771 1.76452C4.05638 1.76452 1.68022 4.14068 1.68022 7.06139C1.68022 9.98211 4.05638 12.3582 6.9771 12.3582ZM6.50835 2.72728V3.45202C6.50835 3.7109 6.71821 3.92077 6.9771 3.92077C7.23598 3.92077 7.44585 3.7109 7.44585 3.45202V2.72728C9.47594 2.94532 11.0932 4.56255 11.3112 6.59264H10.5865C10.3276 6.59264 10.1177 6.80251 10.1177 7.06139C10.1177 7.32028 10.3276 7.53014 10.5865 7.53014H11.3112C11.0932 9.56023 9.47594 11.1775 7.44585 11.3955V10.6708C7.44585 10.4119 7.23598 10.202 6.9771 10.202C6.71821 10.202 6.50835 10.4119 6.50835 10.6708V11.3955C4.47825 11.1775 2.86103 9.56023 2.64298 7.53014H3.36772C3.62661 7.53014 3.83647 7.32028 3.83647 7.06139C3.83647 6.80251 3.62661 6.59264 3.36772 6.59264H2.64298C2.86103 4.56255 4.47825 2.94532 6.50835 2.72728Z" fill="black"/>
<path d="M5.8521 7.99889H5.80522C5.54634 7.99889 5.33647 8.20876 5.33647 8.46764C5.33647 8.72653 5.54634 8.93639 5.80522 8.93639H6.6021V9.17077C6.6021 9.42965 6.81196 9.63952 7.07085 9.63952C7.32973 9.63952 7.5396 9.42965 7.5396 9.17077V8.93625C8.13459 8.93316 8.61772 8.4483 8.61772 7.85259V7.67645C8.61772 7.44816 8.5466 7.23627 8.42561 7.06139C8.5466 6.88652 8.61772 6.67462 8.61772 6.44634V6.2702C8.61772 5.67448 8.13459 5.18962 7.5396 5.18654V4.95202C7.5396 4.69313 7.32973 4.48327 7.07085 4.48327C6.81196 4.48327 6.6021 4.69313 6.6021 4.95202V5.18639H5.80522C5.54634 5.18639 5.33647 5.39626 5.33647 5.65514C5.33647 5.91403 5.54634 6.12389 5.80522 6.12389H5.8521V7.99889ZM7.68022 7.85259C7.68022 7.93327 7.6146 7.99889 7.53392 7.99889H6.7896V7.53014H7.53392C7.6146 7.53014 7.68022 7.59576 7.68022 7.67645V7.85259ZM7.68022 6.2702V6.44634C7.68022 6.52702 7.6146 6.59264 7.53392 6.59264H6.7896V6.12389H7.53392C7.6146 6.12389 7.68022 6.18951 7.68022 6.2702Z" fill="black"/>
</svg>
