<svg width="24" height="24" viewBox="0 0 24 24" fill="none" xmlns="http://www.w3.org/2000/svg">
<path d="M17.0672 15.5156L17.0719 14.9391C17.0719 14.7563 17.2734 14.6484 17.4281 14.7422L19.95 16.3172C20.0953 16.4062 20.0953 16.6172 19.9547 16.7109L17.4891 18.375C17.3391 18.4781 17.1141 18.375 17.1234 18.1641L17.1281 17.5594H14.8828L14.8875 18.1828C14.8875 18.3703 14.6766 18.4828 14.5219 18.3797L12.0563 16.7156C11.9156 16.6219 11.9156 16.4109 12.0703 16.3172L14.5828 14.7516C14.7328 14.6578 14.9484 14.7562 14.9391 14.9672L14.9438 15.5297H17.0672V15.5156ZM17.5313 15.3609V15.75C17.5313 15.8813 17.4281 15.9844 17.2969 15.9844H14.7094C14.5828 15.9844 14.475 15.8813 14.475 15.75L14.4703 15.3562L12.6094 16.5141L14.4094 17.7281L14.4047 17.3109C14.4047 17.1797 14.5078 17.0766 14.6391 17.0766H17.3578C17.4844 17.0766 17.5922 17.1797 17.5922 17.3109V17.7281L19.3922 16.5141L17.5313 15.3609ZM16.0031 11.5172C16.2844 11.5172 16.5563 11.5406 16.8234 11.5828V7.71563H15.4922V11.5453C15.6609 11.5266 15.8297 11.5172 16.0031 11.5172ZM11.2172 18.1406C11.0766 17.7094 10.9922 17.2547 10.9688 16.7859H3.31876V18.1406H11.2172ZM12.0141 13.4766C12.3844 12.9984 12.8344 12.5906 13.3453 12.2719V10.0219H12.0141V13.4766ZM19.2375 13.3266C17.4516 11.5406 14.5547 11.5406 12.7688 13.3266C10.9922 15.1031 10.9734 18 12.7688 19.7953C14.5547 21.5812 17.4516 21.5812 19.2375 19.7953C21.0234 18.0094 21.0234 15.1125 19.2375 13.3266ZM5.10938 11.0109L6.55782 9.49688C7.12501 8.90625 7.84688 8.60156 8.65782 8.57813H8.67657L10.3781 8.61094C10.725 8.59688 11.0578 8.53125 11.3578 8.39531C11.6484 8.26875 11.9109 8.08125 12.15 7.83281L14.5969 5.25C14.6859 5.15625 14.8313 5.15156 14.9297 5.24063L15.3422 5.65781L15.9516 2.91563L13.2 3.47813L13.6078 3.89063C13.6969 3.98438 13.6969 4.125 13.6031 4.22344L11.7797 6.19688C11.2219 6.80156 10.4859 7.13438 9.66563 7.12031L7.95001 7.0875C7.26094 7.07344 6.66563 7.37344 6.18282 7.86563L4.11563 9.98906L5.10938 11.0109ZM6.38907 13.1766H5.05782V16.3172H6.38907V13.1766ZM9.86719 11.3813H8.53594V16.3172H9.86719V11.3813Z" fill="black"/>
</svg>
