<svg width="24" height="24" viewBox="0 0 24 24" fill="none" xmlns="http://www.w3.org/2000/svg">
<path d="M7.25362 13.7806C7.29346 13.7311 7.33916 13.6775 7.39043 13.6198C7.4417 13.5624 7.49531 13.5055 7.55127 13.4496C7.60723 13.3936 7.65908 13.3432 7.70713 13.2984C7.8 13.212 7.89433 13.1206 7.99043 13.0248C8.08652 12.9287 8.17295 12.8288 8.24971 12.7248C8.32647 12.6208 8.38887 12.5127 8.43691 12.4008C8.48496 12.2888 8.50869 12.1719 8.50869 12.0504C8.50869 11.9033 8.48731 11.7712 8.44395 11.6543C8.40088 11.5377 8.3335 11.4384 8.24238 11.3566C8.15127 11.2752 8.03525 11.2119 7.89433 11.1671C7.75371 11.1222 7.58554 11.1 7.39043 11.1C7.17598 11.1 6.97529 11.1425 6.78808 11.2271C6.60088 11.3118 6.43681 11.4199 6.2959 11.5511L6.65127 12.0504C6.67354 12.0278 6.70723 11.9982 6.75205 11.9616C6.79687 11.9247 6.85049 11.8881 6.91289 11.8511C6.97529 11.8142 7.04414 11.7823 7.11914 11.7551C7.19443 11.7278 7.27529 11.7143 7.36172 11.7143C7.48008 11.7143 7.5791 11.743 7.65908 11.8008C7.73906 11.8582 7.7792 11.9575 7.7792 12.0984C7.7792 12.1623 7.76484 12.2256 7.73613 12.288C7.70713 12.3504 7.66729 12.4128 7.61602 12.4752C7.56475 12.5376 7.50557 12.6014 7.43848 12.6671C7.37109 12.7327 7.29931 12.8024 7.22256 12.876C7.12324 12.9721 7.02334 13.0679 6.92256 13.1639C6.82148 13.26 6.73125 13.3632 6.65127 13.4736C6.57129 13.5838 6.50654 13.7033 6.45673 13.831C6.40722 13.9591 6.38232 14.1 6.38232 14.2535V14.3686C6.38232 14.4231 6.38554 14.4679 6.39199 14.5031H8.60976V13.9031H7.1792C7.18887 13.8712 7.21348 13.8304 7.25362 13.7806Z" fill="#2563EB"/>
<path d="M9.86709 13.7737H9.11826C9.11826 13.7831 9.11914 13.8024 9.12061 13.8311C9.12237 13.8601 9.12383 13.8903 9.12559 13.9225C9.12705 13.9544 9.12852 13.9855 9.13027 14.016C9.13174 14.0464 9.13262 14.071 9.13262 14.0904C9.13262 14.212 9.11826 14.3655 9.08955 14.5512C9.06084 14.7367 9.00957 14.9353 8.93604 15.1462L9.49736 15.2857C9.5583 15.1864 9.61279 15.0824 9.66084 14.9737C9.70859 14.8647 9.74873 14.756 9.78066 14.6473C9.8126 14.5383 9.8375 14.4305 9.85508 14.3233C9.87266 14.2161 9.88144 14.1144 9.88144 14.0183C9.88144 13.996 9.88056 13.9688 9.8791 13.9369C9.87734 13.9049 9.87354 13.8504 9.86709 13.7737Z" fill="#2563EB"/>
<path d="M11.1102 12.3911C11.1199 12.3111 11.1287 12.2177 11.1366 12.1104C11.1445 12.0032 11.1518 11.8919 11.1582 11.7768H12.3582V11.1768H10.5582C10.5454 11.4454 10.5278 11.7334 10.5055 12.0407C10.483 12.348 10.4542 12.6504 10.4191 12.948C10.6813 12.948 10.899 12.9606 11.0718 12.9864C11.2447 13.0119 11.3821 13.0488 11.4846 13.0966C11.5869 13.1446 11.6589 13.2047 11.7005 13.2768C11.7421 13.3488 11.7629 13.4312 11.7629 13.524C11.7629 13.6424 11.7134 13.7455 11.6141 13.8334C11.5151 13.9216 11.3551 13.9655 11.1342 13.9655C10.9517 13.9655 10.795 13.9488 10.6637 13.9151C10.5325 13.8814 10.427 13.8472 10.347 13.812L10.2175 14.4023C10.2559 14.4214 10.3101 14.4407 10.3807 14.4601C10.451 14.4791 10.5301 14.4976 10.6183 14.5151C10.7062 14.5327 10.7973 14.5471 10.8919 14.5582C10.9863 14.5696 11.0765 14.5752 11.1629 14.5752C11.3838 14.5752 11.5766 14.5479 11.7416 14.4935C11.9062 14.4393 12.043 14.364 12.1517 14.2679C12.2607 14.1721 12.3421 14.0584 12.3966 13.9271C12.4511 13.7959 12.4781 13.6535 12.4781 13.5C12.4781 13.1672 12.367 12.907 12.1447 12.7198C11.922 12.5326 11.5775 12.423 11.1102 12.3911Z" fill="#2563EB"/>
<path d="M17.3999 12.825C16.9184 12.825 16.4546 12.9008 16.0184 13.0393L14.5913 8.43747C15.1334 7.86065 15.739 6.97837 15.9685 5.76971C16.0892 5.1325 16.0892 4.48036 15.9685 3.83143C15.948 3.72069 15.8788 3.62488 15.7798 3.57098C15.1689 3.237 14.5795 3.12274 14.0272 3.23202C13.2433 3.387 12.807 3.93895 12.4563 4.3825C12.1517 4.76805 11.9507 5.00536 11.6721 5.02616C11.3806 5.04725 11.1632 4.81786 10.8307 4.4411C10.4709 4.03387 10.0235 3.52703 9.30078 3.52498H9.29668C8.58916 3.52498 8.15967 4.01366 7.81455 4.40623C7.47793 4.78944 7.25322 5.02498 6.91338 5.02498H6.90459C6.57822 5.02088 6.33535 4.80555 5.9665 4.45428C5.55517 4.06288 5.04336 3.57567 4.22275 3.52557C3.75342 3.49862 3.28173 3.61376 2.81738 3.87245C2.7125 3.93075 2.64189 4.03592 2.62754 4.15546C2.55459 4.76366 2.55136 5.70497 2.9501 6.73534C3.21362 7.41643 3.62729 8.04397 4.14266 8.56603L2.28477 14.5553C2.11221 15.1078 2.0249 15.6794 2.0249 16.2539C2.0249 16.3394 2.02783 16.4282 2.03106 16.5176C2.07969 17.5494 2.41016 18.5546 2.9876 19.4256C4.04961 21.022 5.82969 21.975 7.74893 21.975H11.0249C11.9665 21.975 12.9002 21.7406 13.7255 21.2971C13.9678 21.1668 14.1933 21.0158 14.4097 20.8561C15.2397 21.5765 16.2973 21.975 17.3999 21.975C17.6823 21.975 17.9619 21.949 18.2355 21.8982C19.0563 21.746 19.8234 21.3708 20.4521 20.8055C21.4197 19.9394 21.9749 18.6981 21.9749 17.4C21.9749 14.8772 19.9227 12.825 17.3999 12.825ZM13.0093 16.125H2.77981C2.781 16.0793 2.78256 16.0337 2.78503 15.988C2.78781 15.9367 2.79003 15.8854 2.79441 15.8342C2.80045 15.7636 2.80949 15.6932 2.81859 15.6229C2.82482 15.5747 2.82986 15.5264 2.83751 15.4784C2.84996 15.4003 2.86605 15.3228 2.88226 15.2452C2.89054 15.2056 2.89702 15.1657 2.90628 15.1262C2.9337 15.0094 2.96484 14.8931 3.00078 14.7779L4.39824 10.275H14.3756L15.3227 13.3289C14.2117 13.8981 13.3639 14.9062 13.0093 16.125ZM4.86318 8.77498H13.9106L14.1432 9.52498H4.63049L4.86318 8.77498ZM3.35293 4.4411C3.63272 4.31366 3.91104 4.25594 4.17705 4.2744C4.72461 4.3078 5.07676 4.64266 5.44941 4.99745C5.71777 5.25316 6.01323 5.53006 6.38851 5.67422L6.52871 6.65301C6.55537 6.84022 6.71592 6.97498 6.89932 6.97498C6.91719 6.97498 6.93506 6.97381 6.95293 6.97117C7.15801 6.94188 7.30039 6.75174 7.2711 6.54696L7.1575 5.75387C7.71278 5.65743 8.0774 5.24326 8.37793 4.90135C8.71924 4.51316 8.94629 4.27498 9.29668 4.27498H9.29874C9.6585 4.27615 9.90489 4.52605 10.2685 4.93738C10.4766 5.1733 10.7014 5.42547 10.9795 5.59211L10.7322 6.82645C10.6915 7.02947 10.8231 7.22693 11.0264 7.26766C11.051 7.27264 11.0759 7.27498 11.1002 7.27498C11.2754 7.27498 11.4318 7.15193 11.4676 6.97351L11.7079 5.77357C11.7148 5.77311 11.7208 5.77438 11.7277 5.77381C12.3491 5.72781 12.7186 5.26023 13.0449 4.84744C13.3613 4.44724 13.6602 4.06902 14.1726 3.96795C14.503 3.90291 14.8687 3.96267 15.2609 4.14812C15.3336 4.64529 15.3239 5.14305 15.2314 5.62996C15.012 6.78717 14.3706 7.59602 13.9448 8.02498H4.66215C4.22534 7.57866 3.87403 7.0445 3.64971 6.46463C3.34707 5.68269 3.31367 4.96024 3.35293 4.4411ZM13.3704 20.6364C12.6541 21.0214 11.8429 21.225 11.0249 21.225H7.74893C6.08135 21.225 4.53477 20.3971 3.6125 19.0107C3.18354 18.3635 2.91243 17.631 2.81594 16.875H12.8574C12.8376 17.0475 12.8249 17.2222 12.8249 17.4C12.8249 18.4712 13.2078 19.5001 13.8834 20.3146C13.7199 20.4301 13.5505 20.5397 13.3704 20.6364ZM17.0637 21.2096C17.0267 21.2063 16.9902 21.2001 16.9533 21.1957C16.8795 21.1871 16.8057 21.1781 16.7328 21.1652C16.6893 21.1575 16.6465 21.1472 16.6034 21.138C16.5379 21.1241 16.4724 21.1098 16.4079 21.0924C16.3632 21.0804 16.3192 21.0664 16.275 21.0528C16.213 21.0337 16.1513 21.0138 16.0904 20.9915C16.0466 20.9755 16.0032 20.9582 15.9599 20.9405C15.9 20.9161 15.8407 20.8903 15.782 20.8628C15.7402 20.8432 15.6986 20.823 15.6574 20.8019C15.5985 20.7716 15.5405 20.7393 15.4831 20.7059C15.4447 20.6836 15.4062 20.6613 15.3685 20.6376C15.3093 20.6003 15.2516 20.5604 15.1943 20.5197C15.1607 20.4958 15.1266 20.4728 15.0937 20.4478C15.0809 20.4381 15.069 20.427 15.0563 20.4172C15.499 19.5448 16.4096 18.975 17.3999 18.975C18.3902 18.975 19.3009 19.5448 19.7435 20.4172C19.7311 20.4269 19.7194 20.4377 19.7069 20.4473C19.6727 20.4732 19.6374 20.4972 19.6025 20.5219C19.5466 20.5615 19.4903 20.6004 19.4325 20.6368C19.3937 20.6613 19.354 20.6843 19.3144 20.7073C19.2581 20.74 19.2013 20.7716 19.1435 20.8013C19.1016 20.8229 19.0592 20.8435 19.0164 20.8635C18.9586 20.8906 18.9001 20.916 18.841 20.9401C18.7971 20.958 18.7531 20.9756 18.7087 20.9918C18.6482 21.0138 18.587 21.0336 18.5255 21.0526C18.481 21.0663 18.4367 21.0804 18.3917 21.0925C18.3273 21.1098 18.2619 21.1241 18.1965 21.138C18.1533 21.1472 18.1106 21.1575 18.067 21.1652C17.9941 21.1781 17.9203 21.1871 17.8464 21.1957C17.8096 21.2001 17.7731 21.2063 17.7361 21.2096C17.6247 21.2194 17.5126 21.225 17.3999 21.225C17.2872 21.225 17.1751 21.2194 17.0637 21.2096ZM15.9749 16.8C15.9749 16.0142 16.6142 15.375 17.3999 15.375C18.1856 15.375 18.8249 16.0142 18.8249 16.8C18.8249 17.5857 18.1856 18.225 17.3999 18.225C16.6142 18.225 15.9749 17.5857 15.9749 16.8ZM20.3027 19.8819C19.9375 19.269 19.3861 18.7908 18.7411 18.5089C19.2478 18.1103 19.5749 17.4933 19.5749 16.8C19.5749 15.6006 18.5993 14.625 17.3999 14.625C16.2005 14.625 15.2249 15.6006 15.2249 16.8C15.2249 17.4933 15.552 18.1103 16.0587 18.5089C15.4137 18.7908 14.8622 19.2691 14.4971 19.8819C13.9082 19.194 13.5749 18.3149 13.5749 17.4C13.5749 15.2909 15.2908 13.575 17.3999 13.575C19.509 13.575 21.2249 15.2909 21.2249 17.4C21.2249 18.3148 20.8917 19.1936 20.3027 19.8819Z" fill="#2563EB"/>
<path d="M11.9998 17.925H6.2998C6.09268 17.925 5.9248 18.0929 5.9248 18.3C5.9248 18.5072 6.09268 18.675 6.2998 18.675H11.9998C12.2069 18.675 12.3748 18.5072 12.3748 18.3C12.3748 18.0929 12.2069 17.925 11.9998 17.925Z" fill="#2563EB"/>
<path d="M10.8 19.725H7.5C7.29287 19.725 7.125 19.8928 7.125 20.1C7.125 20.3071 7.29287 20.475 7.5 20.475H10.8C11.0071 20.475 11.175 20.3071 11.175 20.1C11.175 19.8928 11.0071 19.725 10.8 19.725Z" fill="#2563EB"/>
<path d="M16.6568 8.74661C16.9454 8.86555 17.2144 9.04485 17.4347 9.26516C17.6553 9.48577 17.8346 9.75471 17.9529 10.0427C18.0109 10.1833 18.1478 10.275 18.2998 10.275C18.4519 10.275 18.5887 10.1833 18.6464 10.043C18.7653 9.75442 18.9446 9.48547 19.1649 9.26516C19.3855 9.04456 19.6545 8.86526 19.9425 8.7469C20.0831 8.68889 20.1748 8.55208 20.1748 8.40002C20.1748 8.24827 20.0831 8.11116 19.9428 8.05344C19.6542 7.9345 19.3853 7.7552 19.1649 7.53489C18.9443 7.31428 18.765 7.04534 18.6467 6.75735C18.5887 6.61672 18.4519 6.52502 18.2998 6.52502C18.1478 6.52502 18.0109 6.61672 17.9532 6.75706C17.8343 7.04563 17.655 7.31458 17.4347 7.53489C17.2141 7.75549 16.9451 7.93479 16.6571 8.05315C16.5165 8.11116 16.4248 8.24797 16.4248 8.40002C16.4248 8.55178 16.5165 8.68889 16.6568 8.74661ZM17.9649 8.06516C18.088 7.94211 18.1999 7.81028 18.2998 7.67024C18.3997 7.81028 18.5116 7.94211 18.6347 8.06516C18.7577 8.18821 18.8896 8.30012 19.0296 8.40002C18.8896 8.49993 18.7577 8.61184 18.6347 8.73489C18.5116 8.85794 18.3997 8.98977 18.2998 9.12981C18.1999 8.98977 18.088 8.85794 17.9649 8.73489C17.8419 8.61184 17.7101 8.49993 17.57 8.40002C17.7101 8.30012 17.8419 8.18821 17.9649 8.06516Z" fill="#2563EB"/>
<path d="M18.4569 4.24661C18.7455 4.36555 19.0144 4.54485 19.2347 4.76516C19.4553 4.98577 19.6346 5.25471 19.753 5.5427C19.811 5.68333 19.9478 5.77502 20.0999 5.77502C20.2519 5.77502 20.3887 5.68333 20.4464 5.54299C20.5654 5.25442 20.7447 4.98547 20.965 4.76516C21.1856 4.54456 21.4545 4.36526 21.7425 4.2469C21.8832 4.18889 21.9749 4.05208 21.9749 3.90002C21.9749 3.74827 21.8832 3.61116 21.7428 3.55344C21.4542 3.4345 21.1853 3.2552 20.965 3.03489C20.7444 2.81428 20.5651 2.54534 20.4467 2.25735C20.3887 2.11672 20.2519 2.02502 20.0999 2.02502C19.9478 2.02502 19.811 2.11672 19.7533 2.25706C19.6343 2.54563 19.455 2.81458 19.2347 3.03489C19.0141 3.25549 18.7452 3.43479 18.4572 3.55315C18.3166 3.61116 18.2249 3.74797 18.2249 3.90002C18.2249 4.05178 18.3166 4.18889 18.4569 4.24661ZM19.765 3.56516C19.888 3.44211 20 3.31028 20.0999 3.17024C20.1998 3.31028 20.3117 3.44211 20.4347 3.56516C20.5578 3.68821 20.6896 3.80012 20.8296 3.90002C20.6896 3.99993 20.5578 4.11184 20.4347 4.23489C20.3117 4.35794 20.1998 4.48977 20.0999 4.62981C20 4.48977 19.888 4.35794 19.765 4.23489C19.6419 4.11184 19.5101 3.99993 19.3701 3.90002C19.5101 3.80012 19.6419 3.68821 19.765 3.56516Z" fill="#2563EB"/>
</svg>
