<svg width="24" height="24" viewBox="0 0 24 24" fill="none" xmlns="http://www.w3.org/2000/svg">
<path d="M21.4519 4.17445H19.7779V2.8612C19.7779 1.89633 18.993 1.11145 18.0281 1.11145C17.0632 1.11145 16.2784 1.89633 16.2784 2.8612V4.17445H7.72162V2.8612C7.72162 1.89633 6.93674 1.11145 5.97187 1.11145C5.00699 1.11145 4.22212 1.89633 4.22212 2.8612V4.17445H2.54849C1.55699 4.17445 0.750366 4.98295 0.750366 5.97633V21.0903C0.750366 22.0818 1.55699 22.8885 2.54849 22.8885H21.4522C22.4437 22.8885 23.2504 22.0818 23.2504 21.0903V5.9767C23.2504 4.98333 22.4437 4.17483 21.4522 4.17483L21.4519 4.17445ZM18.0281 1.86145C18.5794 1.86145 19.0279 2.30995 19.0279 2.8612V4.54045C19.0279 4.54383 19.026 4.54645 19.026 4.54945C19.026 4.55245 19.0279 4.55545 19.0279 4.55845V5.92945C19.0279 6.4807 18.5794 6.9292 18.0281 6.9292C17.4769 6.9292 17.0284 6.4807 17.0284 5.92945V4.55095C17.0284 4.55095 17.0284 4.54983 17.0284 4.54908C17.0284 4.54833 17.0284 4.54795 17.0284 4.5472V2.86045C17.0284 2.3092 17.4769 1.8607 18.0281 1.8607V1.86145ZM4.97174 2.8612C4.97174 2.30995 5.42024 1.86145 5.97149 1.86145C6.52274 1.86145 6.97124 2.30995 6.97124 2.8612V5.92983C6.97124 6.48108 6.52274 6.92958 5.97149 6.92958C5.42024 6.92958 4.97174 6.48108 4.97174 5.92983V2.8612ZM2.54812 4.92445H4.22174V5.92983C4.22174 6.8947 5.00662 7.67958 5.97149 7.67958C6.93637 7.67958 7.72124 6.8947 7.72124 5.92983V4.92445H16.278V5.92983C16.278 6.8947 17.0629 7.67958 18.0277 7.67958C18.9926 7.67958 19.7775 6.8947 19.7775 5.92983V4.92445H21.4515C22.0294 4.92445 22.4996 5.3962 22.4996 5.97633V8.09733H1.49999V5.97633C1.49999 5.3962 1.97024 4.92445 2.54812 4.92445ZM21.4519 22.1385H2.54812C1.97024 22.1385 1.49999 21.6682 1.49999 21.0903V8.8477H22.5V21.0903C22.5 21.6682 22.0297 22.1385 21.4519 22.1385Z" fill="#2563EB"/>
<path d="M12 10.4115C8.02464 10.4115 4.91101 11.8594 4.91101 13.7074V17.28C4.91101 17.2853 4.91401 17.2898 4.91401 17.295C4.92264 18.2299 5.72889 19.0598 7.03764 19.6519C7.05751 19.6628 7.07739 19.671 7.09914 19.6778C8.36326 20.2361 10.0789 20.5766 11.9996 20.5766C13.9204 20.5766 15.6356 20.2361 16.9001 19.6778C16.9223 19.6706 16.9425 19.6624 16.9628 19.6515C18.2704 19.0598 19.0755 18.2306 19.0853 17.2965C19.0853 17.2905 19.0886 17.2856 19.0886 17.2796V13.707C19.0886 11.859 15.9746 10.4111 11.9996 10.4111L12 10.4115ZM12 11.1615C15.7358 11.1615 18.339 12.5033 18.339 13.7074C18.339 14.9115 15.7358 16.2533 12 16.2533C8.26426 16.2533 5.66101 14.9115 5.66101 13.7074C5.66101 12.5033 8.26426 11.1615 12 11.1615ZM16.413 16.3016V19.0676C15.7399 19.3421 14.9171 19.5645 13.9703 19.6958V16.8761C14.8751 16.7584 15.7005 16.5619 16.413 16.3016ZM10.0301 16.8761V19.6958C9.08364 19.5649 8.26051 19.3421 7.58739 19.0676V16.3016C8.29951 16.5619 9.12489 16.7588 10.0301 16.8761ZM5.66289 17.28C5.66289 17.2774 5.66139 17.2751 5.66139 17.2729V15.1991C5.97076 15.4883 6.36676 15.7519 6.83776 15.9829V18.7039C6.09039 18.2708 5.66289 17.7649 5.66289 17.28ZM10.7801 19.7756V16.953C11.1765 16.9838 11.5823 17.0033 12.0004 17.0033C12.4185 17.0033 12.8243 16.9838 13.2206 16.953V19.7756C12.8291 19.8079 12.423 19.8274 12.0004 19.8274C11.5778 19.8274 11.1716 19.8079 10.7801 19.7756ZM17.163 18.7035V15.9825C17.6336 15.7515 18.03 15.4879 18.3394 15.1988V17.2718C18.3394 17.2748 18.3379 17.277 18.3379 17.28C18.3379 17.7649 17.91 18.2708 17.163 18.7035Z" fill="#2563EB"/>
</svg>
