<svg width="24" height="24" viewBox="0 0 24 24" fill="none" xmlns="http://www.w3.org/2000/svg">
<path d="M21 4.3125V2.8125H17.25V1.6875H16.5V2.8125H13.5V1.6875H12.75V2.8125H9.75V1.6875H9V2.8125H6V1.6875H5.25V2.8125H1.5V20.8125H3V22.3125H22.5V4.3125H21ZM2.25 3.5625H5.25V4.3125H4.875V5.0625H6.375V4.3125H6V3.5625H9V4.3125H8.625V5.0625H10.125V4.3125H9.75V3.5625H12.75V4.3125H12.375V5.0625H13.875V4.3125H13.5V3.5625H16.5V4.3125H16.125V5.0625H17.625V4.3125H17.25V3.5625H20.25V6.9375H2.25V3.5625ZM2.25 20.0625V7.6875H20.25V20.0625H2.25ZM21.75 21.5625H3.75V20.8125H21V5.0625H21.75V21.5625Z" fill="#2563EB"/>
<path d="M16.5 9.9375H7.5C7.30109 9.9375 7.11032 10.0165 6.96967 10.1572C6.82902 10.2978 6.75 10.4886 6.75 10.6875V11.4375H6C5.80109 11.4375 5.61032 11.5165 5.46967 11.6572C5.32902 11.7978 5.25 11.9886 5.25 12.1875V17.0625C5.25 17.2614 5.32902 17.4522 5.46967 17.5928C5.61032 17.7335 5.80109 17.8125 6 17.8125H15C15.1989 17.8125 15.3897 17.7335 15.5303 17.5928C15.671 17.4522 15.75 17.2614 15.75 17.0625V16.3125H16.5C16.6989 16.3125 16.8897 16.2335 17.0303 16.0928C17.171 15.9522 17.25 15.7614 17.25 15.5625V10.6875C17.25 10.4886 17.171 10.2978 17.0303 10.1572C16.8897 10.0165 16.6989 9.9375 16.5 9.9375ZM6 17.0625V12.1875H15V17.0625H6ZM16.5 15.5625H15.75V12.1875C15.75 11.9886 15.671 11.7978 15.5303 11.6572C15.3897 11.5165 15.1989 11.4375 15 11.4375H7.5V10.6875H16.5V15.5625Z" fill="#2563EB"/>
<path d="M8.25 13.6875C7.9019 13.6875 7.56806 13.8258 7.32192 14.0719C7.07578 14.3181 6.9375 14.6519 6.9375 15C6.9375 15.3481 7.07578 15.6819 7.32192 15.9281C7.56806 16.1742 7.9019 16.3125 8.25 16.3125C8.5981 16.3125 8.93194 16.1742 9.17808 15.9281C9.42422 15.6819 9.5625 15.3481 9.5625 15C9.5625 14.6519 9.42422 14.3181 9.17808 14.0719C8.93194 13.8258 8.5981 13.6875 8.25 13.6875ZM8.25 15.5625C8.10082 15.5625 7.95774 15.5032 7.85225 15.3977C7.74676 15.2923 7.6875 15.1492 7.6875 15C7.6875 14.8508 7.74676 14.7077 7.85225 14.6023C7.95774 14.4968 8.10082 14.4375 8.25 14.4375C8.39918 14.4375 8.54226 14.4968 8.64775 14.6023C8.75324 14.7077 8.8125 14.8508 8.8125 15C8.8125 15.1492 8.75324 15.2923 8.64775 15.3977C8.54226 15.5032 8.39918 15.5625 8.25 15.5625Z" fill="#2563EB"/>
<path d="M11.625 14.8125H10.875C10.7755 14.8125 10.6802 14.852 10.6098 14.9223C10.5395 14.9927 10.5 15.088 10.5 15.1875C10.5 15.287 10.5395 15.3823 10.6098 15.4527C10.6802 15.523 10.7755 15.5625 10.875 15.5625H11.625C11.7245 15.5625 11.8198 15.523 11.8902 15.4527C11.9605 15.3823 12 15.287 12 15.1875C12 15.088 11.9605 14.9927 11.8902 14.9223C11.8198 14.852 11.7245 14.8125 11.625 14.8125Z" fill="#2563EB"/>
<path d="M13.875 14.8125H13.125C13.0255 14.8125 12.9302 14.852 12.8598 14.9223C12.7895 14.9927 12.75 15.088 12.75 15.1875C12.75 15.287 12.7895 15.3823 12.8598 15.4527C12.9302 15.523 13.0255 15.5625 13.125 15.5625H13.875C13.9745 15.5625 14.0698 15.523 14.1402 15.4527C14.2105 15.3823 14.25 15.287 14.25 15.1875C14.25 15.088 14.2105 14.9927 14.1402 14.9223C14.0698 14.852 13.9745 14.8125 13.875 14.8125Z" fill="#2563EB"/>
</svg>
