<svg width="16" height="16" viewBox="0 0 16 16" fill="none" xmlns="http://www.w3.org/2000/svg">
<g clip-path="url(#clip0_27_164)">
<path d="M5.27472 8.5809H3.72333V11.6147H5.27472V8.5809Z" fill="black"/>
<path d="M5.27472 3.44409H3.72333V8.02931H5.27472V3.44409Z" fill="black"/>
<path d="M1.55139 8.5809H0V11.6147H1.55139V8.5809Z" fill="black"/>
<path d="M1.55139 6.20212H0V8.02931H1.55139V6.20212Z" fill="black"/>
<path d="M7.44666 8.5809V11.6147H7.57077C7.61903 10.4702 8.09824 9.38762 8.90841 8.5809H7.44666Z" fill="black"/>
<path d="M12.0595 7.84659C9.88409 7.84659 8.11896 9.61172 8.11896 11.7871C8.11896 13.9625 9.88409 15.7276 12.0595 15.7276C14.2349 15.7276 16 13.9625 16 11.7871C15.9966 9.61172 14.2314 7.85004 12.0595 7.84659ZM14.7555 13.0972C14.7555 13.6315 14.3245 14.0625 13.7901 14.0625H10.3426C9.80825 14.0625 9.37731 13.6315 9.37731 13.0972V10.4771C9.37731 9.94269 9.80825 9.51175 10.3426 9.51175H13.7901C14.3245 9.51175 14.7555 9.94269 14.7555 10.4771V13.0972Z" fill="black"/>
<path d="M8.99805 1.85822H7.44666V8.0293H8.99805V1.85822Z" fill="black"/>
<path d="M11.17 0.272354V7.38117C11.4596 7.32601 11.7561 7.29498 12.0526 7.29498C12.287 7.29498 12.5214 7.31566 12.7558 7.35014V0.272354H11.17Z" fill="black"/>
<path d="M13.2282 11.4079C13.2006 11.4044 13.173 11.4251 13.1696 11.4527C13.1696 11.4562 13.1696 11.4631 13.1696 11.4665V12.1353C13.1661 12.1663 13.1903 12.1974 13.2213 12.2008C13.2247 12.2008 13.2247 12.2008 13.2282 12.2008H14.2038V11.4079H13.2282Z" fill="black"/>
<path d="M12.6146 11.4665C12.6111 11.1321 12.88 10.8597 13.2144 10.8563C13.2179 10.8563 13.2213 10.8563 13.2282 10.8563H14.2039V10.4874C14.2039 10.2564 14.0211 10.0668 13.7902 10.0634H10.3426C10.1116 10.0668 9.92892 10.2564 9.92548 10.4874V13.1075C9.92892 13.3316 10.1116 13.5143 10.3357 13.5143H10.3392H13.7867C14.0108 13.5178 14.197 13.3385 14.2004 13.1144V13.111V12.7524H13.2248C12.8869 12.7524 12.6146 12.4801 12.6146 12.1422C12.6146 12.1388 12.6146 12.1388 12.6146 12.1353V11.4665Z" fill="black"/>
</g>
<defs>
<clipPath id="clip0_27_164">
<rect width="16" height="16" fill="white"/>
</clipPath>
</defs>
</svg>
