<svg width="16" height="16" viewBox="0 0 16 16" fill="none" xmlns="http://www.w3.org/2000/svg">
<path d="M12.25 8.5C12.25 8.69778 12.1913 8.89112 12.0814 9.05557C11.9716 9.22002 11.8154 9.34819 11.6327 9.42388C11.4499 9.49957 11.2489 9.51937 11.0549 9.48079C10.8609 9.4422 10.6827 9.34696 10.5429 9.20711C10.403 9.06725 10.3078 8.88907 10.2692 8.69509C10.2306 8.50111 10.2504 8.30004 10.3261 8.11732C10.4018 7.93459 10.53 7.77841 10.6944 7.66853C10.8589 7.55865 11.0522 7.5 11.25 7.5C11.5152 7.5 11.7695 7.60536 11.9571 7.79289C12.1446 7.98043 12.25 8.23478 12.25 8.5ZM14.75 6.25V11.25C14.75 11.7804 14.5393 12.2891 14.1642 12.6642C13.7891 13.0393 13.2804 13.25 12.75 13.25H3.74997C3.21954 13.25 2.71083 13.0393 2.33576 12.6642C1.96069 12.2891 1.74997 11.7804 1.74997 11.25V3.8075C1.74228 3.54006 1.78833 3.27379 1.88539 3.02446C1.98245 2.77514 2.12855 2.54782 2.31503 2.35597C2.50152 2.16412 2.72461 2.01164 2.97109 1.90755C3.21756 1.80346 3.48242 1.74989 3.74997 1.75H12C12.1989 1.75 12.3896 1.82902 12.5303 1.96967C12.671 2.11032 12.75 2.30109 12.75 2.5C12.75 2.69891 12.671 2.88968 12.5303 3.03033C12.3896 3.17098 12.1989 3.25 12 3.25H3.74997C3.68292 3.24996 3.61655 3.26342 3.5548 3.28955C3.49305 3.31569 3.4372 3.35398 3.39055 3.40214C3.3439 3.45031 3.30742 3.50736 3.28327 3.56991C3.25912 3.63247 3.24779 3.69923 3.24997 3.76625V3.77125C3.26047 3.90364 3.32123 4.02699 3.41978 4.11601C3.51833 4.20503 3.6472 4.25297 3.77997 4.25H12.75C13.2804 4.25 13.7891 4.46071 14.1642 4.83579C14.5393 5.21086 14.75 5.71957 14.75 6.25ZM13.25 6.25C13.25 6.11739 13.1973 5.99021 13.1035 5.89645C13.0098 5.80268 12.8826 5.75 12.75 5.75H3.77997C3.60116 5.75008 3.42306 5.72739 3.24997 5.6825V11.25C3.24997 11.3826 3.30265 11.5098 3.39642 11.6036C3.49019 11.6973 3.61736 11.75 3.74997 11.75H12.75C12.8826 11.75 13.0098 11.6973 13.1035 11.6036C13.1973 11.5098 13.25 11.3826 13.25 11.25V6.25Z" fill="black"/>
</svg>
