<svg width="16" height="16" viewBox="0 0 16 16" fill="none" xmlns="http://www.w3.org/2000/svg">
<path fill-rule="evenodd" clip-rule="evenodd" d="M11.6508 11.2472C11.7861 11.2472 11.9183 11.2071 12.0307 11.1319C12.1432 11.0568 12.2308 10.95 12.2826 10.825C12.3343 10.7 12.3478 10.5626 12.3214 10.4299C12.2951 10.2973 12.2299 10.1754 12.1343 10.0798C12.0387 9.98415 11.9168 9.91901 11.7842 9.89262C11.6515 9.86622 11.514 9.87975 11.3891 9.93149C11.2641 9.98323 11.1573 10.0709 11.0822 10.1833C11.007 10.2957 10.9669 10.4279 10.9668 10.5632C10.967 10.7445 11.0392 10.9184 11.1674 11.0466C11.2956 11.1749 11.4695 11.247 11.6508 11.2472ZM11.6508 11.6978C11.8541 11.6977 12.0536 11.643 12.2285 11.5394C12.4034 11.4359 12.5473 11.2873 12.6452 11.1091C12.5563 11.3436 12.5204 11.5949 12.5399 11.8449C12.5594 12.0949 12.634 12.3375 12.7582 12.5554C12.7366 12.5579 12.7157 12.5608 12.6939 12.5627L10.4925 12.5531C10.0925 12.5013 9.80097 12.3255 9.62619 12.031C9.34078 11.5491 9.36681 10.7399 9.69378 9.91909C9.89178 9.42306 10.1947 8.98625 10.6182 8.58584H12.6421C13.0546 8.93672 13.4283 9.50147 13.6533 10.1094C13.2505 10.2587 12.9182 10.5536 12.7221 10.936C12.8011 10.7088 12.8058 10.4623 12.7355 10.2322C12.6653 10.0022 12.5237 9.80039 12.3313 9.65604C12.1389 9.5117 11.9055 9.43226 11.665 9.42921C11.4245 9.42616 11.1892 9.49966 10.9932 9.63908C10.7971 9.7785 10.6505 9.97662 10.5744 10.2048C10.4984 10.433 10.4968 10.6795 10.57 10.9087C10.6432 11.1378 10.7874 11.3378 10.9816 11.4796C11.1759 11.6215 11.4103 11.6979 11.6508 11.6978ZM14.2427 10.455C13.994 10.455 13.7509 10.5287 13.544 10.6669C13.3372 10.805 13.176 11.0014 13.0808 11.2311C12.9856 11.4609 12.9607 11.7137 13.0092 11.9577C13.0577 12.2016 13.1774 12.4257 13.3533 12.6016C13.5291 12.7774 13.7531 12.8972 13.9971 12.9458C14.241 12.9943 14.4938 12.9695 14.7236 12.8743C14.9534 12.7792 15.1498 12.618 15.288 12.4112C15.4262 12.2045 15.5 11.9614 15.5 11.7127C15.4997 11.3793 15.3671 11.0596 15.1314 10.8239C14.8957 10.5881 14.5761 10.4555 14.2427 10.455ZM13.9971 11.8762L14.0039 11.8787C14.0835 11.9061 14.1659 11.9249 14.2495 11.935C14.3676 11.9527 14.4108 11.9617 14.4581 12.0187C14.4883 12.0547 14.4796 12.0769 14.4764 12.0853C14.4645 12.1149 14.4217 12.1535 14.3389 12.1645C14.3089 12.168 14.0457 12.1967 13.9996 11.9968C13.9859 11.9389 13.9498 11.8889 13.8993 11.8575C13.8487 11.8262 13.7879 11.816 13.7299 11.8294C13.672 11.8427 13.6216 11.8784 13.5899 11.9287C13.5582 11.979 13.5476 12.0398 13.5606 12.0979C13.5872 12.2135 13.6446 12.3197 13.7267 12.4053C13.8088 12.491 13.9125 12.5528 14.0268 12.5844V12.6417C14.0275 12.701 14.0516 12.7576 14.0937 12.7993C14.1359 12.841 14.1929 12.8644 14.2522 12.8644C14.3115 12.8644 14.3684 12.841 14.4106 12.7993C14.4528 12.7576 14.4768 12.701 14.4775 12.6417V12.5963C14.6748 12.5483 14.8284 12.4227 14.896 12.2499C14.9293 12.1632 14.9384 12.069 14.9223 11.9775C14.9062 11.886 14.8655 11.8006 14.8047 11.7304C14.6453 11.5389 14.455 11.5102 14.3162 11.4897C14.2643 11.4837 14.213 11.4729 14.1631 11.4572C14.1381 11.4466 14.0725 11.4151 14.073 11.3726C14.0737 11.3413 14.1042 11.2988 14.1618 11.2773C14.3334 11.2139 14.4426 11.3175 14.4876 11.436C14.4979 11.4639 14.5136 11.4895 14.5339 11.5113C14.5541 11.5331 14.5785 11.5507 14.6055 11.5631C14.6326 11.5754 14.6619 11.5823 14.6916 11.5832C14.7214 11.5842 14.751 11.5793 14.7788 11.5687C14.8066 11.5582 14.8321 11.5422 14.8537 11.5218C14.8754 11.5014 14.8927 11.4768 14.9048 11.4497C14.9169 11.4225 14.9235 11.3932 14.9242 11.3634C14.9249 11.3337 14.9198 11.3041 14.909 11.2763C14.8262 11.0581 14.6683 10.9068 14.4777 10.8424V10.7835C14.4777 10.7237 14.454 10.6664 14.4117 10.6242C14.3695 10.582 14.3122 10.5582 14.2524 10.5582C14.1927 10.5582 14.1354 10.582 14.0931 10.6242C14.0509 10.6664 14.0272 10.7237 14.0272 10.7835V10.8472L14.0056 10.8547C13.7764 10.94 13.6262 11.1405 13.6226 11.3658C13.6194 11.5889 13.759 11.7796 13.9971 11.8762ZM10.3601 8.13584L12.9304 8.13519L12.9297 7.95009L10.361 7.95044L10.3601 8.13584ZM11.0767 7.49978H12.2476C12.4495 7.41028 12.6945 7.22425 12.725 6.68862C12.2631 6.87403 11.9165 6.7559 11.6895 6.59881C11.3582 6.79647 11.0206 6.83475 10.702 6.71131C10.7258 7.10884 10.8491 7.36772 11.0767 7.49978ZM11.498 6.18728C11.5606 6.1466 11.6343 6.12645 11.7089 6.12962C11.7835 6.13279 11.8553 6.15913 11.9142 6.20497C11.9727 6.25386 12.0408 6.29011 12.114 6.31144C12.1872 6.33277 12.2641 6.33872 12.3398 6.3289V3.59625L11.6017 3.03003L10.8636 3.59625V6.29078C11.0658 6.36962 11.2695 6.33597 11.498 6.18728ZM8.88522 11.8005V5.29162L8.14722 4.7254L7.40906 5.29162V11.8005H8.88522ZM5.43069 11.8005V7.32919L4.69269 6.76297L3.95453 7.32919V11.8005H5.43069ZM1.97619 11.8005V9.10087L1.23816 8.53465L0.5 9.10087V11.8005H1.97619Z" fill="black"/>
</svg>
