<svg width="16" height="16" viewBox="0 0 16 16" fill="none" xmlns="http://www.w3.org/2000/svg">
<g clip-path="url(#clip0_27_104)">
<path d="M9.53127 9.78374C10.2669 9.20541 10.8039 8.41216 11.0676 7.51436C11.3313 6.61657 11.3086 5.65889 11.0026 4.77461C10.6966 3.89033 10.1226 3.12343 9.3604 2.58063C8.5982 2.03784 7.68575 1.74614 6.75002 1.74614C5.8143 1.74614 4.90185 2.03784 4.13964 2.58063C3.37744 3.12343 2.80341 3.89033 2.49742 4.77461C2.19143 5.65889 2.16872 6.61657 2.43243 7.51436C2.69614 8.41216 3.23317 9.20541 3.96877 9.78374C2.78579 10.2661 1.74041 11.0335 0.925647 12.0175C0.79768 12.1698 0.735468 12.3668 0.752698 12.565C0.769928 12.7632 0.865188 12.9464 1.01752 13.0744C1.16986 13.2023 1.36678 13.2645 1.56499 13.2473C1.76319 13.2301 1.94643 13.1348 2.0744 12.9825C2.93002 11.9637 4.43752 10.75 6.75002 10.75C9.06252 10.75 10.57 11.9637 11.4256 12.9825C11.5536 13.1348 11.7369 13.2301 11.9351 13.2473C12.1333 13.2645 12.3302 13.2023 12.4825 13.0744C12.6349 12.9464 12.7301 12.7632 12.7473 12.565C12.7646 12.3668 12.7024 12.1698 12.5744 12.0175C11.7598 11.0333 10.7144 10.2659 9.53127 9.78374ZM3.75002 6.24999C3.75002 5.65665 3.92597 5.07663 4.25561 4.58328C4.58526 4.08994 5.05379 3.70542 5.60197 3.47836C6.15015 3.25129 6.75335 3.19188 7.33529 3.30764C7.91724 3.42339 8.45179 3.70912 8.87134 4.12867C9.2909 4.54823 9.57662 5.08278 9.69238 5.66472C9.80813 6.24667 9.74872 6.84987 9.52166 7.39804C9.2946 7.94622 8.91008 8.41476 8.41673 8.7444C7.92339 9.07405 7.34337 9.24999 6.75002 9.24999C5.95463 9.24917 5.19205 8.93283 4.62962 8.3704C4.06719 7.80797 3.75085 7.04539 3.75002 6.24999ZM15.7806 8.53062L13.7806 10.5306C13.711 10.6005 13.6282 10.656 13.537 10.6939C13.4458 10.7317 13.3481 10.7512 13.2494 10.7512C13.1507 10.7512 13.0529 10.7317 12.9618 10.6939C12.8706 10.656 12.7878 10.6005 12.7181 10.5306L11.7181 9.53062C11.5773 9.38972 11.4981 9.19863 11.4981 8.99937C11.4981 8.80011 11.5773 8.60902 11.7181 8.46812C11.859 8.32722 12.0501 8.24807 12.2494 8.24807C12.4487 8.24807 12.6398 8.32722 12.7806 8.46812L13.25 8.93749L14.7194 7.46749C14.7892 7.39773 14.872 7.34239 14.9631 7.30463C15.0543 7.26688 15.152 7.24744 15.2506 7.24744C15.3493 7.24744 15.447 7.26688 15.5382 7.30463C15.6293 7.34239 15.7121 7.39773 15.7819 7.46749C15.8517 7.53726 15.907 7.62008 15.9448 7.71123C15.9825 7.80239 16.0019 7.90008 16.0019 7.99874C16.0019 8.09741 15.9825 8.1951 15.9448 8.28625C15.907 8.37741 15.8517 8.46023 15.7819 8.52999L15.7806 8.53062Z" fill="black"/>
</g>
<defs>
<clipPath id="clip0_27_104">
<rect width="16" height="16" fill="white"/>
</clipPath>
</defs>
</svg>
