<svg width="12" height="12" viewBox="0 0 12 12" fill="none" xmlns="http://www.w3.org/2000/svg">
<g clip-path="url(#clip0_413_6857)">
<path d="M9.5 10.75C9.83141 10.7497 10.1492 10.6178 10.3835 10.3835C10.6178 10.1492 10.7497 9.83141 10.75 9.5V1.5C10.7497 1.16859 10.6178 0.850843 10.3835 0.616497C10.1492 0.382151 9.83141 0.250344 9.5 0.25H1.5C1.16859 0.250344 0.850843 0.382151 0.616497 0.616497C0.382151 0.850843 0.250344 1.16859 0.25 1.5V9.5C0.250344 9.83141 0.382151 10.1492 0.616497 10.3835C0.850843 10.6178 1.16859 10.7497 1.5 10.75H9.5ZM0.75 9.5V1.5C0.750225 1.30116 0.829315 1.11052 0.969918 0.969918C1.11052 0.829315 1.30116 0.750225 1.5 0.75H9.5C9.69884 0.750225 9.88948 0.829315 10.0301 0.969918C10.1707 1.11052 10.2498 1.30116 10.25 1.5V9.5C10.2498 9.69884 10.1707 9.88948 10.0301 10.0301C9.88948 10.1707 9.69884 10.2498 9.5 10.25H1.5C1.30116 10.2498 1.11052 10.1707 0.969918 10.0301C0.829315 9.88948 0.750225 9.69884 0.75 9.5Z" fill="#2563EB"/>
<path d="M8.75 2C8.75 1.85166 8.70601 1.70666 8.6236 1.58332C8.54119 1.45999 8.42406 1.36386 8.28701 1.30709C8.14997 1.25032 7.99917 1.23547 7.85368 1.26441C7.7082 1.29335 7.57456 1.36478 7.46967 1.46967C7.36478 1.57456 7.29335 1.7082 7.26441 1.85368C7.23547 1.99917 7.25032 2.14997 7.30709 2.28701C7.36386 2.42406 7.45999 2.54119 7.58332 2.6236C7.70666 2.70601 7.85166 2.75 8 2.75C8.19884 2.74978 8.38948 2.67069 8.53008 2.53008C8.67069 2.38948 8.74978 2.19884 8.75 2ZM7.75 2C7.75 1.95055 7.76466 1.90222 7.79213 1.86111C7.8196 1.82 7.85865 1.78795 7.90433 1.76903C7.95001 1.75011 8.00028 1.74516 8.04877 1.7548C8.09727 1.76445 8.14181 1.78826 8.17678 1.82322C8.21174 1.85819 8.23555 1.90273 8.2452 1.95123C8.25484 1.99972 8.24989 2.04999 8.23097 2.09567C8.21205 2.14135 8.18 2.1804 8.13889 2.20787C8.09778 2.23534 8.04945 2.25 8 2.25C7.93372 2.24992 7.87018 2.22356 7.82331 2.17669C7.77644 2.12982 7.75008 2.06628 7.75 2Z" fill="#2563EB"/>
<path d="M3.75 2C3.75 1.85166 3.70601 1.70666 3.6236 1.58332C3.54119 1.45999 3.42406 1.36386 3.28701 1.30709C3.14997 1.25032 2.99917 1.23547 2.85368 1.26441C2.7082 1.29335 2.57456 1.36478 2.46967 1.46967C2.36478 1.57456 2.29335 1.7082 2.26441 1.85368C2.23547 1.99917 2.25032 2.14997 2.30709 2.28701C2.36386 2.42406 2.45999 2.54119 2.58332 2.6236C2.70666 2.70601 2.85166 2.75 3 2.75C3.19884 2.74978 3.38948 2.67069 3.53008 2.53008C3.67069 2.38948 3.74978 2.19884 3.75 2ZM2.75 2C2.75 1.95055 2.76466 1.90222 2.79213 1.86111C2.8196 1.82 2.85865 1.78795 2.90433 1.76903C2.95001 1.75011 3.00028 1.74516 3.04877 1.7548C3.09727 1.76445 3.14181 1.78826 3.17678 1.82322C3.21174 1.85819 3.23555 1.90273 3.2452 1.95123C3.25484 1.99972 3.24989 2.04999 3.23097 2.09567C3.21205 2.14135 3.18001 2.1804 3.13889 2.20787C3.09778 2.23534 3.04945 2.25 3 2.25C2.93372 2.24992 2.87018 2.22356 2.82331 2.17669C2.77644 2.12982 2.75008 2.06628 2.75 2Z" fill="#2563EB"/>
<path d="M10.5 3.75C10.5663 3.75 10.6299 3.72366 10.6768 3.67678C10.7237 3.62989 10.75 3.5663 10.75 3.5C10.75 3.4337 10.7237 3.37011 10.6768 3.32322C10.6299 3.27634 10.5663 3.25 10.5 3.25H0.5C0.433696 3.25 0.370107 3.27634 0.323223 3.32322C0.276339 3.37011 0.25 3.4337 0.25 3.5C0.25 3.5663 0.276339 3.62989 0.323223 3.67678C0.370107 3.72366 0.433696 3.75 0.5 3.75H10.5Z" fill="#2563EB"/>
<path d="M7.5 2.25C7.5663 2.25 7.62989 2.22366 7.67678 2.17678C7.72366 2.12989 7.75 2.0663 7.75 2C7.75 1.9337 7.72366 1.87011 7.67678 1.82322C7.62989 1.77634 7.5663 1.75 7.5 1.75H3.5C3.4337 1.75 3.37011 1.77634 3.32322 1.82322C3.27634 1.87011 3.25 1.9337 3.25 2C3.25 2.0663 3.27634 2.12989 3.32322 2.17678C3.37011 2.22366 3.4337 2.25 3.5 2.25H7.5Z" fill="#2563EB"/>
<path d="M6.74415 9.4253C6.7495 9.36865 6.75 9.30665 6.75 9.25C6.75008 8.65157 6.53555 8.07295 6.14538 7.6192C5.7552 7.16545 5.21525 6.86667 4.62355 6.7771C4.49978 6.75973 4.37499 6.75068 4.25 6.75C3.76303 6.75006 3.28668 6.89234 2.87945 7.15937C2.47222 7.4264 2.15184 7.80654 1.95766 8.25313C1.76348 8.69971 1.70395 9.19328 1.78639 9.67322C1.86883 10.1532 2.08964 10.5986 2.42172 10.9548C2.75379 11.311 3.18265 11.5624 3.65565 11.6782C4.12864 11.7941 4.62517 11.7692 5.08425 11.6068C5.54333 11.4444 5.94497 11.1514 6.23985 10.7638C6.53473 10.3763 6.71001 9.91107 6.74415 9.4253ZM2.25 9.25C2.25056 8.71974 2.46145 8.21135 2.8364 7.8364C3.21136 7.46145 3.71974 7.25056 4.25 7.25C4.3513 7.25067 4.45244 7.25809 4.55275 7.2722C5.02533 7.34463 5.45634 7.58393 5.76769 7.94675C6.07904 8.30957 6.25014 8.7719 6.25 9.25C6.2509 9.29365 6.2496 9.33733 6.2461 9.38085L6.2456 9.38795C6.2112 9.90624 5.9765 10.3908 5.59117 10.7391C5.20584 11.0875 4.70011 11.2722 4.18099 11.2543C3.66186 11.2364 3.17008 11.0172 2.80969 10.6431C2.4493 10.269 2.24858 9.76943 2.25 9.25Z" fill="#2563EB"/>
<path d="M5.25001 8.85C5.25097 9.089 5.34626 9.31796 5.51515 9.48707C5.68403 9.65618 5.91286 9.75177 6.15186 9.75305C6.31849 9.75228 6.48174 9.70603 6.62401 9.6193L8.09671 8.7333L10.0606 8.24235C10.1146 8.22885 10.1626 8.19767 10.197 8.15376C10.2313 8.10985 10.25 8.05573 10.25 8V5C10.25 4.9337 10.2237 4.87011 10.1768 4.82322C10.1299 4.77634 10.0663 4.75 10 4.75L9.45901 4.7534L6.45901 5.2534C6.41702 5.26045 6.37752 5.27811 6.34426 5.3047L4.43426 6.8297C4.39625 6.86004 4.36791 6.90081 4.35272 6.94701C4.33753 6.99322 4.33614 7.04285 4.34874 7.08983C4.36133 7.13681 4.38735 7.1791 4.42362 7.21151C4.45989 7.24392 4.50482 7.26504 4.55291 7.2723C5.04676 7.34704 5.49448 7.60464 5.80731 7.994L5.65151 8.097C5.52766 8.17964 5.42618 8.29165 5.35612 8.42304C5.28607 8.55442 5.24961 8.70111 5.25001 8.85ZM5.92821 8.51335L6.29821 8.26835C6.35246 8.23233 6.39052 8.17657 6.40428 8.11292C6.41804 8.04927 6.40643 7.98277 6.37191 7.92755C6.08216 7.4618 5.64729 7.10426 5.13431 6.91L6.60546 5.7357L9.50001 5.25H9.75001V7.8047L7.93946 8.25755C7.91543 8.26354 7.8924 8.273 7.87111 8.28565L6.35546 9.19605C6.29543 9.23263 6.22663 9.25233 6.15633 9.25306C6.08603 9.25379 6.01684 9.23553 5.95606 9.2002C5.89348 9.16571 5.84133 9.11502 5.80507 9.05344C5.76882 8.99186 5.7498 8.92166 5.75001 8.8502C5.74965 8.78373 5.76573 8.7182 5.79682 8.65945C5.82791 8.60069 5.87305 8.55044 5.92821 8.51335Z" fill="#2563EB"/>
<path d="M6.29886 8.26802L7.13886 7.70802C7.19301 7.67082 7.23034 7.6138 7.24278 7.54928C7.25522 7.48477 7.24176 7.41796 7.20532 7.36329C7.16888 7.30862 7.11239 7.2705 7.04805 7.25716C6.98372 7.24382 6.91673 7.25634 6.86156 7.29202L6.02156 7.85202C5.99391 7.87008 5.97012 7.89345 5.95156 7.92076C5.933 7.94807 5.92003 7.97879 5.91341 8.01114C5.90678 8.0435 5.90663 8.07684 5.91297 8.10925C5.9193 8.14166 5.932 8.17249 5.95032 8.19997C5.96863 8.22745 5.99222 8.25102 6.0197 8.26933C6.04718 8.28764 6.07801 8.30033 6.11043 8.30666C6.14284 8.31299 6.17618 8.31283 6.20853 8.3062C6.24088 8.29956 6.27155 8.28659 6.29886 8.26802Z" fill="#2563EB"/>
<path d="M11.5 8.75C11.5663 8.75 11.6299 8.72366 11.6768 8.67678C11.7237 8.62989 11.75 8.5663 11.75 8.5V4.5C11.75 4.4337 11.7237 4.37011 11.6768 4.32322C11.6299 4.27634 11.5663 4.25 11.5 4.25H10C9.9337 4.25 9.87011 4.27634 9.82322 4.32322C9.77634 4.37011 9.75 4.4337 9.75 4.5V8.5C9.75 8.5663 9.77634 8.62989 9.82322 8.67678C9.87011 8.72366 9.9337 8.75 10 8.75H11.5ZM10.25 4.75H11.25V8.25H10.25V4.75Z" fill="#2563EB"/>
</g>
<defs>
<clipPath id="clip0_413_6857">
<rect width="12" height="12" fill="white"/>
</clipPath>
</defs>
</svg>
