<svg width="16" height="16" viewBox="0 0 16 16" fill="none" xmlns="http://www.w3.org/2000/svg">
<path d="M13.0306 4.02938L4.03063 13.0294C3.96086 13.0991 3.87804 13.1545 3.78689 13.1922C3.69574 13.23 3.59804 13.2494 3.49938 13.2494C3.40072 13.2494 3.30302 13.23 3.21187 13.1922C3.12072 13.1545 3.03789 13.0991 2.96813 13.0294C2.89837 12.9596 2.84302 12.8768 2.80527 12.7856C2.76751 12.6945 2.74808 12.5968 2.74808 12.4981C2.74808 12.3995 2.76751 12.3018 2.80527 12.2106C2.84302 12.1195 2.89837 12.0366 2.96813 11.9669L11.9681 2.96688C12.109 2.82598 12.3001 2.74682 12.4994 2.74682C12.6986 2.74682 12.8897 2.82598 13.0306 2.96688C13.1715 3.10777 13.2507 3.29887 13.2507 3.49813C13.2507 3.69738 13.1715 3.88848 13.0306 4.02938ZM2.9825 6.51688C2.57373 6.10769 2.31948 5.56943 2.26308 4.9938C2.20668 4.41817 2.35161 3.8408 2.67318 3.36005C2.99475 2.8793 3.47306 2.52492 4.02662 2.3573C4.58018 2.18967 5.17474 2.21917 5.70899 2.44077C6.24324 2.66236 6.68413 3.06235 6.95653 3.57256C7.22893 4.08278 7.316 4.67167 7.2029 5.23889C7.08979 5.8061 6.78351 6.31656 6.33624 6.68327C5.88897 7.04998 5.32839 7.25027 4.75 7.25C4.42154 7.25081 4.09618 7.18642 3.79278 7.06058C3.48938 6.93473 3.21397 6.74993 2.9825 6.51688ZM3.75 4.75C3.7499 4.98136 3.83002 5.2056 3.97671 5.38451C4.12341 5.56342 4.3276 5.68593 4.55449 5.73117C4.78139 5.7764 5.01695 5.74156 5.22104 5.63258C5.42512 5.5236 5.58511 5.34723 5.67373 5.13351C5.76236 4.9198 5.77413 4.68197 5.70706 4.46054C5.63998 4.23912 5.4982 4.0478 5.30588 3.9192C5.11355 3.79059 4.88259 3.73265 4.65233 3.75525C4.42208 3.77784 4.20678 3.87958 4.04313 4.04313C3.9499 4.13567 3.87597 4.24581 3.82565 4.36716C3.77533 4.4885 3.74962 4.61864 3.75 4.75ZM13.75 11.25C13.75 11.8284 13.5494 12.3888 13.1825 12.8359C12.8156 13.283 12.305 13.589 11.7378 13.7019C11.1705 13.8147 10.5817 13.7274 10.0716 13.4548C9.5615 13.1821 9.16172 12.7411 8.94036 12.2067C8.719 11.6724 8.68975 11.0779 8.8576 10.5244C9.02544 9.97091 9.38 9.49275 9.86086 9.17138C10.3417 8.85001 10.9191 8.7053 11.4947 8.76192C12.0703 8.81853 12.6085 9.07297 13.0175 9.48188C13.2505 9.71344 13.4353 9.98897 13.561 10.2925C13.6868 10.596 13.751 10.9215 13.75 11.25ZM12.25 11.25C12.2505 11.1185 12.2248 10.9883 12.1745 10.8668C12.1242 10.7454 12.0502 10.6351 11.9569 10.5425C11.7932 10.379 11.578 10.2772 11.3478 10.2546C11.1175 10.232 10.8866 10.2899 10.6943 10.4185C10.5019 10.547 10.3601 10.7383 10.293 10.9597C10.2259 11.1811 10.2376 11.4189 10.3262 11.6326C10.4147 11.8463 10.5746 12.0227 10.7786 12.1318C10.9826 12.2408 11.2182 12.2758 11.4451 12.2306C11.6719 12.1855 11.8762 12.0631 12.023 11.8843C12.1697 11.7055 12.25 11.4813 12.25 11.25Z" fill="black"/>
</svg>
