<svg width="16" height="16" viewBox="0 0 16 16" fill="none" xmlns="http://www.w3.org/2000/svg">
<path d="M8 4.75C6.20999 4.75 4.75 6.20999 4.75 8C4.75 9.78998 6.20999 11.25 8 11.25C9.79001 11.25 11.25 9.78998 11.25 8C11.25 6.20999 9.79001 4.75 8 4.75ZM8.5 7.75C8.91501 7.75 9.25 8.08499 9.25 8.5C9.25 8.91498 8.91501 9.25 8.5 9.25H8.25V9.5C8.25 9.63998 8.14001 9.75 8 9.75C7.85999 9.75 7.75 9.63998 7.75 9.5V9.25H7C6.85999 9.25 6.75 9.13998 6.75 9C6.75 8.85999 6.85999 8.75 7 8.75H7.75V8.25H7.5C7.08499 8.25 6.75 7.91498 6.75 7.5C6.75 7.08499 7.08499 6.75 7.5 6.75H7.75V6.5C7.75 6.35999 7.85999 6.25 8 6.25C8.14001 6.25 8.25 6.35999 8.25 6.5V6.75H9C9.14001 6.75 9.25 6.85999 9.25 7C9.25 7.13998 9.14001 7.25 9 7.25H8.25V7.75H8.5Z" fill="black"/>
<path d="M8.75 8.5C8.75 8.63998 8.64001 8.75 8.5 8.75H8.25V8.25H8.5C8.64001 8.25 8.75 8.35999 8.75 8.5Z" fill="black"/>
<path d="M7.75 7.25V7.75H7.5C7.35999 7.75 7.25 7.63998 7.25 7.5C7.25 7.35999 7.35999 7.25 7.5 7.25H7.75Z" fill="black"/>
<path d="M2.32324 13.1768L2.82294 13.6765L2.82355 13.6771L4.32324 15.1768C4.37207 15.2256 4.43604 15.25 4.5 15.25C4.56396 15.25 4.62793 15.2256 4.67676 15.1768L6.17645 13.6771L6.17706 13.6765L6.67676 13.1768C6.77441 13.0791 6.77441 12.9209 6.67676 12.8232C6.5791 12.7256 6.4209 12.7256 6.32324 12.8232L6.25 12.8965V11.5C6.25 11.3618 6.13818 11.25 6 11.25C5.86182 11.25 5.75 11.3618 5.75 11.5V13.3965L4.5 14.6465L3.25 13.3965V8C3.25 6.73218 3.74414 5.53955 4.6416 4.64185C5.53955 3.74438 6.73193 3.25 8 3.25H8.5C8.63818 3.25 8.75 3.13818 8.75 3C8.75 2.86182 8.63818 2.75 8.5 2.75H8C6.59863 2.75 5.28027 3.29639 4.28809 4.28833C3.29639 5.28052 2.75 6.59863 2.75 8V12.8965L2.67676 12.8232C2.5791 12.7256 2.4209 12.7256 2.32324 12.8232C2.22559 12.9209 2.22559 13.0791 2.32324 13.1768Z" fill="black"/>
<path d="M13.6768 2.82324L13.1771 2.32355L13.1765 2.32294L11.6768 0.823242C11.5791 0.725586 11.4209 0.725586 11.3232 0.823242L9.82355 2.32294L9.82294 2.32355L9.32324 2.82324C9.22559 2.9209 9.22559 3.0791 9.32324 3.17676C9.4209 3.27441 9.5791 3.27441 9.67676 3.17676L9.75 3.10352V4.5C9.75 4.63818 9.86182 4.75 10 4.75C10.1382 4.75 10.25 4.63818 10.25 4.5V2.60352L11.5 1.35352L12.75 2.60352V8C12.75 9.26758 12.2559 10.4604 11.3584 11.3584C10.4604 12.2559 9.26758 12.75 8 12.75H7.5C7.36182 12.75 7.25 12.8618 7.25 13C7.25 13.1382 7.36182 13.25 7.5 13.25H8C9.40137 13.25 10.7197 12.7036 11.7119 11.7119C12.7036 10.7197 13.25 9.40137 13.25 8V3.10352L13.3232 3.17676C13.3721 3.22559 13.436 3.25 13.5 3.25C13.564 3.25 13.6279 3.22559 13.6768 3.17676C13.7744 3.0791 13.7744 2.9209 13.6768 2.82324Z" fill="black"/>
<path d="M3.5 3.75C3.56396 3.75 3.62793 3.72559 3.67676 3.67676C3.77441 3.5791 3.77441 3.4209 3.67676 3.32324L3.17676 2.82324C3.0791 2.72559 2.9209 2.72559 2.82324 2.82324C2.72559 2.9209 2.72559 3.0791 2.82324 3.17676L3.32324 3.67676C3.37207 3.72559 3.43604 3.75 3.5 3.75Z" fill="black"/>
<path d="M4.5 3.25C4.63818 3.25 4.75 3.13818 4.75 3V2.5C4.75 2.36182 4.63818 2.25 4.5 2.25C4.36182 2.25 4.25 2.36182 4.25 2.5V3C4.25 3.13818 4.36182 3.25 4.5 3.25Z" fill="black"/>
<path d="M2.25 4.5C2.25 4.63818 2.36182 4.75 2.5 4.75H3C3.13818 4.75 3.25 4.63818 3.25 4.5C3.25 4.36182 3.13818 4.25 3 4.25H2.5C2.36182 4.25 2.25 4.36182 2.25 4.5Z" fill="black"/>
<path d="M12.3232 12.3232C12.2256 12.4209 12.2256 12.5791 12.3232 12.6768L12.8232 13.1768C12.8721 13.2256 12.936 13.25 13 13.25C13.064 13.25 13.1279 13.2256 13.1768 13.1768C13.2744 13.0791 13.2744 12.9209 13.1768 12.8232L12.6768 12.3232C12.5791 12.2256 12.4209 12.2256 12.3232 12.3232Z" fill="black"/>
<path d="M11.5 12.75C11.3618 12.75 11.25 12.8618 11.25 13V13.5C11.25 13.6382 11.3618 13.75 11.5 13.75C11.6382 13.75 11.75 13.6382 11.75 13.5V13C11.75 12.8618 11.6382 12.75 11.5 12.75Z" fill="black"/>
<path d="M13.75 11.5C13.75 11.3618 13.6382 11.25 13.5 11.25H13C12.8618 11.25 12.75 11.3618 12.75 11.5C12.75 11.6382 12.8618 11.75 13 11.75H13.5C13.6382 11.75 13.75 11.6382 13.75 11.5Z" fill="black"/>
</svg>
