<svg width="16" height="16" viewBox="0 0 16 16" fill="none" xmlns="http://www.w3.org/2000/svg">
<path d="M15.3975 3.53438C15.2895 3.46694 15.1661 3.4281 15.0389 3.42154C14.9117 3.41498 14.785 3.44091 14.6706 3.49688C12.0781 4.765 10.2081 4.16625 8.22875 3.53188C6.155 2.86813 3.805 2.11563 0.670625 3.64813C0.544377 3.70984 0.438006 3.80578 0.363637 3.92502C0.289268 4.04425 0.249893 4.18198 0.25 4.3225V11.8288C0.249903 11.9561 0.282221 12.0813 0.343908 12.1927C0.405596 12.3041 0.494622 12.3979 0.6026 12.4654C0.710578 12.5328 0.833954 12.5717 0.961103 12.5783C1.08825 12.5849 1.21499 12.559 1.32938 12.5031C3.92188 11.235 5.79187 11.8338 7.77125 12.4681C8.94812 12.8431 10.2137 13.25 11.6613 13.25C12.765 13.25 13.9738 13.0144 15.3294 12.3519C15.4556 12.2902 15.562 12.1942 15.6364 12.075C15.7107 11.9558 15.7501 11.818 15.75 11.6775V4.17125C15.7501 4.0439 15.7179 3.91861 15.6562 3.80718C15.5945 3.69576 15.5055 3.60187 15.3975 3.53438ZM14.25 11.195C11.875 12.205 10.0994 11.6369 8.22875 11.0381C7.05188 10.6631 5.78625 10.2556 4.33875 10.2556C3.45678 10.2572 2.58146 10.4083 1.75 10.7025V4.805C4.125 3.795 5.90062 4.3625 7.77125 4.96188C9.6 5.5475 11.6431 6.20188 14.25 5.2975V11.195ZM8 6C7.60444 6 7.21776 6.1173 6.88886 6.33706C6.55996 6.55683 6.30362 6.86918 6.15224 7.23464C6.00087 7.60009 5.96126 8.00222 6.03843 8.39018C6.1156 8.77815 6.30608 9.13451 6.58579 9.41422C6.86549 9.69392 7.22186 9.8844 7.60982 9.96157C7.99778 10.0387 8.39991 9.99914 8.76537 9.84776C9.13082 9.69639 9.44318 9.44004 9.66294 9.11114C9.8827 8.78224 10 8.39557 10 8C9.99901 7.46987 9.78798 6.96174 9.41312 6.58688C9.03826 6.21203 8.53013 6.00099 8 6ZM8 8.5C7.90111 8.5 7.80444 8.47068 7.72221 8.41574C7.63999 8.3608 7.5759 8.28271 7.53806 8.19134C7.50022 8.09998 7.49031 7.99945 7.50961 7.90246C7.5289 7.80547 7.57652 7.71638 7.64645 7.64645C7.71637 7.57652 7.80546 7.5289 7.90245 7.50961C7.99945 7.49032 8.09998 7.50022 8.19134 7.53806C8.2827 7.57591 8.36079 7.63999 8.41574 7.72222C8.47068 7.80444 8.5 7.90111 8.5 8C8.5 8.13261 8.44732 8.25979 8.35355 8.35356C8.25979 8.44732 8.13261 8.5 8 8.5ZM4 6.25V8.75C4 8.94892 3.92098 9.13968 3.78033 9.28033C3.63968 9.42098 3.44891 9.5 3.25 9.5C3.05109 9.5 2.86032 9.42098 2.71967 9.28033C2.57902 9.13968 2.5 8.94892 2.5 8.75V6.25C2.5 6.05109 2.57902 5.86032 2.71967 5.71967C2.86032 5.57902 3.05109 5.5 3.25 5.5C3.44891 5.5 3.63968 5.57902 3.78033 5.71967C3.92098 5.86032 4 6.05109 4 6.25ZM12 9.75V7.25C12 7.05109 12.079 6.86032 12.2197 6.71967C12.3603 6.57902 12.5511 6.5 12.75 6.5C12.9489 6.5 13.1397 6.57902 13.2803 6.71967C13.421 6.86032 13.5 7.05109 13.5 7.25V9.75C13.5 9.94892 13.421 10.1397 13.2803 10.2803C13.1397 10.421 12.9489 10.5 12.75 10.5C12.5511 10.5 12.3603 10.421 12.2197 10.2803C12.079 10.1397 12 9.94892 12 9.75Z" fill="black"/>
</svg>
