<svg width="16" height="16" viewBox="0 0 16 16" fill="none" xmlns="http://www.w3.org/2000/svg">
<g clip-path="url(#clip0_27_126)">
<path d="M3.85355 0.646447C4.04883 0.841709 4.04883 1.15829 3.85355 1.35355L2.20711 3H2.875C3.15115 3 3.375 3.22385 3.375 3.5C3.375 3.77615 3.15115 4 2.875 4H1C0.723858 4 0.5 3.77615 0.5 3.5V1.625C0.5 1.34886 0.723858 1.125 1 1.125C1.27614 1.125 1.5 1.34886 1.5 1.625V2.29289L3.14645 0.646447C3.3417 0.451184 3.6583 0.451184 3.85355 0.646447Z" fill="black"/>
<path fill-rule="evenodd" clip-rule="evenodd" d="M6.59375 7.25C6.59375 6.97385 6.3699 6.75 6.09375 6.75C5.8176 6.75 5.59375 6.97385 5.59375 7.25V7.39285H5C4.72385 7.39285 4.5 7.61672 4.5 7.89285V11.1072C4.5 11.3833 4.72385 11.6072 5 11.6072H5.59375V11.75C5.59375 12.0261 5.8176 12.25 6.09375 12.25C6.3699 12.25 6.59375 12.0261 6.59375 11.75V11.6072H6.71875C7.43955 11.6072 8 11.0101 8 10.3036C8 10.0035 7.89893 9.7232 7.72743 9.5C7.89893 9.2768 8 8.9965 8 8.69643C8 7.98985 7.43955 7.39285 6.71875 7.39285H6.59375V7.25ZM5.5 8.39285H6.71875C6.8609 8.39285 7 8.5154 7 8.69643C7 8.87745 6.8609 9 6.71875 9H5.5V8.39285ZM5.5 10H6.71875C6.8609 10 7 10.1225 7 10.3036C7 10.4846 6.8609 10.6072 6.71875 10.6072H5.5V10.3036V10Z" fill="black"/>
<path d="M5.48364 5.065C3.90754 5.3354 2.61149 6.42555 2.05008 7.88085C1.93065 8.19045 2.17739 8.5 2.50922 8.5C2.73804 8.5 2.93609 8.34785 3.02527 8.13713C3.55672 6.8812 4.80044 6 6.24999 6C8.18299 6 9.74999 7.567 9.74999 9.5C9.74999 11.433 8.18299 13 6.24999 13C4.63944 13 3.28294 11.9122 2.87522 10.4312C2.80812 10.1874 2.59767 10 2.34483 10C2.04211 10 1.80427 10.2644 1.87524 10.5587C2.35135 12.5331 4.12937 14 6.24999 14C8.23352 14 9.91732 12.7167 10.5163 10.935C12.6366 10.5712 14.25 8.72402 14.25 6.5C14.25 5.72473 14.0539 4.99525 13.7087 4.35845C13.559 4.08227 13.1888 4.05387 12.9666 4.27602C12.7947 4.44795 12.7714 4.71552 12.8804 4.93285C13.1169 5.40433 13.25 5.93663 13.25 6.5C13.25 8.09067 12.1889 9.4335 10.7359 9.85923C10.7452 9.74073 10.75 9.62092 10.75 9.5C10.75 7.1261 8.91179 5.18152 6.58114 5.012C7.14039 3.82305 8.34907 3 9.74999 3C10.2821 3 10.7865 3.11875 11.238 3.33118C11.4539 3.4327 11.715 3.4063 11.8837 3.23762C12.1098 3.01155 12.0765 2.63402 11.7917 2.48877C11.1789 2.17624 10.485 2 9.74999 2C7.76647 2 6.08267 3.28335 5.48364 5.065Z" fill="black"/>
<path d="M12.1465 14.6465C11.9512 14.8417 11.9512 15.1583 12.1465 15.3536C12.3417 15.5488 12.6583 15.5488 12.8536 15.3536L14.5 13.7071V14.375C14.5 14.6512 14.7239 14.875 15 14.875C15.2762 14.875 15.5 14.6512 15.5 14.375V12.5C15.5 12.2239 15.2762 12 15 12H13.125C12.8489 12 12.625 12.2239 12.625 12.5C12.625 12.7762 12.8489 13 13.125 13H13.7929L12.1465 14.6465Z" fill="black"/>
</g>
<defs>
<clipPath id="clip0_27_126">
<rect width="16" height="16" fill="white"/>
</clipPath>
</defs>
</svg>
