<svg width="16" height="16" viewBox="0 0 16 16" fill="none" xmlns="http://www.w3.org/2000/svg">
<path fill-rule="evenodd" clip-rule="evenodd" d="M10.5 4.25875C9.78499 3.7795 8.92499 3.5 7.99999 3.5C5.58749 3.5 3.615 5.40275 3.505 7.788L3.10497 8.18875C2.71747 8.5755 2.49999 9.10025 2.49999 9.64725V12.5H1.99999C1.79749 12.5 1.61497 12.6217 1.53747 12.8087C1.45997 12.9955 1.50251 13.2105 1.64751 13.3535L3.64751 15.3535C3.84251 15.5487 4.15747 15.5487 4.35247 15.3535L6.35247 13.3535C6.49747 13.2105 6.54002 12.9955 6.46252 12.8087C6.38502 12.6217 6.20249 12.5 5.99999 12.5H5.49749L5.48998 11.7352C6.20748 12.218 7.07249 12.5 7.99999 12.5C10.4125 12.5 12.385 10.5972 12.495 8.212L12.895 7.81125C13.2825 7.4245 13.5 6.89975 13.5 6.35275V3.5H14C14.2025 3.5 14.385 3.37825 14.4625 3.19125C14.54 3.0045 14.4975 2.7895 14.3525 2.6465L12.3525 0.646499C12.1575 0.451249 11.8425 0.451249 11.6475 0.646499L9.64751 2.6465C9.50001 2.79225 9.45997 3.01275 9.54247 3.2015C9.62497 3.39025 9.81501 3.5085 10.0225 3.4995L10.5 3.4785V4.25875ZM3.64001 9.11925C3.55001 9.2785 3.49999 9.46025 3.49999 9.64725V13C3.49999 13.2145 3.36498 13.3972 3.17498 13.4682L3.99999 14.293L4.825 13.4682C4.6375 13.3977 4.50249 13.2167 4.49999 13.0037L4.48498 10.8075C4.09248 10.3177 3.80001 9.7445 3.64001 9.11925ZM5.35998 10.2975C4.82498 9.6825 4.49999 8.87875 4.49999 8C4.49999 6.06825 6.06749 4.5 7.99999 4.5C9.93249 4.5 11.5 6.06825 11.5 8C11.5 9.93175 9.93249 11.5 7.99999 11.5C6.94749 11.5 6.00248 11.0342 5.35998 10.2975ZM9.24999 5.25H6.74999C6.47499 5.25 6.24999 5.474 6.24999 5.75C6.24999 6.026 6.47499 6.25 6.74999 6.25H7.49999C7.82749 6.25 8.10501 6.45875 8.20751 6.75H6.74999C6.47499 6.75 6.24999 6.974 6.24999 7.25C6.24999 7.526 6.47499 7.75 6.74999 7.75H8.20751C8.10501 8.04125 7.82749 8.25 7.49999 8.25C7.09499 8.25 6.74999 8.25 6.74999 8.25C6.54749 8.25 6.36497 8.37175 6.28747 8.55875C6.20997 8.7455 6.25251 8.9605 6.39751 9.1035L8.14751 10.8535C8.34251 11.0487 8.65747 11.0487 8.85247 10.8535C9.04997 10.6585 9.04997 10.3415 8.85247 10.1465L7.90996 9.20175C8.59996 9.03675 9.12997 8.4625 9.23247 7.75H9.24999C9.52499 7.75 9.74999 7.526 9.74999 7.25C9.74999 6.974 9.52499 6.75 9.24999 6.75H9.23247C9.20747 6.5735 9.15501 6.4055 9.08251 6.25H9.24999C9.52499 6.25 9.74999 6.026 9.74999 5.75C9.74999 5.474 9.52499 5.25 9.24999 5.25ZM12.36 6.88075C12.45 6.7215 12.5 6.53975 12.5 6.35275V3C12.5 2.7855 12.635 2.60275 12.825 2.53175L12 1.707L11.2075 2.50075C11.2575 2.52375 11.305 2.5555 11.345 2.595C11.445 2.68925 11.5 2.81975 11.5 2.95625V5.17275C11.9 5.66675 12.1975 6.24675 12.36 6.88075Z" fill="black"/>
</svg>
