<svg width="12" height="12" viewBox="0 0 12 12" fill="none" xmlns="http://www.w3.org/2000/svg">
<g clip-path="url(#clip0_413_7057)">
<path d="M4.99055 6.35273V6.84328C4.99055 6.92086 4.9275 6.98391 4.84992 6.98391C4.77234 6.98391 4.7093 6.92086 4.7093 6.84328V6.35273C4.7093 6.27516 4.77234 6.21211 4.84992 6.21211C4.9275 6.21211 4.99055 6.27516 4.99055 6.35273ZM5.06625 3.32367C5.18977 3.32367 5.29008 3.42422 5.29008 3.5475C5.29008 3.62508 5.35313 3.68813 5.4307 3.68813C5.50828 3.68813 5.57133 3.62508 5.57133 3.5475C5.57133 3.31781 5.41711 3.12375 5.20688 3.06258V3.02789C5.20688 2.95031 5.14383 2.88727 5.06625 2.88727C4.98867 2.88727 4.92563 2.95031 4.92563 3.02789V3.06258C4.71539 3.12375 4.56117 3.31781 4.56117 3.54773C4.56117 3.93562 4.84547 4.00359 5.03367 4.04883C5.22867 4.09547 5.29031 4.11773 5.29031 4.27641C5.29031 4.39992 5.18977 4.50047 5.06648 4.50047C4.9432 4.50047 4.84266 4.39992 4.84266 4.27664C4.84266 4.19906 4.77961 4.13602 4.70203 4.13602C4.62445 4.13602 4.56141 4.19906 4.56141 4.27664C4.56141 4.50633 4.71562 4.70039 4.92586 4.76156V4.79625C4.92586 4.87383 4.98891 4.93687 5.06648 4.93687C5.14406 4.93687 5.20711 4.87383 5.20711 4.79625V4.76156C5.41734 4.70039 5.57156 4.50633 5.57156 4.27641C5.57156 3.88852 5.28727 3.82031 5.09906 3.77531C4.90406 3.72867 4.84242 3.70641 4.84242 3.5475C4.84242 3.42422 4.94273 3.32367 5.06625 3.32367ZM9.76477 8.41195L9.01383 9.10359L9.76477 9.79547C9.85266 9.87656 9.8993 9.9825 9.8993 10.102V10.8581C9.8993 10.9357 9.83625 10.9987 9.75867 10.9987H7.85414C7.77656 10.9987 7.71352 10.9357 7.71352 10.8581V10.102C7.71352 9.9825 7.75992 9.87656 7.84805 9.79547L8.59898 9.10359L7.84805 8.41172C7.76016 8.33062 7.71352 8.22469 7.71352 8.10516V7.34906C7.71352 7.27148 7.77656 7.20844 7.85414 7.20844H9.75867C9.83625 7.20844 9.8993 7.27148 9.8993 7.34906V8.10516C9.8993 8.22492 9.85266 8.33086 9.76477 8.41195ZM8.80641 9.29484L8.03859 10.0022C8.00883 10.0296 7.99477 10.0615 7.99477 10.102V10.7175H9.61805V10.102C9.61805 10.0615 9.60422 10.0298 9.57422 10.0022L8.80641 9.29484ZM9.61805 7.48969H7.99477V8.10516C7.99477 8.1457 8.00859 8.17734 8.03859 8.205L8.80641 8.91234L9.57422 8.205C9.60398 8.17758 9.61805 8.14594 9.61805 8.10516V7.48969ZM11.6297 8.87508L11.314 9.42164C11.2889 9.46523 11.2425 9.49195 11.1921 9.49195C11.1417 9.49195 11.0955 9.46523 11.0702 9.42164L10.7545 8.87508C10.7295 8.83148 10.7295 8.77805 10.7545 8.73445C10.7796 8.69086 10.826 8.66414 10.8764 8.66414H11.0266C10.8202 7.61391 9.89273 6.84 8.80617 6.84C7.78523 6.84 6.88664 7.52742 6.62063 8.51156C6.60047 8.58656 6.52312 8.63086 6.44812 8.6107C6.37312 8.59055 6.32883 8.5132 6.34898 8.4382C6.64805 7.33172 7.6582 6.55875 8.80594 6.55875C8.91258 6.55875 9.01758 6.56555 9.12094 6.57844V6.49359H5.62594V7.06617C5.62594 7.47914 5.29008 7.815 4.87711 7.815C4.46414 7.815 4.12828 7.47914 4.12828 7.06617V6.49359H0.632812V7.79672C1.35891 7.86375 1.93852 8.44336 2.00531 9.16922H6.07734L6.29883 8.78555C6.32391 8.74195 6.37031 8.71523 6.4207 8.71523C6.47109 8.71523 6.51727 8.74195 6.54258 8.78555L6.85828 9.33211C6.88336 9.3757 6.88336 9.42914 6.85828 9.47273C6.8332 9.51633 6.7868 9.54305 6.73641 9.54305H6.58594C6.79242 10.5933 7.71984 11.3672 8.80641 11.3672C9.82734 11.3672 10.7259 10.6798 10.992 9.69562C11.0121 9.62062 11.0895 9.57633 11.1645 9.59648C11.2395 9.61664 11.2837 9.69398 11.2636 9.76898C10.9643 10.8755 9.95391 11.6484 8.80641 11.6484C7.56609 11.6484 6.50977 10.7517 6.29953 9.54305H6.105C6.05484 9.54305 6.00844 9.51633 5.98312 9.47273C5.97891 9.46547 5.97586 9.45797 5.97305 9.45047H1.10344C0.688828 9.45047 0.351562 9.1132 0.351562 8.69859V5.6775C0.351562 5.6543 0.357188 5.6325 0.367266 5.61328L0.994453 4.39289L0.356016 1.88953H0.35625C0.353203 1.87852 0.351562 1.8668 0.351562 1.85484V1.17352C0.351562 0.720234 0.720234 0.351562 1.17352 0.351562H8.5807C9.03398 0.351562 9.40266 0.720234 9.40266 1.17352V1.85484C9.40266 1.8668 9.40102 1.87852 9.3982 1.88953H9.39844L8.76 4.39266L9.38719 5.61305C9.39703 5.63227 9.40289 5.65406 9.40289 5.67727V6.62953C10.3727 6.86344 11.138 7.65492 11.3135 8.66391H11.508C11.5582 8.66391 11.6046 8.69063 11.6299 8.73422C11.6548 8.77781 11.6548 8.83148 11.6297 8.87508ZM6.34852 9.2618H6.49266L6.4207 9.13711L6.34852 9.2618ZM0.632812 8.07938V8.69883C0.632812 8.95828 0.843984 9.16945 1.10344 9.16945H1.72266C1.65797 8.59852 1.20375 8.1443 0.632812 8.07938ZM8.52469 4.55016H8.02758C8.2268 4.80328 8.34633 5.12227 8.34633 5.46867C8.34633 5.49141 8.34563 5.51391 8.34469 5.53664H9.03164L8.52469 4.55016ZM7.36359 5.10422C7.36359 5.1818 7.30055 5.24484 7.22297 5.24484C7.14539 5.24484 7.08234 5.1818 7.08234 5.10422C7.08234 4.9807 6.9818 4.88039 6.85852 4.88039C6.73523 4.88039 6.63469 4.98094 6.63469 5.10422C6.63469 5.26289 6.69633 5.28539 6.89133 5.33203C7.01625 5.3618 7.17961 5.40141 7.27828 5.53688H8.0632C8.06437 5.51414 8.06531 5.49164 8.06531 5.46891C8.06531 4.80352 7.52391 4.26211 6.85852 4.26211C6.735 4.26211 6.61406 4.28086 6.49805 4.31719C6.37687 4.74516 6.06891 5.09484 5.66789 5.27273C5.65734 5.33719 5.65195 5.40305 5.65195 5.46891C5.65195 5.49164 5.65289 5.51438 5.65406 5.53688H6.60891C6.47344 5.47336 6.35344 5.35641 6.35344 5.10469C6.35344 4.87477 6.50766 4.6807 6.71789 4.61953V4.58484C6.71789 4.50727 6.78094 4.44422 6.85852 4.44422C6.93609 4.44422 6.99914 4.50727 6.99914 4.58484V4.61953C7.20938 4.68047 7.36359 4.87453 7.36359 5.10422ZM5.37047 5.46867C5.37047 5.43492 5.37188 5.40141 5.37422 5.36789C5.27484 5.38898 5.17195 5.40023 5.06625 5.40023C4.78805 5.40023 4.51641 5.32172 4.28227 5.17664C4.24055 5.30391 4.18148 5.42508 4.10625 5.53688H5.37211C5.37117 5.51414 5.37047 5.49141 5.37047 5.46867ZM6.27305 3.91219C6.27305 3.2468 5.73164 2.70539 5.06625 2.70539C4.50258 2.70539 4.02047 3.0907 3.8925 3.63188C4.17797 3.90328 4.35656 4.28602 4.35656 4.71C4.35656 4.76742 4.35305 4.82437 4.34672 4.88039C4.55391 5.03437 4.80656 5.11875 5.06625 5.11875C5.73164 5.11875 6.27305 4.57758 6.27305 3.91219ZM3.37383 5.07422C3.37383 5.2807 3.24937 5.45836 3.07172 5.53664H3.74766C3.9593 5.31211 4.07555 5.02078 4.07555 4.71C4.07555 4.04461 3.53414 3.5032 2.86875 3.5032C2.20336 3.5032 1.66195 4.04461 1.66195 4.71C1.66195 5.02078 1.77797 5.31211 1.98984 5.53664H2.66578C2.48812 5.45836 2.36367 5.2807 2.36367 5.07445C2.36367 4.99687 2.42672 4.93383 2.5043 4.93383C2.58187 4.93383 2.64492 4.99687 2.64492 5.07445C2.64492 5.19797 2.74547 5.29828 2.86875 5.29828C2.99227 5.29828 3.09258 5.19773 3.09258 5.07422C3.09258 4.91578 3.03094 4.89328 2.83594 4.84664C2.64773 4.80164 2.36344 4.73367 2.36344 4.34555C2.36344 4.11563 2.51766 3.92156 2.72789 3.86039V3.8257C2.72789 3.74812 2.79094 3.68508 2.86852 3.68508C2.94609 3.68508 3.00914 3.74812 3.00914 3.8257V3.86039C3.21937 3.92156 3.37359 4.11562 3.37359 4.34531C3.37359 4.42289 3.31055 4.48594 3.23297 4.48594C3.15539 4.48594 3.09234 4.42289 3.09234 4.34531C3.09234 4.2218 2.9918 4.12148 2.86852 4.12148C2.745 4.12148 2.64469 4.22203 2.64469 4.34531C2.64469 4.50398 2.70633 4.52648 2.90133 4.57312C3.08953 4.61836 3.37383 4.68633 3.37383 5.07422ZM0.632812 1.71422H9.12141V1.17352C9.12141 0.875391 8.87883 0.632812 8.5807 0.632812H1.17352C0.875391 0.632812 0.632812 0.875391 0.632812 1.17352V1.71422ZM1.25297 4.26891H1.4475C1.63594 3.66305 2.20172 3.22195 2.86875 3.22195C3.15633 3.22195 3.42492 3.30422 3.65273 3.44602C3.85008 2.84273 4.41375 2.42391 5.06625 2.42391C5.8868 2.42391 6.5543 3.09141 6.5543 3.91195C6.5543 3.94594 6.55266 3.97945 6.55055 4.01297C6.65133 3.99164 6.75422 3.98062 6.85852 3.98062C7.18711 3.98062 7.49086 4.08773 7.73719 4.26891H8.50125L9.08109 1.99547H0.673125L1.25297 4.26891ZM0.722578 5.53688H1.63102C1.46812 5.29453 1.3807 5.00977 1.3807 4.71023C1.3807 4.65633 1.38375 4.60289 1.38937 4.55039H1.22953L0.722578 5.53688ZM9.12141 5.81813H7.19766C7.19742 5.81813 7.19695 5.81813 7.19672 5.81813C7.19648 5.81813 7.19625 5.81813 7.19602 5.81813H0.632812V6.21234H4.26891C4.34648 6.21234 4.40953 6.27539 4.40953 6.35297V7.06617C4.40953 7.32398 4.6193 7.53375 4.87711 7.53375C5.13492 7.53375 5.34469 7.32398 5.34469 7.06617V6.35297C5.34469 6.27539 5.40773 6.21234 5.48531 6.21234H9.12141V5.81813ZM11.2643 8.94539H11.1923C11.1921 8.94539 11.1921 8.94539 11.1919 8.94539H11.1916H11.1199L11.1919 9.07008L11.2643 8.94539Z" fill="#2563EB"/>
</g>
<defs>
<clipPath id="clip0_413_7057">
<rect width="12" height="12" fill="white"/>
</clipPath>
</defs>
</svg>
