<svg width="12" height="12" viewBox="0 0 12 12" fill="none" xmlns="http://www.w3.org/2000/svg">
<g clip-path="url(#clip0_413_7173)">
<path d="M10.6875 7.5H6.5625C6.25232 7.5 6 7.75232 6 8.0625V10.6875C6 10.9977 6.25232 11.25 6.5625 11.25H10.6875C10.9977 11.25 11.25 10.9977 11.25 10.6875V8.0625C11.25 7.75232 10.9977 7.5 10.6875 7.5ZM10.875 8.4375H7.125C6.87936 8.44158 6.87781 8.80817 7.12501 8.8125H10.875V10.6875C10.875 10.7909 10.791 10.875 10.6875 10.875H6.5625C6.45904 10.875 6.375 10.7909 6.375 10.6875V8.0625C6.375 7.95914 6.45904 7.875 6.5625 7.875H10.6875C10.791 7.875 10.875 7.95914 10.875 8.0625V8.4375Z" fill="#2563EB"/>
<path d="M1.6875 9.75H5.25C5.49739 9.74339 5.49641 9.38055 5.24999 9.375H1.6875C1.37732 9.375 1.125 9.12268 1.125 8.8125V2.4375C1.125 2.12732 1.37732 1.875 1.6875 1.875H3.90295C3.8253 2.09278 3.61912 2.25 3.375 2.25C3.27136 2.25 3.1875 2.33395 3.1875 2.4375C3.1875 2.54105 3.27136 2.625 3.375 2.625C3.82771 2.625 4.20643 2.30237 4.29355 1.875H7.09045C7.01281 2.09278 6.80662 2.25 6.5625 2.25C6.45887 2.25 6.375 2.33395 6.375 2.4375C6.375 2.54105 6.45887 2.625 6.5625 2.625C7.01521 2.625 7.39393 2.30237 7.48105 1.875H8.25C8.56019 1.875 8.8125 2.12732 8.8125 2.4375V3H1.875C1.6305 3.00383 1.62687 3.37051 1.87501 3.375C1.875 3.375 8.8125 3.375 8.8125 3.375V6.75C8.81386 6.9936 9.18448 6.99821 9.1875 6.74999C9.1875 6.75 9.1875 2.4375 9.1875 2.4375C9.1875 1.92059 8.76691 1.5 8.25 1.5H7.48105C7.39393 1.07263 7.01521 0.75 6.5625 0.75C6.1098 0.75 5.73108 1.07263 5.64395 1.5H4.29355C4.08249 0.509331 2.66847 0.507139 2.45645 1.50002C2.45645 1.5 1.6875 1.5 1.6875 1.5C1.17059 1.5 0.75 1.92059 0.75 2.4375V8.8125C0.75 9.32941 1.17059 9.75 1.6875 9.75ZM6.5625 1.125C6.80662 1.125 7.0128 1.28222 7.09045 1.5H6.03455C6.1122 1.28222 6.31839 1.125 6.5625 1.125ZM3.375 1.125C3.61912 1.125 3.8253 1.28222 3.90295 1.5H2.84705C2.9247 1.28222 3.13089 1.125 3.375 1.125Z" fill="#2563EB"/>
<path d="M9.18751 10.3125H10.125C10.3712 10.3084 10.3717 9.94164 10.125 9.9375H9.18751C8.94131 9.94156 8.94084 10.3084 9.18751 10.3125Z" fill="#2563EB"/>
<path d="M4.12499 7.68749C3.40136 7.68749 2.81249 7.09871 2.81249 6.35952C2.82678 6.25689 2.75518 6.16222 2.65264 6.14794C2.52031 6.12774 2.42351 6.24953 2.4375 6.37499C2.43749 7.30544 3.19445 8.06249 4.12499 8.06249C5.05554 8.06249 5.81249 7.30544 5.81249 6.37499C5.83121 5.00809 4.19809 4.18987 3.11918 5.0221C3.1192 5.02207 3.1192 4.91656 3.1192 4.91656C3.11548 4.67072 2.7482 4.66968 2.7442 4.91656C2.7442 4.91655 2.7442 5.44692 2.7442 5.44692C2.74329 5.55344 2.83283 5.62555 2.9317 5.63442C2.9317 5.63442 3.46215 5.63442 3.46215 5.63442C3.56579 5.63442 3.64965 5.55047 3.64965 5.44692C3.65048 5.33067 3.54608 5.24737 3.43309 5.25943C4.27597 4.71256 5.45709 5.36551 5.43748 6.37501C5.43749 7.09872 4.84863 7.68749 4.12499 7.68749Z" fill="#2563EB"/>
</g>
<defs>
<clipPath id="clip0_413_7173">
<rect width="12" height="12" fill="white"/>
</clipPath>
</defs>
</svg>
