<svg width="12" height="12" viewBox="0 0 12 12" fill="none" xmlns="http://www.w3.org/2000/svg">
<g clip-path="url(#clip0_413_7088)">
<path fill-rule="evenodd" clip-rule="evenodd" d="M4.13018 10.5061C2.8027 10.5061 2.44101 9.27321 2.44101 7.92835C2.44101 7.05622 2.5771 6.14847 3.19286 5.66309C3.83447 5.15734 4.91103 5.24135 5.40931 6.02437C5.76118 6.57732 5.82917 7.1847 5.82917 7.93812C5.82917 9.16558 5.55337 10.5061 4.13018 10.5061ZM4.13018 5.62403C2.92705 5.62403 2.72414 6.87444 2.72414 7.91858C2.72414 9.10368 2.98552 10.2229 4.13992 10.2229C5.35874 10.2229 5.56547 8.97753 5.56547 7.92832C5.56547 6.90212 5.35353 5.62403 4.13018 5.62403ZM7.59643 10.4279H6.99104C6.91367 10.4279 6.85338 10.3663 6.85435 10.2912C6.86595 9.38621 7.23985 8.18452 7.69406 7.32297C7.8991 6.9324 8.12369 6.58089 8.35802 6.27822H6.32709C6.24897 6.27822 6.19039 6.21964 6.19039 6.14152V5.56546C6.19039 5.48734 6.24897 5.42876 6.32709 5.42876H9.42229C9.50041 5.42876 9.55898 5.48734 9.55898 5.56546V6.0146C9.55898 6.05366 9.54921 6.08295 9.51992 6.11223C8.85909 6.79471 8.22993 8.0408 7.94793 9.01216C7.83076 9.40273 7.76241 9.83233 7.73312 10.301C7.73312 10.3694 7.66477 10.4279 7.59643 10.4279ZM7.13751 10.1448H7.45973C7.55609 9.08491 7.86226 8.17403 8.37756 7.24488C8.67049 6.71762 8.9634 6.28802 9.26608 5.9658V5.71192H6.46378V5.99508H8.6607C8.80478 5.99508 8.8256 6.14905 8.7681 6.21967C8.47517 6.55163 8.20178 6.96175 7.94793 7.44018C7.53204 8.23194 7.18698 9.30355 7.13751 10.1448ZM4.13018 10.0276C3.81773 10.0276 3.54434 9.87139 3.3393 9.57849C3.13425 9.29532 3.03662 8.75832 3.03662 7.92835C3.03662 7.10818 3.14403 6.55163 3.35884 6.23919C3.73056 5.7184 4.47601 5.66719 4.92108 6.28802C5.12612 6.57118 5.22376 7.11796 5.22376 7.93815C5.22376 8.75832 5.12612 9.29535 4.92108 9.58828C4.72579 9.88116 4.4524 10.0276 4.13018 10.0276ZM4.13018 6.11223C3.40571 6.11223 3.31975 7.07029 3.31975 7.92835C3.31975 8.68017 3.40762 9.17815 3.57363 9.41248C3.88707 9.85893 4.39299 9.85946 4.70627 9.41248C5.04252 8.93269 5.03322 6.90275 4.70627 6.44423C4.54026 6.21964 4.35476 6.11223 4.13018 6.11223Z" fill="#2563EB"/>
<path fill-rule="evenodd" clip-rule="evenodd" d="M11.3458 11.8926H0.644413C0.283133 11.8926 0 11.5997 0 11.2385V1.65992C0 1.29864 0.292933 1.00574 0.644413 1.00574H1.41578C1.59701 1.00574 1.59701 1.27913 1.41578 1.27913H0.644413C0.439371 1.27913 0.283133 1.44511 0.283133 1.65015V11.2287C0.283133 11.4239 0.449116 11.5997 0.644413 11.5997L11.3458 11.5997C11.5509 11.5997 11.7168 11.4337 11.7168 11.2287V1.65992C11.7168 1.45488 11.5509 1.2889 11.3458 1.2889H10.5745C10.3932 1.2889 10.3932 1.01551 10.5745 1.01551H11.3458C11.7071 1.01551 12 1.30844 12 1.66969V11.2482C12 11.5997 11.7071 11.8926 11.3458 11.8926ZM9.72497 1.29867H7.81122C7.62998 1.29867 7.62998 1.02528 7.81122 1.02528H9.72497C9.9062 1.02528 9.9062 1.29867 9.72497 1.29867ZM6.96176 1.29867H5.03824C4.857 1.29867 4.857 1.02528 5.03824 1.02528H6.95199C7.13173 1.02528 7.13328 1.29867 6.96176 1.29867ZM4.18878 1.29867H2.27503C2.0938 1.29867 2.0938 1.02528 2.27503 1.02528H4.18878C4.37002 1.02528 4.36999 1.29867 4.18878 1.29867Z" fill="#2563EB"/>
<path fill-rule="evenodd" clip-rule="evenodd" d="M11.8535 4.24739H0.136689C-0.0445459 4.24739 -0.0445459 3.974 0.136689 3.974H11.8535C12.0348 3.974 12.0348 4.24739 11.8535 4.24739Z" fill="#2563EB"/>
<path fill-rule="evenodd" clip-rule="evenodd" d="M1.97233 2.19693H1.71848C1.47438 2.19693 1.27911 2.00166 1.27911 1.75756L1.27908 0.546793C1.27908 0.302692 1.47435 0.107422 1.71845 0.107422H1.97233C2.21643 0.107422 2.4117 0.302692 2.4117 0.546793L2.41173 1.75753C2.41173 2.00163 2.21643 2.19693 1.97233 2.19693ZM1.71848 0.390583C1.63059 0.390583 1.56224 0.45893 1.56224 0.546793V1.75753C1.56224 1.95532 1.79815 1.91377 1.97233 1.91377C2.06019 1.91377 2.12857 1.84542 2.12857 1.75753V0.546793C2.12857 0.348976 1.89263 0.390555 1.71848 0.390583Z" fill="#2563EB"/>
<path fill-rule="evenodd" clip-rule="evenodd" d="M4.74534 2.19693H4.49146C4.24736 2.19693 4.05209 2.00166 4.05209 1.75756V0.546793C4.05209 0.302692 4.24736 0.107422 4.49146 0.107422H4.74534C4.98944 0.107422 5.18471 0.302692 5.18471 0.546793V1.75753C5.18471 2.00163 4.97967 2.19693 4.74534 2.19693ZM4.49146 0.390583C4.4036 0.390583 4.33523 0.45893 4.33523 0.546821V1.75753C4.33523 1.95518 4.58683 1.91377 4.74534 1.91377C4.8332 1.91377 4.90158 1.84542 4.90158 1.75753L4.90155 0.546793C4.90155 0.348976 4.66561 0.390555 4.49146 0.390583Z" fill="#2563EB"/>
<path fill-rule="evenodd" clip-rule="evenodd" d="M7.50855 2.19693H7.25468C7.01058 2.19693 6.81531 2.00166 6.81531 1.75756V0.546793C6.81531 0.302692 7.01058 0.107422 7.25468 0.107422H7.50855C7.75265 0.107422 7.94792 0.302692 7.94792 0.546793V1.75753C7.94792 2.00163 7.75265 2.19693 7.50855 2.19693ZM7.25468 0.390583C7.16682 0.390583 7.09844 0.45893 7.09844 0.546821L7.09847 1.75753C7.09847 1.95532 7.33438 1.91377 7.50855 1.91377C7.59642 1.91377 7.66479 1.84542 7.66479 1.75753V0.546793C7.66479 0.348976 7.42883 0.390555 7.25468 0.390583Z" fill="#2563EB"/>
<path fill-rule="evenodd" clip-rule="evenodd" d="M10.2815 2.19693H10.0277C9.78358 2.19693 9.58831 2.00166 9.58831 1.75756L9.58829 0.546793C9.58829 0.302692 9.78356 0.107422 10.0277 0.107422H10.2815C10.5256 0.107422 10.7209 0.302692 10.7209 0.546793L10.7209 1.75753C10.7209 2.00163 10.5256 2.19693 10.2815 2.19693ZM10.0277 0.390583C9.93982 0.390583 9.87145 0.468702 9.87145 0.546821V1.75753C9.87145 1.95532 10.1074 1.91377 10.2815 1.91377C10.3694 1.91377 10.4378 1.84542 10.4378 1.75753V0.546793C10.4378 0.348976 10.2018 0.390555 10.0277 0.390583Z" fill="#2563EB"/>
<path fill-rule="evenodd" clip-rule="evenodd" d="M9.97883 11.8926C9.90071 11.8926 9.84213 11.834 9.84213 11.7559V10.4475C9.84213 10.057 10.1644 9.73474 10.5549 9.73474H11.8535C12.0348 9.73474 12.0348 10.0081 11.8535 10.0081H10.5549C10.3108 10.0081 10.1155 10.2034 10.1155 10.4475V11.7461C10.1253 11.8242 10.0569 11.8926 9.97883 11.8926Z" fill="#2563EB"/>
<path fill-rule="evenodd" clip-rule="evenodd" d="M9.97883 11.8927C9.85473 11.8927 9.78802 11.7434 9.8812 11.6583L11.7559 9.78363C11.8929 9.6466 12.0816 9.85981 11.9512 9.9789L10.0765 11.8536C10.0569 11.8731 10.0179 11.8927 9.97883 11.8927Z" fill="#2563EB"/>
<path fill-rule="evenodd" clip-rule="evenodd" d="M8.153 3.43696H7.44998C7.26875 3.43696 7.26875 3.16357 7.44998 3.16357H8.153C8.33423 3.16357 8.33421 3.43696 8.153 3.43696Z" fill="#2563EB"/>
<path fill-rule="evenodd" clip-rule="evenodd" d="M7.3328 3.67118C7.25207 3.67118 7.14553 3.5754 7.20587 3.46614L7.67456 2.58737C7.72469 2.47952 7.87113 2.48926 7.92841 2.57759L8.41661 3.45636C8.50663 3.61615 8.25838 3.7633 8.16276 3.59306L7.80148 2.93887L7.45975 3.59306C7.43043 3.64189 7.38163 3.67118 7.3328 3.67118Z" fill="#2563EB"/>
<path fill-rule="evenodd" clip-rule="evenodd" d="M4.2083 3.19282H3.72009C3.53886 3.19282 3.53886 2.91943 3.72009 2.91943H4.2083C4.38953 2.91943 4.38953 3.19282 4.2083 3.19282Z" fill="#2563EB"/>
<path fill-rule="evenodd" clip-rule="evenodd" d="M4.04233 3.67125C3.81597 3.67125 3.57364 3.71884 3.57364 3.53456V2.65579C3.57364 2.47239 3.81229 2.51912 4.03255 2.51912C4.28806 2.51912 4.46218 2.67359 4.46218 2.8804C4.46218 3.03921 4.41305 3.00397 4.43289 3.0659C4.44078 3.09048 4.56773 3.25333 4.46218 3.46624C4.37836 3.63532 4.22306 3.67125 4.04233 3.67125ZM3.8568 3.38812C4.08667 3.38812 4.22785 3.41987 4.22785 3.27097C4.22785 3.15714 4.07433 3.20641 4.06187 3.05618C4.0534 2.95387 4.16928 2.90985 4.16928 2.8902C4.17819 2.88128 4.22353 2.76328 4.02284 2.76325L3.83728 2.76322V3.38812H3.8568Z" fill="#2563EB"/>
<path fill-rule="evenodd" clip-rule="evenodd" d="M3.15377 3.22212H2.52887C2.34764 3.22212 2.34764 2.94873 2.52887 2.94873H3.15377C3.335 2.94873 3.335 3.22212 3.15377 3.22212Z" fill="#2563EB"/>
<path fill-rule="evenodd" clip-rule="evenodd" d="M3.15377 3.6712H2.52888C2.45076 3.6712 2.39218 3.61263 2.39218 3.53451V2.65574C2.39218 2.57762 2.45076 2.51904 2.52888 2.51904L3.15377 2.51907C3.33501 2.51907 3.33501 2.79246 3.15377 2.79246H2.66557V3.39784L3.15377 3.39781C3.33498 3.39781 3.33501 3.6712 3.15377 3.6712Z" fill="#2563EB"/>
<path fill-rule="evenodd" clip-rule="evenodd" d="M5.23353 3.24161C4.89071 3.24161 4.79432 3.27314 4.79429 3.09115L4.79413 2.646C4.7941 2.46172 5.03646 2.5093 5.26282 2.5093C5.73109 2.5093 5.71298 3.09877 5.43854 3.21235C5.38974 3.23184 5.32139 3.24161 5.23353 3.24161ZM5.07726 2.95845C5.22276 2.95845 5.34091 2.99374 5.34091 2.86081C5.34091 2.74474 5.27281 2.77295 5.06752 2.77292V2.95845H5.07726Z" fill="#2563EB"/>
<path fill-rule="evenodd" clip-rule="evenodd" d="M4.93082 3.67129C4.8527 3.67129 4.79413 3.61271 4.79413 3.53459V2.65582C4.79413 2.47459 5.06752 2.47459 5.06752 2.65582V3.53459C5.06752 3.60294 5.00894 3.67129 4.93082 3.67129Z" fill="#2563EB"/>
<path fill-rule="evenodd" clip-rule="evenodd" d="M5.48737 3.65171C5.45808 3.65171 5.4288 3.64194 5.39951 3.62243L4.91131 3.21234C4.76802 3.09242 4.95006 2.88292 5.08706 2.99756L5.57526 3.40764C5.67049 3.48734 5.62628 3.65171 5.48737 3.65171Z" fill="#2563EB"/>
<path fill-rule="evenodd" clip-rule="evenodd" d="M1.32792 3.6712C1.2498 3.6712 1.19122 3.61263 1.19122 3.53451V2.65574C1.19122 2.57762 1.2498 2.51904 1.32792 2.51904L1.9821 2.51907C2.16334 2.51907 2.16334 2.79246 1.9821 2.79246H1.46461V2.92915H1.88447C2.0657 2.92915 2.0657 3.20254 1.88447 3.20254H1.46461C1.46461 3.40329 1.51084 3.6712 1.32792 3.6712Z" fill="#2563EB"/>
<path fill-rule="evenodd" clip-rule="evenodd" d="M6.40522 3.67129C5.81218 3.67129 5.90724 3.11502 5.90724 2.65582C5.90724 2.47459 6.18063 2.47459 6.18063 2.65582C6.18063 2.92196 6.16964 3.05262 6.20015 3.30026C6.21385 3.41152 6.52281 3.44596 6.59069 3.31004C6.62452 3.2423 6.61021 2.76409 6.61021 2.6656C6.61021 2.48436 6.88359 2.48436 6.88359 2.6656C6.88359 2.85771 6.90405 3.25943 6.84453 3.40767C6.77558 3.57941 6.61641 3.67129 6.40522 3.67129Z" fill="#2563EB"/>
<path fill-rule="evenodd" clip-rule="evenodd" d="M9.1489 3.24161C8.80434 3.24161 8.70941 3.27341 8.70944 3.0883L8.70953 2.646C8.70955 2.46172 8.95183 2.5093 9.17818 2.5093C9.64468 2.5093 9.6322 3.10126 9.36368 3.21235C9.30511 3.23184 9.23676 3.24161 9.1489 3.24161ZM8.99269 2.95845L9.22699 2.94867C9.2867 2.88896 9.26774 2.78275 9.16841 2.78272L8.98291 2.78269V2.95845H8.99269Z" fill="#2563EB"/>
<path fill-rule="evenodd" clip-rule="evenodd" d="M8.84623 3.67129C8.76811 3.67129 8.70953 3.61271 8.70953 3.53459V2.65582C8.70953 2.47459 8.98292 2.47459 8.98292 2.65582V3.53459C8.98292 3.60294 8.92432 3.67129 8.84623 3.67129Z" fill="#2563EB"/>
<path fill-rule="evenodd" clip-rule="evenodd" d="M9.40278 3.65171C9.37349 3.65171 9.33443 3.64194 9.31491 3.62243L8.82671 3.21234C8.68343 3.09242 8.86547 2.88292 9.00247 2.99756L9.49067 3.40764C9.59409 3.49417 9.52851 3.65171 9.40278 3.65171Z" fill="#2563EB"/>
<path fill-rule="evenodd" clip-rule="evenodd" d="M10.3401 3.23186C10.2913 3.23186 10.2523 3.21235 10.2229 3.17329L9.90072 2.72415C9.79389 2.58612 10.0068 2.40666 10.1253 2.55816L10.3401 2.8511C10.4607 2.68658 10.6041 2.4071 10.7502 2.52888C10.8087 2.57771 10.8283 2.66557 10.7795 2.72415L10.4475 3.17329C10.428 3.21235 10.3792 3.23186 10.3401 3.23186Z" fill="#2563EB"/>
<path fill-rule="evenodd" clip-rule="evenodd" d="M10.3401 3.67122C10.262 3.67122 10.2034 3.61265 10.2034 3.53453V3.09515C10.2034 2.91392 10.4768 2.91392 10.4768 3.09515V3.53453C10.4768 3.60287 10.4182 3.66148 10.3401 3.67122Z" fill="#2563EB"/>
</g>
<defs>
<clipPath id="clip0_413_7088">
<rect width="12" height="12" fill="white"/>
</clipPath>
</defs>
</svg>
