<svg width="12" height="12" viewBox="0 0 12 12" fill="none" xmlns="http://www.w3.org/2000/svg">
<g clip-path="url(#clip0_413_7027)">
<path d="M10.1074 1.78853V1.23971C10.1074 0.742062 9.70148 0.336182 9.20207 0.336182C8.70442 0.336182 8.29854 0.742062 8.29854 1.23971V1.71617H7.14795V1.23971C7.14795 0.742062 6.74207 0.336182 6.24265 0.336182C5.74501 0.336182 5.33913 0.742062 5.33913 1.23971V1.71617H4.18854V1.23971C4.18854 0.742062 3.78265 0.336182 3.28325 0.336182C2.7856 0.336182 2.37972 0.742062 2.37972 1.23971V1.71971C1.21501 1.7497 0.276184 2.70441 0.276184 3.87618V9.50382C0.276184 10.695 1.24501 11.6638 2.43443 11.6638H9.56383C10.755 11.6638 11.7238 10.695 11.7238 9.50382V3.87618C11.7238 2.87206 11.0356 2.0303 10.1074 1.78853ZM8.65148 1.23971C8.65148 0.936175 8.89853 0.689123 9.20207 0.689123C9.50736 0.689123 9.75442 0.936175 9.75442 1.23971V1.72676C9.6909 1.71971 9.62736 1.71617 9.56383 1.71617H8.65148V1.23971ZM5.69207 1.23971C5.69207 0.936175 5.93913 0.689123 6.24265 0.689123C6.54796 0.689123 6.79501 0.936175 6.79501 1.23971V1.71617H5.69207V1.23971ZM2.73266 1.23971C2.73266 0.936175 2.97971 0.689123 3.28325 0.689123C3.58854 0.689123 3.8356 0.936175 3.8356 1.23971V1.71617H2.73266V1.23971ZM11.3709 9.50382C11.3709 10.5009 10.5609 11.3109 9.56383 11.3109H2.43443C1.43913 11.3109 0.629125 10.5009 0.629125 9.50382V4.63677H11.3709V9.50382ZM11.3709 4.28383H0.629125V3.87618C0.629125 2.87912 1.43913 2.06911 2.43443 2.06911H3.8356V2.745C3.8356 3.00442 3.65383 3.22147 3.41384 3.27971C3.41736 3.24618 3.42266 3.21088 3.42266 3.17559C3.42266 2.78912 3.10853 2.47324 2.72031 2.47324C2.33207 2.47324 2.01795 2.78912 2.01795 3.17559C2.01795 3.56382 2.33207 3.87794 2.72031 3.87794C2.92678 3.87794 3.1103 3.78795 3.23913 3.64501C3.25501 3.64676 3.26913 3.65029 3.28325 3.65029C3.78265 3.65029 4.18854 3.24441 4.18854 2.745V2.06911H6.79501V2.745C6.79501 3.01853 6.5956 3.24441 6.33442 3.28676C6.34148 3.25147 6.34678 3.21442 6.34678 3.17559C6.34678 2.78912 6.03089 2.47324 5.64266 2.47324C5.25442 2.47324 4.9403 2.78912 4.9403 3.17559C4.9403 3.56382 5.25442 3.87794 5.64266 3.87794C5.85089 3.87794 6.03619 3.78618 6.16501 3.64147C6.19148 3.64501 6.21619 3.65029 6.24265 3.65029C6.74207 3.65029 7.14795 3.24441 7.14795 2.745V2.06911H9.56383C9.62736 2.06911 9.6909 2.07265 9.75442 2.0797V2.745C9.75442 3.00442 9.57265 3.22147 9.33266 3.27971C9.33619 3.24618 9.34148 3.21088 9.34148 3.17559C9.34148 2.78912 9.0256 2.47324 8.63913 2.47324C8.25089 2.47324 7.93678 2.78912 7.93678 3.17559C7.93678 3.56382 8.25089 3.87794 8.63913 3.87794C8.8456 3.87794 9.02913 3.78795 9.15795 3.64501C9.17384 3.64676 9.18795 3.65029 9.20207 3.65029C9.70148 3.65029 10.1074 3.24441 10.1074 2.745V2.15206C10.838 2.38324 11.3709 3.06794 11.3709 3.87618V4.28383ZM2.74148 2.8297C2.92501 2.84029 3.06972 2.9903 3.06972 3.17559C3.06972 3.20206 3.06795 3.225 3.06266 3.2497C2.89325 3.17559 2.76971 3.01676 2.74148 2.8297ZM2.8103 3.51265C2.7803 3.51971 2.75031 3.525 2.72031 3.525C2.52618 3.525 2.37089 3.36795 2.37089 3.17559C2.37089 3.11029 2.38854 3.05029 2.42031 2.99912C2.48383 3.21442 2.62324 3.39618 2.8103 3.51265ZM5.70089 2.83323C5.86677 2.86148 5.99384 3.00442 5.99384 3.17559C5.99384 3.195 5.9903 3.21265 5.98677 3.23029C5.83677 3.15088 5.72913 3.00617 5.70089 2.83323ZM5.75559 3.50382C5.72031 3.51617 5.68148 3.525 5.64266 3.525C5.4503 3.525 5.29324 3.36795 5.29324 3.17559C5.29324 3.09441 5.32148 3.02206 5.36912 2.96205C5.42384 3.18794 5.56501 3.38206 5.75559 3.50382ZM8.6603 2.8297C8.84383 2.84029 8.98854 2.9903 8.98854 3.17559C8.98854 3.20206 8.98677 3.225 8.98148 3.2497C8.81207 3.17559 8.68854 3.01676 8.6603 2.8297ZM8.72913 3.51265C8.69913 3.51971 8.66913 3.525 8.63913 3.525C8.44501 3.525 8.28972 3.36795 8.28972 3.17559C8.28972 3.11029 8.30736 3.05029 8.33913 2.99912C8.40265 3.21442 8.54207 3.39618 8.72913 3.51265Z" fill="#2563EB"/>
<path d="M5.99948 5.16772C4.44622 5.16772 3.1825 6.43111 3.1825 7.98384C3.1825 9.53658 4.44622 10.7998 5.99948 10.7998C7.5523 10.7998 8.81559 9.53658 8.81559 7.98384C8.81559 6.43111 7.5523 5.16772 5.99948 5.16772ZM5.99948 10.4468C4.64079 10.4468 3.53544 9.34201 3.53544 7.98384C3.53544 6.62568 4.64079 5.52067 5.99948 5.52067C7.35764 5.52067 8.46265 6.62568 8.46265 7.98384C8.46265 9.34201 7.35764 10.4468 5.99948 10.4468Z" fill="#2563EB"/>
<path d="M5.99854 7.26623C6.14821 7.26623 6.27005 7.38755 6.27005 7.53679C6.27005 7.63433 6.34907 7.71326 6.44652 7.71326C6.54398 7.71326 6.62299 7.63433 6.62299 7.53679C6.62299 7.2546 6.43306 7.01834 6.17501 6.94174V6.7961C6.17501 6.69856 6.09599 6.61963 5.99854 6.61963C5.90108 6.61963 5.82207 6.69856 5.82207 6.7961V6.94183C5.56454 7.01851 5.37503 7.25469 5.37503 7.53679C5.37503 7.8806 5.65473 8.1603 5.99854 8.1603C6.14821 8.1603 6.27005 8.28162 6.27005 8.43069C6.27005 8.57993 6.14821 8.70126 5.99854 8.70126C5.84938 8.70126 5.72797 8.57993 5.72797 8.43069C5.72797 8.33315 5.64896 8.25422 5.5515 8.25422C5.45405 8.25422 5.37503 8.33315 5.37503 8.43069C5.37503 8.71279 5.56454 8.94898 5.82207 9.02566V9.17139C5.82207 9.26893 5.90108 9.34786 5.99854 9.34786C6.09599 9.34786 6.17501 9.26893 6.17501 9.17139V9.02574C6.43306 8.94915 6.62299 8.71289 6.62299 8.43069C6.62299 8.08706 6.34286 7.80736 5.99854 7.80736C5.84938 7.80736 5.72797 7.68604 5.72797 7.53679C5.72797 7.38755 5.84938 7.26623 5.99854 7.26623Z" fill="#2563EB"/>
<path d="M6.98273 7.98378C6.98273 8.30294 7.24244 8.56248 7.5616 8.56248C7.88076 8.56248 8.14038 8.30294 8.14038 7.98378C8.14038 7.66462 7.88076 7.40491 7.5616 7.40491C7.24244 7.40491 6.98273 7.66462 6.98273 7.98378ZM7.78744 7.98378C7.78744 8.1082 7.68611 8.20954 7.5616 8.20954C7.437 8.20954 7.33567 8.1082 7.33567 7.98378C7.33567 7.85918 7.437 7.75785 7.5616 7.75785C7.68611 7.75785 7.78744 7.85918 7.78744 7.98378Z" fill="#2563EB"/>
<path d="M4.43649 7.40491C4.11733 7.40491 3.85762 7.66462 3.85762 7.98378C3.85762 8.30294 4.11733 8.56248 4.43649 8.56248C4.75566 8.56248 5.01536 8.30294 5.01536 7.98378C5.01536 7.66462 4.75566 7.40491 4.43649 7.40491ZM4.43649 8.20954C4.31189 8.20954 4.21056 8.1082 4.21056 7.98378C4.21056 7.85918 4.31189 7.75785 4.43649 7.75785C4.56109 7.75785 4.66242 7.85918 4.66242 7.98378C4.66242 8.1082 4.56109 8.20954 4.43649 8.20954Z" fill="#2563EB"/>
</g>
<defs>
<clipPath id="clip0_413_7027">
<rect width="12" height="12" fill="white"/>
</clipPath>
</defs>
</svg>
