<svg width="16" height="16" viewBox="0 0 16 16" fill="none" xmlns="http://www.w3.org/2000/svg">
<path d="M15.2256 9.8125L13.8231 4.4375C13.7539 4.16933 13.5975 3.93176 13.3787 3.76207C13.1598 3.59239 12.8907 3.50021 12.6138 3.5H8.75V2.5C8.75 2.16848 8.6183 1.85054 8.38388 1.61612C8.14946 1.3817 7.83152 1.25 7.5 1.25H5C4.66848 1.25 4.35054 1.3817 4.11612 1.61612C3.8817 1.85054 3.75 2.16848 3.75 2.5V3.5H3.38625C3.10929 3.50021 2.84024 3.59239 2.62135 3.76207C2.40246 3.93176 2.24612 4.16933 2.17688 4.4375L0.774375 9.8125C0.758333 9.87371 0.750142 9.93672 0.75 10V12C0.75 12.3315 0.881696 12.6495 1.11612 12.8839C1.35054 13.1183 1.66848 13.25 2 13.25H14C14.3315 13.25 14.6495 13.1183 14.8839 12.8839C15.1183 12.6495 15.25 12.3315 15.25 12V10C15.2499 9.93672 15.2417 9.87371 15.2256 9.8125ZM5.25 2.75H7.25V3.5H5.25V2.75ZM3.57938 5H12.4206L13.5294 9.25H2.47062L3.57938 5ZM2.25 11.75V10.75H13.75V11.75H2.25ZM4 7.25C4 7.05109 4.07902 6.86032 4.21967 6.71967C4.36032 6.57902 4.55109 6.5 4.75 6.5H5.25C5.44891 6.5 5.63968 6.57902 5.78033 6.71967C5.92098 6.86032 6 7.05109 6 7.25C6 7.44891 5.92098 7.63968 5.78033 7.78033C5.63968 7.92098 5.44891 8 5.25 8H4.75C4.55109 8 4.36032 7.92098 4.21967 7.78033C4.07902 7.63968 4 7.44891 4 7.25ZM7 7.25C7 7.05109 7.07902 6.86032 7.21967 6.71967C7.36032 6.57902 7.55109 6.5 7.75 6.5H8.25C8.44891 6.5 8.63968 6.57902 8.78033 6.71967C8.92098 6.86032 9 7.05109 9 7.25C9 7.44891 8.92098 7.63968 8.78033 7.78033C8.63968 7.92098 8.44891 8 8.25 8H7.75C7.55109 8 7.36032 7.92098 7.21967 7.78033C7.07902 7.63968 7 7.44891 7 7.25ZM10 7.25C10 7.05109 10.079 6.86032 10.2197 6.71967C10.3603 6.57902 10.5511 6.5 10.75 6.5H11.25C11.4489 6.5 11.6397 6.57902 11.7803 6.71967C11.921 6.86032 12 7.05109 12 7.25C12 7.44891 11.921 7.63968 11.7803 7.78033C11.6397 7.92098 11.4489 8 11.25 8H10.75C10.5511 8 10.3603 7.92098 10.2197 7.78033C10.079 7.63968 10 7.44891 10 7.25Z" fill="black"/>
</svg>
