<svg width="12" height="12" viewBox="0 0 12 12" fill="none" xmlns="http://www.w3.org/2000/svg">
<g clip-path="url(#clip0_413_6877)">
<path d="M11.625 1.3125H10.6875V0.9375C10.6875 0.738588 10.6085 0.547822 10.4678 0.40717C10.3272 0.266518 10.1364 0.1875 9.9375 0.1875C9.73859 0.1875 9.54782 0.266518 9.40717 0.40717C9.26652 0.547822 9.1875 0.738588 9.1875 0.9375V1.3125H8.0625V0.9375C8.0625 0.738588 7.98348 0.547822 7.84283 0.40717C7.70218 0.266518 7.51141 0.1875 7.3125 0.1875C7.11359 0.1875 6.92282 0.266518 6.78217 0.40717C6.64152 0.547822 6.5625 0.738588 6.5625 0.9375V1.3125H5.4375V0.9375C5.4375 0.738588 5.35848 0.547822 5.21783 0.40717C5.07718 0.266518 4.88641 0.1875 4.6875 0.1875C4.48859 0.1875 4.29782 0.266518 4.15717 0.40717C4.01652 0.547822 3.9375 0.738588 3.9375 0.9375V1.3125H2.8125V0.9375C2.8125 0.738588 2.73348 0.547822 2.59283 0.40717C2.45218 0.266518 2.26141 0.1875 2.0625 0.1875C1.86359 0.1875 1.67282 0.266518 1.53217 0.40717C1.39152 0.547822 1.3125 0.738588 1.3125 0.9375V1.3125H0.375C0.325272 1.3125 0.277581 1.33225 0.242417 1.36742C0.207254 1.40258 0.1875 1.45027 0.1875 1.5V11.625C0.1875 11.6747 0.207254 11.7224 0.242417 11.7576C0.277581 11.7927 0.325272 11.8125 0.375 11.8125H11.625C11.6747 11.8125 11.7224 11.7927 11.7576 11.7576C11.7927 11.7224 11.8125 11.6747 11.8125 11.625V1.5C11.8125 1.45027 11.7927 1.40258 11.7576 1.36742C11.7224 1.33225 11.6747 1.3125 11.625 1.3125ZM9.5625 0.9375C9.5625 0.838044 9.60201 0.742661 9.67233 0.672335C9.74266 0.602009 9.83804 0.5625 9.9375 0.5625C10.037 0.5625 10.1323 0.602009 10.2027 0.672335C10.273 0.742661 10.3125 0.838044 10.3125 0.9375V2.0625C10.3125 2.16196 10.273 2.25734 10.2027 2.32766C10.1323 2.39799 10.037 2.4375 9.9375 2.4375C9.83804 2.4375 9.74266 2.39799 9.67233 2.32766C9.60201 2.25734 9.5625 2.16196 9.5625 2.0625V0.9375ZM6.9375 0.9375C6.9375 0.838044 6.97701 0.742661 7.04733 0.672335C7.11766 0.602009 7.21304 0.5625 7.3125 0.5625C7.41196 0.5625 7.50734 0.602009 7.57767 0.672335C7.64799 0.742661 7.6875 0.838044 7.6875 0.9375V2.0625C7.6875 2.16196 7.64799 2.25734 7.57767 2.32766C7.50734 2.39799 7.41196 2.4375 7.3125 2.4375C7.21304 2.4375 7.11766 2.39799 7.04733 2.32766C6.97701 2.25734 6.9375 2.16196 6.9375 2.0625V0.9375ZM4.3125 0.9375C4.3125 0.838044 4.35201 0.742661 4.42234 0.672335C4.49266 0.602009 4.58804 0.5625 4.6875 0.5625C4.78696 0.5625 4.88234 0.602009 4.95266 0.672335C5.02299 0.742661 5.0625 0.838044 5.0625 0.9375V2.0625C5.0625 2.16196 5.02299 2.25734 4.95266 2.32766C4.88234 2.39799 4.78696 2.4375 4.6875 2.4375C4.58804 2.4375 4.49266 2.39799 4.42234 2.32766C4.35201 2.25734 4.3125 2.16196 4.3125 2.0625V0.9375ZM1.6875 0.9375C1.6875 0.838044 1.72701 0.742661 1.79734 0.672335C1.86766 0.602009 1.96304 0.5625 2.0625 0.5625C2.16196 0.5625 2.25734 0.602009 2.32766 0.672335C2.39799 0.742661 2.4375 0.838044 2.4375 0.9375V2.0625C2.4375 2.16196 2.39799 2.25734 2.32766 2.32766C2.25734 2.39799 2.16196 2.4375 2.0625 2.4375C1.96304 2.4375 1.86766 2.39799 1.79734 2.32766C1.72701 2.25734 1.6875 2.16196 1.6875 2.0625V0.9375ZM1.3125 1.6875V2.0625C1.3125 2.26141 1.39152 2.45218 1.53217 2.59283C1.67282 2.73348 1.86359 2.8125 2.0625 2.8125C2.26141 2.8125 2.45218 2.73348 2.59283 2.59283C2.73348 2.45218 2.8125 2.26141 2.8125 2.0625V1.6875H3.9375V2.0625C3.9375 2.26141 4.01652 2.45218 4.15717 2.59283C4.29782 2.73348 4.48859 2.8125 4.6875 2.8125C4.88641 2.8125 5.07718 2.73348 5.21783 2.59283C5.35848 2.45218 5.4375 2.26141 5.4375 2.0625V1.6875H6.5625V2.0625C6.5625 2.26141 6.64152 2.45218 6.78217 2.59283C6.92282 2.73348 7.11359 2.8125 7.3125 2.8125C7.51141 2.8125 7.70218 2.73348 7.84283 2.59283C7.98348 2.45218 8.0625 2.26141 8.0625 2.0625V1.6875H9.1875V2.0625C9.1875 2.26141 9.26652 2.45218 9.40717 2.59283C9.54782 2.73348 9.73859 2.8125 9.9375 2.8125C10.1364 2.8125 10.3272 2.73348 10.4678 2.59283C10.6085 2.45218 10.6875 2.26141 10.6875 2.0625V1.6875H11.4375V3.1875H0.5625V1.6875H1.3125ZM0.5625 3.5625H11.4375V9.375H9.5625C9.51277 9.375 9.46508 9.39475 9.42992 9.42992C9.39475 9.46508 9.375 9.51277 9.375 9.5625V11.4375H0.5625V3.5625ZM11.1724 9.75L9.75 11.1724V9.75H11.1724ZM10.0151 11.4375L11.4375 10.0151V11.4375H10.0151Z" fill="#2563EB"/>
<path d="M8.23293 6.91595C8.24408 6.86133 8.24979 6.80575 8.24999 6.75001C8.24989 6.56675 8.19591 6.38756 8.09477 6.23474C7.99362 6.08192 7.84977 5.96221 7.68112 5.89051C7.6597 5.70398 7.58259 5.52823 7.45984 5.38616C7.33709 5.24409 7.17439 5.14229 6.99295 5.09403C6.8115 5.04576 6.61973 5.05327 6.44261 5.11558C6.2655 5.17788 6.11126 5.29209 5.99999 5.44332C5.88873 5.29209 5.73449 5.17788 5.55737 5.11558C5.38026 5.05327 5.18848 5.04576 5.00704 5.09403C4.82559 5.14229 4.6629 5.24409 4.54015 5.38616C4.4174 5.52823 4.34029 5.70398 4.31887 5.89051C4.15022 5.96221 4.00637 6.08192 3.90522 6.23474C3.80407 6.38756 3.75009 6.56675 3.74999 6.75001C3.75019 6.80575 3.75591 6.86133 3.76706 6.91595C3.63461 7.08181 3.56247 7.28776 3.56247 7.50001C3.56247 7.71226 3.63461 7.91821 3.76706 8.08407C3.75591 8.13869 3.75019 8.19427 3.74999 8.25001C3.75009 8.43327 3.80407 8.61246 3.90522 8.76528C4.00637 8.9181 4.15022 9.03781 4.31887 9.10951C4.34029 9.29604 4.4174 9.47179 4.54015 9.61386C4.6629 9.75593 4.82559 9.85773 5.00704 9.90599C5.18848 9.95426 5.38026 9.94675 5.55737 9.88445C5.73449 9.82214 5.88873 9.70793 5.99999 9.5567C6.11126 9.70793 6.2655 9.82214 6.44261 9.88445C6.61973 9.94675 6.8115 9.95426 6.99295 9.90599C7.17439 9.85773 7.33709 9.75593 7.45984 9.61386C7.58259 9.47179 7.6597 9.29604 7.68112 9.10951C7.84977 9.03781 7.99362 8.9181 8.09477 8.76528C8.19591 8.61246 8.24989 8.43327 8.24999 8.25001C8.24979 8.19427 8.24408 8.13869 8.23293 8.08407C8.36538 7.91821 8.43752 7.71226 8.43752 7.50001C8.43752 7.28776 8.36538 7.08181 8.23293 6.91595ZM5.24999 9.56251C5.10302 9.56255 4.96188 9.50507 4.85675 9.40236C4.75163 9.29965 4.69087 9.15988 4.68749 9.01295C4.68749 9.00601 4.69031 8.98745 4.69049 8.98051C4.69182 8.93788 4.67857 8.89607 4.65294 8.86198C4.62731 8.8279 4.59082 8.80357 4.54949 8.79301C4.42842 8.76261 4.32094 8.6927 4.24406 8.59436C4.16718 8.49601 4.12528 8.37484 4.12499 8.25001C4.12603 8.19487 4.13532 8.1402 4.15256 8.08782C4.16241 8.05519 4.16318 8.02049 4.15479 7.98746C4.1464 7.95442 4.12916 7.9243 4.10493 7.90032C4.0519 7.84809 4.00979 7.78583 3.98105 7.71717C3.9523 7.64851 3.9375 7.57482 3.9375 7.50039C3.9375 7.42595 3.9523 7.35226 3.98105 7.2836C4.00979 7.21494 4.0519 7.15268 4.10493 7.10045C4.12916 7.07648 4.1464 7.04635 4.15479 7.01331C4.16318 6.98028 4.16241 6.94558 4.15256 6.91295C4.13524 6.86033 4.12595 6.8054 4.12499 6.75001C4.12508 6.62513 4.16682 6.50384 4.24361 6.40535C4.3204 6.30686 4.42784 6.2368 4.54893 6.20626C4.59025 6.1957 4.62674 6.17137 4.65238 6.13729C4.67801 6.1032 4.69126 6.06139 4.68993 6.01876C4.68999 6.01243 4.68917 6.00612 4.68749 6.00001C4.68749 5.85083 4.74676 5.70775 4.85225 5.60226C4.95773 5.49677 5.10081 5.43751 5.24999 5.43751C5.39918 5.43751 5.54225 5.49677 5.64774 5.60226C5.75323 5.70775 5.81249 5.85083 5.81249 6.00001V6.55032C5.57866 6.51763 5.36187 6.40954 5.19506 6.24245L4.92993 6.50757C5.16685 6.74545 5.47857 6.89432 5.81249 6.92907V7.31251H5.06249V7.68751H5.81249V8.07095C5.47857 8.1057 5.16685 8.25457 4.92993 8.49245L5.19506 8.75757C5.36187 8.59048 5.57866 8.48239 5.81249 8.4497V9.00001C5.81249 9.14919 5.75323 9.29227 5.64774 9.39776C5.54225 9.50325 5.39918 9.56251 5.24999 9.56251ZM7.89505 7.89995C7.87082 7.92392 7.85359 7.95405 7.84519 7.98708C7.8368 8.02012 7.83758 8.05482 7.84743 8.08745C7.8647 8.13995 7.874 8.19475 7.87499 8.25001C7.8749 8.37489 7.83316 8.49618 7.75638 8.59467C7.67959 8.69316 7.57215 8.76322 7.45105 8.79376C7.40973 8.80432 7.37324 8.82865 7.34761 8.86273C7.32197 8.89682 7.30873 8.93863 7.31006 8.98126C7.31006 8.99214 7.31006 9.00207 7.31249 9.00001C7.31249 9.14919 7.25323 9.29227 7.14774 9.39776C7.04225 9.50325 6.89918 9.56251 6.74999 9.56251C6.60081 9.56251 6.45773 9.50325 6.35225 9.39776C6.24676 9.29227 6.18749 9.14919 6.18749 9.00001V8.4497C6.42133 8.48239 6.63811 8.59048 6.80493 8.75757L7.07006 8.49245C6.83314 8.25457 6.52142 8.1057 6.18749 8.07095V7.68751H6.93749V7.31251H6.18749V6.92907C6.52142 6.89432 6.83314 6.74545 7.07006 6.50757L6.80493 6.24245C6.63811 6.40954 6.42133 6.51763 6.18749 6.55032V6.00001C6.18578 5.85083 6.2434 5.70707 6.34767 5.60037C6.45195 5.49367 6.59434 5.43276 6.74352 5.43104C6.89271 5.42933 7.03646 5.48694 7.14317 5.59122C7.24987 5.6955 7.31078 5.83789 7.31249 5.98707C7.31156 5.99401 7.30968 6.01257 7.30949 6.01951C7.30817 6.06214 7.32141 6.10395 7.34705 6.13804C7.37268 6.17212 7.40917 6.19645 7.45049 6.20701C7.57156 6.23742 7.67904 6.30732 7.75592 6.40566C7.83281 6.50401 7.87471 6.62518 7.87499 6.75001C7.87396 6.80515 7.86467 6.85982 7.84743 6.9122C7.83758 6.94483 7.8368 6.97953 7.84519 7.01256C7.85359 7.0456 7.87082 7.07573 7.89505 7.0997C7.94808 7.15193 7.9902 7.21419 8.01894 7.28285C8.04768 7.35151 8.06249 7.4252 8.06249 7.49964C8.06249 7.57407 8.04768 7.64776 8.01894 7.71642C7.9902 7.78508 7.94808 7.84734 7.89505 7.89957V7.89995Z" fill="#2563EB"/>
<path d="M4.6875 7.3125H4.3125V7.6875H4.6875V7.3125Z" fill="#2563EB"/>
<path d="M7.6875 7.3125H7.3125V7.6875H7.6875V7.3125Z" fill="#2563EB"/>
<path d="M9.5625 7.5C9.5625 6.79541 9.35356 6.10663 8.96211 5.52078C8.57066 4.93493 8.01427 4.47832 7.36331 4.20868C6.71235 3.93904 5.99605 3.86849 5.30499 4.00595C4.61393 4.14341 3.97916 4.48271 3.48093 4.98093C2.98271 5.47916 2.64341 6.11394 2.50595 6.80499C2.36849 7.49605 2.43904 8.21235 2.70868 8.86331C2.97832 9.51427 3.43493 10.0707 4.02078 10.4621C4.60663 10.8536 5.29541 11.0625 6 11.0625C6.94452 11.0615 7.85005 10.6858 8.51792 10.0179C9.18579 9.35005 9.56146 8.44452 9.5625 7.5ZM6 10.6875C5.36957 10.6875 4.7533 10.5006 4.22912 10.1503C3.70494 9.80006 3.29639 9.30224 3.05514 8.71981C2.81388 8.13737 2.75076 7.49647 2.87375 6.87815C2.99674 6.25984 3.30032 5.69188 3.7461 5.2461C4.19188 4.80032 4.75984 4.49674 5.37815 4.37375C5.99647 4.25076 6.63737 4.31388 7.21981 4.55514C7.80224 4.79639 8.30006 5.20494 8.65031 5.72912C9.00056 6.2533 9.1875 6.86957 9.1875 7.5C9.18656 8.34509 8.85043 9.1553 8.25286 9.75286C7.6553 10.3504 6.84509 10.6866 6 10.6875Z" fill="#2563EB"/>
</g>
<defs>
<clipPath id="clip0_413_6877">
<rect width="12" height="12" fill="white"/>
</clipPath>
</defs>
</svg>
