<svg width="16" height="16" viewBox="0 0 16 16" fill="none" xmlns="http://www.w3.org/2000/svg">
<path d="M9.72363 7.55273L9 7.19092V1.5C9 1.22363 8.77637 1 8.5 1H6.5C6.22363 1 6 1.22363 6 1.5V2.5H4.5C4.22363 2.5 4 2.72363 4 3V4H2.5C2.22363 4 2 4.22363 2 4.5V7.19092L1.27637 7.55273C1.10693 7.6377 1 7.81055 1 8V12.5C1 12.6895 1.10693 12.8623 1.27637 12.9473L5.27637 14.9473C5.34668 14.9824 5.42334 15 5.5 15C5.57666 15 5.65332 14.9824 5.72363 14.9473L9.72363 12.9473C9.89307 12.8623 10 12.6895 10 12.5V8C10 7.81055 9.89307 7.6377 9.72363 7.55273ZM5.5 9.44092L2.61816 8L5.5 6.55908L8.38184 8L5.5 9.44092ZM8 2V6.69092L7 6.19092V2H8ZM6 3.5V5.69092L5.72363 5.55273C5.58301 5.48242 5.41699 5.48242 5.27637 5.55273L5 5.69092V3.5H6ZM3 5H4V6.19092L3 6.69092V5ZM2 8.80908L5 10.3091V13.6909L2 12.1909V8.80908ZM6 13.6909V10.3091L9 8.80908V12.1909L6 13.6909Z" fill="black"/>
<path d="M14.5 10H12.207L12.3535 9.85352C12.5488 9.6582 12.5488 9.3418 12.3535 9.14648C12.1582 8.95117 11.8418 8.95117 11.6465 9.14648L10.6465 10.1465C10.4512 10.3418 10.4512 10.6582 10.6465 10.8535L11.6465 11.8535C11.7441 11.9512 11.8721 12 12 12C12.1279 12 12.2559 11.9512 12.3535 11.8535C12.5488 11.6582 12.5488 11.3418 12.3535 11.1465L12.207 11H14.5C14.7764 11 15 10.7764 15 10.5C15 10.2236 14.7764 10 14.5 10Z" fill="black"/>
<path d="M12 6.5C11.7241 6.5 11.5 6.27588 11.5 6C11.5 5.72363 11.2764 5.5 11 5.5C10.7236 5.5 10.5 5.72363 10.5 6C10.5 6.65097 10.9193 7.20078 11.5 7.40784V7.5C11.5 7.77637 11.7236 8 12 8C12.2764 8 12.5 7.77637 12.5 7.5V7.40787C13.0807 7.20081 13.5 6.65097 13.5 6C13.5 5.17285 12.8271 4.5 12 4.5C11.7241 4.5 11.5 4.27588 11.5 4C11.5 3.72412 11.7241 3.5 12 3.5C12.2759 3.5 12.5 3.72412 12.5 4C12.5 4.27637 12.7236 4.5 13 4.5C13.2764 4.5 13.5 4.27637 13.5 4C13.5 3.34903 13.0807 2.79919 12.5 2.59213V2.5C12.5 2.22363 12.2764 2 12 2C11.7236 2 11.5 2.22363 11.5 2.5V2.59213C10.9193 2.79919 10.5 3.34903 10.5 4C10.5 4.82715 11.1729 5.5 12 5.5C12.2759 5.5 12.5 5.72412 12.5 6C12.5 6.27588 12.2759 6.5 12 6.5Z" fill="black"/>
</svg>
