<svg width="16" height="16" viewBox="0 0 16 16" fill="none" xmlns="http://www.w3.org/2000/svg">
<path d="M13.5473 3.10562L12.3765 3.88483V3.52972H11.0142L7.93219 7.84921L4.68188 4.91293H2.27441V4.0639H5.00909L7.79492 6.57996L10.5769 2.68069H12.3765V2.32556L13.5473 3.10562Z" fill="#231F20"/>
<path d="M12.4168 12.6603V13.6744H10.6149V12.6603C10.894 12.772 11.198 12.8331 11.5159 12.8331C11.8337 12.8331 12.1377 12.772 12.4168 12.6603Z" fill="#231F20"/>
<path d="M12.4168 6.25201V8.12134C12.1377 8.0105 11.8337 7.94843 11.5159 7.94843C11.198 7.94843 10.894 8.0105 10.6149 8.12134V6.25201H12.4168Z" fill="#231F20"/>
<path d="M12.3424 9.86203C12.3424 10.1412 12.0501 10.3676 11.6895 10.3676H10.8444V9.35645H11.1864V9.62164H11.419V9.35645H11.5236V9.62164H11.7562V9.35883C12.085 9.38525 12.3424 9.60074 12.3424 9.86203Z" fill="#231F20"/>
<path d="M11.5236 11.2639V11.6244H11.419V11.2639H11.1864V11.6244H10.8444V10.6002H11.6895V10.6126C12.0501 10.6126 12.3424 10.8398 12.3424 11.1181C12.3424 11.3802 12.085 11.5958 11.7562 11.6213V11.2639H11.5236Z" fill="#231F20"/>
<path d="M11.419 8.85791H11.1864V9.12384H10.6118V10.4963V10.6002V11.857H11.1864V12.0276H11.419V11.857H11.5237V12.0276H11.7563V11.8539C12.2137 11.8252 12.575 11.5065 12.575 11.1181C12.575 10.853 12.406 10.6204 12.1532 10.4901C12.406 10.3598 12.575 10.128 12.575 9.86203C12.575 9.47351 12.2137 9.15491 11.7563 9.12622V8.85791H11.5237V9.12384H11.419V8.85791ZM13.0775 8.82932C13.4776 9.22934 13.7257 9.78137 13.7257 10.3908C13.7257 11.6097 12.734 12.6005 11.5159 12.6005C10.5638 12.6005 9.75043 11.9958 9.44028 11.1499C9.35345 10.9134 9.30615 10.6575 9.30615 10.3908C9.30615 9.17279 10.297 8.18103 11.5159 8.18103C12.1253 8.18103 12.6774 8.4292 13.0775 8.82932Z" fill="#231F20"/>
<path d="M6.51099 9.19366H8.31292V13.6744H6.51099V9.19366Z" fill="#231F20"/>
<path d="M2.47595 6.252H4.27792V13.6744H2.47595V6.252Z" fill="#231F20"/>
</svg>
