<svg width="16" height="16" viewBox="0 0 16 16" fill="none" xmlns="http://www.w3.org/2000/svg">
<g clip-path="url(#clip0_27_152)">
<path fill-rule="evenodd" clip-rule="evenodd" d="M1.66667 8C1.66667 6.3203 2.33393 4.70939 3.52166 3.52166C4.70939 2.33393 6.3203 1.66667 8 1.66667C9.29999 1.66623 10.5686 2.06584 11.6337 2.81126C12.6987 3.55667 13.5086 4.61178 13.9533 5.83333H15.7033C14.7587 2.468 11.6667 0 8 0C3.582 0 0 3.582 0 8C0 12.418 3.582 16 8 16C11.6673 16 14.7587 13.532 15.7033 10.1667H13.9533C13.5086 11.3882 12.6987 12.4433 11.6337 13.1887C10.5686 13.9342 9.29999 14.3338 8 14.3333C6.3203 14.3333 4.70939 13.6661 3.52166 12.4783C2.33393 11.2906 1.66667 9.6797 1.66667 8ZM9 7.16667H16V8.83333H9V11H8L5 8L8 5H9V7.16667Z" fill="black"/>
</g>
<defs>
<clipPath id="clip0_27_152">
<rect width="16" height="16" fill="white"/>
</clipPath>
</defs>
</svg>
