<svg width="16" height="16" viewBox="0 0 16 16" fill="none" xmlns="http://www.w3.org/2000/svg">
<path d="M11.1154 8.59999C11.2922 8.59999 11.4618 8.52975 11.5868 8.40473C11.7118 8.2797 11.782 8.11013 11.782 7.93332C11.782 7.75651 11.7118 7.58694 11.5868 7.46192C11.4618 7.33689 11.2922 7.26665 11.1154 7.26665H10.4614C10.4021 7.06402 10.3186 6.86928 10.2127 6.68665L10.698 6.20132C10.7617 6.13982 10.8125 6.06626 10.8474 5.98492C10.8824 5.90359 10.9008 5.81611 10.9015 5.72759C10.9023 5.63907 10.8854 5.55128 10.8519 5.46935C10.8184 5.38742 10.7689 5.31299 10.7063 5.25039C10.6437 5.1878 10.5693 5.13829 10.4873 5.10477C10.4054 5.07125 10.3176 5.05439 10.2291 5.05515C10.1406 5.05592 10.0531 5.07431 9.97178 5.10925C9.89044 5.14419 9.81688 5.19498 9.75538 5.25865L9.27005 5.74332C9.06673 5.62581 8.84856 5.53613 8.62138 5.47666V4.97532C8.62138 4.79851 8.55114 4.62894 8.42612 4.50392C8.30109 4.37889 8.13153 4.30865 7.95471 4.30865C7.7779 4.30865 7.60833 4.37889 7.48331 4.50392C7.35829 4.62894 7.28805 4.79851 7.28805 4.97532V5.47199C7.06057 5.53243 6.84235 5.62349 6.63938 5.74266L6.15405 5.25732C6.02831 5.13588 5.85991 5.06869 5.68511 5.07021C5.51031 5.07172 5.34311 5.14184 5.2195 5.26544C5.0959 5.38905 5.02578 5.55626 5.02426 5.73105C5.02275 5.90585 5.08994 6.07425 5.21138 6.19999L5.69671 6.68532C5.57921 6.88841 5.48952 7.10636 5.43005 7.33332H4.79405C4.61724 7.33332 4.44767 7.40356 4.32264 7.52858C4.19762 7.65361 4.12738 7.82318 4.12738 7.99999C4.12738 8.1768 4.19762 8.34637 4.32264 8.47139C4.44767 8.59642 4.61724 8.66666 4.79405 8.66666H5.42671C5.48619 8.89362 5.57588 9.11157 5.69338 9.31466L5.20805 9.79999C5.14437 9.86149 5.09359 9.93505 5.05865 10.0164C5.02371 10.0977 5.00532 10.1852 5.00455 10.2737C5.00378 10.3622 5.02065 10.45 5.05417 10.532C5.08769 10.6139 5.13719 10.6883 5.19978 10.7509C5.26238 10.8135 5.33681 10.863 5.41874 10.8965C5.50068 10.9301 5.58846 10.9469 5.67698 10.9462C5.7655 10.9454 5.85298 10.927 5.93432 10.8921C6.01565 10.8571 6.08922 10.8063 6.15071 10.7427L6.63605 10.2573C6.83902 10.3765 7.05724 10.4675 7.28471 10.528V11.0247C7.28471 11.2015 7.35495 11.371 7.47998 11.4961C7.605 11.6211 7.77457 11.6913 7.95138 11.6913C8.12819 11.6913 8.29776 11.6211 8.42278 11.4961C8.54781 11.371 8.61805 11.2015 8.61805 11.0247V10.528C8.84523 10.4685 9.06339 10.3788 9.26671 10.2613L9.75205 10.746C9.87749 10.8714 10.0476 10.9419 10.225 10.9419C10.4025 10.9419 10.5726 10.8714 10.698 10.746C10.8235 10.6205 10.894 10.4504 10.894 10.273C10.894 10.0956 10.8235 9.92544 10.698 9.79999L10.2127 9.31466C10.345 9.09192 10.443 8.85055 10.5034 8.59865L11.1154 8.59999ZM7.95471 9.29265C7.69934 9.29279 7.44966 9.2172 7.23725 9.07544C7.02483 8.93369 6.85921 8.73213 6.76133 8.49626C6.66345 8.26039 6.63771 8.0008 6.68735 7.75029C6.73699 7.49979 6.85979 7.26963 7.04023 7.08892C7.22067 6.9082 7.45063 6.78504 7.70106 6.73501C7.95148 6.68498 8.21112 6.71033 8.44714 6.80784C8.68316 6.90535 8.88497 7.07066 9.02706 7.28286C9.16914 7.49505 9.24512 7.74462 9.24538 7.99999C9.24503 8.34225 9.10896 8.6704 8.867 8.91247C8.62505 9.15455 8.29697 9.29079 7.95471 9.29132V9.29265Z" fill="black"/>
<path d="M13.6627 6.016C13.6353 5.93142 13.5913 5.85316 13.5333 5.78584C13.4752 5.71852 13.4043 5.66349 13.3247 5.62398C13.245 5.58448 13.1583 5.5613 13.0696 5.55581C12.9808 5.55033 12.8919 5.56264 12.808 5.59203C12.7241 5.62142 12.6469 5.66729 12.581 5.72694C12.5151 5.7866 12.4618 5.85883 12.4242 5.93939C12.3866 6.01996 12.3656 6.10722 12.3622 6.19605C12.3589 6.28489 12.3733 6.37349 12.4047 6.45666C12.7644 7.48283 12.7545 8.60241 12.3767 9.62204C11.9988 10.6417 11.2767 11.4974 10.3352 12.0413C9.39361 12.5852 8.29165 12.7833 7.2196 12.6013C6.14755 12.4193 5.17272 11.8686 4.46346 11.0443C3.7542 10.2201 3.35504 9.17404 3.33491 8.08683C3.31479 6.99962 3.67496 5.93952 4.35323 5.08959C5.0315 4.23967 5.98528 3.65328 7.04986 3.4317C8.11444 3.21013 9.22297 3.36727 10.184 3.876C10.3403 3.95874 10.5231 3.97601 10.6921 3.924C10.8612 3.87199 11.0026 3.75496 11.0854 3.59866C11.1681 3.44236 11.1854 3.25959 11.1334 3.09056C11.0814 2.92153 10.9643 2.78008 10.808 2.69733C9.5725 2.04306 8.14729 1.84078 6.7785 2.12543C5.40972 2.41008 4.18331 3.16379 3.31106 4.25639C2.43882 5.349 1.9755 6.7119 2.00113 8.10973C2.02676 9.50757 2.53972 10.8526 3.45143 11.9125C4.36314 12.9724 5.61635 13.6806 6.99465 13.9149C8.37295 14.1492 9.78979 13.8948 11.0005 13.1957C12.2112 12.4966 13.1398 11.3966 13.6258 10.0857C14.1119 8.77488 14.1249 7.33544 13.6627 6.016Z" fill="black"/>
<path d="M12.0007 5.23133C12.3689 5.23133 12.6674 4.93285 12.6674 4.56466C12.6674 4.19647 12.3689 3.89799 12.0007 3.89799C11.6325 3.89799 11.334 4.19647 11.334 4.56466C11.334 4.93285 11.6325 5.23133 12.0007 5.23133Z" fill="black"/>
</svg>
