<svg width="16" height="16" viewBox="0 0 16 16" fill="none" xmlns="http://www.w3.org/2000/svg">
<path d="M11.3781 10.3437L11.3813 9.95937C11.3813 9.8375 11.5156 9.76562 11.6188 9.82812L13.3 10.8781C13.3969 10.9375 13.3969 11.0781 13.3031 11.1406L11.6594 12.25C11.5594 12.3187 11.4094 12.25 11.4156 12.1094L11.4188 11.7062H9.9219L9.92502 12.1219C9.92502 12.2469 9.7844 12.3219 9.68127 12.2531L8.03752 11.1437C7.94377 11.0812 7.94377 10.9406 8.0469 10.8781L9.7219 9.83437C9.8219 9.77187 9.96565 9.8375 9.9594 9.97812L9.96252 10.3531H11.3781V10.3437ZM11.6875 10.2406V10.5C11.6875 10.5875 11.6188 10.6562 11.5313 10.6562H9.80627C9.7219 10.6562 9.65002 10.5875 9.65002 10.5L9.6469 10.2375L8.40627 11.0094L9.60627 11.8187L9.60315 11.5406C9.60315 11.4531 9.6719 11.3844 9.7594 11.3844H11.5719C11.6563 11.3844 11.7281 11.4531 11.7281 11.5406V11.8187L12.9281 11.0094L11.6875 10.2406ZM10.6688 7.67812C10.8563 7.67812 11.0375 7.69375 11.2156 7.72187V5.14375H10.3281V7.69687C10.4406 7.68437 10.5531 7.67812 10.6688 7.67812ZM7.47815 12.0937C7.3844 11.8062 7.32815 11.5031 7.31252 11.1906H2.21252V12.0937H7.47815ZM8.0094 8.98437C8.25627 8.66562 8.55627 8.39375 8.8969 8.18125V6.68125H8.0094V8.98437ZM12.825 8.88437C11.6344 7.69375 9.70315 7.69375 8.51252 8.88437C7.32815 10.0687 7.31565 12 8.51252 13.1969C9.70315 14.3875 11.6344 14.3875 12.825 13.1969C14.0156 12.0062 14.0156 10.075 12.825 8.88437ZM3.40627 7.34062L4.3719 6.33125C4.75002 5.9375 5.23127 5.73437 5.7719 5.71875H5.7844L6.91877 5.74062C7.15002 5.73125 7.3719 5.6875 7.5719 5.59687C7.76565 5.5125 7.94065 5.3875 8.10002 5.22187L9.73127 3.5C9.79065 3.4375 9.88752 3.43437 9.95315 3.49375L10.2281 3.77187L10.6344 1.94375L8.80002 2.31875L9.0719 2.59375C9.13127 2.65625 9.13127 2.75 9.06877 2.81562L7.85315 4.13125C7.48127 4.53437 6.99065 4.75625 6.44377 4.74687L5.30002 4.725C4.84065 4.71562 4.44377 4.91562 4.1219 5.24375L2.74377 6.65937L3.40627 7.34062ZM4.2594 8.78437H3.3719V10.8781H4.2594V8.78437ZM6.57815 7.5875H5.69065V10.8781H6.57815V7.5875Z" fill="black"/>
</svg>
