<svg width="16" height="16" viewBox="0 0 16 16" fill="none" xmlns="http://www.w3.org/2000/svg">
<path d="M2.37012 14.6763H14.3076C14.4802 14.6763 14.6201 14.5364 14.6201 14.3638C14.6201 14.1913 14.4802 14.0513 14.3076 14.0513H13.6201V6.23885C13.6201 6.06626 13.4802 5.92635 13.3076 5.92635H11.7451C11.5725 5.92635 11.4326 6.06626 11.4326 6.23885V14.0513H10.4951V7.36385C10.4951 7.19126 10.3552 7.05135 10.1826 7.05135H8.62012C8.44753 7.05135 8.30762 7.19126 8.30762 7.36385V14.0513H7.37012V8.52008C7.37012 8.3475 7.23021 8.20758 7.05762 8.20758H5.49512C5.32253 8.20758 5.18262 8.3475 5.18262 8.52008V14.0513H4.24512V9.67633C4.24512 9.50375 4.10521 9.36383 3.93262 9.36383H2.37012C2.19753 9.36383 2.05762 9.50375 2.05762 9.67633V14.0513H1.43262C1.26003 14.0513 1.12012 14.1913 1.12012 14.3638C1.12012 14.5364 1.26003 14.6763 1.43262 14.6763H2.37012ZM2.68262 9.98883H3.62012V14.0513H2.68262V9.98883ZM5.80762 8.83258H6.74512V14.0201H5.80762V8.83258ZM8.93262 7.67635H9.87012V14.0513H8.93262V10.8638V7.67635ZM12.0576 6.55135H12.9951V14.0513H12.0576V6.55135Z" fill="black"/>
<path d="M4.65137 8.23883C6.59851 8.23883 8.18262 6.65474 8.18262 4.7076C8.18262 2.76045 6.59851 1.17635 4.65137 1.17635C2.70422 1.17635 1.12012 2.76045 1.12012 4.7076C1.12012 6.65474 2.70422 8.23883 4.65137 8.23883ZM4.33887 1.81819V2.30135C4.33887 2.47394 4.47878 2.61385 4.65137 2.61385C4.82396 2.61385 4.96387 2.47394 4.96387 2.30135V1.81819C6.31726 1.96355 7.39541 3.0417 7.54078 4.3951H7.05762C6.88503 4.3951 6.74512 4.53501 6.74512 4.7076C6.74512 4.88019 6.88503 5.0201 7.05762 5.0201H7.54078C7.39541 6.37349 6.31726 7.45165 4.96387 7.59701V7.11385C4.96387 6.94126 4.82396 6.80135 4.65137 6.80135C4.47878 6.80135 4.33887 6.94126 4.33887 7.11385V7.59701C2.98547 7.45165 1.90732 6.37349 1.76196 5.0201H2.24512C2.41771 5.0201 2.55762 4.88019 2.55762 4.7076C2.55762 4.53501 2.41771 4.3951 2.24512 4.3951H1.76196C1.90732 3.0417 2.98547 1.96355 4.33887 1.81819Z" fill="black"/>
<path d="M3.90137 5.3326H3.87012C3.69753 5.3326 3.55762 5.47251 3.55762 5.6451C3.55762 5.81769 3.69753 5.9576 3.87012 5.9576H4.40137V6.11385C4.40137 6.28644 4.54128 6.42635 4.71387 6.42635C4.88646 6.42635 5.02637 6.28644 5.02637 6.11385V5.9575C5.42303 5.95544 5.74512 5.6322 5.74512 5.23506V5.11763C5.74512 4.96544 5.6977 4.82418 5.61704 4.7076C5.6977 4.59101 5.74512 4.44975 5.74512 4.29756V4.18013C5.74512 3.78299 5.42303 3.45975 5.02637 3.45769V3.30135C5.02637 3.12876 4.88646 2.98885 4.71387 2.98885C4.54128 2.98885 4.40137 3.12876 4.40137 3.30135V3.4576H3.87012C3.69753 3.4576 3.55762 3.59751 3.55762 3.7701C3.55762 3.94269 3.69753 4.0826 3.87012 4.0826H3.90137V5.3326ZM5.12012 5.23506C5.12012 5.28885 5.07637 5.3326 5.02258 5.3326H4.52637V5.0201H5.02258C5.07637 5.0201 5.12012 5.06384 5.12012 5.11763V5.23506ZM5.12012 4.18013V4.29756C5.12012 4.35135 5.07637 4.3951 5.02258 4.3951H4.52637V4.0826H5.02258C5.07637 4.0826 5.12012 4.12634 5.12012 4.18013Z" fill="black"/>
</svg>
