<svg width="12" height="12" viewBox="0 0 12 12" fill="none" xmlns="http://www.w3.org/2000/svg">
<path d="M2.79999 2.55994C3.10875 2.55994 3.35999 2.3087 3.35999 1.99994C3.35999 1.69118 3.10875 1.43994 2.79999 1.43994C2.49123 1.43994 2.23999 1.69118 2.23999 1.99994C2.23999 2.3087 2.49123 2.55994 2.79999 2.55994ZM2.79999 1.75994C2.93235 1.75994 3.03999 1.86758 3.03999 1.99994C3.03999 2.1323 2.93235 2.23994 2.79999 2.23994C2.66763 2.23994 2.55999 2.1323 2.55999 1.99994C2.55999 1.86758 2.66763 1.75994 2.79999 1.75994Z" fill="#2563EB"/>
<path d="M4.23992 3.62119C4.33999 3.62119 4.42112 3.54006 4.42112 3.43999C4.42112 3.33992 4.33999 3.25879 4.23992 3.25879C4.13984 3.25879 4.05872 3.33992 4.05872 3.43999C4.05872 3.54006 4.13984 3.62119 4.23992 3.62119Z" fill="#2563EB"/>
<path d="M5.03294 4.48704C5.06418 4.51828 5.10514 4.53392 5.14606 4.53392C5.18698 4.53392 5.22794 4.51828 5.25918 4.48704L5.43998 4.30624L5.62078 4.48704C5.65202 4.51828 5.69298 4.53392 5.7339 4.53392C5.77482 4.53392 5.81578 4.51828 5.84702 4.48704C5.9095 4.42456 5.9095 4.32328 5.84702 4.2608L5.66622 4.08L5.84702 3.8992C5.9095 3.83672 5.9095 3.73544 5.84702 3.67296C5.78454 3.61048 5.68326 3.61048 5.62078 3.67296L5.43998 3.85376L5.25918 3.67296C5.1967 3.61048 5.09542 3.61048 5.03294 3.67296C4.97046 3.73544 4.97046 3.83672 5.03294 3.8992L5.21374 4.08L5.03294 4.2608C4.97046 4.32328 4.97046 4.42452 5.03294 4.48704Z" fill="#2563EB"/>
<path d="M7.56679 4.9131C7.59803 4.94434 7.63899 4.95998 7.67991 4.95998C7.72083 4.95998 7.76179 4.94434 7.79303 4.9131L7.99991 4.70622L8.20679 4.9131C8.23803 4.94434 8.27899 4.95998 8.31991 4.95998C8.36083 4.95998 8.40179 4.94434 8.43303 4.9131C8.49551 4.85062 8.49551 4.74934 8.43303 4.68686L8.22615 4.47998L8.43303 4.2731C8.49551 4.21062 8.49551 4.10934 8.43303 4.04686C8.37055 3.98438 8.26927 3.98438 8.20679 4.04686L7.99991 4.25374L7.79303 4.04686C7.73055 3.98438 7.62927 3.98438 7.56679 4.04686C7.50431 4.10934 7.50431 4.21062 7.56679 4.2731L7.77367 4.47998L7.56679 4.68686C7.50427 4.74934 7.50427 4.85062 7.56679 4.9131Z" fill="#2563EB"/>
<path d="M8.79989 5.2799H9.59989C9.68833 5.2799 9.75989 5.20826 9.75989 5.1199C9.75989 5.03154 9.68833 4.9599 9.59989 4.9599H8.95989V4.5867C8.95989 4.52778 9.00785 4.4799 9.06677 4.4799H9.27989C9.54457 4.4799 9.75989 4.26458 9.75989 3.9999C9.75989 3.73522 9.54457 3.5199 9.27989 3.5199H8.79989C8.71145 3.5199 8.63989 3.59154 8.63989 3.6799C8.63989 3.76826 8.71145 3.8399 8.79989 3.8399H9.27989C9.36817 3.8399 9.43989 3.9117 9.43989 3.9999C9.43989 4.0881 9.36817 4.1599 9.27989 4.1599H9.06677C8.83145 4.1599 8.63989 4.35138 8.63989 4.5867V5.1199C8.63989 5.20826 8.71145 5.2799 8.79989 5.2799Z" fill="#2563EB"/>
<path d="M9.11994 10.2399H8.15994V6.33674C8.31366 6.37654 8.47394 6.39994 8.63994 6.39994C9.6987 6.39994 10.5599 5.53862 10.5599 4.47994C10.5599 3.42126 9.6987 2.55994 8.63994 2.55994C7.58118 2.55994 6.71994 3.42126 6.71994 4.47994C6.71994 4.76566 6.78438 5.03602 6.89678 5.27994H1.59994C1.5115 5.27994 1.43994 5.35158 1.43994 5.43994V10.3999C1.43994 10.4883 1.5115 10.5599 1.59994 10.5599H9.11994C9.20838 10.5599 9.27994 10.4883 9.27994 10.3999C9.27994 10.3116 9.20838 10.2399 9.11994 10.2399ZM5.91994 7.19994H7.83994V7.51994H5.91994V7.19994ZM8.63994 2.87994C9.52214 2.87994 10.2399 3.59766 10.2399 4.47994C10.2399 5.36222 9.52214 6.07994 8.63994 6.07994C7.75774 6.07994 7.03994 5.36222 7.03994 4.47994C7.03994 3.59766 7.75774 2.87994 8.63994 2.87994ZM7.83994 6.2231V6.87994H5.91182C5.89534 6.80262 5.8533 6.73282 5.7901 6.68222C5.70762 6.61606 5.60118 6.59138 5.49806 6.61426L4.30242 6.87994H3.83994V5.59994H4.15994V6.42574C4.15994 6.5141 4.2315 6.58574 4.31994 6.58574C4.40838 6.58574 4.47994 6.5141 4.47994 6.42574V5.59994H7.08366C7.27698 5.86778 7.53702 6.0835 7.83994 6.2231ZM4.15994 7.51994H3.83994V7.19994H4.15994V7.51994ZM3.51994 7.19994H2.87994C2.7915 7.19994 2.71994 7.27158 2.71994 7.35994C2.71994 7.4483 2.7915 7.51994 2.87994 7.51994H3.51994V7.55162L2.43242 7.7933C2.42162 7.79574 2.41446 7.79158 2.4099 7.78798C2.40538 7.78438 2.3999 7.77782 2.3999 7.76726V6.95258C2.3999 6.94202 2.40538 6.93546 2.4099 6.93178C2.41442 6.9281 2.42162 6.92414 2.43242 6.92654L3.51994 7.16826V7.19994ZM3.83994 7.83994H4.15994V10.2399H3.83994V7.83994ZM4.47994 7.51994H5.11994C5.20838 7.51994 5.27994 7.4483 5.27994 7.35994C5.27994 7.27158 5.20838 7.19994 5.11994 7.19994H4.47994V7.16826L5.56746 6.92658C5.57826 6.92414 5.58542 6.92814 5.58994 6.93182C5.59446 6.9355 5.59994 6.94206 5.59994 6.95262V7.7673C5.59994 7.77786 5.59446 7.78442 5.58994 7.78802C5.58542 7.79162 5.57822 7.79574 5.56746 7.79334L4.47994 7.55162V7.51994ZM3.51994 5.59994V6.8405L2.50182 6.61426C2.3987 6.5913 2.29198 6.61606 2.20978 6.68222C2.14662 6.73282 2.10454 6.80262 2.0881 6.87994H1.75994V5.59994H3.51994ZM1.75994 7.51994V7.19994H2.07994V7.51994H1.75994ZM1.75994 7.83994H2.0881C2.10458 7.91722 2.14658 7.98694 2.20966 8.03758C2.29202 8.10366 2.39886 8.12858 2.50186 8.10562L3.51994 7.87938V10.2399H1.75994V7.83994ZM4.47994 10.2399V7.87938L5.49806 8.10562C5.52322 8.11126 5.5487 8.11398 5.57386 8.11398C5.65182 8.11398 5.72794 8.08758 5.79026 8.03758C5.8533 7.9869 5.89534 7.91718 5.91182 7.83994H7.83994V10.2399H4.47994Z" fill="#2563EB"/>
<path d="M9.91994 10.24H9.59994C9.5115 10.24 9.43994 10.3116 9.43994 10.4C9.43994 10.4884 9.5115 10.56 9.59994 10.56H9.91994C10.0084 10.56 10.0799 10.4884 10.0799 10.4C10.0799 10.3116 10.0084 10.24 9.91994 10.24Z" fill="#2563EB"/>
</svg>
