<svg width="12" height="12" viewBox="0 0 12 12" fill="none" xmlns="http://www.w3.org/2000/svg">
<g clip-path="url(#clip0_413_7166)">
<path d="M10.5 2.15625V1.40625H8.625V0.84375H8.25V1.40625H6.75V0.84375H6.375V1.40625H4.875V0.84375H4.5V1.40625H3V0.84375H2.625V1.40625H0.75V10.4062H1.5V11.1562H11.25V2.15625H10.5ZM1.125 1.78125H2.625V2.15625H2.4375V2.53125H3.1875V2.15625H3V1.78125H4.5V2.15625H4.3125V2.53125H5.0625V2.15625H4.875V1.78125H6.375V2.15625H6.1875V2.53125H6.9375V2.15625H6.75V1.78125H8.25V2.15625H8.0625V2.53125H8.8125V2.15625H8.625V1.78125H10.125V3.46875H1.125V1.78125ZM1.125 10.0312V3.84375H10.125V10.0312H1.125ZM10.875 10.7812H1.875V10.4062H10.5V2.53125H10.875V10.7812Z" fill="#2563EB"/>
<path d="M8.25 4.96875H3.75C3.65054 4.96875 3.55516 5.00826 3.48484 5.07859C3.41451 5.14891 3.375 5.24429 3.375 5.34375V5.71875H3C2.90054 5.71875 2.80516 5.75826 2.73484 5.82859C2.66451 5.89891 2.625 5.99429 2.625 6.09375V8.53125C2.625 8.63071 2.66451 8.72609 2.73484 8.79642C2.80516 8.86674 2.90054 8.90625 3 8.90625H7.5C7.59946 8.90625 7.69484 8.86674 7.76517 8.79642C7.83549 8.72609 7.875 8.63071 7.875 8.53125V8.15625H8.25C8.34946 8.15625 8.44484 8.11674 8.51517 8.04642C8.58549 7.97609 8.625 7.88071 8.625 7.78125V5.34375C8.625 5.24429 8.58549 5.14891 8.51517 5.07859C8.44484 5.00826 8.34946 4.96875 8.25 4.96875ZM3 8.53125V6.09375H7.5V8.53125H3ZM8.25 7.78125H7.875V6.09375C7.875 5.99429 7.83549 5.89891 7.76517 5.82859C7.69484 5.75826 7.59946 5.71875 7.5 5.71875H3.75V5.34375H8.25V7.78125Z" fill="#2563EB"/>
<path d="M4.125 6.84375C3.95095 6.84375 3.78403 6.91289 3.66096 7.03596C3.53789 7.15903 3.46875 7.32595 3.46875 7.5C3.46875 7.67405 3.53789 7.84097 3.66096 7.96404C3.78403 8.08711 3.95095 8.15625 4.125 8.15625C4.29905 8.15625 4.46597 8.08711 4.58904 7.96404C4.71211 7.84097 4.78125 7.67405 4.78125 7.5C4.78125 7.32595 4.71211 7.15903 4.58904 7.03596C4.46597 6.91289 4.29905 6.84375 4.125 6.84375ZM4.125 7.78125C4.05041 7.78125 3.97887 7.75162 3.92613 7.69887C3.87338 7.64613 3.84375 7.57459 3.84375 7.5C3.84375 7.42541 3.87338 7.35387 3.92613 7.30113C3.97887 7.24838 4.05041 7.21875 4.125 7.21875C4.19959 7.21875 4.27113 7.24838 4.32387 7.30113C4.37662 7.35387 4.40625 7.42541 4.40625 7.5C4.40625 7.57459 4.37662 7.64613 4.32387 7.69887C4.27113 7.75162 4.19959 7.78125 4.125 7.78125Z" fill="#2563EB"/>
<path d="M5.8125 7.40625H5.4375C5.38777 7.40625 5.34008 7.426 5.30492 7.46117C5.26975 7.49633 5.25 7.54402 5.25 7.59375C5.25 7.64348 5.26975 7.69117 5.30492 7.72633C5.34008 7.7615 5.38777 7.78125 5.4375 7.78125H5.8125C5.86223 7.78125 5.90992 7.7615 5.94508 7.72633C5.98025 7.69117 6 7.64348 6 7.59375C6 7.54402 5.98025 7.49633 5.94508 7.46117C5.90992 7.426 5.86223 7.40625 5.8125 7.40625Z" fill="#2563EB"/>
<path d="M6.9375 7.40625H6.5625C6.51277 7.40625 6.46508 7.426 6.42992 7.46117C6.39475 7.49633 6.375 7.54402 6.375 7.59375C6.375 7.64348 6.39475 7.69117 6.42992 7.72633C6.46508 7.7615 6.51277 7.78125 6.5625 7.78125H6.9375C6.98723 7.78125 7.03492 7.7615 7.07008 7.72633C7.10525 7.69117 7.125 7.64348 7.125 7.59375C7.125 7.54402 7.10525 7.49633 7.07008 7.46117C7.03492 7.426 6.98723 7.40625 6.9375 7.40625Z" fill="#2563EB"/>
</g>
<defs>
<clipPath id="clip0_413_7166">
<rect width="12" height="12" fill="white"/>
</clipPath>
</defs>
</svg>
