<svg width="12" height="12" viewBox="0 0 12 12" fill="none" xmlns="http://www.w3.org/2000/svg">
<g clip-path="url(#clip0_413_6923)">
<path d="M5.05125 5.0442C7.28836 5.0442 8.41547 7.76155 6.8325 9.34452C5.24906 10.9277 2.53195 9.80037 2.53195 7.56327C2.53195 6.17202 3.65977 5.0442 5.05125 5.0442ZM9.21234 8.73959L8.55727 8.08451C8.14031 7.66756 8.77406 7.03405 9.19102 7.45076L9.56484 7.82459L10.6493 6.74014C11.0658 6.32342 11.7 6.95623 11.2826 7.37342L11.283 7.37389L9.87891 8.77756L9.87914 8.7778C9.67336 8.98334 9.39914 8.92592 9.21258 8.73936L9.21234 8.73959ZM8.75602 7.88576L9.41133 8.54084L9.41086 8.54108C9.49078 8.61959 9.59109 8.66811 9.68016 8.57881L11.0841 7.17491L11.0843 7.17514C11.239 7.01998 11.0034 6.78373 10.848 6.93889L9.66422 8.12295C9.60937 8.1778 9.52031 8.1778 9.46523 8.12295L8.99203 7.64975C8.83688 7.49459 8.60109 7.73061 8.75602 7.88576ZM10.1023 5.52983C11.8366 5.64795 12.6401 7.76764 11.403 9.00467C11.0651 9.34264 10.6092 9.56225 10.1023 9.59694V10.8794C10.1023 10.9572 10.0392 11.0201 9.96164 11.0201H0.140625C0.0630469 11.0201 0 10.9572 0 10.8794V2.1628C0 2.08498 0.0630469 2.02217 0.140625 2.02217H1.29187C1.29187 1.6767 1.24172 1.39217 1.47281 1.16108C1.86281 0.771077 2.52609 1.0528 2.52609 1.59701V2.02217H4.43391C4.43391 1.6767 4.38398 1.39217 4.61508 1.16108C5.00508 0.771077 5.66836 1.0528 5.66836 1.59701V2.02217H7.57617C7.57617 1.6767 7.52625 1.39217 7.75734 1.16108C8.14734 0.771077 8.81063 1.0528 8.81063 1.59701V2.02217H9.96164C10.0392 2.02217 10.1023 2.08498 10.1023 2.1628V5.52983ZM9.27398 9.4828C8.32219 9.14272 7.77187 8.15811 7.95984 7.17748C8.13398 6.26811 8.8957 5.5978 9.82102 5.52983V4.38772H0.28125V10.7388H9.82102V9.59694C9.63305 9.58287 9.45141 9.54725 9.27398 9.4828ZM11.2041 6.32084C9.97453 5.09131 7.86398 6.21701 8.24953 7.96006C8.32031 8.28022 8.49023 8.57342 8.71922 8.80569C8.73328 8.80569 9.16383 9.31662 9.96164 9.32037C11.5139 9.32412 12.3124 7.4292 11.2041 6.32084ZM8.19328 3.0642C8.37797 3.0642 8.52938 2.9128 8.52938 2.72834V1.59701C8.52938 1.15545 7.85742 1.15545 7.85742 1.59701V2.72834C7.85742 2.9128 8.00906 3.0642 8.19328 3.0642ZM8.19352 3.34545C7.85367 3.34545 7.57617 3.06819 7.57617 2.72834V2.30342H5.66836C5.66836 2.64866 5.71828 2.93319 5.48719 3.16428C5.09719 3.55451 4.43391 3.27256 4.43391 2.72834V2.30342H2.52609C2.52609 2.64866 2.57602 2.93319 2.34492 3.16428C1.95492 3.55451 1.29187 3.27256 1.29187 2.72834V2.30342H0.28125V4.10647H9.82102V2.30342H8.81063C8.81063 2.64866 8.86055 2.93319 8.62945 3.16428C8.51766 3.27608 8.3632 3.34545 8.19352 3.34545ZM1.90898 3.0642C2.09344 3.0642 2.24484 2.9128 2.24484 2.72834V1.59701C2.24484 1.15545 1.57313 1.15545 1.57313 1.59701V2.72834C1.57313 2.9128 1.72453 3.0642 1.90898 3.0642ZM5.05102 3.0642C5.2357 3.0642 5.38711 2.9128 5.38711 2.72834V1.59701C5.38711 1.15545 4.71516 1.15545 4.71516 1.59701V2.72834C4.71516 2.9128 4.86656 3.0642 5.05102 3.0642ZM9.11297 5.70959C9.12492 5.70397 9.13664 5.69881 9.14859 5.69342L9.11297 5.70959ZM5.39625 7.90827C5.64938 7.65514 6.05953 7.65467 6.31336 7.9085L6.31383 7.90827C6.44039 8.03506 6.50367 8.201 6.50367 8.36717H6.5032C6.5032 8.94467 5.80313 9.23272 5.39625 8.82584C5.14266 8.57248 5.14266 8.16162 5.39625 7.90827ZM5.595 8.10725C5.25305 8.4492 5.77289 8.96905 6.11484 8.62709C6.18703 8.55491 6.22312 8.46092 6.22312 8.36717H6.22242C6.22242 8.27295 6.18656 8.17897 6.11484 8.10725L6.11508 8.10678C5.97164 7.96381 5.73867 7.96358 5.595 8.10725ZM3.78844 6.30069C4.04109 6.04826 4.45148 6.04662 4.70578 6.30092L4.70625 6.30069C4.95938 6.55405 4.95984 6.9642 4.70602 7.21803L4.70625 7.21827C4.29867 7.62584 3.59859 7.33616 3.59859 6.75959C3.59859 6.59342 3.66187 6.42748 3.78844 6.30069ZM3.98742 6.49967C3.64523 6.84186 4.16508 7.3617 4.50727 7.01951L4.5075 7.01975C4.6507 6.87631 4.65094 6.64334 4.50727 6.49967L4.5075 6.4992C4.3643 6.35647 4.13133 6.35553 3.98742 6.49967ZM4.00289 8.81037C3.87187 8.94139 3.67313 8.74241 3.80391 8.61162L6.09937 6.31615C6.23039 6.18537 6.42914 6.38412 6.29836 6.51514L4.00289 8.81037ZM6.63352 5.981C5.22727 4.57451 2.8132 5.576 2.8132 7.56327C2.8132 9.55053 5.22703 10.5522 6.63352 9.14576C7.5075 8.27178 7.5075 6.85475 6.63352 5.981Z" fill="#2563EB"/>
</g>
<defs>
<clipPath id="clip0_413_6923">
<rect width="12" height="12" fill="white"/>
</clipPath>
</defs>
</svg>
