<svg width="12" height="12" viewBox="0 0 12 12" fill="none" xmlns="http://www.w3.org/2000/svg">
<path d="M5.99999 1C4.42138 1 3.13718 2.2844 3.13718 3.863V5.2404H3.01498C2.61478 5.2404 2.28918 5.566 2.28918 5.9662V10.2742C2.28918 10.6744 2.61478 11 3.01498 11H8.98538C9.38558 11 9.71119 10.6744 9.71119 10.2742V5.9662C9.71119 5.566 9.38558 5.2404 8.98538 5.2404H8.86319V3.863C8.86279 2.2844 7.57859 1 5.99999 1ZM3.53718 3.863C3.53718 2.5048 4.64198 1.4 5.99999 1.4C7.35799 1.4 8.46279 2.5048 8.46279 3.863V5.2404H7.96279V3.863C7.96279 2.7806 7.08239 1.9002 5.99999 1.9002C4.91758 1.9002 4.03718 2.7808 4.03718 3.863V5.2404H3.53718V3.863ZM7.56279 3.863V5.2404H4.43718V3.863C4.43718 3.0012 5.13838 2.3002 5.99999 2.3002C6.86159 2.3002 7.56279 3.0012 7.56279 3.863ZM8.98519 5.6404C9.16479 5.6404 9.31099 5.7866 9.31099 5.9662V10.2742C9.31099 10.4538 9.16499 10.6 8.98519 10.6H3.01478C2.83518 10.6 2.68898 10.454 2.68898 10.2742V5.9662C2.68898 5.7866 2.83498 5.6404 3.01478 5.6404H3.33698H4.23698H7.76279H8.66279H8.98519Z" fill="#2563EB"/>
<path d="M7.16962 6.51876C7.08042 6.45336 6.95542 6.47336 6.89022 6.56236L4.78702 9.44216C4.72202 9.53136 4.74122 9.65636 4.83062 9.72156C4.86622 9.74756 4.90762 9.75996 4.94842 9.75996C5.01022 9.75996 5.07082 9.73136 5.11022 9.67796L7.21342 6.79816C7.27822 6.70896 7.25882 6.58396 7.16962 6.51876Z" fill="#2563EB"/>
<path d="M5.70283 7.15681C5.70283 6.68701 5.38423 6.30481 4.99263 6.30481C4.60103 6.30481 4.28223 6.68701 4.28223 7.15681C4.28223 7.62661 4.60103 8.00861 4.99263 8.00861C5.38423 8.00861 5.70283 7.62661 5.70283 7.15681ZM4.68223 7.15681C4.68223 6.91181 4.82443 6.70481 4.99263 6.70481C5.16083 6.70481 5.30283 6.91181 5.30283 7.15681C5.30283 7.40181 5.16083 7.60861 4.99263 7.60861C4.82443 7.60861 4.68223 7.40181 4.68223 7.15681Z" fill="#2563EB"/>
<path d="M7.00738 8.23157C6.61578 8.23157 6.29718 8.61377 6.29718 9.08357C6.29718 9.55337 6.61578 9.93557 7.00738 9.93557C7.39898 9.93557 7.71758 9.55337 7.71758 9.08357C7.71758 8.61377 7.39898 8.23157 7.00738 8.23157ZM7.00738 9.53557C6.83918 9.53557 6.69718 9.32857 6.69718 9.08357C6.69718 8.83857 6.83918 8.63157 7.00738 8.63157C7.17558 8.63157 7.31758 8.83857 7.31758 9.08357C7.31758 9.32857 7.17558 9.53557 7.00738 9.53557Z" fill="#2563EB"/>
</svg>
