<svg width="12" height="12" viewBox="0 0 12 12" fill="none" xmlns="http://www.w3.org/2000/svg">
<g clip-path="url(#clip0_413_7116)">
<path fill-rule="evenodd" clip-rule="evenodd" d="M4.125 0C3.40235 0 2.8125 0.589849 2.8125 1.3125V4.5H0.1875C0.0839509 4.50001 1.03537e-05 4.58395 0 4.6875V11.8125C1.03537e-05 11.916 0.0839509 12 0.1875 12H11.8125C11.916 12 12 11.916 12 11.8125V4.6875C12 4.58395 11.916 4.50001 11.8125 4.5H9.1875V1.3125C9.1875 0.589849 8.59765 0 7.875 0H4.125ZM4.125 0.375H7.875C8.39499 0.375 8.8125 0.792512 8.8125 1.3125V8.0625H8.0625V7.6875C8.0625 7.58395 7.97855 7.5 7.875 7.5C7.77145 7.5 7.6875 7.58395 7.6875 7.6875V8.0625H4.3125V7.6875C4.3125 7.58395 4.22855 7.5 4.125 7.5C4.02145 7.5 3.9375 7.58395 3.9375 7.6875V8.0625H3.1875V1.3125C3.1875 0.792512 3.60501 0.375 4.125 0.375ZM4.85559 1.125C4.76651 1.12493 4.68968 1.18753 4.67175 1.27478C4.61145 1.56957 4.38207 1.79895 4.08728 1.85925C4.00003 1.87718 3.93743 1.95401 3.9375 2.04309V3.1875C3.9375 3.29105 4.02145 3.375 4.125 3.375C4.22855 3.375 4.3125 3.29105 4.3125 3.1875V2.17236C4.62776 2.05894 4.87144 1.81526 4.98486 1.5H7.02649C7.14027 1.80843 7.37907 2.04723 7.6875 2.16101V3.1875C7.6875 3.29105 7.77145 3.375 7.875 3.375C7.97855 3.375 8.0625 3.29105 8.0625 3.1875V2.03284C8.06255 1.94434 8.00072 1.86787 7.91418 1.84937C7.62492 1.7874 7.4001 1.56258 7.33813 1.27332C7.31963 1.18678 7.24316 1.12496 7.15466 1.125H4.85559ZM6 1.875C5.69156 1.875 5.4375 2.12906 5.4375 2.4375C5.4375 2.74594 5.69156 3 6 3C6.30844 3 6.5625 2.74594 6.5625 2.4375C6.5625 2.12906 6.30844 1.875 6 1.875ZM6 2.25C6.10577 2.25 6.1875 2.33173 6.1875 2.4375C6.1875 2.54327 6.10577 2.625 6 2.625C5.89423 2.625 5.8125 2.54327 5.8125 2.4375C5.8125 2.33173 5.89423 2.25 6 2.25ZM6 3.375C4.86314 3.375 3.9375 4.30064 3.9375 5.4375C3.9375 6.57436 4.86314 7.5 6 7.5C7.13686 7.5 8.0625 6.57436 8.0625 5.4375C8.0625 4.30064 7.13686 3.375 6 3.375ZM6 3.75C6.9342 3.75 7.6875 4.5033 7.6875 5.4375C7.6875 6.3717 6.9342 7.125 6 7.125C5.0658 7.125 4.3125 6.3717 4.3125 5.4375C4.3125 4.5033 5.0658 3.75 6 3.75ZM6.375 4.6875C6.06656 4.6875 5.8125 4.94156 5.8125 5.25H5.4375V5.21704C5.4375 5.14278 5.48037 5.07649 5.5481 5.04602C5.64256 5.00355 5.6847 4.89255 5.64221 4.79809C5.59975 4.70364 5.48874 4.6615 5.39429 4.70398C5.19285 4.79461 5.0625 4.99615 5.0625 5.21704V5.25H4.875C4.77145 5.25 4.6875 5.33395 4.6875 5.4375C4.6875 5.54105 4.77145 5.625 4.875 5.625H5.0625C5.0625 5.93344 5.31656 6.1875 5.625 6.1875C5.93344 6.1875 6.1875 5.93344 6.1875 5.625H6.5625V5.65796C6.5625 5.73222 6.51962 5.79851 6.4519 5.82898C6.35744 5.87145 6.3153 5.98245 6.35779 6.07691C6.40025 6.17136 6.51126 6.2135 6.60571 6.17102C6.80715 6.08039 6.9375 5.87885 6.9375 5.65796V5.625H7.125C7.22855 5.625 7.3125 5.54105 7.3125 5.4375C7.3125 5.33395 7.22855 5.25 7.125 5.25H6.9375C6.9375 4.94156 6.68344 4.6875 6.375 4.6875ZM0.375 4.875H2.8125V7.3125H2.625C2.31656 7.3125 2.0625 7.56656 2.0625 7.875V8.25V8.625C2.0625 8.93344 2.31656 9.1875 2.625 9.1875H9.375C9.68344 9.1875 9.9375 8.93344 9.9375 8.625V8.25V7.875C9.9375 7.56656 9.68344 7.3125 9.375 7.3125H9.1875V4.875H11.625V11.625H0.375V4.875ZM6.375 5.0625C6.48077 5.0625 6.5625 5.14422 6.5625 5.25H6.1875C6.1875 5.14423 6.26923 5.0625 6.375 5.0625ZM5.4375 5.625H5.8125C5.8125 5.73077 5.73077 5.8125 5.625 5.8125C5.51923 5.8125 5.4375 5.73077 5.4375 5.625ZM2.625 7.6875H2.8125V8.0625H2.4375V7.875C2.4375 7.76923 2.51923 7.6875 2.625 7.6875ZM9.1875 7.6875H9.375C9.48077 7.6875 9.5625 7.76923 9.5625 7.875V8.0625H9.1875V7.6875ZM2.4375 8.4375H9.5625V8.625C9.5625 8.73077 9.48077 8.8125 9.375 8.8125H2.625C2.51923 8.8125 2.4375 8.73077 2.4375 8.625V8.4375ZM6 9.5625C5.89645 9.5625 5.8125 9.64645 5.8125 9.75V10.6099L5.75757 10.5549C5.68435 10.4817 5.56565 10.4817 5.49243 10.5549C5.41923 10.6282 5.41923 10.7468 5.49243 10.8201L5.86743 11.1951C5.94164 11.2672 6.05837 11.2672 6.13257 11.1951L6.50757 10.8201C6.58077 10.7468 6.58077 10.6282 6.50757 10.5549C6.43435 10.4817 6.31565 10.4817 6.24243 10.5549L6.1875 10.6099V9.75C6.1875 9.64645 6.10355 9.5625 6 9.5625Z" fill="#2563EB"/>
</g>
<defs>
<clipPath id="clip0_413_7116">
<rect width="12" height="12" fill="white"/>
</clipPath>
</defs>
</svg>
