<svg width="12" height="12" viewBox="0 0 12 12" fill="none" xmlns="http://www.w3.org/2000/svg">
<g clip-path="url(#clip0_413_7214)">
<path d="M5.63342 5.77014L6.00931 4.26967L6.37306 4.3608L5.99717 5.86127L5.63342 5.77014Z" fill="#2563EB"/>
<path d="M1.3125 5.4375H5.25V5.8125H1.3125V5.4375Z" fill="#2563EB"/>
<path d="M1.5 4.5H2.25C2.29973 4.5 2.34742 4.48025 2.38258 4.44508C2.41775 4.40992 2.4375 4.36223 2.4375 4.3125V3.5625C2.4375 3.51277 2.41775 3.46508 2.38258 3.42992C2.34742 3.39475 2.29973 3.375 2.25 3.375H1.5C1.45027 3.375 1.40258 3.39475 1.36742 3.42992C1.33225 3.46508 1.3125 3.51277 1.3125 3.5625V4.3125C1.3125 4.36223 1.33225 4.40992 1.36742 4.44508C1.40258 4.48025 1.45027 4.5 1.5 4.5ZM1.6875 3.75H2.0625V4.125H1.6875V3.75Z" fill="#2563EB"/>
<path d="M3 4.5H3.75C3.79973 4.5 3.84742 4.48025 3.88258 4.44508C3.91775 4.40992 3.9375 4.36223 3.9375 4.3125V3.5625C3.9375 3.51277 3.91775 3.46508 3.88258 3.42992C3.84742 3.39475 3.79973 3.375 3.75 3.375H3C2.95027 3.375 2.90258 3.39475 2.86742 3.42992C2.83225 3.46508 2.8125 3.51277 2.8125 3.5625V4.3125C2.8125 4.36223 2.83225 4.40992 2.86742 4.44508C2.90258 4.48025 2.95027 4.5 3 4.5ZM3.1875 3.75H3.5625V4.125H3.1875V3.75Z" fill="#2563EB"/>
<path d="M5.25 3.375H4.5C4.45027 3.375 4.40258 3.39475 4.36742 3.42992C4.33225 3.46508 4.3125 3.51277 4.3125 3.5625V4.3125C4.3125 4.36223 4.33225 4.40992 4.36742 4.44508C4.40258 4.48025 4.45027 4.5 4.5 4.5H5.25C5.29973 4.5 5.34742 4.48025 5.38258 4.44508C5.41775 4.40992 5.4375 4.36223 5.4375 4.3125V3.5625C5.4375 3.51277 5.41775 3.46508 5.38258 3.42992C5.34742 3.39475 5.29973 3.375 5.25 3.375ZM5.0625 4.125H4.6875V3.75H5.0625V4.125Z" fill="#2563EB"/>
<path d="M11.8125 6.1875C11.8123 5.67584 11.6725 5.17393 11.4082 4.73583C11.1439 4.29772 10.765 3.94003 10.3125 3.70125V1.125C10.3125 0.87636 10.2137 0.637903 10.0379 0.462087C9.8621 0.286272 9.62364 0.1875 9.375 0.1875H1.125C1.00189 0.1875 0.879977 0.211749 0.766234 0.258863C0.652492 0.305977 0.549142 0.375032 0.462087 0.462087C0.286272 0.637903 0.1875 0.87636 0.1875 1.125V6C0.1875 6.24864 0.286272 6.4871 0.462087 6.66291C0.549142 6.74997 0.652492 6.81902 0.766234 6.86614C0.879977 6.91325 1.00189 6.9375 1.125 6.9375H6.2925C6.43047 7.43708 6.7038 7.88882 7.08232 8.24286C7.46084 8.59689 7.92982 8.83945 8.4375 8.94375V9.75H8.25C8.20027 9.75 8.15258 9.76975 8.11742 9.80492C8.08225 9.84008 8.0625 9.88777 8.0625 9.9375V11.8125H8.4375V10.125H9.5625V11.8125H9.9375V9.9375C9.9375 9.88777 9.91775 9.84008 9.88258 9.80492C9.84742 9.76975 9.79973 9.75 9.75 9.75H9.5625V8.94375C10.1978 8.81408 10.7687 8.4689 11.1787 7.96663C11.5887 7.46437 11.8126 6.83587 11.8125 6.1875ZM9.9375 2.625H0.5625V1.875H9.9375V2.625ZM1.125 0.5625H9.375C9.52418 0.5625 9.66726 0.621763 9.77275 0.727252C9.87824 0.832742 9.9375 0.975816 9.9375 1.125V1.5H0.5625V1.125C0.5625 0.975816 0.621763 0.832742 0.727252 0.727252C0.832742 0.621763 0.975816 0.5625 1.125 0.5625ZM1.125 6.5625C0.975816 6.5625 0.832742 6.50324 0.727252 6.39775C0.621763 6.29226 0.5625 6.14918 0.5625 6V3H9.9375V3.54C9.63683 3.43145 9.31967 3.37563 9 3.375C8.25408 3.375 7.53871 3.67132 7.01126 4.19876C6.48382 4.72621 6.1875 5.44158 6.1875 6.1875C6.18833 6.31299 6.19773 6.43829 6.21563 6.5625H1.125ZM6.5625 6.1875C6.5625 5.70541 6.70546 5.23414 6.97329 4.8333C7.24113 4.43245 7.62181 4.12003 8.06721 3.93554C8.5126 3.75106 9.0027 3.70278 9.47553 3.79684C9.94836 3.89089 10.3827 4.12304 10.7236 4.46393C11.0645 4.80482 11.2966 5.23914 11.3907 5.71197C11.4847 6.1848 11.4364 6.6749 11.252 7.12029C11.0675 7.56569 10.755 7.94637 10.3542 8.21421C9.95336 8.48204 9.48209 8.625 9 8.625C8.35353 8.625 7.73355 8.36819 7.27643 7.91107C6.81931 7.45395 6.5625 6.83397 6.5625 6.1875ZM9.1875 9.75H8.8125V9H9C9 9 9.12562 9 9.1875 9V9.75Z" fill="#2563EB"/>
<path d="M11.0625 6.1875C11.0625 5.77958 10.9415 5.38081 10.7149 5.04164C10.4883 4.70246 10.1662 4.43811 9.78929 4.282C9.41241 4.12589 8.99771 4.08505 8.59763 4.16463C8.19754 4.24421 7.83004 4.44065 7.54159 4.72909C7.25315 5.01754 7.05671 5.38504 6.97713 5.78513C6.89755 6.18521 6.93839 6.59991 7.0945 6.97679C7.25061 7.35366 7.51496 7.67578 7.85414 7.90241C8.19331 8.12904 8.59208 8.25 9 8.25C9.54701 8.25 10.0716 8.0327 10.4584 7.64591C10.8452 7.25912 11.0625 6.73451 11.0625 6.1875ZM7.3125 6.1875C7.3125 5.85374 7.41147 5.52748 7.5969 5.24998C7.78232 4.97247 8.04587 4.75618 8.35422 4.62845C8.66257 4.50073 9.00187 4.46731 9.32922 4.53243C9.65656 4.59754 9.95724 4.75826 10.1932 4.99426C10.4292 5.23026 10.59 5.53094 10.6551 5.85829C10.7202 6.18563 10.6868 6.52493 10.559 6.83328C10.4313 7.14163 10.215 7.40518 9.93753 7.59061C9.66002 7.77603 9.33376 7.875 9 7.875C8.55245 7.875 8.12323 7.69721 7.80676 7.38074C7.49029 7.06428 7.3125 6.63505 7.3125 6.1875Z" fill="#2563EB"/>
<path d="M7.875 6H9.375V6.375H7.875V6Z" fill="#2563EB"/>
<path d="M9.75 6H10.125V6.375H9.75V6Z" fill="#2563EB"/>
</g>
<defs>
<clipPath id="clip0_413_7214">
<rect width="12" height="12" fill="white"/>
</clipPath>
</defs>
</svg>
