<svg width="12" height="12" viewBox="0 0 12 12" fill="none" xmlns="http://www.w3.org/2000/svg">
<g clip-path="url(#clip0_413_6870)">
<path d="M10.3488 6.08972C10.4038 6.41635 10.6881 6.66734 11.0307 6.66734C11.4124 6.66734 11.723 6.35675 11.723 5.97511C11.723 5.59346 11.4124 5.28286 11.0307 5.28286C10.6881 5.28286 10.4038 5.53386 10.3488 5.8605H9.68409C9.66232 5.15107 9.43882 4.49093 9.0698 3.93622H10.3488C10.4038 4.26399 10.6881 4.51386 11.0307 4.51386C11.4124 4.51386 11.723 4.20326 11.723 3.82275C11.723 3.4411 11.4124 3.13053 11.0307 3.13053C10.6881 3.13053 10.4038 3.38037 10.3488 3.707H8.9036C8.25033 2.87264 7.24636 2.32597 6.11402 2.29158V1.47326C6.4418 1.41825 6.69164 1.13403 6.69164 0.791348C6.69164 0.409691 6.38105 0.0991211 5.99941 0.0991211C5.61776 0.0991211 5.30831 0.409715 5.30831 0.791348C5.30831 1.13403 5.55816 1.41825 5.88481 1.47326V2.29156C4.75362 2.32594 3.74965 2.87262 3.09638 3.70697H1.65002C1.59502 3.38035 1.31079 3.1305 0.969258 3.1305C0.587602 3.1305 0.277008 3.4411 0.277008 3.82273C0.277008 4.20324 0.587602 4.51383 0.969258 4.51383C1.31079 4.51383 1.59502 4.26399 1.65002 3.93619H2.92905C2.56001 4.49091 2.33768 5.15105 2.31591 5.86048H1.65002C1.59502 5.53383 1.31079 5.28284 0.969258 5.28284C0.587602 5.28284 0.277008 5.59343 0.277008 5.97509C0.277008 6.35672 0.587602 6.66732 0.969258 6.66732C1.31079 6.66732 1.59502 6.41632 1.65002 6.0897H2.31591C2.33768 6.79913 2.56003 7.45927 2.9302 8.01399H1.65002C1.59502 7.68622 1.31079 7.43637 0.969258 7.43637C0.587602 7.43637 0.277008 7.74697 0.277008 8.1286C0.277008 8.51023 0.587602 8.81968 0.969258 8.81968C1.31079 8.81968 1.59502 8.56983 1.65002 8.24321H3.09752C3.21213 8.3899 3.3382 8.52743 3.47344 8.65465C3.13191 9.32855 3.10212 10.8976 3.65337 11.3422C4.57369 12.0872 7.42514 12.0872 8.34661 11.3422C8.89559 10.8987 8.86922 9.33315 8.52654 8.65465C8.66177 8.52743 8.78784 8.3899 8.90245 8.24321H10.3488C10.4038 8.56983 10.688 8.81968 11.0307 8.81968C11.4124 8.81968 11.7229 8.51023 11.7229 8.1286C11.7229 7.74697 11.4124 7.43637 11.0307 7.43637C10.688 7.43637 10.4038 7.68622 10.3488 8.01399H9.06977C9.43882 7.45927 9.66115 6.79913 9.68292 6.0897H10.3488V6.08972ZM11.0308 5.51208C11.2864 5.51208 11.4938 5.71953 11.4938 5.97511C11.4938 6.2307 11.2863 6.43812 11.0308 6.43812C10.7752 6.43812 10.5678 6.23068 10.5678 5.97511C10.5677 5.71953 10.7752 5.51208 11.0308 5.51208ZM11.0308 3.35972C11.2864 3.35972 11.4938 3.56717 11.4938 3.82273C11.4938 4.07717 11.2863 4.28461 11.0308 4.28461C10.7752 4.28461 10.5678 4.07717 10.5678 3.82273C10.5677 3.56717 10.7752 3.35972 11.0308 3.35972ZM0.969258 4.28461C0.713672 4.28461 0.506227 4.07717 0.506227 3.82273C0.506227 3.56715 0.713672 3.35972 0.969258 3.35972C1.2237 3.35972 1.43112 3.56717 1.43112 3.82273C1.43112 4.07717 1.22367 4.28461 0.969258 4.28461ZM0.969258 6.43812C0.713672 6.43812 0.506227 6.23068 0.506227 5.97511C0.506227 5.71953 0.713672 5.51208 0.969258 5.51208C1.2237 5.51208 1.43112 5.71953 1.43112 5.97511C1.43112 6.23068 1.22367 6.43812 0.969258 6.43812ZM0.969258 8.59048C0.713672 8.59048 0.506227 8.38304 0.506227 8.12862C0.506227 7.87304 0.713672 7.66561 0.969258 7.66561C1.2237 7.66561 1.43112 7.87306 1.43112 8.12862C1.43112 8.38304 1.22367 8.59048 0.969258 8.59048ZM11.0308 7.66559C11.2864 7.66559 11.4938 7.87304 11.4938 8.1286C11.4938 8.38304 11.2863 8.59046 11.0308 8.59046C10.7752 8.59046 10.5678 8.38301 10.5678 8.1286C10.5677 7.87304 10.7752 7.66559 11.0308 7.66559ZM8.60679 3.707H7.85494C7.64177 3.28179 7.37013 2.9311 7.05956 2.6847C7.66584 2.87951 8.19764 3.23825 8.60679 3.707ZM5.88483 5.1522C5.51808 5.20379 5.22811 5.49373 5.1777 5.86048H3.87574C3.89065 5.14304 4.03964 4.47945 4.28374 3.93619H5.88483V5.1522ZM5.17767 6.08972C5.22811 6.45647 5.51806 6.74642 5.88481 6.798V7.76644C5.32552 7.77675 4.77309 7.85813 4.33301 8.01401H4.28602C4.04074 7.47078 3.89175 6.80832 3.87687 6.08972H5.17767ZM6.11405 6.798C6.4808 6.74642 6.77074 6.45647 6.82233 6.08972H8.12313C8.10823 6.80832 7.95809 7.47075 7.71284 8.01401H7.66699C7.22688 7.85815 6.67448 7.77678 6.11405 7.76644V6.798ZM6.82233 5.8605C6.77074 5.49375 6.4808 5.20379 6.11405 5.15222V3.93622H7.71513C7.96041 4.47945 8.1094 5.14306 8.12428 5.8605H6.82233ZM7.60282 3.707H6.11405V2.52307C6.70772 2.57466 7.23607 3.02279 7.60282 3.707ZM5.53755 0.791348C5.53755 0.535762 5.745 0.32834 5.99944 0.32834C6.25502 0.32834 6.46245 0.535785 6.46245 0.791348C6.46245 1.04693 6.255 1.25438 5.99944 1.25438C5.745 1.25436 5.53755 1.04693 5.53755 0.791348ZM5.88483 3.707H4.3972C4.76395 3.02279 5.2923 2.57466 5.88483 2.52307V3.707ZM4.93931 2.68468C4.62872 2.93107 4.35825 3.28179 4.14506 3.70697H3.39323C3.80123 3.23825 4.33416 2.87951 4.93931 2.68468ZM3.20871 3.93622H4.03847C3.80238 4.49093 3.66026 5.15107 3.6465 5.8605H2.5451C2.56805 5.14304 2.81102 4.47945 3.20871 3.93622ZM2.54513 6.08972H3.64767C3.66143 6.79915 3.80353 7.45929 4.03964 8.01401H3.20988C2.81215 7.47075 2.5692 6.80717 2.54513 6.08972ZM3.39436 8.24321H3.8528C3.75424 8.30738 3.66942 8.375 3.59951 8.45982C3.52732 8.3899 3.4597 8.31769 3.39436 8.24321ZM8.20221 11.1646C7.3587 11.8465 4.64131 11.8465 3.79664 11.1646C3.32215 10.7807 3.35653 9.02025 3.8058 8.571C4.56452 7.81229 7.4343 7.81229 8.19302 8.571C8.64232 9.02025 8.67785 10.7806 8.20221 11.1646ZM8.40049 8.45982C8.32943 8.37387 8.24348 8.30623 8.14605 8.24321H8.60679C8.54145 8.31769 8.47268 8.3899 8.40049 8.45982ZM8.79131 8.01399H7.95926C8.19534 7.45927 8.33747 6.79913 8.35238 6.0897H9.45492C9.43081 6.80717 9.189 7.47075 8.79131 8.01399ZM8.3535 5.8605C8.33859 5.15107 8.19649 4.49093 7.96153 3.93622H8.79014C9.18783 4.47945 9.4308 5.14306 9.45487 5.8605H8.3535Z" fill="#2563EB"/>
<path d="M4.82809 9.13242H4.92099C4.98434 9.13242 5.0356 9.08109 5.0356 9.01781C5.0356 8.95453 4.98434 8.9032 4.92099 8.9032H4.82809C4.31258 8.9032 3.89319 9.32257 3.89319 9.83803C3.89319 10.3535 4.31256 10.7728 4.82809 10.7728H4.92099C4.98434 10.7728 5.0356 10.7215 5.0356 10.6582C5.0356 10.5949 4.98434 10.5436 4.92099 10.5436H4.82809C4.43893 10.5436 4.12241 10.2271 4.12241 9.83803C4.12241 9.44892 4.43893 9.13242 4.82809 9.13242Z" fill="#2563EB"/>
<path d="M7.17155 8.9032H6.9514C6.88805 8.9032 6.83679 8.95453 6.83679 9.01781V10.6582C6.83679 10.7215 6.88805 10.7728 6.9514 10.7728H7.17155C7.68696 10.7728 8.10633 10.3535 8.10633 9.83803C8.10633 9.32257 7.68694 8.9032 7.17155 8.9032ZM7.17155 10.5436H7.06601V9.13242H7.17155C7.56059 9.13242 7.87711 9.44894 7.87711 9.83803C7.87709 10.2271 7.56059 10.5436 7.17155 10.5436Z" fill="#2563EB"/>
<path d="M6.34634 8.9032C6.28299 8.9032 6.23173 8.95453 6.23173 9.01781V10.1727L5.62859 8.96655C5.60487 8.91897 5.55104 8.89413 5.49978 8.90627C5.44808 8.91848 5.41147 8.96463 5.41147 9.01781V10.6582C5.41147 10.7215 5.46273 10.7728 5.52608 10.7728C5.58943 10.7728 5.64069 10.7215 5.64069 10.6582V9.50327L6.24383 10.7095C6.26773 10.7573 6.32145 10.7819 6.37264 10.7697C6.42434 10.7575 6.46095 10.7114 6.46095 10.6582V9.01781C6.46095 8.9545 6.4097 8.9032 6.34634 8.9032Z" fill="#2563EB"/>
</g>
<defs>
<clipPath id="clip0_413_6870">
<rect width="12" height="12" fill="white"/>
</clipPath>
</defs>
</svg>
