<svg width="12" height="12" viewBox="0 0 12 12" fill="none" xmlns="http://www.w3.org/2000/svg">
<path fill-rule="evenodd" clip-rule="evenodd" d="M5.06093 9.33662H4.12403C3.92129 9.33662 3.75629 9.17174 3.75629 8.969L3.75635 7.11781C3.75635 6.91507 3.92135 6.75024 4.12403 6.75024H5.06093C5.26361 6.75024 5.42856 6.91507 5.42856 7.11781V8.969C5.42862 9.17174 5.26361 9.33662 5.06093 9.33662ZM4.12403 7.02271C4.07243 7.02271 4.02893 7.06627 4.02893 7.11781V8.969C4.02893 9.02144 4.07159 9.06416 4.12403 9.06416H5.06093C5.11331 9.06416 5.15603 9.0215 5.15603 8.969L5.15597 7.11781C5.15597 7.06543 5.11343 7.02271 5.06093 7.02271H4.12403Z" fill="#2563EB"/>
<path fill-rule="evenodd" clip-rule="evenodd" d="M7.23028 9.33655H6.31095C6.10341 9.33655 5.93451 9.16765 5.93451 8.96011V7.1265C5.93451 6.9189 6.10347 6.75012 6.31095 6.75012H7.47046C7.5457 6.75012 7.60672 6.81114 7.60672 6.88638C7.60672 6.96162 7.5457 7.02264 7.47046 7.02264H6.31095C6.25371 7.02264 6.20709 7.0692 6.20709 7.1265V7.90705H7.23034C7.43788 7.90705 7.60678 8.07595 7.60678 8.28349V8.96017C7.60678 9.16759 7.43788 9.33649 7.23034 9.33649L7.23028 9.33655ZM6.20703 8.17963V8.96023C6.20703 9.01747 6.25365 9.06409 6.31089 9.06409H7.23022C7.28746 9.06409 7.33408 9.01747 7.33408 8.96023V8.28355C7.33408 8.22727 7.28644 8.17963 7.23022 8.17963H6.20697H6.20703Z" fill="#2563EB"/>
<path fill-rule="evenodd" clip-rule="evenodd" d="M4.8528 4.98551C4.7775 4.98551 4.71654 4.92449 4.71654 4.84925V4.15361L4.56342 4.36805C4.53786 4.40381 4.49652 4.42517 4.45254 4.42517C4.40856 4.42517 4.36722 4.40393 4.34166 4.36805L4.1886 4.15367V4.84925C4.1886 4.92449 4.12758 4.98551 4.05234 4.98551C3.9771 4.98551 3.91608 4.92449 3.91608 4.84925L3.91614 3.72839C3.91614 3.66917 3.95442 3.61673 4.01082 3.59861C4.0674 3.58061 4.12896 3.60095 4.16334 3.64913L4.45266 4.05431L4.7421 3.64913C4.77648 3.60089 4.83816 3.58043 4.89456 3.59861C4.95096 3.61673 4.98924 3.66911 4.98924 3.72839V4.84925C4.9893 4.92455 4.92822 4.98551 4.85292 4.98551H4.8528Z" fill="#2563EB"/>
<path fill-rule="evenodd" clip-rule="evenodd" d="M6.0048 4.98555C5.9295 4.98555 5.86854 4.92453 5.86854 4.84929V4.38339H5.55395V4.84929C5.55395 4.92459 5.49293 4.98555 5.41769 4.98555C5.34245 4.98555 5.28143 4.92453 5.28143 4.84929V3.97526C5.28143 3.76406 5.45357 3.59204 5.66508 3.59204H5.75742C5.96898 3.59204 6.14112 3.76394 6.14112 3.97526V4.84917C6.14106 4.92459 6.0801 4.98555 6.0048 4.98555ZM5.55389 4.11074H5.86848V3.97526C5.86848 3.91424 5.81862 3.86468 5.75736 3.86468H5.66501C5.60375 3.86468 5.55389 3.91424 5.55389 3.97526V4.11074Z" fill="#2563EB"/>
<path fill-rule="evenodd" clip-rule="evenodd" d="M6.94021 4.98556C6.86497 4.98556 6.80395 4.92454 6.80395 4.8493V4.36797L6.45355 3.80001C6.41401 3.73593 6.43393 3.65199 6.49801 3.61245C6.56185 3.57291 6.64597 3.59283 6.68557 3.65679L6.94033 4.06977L7.19515 3.65679C7.23457 3.59271 7.31857 3.57279 7.38271 3.61245C7.44679 3.65199 7.46665 3.73593 7.42717 3.80001L7.07671 4.36797V4.8493C7.07653 4.9246 7.01557 4.98556 6.94027 4.98556H6.94021Z" fill="#2563EB"/>
<path fill-rule="evenodd" clip-rule="evenodd" d="M9.40258 11.1201H2.70997C2.03418 11.1201 1.48038 10.5913 1.44924 9.91646C1.44636 9.8537 1.48692 9.79688 1.54722 9.77936C1.60776 9.76184 1.67232 9.78782 1.70358 9.84248C1.83372 10.0695 2.07576 10.2105 2.33527 10.2105H9.02782C9.42886 10.2105 9.75514 9.88424 9.75514 9.4832V2.79059C9.75514 2.5312 9.61408 2.28916 9.38704 2.15896C9.33238 2.12764 9.30634 2.06308 9.32392 2.0026C9.34162 1.94206 9.4012 1.90252 9.46102 1.90462C10.1359 1.93576 10.6646 2.48956 10.6646 3.16535V9.85796C10.6646 10.5538 10.0985 11.12 9.40264 11.12L9.40258 11.1201ZM1.85628 10.3597C2.02842 10.6527 2.34661 10.8476 2.70985 10.8476H9.40246C9.9481 10.8476 10.392 10.4037 10.392 9.85802V3.16535C10.392 2.80211 10.1972 2.48392 9.90424 2.31178C9.98362 2.45662 10.0275 2.6209 10.0275 2.79059V9.4832C10.0275 10.0344 9.57904 10.483 9.0277 10.483H2.33515C2.16534 10.483 2.00112 10.4392 1.85622 10.3597H1.85628Z" fill="#2563EB"/>
<path fill-rule="evenodd" clip-rule="evenodd" d="M9.02791 10.483H2.33529C1.78401 10.483 1.33545 10.0345 1.33545 9.48323V2.79062C1.33545 2.23939 1.78401 1.79077 2.33529 1.79077H2.41509C2.49033 1.79077 2.55136 1.85179 2.55136 1.92703V2.45551C2.55136 2.59118 2.6617 2.70152 2.79736 2.70152C2.93308 2.70152 3.04342 2.59124 3.04342 2.45551V1.92703C3.04342 1.85179 3.10444 1.79077 3.17968 1.79077H4.3378C4.4131 1.79077 4.47406 1.85179 4.47406 1.92703V2.45551C4.47406 2.59118 4.58441 2.70152 4.72007 2.70152C4.85579 2.70152 4.96613 2.59124 4.96613 2.45551V1.92703C4.96613 1.85179 5.02715 1.79077 5.10239 1.79077H6.26051C6.33575 1.79077 6.39677 1.85179 6.39677 1.92703V2.45551C6.39677 2.59118 6.50711 2.70152 6.64278 2.70152C6.7785 2.70152 6.88878 2.59124 6.88878 2.45551V1.92703C6.88878 1.85179 6.9498 1.79077 7.02504 1.79077H8.18322C8.25846 1.79077 8.31948 1.85179 8.31948 1.92703V2.45551C8.31948 2.59118 8.42982 2.70152 8.56549 2.70152C8.70121 2.70152 8.81149 2.59124 8.81149 2.45551V1.92703C8.81149 1.85179 8.87251 1.79077 8.94775 1.79077H9.02755C9.57889 1.79077 10.0274 2.23933 10.0274 2.79062V9.48323C10.0275 10.0345 9.57889 10.483 9.02767 10.483H9.02791ZM2.27883 2.06551C1.90407 2.09437 1.60803 2.40853 1.60803 2.79062V9.48323C1.60803 9.88415 1.93431 10.2106 2.33535 10.2106L9.02785 10.2105C9.42889 10.2105 9.75517 9.88427 9.75517 9.48323V2.79062C9.75517 2.40859 9.45901 2.09443 9.08425 2.06551V2.45563C9.08425 2.7416 8.85169 2.97422 8.56567 2.97422C8.27964 2.97422 8.04708 2.7416 8.04708 2.45563V2.06341H7.16148V2.45563C7.16148 2.7416 6.92892 2.97422 6.6429 2.97422C6.35687 2.97422 6.12431 2.7416 6.12431 2.45563V2.06341H5.23871V2.45563C5.23871 2.7416 5.00609 2.97422 4.72013 2.97422C4.43416 2.97422 4.20154 2.7416 4.20154 2.45563V2.06341H3.31594V2.45563C3.31594 2.7416 3.08332 2.97422 2.79736 2.97422C2.5114 2.97422 2.27877 2.7416 2.27877 2.45563V2.06551H2.27883Z" fill="#2563EB"/>
<path fill-rule="evenodd" clip-rule="evenodd" d="M9.89143 5.87628H1.47171C1.39647 5.87628 1.33545 5.81526 1.33545 5.74002C1.33545 5.66472 1.39647 5.60376 1.47171 5.60376H9.89143C9.96673 5.60376 10.0277 5.66478 10.0277 5.74002C10.0277 5.81526 9.96667 5.87628 9.89143 5.87628Z" fill="#2563EB"/>
<path fill-rule="evenodd" clip-rule="evenodd" d="M8.56564 2.97408C8.27968 2.97408 8.04706 2.74145 8.04706 2.45549V1.39859C8.04706 1.11263 8.27962 0.880005 8.56564 0.880005C8.85166 0.880005 9.08422 1.11263 9.08422 1.39859V2.45561C9.08422 2.74151 8.85166 2.97408 8.56564 2.97408ZM8.56564 1.15253C8.42998 1.15253 8.31964 1.26281 8.31964 1.39853V2.45555C8.31964 2.59121 8.42998 2.70149 8.56564 2.70149C8.70136 2.70149 8.81164 2.59121 8.81164 2.45555V1.39853C8.81176 1.26287 8.70136 1.15253 8.56564 1.15253Z" fill="#2563EB"/>
<path fill-rule="evenodd" clip-rule="evenodd" d="M6.64303 2.97408C6.35707 2.97408 6.12439 2.74145 6.12439 2.45549V1.39859C6.12439 1.11263 6.35695 0.880005 6.64297 0.880005C6.92899 0.880005 7.16155 1.11263 7.16155 1.39859V2.45561C7.16155 2.74151 6.92899 2.97408 6.64309 2.97408H6.64303ZM6.64303 1.15253C6.50737 1.15253 6.39691 1.26281 6.39691 1.39853V2.45555C6.39691 2.59121 6.50725 2.70149 6.64291 2.70149H6.64297C6.77863 2.70149 6.88891 2.59121 6.88891 2.45555V1.39853C6.88891 1.26287 6.77863 1.15253 6.64297 1.15253H6.64303Z" fill="#2563EB"/>
<path fill-rule="evenodd" clip-rule="evenodd" d="M4.72024 2.97408C4.43428 2.97408 4.2016 2.74145 4.2016 2.45549V1.39859C4.2016 1.11263 4.43422 0.880005 4.72018 0.880005C5.00614 0.880005 5.23876 1.11263 5.23876 1.39859V2.45561C5.2387 2.74151 5.0062 2.97408 4.72024 2.97408ZM4.72024 1.15253C4.58458 1.15253 4.47424 1.26281 4.47424 1.39853V2.45555C4.47424 2.59121 4.58452 2.70149 4.72024 2.70149C4.8559 2.70149 4.96618 2.59121 4.96618 2.45555V1.39853C4.96618 1.26287 4.85578 1.15253 4.72024 1.15253Z" fill="#2563EB"/>
<path fill-rule="evenodd" clip-rule="evenodd" d="M2.79733 2.97408C2.51137 2.97408 2.27875 2.74145 2.27875 2.45549V1.39859C2.27875 1.11263 2.51137 0.880005 2.79733 0.880005C3.08329 0.880005 3.31597 1.11263 3.31597 1.39859V2.45561C3.31585 2.74151 3.08323 2.97408 2.79733 2.97408ZM2.79733 1.15253C2.66173 1.15253 2.55133 1.26281 2.55133 1.39853V2.45555C2.55133 2.59121 2.66167 2.70149 2.79727 2.70149C2.93287 2.70149 3.04327 2.59121 3.04327 2.45555V1.39853C3.04333 1.26287 2.93293 1.15253 2.79733 1.15253Z" fill="#2563EB"/>
</svg>
