<svg width="12" height="12" viewBox="0 0 12 12" fill="none" xmlns="http://www.w3.org/2000/svg">
<g clip-path="url(#clip0_413_7242)">
<path d="M11.4375 8.62494H10.6875C10.584 8.62494 10.5 8.70876 10.5 8.81244H9.30375C9.18956 8.81244 9.0795 8.84657 8.99006 8.90807L8.27306 9.37045L6.32962 8.62026C6.31819 8.61594 6.30656 8.61257 6.29456 8.61051C6.08119 8.57301 5.86406 8.63113 5.69831 8.77026C5.53256 8.90938 5.4375 9.11319 5.4375 9.32976C5.4375 9.57463 5.559 9.80188 5.76262 9.93726L8.15231 11.5304C8.24606 11.5929 8.35519 11.6248 8.46469 11.6248C8.55056 11.6248 8.63681 11.6053 8.71613 11.5657L9.98194 10.9327H10.5V11.2499C10.5 11.3536 10.584 11.4374 10.6875 11.4374H11.4375C11.541 11.4374 11.625 11.3536 11.625 11.2499V8.81244C11.625 8.70876 11.541 8.62494 11.4375 8.62494ZM10.5 10.5577H9.9375C9.90844 10.5577 9.87956 10.5644 9.85369 10.5774L8.5485 11.2301C8.48794 11.2599 8.41613 11.2556 8.36044 11.2184L5.97056 9.62526C5.87156 9.55926 5.8125 9.44882 5.8125 9.32976C5.8125 9.22438 5.85881 9.12519 5.93944 9.05751C6.01594 8.99338 6.11531 8.9647 6.21338 8.97726L7.92075 9.63632C7.78162 9.82007 7.76794 10.0753 7.90088 10.2748C8.007 10.4341 8.18194 10.5209 8.36081 10.5209C8.45775 10.5209 8.556 10.4954 8.64506 10.442L9.28406 10.0586L9.09113 9.73701L8.45212 10.1204C8.37056 10.1686 8.26556 10.1458 8.21306 10.0666C8.16431 9.99351 8.17631 9.89713 8.24006 9.83807L9.19781 9.22007C9.22913 9.19888 9.26569 9.18744 9.30375 9.18744H10.5V10.5577ZM11.25 11.0624H10.875V8.99994H11.25V11.0624Z" fill="#2563EB"/>
<path d="M3.49706 8.48269C3.44137 8.43469 3.36338 8.42419 3.29663 8.45475C3.23025 8.48531 3.1875 8.55169 3.1875 8.625V9H0.9375C0.834 9 0.75 9.08381 0.75 9.1875V10.3125C0.75 10.4162 0.834 10.5 0.9375 10.5H3.1875V10.875C3.1875 10.9483 3.23025 11.0147 3.29663 11.0452C3.32175 11.0569 3.34837 11.0625 3.375 11.0625C3.41887 11.0625 3.46237 11.0471 3.49706 11.0173L4.80956 9.89231C4.85119 9.85669 4.875 9.80475 4.875 9.75C4.875 9.69525 4.85119 9.64331 4.80956 9.60769L3.49706 8.48269ZM3.5625 10.4674V10.3125C3.5625 10.2088 3.4785 10.125 3.375 10.125H1.125V9.375H3.375C3.4785 9.375 3.5625 9.29119 3.5625 9.1875V9.03262L4.39931 9.75L3.5625 10.4674Z" fill="#2563EB"/>
<path d="M6 0.375C4.5525 0.375 3.375 1.5525 3.375 3C3.375 4.38975 4.54931 5.56519 5.99287 5.62013C5.99531 5.62031 5.99756 5.62031 6 5.62031C6.04837 5.62031 6.09506 5.60156 6.12994 5.568C6.16669 5.53256 6.1875 5.48363 6.1875 5.43281V3.1875H8.4375C8.541 3.1875 8.625 3.10369 8.625 3C8.625 1.5525 7.4475 0.375 6 0.375ZM6 2.8125C5.8965 2.8125 5.8125 2.89631 5.8125 3V5.23012C4.65863 5.09119 3.75 4.128 3.75 3C3.75 1.75931 4.75931 0.75 6 0.75C7.1775 0.75 8.14669 1.65937 8.24213 2.8125H6Z" fill="#2563EB"/>
<path d="M6.5625 3.75V6.18281C6.5625 6.2835 6.642 6.36637 6.7425 6.37012L6.77512 6.372C6.79912 6.3735 6.82294 6.375 6.84731 6.375C8.34431 6.375 9.5625 5.1975 9.5625 3.75C9.5625 3.64631 9.4785 3.5625 9.375 3.5625H6.75C6.6465 3.5625 6.5625 3.64631 6.5625 3.75ZM6.9375 3.9375H9.17944C9.0825 5.06231 8.12119 5.955 6.9375 5.99831V3.9375Z" fill="#2563EB"/>
<path d="M2.0625 6H2.4375C2.54081 6 2.625 6.084 2.625 6.1875H3C3 5.87737 2.74763 5.625 2.4375 5.625V5.4375H2.0625V5.625C1.75237 5.625 1.5 5.87737 1.5 6.1875V6.375C1.5 6.68513 1.75237 6.9375 2.0625 6.9375H2.4375C2.54081 6.9375 2.625 7.0215 2.625 7.125V7.3125C2.625 7.416 2.54081 7.5 2.4375 7.5H2.0625C1.95919 7.5 1.875 7.416 1.875 7.3125H1.5C1.5 7.62263 1.75237 7.875 2.0625 7.875V8.0625H2.4375V7.875C2.74763 7.875 3 7.62263 3 7.3125V7.125C3 6.81487 2.74763 6.5625 2.4375 6.5625H2.0625C1.95919 6.5625 1.875 6.4785 1.875 6.375V6.1875C1.875 6.084 1.95919 6 2.0625 6Z" fill="#2563EB"/>
</g>
<defs>
<clipPath id="clip0_413_7242">
<rect width="12" height="12" fill="white"/>
</clipPath>
</defs>
</svg>
