<svg width="12" height="12" viewBox="0 0 12 12" fill="none" xmlns="http://www.w3.org/2000/svg">
<g clip-path="url(#clip0_413_6932)">
<path d="M1.52832 6.68898C1.52852 6.83853 1.58803 6.98191 1.69378 7.08766C1.79954 7.19341 1.94292 7.2529 2.09248 7.25309H4.18387C4.32725 7.2528 4.46507 7.19761 4.56903 7.09887C4.67297 7.19762 4.81079 7.25281 4.95416 7.25309H7.04564C7.18901 7.25281 7.32683 7.19764 7.4308 7.09891C7.53474 7.19766 7.67256 7.25285 7.81593 7.25314H9.90737C10.0569 7.25295 10.2003 7.19346 10.3061 7.0877C10.4118 6.98193 10.4713 6.83854 10.4715 6.68898V6.42394C10.4713 6.28061 10.4161 6.14284 10.3174 6.03894C10.4161 5.93501 10.4712 5.79721 10.4715 5.65386V5.3888C10.4713 5.24541 10.4161 5.10758 10.3173 5.00367C10.4161 4.89974 10.4713 4.76191 10.4715 4.61851V4.35366C10.4713 4.21027 10.4161 4.07244 10.3173 3.96853C10.4161 3.86461 10.4713 3.72677 10.4715 3.58338V3.31848C10.4713 3.16891 10.4118 3.02552 10.3061 2.91975C10.2003 2.81399 10.0569 2.7545 9.90737 2.75431H8.54488C8.56334 2.33281 8.48204 2.09261 8.44796 1.93559C8.32984 1.52049 8.10752 1.14249 7.80215 0.837521L7.80197 0.837336L7.80171 0.837083C7.32306 0.359762 6.67455 0.0918919 5.99857 0.0922856C5.32259 0.0926793 4.67439 0.361304 4.19629 0.839183C3.66513 1.38474 3.42492 2.05995 3.45573 2.75441H2.09248C1.94293 2.7546 1.79956 2.81408 1.6938 2.91982C1.58804 3.02556 1.52853 3.16892 1.52832 3.31848V3.58333C1.52858 3.72673 1.5838 3.86457 1.68261 3.96848C1.58379 4.07239 1.52857 4.21022 1.52832 4.35361V4.61847C1.52858 4.76186 1.5838 4.89971 1.68261 5.00362C1.5838 5.10753 1.52858 5.24536 1.52832 5.38875V5.65386C1.5286 5.79722 1.58378 5.93503 1.68252 6.03897C1.58377 6.14285 1.52859 6.28063 1.52832 6.42396V6.68898ZM4.18387 6.8951H2.09248C2.03784 6.89503 1.98545 6.87329 1.94681 6.83465C1.90816 6.79601 1.88643 6.74362 1.88636 6.68898V6.42394C1.88644 6.36931 1.90819 6.31695 1.94683 6.27834C1.98547 6.23973 2.03786 6.21803 2.09248 6.218H2.27659V6.33463C2.27632 6.35831 2.28075 6.38181 2.28963 6.40376C2.2985 6.42572 2.31165 6.44569 2.3283 6.46253C2.34495 6.47937 2.36477 6.49274 2.38663 6.50187C2.40848 6.51099 2.43193 6.51569 2.45561 6.51569C2.47929 6.51569 2.50274 6.51099 2.52459 6.50187C2.54644 6.49274 2.56627 6.47937 2.58292 6.46253C2.59957 6.44569 2.61271 6.42572 2.62159 6.40376C2.63047 6.38181 2.6349 6.35831 2.63463 6.33463V6.21802H2.95927V6.33463C2.95901 6.35831 2.96344 6.38181 2.97231 6.40376C2.98119 6.42572 2.99433 6.44569 3.01098 6.46253C3.02763 6.47937 3.04746 6.49274 3.06931 6.50187C3.09117 6.51099 3.11461 6.51569 3.13829 6.51569C3.16198 6.51569 3.18542 6.51099 3.20727 6.50187C3.22913 6.49274 3.24895 6.47937 3.2656 6.46253C3.28225 6.44569 3.2954 6.42572 3.30427 6.40376C3.31315 6.38181 3.31758 6.35831 3.31731 6.33463V6.21802H3.64198V6.33463C3.64171 6.35831 3.64615 6.38181 3.65502 6.40376C3.6639 6.42572 3.67704 6.44569 3.69369 6.46253C3.71034 6.47937 3.73017 6.49274 3.75202 6.50187C3.77387 6.51099 3.79732 6.51569 3.821 6.51569C3.84468 6.51569 3.86813 6.51099 3.88998 6.50187C3.91184 6.49274 3.93166 6.47937 3.94831 6.46253C3.96496 6.44569 3.97811 6.42572 3.98698 6.40376C3.99586 6.38181 4.00029 6.35831 4.00002 6.33463V6.21802H4.18387C4.2385 6.21805 4.29089 6.23974 4.32953 6.27835C4.36818 6.31697 4.38992 6.36933 4.39 6.42396V6.689C4.38993 6.74364 4.36819 6.79603 4.32955 6.83467C4.29091 6.8733 4.23852 6.89504 4.18387 6.8951ZM1.88636 5.65386V5.3888C1.88643 5.33415 1.90817 5.28177 1.94681 5.24313C1.98545 5.20449 2.03784 5.18275 2.09248 5.18268H2.27659V5.29947C2.27632 5.32315 2.28075 5.34665 2.28963 5.3686C2.2985 5.39056 2.31165 5.41053 2.3283 5.42737C2.34495 5.44421 2.36477 5.45758 2.38663 5.46671C2.40848 5.47583 2.43193 5.48053 2.45561 5.48053C2.47929 5.48053 2.50274 5.47583 2.52459 5.46671C2.54644 5.45758 2.56627 5.44421 2.58292 5.42737C2.59957 5.41053 2.61271 5.39056 2.62159 5.3686C2.63047 5.34665 2.6349 5.32315 2.63463 5.29947V5.18268H2.95927V5.29947C2.95901 5.32315 2.96344 5.34665 2.97231 5.3686C2.98119 5.39056 2.99433 5.41053 3.01098 5.42737C3.02763 5.44421 3.04746 5.45758 3.06931 5.46671C3.09117 5.47583 3.11461 5.48053 3.13829 5.48053C3.16198 5.48053 3.18542 5.47583 3.20727 5.46671C3.22913 5.45758 3.24895 5.44421 3.2656 5.42737C3.28225 5.41053 3.2954 5.39056 3.30427 5.3686C3.31315 5.34665 3.31758 5.32315 3.31731 5.29947V5.18268H3.64198V5.29947C3.64171 5.32315 3.64615 5.34665 3.65502 5.3686C3.6639 5.39056 3.67704 5.41053 3.69369 5.42737C3.71034 5.44421 3.73017 5.45758 3.75202 5.46671C3.77387 5.47583 3.79732 5.48053 3.821 5.48053C3.84468 5.48053 3.86813 5.47583 3.88998 5.46671C3.91184 5.45758 3.93166 5.44421 3.94831 5.42737C3.96496 5.41053 3.97811 5.39056 3.98698 5.3686C3.99586 5.34665 4.00029 5.32315 4.00002 5.29947V5.18268H4.18387C4.23852 5.18274 4.29091 5.20448 4.32955 5.24312C4.36819 5.28176 4.38993 5.33415 4.39 5.3888V5.65386C4.38993 5.70851 4.36819 5.7609 4.32955 5.79954C4.29091 5.83818 4.23852 5.85992 4.18387 5.85998H2.09248C2.03784 5.85991 1.98545 5.83817 1.94681 5.79953C1.90817 5.76089 1.88643 5.7085 1.88636 5.65386ZM1.88636 4.61854V4.35366C1.88643 4.29901 1.90817 4.24663 1.94681 4.20799C1.98545 4.16935 2.03784 4.14761 2.09248 4.14754H2.27622V4.26433C2.27622 4.31181 2.29508 4.35735 2.32866 4.39092C2.36223 4.4245 2.40777 4.44336 2.45525 4.44336C2.50273 4.44336 2.54827 4.4245 2.58184 4.39092C2.61542 4.35735 2.63428 4.31181 2.63428 4.26433V4.14754H2.95893V4.26433C2.95946 4.31146 2.97856 4.35647 3.01207 4.38961C3.04559 4.42274 3.09082 4.44133 3.13795 4.44133C3.18508 4.44133 3.23031 4.42274 3.26382 4.38961C3.29733 4.35647 3.31643 4.31146 3.31697 4.26433V4.14754H3.6418V4.26433C3.64233 4.31146 3.66143 4.35647 3.69494 4.38961C3.72846 4.42274 3.77369 4.44133 3.82082 4.44133C3.86795 4.44133 3.91318 4.42274 3.94669 4.38961C3.9802 4.35647 3.9993 4.31146 3.99984 4.26433V4.2125C4.11495 4.35903 4.24562 4.49265 4.38954 4.61101V4.70794C4.38946 4.7389 4.3771 4.76858 4.35517 4.79044C4.33324 4.8123 4.30353 4.82457 4.27256 4.82454H2.09248C2.03785 4.82448 1.98548 4.80275 1.94684 4.76413C1.9082 4.72551 1.88645 4.67314 1.88636 4.61851V4.61854ZM4.19424 2.33789C4.16121 2.53662 4.16101 2.73942 4.19364 2.93821L3.85018 3.02964C3.79946 2.77065 3.7979 2.50442 3.84557 2.24484L4.19424 2.33789ZM5.26731 0.58086L5.35962 0.927544C5.17242 0.997455 4.99793 1.09756 4.84309 1.22387L4.58906 0.969798C4.78997 0.800437 5.01975 0.668677 5.26741 0.580836L5.26731 0.58086ZM6.00003 1.16623C6.85911 1.16623 7.45087 1.85971 7.47153 2.58844C7.50912 3.45518 6.74497 4.20451 5.8432 4.10034C5.84089 4.09912 4.68748 3.96881 4.53954 2.83845C4.42307 1.94819 5.15964 1.16623 6.00003 1.16623ZM7.41393 0.972175L7.16034 1.22558C7.00685 1.09952 6.83364 0.999607 6.64766 0.929875L6.74015 0.583236C6.98623 0.671482 7.21444 0.803221 7.41393 0.972175ZM8.0572 1.90155L7.71104 1.99386C7.64112 1.80684 7.54056 1.63275 7.41349 1.47874L7.66734 1.22507C7.83738 1.42496 7.9695 1.65421 8.0572 1.90155ZM8.86191 4.44343C8.88543 4.44344 8.90871 4.43882 8.93044 4.42983C8.95216 4.42084 8.97191 4.40766 8.98853 4.39103C9.00516 4.37441 9.01835 4.35467 9.02734 4.33294C9.03633 4.31122 9.04096 4.28793 9.04094 4.26442V4.14763H9.36559V4.26442C9.36612 4.31155 9.38522 4.35656 9.41874 4.3897C9.45225 4.42284 9.49748 4.44142 9.54461 4.44142C9.59174 4.44142 9.63697 4.42284 9.67048 4.3897C9.704 4.35656 9.72309 4.31155 9.72363 4.26442V4.14763H9.90737C9.96201 4.1477 10.0144 4.16943 10.053 4.20808C10.0917 4.24672 10.1134 4.29911 10.1135 4.35375V4.61861C10.1134 4.67325 10.0917 4.72565 10.0531 4.76429C10.0144 4.80293 9.96201 4.82467 9.90737 4.82473H7.72729C7.69633 4.82475 7.66662 4.81248 7.64469 4.79062C7.62277 4.76875 7.61041 4.73909 7.61034 4.70812V4.60986C7.75413 4.49131 7.88483 4.35771 8.0002 4.21134V4.26442C8.00073 4.31155 8.01983 4.35656 8.05334 4.3897C8.08686 4.42284 8.13209 4.44142 8.17922 4.44142C8.22635 4.44142 8.27158 4.42284 8.30509 4.3897C8.3386 4.35656 8.3577 4.31155 8.35824 4.26442V4.14763H8.6829V4.26442C8.6829 4.28793 8.68753 4.3112 8.69653 4.33291C8.70552 4.35463 8.71871 4.37436 8.73533 4.39097C8.75196 4.40759 8.77169 4.42077 8.79341 4.42975C8.81513 4.43874 8.83841 4.44335 8.86191 4.44334V4.44343ZM10.1135 5.38889V5.65386C10.1134 5.70851 10.0917 5.7609 10.053 5.79954C10.0144 5.83818 9.96201 5.85992 9.90737 5.85998H7.81593C7.76128 5.85991 7.7089 5.83817 7.67026 5.79953C7.63162 5.76089 7.60988 5.7085 7.60981 5.65386V5.3888C7.60988 5.33415 7.63162 5.28177 7.67026 5.24313C7.7089 5.20449 7.76128 5.18275 7.81593 5.18268H8.00004V5.29947C7.99977 5.32315 8.0042 5.34665 8.01308 5.3686C8.02195 5.39056 8.03509 5.41053 8.05174 5.42737C8.06839 5.44421 8.08822 5.45758 8.11007 5.46671C8.13193 5.47583 8.15537 5.48053 8.17905 5.48053C8.20274 5.48053 8.22618 5.47583 8.24804 5.46671C8.26989 5.45758 8.28972 5.44421 8.30637 5.42737C8.32302 5.41053 8.33616 5.39056 8.34504 5.3686C8.35391 5.34665 8.35834 5.32315 8.35807 5.29947V5.18268H8.68272V5.29947C8.68245 5.32315 8.68688 5.34665 8.69576 5.3686C8.70464 5.39056 8.71778 5.41053 8.73443 5.42737C8.75108 5.44421 8.7709 5.45758 8.79276 5.46671C8.81461 5.47583 8.83806 5.48053 8.86174 5.48053C8.88542 5.48053 8.90887 5.47583 8.93072 5.46671C8.95257 5.45758 8.9724 5.44421 8.98905 5.42737C9.0057 5.41053 9.01884 5.39056 9.02772 5.3686C9.0366 5.34665 9.04103 5.32315 9.04076 5.29947V5.18268H9.36543V5.29947C9.36516 5.32315 9.36959 5.34665 9.37847 5.3686C9.38734 5.39056 9.40049 5.41053 9.41714 5.42737C9.43379 5.44421 9.45361 5.45758 9.47547 5.46671C9.49732 5.47583 9.52077 5.48053 9.54445 5.48053C9.56813 5.48053 9.59158 5.47583 9.61343 5.46671C9.63528 5.45758 9.65511 5.44421 9.67176 5.42737C9.68841 5.41053 9.70155 5.39056 9.71043 5.3686C9.7193 5.34665 9.72374 5.32315 9.72347 5.29947V5.18268H9.90737C9.96201 5.18274 10.0144 5.20448 10.053 5.24312C10.0917 5.28176 10.1134 5.33415 10.1135 5.3888V5.38889ZM4.95421 5.85996C4.89956 5.85989 4.84718 5.83815 4.80854 5.79951C4.7699 5.76088 4.74816 5.7085 4.74808 5.65386V5.3888C4.74816 5.33415 4.7699 5.28177 4.80853 5.24313C4.84717 5.20449 4.89956 5.18275 4.95421 5.18268H5.13831V5.29947C5.13804 5.32315 5.14248 5.34665 5.15135 5.3686C5.16023 5.39056 5.17337 5.41053 5.19002 5.42737C5.20667 5.44421 5.2265 5.45758 5.24835 5.46671C5.2702 5.47583 5.29365 5.48053 5.31733 5.48053C5.34101 5.48053 5.36446 5.47583 5.38631 5.46671C5.40817 5.45758 5.42799 5.44421 5.44464 5.42737C5.46129 5.41053 5.47444 5.39056 5.48331 5.3686C5.49219 5.34665 5.49662 5.32315 5.49635 5.29947V5.18268H5.821V5.29947C5.82073 5.32315 5.82516 5.34665 5.83404 5.3686C5.84291 5.39056 5.85606 5.41053 5.87271 5.42737C5.88936 5.44421 5.90918 5.45758 5.93104 5.46671C5.95289 5.47583 5.97634 5.48053 6.00002 5.48053C6.0237 5.48053 6.04714 5.47583 6.069 5.46671C6.09085 5.45758 6.11068 5.44421 6.12733 5.42737C6.14398 5.41053 6.15712 5.39056 6.166 5.3686C6.17487 5.34665 6.1793 5.32315 6.17904 5.29947V5.18268H6.5037V5.29947C6.50344 5.32315 6.50787 5.34665 6.51674 5.3686C6.52562 5.39056 6.53876 5.41053 6.55541 5.42737C6.57206 5.44421 6.59189 5.45758 6.61374 5.46671C6.6356 5.47583 6.65904 5.48053 6.68272 5.48053C6.70641 5.48053 6.72985 5.47583 6.75171 5.46671C6.77356 5.45758 6.79338 5.44421 6.81003 5.42737C6.82668 5.41053 6.83983 5.39056 6.8487 5.3686C6.85758 5.34665 6.86201 5.32315 6.86174 5.29947V5.18268H7.04564C7.10029 5.18274 7.15268 5.20448 7.19132 5.24312C7.22996 5.28176 7.2517 5.33415 7.25177 5.3888V5.65386C7.2517 5.70851 7.22996 5.7609 7.19132 5.79954C7.15268 5.83818 7.10029 5.85992 7.04564 5.85998L4.95421 5.85996ZM3.94302 3.3755L4.28987 3.28319C4.36076 3.47034 4.46191 3.64457 4.58927 3.79894L4.33558 4.05174C4.16296 3.85331 4.02973 3.6238 3.94302 3.3755ZM5.36103 4.34704L5.26794 4.69337C5.02017 4.6056 4.79027 4.47386 4.58927 4.30448L4.84242 4.05221C4.99748 4.17891 5.17281 4.27855 5.36103 4.34692V4.34704ZM6.29765 4.44188L6.39146 4.79058C6.13415 4.83869 5.8701 4.83799 5.61305 4.78852L5.70649 4.4411C5.90198 4.47625 6.10215 4.47648 6.29772 4.44177L6.29765 4.44188ZM7.27311 4.83952C7.27713 4.85337 7.28071 4.86721 7.28587 4.88053C7.26972 4.87287 7.25327 4.86636 7.2363 4.86024C7.24863 4.85328 7.26095 4.84649 7.27311 4.83941V4.83952ZM7.66708 4.04904L7.41497 3.79792C7.54211 3.64358 7.64297 3.46934 7.71349 3.28222L8.05999 3.37453C7.974 3.62269 7.84055 3.85174 7.66708 4.04893V4.04904ZM7.15974 4.04932L7.41358 4.3022C7.21528 4.47554 6.98558 4.60925 6.73692 4.69608L6.64387 4.35001C6.86823 4.26659 7.00207 4.1744 7.15974 4.04921V4.04932ZM4.76244 4.86047C4.74591 4.86652 4.72974 4.87294 4.71397 4.88041C4.71896 4.86774 4.72228 4.85431 4.72623 4.84118C4.73804 4.84797 4.75046 4.85383 4.76244 4.86047ZM8.18814 2.56275C8.18829 2.5632 8.18835 2.56367 8.18832 2.56414C8.19247 2.67821 8.18738 2.79243 8.17311 2.90568C8.17277 2.90784 8.17145 2.90964 8.17117 2.91186C8.16656 2.95095 8.15684 2.98928 8.14994 3.02805L7.80598 2.93634C7.8395 2.73864 7.8392 2.53669 7.80511 2.33909L8.15107 2.24678C8.1716 2.35099 8.18399 2.45663 8.18814 2.56275ZM7.04564 6.8951H4.95421C4.89956 6.89503 4.84717 6.87329 4.80853 6.83465C4.76989 6.79601 4.74815 6.74362 4.74808 6.68898V6.42394C4.74816 6.36931 4.76991 6.31695 4.80855 6.27834C4.8472 6.23973 4.89958 6.21803 4.95421 6.218H5.13831V6.33463C5.13804 6.35831 5.14248 6.38181 5.15135 6.40376C5.16023 6.42572 5.17337 6.44569 5.19002 6.46253C5.20667 6.47937 5.2265 6.49274 5.24835 6.50187C5.2702 6.51099 5.29365 6.51569 5.31733 6.51569C5.34101 6.51569 5.36446 6.51099 5.38631 6.50187C5.40817 6.49274 5.42799 6.47937 5.44464 6.46253C5.46129 6.44569 5.47444 6.42572 5.48331 6.40376C5.49219 6.38181 5.49662 6.35831 5.49635 6.33463V6.21802H5.821V6.33463C5.82073 6.35831 5.82516 6.38181 5.83404 6.40376C5.84291 6.42572 5.85606 6.44569 5.87271 6.46253C5.88936 6.47937 5.90918 6.49274 5.93104 6.50187C5.95289 6.51099 5.97634 6.51569 6.00002 6.51569C6.0237 6.51569 6.04714 6.51099 6.069 6.50187C6.09085 6.49274 6.11068 6.47937 6.12733 6.46253C6.14398 6.44569 6.15712 6.42572 6.166 6.40376C6.17487 6.38181 6.1793 6.35831 6.17904 6.33463V6.21802H6.5037V6.33463C6.50344 6.35831 6.50787 6.38181 6.51674 6.40376C6.52562 6.42572 6.53876 6.44569 6.55541 6.46253C6.57206 6.47937 6.59189 6.49274 6.61374 6.50187C6.6356 6.51099 6.65904 6.51569 6.68272 6.51569C6.70641 6.51569 6.72985 6.51099 6.75171 6.50187C6.77356 6.49274 6.79338 6.47937 6.81003 6.46253C6.82668 6.44569 6.83983 6.42572 6.8487 6.40376C6.85758 6.38181 6.86201 6.35831 6.86174 6.33463V6.21802H7.04564C7.10027 6.21805 7.15266 6.23974 7.1913 6.27835C7.22995 6.31697 7.25169 6.36933 7.25177 6.42396V6.689C7.2517 6.74364 7.22996 6.79603 7.19132 6.83467C7.15268 6.8733 7.10029 6.89504 7.04564 6.8951ZM10.1135 6.68898C10.1134 6.74362 10.0917 6.79602 10.0531 6.83466C10.0144 6.8733 9.96201 6.89504 9.90737 6.8951H7.81593C7.76128 6.89503 7.70889 6.87329 7.67025 6.83465C7.63161 6.79601 7.60987 6.74362 7.60981 6.68898V6.42394C7.60988 6.36931 7.63163 6.31695 7.67028 6.27834C7.70892 6.23973 7.7613 6.21803 7.81593 6.218H8.00004V6.33463C7.99977 6.35831 8.0042 6.38181 8.01308 6.40376C8.02195 6.42572 8.03509 6.44569 8.05174 6.46253C8.06839 6.47937 8.08822 6.49274 8.11007 6.50187C8.13193 6.51099 8.15537 6.51569 8.17905 6.51569C8.20274 6.51569 8.22618 6.51099 8.24804 6.50187C8.26989 6.49274 8.28972 6.47937 8.30637 6.46253C8.32302 6.44569 8.33616 6.42572 8.34504 6.40376C8.35391 6.38181 8.35834 6.35831 8.35807 6.33463V6.21802H8.68272V6.33463C8.68245 6.35831 8.68688 6.38181 8.69576 6.40376C8.70464 6.42572 8.71778 6.44569 8.73443 6.46253C8.75108 6.47937 8.7709 6.49274 8.79276 6.50187C8.81461 6.51099 8.83806 6.51569 8.86174 6.51569C8.88542 6.51569 8.90887 6.51099 8.93072 6.50187C8.95257 6.49274 8.9724 6.47937 8.98905 6.46253C9.0057 6.44569 9.01884 6.42572 9.02772 6.40376C9.0366 6.38181 9.04103 6.35831 9.04076 6.33463V6.21802H9.36543V6.33463C9.36516 6.35831 9.36959 6.38181 9.37847 6.40376C9.38734 6.42572 9.40049 6.44569 9.41714 6.46253C9.43379 6.47937 9.45361 6.49274 9.47547 6.50187C9.49732 6.51099 9.52077 6.51569 9.54445 6.51569C9.56813 6.51569 9.59158 6.51099 9.61343 6.50187C9.63528 6.49274 9.65511 6.47937 9.67176 6.46253C9.68841 6.44569 9.70155 6.42572 9.71043 6.40376C9.7193 6.38181 9.72374 6.35831 9.72347 6.33463V6.21802H9.90737C9.96199 6.21805 10.0144 6.23974 10.053 6.27835C10.0917 6.31697 10.1134 6.36933 10.1135 6.42396V6.68898ZM8.6829 3.1124V3.22919C8.68344 3.27632 8.70254 3.32133 8.73605 3.35447C8.76957 3.3876 8.81479 3.40619 8.86192 3.40619C8.90905 3.40619 8.95428 3.3876 8.9878 3.35447C9.02131 3.32133 9.04041 3.27632 9.04094 3.22919V3.1124H9.36559V3.22919C9.36612 3.27632 9.38522 3.32133 9.41874 3.35447C9.45225 3.3876 9.49748 3.40619 9.54461 3.40619C9.59174 3.40619 9.63697 3.3876 9.67048 3.35447C9.704 3.32133 9.72309 3.27632 9.72363 3.22919V3.1124H9.90737C9.96201 3.11246 10.0144 3.1342 10.0531 3.17284C10.0917 3.21148 10.1134 3.26387 10.1135 3.31852V3.58338C10.1134 3.63802 10.0917 3.69041 10.053 3.72905C10.0144 3.76769 9.96201 3.78943 9.90737 3.7895H8.27257C8.27301 3.78862 8.27336 3.78765 8.2738 3.78678L8.27398 3.78652C8.27414 3.78607 8.27434 3.78563 8.27458 3.78521C8.38082 3.57226 8.45783 3.34595 8.50353 3.1124H8.6829ZM6.39407 0.491852L6.30194 0.837267C6.10467 0.803743 5.90321 0.803049 5.70571 0.835213L5.61356 0.488829C5.87125 0.43697 6.13679 0.437999 6.39407 0.491852ZM4.33577 1.22279L4.58814 1.47521C4.45938 1.62946 4.35721 1.80408 4.28583 1.9919L3.9403 1.89959C4.02742 1.65068 4.16169 1.42089 4.33577 1.22279ZM1.88636 3.31848C1.88643 3.26383 1.90816 3.21144 1.94681 3.1728C1.98545 3.13416 2.03784 3.11242 2.09248 3.11235H2.27622V3.22914C2.27622 3.27663 2.29508 3.32216 2.32866 3.35574C2.36223 3.38931 2.40777 3.40817 2.45525 3.40817C2.50273 3.40817 2.54827 3.38931 2.58184 3.35574C2.61542 3.32216 2.63428 3.27663 2.63428 3.22914V3.1124H2.95893V3.22919C2.95946 3.27632 2.97856 3.32133 3.01207 3.35447C3.04559 3.3876 3.09082 3.40619 3.13795 3.40619C3.18508 3.40619 3.23031 3.3876 3.26382 3.35447C3.29733 3.32133 3.31643 3.27632 3.31697 3.22919V3.1124H3.49651C3.54175 3.34771 3.61948 3.57559 3.72746 3.7895H2.09248C2.03784 3.78942 1.98545 3.76768 1.94681 3.72905C1.90817 3.69041 1.88643 3.63802 1.88636 3.58338V3.31848Z" fill="#2563EB"/>
<path d="M6.10474 3.20448C6.10467 3.29602 6.13175 3.38553 6.18256 3.46167C6.23336 3.53782 6.30561 3.59719 6.39017 3.63226C6.47472 3.66734 6.56778 3.67656 6.65757 3.65874C6.74736 3.64092 6.82984 3.59688 6.8946 3.53217C6.95935 3.46747 7.00346 3.38501 7.02134 3.29523C7.03923 3.20546 7.03008 3.11239 6.99507 3.02782C6.96005 2.94324 6.90074 2.87094 6.82463 2.82008C6.74852 2.76921 6.65904 2.74207 6.5675 2.74207C6.44486 2.74217 6.32727 2.79091 6.24051 2.8776C6.15376 2.96428 6.10493 3.08184 6.10474 3.20448ZM6.67222 3.20448C6.67229 3.22521 6.66621 3.24549 6.65475 3.26276C6.64329 3.28003 6.62696 3.29351 6.60783 3.3015C6.5887 3.30948 6.56763 3.3116 6.54729 3.30761C6.52696 3.30361 6.50826 3.29366 6.49358 3.27903C6.4789 3.2644 6.46889 3.24574 6.46481 3.22542C6.46074 3.20509 6.4628 3.18402 6.47071 3.16486C6.47863 3.1457 6.49205 3.12933 6.50928 3.1178C6.52651 3.10628 6.54677 3.10013 6.5675 3.10013C6.5952 3.10014 6.62178 3.11113 6.64141 3.13068C6.66103 3.15024 6.67211 3.17677 6.67222 3.20448Z" fill="#2563EB"/>
<path d="M5.43267 2.53317C5.52414 2.53312 5.61354 2.50595 5.68957 2.45509C5.76559 2.40424 5.82484 2.33198 5.8598 2.24746C5.89476 2.16294 5.90388 2.06995 5.886 1.98024C5.86812 1.89054 5.82404 1.80815 5.75934 1.7435C5.69464 1.67884 5.61221 1.63483 5.5225 1.61701C5.43278 1.5992 5.3398 1.60838 5.2553 1.64341C5.1708 1.67844 5.09859 1.73773 5.04779 1.8138C4.99699 1.88987 4.96989 1.97929 4.96991 2.07075C4.97009 2.1934 5.01892 2.31096 5.10567 2.39765C5.19243 2.48434 5.31003 2.53308 5.43267 2.53317ZM5.43267 1.96622C5.45332 1.96627 5.47349 1.97243 5.49063 1.98394C5.50778 1.99545 5.52113 2.01178 5.529 2.03087C5.53687 2.04996 5.53891 2.07095 5.53485 2.0912C5.5308 2.11144 5.52084 2.13003 5.50622 2.14462C5.49161 2.15921 5.473 2.16914 5.45275 2.17316C5.43249 2.17718 5.4115 2.1751 5.39243 2.1672C5.37335 2.15929 5.35705 2.14591 5.34557 2.12875C5.33409 2.11158 5.32796 2.0914 5.32795 2.07075C5.32798 2.043 5.33903 2.0164 5.35867 1.99679C5.3783 1.97717 5.40492 1.96615 5.43267 1.96615V1.96622Z" fill="#2563EB"/>
<path d="M5.3061 3.33109C5.32272 3.34772 5.34245 3.36091 5.36417 3.36991C5.38589 3.37891 5.40917 3.38354 5.43268 3.38354C5.45619 3.38354 5.47947 3.37891 5.50118 3.36991C5.5229 3.36091 5.54264 3.34772 5.55925 3.33109L6.69406 2.19735C6.71096 2.18079 6.7244 2.16104 6.73362 2.13925C6.74284 2.11746 6.74765 2.09406 6.74776 2.0704C6.74788 2.04674 6.74331 2.0233 6.73431 2.00142C6.72531 1.97954 6.71206 1.95966 6.69533 1.94293C6.6786 1.9262 6.65872 1.91295 6.63684 1.90395C6.61496 1.89496 6.59151 1.89039 6.56785 1.89051C6.54419 1.89063 6.52079 1.89543 6.499 1.90465C6.47721 1.91387 6.45747 1.92732 6.44091 1.94422L5.3061 3.07794C5.28948 3.09456 5.27629 3.11429 5.26729 3.13601C5.25829 3.15773 5.25366 3.18101 5.25366 3.20452C5.25366 3.22803 5.25829 3.2513 5.26729 3.27302C5.27629 3.29474 5.28948 3.31447 5.3061 3.33109Z" fill="#2563EB"/>
<path d="M9.36734 7.87458L7.79689 8.95587C7.72873 8.83719 7.63057 8.7385 7.51225 8.66971C7.39393 8.60092 7.2596 8.56445 7.12274 8.56393H6.16966C6.13754 8.56466 6.10562 8.55854 6.07605 8.54596C6.04648 8.53339 6.01992 8.51465 5.99816 8.49101C5.6692 8.10528 4.79024 7.99767 4.26983 7.99767C3.79244 7.99767 3.18635 8.07457 2.77193 8.30815C2.66238 8.36842 2.5387 8.3983 2.41371 8.39469H2.1444V8.3856C2.14407 8.22722 2.08094 8.07545 1.96885 7.96356C1.85677 7.85167 1.70488 7.78881 1.5465 7.78876H0.708488C0.684977 7.78875 0.661694 7.79337 0.63997 7.80236C0.618246 7.81135 0.598508 7.82454 0.581883 7.84116C0.565258 7.85779 0.552073 7.87752 0.543081 7.89925C0.53409 7.92097 0.529468 7.94425 0.52948 7.96777V11.7286C0.529465 11.7521 0.534084 11.7754 0.543075 11.7971C0.552065 11.8189 0.56525 11.8386 0.581875 11.8552C0.5985 11.8719 0.61824 11.885 0.639965 11.894C0.66169 11.903 0.684975 11.9077 0.708488 11.9076H1.5465C1.70488 11.9076 1.85677 11.8447 1.96886 11.7328C2.08095 11.6209 2.14408 11.4692 2.1444 11.3108V11.3101H2.57255L5.50666 11.8758C6.04182 11.9681 6.53158 11.8502 6.93323 11.5751L11.3931 8.5038C11.4125 8.49047 11.429 8.47346 11.4418 8.45373C11.4546 8.43401 11.4634 8.41195 11.4676 8.38883C11.4719 8.36571 11.4715 8.34198 11.4666 8.31899C11.4617 8.296 11.4523 8.27421 11.4389 8.25487C11.2146 7.9298 10.8703 7.70713 10.4819 7.63582C10.0934 7.5645 9.6925 7.65039 9.36734 7.87458ZM1.78636 11.3108C1.78616 11.3742 1.76079 11.435 1.71583 11.4798C1.67086 11.5246 1.60996 11.5497 1.5465 11.5496H0.887588V8.1468H1.5465C1.60996 8.14672 1.67085 8.17182 1.71582 8.21659C1.76079 8.26136 1.78616 8.32214 1.78636 8.3856V11.3108ZM6.73062 11.2799C6.40586 11.5021 6.00875 11.5988 5.57116 11.5237C2.43732 10.9204 2.62281 10.952 2.58963 10.952H2.14424V8.75275H2.41364C2.61713 8.75275 2.79826 8.70731 2.95002 8.6189C3.30644 8.41876 3.86077 8.35583 4.26976 8.35583C4.67686 8.35583 5.48936 8.44569 5.72746 8.72575C5.78304 8.78794 5.8512 8.8376 5.92742 8.87145C6.00365 8.9053 6.08619 8.92256 6.1696 8.92209H7.12267C7.1779 8.92173 7.23264 8.9323 7.28376 8.95319C7.33488 8.97408 7.38136 9.00489 7.42052 9.04382C7.45968 9.08276 7.49075 9.12906 7.51194 9.18006C7.53312 9.23106 7.54401 9.28575 7.54396 9.34097C7.54391 9.3962 7.53294 9.45086 7.51167 9.50183C7.4904 9.55279 7.45926 9.59904 7.42003 9.63792C7.38081 9.67679 7.33428 9.70751 7.28312 9.72832C7.23197 9.74913 7.1772 9.75961 7.12198 9.75916H4.47116C4.42403 9.75969 4.37902 9.77879 4.34588 9.8123C4.31274 9.84582 4.29416 9.89105 4.29416 9.93818C4.29416 9.98531 4.31274 10.0305 4.34588 10.064C4.37902 10.0976 4.42403 10.1167 4.47116 10.1172H7.12205C7.22566 10.1174 7.32826 10.0968 7.42377 10.0566C7.51927 10.0164 7.60575 9.95748 7.67808 9.88328C7.7504 9.80909 7.80711 9.72114 7.84485 9.62464C7.88258 9.52814 7.90057 9.42506 7.89776 9.32148L9.5703 8.16964C9.79163 8.0167 10.0603 7.94771 10.3279 7.97507C10.5955 8.00243 10.8446 8.12436 11.0304 8.31893L6.73062 11.2799Z" fill="#2563EB"/>
<path d="M1.46347 10.9655C1.43842 10.94 1.40635 10.9226 1.37135 10.9154C1.33636 10.9082 1.30001 10.9116 1.26695 10.9252C1.23389 10.9387 1.2056 10.9618 1.18569 10.9914C1.16578 11.0211 1.15515 11.056 1.15515 11.0917C1.15515 11.1275 1.16578 11.1624 1.18569 11.1921C1.2056 11.2217 1.23389 11.2448 1.26695 11.2583C1.30001 11.2719 1.33636 11.2753 1.37135 11.2681C1.40635 11.2609 1.43842 11.2434 1.46347 11.218C1.4805 11.2019 1.49393 11.1825 1.50288 11.1609C1.51183 11.1393 1.51609 11.116 1.51539 11.0926C1.51608 11.069 1.51182 11.0455 1.50288 11.0236C1.49393 11.0017 1.48051 10.9819 1.46347 10.9655Z" fill="#2563EB"/>
</g>
<defs>
<clipPath id="clip0_413_6932">
<rect width="12" height="12" fill="white"/>
</clipPath>
</defs>
</svg>
