<svg width="12" height="12" viewBox="0 0 12 12" fill="none" xmlns="http://www.w3.org/2000/svg">
<g clip-path="url(#clip0_413_6993)">
<path fill-rule="evenodd" clip-rule="evenodd" d="M9.5625 1.875H3.5625V1.125C3.5625 0.710812 3.22688 0.375 2.8125 0.375C2.39812 0.375 2.0625 0.710812 2.0625 1.125V1.3125C2.0625 1.416 2.14687 1.5 2.25 1.5C2.35313 1.5 2.4375 1.416 2.4375 1.3125V1.125C2.4375 0.917812 2.60437 0.75 2.8125 0.75C3.02063 0.75 3.1875 0.917812 3.1875 1.125V1.875H0.9375C0.688125 1.875 0.449993 1.97381 0.273743 2.1495C0.0993677 2.32538 0 2.56388 0 2.8125V10.6875C0 10.9361 0.0993677 11.1746 0.273743 11.3505C0.449993 11.5262 0.688125 11.625 0.9375 11.625H11.0625C11.3119 11.625 11.55 11.5262 11.7263 11.3505C11.9006 11.1746 12 10.9361 12 10.6875V2.8125C12 2.56388 11.9006 2.32538 11.7263 2.1495C11.55 1.97381 11.3119 1.875 11.0625 1.875H9.9375V1.125C9.9375 0.710812 9.60188 0.375 9.1875 0.375C8.77312 0.375 8.4375 0.710812 8.4375 1.125V1.3125C8.4375 1.416 8.52187 1.5 8.625 1.5C8.72813 1.5 8.8125 1.416 8.8125 1.3125V1.125C8.8125 0.917812 8.97937 0.75 9.1875 0.75C9.39563 0.75 9.5625 0.917812 9.5625 1.125V1.875ZM11.625 4.125V10.6875C11.625 10.8368 11.565 10.9798 11.46 11.0852C11.355 11.1908 11.2125 11.25 11.0625 11.25C8.9625 11.25 3.0375 11.25 0.9375 11.25C0.7875 11.25 0.645001 11.1908 0.540001 11.0852C0.435001 10.9798 0.375 10.8368 0.375 10.6875V4.125H11.625ZM6 5.35987L5.35126 4.71019C5.07001 4.42988 4.61625 4.42988 4.335 4.71019C4.2 4.84481 4.125 5.02744 4.125 5.21794C4.125 5.2815 4.15312 5.37712 4.20937 5.47987C4.27124 5.58994 4.36126 5.71537 4.44001 5.8125H3.75C3.6 5.8125 3.4575 5.87175 3.3525 5.97731C3.2475 6.08269 3.1875 6.22575 3.1875 6.375V6.9375C3.1875 7.041 3.27187 7.125 3.375 7.125H3.5625V10.3125C3.5625 10.4618 3.6225 10.6048 3.7275 10.7102C3.8325 10.8158 3.975 10.875 4.125 10.875H7.875C8.025 10.875 8.1675 10.8158 8.2725 10.7102C8.3775 10.6048 8.4375 10.4618 8.4375 10.3125V7.125H8.625C8.72813 7.125 8.8125 7.041 8.8125 6.9375V6.375C8.8125 6.22575 8.7525 6.08269 8.6475 5.97731C8.5425 5.87175 8.4 5.8125 8.25 5.8125H7.55999C7.63874 5.71537 7.72876 5.58994 7.79063 5.47987C7.84688 5.37712 7.875 5.2815 7.875 5.21794C7.875 5.02744 7.8 4.845 7.665 4.71037C7.38375 4.43006 6.92999 4.42988 6.65062 4.71019L6 5.35987ZM8.0625 7.125V10.3125C8.0625 10.3622 8.04187 10.41 8.00812 10.4451C7.97249 10.4803 7.92563 10.5 7.875 10.5H4.125C4.07625 10.5 4.02751 10.4803 3.99188 10.4451C3.95813 10.41 3.9375 10.3622 3.9375 10.3125V7.125H8.0625ZM6.75 9C6.43875 9 6.1875 9.252 6.1875 9.5625C6.1875 9.873 6.43875 10.125 6.75 10.125C7.06125 10.125 7.3125 9.873 7.3125 9.5625C7.3125 9.252 7.06125 9 6.75 9ZM6.99188 7.55494L4.74188 9.80494C4.66876 9.87806 4.66876 9.99694 4.74188 10.0701C4.81501 10.1432 4.93499 10.1432 5.00812 10.0701L7.25812 7.82006C7.33124 7.74694 7.33124 7.62806 7.25812 7.55494C7.18499 7.48181 7.06501 7.48181 6.99188 7.55494ZM6.75 9.375C6.85313 9.375 6.9375 9.459 6.9375 9.5625C6.9375 9.666 6.85313 9.75 6.75 9.75C6.64687 9.75 6.5625 9.666 6.5625 9.5625C6.5625 9.459 6.64687 9.375 6.75 9.375ZM5.25 7.5C4.93875 7.5 4.6875 7.752 4.6875 8.0625C4.6875 8.373 4.93875 8.625 5.25 8.625C5.56125 8.625 5.8125 8.373 5.8125 8.0625C5.8125 7.752 5.56125 7.5 5.25 7.5ZM5.25 7.875C5.35313 7.875 5.4375 7.959 5.4375 8.0625C5.4375 8.166 5.35313 8.25 5.25 8.25C5.14687 8.25 5.0625 8.166 5.0625 8.0625C5.0625 7.959 5.14687 7.875 5.25 7.875ZM6.1875 6.1875H8.25C8.30063 6.1875 8.34749 6.20719 8.38312 6.24244C8.41687 6.2775 8.4375 6.32531 8.4375 6.375V6.75H6.1875V6.1875ZM5.8125 6.1875V6.75H3.5625V6.375C3.5625 6.32531 3.58313 6.2775 3.61688 6.24244C3.65251 6.20719 3.70125 6.1875 3.75 6.1875H5.8125ZM7.04812 5.8125L7.17938 5.67994C7.23376 5.62594 7.34437 5.48831 7.425 5.35987C7.45875 5.30587 7.49438 5.223 7.5 5.21175C7.49813 5.12306 7.46249 5.03831 7.40062 4.9755C7.39874 4.9755 7.39874 4.9755 7.39874 4.97531C7.26562 4.84163 7.04813 4.84163 6.915 4.97531L6.07688 5.8125H7.04812ZM5.73562 5.625L5.085 4.97531C4.95187 4.84163 4.73438 4.84163 4.60126 4.97531C4.53751 5.03813 4.50187 5.12306 4.5 5.21175C4.50562 5.223 4.54125 5.30587 4.575 5.35987C4.65563 5.48831 4.76624 5.62594 4.82062 5.67994L4.95188 5.8125H5.54812L5.73562 5.625ZM9.9375 2.25V2.625C9.9375 3.03919 9.60188 3.375 9.1875 3.375C8.77312 3.375 8.4375 3.03919 8.4375 2.625V2.25H3.5625V2.625C3.5625 3.03919 3.22688 3.375 2.8125 3.375C2.39812 3.375 2.0625 3.03919 2.0625 2.625V2.25H0.9375C0.7875 2.25 0.645001 2.30925 0.540001 2.41481C0.435001 2.52019 0.375 2.66325 0.375 2.8125V3.75H11.625V2.8125C11.625 2.66325 11.565 2.52019 11.46 2.41481C11.355 2.30925 11.2125 2.25 11.0625 2.25H9.9375ZM3.1875 2.25H2.4375V2.625C2.4375 2.83219 2.60437 3 2.8125 3C3.02063 3 3.1875 2.83219 3.1875 2.625V2.25ZM9.5625 2.25H8.8125V2.625C8.8125 2.83219 8.97937 3 9.1875 3C9.39563 3 9.5625 2.83219 9.5625 2.625V2.25Z" fill="#2563EB"/>
</g>
<defs>
<clipPath id="clip0_413_6993">
<rect width="12" height="12" fill="white"/>
</clipPath>
</defs>
</svg>
