<svg width="24" height="24" viewBox="0 0 24 24" fill="none" xmlns="http://www.w3.org/2000/svg">
<path d="M20.2676 8.38393C19.0566 7.46297 17.8207 6.72769 16.5943 6.19866C15.0387 5.5276 13.493 5.18733 12 5.18733C10.5071 5.18733 8.96138 5.5276 7.40578 6.19866C6.17934 6.72774 4.94348 7.46297 3.73247 8.38393C1.68112 9.94397 0 12 0 12C0 12 1.68113 14.056 3.73238 15.6161C4.94339 16.537 6.17925 17.2723 7.40569 17.8013C8.96128 18.4724 10.507 18.8127 12 18.8127C13.4929 18.8127 15.0386 18.4724 16.5942 17.8013C17.8207 17.2723 19.0565 16.537 20.2675 15.6161C22.3189 14.056 24 12 24 12C24 12 22.3189 9.94397 20.2676 8.38393ZM19.401 14.5135C16.2462 16.9045 13.635 17.4064 12 17.4064C10.365 17.4064 7.75383 16.9045 4.599 14.5135C3.31219 13.5383 2.3407 12.5518 1.83403 12C2.3408 11.4481 3.31219 10.4618 4.599 9.48647C7.75383 7.09552 10.365 6.59363 12 6.59363C13.635 6.59363 16.2462 7.09552 19.401 9.48652C20.6878 10.4618 21.6592 11.4481 22.166 12.0001C21.6592 12.5519 20.6878 13.5383 19.401 14.5135Z" fill="#2563eb"/>
<path d="M15.1891 8.98421C14.3904 8.12649 13.2564 7.58977 12.0001 7.58977C9.58768 7.58977 7.62512 9.56817 7.62512 12C7.62512 14.4317 9.58773 16.4101 12.0001 16.4101C14.4124 16.4101 16.375 14.4317 16.375 12C16.375 10.8582 15.9423 9.81638 15.2336 9.03235C15.2191 9.01603 15.2041 9.00014 15.1891 8.98421ZM14.4504 10.6413C14.4504 11.1962 14.0026 11.6477 13.4521 11.6477C12.9016 11.6477 12.4537 11.1963 12.4537 10.6413C12.4537 10.0864 12.9016 9.63497 13.4521 9.63497C13.7231 9.63497 13.9689 9.74475 14.1489 9.92208C14.1598 9.93347 14.1707 9.94477 14.1813 9.9563C14.3477 10.1362 14.4504 10.3766 14.4504 10.6413ZM12.0001 15.0039C10.3569 15.0039 9.02012 13.6564 9.02012 12C9.02012 10.4498 10.1911 9.17025 11.6882 9.01256C11.2975 9.44208 11.0587 10.014 11.0587 10.6413C11.0587 11.9716 12.1323 13.054 13.4521 13.054C14.0103 13.054 14.5241 12.8598 14.9316 12.5356C14.6802 13.9372 13.4618 15.0039 12.0001 15.0039Z" fill="#2563eb"/>
</svg>
