<svg width="12" height="12" viewBox="0 0 12 12" fill="none" xmlns="http://www.w3.org/2000/svg">
<g clip-path="url(#clip0_413_6927)">
<path d="M10.206 8.6772L9.10922 9.774L8.62922 9.294C8.55842 9.2232 8.44442 9.2232 8.37482 9.294C8.30402 9.3648 8.30402 9.4788 8.37482 9.5484L8.98202 10.1556C9.01682 10.1904 9.06362 10.2084 9.10922 10.2084C9.15482 10.2084 9.20162 10.1904 9.23642 10.1556L10.4604 8.9316C10.5312 8.8608 10.5312 8.7468 10.4604 8.6772C10.3896 8.6076 10.2756 8.6076 10.206 8.6772Z" fill="#2563EB"/>
<path d="M5.99998 0.420044C2.92318 0.420044 0.419983 2.92324 0.419983 6.00004C0.419983 9.07684 2.92318 11.58 5.99998 11.58C6.73918 11.58 7.45558 11.436 8.13358 11.1552C8.50438 11.4288 8.95558 11.58 9.41758 11.58C10.6104 11.58 11.58 10.6104 11.58 9.41764C11.58 8.95564 11.4288 8.50444 11.1552 8.13364C11.436 7.45564 11.58 6.73924 11.58 6.00004C11.58 2.92324 9.07678 0.420044 5.99998 0.420044ZM5.99998 11.22C3.12118 11.22 0.779983 8.87884 0.779983 6.00004C0.779983 3.12124 3.12118 0.780044 5.99998 0.780044C8.87878 0.780044 11.22 3.12124 11.22 6.00004C11.22 6.63244 11.1084 7.24684 10.8888 7.83244C10.8828 7.82644 10.8744 7.82164 10.8684 7.81564C10.8336 7.78444 10.7976 7.75324 10.7604 7.72444C10.7484 7.71484 10.7352 7.70524 10.7232 7.69564C10.6776 7.66084 10.6308 7.62724 10.5828 7.59724C10.5756 7.59244 10.5696 7.58884 10.5624 7.58524C10.5192 7.55764 10.4748 7.53244 10.4292 7.50844C10.416 7.50124 10.4016 7.49404 10.3884 7.48684C10.3872 7.48684 10.3872 7.48564 10.386 7.48564C10.5468 7.00924 10.6296 6.51004 10.6296 6.00244C10.6296 3.45004 8.55238 1.37284 5.99998 1.37284C3.44758 1.37284 1.37038 3.44764 1.37038 6.00004C1.37038 8.55244 3.44758 10.6296 5.99998 10.6296C6.50878 10.6296 7.00678 10.5468 7.48318 10.386C7.48318 10.3872 7.48438 10.3884 7.48438 10.3884C7.49158 10.4016 7.49878 10.416 7.50598 10.4292C7.53118 10.476 7.55638 10.5204 7.58518 10.5648C7.58878 10.5708 7.59118 10.5756 7.59478 10.5816C7.62598 10.6308 7.65958 10.6776 7.69558 10.7244C7.70398 10.7352 7.71358 10.7472 7.72198 10.758C7.75318 10.7964 7.78438 10.8348 7.81798 10.872C7.82278 10.878 7.82758 10.884 7.83238 10.8888C7.24678 11.1084 6.63238 11.22 5.99998 11.22ZM9.94918 7.32124C9.91198 7.31164 9.87598 7.30324 9.83878 7.29604C9.81718 7.29124 9.79558 7.28764 9.77398 7.28404C9.73438 7.27804 9.69358 7.27204 9.65398 7.26844C9.63478 7.26604 9.61558 7.26364 9.59758 7.26244C9.53878 7.25764 9.47878 7.25524 9.41878 7.25524C8.93398 7.25524 8.48638 7.41724 8.12518 7.68844C8.21518 7.52524 8.26678 7.33804 8.26678 7.13764C8.26678 6.50884 7.75558 5.99764 7.12558 5.99764C6.49558 5.99764 5.98558 6.50884 5.98558 7.13764C5.98558 7.76644 6.49678 8.27884 7.12558 8.27884C7.32718 8.27884 7.51678 8.22604 7.68118 8.13364C7.41358 8.49364 7.25398 8.93764 7.25398 9.41884C7.25398 9.47884 7.25638 9.53764 7.26118 9.59764C7.26238 9.61684 7.26598 9.63604 7.26718 9.65524C7.27198 9.69484 7.27678 9.73444 7.28278 9.77404C7.28638 9.79684 7.29118 9.81844 7.29478 9.84124C7.30198 9.87724 7.31038 9.91444 7.31878 9.95044C7.32478 9.97324 7.32958 9.99484 7.33678 10.0164C7.34038 10.0284 7.34278 10.0416 7.34638 10.0536C6.91198 10.1976 6.45958 10.2708 5.99758 10.2708C3.64318 10.2708 1.72798 8.35564 1.72798 6.00124C1.72798 3.64684 3.64558 1.73044 5.99998 1.73044C8.35438 1.73044 10.2696 3.64564 10.2696 6.00004C10.2696 6.46204 10.1964 6.91444 10.0524 7.34884C10.0404 7.34524 10.0272 7.34284 10.014 7.33924C9.99238 7.33204 9.97078 7.32604 9.94918 7.32124ZM7.12558 7.91764C6.69478 7.91764 6.34558 7.56724 6.34558 7.13644C6.34558 6.70564 6.69598 6.35644 7.12558 6.35644C7.55518 6.35644 7.90678 6.70684 7.90678 7.13644C7.90678 7.56604 7.55638 7.91764 7.12558 7.91764ZM9.41758 11.22C9.00118 11.22 8.59558 11.0748 8.27398 10.8108C8.04118 10.62 7.85758 10.3716 7.74478 10.0944L7.72438 10.044C7.64998 9.84364 7.61278 9.63364 7.61278 9.41764C7.61278 8.42284 8.42158 7.61404 9.41638 7.61404C9.63118 7.61404 9.84238 7.65124 10.0416 7.72444C10.0596 7.73164 10.0764 7.73764 10.092 7.74364C10.3704 7.85764 10.6188 8.04004 10.8096 8.27284C11.0736 8.59444 11.2188 9.00004 11.2188 9.41644C11.22 10.4112 10.4112 11.22 9.41758 11.22Z" fill="#2563EB"/>
<path d="M7.83842 3.89636L3.88562 7.84916C3.81482 7.91996 3.81482 8.03396 3.88562 8.10356C3.92042 8.13836 3.96722 8.15636 4.01282 8.15636C4.05842 8.15636 4.10522 8.13836 4.14002 8.10356L8.09282 4.15076C8.16362 4.07996 8.16362 3.96596 8.09282 3.89636C8.02322 3.82556 7.90922 3.82556 7.83842 3.89636Z" fill="#2563EB"/>
<path d="M4.85283 6.00361C5.48163 6.00361 5.99283 5.49241 5.99283 4.86361C5.99283 4.23481 5.48163 3.72241 4.85283 3.72241C4.22403 3.72241 3.71283 4.23361 3.71283 4.86361C3.71283 5.49361 4.22283 6.00361 4.85283 6.00361ZM4.85283 4.08241C5.28363 4.08241 5.63283 4.43281 5.63283 4.86361C5.63283 5.29441 5.28243 5.64361 4.85283 5.64361C4.42323 5.64361 4.07283 5.29321 4.07283 4.86361C4.07283 4.43401 4.42203 4.08241 4.85283 4.08241Z" fill="#2563EB"/>
</g>
<defs>
<clipPath id="clip0_413_6927">
<rect width="12" height="12" fill="white"/>
</clipPath>
</defs>
</svg>
