<svg width="12" height="12" viewBox="0 0 12 12" fill="none" xmlns="http://www.w3.org/2000/svg">
<path d="M5.24998 10.5C2.76936 10.5 0.749983 8.48059 0.749983 5.99997C0.749983 5.17309 0.976858 4.36309 1.40436 3.65997L1.08373 3.46497C0.618733 4.22622 0.373108 5.10372 0.373108 5.99997C0.373108 8.68872 2.55936 10.875 5.24811 10.875C5.99436 10.875 6.70873 10.71 7.37061 10.3875L7.20561 10.05C6.59623 10.3481 5.93623 10.5 5.24811 10.5H5.24998Z" fill="#2563EB"/>
<path d="M5.25 1.5C7.73063 1.5 9.75 3.51938 9.75 6V6.06H10.125V6C10.125 3.31125 7.93875 1.125 5.25 1.125C4.0875 1.125 2.9625 1.54125 2.08313 2.295L2.32688 2.58C3.13875 1.88438 4.1775 1.5 5.25 1.5Z" fill="#2563EB"/>
<path d="M1.95185 2.94006L1.67623 2.68506C1.55248 2.82006 1.4456 2.94756 1.34998 3.07506L1.65185 3.29818C1.7381 3.18193 1.83748 3.06381 1.95185 2.93818V2.94006Z" fill="#2563EB"/>
<path d="M9.37502 6.37495C8.70189 6.37495 8.10002 6.67308 7.68752 7.14183V5.43745H7.87502C7.97814 5.43745 8.06252 5.35308 8.06252 5.24995V4.49995C8.06252 4.39683 7.97814 4.31245 7.87502 4.31245H6.44252L6.60752 4.14745C6.82689 3.92808 6.82689 3.57183 6.60752 3.35245C6.39002 3.14058 6.02627 3.14245 5.81439 3.35245L5.25189 3.91495L4.68939 3.35245C4.47752 3.14058 4.11564 3.13683 3.89439 3.35245C3.67502 3.57183 3.67502 3.92808 3.89439 4.14558L4.05939 4.31058H2.62689C2.52377 4.31058 2.43939 4.39495 2.43939 4.49808V5.24808C2.43939 5.3512 2.52377 5.43558 2.62689 5.43558H2.81439V8.62308C2.81439 8.7262 2.89877 8.81058 3.00189 8.81058H7.13627C7.23189 9.9637 8.19939 10.8731 9.37689 10.8731C10.6181 10.8731 11.6269 9.86433 11.6269 8.62308C11.6269 7.38183 10.6181 6.37308 9.37689 6.37308L9.37502 6.37495ZM7.31252 7.7287C7.21689 7.94995 7.15502 8.18808 7.13439 8.43745H5.81252V5.43745H7.31252V7.7287ZM5.43752 5.43745V8.43745H5.06252V5.43745H5.43752ZM6.07877 3.6187C6.15002 3.54745 6.27189 3.54745 6.34502 3.6187C6.41814 3.69183 6.41814 3.80995 6.34502 3.88308L5.91377 4.31433H5.38314L6.07877 3.62058V3.6187ZM4.15689 3.88308C4.08377 3.80995 4.08377 3.69183 4.15689 3.62058C4.23189 3.54745 4.35189 3.54745 4.42502 3.62058L5.12064 4.31433H4.59002L4.15877 3.88308H4.15689ZM2.81252 4.68933H7.68752V5.06433H2.81252V4.68933ZM3.18752 5.43933H4.68752V8.43933H3.18752V5.43933ZM9.37502 10.5018C8.34189 10.5018 7.50002 9.65995 7.50002 8.62683C7.50002 7.5937 8.34189 6.75183 9.37502 6.75183C10.4081 6.75183 11.25 7.5937 11.25 8.62683C11.25 9.65995 10.4081 10.5018 9.37502 10.5018Z" fill="#2563EB"/>
<path d="M8.30371 9.43005L10.1781 7.55562L10.4433 7.82075L8.56884 9.69518L8.30371 9.43005Z" fill="#2563EB"/>
<path d="M8.8125 8.625C9.12187 8.625 9.375 8.37187 9.375 8.0625C9.375 7.75313 9.12187 7.5 8.8125 7.5C8.50313 7.5 8.25 7.75313 8.25 8.0625C8.25 8.37187 8.50313 8.625 8.8125 8.625ZM8.8125 7.875C8.91563 7.875 9 7.95937 9 8.0625C9 8.16563 8.91563 8.25 8.8125 8.25C8.70937 8.25 8.625 8.16563 8.625 8.0625C8.625 7.95937 8.70937 7.875 8.8125 7.875Z" fill="#2563EB"/>
<path d="M9.9375 8.625C9.62813 8.625 9.375 8.87813 9.375 9.1875C9.375 9.49687 9.62813 9.75 9.9375 9.75C10.2469 9.75 10.5 9.49687 10.5 9.1875C10.5 8.87813 10.2469 8.625 9.9375 8.625ZM9.9375 9.375C9.83437 9.375 9.75 9.29063 9.75 9.1875C9.75 9.08437 9.83437 9 9.9375 9C10.0406 9 10.125 9.08437 10.125 9.1875C10.125 9.29063 10.0406 9.375 9.9375 9.375Z" fill="#2563EB"/>
<path d="M5.25 1.875V2.25C7.31812 2.25 9 3.93188 9 6H9.375C9.375 3.72562 7.52438 1.875 5.25 1.875Z" fill="#2563EB"/>
<path d="M1.125 6C1.125 8.27438 2.97562 10.125 5.25 10.125V9.75C3.18188 9.75 1.5 8.06812 1.5 6H1.125Z" fill="#2563EB"/>
</svg>
