<svg width="12" height="12" viewBox="0 0 12 12" fill="none" xmlns="http://www.w3.org/2000/svg">
<path d="M10.7955 7.01663L10.0781 5.22282V4.6875C10.0779 3.99225 9.91481 3.30672 9.60202 2.6858C9.28923 2.06488 8.8354 1.52582 8.27687 1.11179C7.71834 0.697766 7.07063 0.420267 6.38559 0.301519C5.70055 0.18277 4.99723 0.226071 4.33193 0.427955C3.66663 0.629838 3.05785 0.984694 2.55432 1.46411C2.0508 1.94353 1.66652 2.53418 1.43227 3.18878C1.19801 3.84338 1.12028 4.54373 1.2053 5.23377C1.29032 5.9238 1.53573 6.58435 1.92188 7.1625C2.53205 8.06754 2.85846 9.13399 2.85938 10.2255V11.625C2.85938 11.6623 2.87419 11.6981 2.90056 11.7244C2.92694 11.7508 2.9627 11.7656 3 11.7656H7.3125C7.34386 11.7656 7.37432 11.7551 7.39905 11.7358C7.42378 11.7165 7.44136 11.6895 7.449 11.6591L7.79719 10.2656H9.375C9.5614 10.2654 9.7401 10.1912 9.87191 10.0594C10.0037 9.92761 10.0779 9.74891 10.0781 9.5625V8.8125C10.0781 8.79404 10.0745 8.77575 10.0674 8.7587C10.0603 8.74164 10.05 8.72616 10.0369 8.71313L9.79988 8.47594L10.0003 8.37582C10.0237 8.36413 10.0433 8.34617 10.0571 8.32395C10.0708 8.30173 10.0781 8.27613 10.0781 8.25V7.64063H10.3731C10.4474 7.64066 10.5207 7.62245 10.5864 7.58761C10.6521 7.55276 10.7082 7.50234 10.7499 7.44076C10.7916 7.37917 10.8176 7.30831 10.8255 7.23437C10.8335 7.16043 10.8232 7.08566 10.7955 7.01663ZM10.3731 7.35938H9.9375C9.9002 7.35938 9.86444 7.37419 9.83806 7.40057C9.81169 7.42694 9.79688 7.46271 9.79688 7.5V8.163L9.49969 8.31169C9.47984 8.32171 9.46265 8.33629 9.44952 8.35423C9.43639 8.37217 9.42769 8.39297 9.42414 8.41492C9.4206 8.43687 9.4223 8.45934 9.4291 8.48051C9.43591 8.50167 9.44763 8.52093 9.46331 8.53669L9.79706 8.87063V9.5625C9.79691 9.67438 9.75239 9.78163 9.67327 9.86072C9.59414 9.93981 9.48688 9.98428 9.375 9.98438H7.6125C7.42768 9.98455 7.24568 9.93899 7.08273 9.85178C6.91978 9.76456 6.78093 9.63839 6.67856 9.4845C6.66842 9.46892 6.65528 9.4555 6.63992 9.44502C6.62455 9.43455 6.60726 9.42722 6.58904 9.42348C6.57083 9.41973 6.55205 9.41963 6.53379 9.42319C6.51554 9.42675 6.49817 9.43389 6.4827 9.44421C6.46723 9.45453 6.45395 9.46781 6.44365 9.48329C6.43334 9.49877 6.42621 9.51614 6.42266 9.5344C6.41911 9.55265 6.41922 9.57143 6.42298 9.58964C6.42674 9.60786 6.43408 9.62514 6.44456 9.6405C6.56273 9.81814 6.71992 9.96644 6.90414 10.0741C7.08835 10.1817 7.29473 10.2458 7.5075 10.2615L7.20188 11.4844H3.14063V10.2246C3.14008 9.07735 2.79734 7.95637 2.15625 7.005C1.79431 6.46334 1.56425 5.84444 1.4845 5.19788C1.40475 4.55132 1.47753 3.89506 1.69701 3.28169C1.91648 2.66831 2.27655 2.11485 2.74838 1.66565C3.22021 1.21646 3.79068 0.883995 4.41409 0.694905C5.03751 0.505816 5.69654 0.465351 6.33841 0.576754C6.98027 0.688156 7.58713 0.948329 8.11037 1.33643C8.6336 1.72454 9.05868 2.22978 9.35155 2.8117C9.64441 3.39362 9.79693 4.03604 9.79688 4.6875V5.25C9.79684 5.26787 9.80028 5.28557 9.807 5.30213L10.5345 7.12088C10.545 7.14725 10.549 7.17581 10.5459 7.20405C10.5429 7.23229 10.5329 7.25935 10.517 7.28286C10.5011 7.30638 10.4796 7.32563 10.4545 7.33894C10.4294 7.35224 10.4015 7.35938 10.3731 7.35938Z" fill="#2563EB"/>
<path d="M5.90625 6.14062H6.28125C6.31855 6.14062 6.35431 6.12581 6.38069 6.09944C6.40706 6.07306 6.42188 6.0373 6.42188 6C6.42188 5.9627 6.40706 5.92694 6.38069 5.90056C6.35431 5.87419 6.31855 5.85938 6.28125 5.85938H5.90625C5.86895 5.85938 5.83319 5.87419 5.80681 5.90056C5.78044 5.92694 5.76562 5.9627 5.76562 6C5.76562 6.0373 5.78044 6.07306 5.80681 6.09944C5.83319 6.12581 5.86895 6.14062 5.90625 6.14062Z" fill="#2563EB"/>
<path d="M5.90625 5.39062H6.28125C6.31855 5.39062 6.35431 5.37581 6.38069 5.34944C6.40706 5.32306 6.42188 5.2873 6.42188 5.25C6.42188 5.2127 6.40706 5.17694 6.38069 5.15056C6.35431 5.12419 6.31855 5.10938 6.28125 5.10938H5.90625C5.86895 5.10937 5.83319 5.12419 5.80681 5.15056C5.78044 5.17694 5.76562 5.2127 5.76562 5.25C5.76562 5.2873 5.78044 5.32306 5.80681 5.34944C5.83319 5.37581 5.86895 5.39062 5.90625 5.39062Z" fill="#2563EB"/>
<path d="M4.96875 5.39062H5.34375C5.38105 5.39062 5.41681 5.37581 5.44319 5.34944C5.46956 5.32306 5.48438 5.2873 5.48438 5.25C5.48438 5.2127 5.46956 5.17694 5.44319 5.15056C5.41681 5.12419 5.38105 5.10938 5.34375 5.10938H4.96875C4.93145 5.10937 4.89569 5.12419 4.86931 5.15056C4.84294 5.17694 4.82812 5.2127 4.82812 5.25C4.82812 5.2873 4.84294 5.32306 4.86931 5.34944C4.89569 5.37581 4.93145 5.39062 4.96875 5.39062Z" fill="#2563EB"/>
<path d="M5.90625 4.64062H6.28125C6.31855 4.64062 6.35431 4.62581 6.38069 4.59944C6.40706 4.57306 6.42188 4.5373 6.42188 4.5C6.42188 4.4627 6.40706 4.42694 6.38069 4.40056C6.35431 4.37419 6.31855 4.35938 6.28125 4.35938H5.90625C5.86895 4.35938 5.83319 4.37419 5.80681 4.40056C5.78044 4.42694 5.76562 4.4627 5.76562 4.5C5.76562 4.5373 5.78044 4.57306 5.80681 4.59944C5.83319 4.62581 5.86895 4.64062 5.90625 4.64062Z" fill="#2563EB"/>
<path d="M6.84375 5.39062H7.21875C7.25605 5.39062 7.29181 5.37581 7.31819 5.34944C7.34456 5.32306 7.35938 5.2873 7.35938 5.25C7.35938 5.2127 7.34456 5.17694 7.31819 5.15056C7.29181 5.12419 7.25605 5.10938 7.21875 5.10938H6.84375C6.80645 5.10937 6.77069 5.12419 6.74431 5.15056C6.71794 5.17694 6.70312 5.2127 6.70312 5.25C6.70312 5.2873 6.71794 5.32306 6.74431 5.34944C6.77069 5.37581 6.80645 5.39062 6.84375 5.39062Z" fill="#2563EB"/>
<path d="M6.84375 4.64062H7.21875C7.25605 4.64062 7.29181 4.62581 7.31819 4.59944C7.34456 4.57306 7.35938 4.5373 7.35938 4.5C7.35938 4.4627 7.34456 4.42694 7.31819 4.40056C7.29181 4.37419 7.25605 4.35938 7.21875 4.35938H6.84375C6.80645 4.35938 6.77069 4.37419 6.74431 4.40056C6.71794 4.42694 6.70312 4.4627 6.70312 4.5C6.70312 4.5373 6.71794 4.57306 6.74431 4.59944C6.77069 4.62581 6.80645 4.64062 6.84375 4.64062Z" fill="#2563EB"/>
<path d="M4.96875 6.14062H5.34375C5.38105 6.14062 5.41681 6.12581 5.44319 6.09944C5.46956 6.07306 5.48438 6.0373 5.48438 6C5.48438 5.9627 5.46956 5.92694 5.44319 5.90056C5.41681 5.87419 5.38105 5.85938 5.34375 5.85938H4.96875C4.93145 5.85938 4.89569 5.87419 4.86931 5.90056C4.84294 5.92694 4.82812 5.9627 4.82812 6C4.82812 6.0373 4.84294 6.07306 4.86931 6.09944C4.89569 6.12581 4.93145 6.14062 4.96875 6.14062Z" fill="#2563EB"/>
<path d="M6.84375 6.14062H7.21875C7.25605 6.14062 7.29181 6.12581 7.31819 6.09944C7.34456 6.07306 7.35938 6.0373 7.35938 6C7.35938 5.9627 7.34456 5.92694 7.31819 5.90056C7.29181 5.87419 7.25605 5.85938 7.21875 5.85938H6.84375C6.80645 5.85938 6.77069 5.87419 6.74431 5.90056C6.71794 5.92694 6.70312 5.9627 6.70312 6C6.70312 6.0373 6.71794 6.07306 6.74431 6.09944C6.77069 6.12581 6.80645 6.14062 6.84375 6.14062Z" fill="#2563EB"/>
<path d="M4.96875 4.64062H5.34375C5.38105 4.64062 5.41681 4.62581 5.44319 4.59944C5.46956 4.57306 5.48438 4.5373 5.48438 4.5C5.48438 4.4627 5.46956 4.42694 5.44319 4.40056C5.41681 4.37419 5.38105 4.35938 5.34375 4.35938H4.96875C4.93145 4.35938 4.89569 4.37419 4.86931 4.40056C4.84294 4.42694 4.82812 4.4627 4.82812 4.5C4.82812 4.5373 4.84294 4.57306 4.86931 4.59944C4.89569 4.62581 4.93145 4.64062 4.96875 4.64062Z" fill="#2563EB"/>
<path d="M7.40625 2.67188H7.07812V2.25C7.07812 2.2127 7.06331 2.17694 7.03694 2.15056C7.01056 2.12419 6.9748 2.10938 6.9375 2.10938C6.9002 2.10938 6.86444 2.12419 6.83806 2.15056C6.81169 2.17694 6.79688 2.2127 6.79688 2.25V2.67188H5.76562V2.25C5.76562 2.2127 5.75081 2.17694 5.72444 2.15056C5.69806 2.12419 5.6623 2.10938 5.625 2.10938C5.5877 2.10938 5.55194 2.12419 5.52556 2.15056C5.49919 2.17694 5.48438 2.2127 5.48438 2.25V2.67188H4.45312V2.25C4.45312 2.2127 4.43831 2.17694 4.41194 2.15056C4.38556 2.12419 4.3498 2.10938 4.3125 2.10938C4.2752 2.10938 4.23944 2.12419 4.21306 2.15056C4.18669 2.17694 4.17188 2.2127 4.17188 2.25V2.67188H3.84375C3.70703 2.67197 3.57593 2.72633 3.47926 2.82301C3.38258 2.91968 3.32822 3.05078 3.32812 3.1875V6.1875C3.32822 6.32422 3.38258 6.45532 3.47926 6.55199C3.57593 6.64867 3.70703 6.70303 3.84375 6.70312H7.40625C7.54297 6.70303 7.67407 6.64867 7.77074 6.55199C7.86742 6.45532 7.92178 6.32422 7.92188 6.1875V3.1875C7.92178 3.05078 7.86742 2.91968 7.77074 2.82301C7.67407 2.72633 7.54297 2.67197 7.40625 2.67188ZM7.64062 6.1875C7.64053 6.24963 7.6158 6.30919 7.57187 6.35312C7.52794 6.39705 7.46838 6.42178 7.40625 6.42188H3.84375C3.78162 6.42178 3.72206 6.39705 3.67813 6.35312C3.6342 6.30919 3.60947 6.24963 3.60938 6.1875V4.07812H7.64062V6.1875ZM7.64062 3.79688H3.60938V3.1875C3.60947 3.12537 3.6342 3.06581 3.67813 3.02188C3.72206 2.97795 3.78162 2.95322 3.84375 2.95312H4.17188V3.375C4.17188 3.4123 4.18669 3.44806 4.21306 3.47444C4.23944 3.50081 4.2752 3.51562 4.3125 3.51562C4.3498 3.51562 4.38556 3.50081 4.41194 3.47444C4.43831 3.44806 4.45312 3.4123 4.45312 3.375V2.95312H5.48438V3.375C5.48438 3.4123 5.49919 3.44806 5.52556 3.47444C5.55194 3.50081 5.5877 3.51562 5.625 3.51562C5.6623 3.51562 5.69806 3.50081 5.72444 3.47444C5.75081 3.44806 5.76562 3.4123 5.76562 3.375V2.95312H6.79688V3.375C6.79688 3.4123 6.81169 3.44806 6.83806 3.47444C6.86444 3.50081 6.9002 3.51562 6.9375 3.51562C6.9748 3.51562 7.01056 3.50081 7.03694 3.47444C7.06331 3.44806 7.07812 3.4123 7.07812 3.375V2.95312H7.40625C7.46838 2.95322 7.52794 2.97795 7.57187 3.02188C7.6158 3.06581 7.64053 3.12537 7.64062 3.1875V3.79688Z" fill="#2563EB"/>
<path d="M4.03125 4.64062H4.40625C4.44355 4.64062 4.47931 4.62581 4.50569 4.59944C4.53206 4.57306 4.54688 4.5373 4.54688 4.5C4.54688 4.4627 4.53206 4.42694 4.50569 4.40056C4.47931 4.37419 4.44355 4.35938 4.40625 4.35938H4.03125C3.99395 4.35938 3.95819 4.37419 3.93181 4.40056C3.90544 4.42694 3.89062 4.4627 3.89062 4.5C3.89062 4.5373 3.90544 4.57306 3.93181 4.59944C3.95819 4.62581 3.99395 4.64062 4.03125 4.64062Z" fill="#2563EB"/>
<path d="M5.625 1.17188C4.92968 1.17188 4.24997 1.37806 3.67182 1.76436C3.09368 2.15067 2.64308 2.69973 2.37699 3.34213C2.1109 3.98453 2.04128 4.6914 2.17693 5.37336C2.31258 6.05533 2.64741 6.68175 3.13908 7.17342C3.63075 7.66509 4.25717 7.99992 4.93914 8.13557C5.6211 8.27122 6.32798 8.2016 6.97037 7.93551C7.61277 7.66942 8.16183 7.21882 8.54814 6.64068C8.93444 6.06254 9.14063 5.38282 9.14063 4.6875C9.13958 3.75542 8.76885 2.86181 8.10977 2.20273C7.45069 1.54365 6.55708 1.17292 5.625 1.17188ZM5.625 7.92188C4.9853 7.92188 4.35997 7.73218 3.82808 7.37678C3.29619 7.02139 2.88163 6.51625 2.63683 5.92524C2.39203 5.33424 2.32798 4.68391 2.45277 4.0565C2.57757 3.4291 2.88562 2.85279 3.33795 2.40045C3.79029 1.94812 4.3666 1.64007 4.99401 1.51527C5.62141 1.39047 6.27174 1.45452 6.86274 1.69933C7.45375 1.94413 7.95889 2.35869 8.31429 2.89058C8.66968 3.42247 8.85938 4.0478 8.85938 4.6875C8.85843 5.54502 8.51737 6.36715 7.91101 6.97351C7.30465 7.57987 6.48252 7.92093 5.625 7.92188Z" fill="#2563EB"/>
<path d="M4.03125 5.39062H4.40625C4.44355 5.39062 4.47931 5.37581 4.50569 5.34944C4.53206 5.32306 4.54688 5.2873 4.54688 5.25C4.54688 5.2127 4.53206 5.17694 4.50569 5.15056C4.47931 5.12419 4.44355 5.10938 4.40625 5.10938H4.03125C3.99395 5.10937 3.95819 5.12419 3.93181 5.15056C3.90544 5.17694 3.89062 5.2127 3.89062 5.25C3.89062 5.2873 3.90544 5.32306 3.93181 5.34944C3.95819 5.37581 3.99395 5.39062 4.03125 5.39062Z" fill="#2563EB"/>
<path d="M4.03125 6.14062H4.40625C4.44355 6.14062 4.47931 6.12581 4.50569 6.09944C4.53206 6.07306 4.54688 6.0373 4.54688 6C4.54688 5.9627 4.53206 5.92694 4.50569 5.90056C4.47931 5.87419 4.44355 5.85938 4.40625 5.85938H4.03125C3.99395 5.85938 3.95819 5.87419 3.93181 5.90056C3.90544 5.92694 3.89062 5.9627 3.89062 6C3.89062 6.0373 3.90544 6.07306 3.93181 6.09944C3.95819 6.12581 3.99395 6.14062 4.03125 6.14062Z" fill="#2563EB"/>
</svg>
