<svg width="12" height="12" viewBox="0 0 12 12" fill="none" xmlns="http://www.w3.org/2000/svg">
<g clip-path="url(#clip0_413_6888)">
<path d="M6.66754 10.8274C6.44639 10.8587 6.22332 10.8744 5.99997 10.8745C5.03584 10.8745 4.09336 10.5886 3.29171 10.0529C2.49006 9.51729 1.86525 8.75596 1.4963 7.86521C1.12734 6.97447 1.0308 5.99432 1.21889 5.04871C1.40699 4.10311 1.87126 3.23451 2.55301 2.55277C3.23475 1.87102 4.10335 1.40675 5.04896 1.21865C5.99457 1.03056 6.97471 1.1271 7.86546 1.49605C8.7562 1.86501 9.51753 2.48982 10.0532 3.29147C10.5888 4.09311 10.8747 5.0356 10.8747 5.99973C10.8753 6.26863 10.853 6.5371 10.8081 6.80223C10.7996 6.85123 10.811 6.90157 10.8397 6.9422C10.8683 6.98282 10.912 7.01038 10.961 7.01883C11.01 7.02728 11.0603 7.01592 11.1009 6.98725C11.1415 6.95858 11.1691 6.91495 11.1776 6.86595C11.2261 6.57977 11.2502 6.28999 11.2497 5.99972C11.2497 4.96143 10.9418 3.94645 10.365 3.08313C9.78811 2.21982 8.96822 1.54695 8.00895 1.14961C7.04969 0.752274 5.99415 0.648313 4.9758 0.850875C3.95745 1.05344 3.02204 1.55343 2.28785 2.28761C1.55367 3.0218 1.05368 3.95721 0.851118 4.97556C0.648557 5.99391 0.752519 7.04945 1.14986 8.00871C1.5472 8.96797 2.22007 9.78787 3.08338 10.3647C3.94669 10.9416 4.96168 11.2495 5.99997 11.2495C6.24084 11.2494 6.48141 11.2324 6.71991 11.1987C6.76892 11.1915 6.81309 11.1652 6.84276 11.1256C6.87244 11.0859 6.88522 11.0361 6.8783 10.987C6.87138 10.938 6.84533 10.8937 6.80584 10.8638C6.76635 10.8339 6.71663 10.8208 6.66754 10.8274Z" fill="#2563EB"/>
<path d="M5.99998 2.06299C5.97536 2.06297 5.95097 2.06781 5.92822 2.07723C5.90546 2.08665 5.88479 2.10046 5.86738 2.11787C5.84996 2.13528 5.83615 2.15596 5.82674 2.17871C5.81732 2.20147 5.81248 2.22585 5.81249 2.25048V5.27694C5.68358 5.31051 5.56596 5.37787 5.47177 5.47206C5.37757 5.56626 5.31021 5.68388 5.27664 5.81279H3.18763C3.13801 5.81295 3.09047 5.83277 3.05544 5.86792C3.0204 5.90306 3.00073 5.95066 3.00073 6.00028C3.00073 6.04991 3.0204 6.0975 3.05544 6.13265C3.09047 6.16779 3.13801 6.18762 3.18763 6.18777H5.27664C5.30944 6.31568 5.37551 6.43264 5.46813 6.52676C5.56074 6.62088 5.67662 6.68883 5.80398 6.72369C5.93135 6.75855 6.06567 6.75909 6.19331 6.72526C6.32095 6.69143 6.43737 6.62442 6.53075 6.53105C6.62412 6.43767 6.69113 6.32126 6.72496 6.19362C6.7588 6.06597 6.75825 5.93165 6.72339 5.80429C6.68853 5.67692 6.62059 5.56105 6.52647 5.46843C6.43235 5.37581 6.31539 5.30974 6.18748 5.27694V2.25048C6.1875 2.22585 6.18266 2.20146 6.17324 2.17871C6.16382 2.15596 6.15001 2.13528 6.1326 2.11787C6.11518 2.10046 6.09451 2.08665 6.07175 2.07723C6.049 2.06781 6.02461 2.06297 5.99998 2.06299ZM6.37497 6.00028C6.37497 6.07445 6.35297 6.14695 6.31177 6.20861C6.27057 6.27028 6.212 6.31834 6.14348 6.34672C6.07497 6.3751 5.99957 6.38253 5.92683 6.36806C5.85409 6.35359 5.78728 6.31788 5.73483 6.26544C5.68239 6.21299 5.64668 6.14618 5.63221 6.07344C5.61774 6.0007 5.62516 5.9253 5.65355 5.85679C5.68193 5.78827 5.72999 5.7297 5.79166 5.6885C5.85332 5.6473 5.92582 5.6253 5.99998 5.6253C6.0994 5.62543 6.1947 5.66498 6.26499 5.73527C6.33529 5.80557 6.37484 5.90087 6.37497 6.00028Z" fill="#2563EB"/>
<path d="M10.8455 8.15837C10.8974 8.03043 10.915 7.89114 10.8966 7.75429C10.8782 7.61745 10.8243 7.48779 10.7404 7.37815C10.6564 7.26852 10.5453 7.1827 10.418 7.12921C10.2907 7.07571 10.1516 7.05639 10.0146 7.07316C9.98237 6.95055 9.91764 6.83892 9.82723 6.75006C9.73681 6.6612 9.62408 6.59841 9.50094 6.56833C9.37779 6.53824 9.2488 6.54197 9.1276 6.57913C9.0064 6.61629 8.89749 6.6855 8.81237 6.77944C8.72643 6.6872 8.61745 6.61955 8.49667 6.58344C8.37588 6.54732 8.24765 6.54406 8.12519 6.57398C8.00272 6.60391 7.89045 6.66593 7.79992 6.75368C7.7094 6.84142 7.6439 6.95171 7.61018 7.07318C7.47347 7.05794 7.33516 7.07828 7.20863 7.13224C7.08211 7.1862 6.97168 7.27193 6.88804 7.38113C6.80441 7.49033 6.75042 7.61929 6.7313 7.7555C6.71218 7.89172 6.72858 8.03056 6.77892 8.15856C6.655 8.23837 6.55309 8.34799 6.48252 8.47739C6.41195 8.60679 6.37498 8.75183 6.375 8.89923C6.37502 9.04662 6.41202 9.19165 6.48262 9.32104C6.55322 9.45042 6.65516 9.56002 6.77909 9.6398C6.72872 9.76779 6.71228 9.90662 6.73138 10.0428C6.75047 10.1791 6.80445 10.308 6.88807 10.4172C6.97169 10.5264 7.08212 10.6122 7.20864 10.6661C7.33516 10.7201 7.47348 10.7404 7.61018 10.7252C7.64395 10.8466 7.70947 10.9569 7.80001 11.0446C7.89054 11.1323 8.00281 11.1943 8.12526 11.2242C8.24771 11.2541 8.37591 11.2508 8.49668 11.2147C8.61745 11.1786 8.72642 11.111 8.81237 11.0188C8.8975 11.1127 9.00641 11.1819 9.12759 11.219C9.24877 11.2562 9.37774 11.2599 9.50087 11.2299C9.624 11.1998 9.73673 11.137 9.82715 11.0482C9.91757 10.9594 9.98232 10.8478 10.0146 10.7252C10.1517 10.742 10.2907 10.7228 10.4181 10.6693C10.5454 10.6158 10.6565 10.53 10.7405 10.4203C10.8244 10.3107 10.8783 10.181 10.8966 10.0441C10.915 9.90721 10.8973 9.76791 10.8453 9.63999C10.9693 9.56024 11.0714 9.45063 11.142 9.32121C11.2127 9.19179 11.2497 9.04669 11.2497 8.89923C11.2498 8.75177 11.2128 8.60667 11.1421 8.47723C11.0715 8.34779 10.9695 8.23814 10.8455 8.15837ZM8.62488 9.45234C8.57371 9.43535 8.52023 9.42632 8.46632 9.42557C8.32484 9.42571 8.18919 9.48197 8.08914 9.58199C7.98908 9.68201 7.93278 9.81764 7.93259 9.95912C7.93357 10.0082 7.95375 10.0549 7.9888 10.0893C8.02386 10.1237 8.071 10.1429 8.12009 10.1429C8.16918 10.1429 8.21632 10.1237 8.25137 10.0893C8.28643 10.0549 8.30661 10.0082 8.30757 9.9591C8.30841 9.91758 8.32549 9.87803 8.35516 9.84896C8.38482 9.81989 8.4247 9.80361 8.46624 9.80361C8.50777 9.80361 8.54765 9.8199 8.57731 9.84898C8.60697 9.87806 8.62405 9.9176 8.62488 9.95913V10.5434C8.62486 10.5884 8.61567 10.6329 8.59788 10.6743C8.58009 10.7156 8.55407 10.7529 8.5214 10.7839C8.48874 10.8149 8.45011 10.8389 8.40787 10.8545C8.36563 10.87 8.32066 10.8769 8.27571 10.8745C8.23075 10.8721 8.18674 10.8606 8.14637 10.8407C8.106 10.8208 8.0701 10.7929 8.04086 10.7587C8.01162 10.7244 7.98965 10.6846 7.9763 10.6416C7.96294 10.5986 7.95848 10.5534 7.96317 10.5086C7.96667 10.4821 7.96448 10.4551 7.95677 10.4295C7.94906 10.4039 7.93599 10.3802 7.91844 10.3601C7.90088 10.3399 7.87924 10.3237 7.85494 10.3125C7.83065 10.3014 7.80426 10.2955 7.77752 10.2953C7.68742 10.3015 7.60913 10.365 7.51441 10.3559C7.40349 10.3558 7.29714 10.3116 7.21871 10.2332C7.14027 10.1548 7.09616 10.0484 7.09604 9.93751C7.07253 9.76403 7.26501 9.66654 7.22258 9.5054C7.2139 9.47614 7.19822 9.44943 7.17691 9.42758C7.1556 9.40573 7.12928 9.38939 7.10025 9.37998C7.00689 9.35007 6.92428 9.29358 6.86254 9.21743C6.80079 9.14128 6.76259 9.04879 6.7526 8.95126C6.74262 8.85374 6.76129 8.75542 6.80632 8.66834C6.85135 8.58127 6.9208 8.50921 7.00616 8.46099C7.08546 8.51919 7.17937 8.55423 7.27742 8.56219C7.37547 8.57014 7.4738 8.55071 7.56146 8.50606C7.64911 8.46141 7.72264 8.39329 7.77385 8.3093C7.82506 8.22531 7.85194 8.12875 7.85148 8.03038C7.85051 7.9813 7.83033 7.93455 7.79527 7.90018C7.76022 7.86581 7.71308 7.84656 7.66399 7.84656C7.61489 7.84656 7.56776 7.86582 7.5327 7.90019C7.49765 7.93456 7.47747 7.98131 7.4765 8.03039C7.47598 8.06319 7.46534 8.09504 7.44603 8.12156C7.42673 8.14809 7.39971 8.16802 7.36866 8.17861C7.33761 8.18921 7.30404 8.18996 7.27255 8.18076C7.24106 8.17156 7.21317 8.15287 7.1927 8.12723C7.14301 8.06586 7.1116 7.99174 7.10209 7.91335C7.09258 7.83496 7.10534 7.75548 7.13892 7.68401C7.1725 7.61254 7.22553 7.55197 7.29194 7.50926C7.35835 7.46654 7.43546 7.44339 7.51442 7.44248C7.64453 7.43139 7.7666 7.56233 7.88737 7.46754C7.91864 7.44281 7.94222 7.40968 7.95535 7.37204C7.96848 7.33439 7.97062 7.29379 7.96151 7.25497C7.96151 7.16701 7.99646 7.08264 8.05866 7.02044C8.12087 6.95823 8.20523 6.92329 8.2932 6.92329C8.38117 6.92329 8.46554 6.95823 8.52774 7.02044C8.58994 7.08264 8.62489 7.16701 8.62489 7.25497L8.62488 9.45234ZM10.6187 9.33731C10.539 9.28055 10.4453 9.24672 10.3478 9.23949C10.2502 9.23226 10.1525 9.25192 10.0654 9.29632C9.97823 9.34072 9.90492 9.40816 9.85341 9.49132C9.80191 9.57448 9.77419 9.67017 9.77327 9.76798C9.77424 9.81706 9.79442 9.8638 9.82948 9.89817C9.86454 9.93254 9.91167 9.95179 9.96076 9.95178C10.0099 9.95178 10.057 9.93253 10.092 9.89815C10.1271 9.86378 10.1473 9.81704 10.1482 9.76795C10.1488 9.73459 10.1598 9.70224 10.1797 9.67546C10.1996 9.64868 10.2274 9.62883 10.2592 9.61869C10.291 9.60856 10.3252 9.60867 10.3569 9.61899C10.3886 9.62931 10.4163 9.64933 10.4361 9.67623C10.4845 9.73791 10.5147 9.81191 10.5233 9.88986C10.5318 9.96782 10.5184 10.0466 10.4845 10.1173C10.4506 10.188 10.3976 10.2479 10.3315 10.29C10.2653 10.3322 10.1887 10.355 10.1103 10.3559C10.0477 10.356 9.98578 10.3418 9.92944 10.3143C9.89582 10.2993 9.85864 10.2942 9.82222 10.2996C9.78581 10.3049 9.75166 10.3205 9.72376 10.3445C9.69586 10.3685 9.67536 10.3999 9.66464 10.4352C9.65392 10.4704 9.65343 10.5079 9.66323 10.5434C9.66198 10.6305 9.62649 10.7137 9.56442 10.7749C9.50235 10.8361 9.41869 10.8704 9.33153 10.8704C9.24437 10.8704 9.16071 10.836 9.09865 10.7749C9.03658 10.7137 9.00109 10.6305 8.99985 10.5434V8.34598C9.07953 8.37097 9.16396 8.37688 9.24634 8.36324C9.32871 8.3496 9.40673 8.31679 9.4741 8.26745C9.54147 8.21812 9.5963 8.15365 9.63418 8.07923C9.67205 8.00481 9.6919 7.92254 9.69214 7.83904C9.69117 7.78995 9.67098 7.74321 9.63593 7.70884C9.60087 7.67447 9.55373 7.65522 9.50464 7.65523C9.45554 7.65523 9.40841 7.67448 9.37336 7.70886C9.3383 7.74323 9.31813 7.78998 9.31716 7.83906C9.31637 7.88062 9.29931 7.92021 9.26964 7.94933C9.23997 7.97844 9.20006 7.99475 9.15849 7.99474C9.11693 7.99474 9.07702 7.97843 9.04735 7.94931C9.01769 7.92019 9.00063 7.8806 8.99985 7.83904V7.25497C9.0011 7.16783 9.03659 7.08467 9.09866 7.02349C9.16073 6.9623 9.24438 6.928 9.33154 6.928C9.41869 6.928 9.50235 6.96231 9.56441 7.02349C9.62648 7.08468 9.66197 7.16784 9.66321 7.25499C9.65346 7.29048 9.65398 7.32801 9.66473 7.36322C9.67548 7.39843 9.696 7.42986 9.72392 7.45385C9.75183 7.47785 9.78599 7.49342 9.82241 7.49876C9.85883 7.5041 9.89602 7.49899 9.92964 7.48401C9.99341 7.45401 10.0637 7.44053 10.134 7.44481C10.2044 7.44909 10.2725 7.471 10.3322 7.50851C10.3918 7.54601 10.4411 7.59793 10.4754 7.65946C10.5098 7.721 10.5281 7.79019 10.5287 7.86065C10.5293 7.95564 10.4968 8.04786 10.4366 8.12138C10.4177 8.14515 10.4047 8.17314 10.3989 8.20298C10.3931 8.23282 10.3945 8.26363 10.4032 8.29278C10.4118 8.32193 10.4273 8.34857 10.4484 8.37044C10.4696 8.3923 10.4957 8.40874 10.5245 8.41836C10.6168 8.44951 10.6981 8.50654 10.7588 8.58264C10.8196 8.65873 10.8572 8.7507 10.8671 8.84756C10.877 8.94442 10.8589 9.04209 10.8148 9.12893C10.7708 9.21576 10.7027 9.2881 10.6187 9.33731Z" fill="#2563EB"/>
</g>
<defs>
<clipPath id="clip0_413_6888">
<rect width="12" height="12" fill="white"/>
</clipPath>
</defs>
</svg>
