<svg width="12" height="12" viewBox="0 0 12 12" fill="none" xmlns="http://www.w3.org/2000/svg">
<g clip-path="url(#clip0_413_7119)">
<path d="M9.375 3.1875H7.875C7.82527 3.1875 7.77758 3.16775 7.74242 3.13258C7.70725 3.09742 7.6875 3.04973 7.6875 3C7.6875 2.95027 7.70725 2.90258 7.74242 2.86742C7.77758 2.83225 7.82527 2.8125 7.875 2.8125H9.375C9.42473 2.8125 9.47242 2.79275 9.50758 2.75758C9.54275 2.72242 9.5625 2.67473 9.5625 2.625V0.75C9.5625 0.700272 9.54275 0.652581 9.50758 0.617417C9.47242 0.582254 9.42473 0.5625 9.375 0.5625H1.5C1.45027 0.5625 1.40258 0.582254 1.36742 0.617417C1.33225 0.652581 1.3125 0.700272 1.3125 0.75V2.625C1.3125 2.67473 1.33225 2.72242 1.36742 2.75758C1.40258 2.79275 1.45027 2.8125 1.5 2.8125H3C3.04973 2.8125 3.09742 2.83225 3.13258 2.86742C3.16775 2.90258 3.1875 2.95027 3.1875 3C3.1875 3.04973 3.16775 3.09742 3.13258 3.13258C3.09742 3.16775 3.04973 3.1875 3 3.1875H1.5C1.35082 3.1875 1.20774 3.12824 1.10225 3.02275C0.996763 2.91726 0.9375 2.77418 0.9375 2.625V0.75C0.9375 0.600816 0.996763 0.457742 1.10225 0.352252C1.20774 0.246763 1.35082 0.1875 1.5 0.1875H9.375C9.52418 0.1875 9.66726 0.246763 9.77275 0.352252C9.87824 0.457742 9.9375 0.600816 9.9375 0.75V2.625C9.9375 2.77418 9.87824 2.91726 9.77275 3.02275C9.66726 3.12824 9.52418 3.1875 9.375 3.1875Z" fill="#2563EB"/>
<path d="M9 2.4375H7.875C7.82527 2.4375 7.77758 2.41775 7.74242 2.38258C7.70725 2.34742 7.6875 2.29973 7.6875 2.25C7.6875 2.20027 7.70725 2.15258 7.74242 2.11742C7.77758 2.08225 7.82527 2.0625 7.875 2.0625H8.8125V1.3125H2.0625V2.0625H3C3.04973 2.0625 3.09742 2.08225 3.13258 2.11742C3.16775 2.15258 3.1875 2.20027 3.1875 2.25C3.1875 2.29973 3.16775 2.34742 3.13258 2.38258C3.09742 2.41775 3.04973 2.4375 3 2.4375H1.875C1.82527 2.4375 1.77758 2.41775 1.74242 2.38258C1.70725 2.34742 1.6875 2.29973 1.6875 2.25V1.125C1.6875 1.07527 1.70725 1.02758 1.74242 0.992418C1.77758 0.957254 1.82527 0.9375 1.875 0.9375H9C9.04973 0.9375 9.09742 0.957254 9.13258 0.992418C9.16775 1.02758 9.1875 1.07527 9.1875 1.125V2.25C9.1875 2.29973 9.16775 2.34742 9.13258 2.38258C9.09742 2.41775 9.04973 2.4375 9 2.4375Z" fill="#2563EB"/>
<path d="M1.875 10.125C1.82527 10.125 1.77758 10.1052 1.74242 10.0701C1.70725 10.0349 1.6875 9.9872 1.6875 9.93747V6.37497C1.68745 6.34094 1.69673 6.30755 1.71431 6.27841L2.83931 4.40341C2.8649 4.36077 2.90637 4.33004 2.95462 4.31798C3.00286 4.30592 3.05392 4.31351 3.09656 4.3391C3.1392 4.36468 3.16994 4.40616 3.182 4.4544C3.19406 4.50265 3.18646 4.55371 3.16088 4.59635L2.0625 6.42691V9.93747C2.0625 9.9872 2.04275 10.0349 2.00758 10.0701C1.97242 10.1052 1.92473 10.125 1.875 10.125Z" fill="#2563EB"/>
<path d="M5.625 10.125C5.57527 10.125 5.52758 10.1052 5.49242 10.0701C5.45725 10.0349 5.4375 9.98723 5.4375 9.9375V9C5.4375 8.95027 5.45725 8.90258 5.49242 8.86742C5.52758 8.83225 5.57527 8.8125 5.625 8.8125C5.67473 8.8125 5.72242 8.83225 5.75758 8.86742C5.79275 8.90258 5.8125 8.95027 5.8125 9V9.9375C5.8125 9.98723 5.79275 10.0349 5.75758 10.0701C5.72242 10.1052 5.67473 10.125 5.625 10.125Z" fill="#2563EB"/>
<path d="M7.875 7.9125C7.82527 7.9125 7.77758 7.89275 7.74242 7.85758C7.70725 7.82242 7.6875 7.77473 7.6875 7.725V1.6875C7.6875 1.63777 7.70725 1.59008 7.74242 1.55492C7.77758 1.51975 7.82527 1.5 7.875 1.5C7.92473 1.5 7.97242 1.51975 8.00758 1.55492C8.04275 1.59008 8.0625 1.63777 8.0625 1.6875V7.725C8.0625 7.77473 8.04275 7.82242 8.00758 7.85758C7.97242 7.89275 7.92473 7.9125 7.875 7.9125Z" fill="#2563EB"/>
<path d="M3 7.10812C2.95027 7.10812 2.90258 7.08837 2.86742 7.05321C2.83225 7.01804 2.8125 6.97035 2.8125 6.92062V1.6875C2.8125 1.63777 2.83225 1.59008 2.86742 1.55492C2.90258 1.51975 2.95027 1.5 3 1.5C3.04973 1.5 3.09742 1.51975 3.13258 1.55492C3.16775 1.59008 3.1875 1.63777 3.1875 1.6875V6.92062C3.1875 6.97035 3.16775 7.01804 3.13258 7.05321C3.09742 7.08837 3.04973 7.10812 3 7.10812Z" fill="#2563EB"/>
<path d="M5.8125 11.8125H1.5C1.45027 11.8125 1.40258 11.7927 1.36742 11.7576C1.33225 11.7224 1.3125 11.6747 1.3125 11.625V9.9375C1.3125 9.88777 1.33225 9.84008 1.36742 9.80492C1.40258 9.76975 1.45027 9.75 1.5 9.75H5.8125C5.86223 9.75 5.90992 9.76975 5.94508 9.80492C5.98025 9.84008 6 9.88777 6 9.9375V11.625C6 11.6747 5.98025 11.7224 5.94508 11.7576C5.90992 11.7927 5.86223 11.8125 5.8125 11.8125ZM1.6875 11.4375H5.625V10.125H1.6875V11.4375Z" fill="#2563EB"/>
<path d="M3.75 6.36188C3.70027 6.36188 3.65258 6.34212 3.61742 6.30696C3.58225 6.27179 3.5625 6.2241 3.5625 6.17438V1.6875C3.5625 1.63777 3.58225 1.59008 3.61742 1.55492C3.65258 1.51975 3.70027 1.5 3.75 1.5C3.79973 1.5 3.84742 1.51975 3.88258 1.55492C3.91775 1.59008 3.9375 1.63777 3.9375 1.6875V6.17438C3.9375 6.2241 3.91775 6.27179 3.88258 6.30696C3.84742 6.34212 3.79973 6.36188 3.75 6.36188Z" fill="#2563EB"/>
<path d="M5.4375 6C5.17791 6 4.92415 5.92302 4.70831 5.7788C4.49248 5.63459 4.32425 5.4296 4.22491 5.18977C4.12557 4.94994 4.09958 4.68604 4.15022 4.43144C4.20086 4.17684 4.32587 3.94298 4.50942 3.75942C4.69298 3.57587 4.92684 3.45086 5.18144 3.40022C5.43604 3.34958 5.69994 3.37557 5.93977 3.47491C6.1796 3.57425 6.38458 3.74248 6.5288 3.95831C6.67302 4.17415 6.75 4.42791 6.75 4.6875C6.7496 5.03548 6.6112 5.36908 6.36514 5.61514C6.11908 5.8612 5.78548 5.9996 5.4375 6ZM5.4375 3.75C5.25208 3.75 5.07082 3.80498 4.91665 3.908C4.76248 4.01101 4.64232 4.15743 4.57136 4.32873C4.50041 4.50004 4.48184 4.68854 4.51801 4.8704C4.55419 5.05226 4.64348 5.2193 4.77459 5.35041C4.9057 5.48153 5.07275 5.57081 5.2546 5.60699C5.43646 5.64316 5.62496 5.6246 5.79627 5.55364C5.96757 5.48268 6.11399 5.36252 6.217 5.20835C6.32002 5.05418 6.375 4.87292 6.375 4.6875C6.3747 4.43895 6.27584 4.20067 6.10008 4.02492C5.92433 3.84917 5.68605 3.7503 5.4375 3.75Z" fill="#2563EB"/>
<path d="M6.82877 9.18752H3.00002C2.95029 9.18752 2.9026 9.16777 2.86744 9.13261C2.83228 9.09744 2.81252 9.04975 2.81252 9.00002V8.4394C2.81251 8.38894 2.83238 8.3405 2.86783 8.30459L4.39727 6.78377C4.42983 6.75146 4.45568 6.71302 4.47332 6.67067C4.49095 6.62832 4.50003 6.5829 4.50003 6.53702C4.50003 6.49115 4.49095 6.44573 4.47332 6.40338C4.45568 6.36103 4.42983 6.32259 4.39727 6.29027C4.33094 6.22451 4.24131 6.1876 4.1479 6.1876C4.05448 6.1876 3.96486 6.22451 3.89852 6.29027L2.94471 7.2394C2.92736 7.25725 2.90663 7.27147 2.88373 7.28123C2.86083 7.29098 2.83621 7.29608 2.81132 7.29623C2.78643 7.29637 2.76175 7.29155 2.73874 7.28206C2.71573 7.27257 2.69484 7.25859 2.67728 7.24094C2.65973 7.22328 2.64587 7.20231 2.63651 7.17925C2.62715 7.15618 2.62247 7.13148 2.62275 7.10659C2.62304 7.0817 2.62828 7.05711 2.63816 7.03427C2.64805 7.01142 2.66238 6.99077 2.68033 6.97352L3.63415 6.0244C3.77084 5.88897 3.95547 5.81299 4.1479 5.81299C4.34032 5.81299 4.52496 5.88897 4.66165 6.0244C4.72924 6.09156 4.78289 6.17143 4.8195 6.25941C4.85611 6.34738 4.87496 6.44173 4.87496 6.53702C4.87496 6.63231 4.85611 6.72666 4.8195 6.81464C4.78289 6.90262 4.72924 6.98249 4.66165 7.04965L3.18752 8.51552V8.81252H6.82877C6.8785 8.81252 6.92619 8.83228 6.96135 8.86744C6.99652 8.9026 7.01627 8.9503 7.01627 9.00002C7.01627 9.04975 6.99652 9.09744 6.96135 9.13261C6.92619 9.16777 6.8785 9.18752 6.82877 9.18752Z" fill="#2563EB"/>
<path d="M8.4375 1.875H2.4375C2.38777 1.875 2.34008 1.85525 2.30492 1.82008C2.26975 1.78492 2.25 1.73723 2.25 1.6875C2.25 1.63777 2.26975 1.59008 2.30492 1.55492C2.34008 1.51975 2.38777 1.5 2.4375 1.5H8.4375C8.48723 1.5 8.53492 1.51975 8.57008 1.55492C8.60525 1.59008 8.625 1.63777 8.625 1.6875C8.625 1.73723 8.60525 1.78492 8.57008 1.82008C8.53492 1.85525 8.48723 1.875 8.4375 1.875Z" fill="#2563EB"/>
<path d="M8.8125 11.8125C8.36749 11.8125 7.93248 11.6805 7.56247 11.4333C7.19246 11.1861 6.90407 10.8347 6.73377 10.4235C6.56347 10.0124 6.51892 9.56001 6.60573 9.12355C6.69255 8.68709 6.90684 8.28618 7.22151 7.97151C7.53618 7.65684 7.93709 7.44255 8.37355 7.35573C8.81001 7.26892 9.26241 7.31347 9.67354 7.48377C10.0847 7.65407 10.4361 7.94246 10.6833 8.31247C10.9305 8.68248 11.0625 9.11749 11.0625 9.5625C11.0619 10.159 10.8246 10.731 10.4028 11.1528C9.98096 11.5746 9.40904 11.8119 8.8125 11.8125ZM8.8125 7.6875C8.44166 7.6875 8.07915 7.79747 7.77081 8.0035C7.46246 8.20952 7.22214 8.50236 7.08023 8.84497C6.93831 9.18758 6.90118 9.56458 6.97353 9.9283C7.04588 10.292 7.22445 10.6261 7.48668 10.8883C7.7489 11.1505 8.08299 11.3291 8.44671 11.4015C8.81042 11.4738 9.18742 11.4367 9.53003 11.2948C9.87264 11.1529 10.1655 10.9125 10.3715 10.6042C10.5775 10.2959 10.6875 9.93334 10.6875 9.5625C10.6869 9.0654 10.4892 8.58884 10.1377 8.23733C9.78617 7.88583 9.3096 7.6881 8.8125 7.6875Z" fill="#2563EB"/>
<path d="M8.81252 10.875C8.76279 10.875 8.71511 10.8552 8.67995 10.8201L7.92995 10.0701C7.8958 10.0347 7.8769 9.98735 7.87733 9.93819C7.87775 9.88903 7.89747 9.842 7.93224 9.80724C7.967 9.77247 8.01403 9.75275 8.06319 9.75233C8.11235 9.7519 8.15972 9.7708 8.19508 9.80495L8.81252 10.4224L9.42995 9.80495C9.46532 9.7708 9.51268 9.7519 9.56184 9.75233C9.611 9.75275 9.65803 9.77247 9.69279 9.80724C9.72756 9.842 9.74728 9.88903 9.7477 9.93819C9.74813 9.98735 9.72923 10.0347 9.69508 10.0701L8.94508 10.8201C8.90992 10.8552 8.86224 10.875 8.81252 10.875Z" fill="#2563EB"/>
<path d="M8.8125 10.875C8.76277 10.875 8.71508 10.8552 8.67992 10.8201C8.64475 10.7849 8.625 10.7372 8.625 10.6875V8.4375C8.625 8.38777 8.64475 8.34008 8.67992 8.30492C8.71508 8.26975 8.76277 8.25 8.8125 8.25C8.86223 8.25 8.90992 8.26975 8.94508 8.30492C8.98025 8.34008 9 8.38777 9 8.4375V10.6875C9 10.7372 8.98025 10.7849 8.94508 10.8201C8.90992 10.8552 8.86223 10.875 8.8125 10.875Z" fill="#2563EB"/>
<path d="M6.37497 8.4375H4.49997C4.45024 8.4375 4.40255 8.41775 4.36739 8.38258C4.33223 8.34742 4.31247 8.29973 4.31247 8.25C4.31269 8.12328 4.26997 8.00023 4.19128 7.9009C4.11259 7.80158 4.00257 7.73184 3.87916 7.70306C3.83223 7.69027 3.7921 7.65974 3.76726 7.61792C3.74242 7.57609 3.7348 7.52625 3.74602 7.47892C3.75724 7.43159 3.78642 7.39047 3.82739 7.36424C3.86836 7.33802 3.91792 7.32874 3.9656 7.33838C4.13986 7.37902 4.29878 7.46887 4.42343 7.59725C4.54809 7.72563 4.63323 7.88712 4.66872 8.0625H6.20622C6.24331 7.88249 6.33233 7.71728 6.46229 7.58732C6.59226 7.45736 6.75746 7.36833 6.93747 7.33125V1.6875C6.93747 1.63777 6.95723 1.59008 6.99239 1.55492C7.02755 1.51975 7.07524 1.5 7.12497 1.5C7.1747 1.5 7.22239 1.51975 7.25756 1.55492C7.29272 1.59008 7.31247 1.63777 7.31247 1.6875V7.5C7.31247 7.54973 7.29272 7.59742 7.25756 7.63258C7.22239 7.66775 7.1747 7.6875 7.12497 7.6875C6.97579 7.6875 6.83271 7.74676 6.72723 7.85225C6.62174 7.95774 6.56247 8.10082 6.56247 8.25C6.56247 8.29973 6.54272 8.34742 6.50756 8.38258C6.47239 8.41775 6.4247 8.4375 6.37497 8.4375Z" fill="#2563EB"/>
</g>
<defs>
<clipPath id="clip0_413_7119">
<rect width="12" height="12" fill="white"/>
</clipPath>
</defs>
</svg>
