<svg width="12" height="12" viewBox="0 0 12 12" fill="none" xmlns="http://www.w3.org/2000/svg">
<g clip-path="url(#clip0_413_7183)">
<path d="M8.5 5.5H10C10.1375 5.5 10.25 5.3875 10.25 5.25C10.25 5.1125 10.1375 5 10 5H8.5C8.3625 5 8.25 5.1125 8.25 5.25C8.25 5.3875 8.3625 5.5 8.5 5.5Z" fill="#2563EB"/>
<path d="M2 5.5H3.5C3.6375 5.5 3.75 5.3875 3.75 5.25C3.75 5.1125 3.6375 5 3.5 5H2C1.8625 5 1.75 5.1125 1.75 5.25C1.75 5.3875 1.8625 5.5 2 5.5Z" fill="#2563EB"/>
<path d="M10 9.5H8.5C8.3625 9.5 8.25 9.6125 8.25 9.75C8.25 9.8875 8.3625 10 8.5 10H10C10.1375 10 10.25 9.8875 10.25 9.75C10.25 9.6125 10.1375 9.5 10 9.5Z" fill="#2563EB"/>
<path d="M2 10H3.5C3.6375 10 3.75 9.8875 3.75 9.75C3.75 9.6125 3.6375 9.5 3.5 9.5H2C1.8625 9.5 1.75 9.6125 1.75 9.75C1.75 9.8875 1.8625 10 2 10Z" fill="#2563EB"/>
<path d="M11 1.75H9.5V1C9.5 0.8625 9.3875 0.75 9.25 0.75H7.75C7.6125 0.75 7.5 0.8625 7.5 1V1.75H5.25H4.5V1C4.5 0.8625 4.3875 0.75 4.25 0.75H2.75C2.6125 0.75 2.5 0.8625 2.5 1V1.75H1C0.8625 1.75 0.75 1.8625 0.75 2V4V11C0.75 11.1375 0.8625 11.25 1 11.25H11C11.1375 11.25 11.25 11.1375 11.25 11V4V2C11.25 1.8625 11.1375 1.75 11 1.75ZM8 1.25H9V2.75H8V1.25ZM3 1.25H4V2.75H3V1.25ZM10.75 10.75H1.25V4.25H10.75V10.75ZM10.75 3.75H1.25V2.25H2.5V3C2.5 3.1375 2.6125 3.25 2.75 3.25H4.25C4.3875 3.25 4.5 3.1375 4.5 3V2.25H5.25H7.5V3C7.5 3.1375 7.6125 3.25 7.75 3.25H9.25C9.3875 3.25 9.5 3.1375 9.5 3V2.25H10.75V3.75Z" fill="#2563EB"/>
<path d="M6 10C7.3775 10 8.5 8.8775 8.5 7.5C8.5 6.1225 7.3775 5 6 5C4.6225 5 3.5 6.1225 3.5 7.5C3.5 8.8775 4.6225 10 6 10ZM6 5.5C7.1025 5.5 8 6.3975 8 7.5C8 8.6025 7.1025 9.5 6 9.5C4.8975 9.5 4 8.6025 4 7.5C4 6.3975 4.8975 5.5 6 5.5Z" fill="#2563EB"/>
<path d="M4.2675 7.58746C4.2675 7.58996 4.2675 7.59246 4.27 7.59496C4.2825 7.62246 4.3 7.64746 4.32 7.66746C4.3225 7.66996 4.3225 7.67246 4.325 7.67496L5.075 8.42496C5.1225 8.47496 5.185 8.49996 5.25 8.49996C5.315 8.49996 5.3775 8.47496 5.4275 8.42746C5.525 8.32996 5.525 8.17246 5.4275 8.07496L5.1025 7.74996H7.25C7.3875 7.74996 7.5 7.63746 7.5 7.49996C7.5 7.36246 7.3875 7.24996 7.25 7.24996H5.1025L5.425 6.92746C5.5225 6.82996 5.5225 6.67246 5.425 6.57496C5.3275 6.47746 5.17 6.47746 5.0725 6.57496L4.3225 7.32496C4.3 7.34746 4.285 7.37246 4.2725 7.39996C4.27 7.40746 4.2675 7.41746 4.2625 7.42496C4.255 7.44496 4.2525 7.46496 4.25 7.48746C4.25 7.49496 4.2475 7.50496 4.2475 7.51246C4.2525 7.53496 4.2575 7.56246 4.2675 7.58746Z" fill="#2563EB"/>
</g>
<defs>
<clipPath id="clip0_413_7183">
<rect width="12" height="12" fill="white"/>
</clipPath>
</defs>
</svg>
