<svg width="24" height="24" viewBox="0 0 24 24" fill="none" xmlns="http://www.w3.org/2000/svg">
<g clip-path="url(#clip0_413_6487)">
<path d="M10.1025 10.0884C14.5767 10.0884 16.8309 15.5231 13.665 18.689C10.4981 21.8554 5.06391 19.6007 5.06391 15.1265C5.06391 12.344 7.31953 10.0884 10.1025 10.0884ZM18.4247 17.4792L17.1145 16.169C16.2806 15.3351 17.5481 14.0681 18.382 14.9015L19.1297 15.6492L21.2986 13.4803C22.1316 12.6468 23.4 13.9125 22.5652 14.7468L22.5661 14.7478L19.7578 17.5551L19.7583 17.5556C19.3467 17.9667 18.7983 17.8518 18.4252 17.4787L18.4247 17.4792ZM17.512 15.7715L18.8227 17.0817L18.8217 17.0822C18.9816 17.2392 19.1822 17.3362 19.3603 17.1576L22.1681 14.3498L22.1686 14.3503C22.478 14.04 22.0069 13.5675 21.6961 13.8778L19.3284 16.2459C19.2187 16.3556 19.0406 16.3556 18.9305 16.2459L17.9841 15.2995C17.6738 14.9892 17.2022 15.4612 17.512 15.7715ZM20.2045 11.0597C23.6733 11.2959 25.2802 15.5353 22.8061 18.0093C22.1302 18.6853 21.2184 19.1245 20.2045 19.1939V21.7589C20.2045 21.9145 20.0784 22.0401 19.9233 22.0401H0.28125C0.126094 22.0401 0 21.9145 0 21.7589V4.32559C0 4.16997 0.126094 4.04434 0.28125 4.04434H2.58375C2.58375 3.3534 2.48344 2.78434 2.94563 2.32215C3.72562 1.54215 5.05219 2.10559 5.05219 3.19403V4.04434H8.86781C8.86781 3.3534 8.76797 2.78434 9.23016 2.32215C10.0102 1.54215 11.3367 2.10559 11.3367 3.19403V4.04434H15.1523C15.1523 3.3534 15.0525 2.78434 15.5147 2.32215C16.2947 1.54215 17.6213 2.10559 17.6213 3.19403V4.04434H19.9233C20.0784 4.04434 20.2045 4.16997 20.2045 4.32559V11.0597ZM18.548 18.9656C16.6444 18.2854 15.5437 16.3162 15.9197 14.355C16.268 12.5362 17.7914 11.1956 19.642 11.0597V8.77544H0.5625V21.4776H19.642V19.1939C19.2661 19.1657 18.9028 19.0945 18.548 18.9656ZM22.4081 12.6417C19.9491 10.1826 15.728 12.434 16.4991 15.9201C16.6406 16.5604 16.9805 17.1468 17.4384 17.6114C17.4666 17.6114 18.3277 18.6332 19.9233 18.6407C23.0278 18.6482 24.6248 14.8584 22.4081 12.6417ZM16.3866 6.1284C16.7559 6.1284 17.0588 5.82559 17.0588 5.45669V3.19403C17.0588 2.3109 15.7148 2.3109 15.7148 3.19403V5.45669C15.7148 5.82559 16.0181 6.1284 16.3866 6.1284ZM16.387 6.6909C15.7073 6.6909 15.1523 6.13637 15.1523 5.45669V4.60684H11.3367C11.3367 5.29731 11.4366 5.86637 10.9744 6.32856C10.1944 7.10903 8.86781 6.54512 8.86781 5.45669V4.60684H5.05219C5.05219 5.29731 5.15203 5.86637 4.68984 6.32856C3.90984 7.10903 2.58375 6.54512 2.58375 5.45669V4.60684H0.5625V8.21294H19.642V4.60684H17.6213C17.6213 5.29731 17.7211 5.86637 17.2589 6.32856C17.0353 6.55215 16.7264 6.6909 16.387 6.6909ZM3.81797 6.1284C4.18687 6.1284 4.48969 5.82559 4.48969 5.45669V3.19403C4.48969 2.3109 3.14625 2.3109 3.14625 3.19403V5.45669C3.14625 5.82559 3.44906 6.1284 3.81797 6.1284ZM10.102 6.1284C10.4714 6.1284 10.7742 5.82559 10.7742 5.45669V3.19403C10.7742 2.3109 9.43031 2.3109 9.43031 3.19403V5.45669C9.43031 5.82559 9.73312 6.1284 10.102 6.1284ZM18.2259 11.4192C18.2498 11.4079 18.2733 11.3976 18.2972 11.3868L18.2259 11.4192ZM10.7925 15.8165C11.2988 15.3103 12.1191 15.3093 12.6267 15.817L12.6277 15.8165C12.8808 16.0701 13.0073 16.402 13.0073 16.7343H13.0064C13.0064 17.8893 11.6063 18.4654 10.7925 17.6517C10.2853 17.145 10.2853 16.3232 10.7925 15.8165ZM11.19 16.2145C10.5061 16.8984 11.5458 17.9381 12.2297 17.2542C12.3741 17.1098 12.4462 16.9218 12.4462 16.7343H12.4448C12.4448 16.5459 12.3731 16.3579 12.2297 16.2145L12.2302 16.2136C11.9433 15.9276 11.4773 15.9272 11.19 16.2145ZM7.57687 12.6014C8.08219 12.0965 8.90297 12.0932 9.41156 12.6018L9.4125 12.6014C9.91875 13.1081 9.91969 13.9284 9.41203 14.4361L9.4125 14.4365C8.59734 15.2517 7.19719 14.6723 7.19719 13.5192C7.19719 13.1868 7.32375 12.855 7.57687 12.6014ZM7.97484 12.9993C7.29047 13.6837 8.33016 14.7234 9.01453 14.039L9.015 14.0395C9.30141 13.7526 9.30187 13.2867 9.01453 12.9993L9.015 12.9984C8.72859 12.7129 8.26266 12.7111 7.97484 12.9993ZM8.00578 17.6207C7.74375 17.8828 7.34625 17.4848 7.60781 17.2232L12.1987 12.6323C12.4608 12.3707 12.8583 12.7682 12.5967 13.0303L8.00578 17.6207ZM13.267 11.962C10.4545 9.14903 5.62641 11.152 5.62641 15.1265C5.62641 19.1011 10.4541 21.1045 13.267 18.2915C15.015 16.5436 15.015 13.7095 13.267 11.962Z" fill="#2563EB"/>
</g>
<defs>
<clipPath id="clip0_413_6487">
<rect width="24" height="24" fill="white"/>
</clipPath>
</defs>
</svg>
