<svg width="24" height="24" viewBox="0 0 24 24" fill="none" xmlns="http://www.w3.org/2000/svg">
<g clip-path="url(#clip0_413_6421)">
<path d="M19 21.5C19.6628 21.4993 20.2983 21.2357 20.767 20.767C21.2357 20.2983 21.4993 19.6628 21.5 19V3C21.4993 2.33717 21.2357 1.70169 20.767 1.23299C20.2983 0.764301 19.6628 0.500688 19 0.5H3C2.33717 0.500688 1.70169 0.764301 1.23299 1.23299C0.764301 1.70169 0.500688 2.33717 0.5 3V19C0.500688 19.6628 0.764301 20.2983 1.23299 20.767C1.70169 21.2357 2.33717 21.4993 3 21.5H19ZM1.5 19V3C1.50045 2.60231 1.65863 2.22104 1.93984 1.93984C2.22104 1.65863 2.60231 1.50045 3 1.5H19C19.3977 1.50045 19.779 1.65863 20.0602 1.93984C20.3414 2.22104 20.4996 2.60231 20.5 3V19C20.4996 19.3977 20.3414 19.779 20.0602 20.0602C19.779 20.3414 19.3977 20.4996 19 20.5H3C2.60231 20.4996 2.22104 20.3414 1.93984 20.0602C1.65863 19.779 1.50045 19.3977 1.5 19Z" fill="#2563EB"/>
<path d="M17.5 4C17.5 3.70333 17.412 3.41332 17.2472 3.16665C17.0824 2.91997 16.8481 2.72771 16.574 2.61418C16.2999 2.50065 15.9983 2.47094 15.7074 2.52882C15.4164 2.5867 15.1491 2.72956 14.9393 2.93934C14.7296 3.14912 14.5867 3.41639 14.5288 3.70737C14.4709 3.99834 14.5006 4.29994 14.6142 4.57403C14.7277 4.84811 14.92 5.08238 15.1666 5.2472C15.4133 5.41203 15.7033 5.5 16 5.5C16.3977 5.49955 16.779 5.34137 17.0602 5.06016C17.3414 4.77896 17.4996 4.39769 17.5 4ZM15.5 4C15.5 3.90111 15.5293 3.80444 15.5843 3.72222C15.6392 3.63999 15.7173 3.5759 15.8087 3.53806C15.9 3.50022 16.0006 3.49032 16.0975 3.50961C16.1945 3.5289 16.2836 3.57652 16.3536 3.64645C16.4235 3.71637 16.4711 3.80546 16.4904 3.90246C16.5097 3.99945 16.4998 4.09998 16.4619 4.19134C16.4241 4.28271 16.36 4.36079 16.2778 4.41574C16.1956 4.47068 16.0989 4.5 16 4.5C15.8674 4.49984 15.7404 4.44711 15.6466 4.35338C15.5529 4.25964 15.5002 4.13256 15.5 4Z" fill="#2563EB"/>
<path d="M7.5 4C7.5 3.70333 7.41203 3.41332 7.24721 3.16665C7.08238 2.91997 6.84812 2.72771 6.57403 2.61418C6.29994 2.50065 5.99834 2.47094 5.70737 2.52882C5.41639 2.5867 5.14912 2.72956 4.93934 2.93934C4.72956 3.14912 4.5867 3.41639 4.52882 3.70737C4.47094 3.99834 4.50065 4.29994 4.61418 4.57403C4.72771 4.84811 4.91997 5.08238 5.16665 5.2472C5.41332 5.41203 5.70333 5.5 6 5.5C6.39769 5.49955 6.77896 5.34137 7.06016 5.06016C7.34137 4.77896 7.49955 4.39769 7.5 4ZM5.5 4C5.5 3.90111 5.52933 3.80444 5.58427 3.72222C5.63921 3.63999 5.7173 3.5759 5.80866 3.53806C5.90002 3.50022 6.00056 3.49032 6.09755 3.50961C6.19454 3.5289 6.28363 3.57652 6.35355 3.64645C6.42348 3.71637 6.4711 3.80546 6.49039 3.90246C6.50969 3.99945 6.49978 4.09998 6.46194 4.19134C6.4241 4.28271 6.36001 4.36079 6.27779 4.41574C6.19556 4.47068 6.09889 4.5 6 4.5C5.86744 4.49984 5.74036 4.44711 5.64662 4.35338C5.55289 4.25964 5.50016 4.13256 5.5 4Z" fill="#2563EB"/>
<path d="M21 7.5C21.1326 7.5 21.2598 7.44732 21.3536 7.35355C21.4473 7.25979 21.5 7.13261 21.5 7C21.5 6.86739 21.4473 6.74021 21.3536 6.64645C21.2598 6.55268 21.1326 6.5 21 6.5H1C0.867392 6.5 0.740215 6.55268 0.646447 6.64645C0.552678 6.74021 0.5 6.86739 0.5 7C0.5 7.13261 0.552678 7.25979 0.646447 7.35355C0.740215 7.44732 0.867392 7.5 1 7.5H21Z" fill="#2563EB"/>
<path d="M15 4.5C15.1326 4.5 15.2598 4.44732 15.3536 4.35355C15.4473 4.25979 15.5 4.13261 15.5 4C15.5 3.86739 15.4473 3.74021 15.3536 3.64645C15.2598 3.55268 15.1326 3.5 15 3.5H7C6.86739 3.5 6.74021 3.55268 6.64645 3.64645C6.55268 3.74021 6.5 3.86739 6.5 4C6.5 4.13261 6.55268 4.25979 6.64645 4.35355C6.74021 4.44732 6.86739 4.5 7 4.5H15Z" fill="#2563EB"/>
<path d="M13.4883 18.8506C13.499 18.7373 13.5 18.6133 13.5 18.5C13.5002 17.3031 13.0711 16.1459 12.2908 15.2384C11.5104 14.3309 10.4305 13.7333 9.24711 13.5542C8.99956 13.5195 8.74997 13.5014 8.50001 13.5C7.52606 13.5001 6.57336 13.7847 5.75889 14.3187C4.94443 14.8528 4.30367 15.6131 3.91531 16.5063C3.52695 17.3994 3.4079 18.3866 3.57278 19.3464C3.73766 20.3063 4.17929 21.1972 4.84343 21.9095C5.50757 22.6219 6.36531 23.1248 7.3113 23.3565C8.25729 23.5882 9.25034 23.5385 10.1685 23.2136C11.0867 22.8887 11.8899 22.3028 12.4797 21.5277C13.0695 20.7526 13.42 19.8221 13.4883 18.8506ZM4.50001 18.5C4.50112 17.4395 4.9229 16.4227 5.67281 15.6728C6.42271 14.9229 7.43948 14.5011 8.50001 14.5C8.7026 14.5013 8.90488 14.5162 9.10551 14.5444C10.0507 14.6893 10.9127 15.1679 11.5354 15.8935C12.1581 16.6191 12.5003 17.5438 12.5 18.5C12.5018 18.5873 12.4992 18.6747 12.4922 18.7617L12.4912 18.7759C12.4224 19.8125 11.953 20.7816 11.1823 21.4783C10.4117 22.1749 9.40021 22.5444 8.36197 22.5086C7.32373 22.4727 6.34016 22.0343 5.61938 21.2862C4.8986 20.5381 4.49716 19.5389 4.50001 18.5Z" fill="#2563EB"/>
<path d="M10.5 17.7C10.5019 18.178 10.6925 18.6359 11.0303 18.9741C11.3681 19.3124 11.8257 19.5035 12.3037 19.5061C12.637 19.5046 12.9635 19.4121 13.248 19.2386L16.1934 17.4666L20.1211 16.4847C20.2293 16.4577 20.3253 16.3953 20.3939 16.3075C20.4626 16.2197 20.4999 16.1115 20.5 16V10C20.5 9.86739 20.4473 9.74021 20.3536 9.64645C20.2598 9.55268 20.1326 9.5 20 9.5L18.918 9.5068L12.918 10.5068C12.834 10.5209 12.755 10.5562 12.6885 10.6094L8.86852 13.6594C8.79249 13.7201 8.73582 13.8016 8.70543 13.894C8.67505 13.9864 8.67228 14.0857 8.69747 14.1797C8.72266 14.2736 8.77471 14.3582 8.84724 14.423C8.91977 14.4878 9.00964 14.5301 9.10582 14.5446C10.0935 14.6941 10.989 15.2093 11.6146 15.988L11.303 16.194C11.0553 16.3593 10.8524 16.5833 10.7122 16.8461C10.5721 17.1088 10.4992 17.4022 10.5 17.7ZM11.8564 17.0267L12.5964 16.5367C12.7049 16.4647 12.781 16.3531 12.8086 16.2258C12.8361 16.0985 12.8129 15.9655 12.7438 15.8551C12.1643 14.9236 11.2946 14.2085 10.2686 13.82L13.2109 11.4714L19 10.5H19.5V15.6094L15.8789 16.5151C15.8309 16.5271 15.7848 16.546 15.7422 16.5713L12.7109 18.3921C12.5909 18.4653 12.4533 18.5047 12.3127 18.5061C12.1721 18.5076 12.0337 18.4711 11.9121 18.4004C11.787 18.3314 11.6827 18.23 11.6101 18.1069C11.5376 17.9837 11.4996 17.8433 11.5 17.7004C11.4993 17.5675 11.5315 17.4364 11.5936 17.3189C11.6558 17.2014 11.7461 17.1009 11.8564 17.0267Z" fill="#2563EB"/>
<path d="M12.5977 16.5362L14.2777 15.4162C14.386 15.3418 14.4607 15.2277 14.4856 15.0987C14.5104 14.9697 14.4835 14.836 14.4106 14.7267C14.3378 14.6174 14.2248 14.5411 14.0961 14.5144C13.9674 14.4878 13.8335 14.5128 13.7231 14.5842L12.0431 15.7042C11.9878 15.7403 11.9402 15.787 11.9031 15.8416C11.866 15.8963 11.8401 15.9577 11.8268 16.0224C11.8136 16.0871 11.8133 16.1538 11.8259 16.2186C11.8386 16.2834 11.864 16.3451 11.9006 16.4001C11.9373 16.455 11.9844 16.5022 12.0394 16.5388C12.0944 16.5754 12.156 16.6008 12.2209 16.6134C12.2857 16.6261 12.3524 16.6258 12.4171 16.6125C12.4818 16.5992 12.5431 16.5733 12.5977 16.5362Z" fill="#2563EB"/>
<path d="M23 17.5C23.1326 17.5 23.2598 17.4473 23.3536 17.3536C23.4473 17.2598 23.5 17.1326 23.5 17V9C23.5 8.86739 23.4473 8.74021 23.3536 8.64645C23.2598 8.55268 23.1326 8.5 23 8.5H20C19.8674 8.5 19.7402 8.55268 19.6464 8.64645C19.5527 8.74021 19.5 8.86739 19.5 9V17C19.5 17.1326 19.5527 17.2598 19.6464 17.3536C19.7402 17.4473 19.8674 17.5 20 17.5H23ZM20.5 9.5H22.5V16.5H20.5V9.5Z" fill="#2563EB"/>
</g>
<defs>
<clipPath id="clip0_413_6421">
<rect width="24" height="24" fill="white"/>
</clipPath>
</defs>
</svg>
