<svg width="24" height="24" viewBox="0 0 24 24" fill="none" xmlns="http://www.w3.org/2000/svg">
<path d="M21.591 14.0333L20.1563 10.4456V9.37501C20.1557 7.9845 19.8296 6.61344 19.204 5.3716C18.5785 4.12976 17.6708 3.05165 16.5537 2.22359C15.4367 1.39553 14.1413 0.840534 12.7712 0.603038C11.4011 0.365541 9.99445 0.452143 8.66386 0.855909C7.33327 1.25968 6.1157 1.96939 5.10865 2.92822C4.1016 3.88705 3.33305 5.06836 2.86453 6.37756C2.39602 7.68676 2.24055 9.08747 2.4106 10.4675C2.58064 11.8476 3.07145 13.1687 3.84375 14.325C5.06409 16.1351 5.71691 18.268 5.71875 20.451V23.25C5.71875 23.3246 5.74838 23.3961 5.80113 23.4489C5.85387 23.5016 5.92541 23.5313 6 23.5313H14.625C14.6877 23.5312 14.7486 23.5103 14.7981 23.4717C14.8476 23.4331 14.8827 23.3791 14.898 23.3183L15.5944 20.5313H18.75C19.1228 20.5308 19.4802 20.3824 19.7438 20.1188C20.0074 19.8552 20.1558 19.4978 20.1563 19.125V17.625C20.1563 17.5881 20.149 17.5515 20.1348 17.5174C20.1207 17.4833 20.0999 17.4523 20.0738 17.4263L19.5998 16.9519L20.0006 16.7516C20.0474 16.7283 20.0867 16.6923 20.1141 16.6479C20.1416 16.6035 20.1562 16.5523 20.1563 16.5V15.2813H20.7461C20.8949 15.2813 21.0413 15.2449 21.1727 15.1752C21.3041 15.1055 21.4164 15.0047 21.4998 14.8815C21.5832 14.7583 21.6351 14.6166 21.651 14.4687C21.6669 14.3209 21.6463 14.1713 21.591 14.0333ZM20.7461 14.7188H19.875C19.8004 14.7188 19.7289 14.7484 19.6761 14.8011C19.6234 14.8539 19.5938 14.9254 19.5938 15V16.326L18.9994 16.6234C18.9597 16.6434 18.9253 16.6726 18.899 16.7085C18.8728 16.7443 18.8554 16.7859 18.8483 16.8298C18.8412 16.8737 18.8446 16.9187 18.8582 16.961C18.8718 17.0033 18.8953 17.0419 18.9266 17.0734L19.5941 17.7413V19.125C19.5938 19.3488 19.5048 19.5633 19.3465 19.7214C19.1883 19.8796 18.9738 19.9686 18.75 19.9688H15.225C14.8554 19.9691 14.4914 19.878 14.1655 19.7036C13.8396 19.5291 13.5619 19.2768 13.3571 18.969C13.3368 18.9378 13.3106 18.911 13.2798 18.89C13.2491 18.8691 13.2145 18.8544 13.1781 18.847C13.1417 18.8395 13.1041 18.8393 13.0676 18.8464C13.0311 18.8535 12.9963 18.8678 12.9654 18.8884C12.9345 18.9091 12.9079 18.9356 12.8873 18.9666C12.8667 18.9975 12.8524 19.0323 12.8453 19.0688C12.8382 19.1053 12.8384 19.1429 12.846 19.1793C12.8535 19.2157 12.8682 19.2503 12.8891 19.281C13.1255 19.6363 13.4398 19.9329 13.8083 20.1481C14.1767 20.3634 14.5895 20.4916 15.015 20.523L14.4038 22.9688H6.28125V20.4491C6.28016 18.1547 5.59469 15.9127 4.3125 14.01C3.58862 12.9267 3.1285 11.6889 2.969 10.3958C2.80951 9.10263 2.95506 7.79013 3.39401 6.56337C3.83296 5.33662 4.55311 4.22971 5.49676 3.33131C6.44042 2.43291 7.58135 1.76799 8.82818 1.38981C10.075 1.01163 11.3931 0.930702 12.6768 1.15351C13.9605 1.37631 15.1743 1.89666 16.2207 2.67286C17.2672 3.44907 18.1174 4.45957 18.7031 5.62341C19.2888 6.78725 19.5939 8.07209 19.5938 9.37501V10.5C19.5937 10.5357 19.6006 10.5711 19.614 10.6043L21.069 14.2418C21.0901 14.2945 21.0979 14.3516 21.0918 14.4081C21.0857 14.4646 21.0659 14.5187 21.034 14.5657C21.0021 14.6128 20.9592 14.6513 20.9091 14.6779C20.8589 14.7045 20.8029 14.7188 20.7461 14.7188Z" fill="#2563EB"/>
<path d="M11.8125 12.2812H12.5625C12.6371 12.2812 12.7086 12.2516 12.7614 12.1989C12.8141 12.1461 12.8438 12.0746 12.8438 12C12.8438 11.9254 12.8141 11.8539 12.7614 11.8011C12.7086 11.7484 12.6371 11.7188 12.5625 11.7188H11.8125C11.7379 11.7188 11.6664 11.7484 11.6136 11.8011C11.5609 11.8539 11.5312 11.9254 11.5312 12C11.5312 12.0746 11.5609 12.1461 11.6136 12.1989C11.6664 12.2516 11.7379 12.2812 11.8125 12.2812Z" fill="#2563EB"/>
<path d="M11.8125 10.7812H12.5625C12.6371 10.7812 12.7086 10.7516 12.7614 10.6989C12.8141 10.6461 12.8438 10.5746 12.8438 10.5C12.8438 10.4254 12.8141 10.3539 12.7614 10.3011C12.7086 10.2484 12.6371 10.2188 12.5625 10.2188H11.8125C11.7379 10.2187 11.6664 10.2484 11.6136 10.3011C11.5609 10.3539 11.5312 10.4254 11.5312 10.5C11.5312 10.5746 11.5609 10.6461 11.6136 10.6989C11.6664 10.7516 11.7379 10.7812 11.8125 10.7812Z" fill="#2563EB"/>
<path d="M9.9375 10.7812H10.6875C10.7621 10.7812 10.8336 10.7516 10.8864 10.6989C10.9391 10.6461 10.9688 10.5746 10.9688 10.5C10.9688 10.4254 10.9391 10.3539 10.8864 10.3011C10.8336 10.2484 10.7621 10.2188 10.6875 10.2188H9.9375C9.86291 10.2187 9.79137 10.2484 9.73863 10.3011C9.68588 10.3539 9.65625 10.4254 9.65625 10.5C9.65625 10.5746 9.68588 10.6461 9.73863 10.6989C9.79137 10.7516 9.86291 10.7812 9.9375 10.7812Z" fill="#2563EB"/>
<path d="M11.8125 9.28125H12.5625C12.6371 9.28125 12.7086 9.25162 12.7614 9.19887C12.8141 9.14613 12.8438 9.07459 12.8438 9C12.8438 8.92541 12.8141 8.85387 12.7614 8.80113C12.7086 8.74838 12.6371 8.71875 12.5625 8.71875H11.8125C11.7379 8.71875 11.6664 8.74838 11.6136 8.80113C11.5609 8.85387 11.5312 8.92541 11.5312 9C11.5312 9.07459 11.5609 9.14613 11.6136 9.19887C11.6664 9.25162 11.7379 9.28125 11.8125 9.28125Z" fill="#2563EB"/>
<path d="M13.6875 10.7812H14.4375C14.5121 10.7812 14.5836 10.7516 14.6364 10.6989C14.6891 10.6461 14.7188 10.5746 14.7188 10.5C14.7188 10.4254 14.6891 10.3539 14.6364 10.3011C14.5836 10.2484 14.5121 10.2188 14.4375 10.2188H13.6875C13.6129 10.2187 13.5414 10.2484 13.4886 10.3011C13.4359 10.3539 13.4062 10.4254 13.4062 10.5C13.4062 10.5746 13.4359 10.6461 13.4886 10.6989C13.5414 10.7516 13.6129 10.7812 13.6875 10.7812Z" fill="#2563EB"/>
<path d="M13.6875 9.28125H14.4375C14.5121 9.28125 14.5836 9.25162 14.6364 9.19887C14.6891 9.14613 14.7188 9.07459 14.7188 9C14.7188 8.92541 14.6891 8.85387 14.6364 8.80113C14.5836 8.74838 14.5121 8.71875 14.4375 8.71875H13.6875C13.6129 8.71875 13.5414 8.74838 13.4886 8.80113C13.4359 8.85387 13.4062 8.92541 13.4062 9C13.4062 9.07459 13.4359 9.14613 13.4886 9.19887C13.5414 9.25162 13.6129 9.28125 13.6875 9.28125Z" fill="#2563EB"/>
<path d="M9.9375 12.2812H10.6875C10.7621 12.2812 10.8336 12.2516 10.8864 12.1989C10.9391 12.1461 10.9688 12.0746 10.9688 12C10.9688 11.9254 10.9391 11.8539 10.8864 11.8011C10.8336 11.7484 10.7621 11.7188 10.6875 11.7188H9.9375C9.86291 11.7188 9.79137 11.7484 9.73863 11.8011C9.68588 11.8539 9.65625 11.9254 9.65625 12C9.65625 12.0746 9.68588 12.1461 9.73863 12.1989C9.79137 12.2516 9.86291 12.2812 9.9375 12.2812Z" fill="#2563EB"/>
<path d="M13.6875 12.2812H14.4375C14.5121 12.2812 14.5836 12.2516 14.6364 12.1989C14.6891 12.1461 14.7188 12.0746 14.7188 12C14.7188 11.9254 14.6891 11.8539 14.6364 11.8011C14.5836 11.7484 14.5121 11.7188 14.4375 11.7188H13.6875C13.6129 11.7188 13.5414 11.7484 13.4886 11.8011C13.4359 11.8539 13.4062 11.9254 13.4062 12C13.4062 12.0746 13.4359 12.1461 13.4886 12.1989C13.5414 12.2516 13.6129 12.2812 13.6875 12.2812Z" fill="#2563EB"/>
<path d="M9.9375 9.28125H10.6875C10.7621 9.28125 10.8336 9.25162 10.8864 9.19887C10.9391 9.14613 10.9688 9.07459 10.9688 9C10.9688 8.92541 10.9391 8.85387 10.8864 8.80113C10.8336 8.74838 10.7621 8.71875 10.6875 8.71875H9.9375C9.86291 8.71875 9.79137 8.74838 9.73863 8.80113C9.68588 8.85387 9.65625 8.92541 9.65625 9C9.65625 9.07459 9.68588 9.14613 9.73863 9.19887C9.79137 9.25162 9.86291 9.28125 9.9375 9.28125Z" fill="#2563EB"/>
<path d="M14.8125 5.34375H14.1562V4.5C14.1562 4.42541 14.1266 4.35387 14.0739 4.30113C14.0211 4.24838 13.9496 4.21875 13.875 4.21875C13.8004 4.21875 13.7289 4.24838 13.6761 4.30113C13.6234 4.35387 13.5938 4.42541 13.5938 4.5V5.34375H11.5312V4.5C11.5312 4.42541 11.5016 4.35387 11.4489 4.30113C11.3961 4.24838 11.3246 4.21875 11.25 4.21875C11.1754 4.21875 11.1039 4.24838 11.0511 4.30113C10.9984 4.35387 10.9688 4.42541 10.9688 4.5V5.34375H8.90625V4.5C8.90625 4.42541 8.87662 4.35387 8.82387 4.30113C8.77113 4.24838 8.69959 4.21875 8.625 4.21875C8.55041 4.21875 8.47887 4.24838 8.42613 4.30113C8.37338 4.35387 8.34375 4.42541 8.34375 4.5V5.34375H7.6875C7.41406 5.34395 7.15187 5.45266 6.95852 5.64602C6.76516 5.83937 6.65645 6.10156 6.65625 6.375V12.375C6.65645 12.6484 6.76516 12.9106 6.95852 13.104C7.15187 13.2973 7.41406 13.4061 7.6875 13.4062H14.8125C15.0859 13.4061 15.3481 13.2973 15.5415 13.104C15.7348 12.9106 15.8436 12.6484 15.8438 12.375V6.375C15.8436 6.10156 15.7348 5.83937 15.5415 5.64602C15.3481 5.45266 15.0859 5.34395 14.8125 5.34375ZM15.2812 12.375C15.2811 12.4993 15.2316 12.6184 15.1437 12.7062C15.0559 12.7941 14.9368 12.8436 14.8125 12.8438H7.6875C7.56324 12.8436 7.44413 12.7941 7.35626 12.7062C7.2684 12.6184 7.21895 12.4993 7.21875 12.375V8.15625H15.2812V12.375ZM15.2812 7.59375H7.21875V6.375C7.21895 6.25074 7.2684 6.13163 7.35626 6.04376C7.44413 5.9559 7.56324 5.90645 7.6875 5.90625H8.34375V6.75C8.34375 6.82459 8.37338 6.89613 8.42613 6.94887C8.47887 7.00162 8.55041 7.03125 8.625 7.03125C8.69959 7.03125 8.77113 7.00162 8.82387 6.94887C8.87662 6.89613 8.90625 6.82459 8.90625 6.75V5.90625H10.9688V6.75C10.9688 6.82459 10.9984 6.89613 11.0511 6.94887C11.1039 7.00162 11.1754 7.03125 11.25 7.03125C11.3246 7.03125 11.3961 7.00162 11.4489 6.94887C11.5016 6.89613 11.5312 6.82459 11.5312 6.75V5.90625H13.5938V6.75C13.5938 6.82459 13.6234 6.89613 13.6761 6.94887C13.7289 7.00162 13.8004 7.03125 13.875 7.03125C13.9496 7.03125 14.0211 7.00162 14.0739 6.94887C14.1266 6.89613 14.1562 6.82459 14.1562 6.75V5.90625H14.8125C14.9368 5.90645 15.0559 5.9559 15.1437 6.04376C15.2316 6.13163 15.2811 6.25074 15.2812 6.375V7.59375Z" fill="#2563EB"/>
<path d="M8.0625 9.28125H8.8125C8.88709 9.28125 8.95863 9.25162 9.01137 9.19887C9.06412 9.14613 9.09375 9.07459 9.09375 9C9.09375 8.92541 9.06412 8.85387 9.01137 8.80113C8.95863 8.74838 8.88709 8.71875 8.8125 8.71875H8.0625C7.98791 8.71875 7.91637 8.74838 7.86363 8.80113C7.81088 8.85387 7.78125 8.92541 7.78125 9C7.78125 9.07459 7.81088 9.14613 7.86363 9.19887C7.91637 9.25162 7.98791 9.28125 8.0625 9.28125Z" fill="#2563EB"/>
<path d="M11.25 2.34375C9.85935 2.34375 8.49993 2.75613 7.34365 3.52873C6.18737 4.30133 5.28615 5.39946 4.75398 6.68426C4.2218 7.96905 4.08255 9.3828 4.35386 10.7467C4.62516 12.1107 5.29482 13.3635 6.27816 14.3468C7.2615 15.3302 8.51435 15.9998 9.87827 16.2711C11.2422 16.5424 12.656 16.4032 13.9407 15.871C15.2255 15.3388 16.3237 14.4376 17.0963 13.2814C17.8689 12.1251 18.2813 10.7656 18.2813 9.375C18.2792 7.51084 17.5377 5.72362 16.2195 4.40546C14.9014 3.08729 13.1142 2.34583 11.25 2.34375ZM11.25 15.8438C9.9706 15.8438 8.71994 15.4644 7.65616 14.7536C6.59238 14.0428 5.76326 13.0325 5.27366 11.8505C4.78405 10.6685 4.65595 9.36782 4.90555 8.11301C5.15515 6.85819 5.77124 5.70557 6.67591 4.8009C7.58058 3.89623 8.7332 3.28014 9.98801 3.03055C11.2428 2.78095 12.5435 2.90905 13.7255 3.39865C14.9075 3.88826 15.9178 4.71737 16.6286 5.78115C17.3394 6.84494 17.7188 8.0956 17.7188 9.375C17.7169 11.09 17.0347 12.7343 15.822 13.947C14.6093 15.1597 12.965 15.8419 11.25 15.8438Z" fill="#2563EB"/>
<path d="M8.0625 10.7812H8.8125C8.88709 10.7812 8.95863 10.7516 9.01137 10.6989C9.06412 10.6461 9.09375 10.5746 9.09375 10.5C9.09375 10.4254 9.06412 10.3539 9.01137 10.3011C8.95863 10.2484 8.88709 10.2188 8.8125 10.2188H8.0625C7.98791 10.2187 7.91637 10.2484 7.86363 10.3011C7.81088 10.3539 7.78125 10.4254 7.78125 10.5C7.78125 10.5746 7.81088 10.6461 7.86363 10.6989C7.91637 10.7516 7.98791 10.7812 8.0625 10.7812Z" fill="#2563EB"/>
<path d="M8.0625 12.2812H8.8125C8.88709 12.2812 8.95863 12.2516 9.01137 12.1989C9.06412 12.1461 9.09375 12.0746 9.09375 12C9.09375 11.9254 9.06412 11.8539 9.01137 11.8011C8.95863 11.7484 8.88709 11.7188 8.8125 11.7188H8.0625C7.98791 11.7188 7.91637 11.7484 7.86363 11.8011C7.81088 11.8539 7.78125 11.9254 7.78125 12C7.78125 12.0746 7.81088 12.1461 7.86363 12.1989C7.91637 12.2516 7.98791 12.2812 8.0625 12.2812Z" fill="#2563EB"/>
</svg>
