<svg width="24" height="24" viewBox="0 0 24 24" fill="none" xmlns="http://www.w3.org/2000/svg">
<path d="M18.375 7.12502H17.5575C17.458 7.12502 17.3627 7.16453 17.2923 7.23486C17.222 7.30519 17.1825 7.40057 17.1825 7.50002C17.1825 7.59948 17.222 7.69486 17.2923 7.76519C17.3627 7.83552 17.458 7.87502 17.5575 7.87502H18C17.9849 7.9337 17.9831 7.995 17.9946 8.05448C18.0061 8.11396 18.0307 8.17014 18.0666 8.21895C18.1024 8.26776 18.1487 8.30798 18.2021 8.3367C18.2554 8.36543 18.3145 8.38193 18.375 8.38503C18.705 8.38503 18.7762 8.08877 18.75 7.80752C19.0205 7.72116 19.2509 7.54055 19.3994 7.29858C19.548 7.05661 19.6047 6.76936 19.5592 6.4891C19.5138 6.20884 19.3693 5.95421 19.1519 5.77153C18.9346 5.58886 18.6589 5.4903 18.375 5.49377C18.2576 5.49377 18.1451 5.44715 18.0621 5.36417C17.9791 5.28118 17.9325 5.16863 17.9325 5.05127C17.9325 4.93392 17.9791 4.82136 18.0621 4.73838C18.1451 4.6554 18.2576 4.60877 18.375 4.60877H19.1925C19.292 4.60877 19.3873 4.56927 19.4577 4.49894C19.528 4.42861 19.5675 4.33323 19.5675 4.23377C19.5675 4.13432 19.528 4.03894 19.4577 3.96861C19.3873 3.89828 19.292 3.85877 19.1925 3.85877H18.75C18.7671 3.79937 18.7704 3.73686 18.7599 3.67596C18.7493 3.61506 18.725 3.55735 18.6889 3.50718C18.6529 3.457 18.6058 3.41566 18.5515 3.38628C18.4971 3.35689 18.4367 3.34022 18.375 3.33752C18.045 3.33752 17.9737 3.63752 18 3.91502C17.7315 4.00371 17.5035 4.18517 17.3568 4.42684C17.21 4.66851 17.1542 4.95457 17.1994 5.23366C17.2446 5.51276 17.3877 5.76662 17.6032 5.94968C17.8186 6.13275 18.0923 6.23303 18.375 6.23253C18.4933 6.23253 18.6069 6.27954 18.6905 6.36323C18.7742 6.44692 18.8212 6.56042 18.8212 6.67877C18.8212 6.79713 18.7742 6.91063 18.6905 6.99432C18.6069 7.07801 18.4933 7.12502 18.375 7.12502Z" fill="#2563EB"/>
<path d="M5.625 4.59752H6.4425C6.54195 4.59752 6.63733 4.55802 6.70766 4.48769C6.77799 4.41736 6.8175 4.32198 6.8175 4.22252C6.8175 4.12307 6.77799 4.02769 6.70766 3.95736C6.63733 3.88703 6.54195 3.84752 6.4425 3.84752H6C6.01508 3.78885 6.01694 3.72755 6.00542 3.66807C5.99391 3.60859 5.96932 3.55241 5.93343 3.5036C5.89754 3.45479 5.85125 3.41457 5.79791 3.38585C5.74456 3.35712 5.6855 3.34062 5.625 3.33752C5.295 3.33752 5.22375 3.63752 5.25 3.91502C4.98154 4.00371 4.75348 4.18517 4.60675 4.42684C4.46003 4.66851 4.40424 4.95457 4.4494 5.23366C4.49456 5.51276 4.63771 5.76662 4.85317 5.94968C5.06862 6.13275 5.34227 6.23303 5.625 6.23253C5.74335 6.23253 5.85685 6.27954 5.94054 6.36323C6.02423 6.44692 6.07125 6.56042 6.07125 6.67877C6.07125 6.79713 6.02423 6.91063 5.94054 6.99432C5.85685 7.07801 5.74335 7.12502 5.625 7.12502H4.8075C4.70804 7.12502 4.61266 7.16453 4.54233 7.23486C4.472 7.30519 4.4325 7.40057 4.4325 7.50002C4.4325 7.59948 4.472 7.69486 4.54233 7.76519C4.61266 7.83552 4.70804 7.87502 4.8075 7.87502H5.25C5.23491 7.9337 5.23305 7.995 5.24457 8.05448C5.25608 8.11396 5.28067 8.17014 5.31656 8.21895C5.35245 8.26776 5.39874 8.30798 5.45208 8.3367C5.50543 8.36543 5.56449 8.38193 5.625 8.38503C5.955 8.38503 6.02625 8.08877 6 7.80752C6.27046 7.72116 6.50092 7.54055 6.64944 7.29858C6.79796 7.05661 6.85467 6.76936 6.80925 6.4891C6.76383 6.20884 6.61929 5.95421 6.40194 5.77153C6.1846 5.58886 5.90889 5.4903 5.625 5.49377C5.50615 5.49377 5.39216 5.44656 5.30812 5.36252C5.22408 5.27848 5.17687 5.1645 5.17687 5.04565C5.17687 4.9268 5.22408 4.81282 5.30812 4.72878C5.39216 4.64474 5.50615 4.59752 5.625 4.59752Z" fill="#2563EB"/>
<path d="M12.0001 9.30005H13.1851C13.2845 9.30005 13.3799 9.26054 13.4502 9.19021C13.5206 9.11989 13.5601 9.02451 13.5601 8.92505C13.5601 8.82559 13.5206 8.73021 13.4502 8.65988C13.3799 8.58956 13.2845 8.55005 13.1851 8.55005H12.3751V8.17505C12.3751 8.07559 12.3356 7.98021 12.2652 7.90988C12.1949 7.83956 12.0995 7.80005 12.0001 7.80005C11.9006 7.80005 11.8052 7.83956 11.7349 7.90988C11.6646 7.98021 11.6251 8.07559 11.6251 8.17505V8.5913C11.2611 8.68798 10.9444 8.91304 10.7335 9.22494C10.5225 9.53684 10.4314 9.91453 10.4771 10.2883C10.5228 10.6621 10.7022 11.0067 10.9821 11.2586C11.262 11.5105 11.6236 11.6526 12.0001 11.6588C12.2049 11.6728 12.3968 11.764 12.5369 11.914C12.677 12.064 12.755 12.2616 12.755 12.4669C12.755 12.6722 12.677 12.8698 12.5369 13.0199C12.3968 13.1699 12.2049 13.2611 12.0001 13.275H10.8151C10.7156 13.275 10.6202 13.3146 10.5499 13.3849C10.4796 13.4552 10.4401 13.5506 10.4401 13.65C10.4401 13.7495 10.4796 13.8449 10.5499 13.9152C10.6202 13.9855 10.7156 14.025 10.8151 14.025H11.6251V14.4C11.6251 14.4995 11.6646 14.5949 11.7349 14.6652C11.8052 14.7355 11.9006 14.775 12.0001 14.775C12.0995 14.775 12.1949 14.7355 12.2652 14.6652C12.3356 14.5949 12.3751 14.4995 12.3751 14.4V13.9838C12.7413 13.89 13.0608 13.666 13.274 13.3538C13.4872 13.0416 13.5794 12.6624 13.5335 12.2872C13.4875 11.9119 13.3066 11.5662 13.0244 11.3146C12.7422 11.0631 12.3781 10.9228 12.0001 10.92C11.7852 10.92 11.5792 10.8347 11.4273 10.6828C11.2754 10.5309 11.1901 10.3249 11.1901 10.11C11.1901 9.89522 11.2754 9.6892 11.4273 9.53729C11.5792 9.38539 11.7852 9.30005 12.0001 9.30005Z" fill="#2563EB"/>
<path d="M21.855 21.1688C21.6823 21.3396 21.4492 21.4355 21.2063 21.4355C20.9633 21.4355 20.7302 21.3396 20.5575 21.1688L20.115 20.715C19.9579 20.5544 19.7698 20.4273 19.5621 20.3414C19.3544 20.2556 19.1314 20.2128 18.9067 20.2156C18.682 20.2184 18.4602 20.2668 18.2547 20.3578C18.0492 20.4488 17.8644 20.5805 17.7113 20.745L17.2688 21.225C17.1827 21.3148 17.0793 21.3862 16.9649 21.4349C16.8506 21.4837 16.7275 21.5088 16.6031 21.5088C16.4788 21.5088 16.3557 21.4837 16.2413 21.4349C16.127 21.3862 16.0236 21.3148 15.9375 21.225L15.495 20.745C15.3422 20.58 15.1574 20.4479 14.9519 20.3565C14.7464 20.2652 14.5245 20.2167 14.2996 20.2139C14.0747 20.2111 13.8516 20.2541 13.6439 20.3402C13.4362 20.4264 13.2481 20.5539 13.0913 20.715L12.6488 21.1688C12.4756 21.3387 12.2427 21.4339 12 21.4339C11.7574 21.4339 11.5244 21.3387 11.3513 21.1688L10.875 20.6888C10.7203 20.5303 10.5354 20.4043 10.3312 20.3183C10.1271 20.2323 9.9078 20.188 9.68627 20.188C9.46474 20.188 9.24545 20.2323 9.0413 20.3183C8.83715 20.4043 8.65227 20.5303 8.49752 20.6888L8.03627 21.1688C7.86246 21.339 7.62889 21.4343 7.38565 21.4343C7.1424 21.4343 6.90883 21.339 6.73502 21.1688L6.27002 20.6888C6.1156 20.5304 5.93103 20.4045 5.72719 20.3185C5.52335 20.2326 5.30437 20.1883 5.08315 20.1883C4.86192 20.1883 4.64294 20.2326 4.4391 20.3185C4.23526 20.4045 4.05069 20.5304 3.89627 20.6888L3.44252 21.1688C3.26934 21.3387 3.0364 21.4339 2.79377 21.4339C2.55114 21.4339 2.3182 21.3387 2.14502 21.1688C2.11016 21.1336 2.06868 21.1058 2.02299 21.0867C1.97729 21.0677 1.92827 21.0579 1.87877 21.0579C1.82927 21.0579 1.78025 21.0677 1.73455 21.0867C1.68886 21.1058 1.64738 21.1336 1.61252 21.1688C1.12502 21.75 2.32877 22.2188 2.79377 22.1925C3.49502 22.23 4.01252 21.69 4.44752 21.21C4.62116 21.041 4.85393 20.9464 5.09627 20.9464C5.33861 20.9464 5.57138 21.041 5.74502 21.21L6.21002 21.69C6.36444 21.8485 6.54901 21.9743 6.75285 22.0603C6.95669 22.1463 7.17567 22.1906 7.3969 22.1906C7.61812 22.1906 7.8371 22.1463 8.04094 22.0603C8.24478 21.9743 8.42935 21.8485 8.58377 21.69L9.04877 21.21C9.22241 21.041 9.45518 20.9464 9.69752 20.9464C9.93986 20.9464 10.1726 21.041 10.3463 21.21L10.8113 21.69C10.966 21.8486 11.1509 21.9745 11.3551 22.0605C11.5592 22.1465 11.7785 22.1909 12 22.1909C12.2215 22.1909 12.4408 22.1465 12.645 22.0605C12.8491 21.9745 13.034 21.8486 13.1888 21.69C13.4663 21.405 13.8413 20.9138 14.2875 20.9625C14.7563 20.925 15.1013 21.4388 15.3863 21.735C15.542 21.9019 15.7305 22.0348 15.9398 22.1258C16.1491 22.2167 16.3749 22.2636 16.6031 22.2636C16.8314 22.2636 17.0572 22.2167 17.2665 22.1258C17.4758 22.0348 17.6642 21.9019 17.82 21.735L18.2625 21.2513C18.3473 21.162 18.4494 21.0909 18.5625 21.0423C18.6757 20.9937 18.7975 20.9686 18.9206 20.9686C19.0438 20.9686 19.1656 20.9937 19.2788 21.0423C19.3919 21.0909 19.494 21.162 19.5788 21.2513L20.0175 21.705C20.1723 21.8636 20.3572 21.9895 20.5613 22.0755C20.7655 22.1615 20.9847 22.2059 21.2063 22.2059C21.4278 22.2059 21.6471 22.1615 21.8512 22.0755C22.0554 21.9895 22.2403 21.8636 22.395 21.705C22.4661 21.6334 22.5059 21.5365 22.5055 21.4356C22.5052 21.3347 22.4648 21.238 22.3931 21.1669C22.3215 21.0958 22.2246 21.0561 22.1237 21.0564C22.0228 21.0568 21.9261 21.0972 21.855 21.1688Z" fill="#2563EB"/>
<path d="M21.855 18.4651C21.6814 18.6341 21.4486 18.7287 21.2063 18.7287C20.9639 18.7287 20.7312 18.6341 20.5575 18.4651L20.115 18.0001C19.9571 17.8406 19.7686 17.7147 19.5609 17.6297C19.3531 17.5448 19.1304 17.5027 18.906 17.5058C18.6816 17.509 18.4601 17.5573 18.2548 17.6481C18.0495 17.7388 17.8647 17.87 17.7113 18.0338L17.2688 18.5138C17.1827 18.6035 17.0793 18.6749 16.9649 18.7237C16.8506 18.7725 16.7275 18.7976 16.6031 18.7976C16.4788 18.7976 16.3557 18.7725 16.2413 18.7237C16.127 18.6749 16.0236 18.6035 15.9375 18.5138L15.495 18.0338C15.3422 17.8691 15.1575 17.737 14.9522 17.6457C14.7468 17.5543 14.5251 17.5056 14.3004 17.5025C14.0757 17.4993 13.8526 17.5418 13.6448 17.6273C13.437 17.7128 13.2487 17.8397 13.0913 18.0001L12.6488 18.4576C12.4751 18.6266 12.2424 18.7212 12 18.7212C11.7577 18.7212 11.5249 18.6266 11.3513 18.4576L10.875 18.0001C10.7203 17.8416 10.5354 17.7156 10.3312 17.6296C10.1271 17.5436 9.9078 17.4993 9.68627 17.4993C9.46474 17.4993 9.24545 17.5436 9.0413 17.6296C8.83715 17.7156 8.65227 17.8416 8.49752 18.0001L8.03627 18.4801C7.862 18.6494 7.62861 18.7441 7.38564 18.7441C7.14268 18.7441 6.90929 18.6494 6.73502 18.4801L6.28127 18.0001C6.12685 17.8417 5.94228 17.7158 5.73844 17.6298C5.5346 17.5439 5.31562 17.4996 5.09439 17.4996C4.87317 17.4996 4.65419 17.5439 4.45035 17.6298C4.24651 17.7158 4.06194 17.8417 3.90752 18.0001L3.44252 18.4651C3.26888 18.6341 3.03611 18.7287 2.79377 18.7287C2.55143 18.7287 2.31866 18.6341 2.14502 18.4651C2.11016 18.4299 2.06868 18.402 2.02299 18.383C1.97729 18.364 1.92827 18.3542 1.87877 18.3542C1.82927 18.3542 1.78025 18.364 1.73455 18.383C1.68886 18.402 1.64738 18.4299 1.61252 18.4651C1.12502 19.0501 2.32877 19.5001 2.79377 19.5001C3.49502 19.5376 4.01252 18.9976 4.44752 18.5176C4.62023 18.3467 4.85335 18.2509 5.09627 18.2509C5.33919 18.2509 5.57231 18.3467 5.74502 18.5176L6.21002 18.9976C6.36444 19.156 6.54901 19.2819 6.75285 19.3678C6.95669 19.4538 7.17567 19.4981 7.3969 19.4981C7.61812 19.4981 7.8371 19.4538 8.04094 19.3678C8.24478 19.2819 8.42935 19.156 8.58377 18.9976L9.04877 18.5176C9.22148 18.3467 9.4546 18.2509 9.69752 18.2509C9.94045 18.2509 10.1736 18.3467 10.3463 18.5176L10.8113 18.9976C10.966 19.1561 11.1509 19.2821 11.3551 19.3681C11.5592 19.4541 11.7785 19.4984 12 19.4984C12.2215 19.4984 12.4408 19.4541 12.645 19.3681C12.8491 19.2821 13.034 19.1561 13.1888 18.9976C13.4663 18.7126 13.8413 18.2213 14.2875 18.2476C14.7563 18.2138 15.1013 18.7276 15.3863 19.0238C15.542 19.1906 15.7304 19.3236 15.9398 19.4146C16.1491 19.5055 16.3749 19.5524 16.6031 19.5524C16.8314 19.5524 17.0572 19.5055 17.2665 19.4146C17.4758 19.3236 17.6642 19.1906 17.82 19.0238L18.2625 18.5401C18.3473 18.4508 18.4494 18.3797 18.5625 18.3311C18.6757 18.2825 18.7975 18.2574 18.9206 18.2574C19.0438 18.2574 19.1656 18.2825 19.2788 18.3311C19.3919 18.3797 19.494 18.4508 19.5788 18.5401L20.0175 18.9938C20.1723 19.1523 20.3572 19.2783 20.5613 19.3643C20.7655 19.4503 20.9847 19.4946 21.2063 19.4946C21.4278 19.4946 21.6471 19.4503 21.8512 19.3643C22.0554 19.2783 22.2403 19.1523 22.395 18.9938C22.4651 18.9222 22.5039 18.8257 22.5029 18.7255C22.5018 18.6253 22.461 18.5296 22.3894 18.4594C22.3178 18.3893 22.2213 18.3505 22.121 18.3516C22.0208 18.3526 21.9251 18.3935 21.855 18.4651Z" fill="#2563EB"/>
<path d="M21.8572 15.75C21.6845 15.9209 21.4514 16.0167 21.2084 16.0167C20.9655 16.0167 20.7324 15.9209 20.5597 15.75L20.1172 15.2963C19.9592 15.1367 19.7711 15.0102 19.5639 14.9239C19.3566 14.8376 19.1342 14.7934 18.9097 14.7938C18.6841 14.7958 18.4613 14.8445 18.2555 14.9368C18.0496 15.0291 17.865 15.163 17.7134 15.33L17.2709 15.81C17.1846 15.8993 17.0811 15.9703 16.9668 16.0187C16.8524 16.0672 16.7295 16.0922 16.6053 16.0922C16.4811 16.0922 16.3582 16.0672 16.2438 16.0187C16.1295 15.9703 16.026 15.8993 15.9397 15.81L15.8084 15.6638C16.6149 14.9685 17.212 14.0626 17.5332 13.0474C17.8544 12.0322 17.8869 10.9477 17.6272 9.91505C17.8745 9.96107 18.1256 9.98367 18.3772 9.98255C19.193 9.98255 19.9906 9.74062 20.6689 9.28736C21.3473 8.8341 21.876 8.18986 22.1882 7.43611C22.5004 6.68237 22.5821 5.85297 22.4229 5.0528C22.2638 4.25263 21.8709 3.51762 21.294 2.94073C20.7171 2.36384 19.9821 1.97097 19.1819 1.81181C18.3818 1.65264 17.5524 1.73433 16.7986 2.04654C16.0449 2.35875 15.4006 2.88747 14.9474 3.56582C14.4941 4.24417 14.2522 5.0417 14.2522 5.85755V5.9363C13.5396 5.63781 12.7748 5.4841 12.0022 5.4841C11.2296 5.4841 10.4648 5.63781 9.75218 5.9363C9.75218 5.91005 9.75218 5.8838 9.75218 5.85755C9.52718 0.375046 1.73093 0.375046 1.50218 5.85755C1.50218 6.95156 1.93678 8.00077 2.71037 8.77436C3.48395 9.54795 4.53316 9.98255 5.62718 9.98255C5.87876 9.98385 6.12988 9.96125 6.37718 9.91505C6.11926 10.9427 6.15091 12.0216 6.46862 13.0323C6.78633 14.0431 7.3777 14.9461 8.17718 15.6413C8.09653 15.7503 7.99337 15.8406 7.87472 15.9062C7.75607 15.9717 7.62471 16.011 7.48953 16.0213C7.35436 16.0316 7.21856 16.0128 7.09133 15.9659C6.9641 15.9191 6.84844 15.8455 6.75218 15.75L6.28718 15.2738C6.13276 15.1154 5.94819 14.9895 5.74435 14.9035C5.54051 14.8176 5.32153 14.7733 5.10031 14.7733C4.87908 14.7733 4.6601 14.8176 4.45626 14.9035C4.25242 14.9895 4.06785 15.1154 3.91343 15.2738L3.44468 15.75C3.27198 15.9209 3.03886 16.0167 2.79593 16.0167C2.55301 16.0167 2.31989 15.9209 2.14718 15.75C2.11271 15.7146 2.07159 15.6863 2.02618 15.6667C1.98076 15.6471 1.93193 15.6367 1.88249 15.636C1.83304 15.6353 1.78394 15.6444 1.73799 15.6626C1.69204 15.6809 1.65014 15.7081 1.61468 15.7425C1.57923 15.777 1.55091 15.8181 1.53134 15.8636C1.51177 15.909 1.50134 15.9578 1.50065 16.0072C1.49995 16.0567 1.509 16.1058 1.52728 16.1517C1.54556 16.1977 1.57271 16.2396 1.60718 16.275C1.76245 16.4326 1.94751 16.5578 2.15159 16.6432C2.35567 16.7286 2.57469 16.7726 2.79593 16.7726C3.01717 16.7726 3.2362 16.7286 3.44028 16.6432C3.64436 16.5578 3.82941 16.4326 3.98468 16.275L4.44968 15.795C4.62239 15.6242 4.85551 15.5284 5.09843 15.5284C5.34136 15.5284 5.57448 15.6242 5.74718 15.795C6.18218 16.275 6.69593 16.8113 7.39718 16.7775C8.10218 16.815 8.61968 16.275 9.05093 15.795C9.22364 15.6242 9.45676 15.5284 9.69968 15.5284C9.94261 15.5284 10.1757 15.6242 10.3484 15.795L10.8134 16.275C10.9687 16.4326 11.1538 16.5578 11.3578 16.6432C11.5619 16.7286 11.7809 16.7726 12.0022 16.7726C12.2234 16.7726 12.4424 16.7286 12.6465 16.6432C12.8506 16.5578 13.0357 16.4326 13.1909 16.275L13.6297 15.8175C13.7147 15.7287 13.8169 15.658 13.93 15.6098C14.0431 15.5615 14.1648 15.5366 14.2878 15.5366C14.4108 15.5366 14.5325 15.5615 14.6456 15.6098C14.7587 15.658 14.8609 15.7287 14.9459 15.8175C15.3697 16.32 15.8872 16.8675 16.6034 16.8338C17.3234 16.8638 17.8372 16.3238 18.2647 15.8175C18.3497 15.7287 18.4519 15.658 18.565 15.6098C18.6781 15.5615 18.7998 15.5366 18.9228 15.5366C19.0458 15.5366 19.1675 15.5615 19.2806 15.6098C19.3937 15.658 19.4959 15.7287 19.5809 15.8175L20.0197 16.275C20.1749 16.4326 20.36 16.5578 20.5641 16.6432C20.7682 16.7286 20.9872 16.7726 21.2084 16.7726C21.4297 16.7726 21.6487 16.7286 21.8528 16.6432C22.0569 16.5578 22.2419 16.4326 22.3972 16.275C22.4317 16.2396 22.4588 16.1977 22.4771 16.1517C22.4954 16.1058 22.5044 16.0567 22.5037 16.0072C22.503 15.9578 22.4926 15.909 22.473 15.8636C22.4535 15.8181 22.4251 15.777 22.3897 15.7425C22.3542 15.7081 22.3123 15.6809 22.2664 15.6626C22.2204 15.6444 22.1713 15.6353 22.1219 15.636C22.0724 15.6367 22.0236 15.6471 21.9782 15.6667C21.9328 15.6863 21.8917 15.7146 21.8572 15.75ZM15.0022 5.85755C15.1784 1.3838 21.5759 1.3838 21.7522 5.85755C21.7515 6.38642 21.6265 6.90773 21.3873 7.37944C21.1482 7.85114 20.8015 8.26003 20.3753 8.57314C19.949 8.88625 19.4552 9.0948 18.9335 9.18198C18.4119 9.26916 17.8771 9.23253 17.3722 9.07505C16.9007 7.94361 16.0845 6.98963 15.0397 6.3488C15.0159 6.18611 15.0033 6.02196 15.0022 5.85755ZM5.62718 9.23255C1.15343 9.05255 1.15343 2.6588 5.62718 2.48255C6.11178 2.48277 6.59065 2.58735 7.03123 2.78917C7.4718 2.991 7.86374 3.28533 8.1804 3.65216C8.49707 4.01899 8.73102 4.44971 8.86635 4.91503C9.00168 5.38035 9.03522 5.86936 8.96468 6.3488C7.91982 6.98963 7.10362 7.94361 6.63218 9.07505C6.30728 9.17894 5.96829 9.23207 5.62718 9.23255ZM13.0934 15.3038L12.6509 15.75C12.4782 15.9209 12.2451 16.0167 12.0022 16.0167C11.7593 16.0167 11.5261 15.9209 11.3534 15.75L10.8772 15.2813C10.5957 14.9914 10.2177 14.8148 9.81471 14.7851C9.41174 14.7554 9.01188 14.8746 8.69093 15.12C5.14718 12.0938 7.33343 6.2288 11.9909 6.23255C13.3333 6.23354 14.6204 6.76723 15.5696 7.71641C16.5187 8.6656 17.0524 9.95269 17.0534 11.295C17.0557 12.0278 16.8966 12.752 16.5874 13.4163C16.2783 14.0806 15.8267 14.6687 15.2647 15.1388C14.9441 14.8987 14.5474 14.7832 14.1481 14.8135C13.7488 14.8439 13.374 15.0181 13.0934 15.3038Z" fill="#2563EB"/>
</svg>
