<svg width="24" height="24" viewBox="0 0 24 24" fill="none" xmlns="http://www.w3.org/2000/svg">
<g clip-path="url(#clip0_413_6434)">
<path d="M20.6976 12.1794C20.8076 12.8327 21.3761 13.3347 22.0614 13.3347C22.8247 13.3347 23.4459 12.7135 23.4459 11.9502C23.4459 11.1869 22.8247 10.5657 22.0614 10.5657C21.3761 10.5657 20.8076 11.0677 20.6976 11.721H19.3681C19.3246 10.3021 18.8776 8.98187 18.1395 7.87243H20.6976C20.8076 8.52798 21.3761 9.02771 22.0614 9.02771C22.8247 9.02771 23.4459 8.40652 23.4459 7.64551C23.4459 6.8822 22.8247 6.26105 22.0614 6.26105C21.3761 6.26105 20.8076 6.76074 20.6976 7.41399H17.8071C16.5006 5.74529 14.4927 4.65193 12.228 4.58316V2.94652C12.8835 2.83651 13.3832 2.26805 13.3832 1.5827C13.3832 0.819383 12.762 0.198242 11.9988 0.198242C11.2355 0.198242 10.6166 0.81943 10.6166 1.5827C10.6166 2.26805 11.1163 2.83651 11.7695 2.94652V4.58312C9.50717 4.65188 7.49924 5.74524 6.19269 7.41395H3.29999C3.18997 6.7607 2.62152 6.26101 1.93846 6.26101C1.17514 6.26101 0.553955 6.8822 0.553955 7.64546C0.553955 8.40648 1.17514 9.02767 1.93846 9.02767C2.62152 9.02767 3.18997 8.52798 3.29999 7.87238H5.85805C5.11996 8.98182 4.6753 10.3021 4.63175 11.721H3.29999C3.18997 11.0677 2.62152 10.5657 1.93846 10.5657C1.17514 10.5657 0.553955 11.1869 0.553955 11.9502C0.553955 12.7134 1.17514 13.3346 1.93846 13.3346C2.62152 13.3346 3.18997 12.8326 3.29999 12.1794H4.63175C4.6753 13.5983 5.12 14.9185 5.86035 16.028H3.29999C3.18997 15.3724 2.62152 14.8727 1.93846 14.8727C1.17514 14.8727 0.553955 15.4939 0.553955 16.2572C0.553955 17.0205 1.17514 17.6394 1.93846 17.6394C2.62152 17.6394 3.18997 17.1397 3.29999 16.4864H6.19499C6.4242 16.7798 6.67635 17.0549 6.94681 17.3093C6.26375 18.6571 6.20417 21.7951 7.30667 22.6845C9.14731 24.1744 14.8502 24.1744 16.6932 22.6845C17.7911 21.7974 17.7384 18.6663 17.053 17.3093C17.3235 17.0549 17.5756 16.7798 17.8048 16.4864H20.6975C20.8076 17.1397 21.376 17.6394 22.0614 17.6394C22.8247 17.6394 23.4458 17.0205 23.4458 16.2572C23.4458 15.4939 22.8246 14.8727 22.0614 14.8727C21.376 14.8727 20.8076 15.3724 20.6975 16.028H18.1395C18.8776 14.9185 19.3222 13.5983 19.3658 12.1794H20.6976V12.1794ZM22.0615 11.0242C22.5726 11.0242 22.9875 11.4391 22.9875 11.9502C22.9875 12.4614 22.5726 12.8762 22.0615 12.8762C21.5503 12.8762 21.1355 12.4614 21.1355 11.9502C21.1354 11.4391 21.5503 11.0242 22.0615 11.0242ZM22.0615 6.71945C22.5726 6.71945 22.9875 7.13434 22.9875 7.64546C22.9875 8.15434 22.5726 8.56923 22.0615 8.56923C21.5503 8.56923 21.1355 8.15434 21.1355 7.64546C21.1354 7.13434 21.5503 6.71945 22.0615 6.71945ZM1.93846 8.56923C1.42728 8.56923 1.01239 8.15434 1.01239 7.64546C1.01239 7.13429 1.42728 6.71945 1.93846 6.71945C2.44733 6.71945 2.86217 7.13434 2.86217 7.64546C2.86217 8.15434 2.44728 8.56923 1.93846 8.56923ZM1.93846 12.8762C1.42728 12.8762 1.01239 12.4614 1.01239 11.9502C1.01239 11.4391 1.42728 11.0242 1.93846 11.0242C2.44733 11.0242 2.86217 11.4391 2.86217 11.9502C2.86217 12.4614 2.44728 12.8762 1.93846 12.8762ZM1.93846 17.181C1.42728 17.181 1.01239 16.7661 1.01239 16.2572C1.01239 15.7461 1.42728 15.3312 1.93846 15.3312C2.44733 15.3312 2.86217 15.7461 2.86217 16.2572C2.86217 16.7661 2.44728 17.181 1.93846 17.181ZM22.0615 15.3312C22.5726 15.3312 22.9875 15.7461 22.9875 16.2572C22.9875 16.7661 22.5726 17.1809 22.0615 17.1809C21.5503 17.1809 21.1355 16.766 21.1355 16.2572C21.1354 15.7461 21.5503 15.3312 22.0615 15.3312ZM17.2135 7.41399H15.7098C15.2835 6.56359 14.7402 5.8622 14.1191 5.3694C15.3316 5.75902 16.3952 6.47649 17.2135 7.41399ZM11.7696 10.3044C11.0361 10.4076 10.4562 10.9875 10.3553 11.721H7.75142C7.78124 10.2861 8.07922 8.9589 8.56742 7.87238H11.7696V10.3044ZM10.3553 12.1794C10.4562 12.9129 11.036 13.4928 11.7695 13.596V15.5329C10.651 15.5535 9.54613 15.7163 8.66596 16.028H8.57197C8.08142 14.9416 7.78344 13.6166 7.75367 12.1794H10.3553ZM12.228 13.596C12.9615 13.4928 13.5414 12.9129 13.6446 12.1794H16.2462C16.2164 13.6166 15.9161 14.9415 15.4256 16.028H15.3339C14.4537 15.7163 13.3489 15.5536 12.228 15.5329V13.596ZM13.6446 11.721C13.5414 10.9875 12.9615 10.4076 12.228 10.3044V7.87243H15.4302C15.9208 8.9589 16.2187 10.2861 16.2485 11.721H13.6446ZM15.2056 7.41399H12.228V5.04615C13.4154 5.14932 14.4721 6.04557 15.2056 7.41399ZM11.075 1.5827C11.075 1.07152 11.4899 0.65668 11.9988 0.65668C12.51 0.65668 12.9248 1.07157 12.9248 1.5827C12.9248 2.09387 12.5099 2.50876 11.9988 2.50876C11.4899 2.50871 11.075 2.09387 11.075 1.5827ZM11.7696 7.41399H8.79435C9.52785 6.04557 10.5845 5.14932 11.7696 5.04615V7.41399ZM9.87856 5.36935C9.25738 5.86215 8.71644 6.56359 8.29006 7.41395H6.78641C7.60241 6.47649 8.66825 5.75902 9.87856 5.36935ZM6.41736 7.87243H8.07688C7.60471 8.98187 7.32046 10.3021 7.29294 11.721H5.09014C5.13603 10.2861 5.62199 8.9589 6.41736 7.87243ZM5.09019 12.1794H7.29528C7.3228 13.5983 7.607 14.9186 8.07922 16.028H6.41971C5.62424 14.9415 5.13833 13.6143 5.09019 12.1794ZM6.78866 16.4864H7.70553C7.50842 16.6148 7.33878 16.75 7.19895 16.9196C7.05458 16.7798 6.91935 16.6354 6.78866 16.4864ZM16.4044 22.3292C14.7173 23.693 9.28255 23.693 7.59322 22.3292C6.64424 21.5613 6.713 18.0405 7.61155 17.142C9.12899 15.6246 14.8685 15.6246 16.386 17.142C17.2846 18.0405 17.3556 21.5613 16.4044 22.3292ZM16.8009 16.9196C16.6588 16.7477 16.4869 16.6125 16.292 16.4864H17.2135C17.0828 16.6354 16.9453 16.7798 16.8009 16.9196ZM17.5826 16.028H15.9185C16.3906 14.9185 16.6749 13.5983 16.7047 12.1794H18.9098C18.8615 13.6143 18.3779 14.9415 17.5826 16.028ZM16.7069 11.721C16.6771 10.3021 16.3929 8.98187 15.923 7.87243H17.5802C18.3756 8.9589 18.8615 10.2861 18.9097 11.721H16.7069Z" fill="#2563EB"/>
<path d="M9.65617 18.2648H9.84199C9.96869 18.2648 10.0712 18.1622 10.0712 18.0356C10.0712 17.9091 9.96869 17.8064 9.84199 17.8064H9.65617C8.62516 17.8064 7.78638 18.6451 7.78638 19.6761C7.78638 20.707 8.62511 21.5456 9.65617 21.5456H9.84199C9.96869 21.5456 10.0712 21.443 10.0712 21.3164C10.0712 21.1898 9.96869 21.0872 9.84199 21.0872H9.65617C8.87786 21.0872 8.24481 20.4541 8.24481 19.6761C8.24481 18.8978 8.87786 18.2648 9.65617 18.2648Z" fill="#2563EB"/>
<path d="M14.343 17.8064H13.9027C13.776 17.8064 13.6735 17.9091 13.6735 18.0356V21.3164C13.6735 21.443 13.776 21.5456 13.9027 21.5456H14.343C15.3738 21.5456 16.2125 20.707 16.2125 19.6761C16.2125 18.6451 15.3738 17.8064 14.343 17.8064ZM14.343 21.0872H14.1319V18.2648H14.343C15.1211 18.2648 15.7541 18.8979 15.7541 19.6761C15.7541 20.4541 15.1211 21.0872 14.343 21.0872Z" fill="#2563EB"/>
<path d="M12.6926 17.8064C12.5659 17.8064 12.4634 17.9091 12.4634 18.0356V20.3455L11.2571 17.9331C11.2097 17.8379 11.102 17.7883 10.9995 17.8125C10.8961 17.837 10.8229 17.9293 10.8229 18.0356V21.3164C10.8229 21.443 10.9254 21.5456 11.0521 21.5456C11.1788 21.5456 11.2813 21.443 11.2813 21.3164V19.0065L12.4876 21.4189C12.5354 21.5146 12.6428 21.5638 12.7452 21.5395C12.8486 21.5151 12.9218 21.4228 12.9218 21.3164V18.0356C12.9218 17.909 12.8193 17.8064 12.6926 17.8064Z" fill="#2563EB"/>
</g>
<defs>
<clipPath id="clip0_413_6434">
<rect width="24" height="24" fill="white"/>
</clipPath>
</defs>
</svg>
