<svg width="24" height="24" viewBox="0 0 24 24" fill="none" xmlns="http://www.w3.org/2000/svg">
<path d="M19.5 2.25H18C18 1.95 17.8875 1.65 17.6625 1.4625C17.475 1.2375 17.175 1.125 16.875 1.125C16.2375 1.125 15.75 1.6125 15.75 2.25H13.125C13.125 1.6125 12.6375 1.125 12 1.125C11.3625 1.125 10.875 1.6125 10.875 2.25H8.25C8.25 1.6125 7.7625 1.125 7.125 1.125C6.4875 1.125 6 1.6125 6 2.25H4.5C3.8625 2.25 3.375 2.7375 3.375 3.375V18.75V18.7875C3.375 18.825 3.375 18.8625 3.4125 18.9V18.9375C3.4125 18.975 3.45 19.0125 3.4875 19.05L7.2375 22.8C7.275 22.8375 7.3125 22.875 7.35 22.875H7.5H19.5C20.1375 22.875 20.625 22.3875 20.625 21.75V3.375C20.625 2.7375 20.1375 2.25 19.5 2.25ZM18 5.25C18 5.8875 17.5125 6.375 16.875 6.375C16.2375 6.375 15.75 5.8875 15.75 5.25C15.75 5.1375 15.7875 4.9875 15.825 4.875C15.975 5.325 16.3875 5.625 16.875 5.625C17.3625 5.625 17.775 5.325 17.925 4.875C17.9625 4.9875 18 5.1375 18 5.25ZM16.5 2.25C16.5 2.025 16.65 1.875 16.875 1.875C16.9875 1.875 17.0625 1.9125 17.1375 1.9875C17.2125 2.0625 17.25 2.1375 17.25 2.25V2.625V4.5C17.25 4.725 17.1 4.875 16.875 4.875C16.65 4.875 16.5 4.725 16.5 4.5V2.625V2.25ZM13.125 5.25C13.125 5.8875 12.6375 6.375 12 6.375C11.3625 6.375 10.875 5.8875 10.875 5.25C10.875 5.1375 10.9125 4.9875 10.95 4.875C11.1 5.325 11.5125 5.625 12 5.625C12.4875 5.625 12.9 5.325 13.05 4.875C13.0875 4.9875 13.125 5.1375 13.125 5.25ZM11.625 2.25C11.625 2.025 11.775 1.875 12 1.875C12.225 1.875 12.375 2.025 12.375 2.25V4.5C12.375 4.725 12.225 4.875 12 4.875C11.775 4.875 11.625 4.725 11.625 4.5V2.25ZM8.25 5.25C8.25 5.8875 7.7625 6.375 7.125 6.375C6.4875 6.375 6 5.8875 6 5.25C6 5.1375 6.0375 4.9875 6.075 4.875C6.225 5.325 6.6375 5.625 7.125 5.625C7.6125 5.625 8.025 5.325 8.175 4.875C8.2125 4.9875 8.25 5.1375 8.25 5.25ZM6.75 2.25C6.75 2.025 6.9 1.875 7.125 1.875C7.35 1.875 7.5 2.025 7.5 2.25V4.5C7.5 4.725 7.35 4.875 7.125 4.875C6.9 4.875 6.75 4.725 6.75 4.5V2.25ZM4.5 3H6V3.75C5.55 4.0875 5.25 4.65 5.25 5.25C5.25 6.3 6.075 7.125 7.125 7.125C8.175 7.125 9 6.3 9 5.25C9 4.65 8.7 4.0875 8.25 3.75V3H10.875V3.75C10.425 4.0875 10.125 4.65 10.125 5.25C10.125 6.3 10.95 7.125 12 7.125C13.05 7.125 13.875 6.3 13.875 5.25C13.875 4.65 13.575 4.0875 13.125 3.75V3H15.75V3.75C15.3 4.0875 15 4.65 15 5.25C15 6.3 15.825 7.125 16.875 7.125C17.925 7.125 18.75 6.3 18.75 5.25C18.75 4.65 18.45 4.0875 18 3.75V3H19.5C19.725 3 19.875 3.15 19.875 3.375V7.875H4.125V3.375C4.125 3.15 4.275 3 4.5 3ZM7.125 21.6L4.65 19.125H7.125V21.6ZM19.5 22.125H7.875V18.75C7.875 18.525 7.725 18.375 7.5 18.375H4.125V8.625H19.875V21.75C19.875 21.975 19.725 22.125 19.5 22.125Z" fill="#2563EB"/>
<path d="M13.05 9.37503C12.225 9.33753 11.4 9.56253 10.6875 9.93753C9.63748 10.5375 8.84998 11.55 8.62498 12.75C8.54998 13.125 8.51248 13.575 8.58748 14.0625L8.62498 14.475L7.12498 16.0875C6.89998 16.35 6.78748 16.725 6.78748 17.0625C6.78748 17.55 7.19998 17.9625 7.68748 17.9625H8.62498V19.7625C8.62498 20.175 8.84998 20.55 9.22498 20.7375C9.56248 20.8875 9.97498 20.8875 10.275 20.7L11.625 19.875V21C11.625 21.225 11.775 21.375 12 21.375H15.975C16.0875 21.375 16.1625 21.3375 16.2375 21.2625C16.3125 21.1875 16.35 21.075 16.35 20.9625L16.2375 19.9125C16.125 18.6375 16.275 17.2875 16.725 15.8625C16.8 15.5625 16.875 15.3375 16.9875 15.075C17.1375 14.625 17.25 14.175 17.25 13.6875C17.2875 11.4 15.375 9.45003 13.05 9.37503ZM15.525 19.9875L15.6 20.625H12.375V19.275C12.375 19.125 12.3 19.0125 12.1875 18.9375C12.075 18.8625 11.925 18.8625 11.8125 18.9375L9.89998 20.1C9.82498 20.1375 9.67498 20.175 9.56248 20.1C9.44998 20.025 9.37498 19.9125 9.37498 19.8V17.625C9.37498 17.4 9.22498 17.25 8.99998 17.25H7.64998C7.57498 17.25 7.49998 17.175 7.49998 17.1C7.49998 16.9125 7.57498 16.725 7.64998 16.6125L9.26248 14.8875C9.33748 14.8125 9.37498 14.7 9.37498 14.5875L9.29998 13.9875C9.26248 13.575 9.26248 13.2375 9.33748 12.9C9.48748 12.15 9.89998 11.475 10.5 10.9875V12.45C10.5 12.6 10.575 12.7125 10.6875 12.7875C10.8 12.8625 10.95 12.8625 11.0625 12.7875C11.1375 12.75 11.175 12.75 11.25 12.75C11.475 12.75 11.625 12.9 11.625 13.125C11.625 13.35 11.475 13.5 11.25 13.5C11.175 13.5 11.1375 13.5 11.0625 13.4625C10.95 13.3875 10.8 13.3875 10.6875 13.4625C10.575 13.5 10.5 13.65 10.5 13.7625V15.75C10.5 15.975 10.65 16.125 10.875 16.125H12.375C12.375 16.7625 12.8625 17.25 13.5 17.25C14.1375 17.25 14.625 16.7625 14.625 16.125H15.9C15.525 17.475 15.4125 18.75 15.525 19.9875ZM16.275 14.8125C16.2 15 16.1625 15.1875 16.0875 15.375H14.1375C13.9875 15.375 13.875 15.45 13.8 15.5625C13.725 15.675 13.725 15.825 13.8 15.9375C13.875 16.0125 13.875 16.05 13.875 16.125C13.875 16.35 13.725 16.5 13.5 16.5C13.275 16.5 13.125 16.35 13.125 16.125C13.125 16.05 13.125 16.0125 13.1625 15.9375C13.2375 15.825 13.2375 15.675 13.1625 15.5625C13.125 15.45 12.975 15.375 12.8625 15.375H11.25V14.25C11.8875 14.25 12.375 13.7625 12.375 13.125C12.375 12.4875 11.8875 12 11.25 12V10.5C11.775 10.2375 12.4125 10.0875 13.0125 10.125C14.925 10.2 16.5375 11.8125 16.5 13.6875C16.5 14.1 16.425 14.475 16.275 14.8125Z" fill="#2563EB"/>
</svg>
