<svg width="24" height="24" viewBox="0 0 24 24" fill="none" xmlns="http://www.w3.org/2000/svg">
<path d="M3.05664 13.378C3.05704 13.6771 3.17605 13.9638 3.38757 14.1753C3.59909 14.3868 3.88585 14.5058 4.18496 14.5062H8.36775C8.6545 14.5056 8.93014 14.3952 9.13806 14.1977C9.34594 14.3952 9.62157 14.5056 9.90832 14.5062H14.0913C14.378 14.5056 14.6537 14.3953 14.8616 14.1978C15.0695 14.3953 15.3451 14.5057 15.6319 14.5063H19.8147C20.1139 14.5059 20.4007 14.3869 20.6122 14.1754C20.8237 13.9639 20.9427 13.6771 20.9431 13.378V12.8479C20.9425 12.5612 20.8322 12.2857 20.6347 12.0779C20.8321 11.87 20.9425 11.5944 20.9431 11.3077V10.7776C20.9425 10.4908 20.8321 10.2152 20.6345 10.0073C20.8321 9.79949 20.9425 9.52381 20.9431 9.23703V8.70732C20.9425 8.42055 20.8321 8.14488 20.6345 7.93706C20.8321 7.72921 20.9425 7.45353 20.9431 7.16675V6.63695C20.9427 6.33781 20.8237 6.05103 20.6122 5.83951C20.4007 5.62799 20.1139 5.50899 19.8147 5.50863H17.0898C17.1267 4.66563 16.9641 4.18521 16.8959 3.87118C16.6597 3.04098 16.215 2.28499 15.6043 1.67504L15.6039 1.67467L15.6034 1.67417C14.6461 0.719523 13.3491 0.183784 11.9971 0.184571C10.6452 0.185359 9.34878 0.722608 8.39258 1.67837C7.33026 2.76949 6.84984 4.1199 6.91146 5.50881H4.18496C3.88586 5.50919 3.59912 5.62816 3.3876 5.83964C3.17609 6.05112 3.05707 6.33785 3.05664 6.63695V7.16666C3.05715 7.45345 3.16759 7.72914 3.36523 7.93697C3.16759 8.14477 3.05715 8.42045 3.05664 8.70723V9.23693C3.05715 9.52373 3.16759 9.79941 3.36523 10.0072C3.1676 10.2151 3.05716 10.4907 3.05664 10.7775V11.3077C3.05721 11.5944 3.16757 11.8701 3.36504 12.0779C3.16755 12.2857 3.05718 12.5613 3.05664 12.8479V13.378ZM8.36775 13.7902H4.18496C4.07567 13.7901 3.97089 13.7466 3.89361 13.6693C3.81633 13.592 3.77285 13.4872 3.77272 13.378V12.8479C3.77288 12.7386 3.81637 12.6339 3.89366 12.5567C3.97095 12.4795 4.07571 12.4361 4.18496 12.436H4.55318V12.6693C4.55264 12.7166 4.56151 12.7636 4.57926 12.8075C4.59701 12.8514 4.6233 12.8914 4.6566 12.9251C4.6899 12.9587 4.72955 12.9855 4.77326 13.0037C4.81696 13.022 4.86385 13.0314 4.91122 13.0314C4.95858 13.0314 5.00547 13.022 5.04918 13.0037C5.09289 12.9855 5.13254 12.9587 5.16584 12.9251C5.19914 12.8914 5.22543 12.8514 5.24318 12.8075C5.26093 12.7636 5.26979 12.7166 5.26926 12.6693V12.436H5.91855V12.6693C5.91801 12.7166 5.92687 12.7636 5.94463 12.8075C5.96238 12.8514 5.98867 12.8914 6.02197 12.9251C6.05527 12.9587 6.09492 12.9855 6.13862 13.0037C6.18233 13.022 6.22922 13.0314 6.27659 13.0314C6.32395 13.0314 6.37084 13.022 6.41455 13.0037C6.45826 12.9855 6.49791 12.9587 6.53121 12.9251C6.56451 12.8914 6.5908 12.8514 6.60855 12.8075C6.6263 12.7636 6.63516 12.7166 6.63463 12.6693V12.436H7.28396V12.6693C7.28343 12.7166 7.29229 12.7636 7.31004 12.8075C7.32779 12.8514 7.35408 12.8914 7.38738 12.9251C7.42068 12.9587 7.46033 12.9855 7.50404 13.0037C7.54775 13.022 7.59464 13.0314 7.642 13.0314C7.68937 13.0314 7.73626 13.022 7.77997 13.0037C7.82367 12.9855 7.86332 12.9587 7.89662 12.9251C7.92992 12.8914 7.95621 12.8514 7.97396 12.8075C7.99171 12.7636 8.00058 12.7166 8.00004 12.6693V12.436H8.36775C8.477 12.4361 8.58178 12.4795 8.65907 12.5567C8.73636 12.6339 8.77985 12.7387 8.77999 12.8479V13.378C8.77986 13.4873 8.73638 13.5921 8.6591 13.6693C8.58182 13.7466 8.47704 13.7901 8.36775 13.7902ZM3.77272 11.3077V10.7776C3.77286 10.6683 3.81634 10.5635 3.89362 10.4863C3.9709 10.409 4.07567 10.3655 4.18496 10.3654H4.55318V10.5989C4.55264 10.6463 4.56151 10.6933 4.57926 10.7372C4.59701 10.7811 4.6233 10.8211 4.6566 10.8547C4.6899 10.8884 4.72955 10.9152 4.77326 10.9334C4.81696 10.9517 4.86385 10.9611 4.91122 10.9611C4.95858 10.9611 5.00547 10.9517 5.04918 10.9334C5.09289 10.9152 5.13254 10.8884 5.16584 10.8547C5.19914 10.8211 5.22543 10.7811 5.24318 10.7372C5.26093 10.6933 5.26979 10.6463 5.26926 10.5989V10.3654H5.91855V10.5989C5.91801 10.6463 5.92687 10.6933 5.94463 10.7372C5.96238 10.7811 5.98867 10.8211 6.02197 10.8547C6.05527 10.8884 6.09492 10.9152 6.13862 10.9334C6.18233 10.9517 6.22922 10.9611 6.27659 10.9611C6.32395 10.9611 6.37084 10.9517 6.41455 10.9334C6.45826 10.9152 6.49791 10.8884 6.53121 10.8547C6.56451 10.8211 6.5908 10.7811 6.60855 10.7372C6.6263 10.6933 6.63516 10.6463 6.63463 10.5989V10.3654H7.28396V10.5989C7.28343 10.6463 7.29229 10.6933 7.31004 10.7372C7.32779 10.7811 7.35408 10.8211 7.38738 10.8547C7.42068 10.8884 7.46033 10.9152 7.50404 10.9334C7.54775 10.9517 7.59464 10.9611 7.642 10.9611C7.68937 10.9611 7.73626 10.9517 7.77997 10.9334C7.82367 10.9152 7.86332 10.8884 7.89662 10.8547C7.92992 10.8211 7.95621 10.7811 7.97396 10.7372C7.99171 10.6933 8.00058 10.6463 8.00004 10.5989V10.3654H8.36775C8.47704 10.3655 8.58182 10.409 8.6591 10.4862C8.73638 10.5635 8.77986 10.6683 8.77999 10.7776V11.3077C8.77986 11.417 8.73638 11.5218 8.6591 11.5991C8.58182 11.6764 8.47704 11.7198 8.36775 11.72H4.18496C4.07567 11.7198 3.9709 11.6763 3.89362 11.5991C3.81634 11.5218 3.77286 11.417 3.77272 11.3077ZM3.77272 9.23707V8.70732C3.77286 8.59803 3.81634 8.49326 3.89362 8.41598C3.9709 8.3387 4.07567 8.29522 4.18496 8.29507H4.55244V8.52866C4.55244 8.62362 4.59016 8.7147 4.65731 8.78185C4.72446 8.849 4.81554 8.88672 4.9105 8.88672C5.00547 8.88672 5.09654 8.849 5.16369 8.78185C5.23084 8.7147 5.26856 8.62362 5.26856 8.52866V8.29507H5.91786V8.52866C5.91893 8.62291 5.95712 8.71294 6.02415 8.77921C6.09118 8.84549 6.18164 8.88265 6.27589 8.88265C6.37015 8.88265 6.46061 8.84549 6.52764 8.77921C6.59467 8.71294 6.63286 8.62291 6.63393 8.52866V8.29507H7.28359V8.52866C7.28466 8.62291 7.32286 8.71294 7.38989 8.77921C7.45692 8.84549 7.54737 8.88265 7.64163 8.88265C7.73589 8.88265 7.82635 8.84549 7.89338 8.77921C7.96041 8.71294 7.9986 8.62291 7.99967 8.52866V8.425C8.22991 8.71806 8.49123 8.98529 8.77907 9.22203V9.41587C8.77893 9.47781 8.75421 9.53715 8.71034 9.58088C8.66648 9.62461 8.60705 9.64914 8.54512 9.64909H4.18496C4.0757 9.64895 3.97095 9.6055 3.89368 9.52826C3.8164 9.45102 3.7729 9.34629 3.77272 9.23703V9.23707ZM8.38847 4.67578C8.32242 5.07324 8.32201 5.47884 8.38727 5.87643L7.70036 6.05929C7.59893 5.54129 7.59579 5.00884 7.69113 4.48969L8.38847 4.67578ZM10.5346 1.16172L10.7192 1.85509C10.3448 1.99491 9.99586 2.19511 9.68618 2.44775L9.17812 1.9396C9.57993 1.60087 10.0395 1.33735 10.5348 1.16167L10.5346 1.16172ZM12.0001 2.33246C13.7182 2.33246 14.9017 3.71943 14.9431 5.17687C15.0182 6.91037 13.4899 8.40903 11.6864 8.20069C11.6818 8.19824 9.37496 7.93761 9.07907 5.6769C8.84613 3.89638 10.3193 2.33246 12.0001 2.33246ZM14.8279 1.94435L14.3207 2.45117C14.0137 2.19903 13.6673 1.99921 13.2953 1.85975L13.4803 1.16647C13.9725 1.34296 14.4289 1.60644 14.8279 1.94435ZM16.1144 3.8031L15.4221 3.98772C15.2822 3.61367 15.0811 3.2655 14.827 2.95747L15.3347 2.45015C15.6748 2.84992 15.939 3.30842 16.1144 3.8031ZM17.7238 8.88686C17.7709 8.88689 17.8174 8.87765 17.8609 8.85967C17.9043 8.84169 17.9438 8.81532 17.9771 8.78207C18.0103 8.74882 18.0367 8.70934 18.0547 8.66589C18.0727 8.62244 18.0819 8.57587 18.0819 8.52884V8.29526H18.7312V8.52884C18.7322 8.6231 18.7704 8.71313 18.8375 8.7794C18.9045 8.84567 18.995 8.88284 19.0892 8.88284C19.1835 8.88284 19.2739 8.84567 19.341 8.7794C19.408 8.71313 19.4462 8.6231 19.4473 8.52884V8.29526H19.8147C19.924 8.29539 20.0288 8.33887 20.1061 8.41615C20.1834 8.49343 20.2268 8.59821 20.227 8.7075V9.23721C20.2269 9.34651 20.1834 9.45129 20.1061 9.52858C20.0288 9.60586 19.924 9.64934 19.8147 9.64946H15.4546C15.3927 9.64949 15.3332 9.62496 15.2894 9.58123C15.2455 9.53751 15.2208 9.47817 15.2207 9.41624V9.21972C15.5083 8.98261 15.7697 8.71542 16.0004 8.42269V8.52884C16.0015 8.6231 16.0397 8.71313 16.1067 8.7794C16.1737 8.84567 16.2642 8.88284 16.3584 8.88284C16.4527 8.88284 16.5432 8.84567 16.6102 8.7794C16.6772 8.71313 16.7154 8.6231 16.7165 8.52884V8.29526H17.3658V8.52884C17.3658 8.57585 17.3751 8.6224 17.3931 8.66583C17.411 8.70926 17.4374 8.74871 17.4707 8.78195C17.5039 8.81518 17.5434 8.84153 17.5868 8.8595C17.6303 8.87747 17.6768 8.8867 17.7238 8.88667V8.88686ZM20.227 10.7778V11.3077C20.2268 11.417 20.1834 11.5218 20.1061 11.5991C20.0288 11.6764 19.924 11.7198 19.8147 11.72H15.6319C15.5226 11.7198 15.4178 11.6763 15.3405 11.5991C15.2632 11.5218 15.2198 11.417 15.2196 11.3077V10.7776C15.2198 10.6683 15.2632 10.5635 15.3405 10.4863C15.4178 10.409 15.5226 10.3655 15.6319 10.3654H16.0001V10.5989C15.9995 10.6463 16.0084 10.6933 16.0262 10.7372C16.0439 10.7811 16.0702 10.8211 16.1035 10.8547C16.1368 10.8884 16.1764 10.9152 16.2201 10.9334C16.2639 10.9517 16.3107 10.9611 16.3581 10.9611C16.4055 10.9611 16.4524 10.9517 16.4961 10.9334C16.5398 10.9152 16.5794 10.8884 16.6127 10.8547C16.646 10.8211 16.6723 10.7811 16.6901 10.7372C16.7078 10.6933 16.7167 10.6463 16.7161 10.5989V10.3654H17.3654V10.5989C17.3649 10.6463 17.3738 10.6933 17.3915 10.7372C17.4093 10.7811 17.4356 10.8211 17.4689 10.8547C17.5022 10.8884 17.5418 10.9152 17.5855 10.9334C17.6292 10.9517 17.6761 10.9611 17.7235 10.9611C17.7708 10.9611 17.8177 10.9517 17.8614 10.9334C17.9051 10.9152 17.9448 10.8884 17.9781 10.8547C18.0114 10.8211 18.0377 10.7811 18.0554 10.7372C18.0732 10.6933 18.0821 10.6463 18.0815 10.5989V10.3654H18.7309V10.5989C18.7303 10.6463 18.7392 10.6933 18.7569 10.7372C18.7747 10.7811 18.801 10.8211 18.8343 10.8547C18.8676 10.8884 18.9072 10.9152 18.9509 10.9334C18.9946 10.9517 19.0415 10.9611 19.0889 10.9611C19.1363 10.9611 19.1832 10.9517 19.2269 10.9334C19.2706 10.9152 19.3102 10.8884 19.3435 10.8547C19.3768 10.8211 19.4031 10.7811 19.4209 10.7372C19.4386 10.6933 19.4475 10.6463 19.4469 10.5989V10.3654H19.8147C19.924 10.3655 20.0288 10.409 20.1061 10.4862C20.1834 10.5635 20.2268 10.6683 20.227 10.7776V10.7778ZM9.90841 11.7199C9.79913 11.7198 9.69436 11.6763 9.61709 11.599C9.53981 11.5218 9.49632 11.417 9.49616 11.3077V10.7776C9.49631 10.6683 9.53979 10.5635 9.61707 10.4863C9.69435 10.409 9.79912 10.3655 9.90841 10.3654H10.2766V10.5989C10.2761 10.6463 10.285 10.6933 10.3027 10.7372C10.3205 10.7811 10.3467 10.8211 10.38 10.8547C10.4133 10.8884 10.453 10.9152 10.4967 10.9334C10.5404 10.9517 10.5873 10.9611 10.6347 10.9611C10.682 10.9611 10.7289 10.9517 10.7726 10.9334C10.8163 10.9152 10.856 10.8884 10.8893 10.8547C10.9226 10.8211 10.9489 10.7811 10.9666 10.7372C10.9844 10.6933 10.9932 10.6463 10.9927 10.5989V10.3654H11.642V10.5989C11.6415 10.6463 11.6503 10.6933 11.6681 10.7372C11.6858 10.7811 11.7121 10.8211 11.7454 10.8547C11.7787 10.8884 11.8184 10.9152 11.8621 10.9334C11.9058 10.9517 11.9527 10.9611 12 10.9611C12.0474 10.9611 12.0943 10.9517 12.138 10.9334C12.1817 10.9152 12.2214 10.8884 12.2547 10.8547C12.288 10.8211 12.3142 10.7811 12.332 10.7372C12.3497 10.6933 12.3586 10.6463 12.3581 10.5989V10.3654H13.0074V10.5989C13.0069 10.6463 13.0157 10.6933 13.0335 10.7372C13.0512 10.7811 13.0775 10.8211 13.1108 10.8547C13.1441 10.8884 13.1838 10.9152 13.2275 10.9334C13.2712 10.9517 13.3181 10.9611 13.3654 10.9611C13.4128 10.9611 13.4597 10.9517 13.5034 10.9334C13.5471 10.9152 13.5868 10.8884 13.6201 10.8547C13.6534 10.8211 13.6797 10.7811 13.6974 10.7372C13.7152 10.6933 13.724 10.6463 13.7235 10.5989V10.3654H14.0913C14.2006 10.3655 14.3054 10.409 14.3826 10.4862C14.4599 10.5635 14.5034 10.6683 14.5035 10.7776V11.3077C14.5034 11.417 14.4599 11.5218 14.3826 11.5991C14.3054 11.6764 14.2006 11.7198 14.0913 11.72L9.90841 11.7199ZM7.88604 6.751L8.57973 6.56638C8.72152 6.94067 8.92382 7.28914 9.17853 7.59787L8.67116 8.10349C8.32592 7.70662 8.05946 7.24761 7.88604 6.751ZM10.7221 8.69407L10.5359 9.38675C10.0403 9.2112 9.58054 8.94772 9.17853 8.60897L9.68484 8.10441C9.99497 8.35783 10.3456 8.5571 10.7221 8.69384V8.69407ZM12.5953 8.88377L12.7829 9.58115C12.2683 9.67738 11.7402 9.67598 11.2261 9.57704L11.413 8.8822C11.804 8.9525 12.2043 8.95295 12.5954 8.88353L12.5953 8.88377ZM14.5462 9.67904C14.5543 9.70673 14.5614 9.73443 14.5717 9.76106C14.5394 9.74573 14.5065 9.73272 14.4726 9.72049C14.4973 9.70655 14.5219 9.69298 14.5462 9.67881V9.67904ZM15.3342 8.09809L14.8299 7.59584C15.0842 7.28715 15.2859 6.93869 15.427 6.56444L16.12 6.74906C15.948 7.24537 15.6811 7.70348 15.3342 8.09786V8.09809ZM14.3195 8.09864L14.8272 8.6044C14.4306 8.95109 13.9712 9.2185 13.4738 9.39215L13.2877 8.70003C13.7365 8.53318 14.0041 8.3488 14.3195 8.09841V8.09864ZM9.52487 9.72095C9.49183 9.73304 9.45947 9.74587 9.42795 9.76083C9.43792 9.73549 9.44456 9.70863 9.45246 9.68237C9.47609 9.69593 9.50092 9.70766 9.52487 9.72095ZM16.3763 5.1255C16.3766 5.12639 16.3767 5.12733 16.3766 5.12827C16.3849 5.35641 16.3748 5.58485 16.3462 5.81135C16.3455 5.81569 16.3429 5.81929 16.3423 5.82372C16.3331 5.9019 16.3137 5.97857 16.2999 6.0561L15.612 5.87269C15.679 5.47729 15.6784 5.07338 15.6102 4.67818L16.3021 4.49357C16.3432 4.70197 16.368 4.91326 16.3763 5.1255ZM14.0913 13.7902H9.90841C9.79912 13.7901 9.69434 13.7466 9.61706 13.6693C9.53977 13.592 9.4963 13.4872 9.49616 13.378V12.8479C9.49632 12.7386 9.53982 12.6339 9.61711 12.5567C9.69439 12.4795 9.79916 12.4361 9.90841 12.436H10.2766V12.6693C10.2761 12.7166 10.285 12.7636 10.3027 12.8075C10.3205 12.8514 10.3467 12.8914 10.38 12.9251C10.4133 12.9587 10.453 12.9855 10.4967 13.0037C10.5404 13.022 10.5873 13.0314 10.6347 13.0314C10.682 13.0314 10.7289 13.022 10.7726 13.0037C10.8163 12.9855 10.856 12.9587 10.8893 12.9251C10.9226 12.8914 10.9489 12.8514 10.9666 12.8075C10.9844 12.7636 10.9932 12.7166 10.9927 12.6693V12.436H11.642V12.6693C11.6415 12.7166 11.6503 12.7636 11.6681 12.8075C11.6858 12.8514 11.7121 12.8914 11.7454 12.9251C11.7787 12.9587 11.8184 12.9855 11.8621 13.0037C11.9058 13.022 11.9527 13.0314 12 13.0314C12.0474 13.0314 12.0943 13.022 12.138 13.0037C12.1817 12.9855 12.2214 12.9587 12.2547 12.9251C12.288 12.8914 12.3142 12.8514 12.332 12.8075C12.3497 12.7636 12.3586 12.7166 12.3581 12.6693V12.436H13.0074V12.6693C13.0069 12.7166 13.0157 12.7636 13.0335 12.8075C13.0512 12.8514 13.0775 12.8914 13.1108 12.9251C13.1441 12.9587 13.1838 12.9855 13.2275 13.0037C13.2712 13.022 13.3181 13.0314 13.3654 13.0314C13.4128 13.0314 13.4597 13.022 13.5034 13.0037C13.5471 12.9855 13.5868 12.9587 13.6201 12.9251C13.6534 12.8914 13.6797 12.8514 13.6974 12.8075C13.7152 12.7636 13.724 12.7166 13.7235 12.6693V12.436H14.0913C14.2005 12.4361 14.3053 12.4795 14.3826 12.5567C14.4599 12.6339 14.5034 12.7387 14.5035 12.8479V13.378C14.5034 13.4873 14.4599 13.5921 14.3826 13.6693C14.3054 13.7466 14.2006 13.7901 14.0913 13.7902ZM20.227 13.378C20.2269 13.4872 20.1834 13.592 20.1061 13.6693C20.0288 13.7466 19.924 13.7901 19.8147 13.7902H15.6319C15.5226 13.7901 15.4178 13.7466 15.3405 13.6693C15.2632 13.592 15.2197 13.4872 15.2196 13.378V12.8479C15.2198 12.7386 15.2633 12.6339 15.3406 12.5567C15.4178 12.4795 15.5226 12.4361 15.6319 12.436H16.0001V12.6693C15.9995 12.7166 16.0084 12.7636 16.0262 12.8075C16.0439 12.8514 16.0702 12.8914 16.1035 12.9251C16.1368 12.9587 16.1764 12.9855 16.2201 13.0037C16.2639 13.022 16.3107 13.0314 16.3581 13.0314C16.4055 13.0314 16.4524 13.022 16.4961 13.0037C16.5398 12.9855 16.5794 12.9587 16.6127 12.9251C16.646 12.8914 16.6723 12.8514 16.6901 12.8075C16.7078 12.7636 16.7167 12.7166 16.7161 12.6693V12.436H17.3654V12.6693C17.3649 12.7166 17.3738 12.7636 17.3915 12.8075C17.4093 12.8514 17.4356 12.8914 17.4689 12.9251C17.5022 12.9587 17.5418 12.9855 17.5855 13.0037C17.6292 13.022 17.6761 13.0314 17.7235 13.0314C17.7708 13.0314 17.8177 13.022 17.8614 13.0037C17.9051 12.9855 17.9448 12.9587 17.9781 12.9251C18.0114 12.8914 18.0377 12.8514 18.0554 12.8075C18.0732 12.7636 18.0821 12.7166 18.0815 12.6693V12.436H18.7309V12.6693C18.7303 12.7166 18.7392 12.7636 18.7569 12.8075C18.7747 12.8514 18.801 12.8914 18.8343 12.9251C18.8676 12.9587 18.9072 12.9855 18.9509 13.0037C18.9946 13.022 19.0415 13.0314 19.0889 13.0314C19.1363 13.0314 19.1832 13.022 19.2269 13.0037C19.2706 12.9855 19.3102 12.9587 19.3435 12.9251C19.3768 12.8914 19.4031 12.8514 19.4209 12.8075C19.4386 12.7636 19.4475 12.7166 19.4469 12.6693V12.436H19.8147C19.924 12.4361 20.0288 12.4795 20.1061 12.5567C20.1833 12.6339 20.2268 12.7387 20.227 12.8479V13.378ZM17.3658 6.2248V6.45838C17.3669 6.55263 17.4051 6.64266 17.4721 6.70894C17.5391 6.77521 17.6296 6.81238 17.7238 6.81238C17.8181 6.81238 17.9086 6.77521 17.9756 6.70894C18.0426 6.64266 18.0808 6.55263 18.0819 6.45838V6.2248H18.7312V6.45838C18.7322 6.55263 18.7704 6.64266 18.8375 6.70894C18.9045 6.77521 18.995 6.81238 19.0892 6.81238C19.1835 6.81238 19.2739 6.77521 19.341 6.70894C19.408 6.64266 19.4462 6.55263 19.4473 6.45838V6.2248H19.8147C19.924 6.22492 20.0288 6.26839 20.1061 6.34568C20.1834 6.42296 20.2269 6.52775 20.227 6.63704V7.16675C20.2268 7.27604 20.1834 7.38082 20.1061 7.4581C20.0288 7.53539 19.924 7.57886 19.8147 7.579H16.5451C16.546 7.57724 16.5467 7.5753 16.5476 7.57355L16.548 7.57304C16.5483 7.57213 16.5487 7.57125 16.5492 7.57041C16.7616 7.14451 16.9157 6.69189 17.0071 6.2248H17.3658ZM12.7881 0.983704L12.6039 1.67453C12.2093 1.60749 11.8064 1.6061 11.4114 1.67043L11.2271 0.977658C11.7425 0.873941 12.2736 0.875998 12.7881 0.983704ZM8.67153 2.44558L9.17627 2.95041C8.91876 3.25891 8.71442 3.60815 8.57166 3.9838L7.88059 3.79918C8.05484 3.30136 8.32339 2.84178 8.67153 2.44558ZM3.77272 6.63695C3.77285 6.52766 3.81633 6.42288 3.89361 6.3456C3.97089 6.26831 4.07567 6.22484 4.18496 6.2247H4.55244V6.45829C4.55244 6.55325 4.59016 6.64433 4.65731 6.71148C4.72446 6.77863 4.81554 6.81635 4.9105 6.81635C5.00547 6.81635 5.09654 6.77863 5.16369 6.71148C5.23084 6.64433 5.26856 6.55325 5.26856 6.45829V6.2248H5.91786V6.45838C5.91893 6.55263 5.95712 6.64266 6.02415 6.70894C6.09118 6.77521 6.18164 6.81238 6.27589 6.81238C6.37015 6.81238 6.46061 6.77521 6.52764 6.70894C6.59467 6.64266 6.63286 6.55263 6.63393 6.45838V6.2248H6.99301C7.08351 6.69541 7.23896 7.15117 7.45492 7.579H4.18496C4.07567 7.57885 3.9709 7.53537 3.89362 7.45809C3.81634 7.38081 3.77286 7.27604 3.77272 7.16675V6.63695Z" fill="#2563EB"/>
<path d="M12.2095 6.40896C12.2093 6.59204 12.2635 6.77105 12.3651 6.92334C12.4667 7.07564 12.6112 7.19437 12.7803 7.26453C12.9494 7.33468 13.1356 7.35311 13.3151 7.31748C13.4947 7.28184 13.6597 7.19375 13.7892 7.06434C13.9187 6.93493 14.0069 6.77002 14.0427 6.59047C14.0785 6.41092 14.0602 6.22479 13.9901 6.05563C13.9201 5.88647 13.8015 5.74189 13.6493 5.64016C13.497 5.53843 13.3181 5.48413 13.135 5.48413C12.8897 5.48434 12.6545 5.58182 12.481 5.75519C12.3075 5.92857 12.2099 6.16368 12.2095 6.40896ZM13.3444 6.40896C13.3446 6.45042 13.3324 6.49098 13.3095 6.52552C13.2866 6.56006 13.2539 6.58702 13.2157 6.60299C13.1774 6.61896 13.1353 6.62321 13.0946 6.61521C13.0539 6.60721 13.0165 6.58732 12.9872 6.55806C12.9578 6.5288 12.9378 6.49148 12.9296 6.45083C12.9215 6.41019 12.9256 6.36803 12.9414 6.32972C12.9573 6.29141 12.9841 6.25865 13.0186 6.2356C13.053 6.21256 13.0935 6.20025 13.135 6.20025C13.1904 6.20028 13.2436 6.22225 13.2828 6.26137C13.3221 6.30048 13.3442 6.35355 13.3444 6.40896Z" fill="#2563EB"/>
<path d="M10.8655 5.06634C11.0484 5.06624 11.2272 5.0119 11.3793 4.91019C11.5313 4.80848 11.6498 4.66396 11.7197 4.49492C11.7897 4.32587 11.8079 4.13989 11.7721 3.96048C11.7364 3.78108 11.6482 3.6163 11.5188 3.48699C11.3894 3.35769 11.2246 3.26965 11.0451 3.23402C10.8657 3.19839 10.6797 3.21677 10.5107 3.28682C10.3417 3.35688 10.1973 3.47547 10.0957 3.6276C9.99411 3.77973 9.9399 3.95857 9.93994 4.14151C9.94031 4.3868 10.038 4.62192 10.2115 4.7953C10.385 4.96868 10.6202 5.06616 10.8655 5.06634ZM10.8655 3.93243C10.9068 3.93253 10.9471 3.94487 10.9814 3.96788C11.0157 3.99089 11.0424 4.02355 11.0581 4.06173C11.0739 4.09991 11.0779 4.1419 11.0698 4.18239C11.0617 4.22288 11.0418 4.26007 11.0126 4.28924C10.9833 4.31842 10.9461 4.33828 10.9056 4.34631C10.8651 4.35435 10.8231 4.3502 10.785 4.33439C10.7468 4.31859 10.7142 4.29183 10.6913 4.2575C10.6683 4.22317 10.656 4.18281 10.656 4.14151C10.6561 4.086 10.6782 4.0328 10.7175 3.99357C10.7567 3.95434 10.81 3.93231 10.8655 3.93229V3.93243Z" fill="#2563EB"/>
<path d="M10.6122 6.66219C10.6454 6.69545 10.6849 6.72183 10.7283 6.73982C10.7718 6.75782 10.8183 6.76709 10.8654 6.76709C10.9124 6.76709 10.9589 6.75782 11.0024 6.73982C11.0458 6.72183 11.0853 6.69545 11.1185 6.66219L13.3881 4.3947C13.4219 4.36158 13.4488 4.32208 13.4672 4.2785C13.4857 4.23492 13.4953 4.18812 13.4955 4.1408C13.4958 4.09349 13.4866 4.04659 13.4686 4.00283C13.4506 3.95907 13.4241 3.91931 13.3907 3.88585C13.3572 3.8524 13.3174 3.8259 13.2737 3.80791C13.2299 3.78991 13.183 3.78077 13.1357 3.78101C13.0884 3.78125 13.0416 3.79087 12.998 3.80931C12.9544 3.82775 12.9149 3.85464 12.8818 3.88844L10.6122 6.15588C10.579 6.18912 10.5526 6.22859 10.5346 6.27203C10.5166 6.31546 10.5073 6.36202 10.5073 6.40904C10.5073 6.45605 10.5166 6.50261 10.5346 6.54605C10.5526 6.58948 10.579 6.62895 10.6122 6.66219Z" fill="#2563EB"/>
<path d="M18.7346 15.7493L15.5937 17.9119C15.4573 17.6745 15.261 17.4771 15.0244 17.3395C14.7877 17.202 14.5191 17.129 14.2454 17.128H12.3392C12.275 17.1294 12.2111 17.1172 12.152 17.092C12.0928 17.0669 12.0397 17.0294 11.9962 16.9821C11.3383 16.2107 9.58036 15.9955 8.53955 15.9955C7.58476 15.9955 6.37258 16.1493 5.54375 16.6164C5.32463 16.737 5.07727 16.7967 4.8273 16.7895H4.28868V16.7713C4.28802 16.4546 4.16176 16.151 3.93758 15.9272C3.71341 15.7035 3.40963 15.5777 3.09288 15.5776H1.41685C1.36983 15.5776 1.32327 15.5869 1.27982 15.6048C1.23637 15.6228 1.19689 15.6492 1.16364 15.6824C1.13039 15.7157 1.10402 15.7552 1.08604 15.7986C1.06806 15.8421 1.05881 15.8886 1.05884 15.9357V23.4573C1.05881 23.5044 1.06805 23.5509 1.08603 23.5944C1.10401 23.6378 1.13038 23.6773 1.16363 23.7106C1.19688 23.7438 1.23636 23.7702 1.27981 23.7882C1.32326 23.8062 1.36983 23.8154 1.41685 23.8154H3.09288C3.40964 23.8153 3.71343 23.6896 3.9376 23.4658C4.16178 23.242 4.28804 22.9384 4.28868 22.6217V22.6203H5.14498L11.0132 23.7518C12.0835 23.9364 13.063 23.7006 13.8663 23.1504L22.7861 17.0077C22.8248 16.9811 22.8579 16.947 22.8835 16.9076C22.9091 16.8681 22.9266 16.824 22.9351 16.7778C22.9436 16.7315 22.9429 16.6841 22.9331 16.6381C22.9232 16.5921 22.9044 16.5485 22.8777 16.5099C22.429 15.8597 21.7405 15.4144 20.9636 15.2718C20.1867 15.1291 19.3849 15.3009 18.7346 15.7493ZM3.57261 22.6217C3.5722 22.7486 3.52147 22.8702 3.43153 22.9597C3.34159 23.0493 3.2198 23.0995 3.09288 23.0993H1.77505V16.2937H3.09288C3.21979 16.2936 3.34158 16.3438 3.43151 16.4333C3.52145 16.5228 3.57219 16.6444 3.57261 16.7713V22.6217ZM13.4611 22.56C12.8116 23.0043 12.0174 23.1976 11.1422 23.0475C4.87451 21.841 5.2455 21.9041 5.17913 21.9041H4.28836V17.5056H4.82716C5.23415 17.5056 5.59641 17.4147 5.89991 17.2379C6.61276 16.8376 7.72142 16.7118 8.53941 16.7118C9.35361 16.7118 10.9786 16.8915 11.4548 17.4516C11.566 17.576 11.7023 17.6753 11.8547 17.743C12.0072 17.8107 12.1723 17.8452 12.3391 17.8443H14.2452C14.3557 17.8436 14.4652 17.8647 14.5674 17.9065C14.6696 17.9483 14.7626 18.0099 14.8409 18.0878C14.9192 18.1656 14.9814 18.2582 15.0238 18.3602C15.0661 18.4622 15.0879 18.5716 15.0878 18.6821C15.0877 18.7925 15.0658 18.9019 15.0232 19.0038C14.9807 19.1057 14.9184 19.1982 14.8399 19.276C14.7615 19.3537 14.6684 19.4152 14.5661 19.4568C14.4638 19.4984 14.3543 19.5193 14.2438 19.5184H8.94219C8.84794 19.5195 8.75791 19.5577 8.69164 19.6247C8.62536 19.6918 8.58819 19.7822 8.58819 19.8765C8.58819 19.9707 8.62536 20.0612 8.69164 20.1282C8.75791 20.1953 8.84794 20.2334 8.94219 20.2345H14.244C14.4512 20.2349 14.6564 20.1936 14.8474 20.1133C15.0384 20.0329 15.2114 19.9151 15.356 19.7667C15.5007 19.6183 15.6141 19.4424 15.6896 19.2494C15.765 19.0564 15.801 18.8502 15.7954 18.6431L19.1405 16.3394C19.5831 16.0335 20.1204 15.8955 20.6557 15.9503C21.191 16.005 21.6892 16.2488 22.0608 16.638L13.4611 22.56Z" fill="#2563EB"/>
<path d="M2.92694 21.9311C2.87683 21.8802 2.8127 21.8453 2.74271 21.831C2.67271 21.8166 2.60003 21.8234 2.5339 21.8504C2.46778 21.8775 2.4112 21.9237 2.37138 21.983C2.33157 22.0423 2.3103 22.1122 2.3103 22.1836C2.3103 22.2551 2.33157 22.3249 2.37138 22.3842C2.4112 22.4436 2.46778 22.4897 2.5339 22.5168C2.60003 22.5438 2.67271 22.5506 2.74271 22.5363C2.8127 22.5219 2.87683 22.487 2.92694 22.4361C2.96099 22.404 2.98785 22.3651 3.00575 22.3219C3.02365 22.2786 3.03219 22.2321 3.03079 22.1854C3.03217 22.1381 3.02364 22.0911 3.00575 22.0473C2.98787 22.0035 2.96102 21.9639 2.92694 21.9311Z" fill="#2563EB"/>
</svg>
