<svg width="24" height="24" viewBox="0 0 24 24" fill="none" xmlns="http://www.w3.org/2000/svg">
<g clip-path="url(#clip0_413_6400)">
<path d="M20.8568 6.375H22.5C23.1203 6.375 23.625 5.87025 23.625 5.25C23.625 4.62975 23.1203 4.125 22.5 4.125H14.964C14.8196 3.387 14.238 2.80538 13.5 2.661V1.875C13.5 1.04775 12.8273 0.375 12 0.375C11.1727 0.375 10.5 1.04775 10.5 1.875V2.661C9.762 2.80538 9.18038 3.387 9.036 4.125H1.5C0.87975 4.125 0.375 4.62975 0.375 5.25C0.375 5.87025 0.87975 6.375 1.5 6.375H3.14325L1.26825 10.125H0.375V10.5C0.375 12.3607 1.88888 13.875 3.75 13.875H4.5C6.36112 13.875 7.875 12.3607 7.875 10.5V10.125H6.98175L5.10675 6.375H9.80025L10.1227 6.93937C10.2277 7.12312 10.3646 7.28212 10.5203 7.41675H10.5V13.5308C9.60487 14.0505 9 15.0173 9 16.125C9 17.1874 9.5565 18.12 10.3916 18.6533C9.72488 18.8873 9.12412 19.26 8.625 19.7404V17.25C8.625 16.032 6.49988 15.375 4.5 15.375C2.50012 15.375 0.375 16.032 0.375 17.25V21.75C0.375 22.968 2.50012 23.625 4.5 23.625C5.484 23.625 6.4035 23.4799 7.1265 23.22C7.1265 23.2301 7.125 23.2399 7.125 23.25V23.625H16.875V23.25C16.875 23.2399 16.8735 23.2301 16.8735 23.22C17.5961 23.4799 18.5156 23.625 19.5 23.625C21.4999 23.625 23.625 22.968 23.625 21.75V18.75C23.625 17.532 21.4999 16.875 19.5 16.875C17.5001 16.875 15.375 17.532 15.375 18.75V19.7404C14.8759 19.26 14.2751 18.8873 13.6084 18.6533C14.4435 18.12 15 17.1874 15 16.125C15 15.0176 14.3951 14.0505 13.5 13.5308V7.41712H13.4794C13.6354 7.28212 13.7723 7.1235 13.8773 6.93937L14.1998 6.375H18.8932L17.0182 10.125H16.125V10.5C16.125 12.3607 17.6389 13.875 19.5 13.875H20.25C22.1111 13.875 23.625 12.3607 23.625 10.5V10.125H22.7318L20.8568 6.375ZM12 1.125C12.4136 1.125 12.75 1.46137 12.75 1.875V2.625H11.25V1.875C11.25 1.46137 11.5864 1.125 12 1.125ZM4.5 13.125H3.75C2.42963 13.125 1.33425 12.1455 1.15163 10.875H7.098C6.91575 12.1455 5.82037 13.125 4.5 13.125ZM6.14325 10.125H2.10675L3.98175 6.375H4.26825L6.14325 10.125ZM1.5 5.625C1.293 5.625 1.125 5.45662 1.125 5.25C1.125 5.04338 1.293 4.875 1.5 4.875H9.04575C9.08587 5.05912 9.15038 5.238 9.2445 5.40262L9.37162 5.625H1.5ZM4.125 19.1175V19.8675C3.5535 19.8442 3.05062 19.7685 2.625 19.6635V18.9277C3.099 19.0324 3.61125 19.0965 4.125 19.1175ZM4.875 19.1175C5.38875 19.0965 5.901 19.0324 6.375 18.9277V19.6635C5.94938 19.7685 5.4465 19.8442 4.875 19.8675V19.1175ZM4.125 20.6175V21.3675C3.5535 21.3442 3.05062 21.2685 2.625 21.1635V20.4277C3.099 20.5324 3.61125 20.5965 4.125 20.6175ZM4.125 22.1175V22.8675C3.5535 22.8442 3.05062 22.7685 2.625 22.6635V21.9277C3.099 22.0324 3.61125 22.0965 4.125 22.1175ZM4.875 22.1175C5.38875 22.0965 5.901 22.0324 6.375 21.9277V22.662C5.92537 22.7726 5.41388 22.8439 4.875 22.8664V22.1175ZM4.875 21.3675V20.6175C5.38875 20.5965 5.901 20.5324 6.375 20.4277V21.1635C5.94938 21.2685 5.4465 21.3442 4.875 21.3675ZM7.125 20.2129C7.40512 20.1124 7.65975 19.995 7.875 19.8593V20.25C7.875 20.4566 7.6065 20.7049 7.125 20.916V20.2129ZM7.125 19.416V18.7133C7.40512 18.6128 7.65975 18.4954 7.875 18.3596V18.75C7.875 18.9566 7.6065 19.2049 7.125 19.416ZM4.5 16.125C6.56025 16.125 7.875 16.7914 7.875 17.25C7.875 17.7086 6.56025 18.375 4.5 18.375C2.43975 18.375 1.125 17.7086 1.125 17.25C1.125 16.7914 2.43975 16.125 4.5 16.125ZM1.125 18.3593C1.34025 18.495 1.59488 18.6124 1.875 18.7129V19.4156C1.3935 19.2049 1.125 18.9566 1.125 18.75V18.3593ZM1.125 19.8593C1.34025 19.995 1.59488 20.1124 1.875 20.2129V20.9156C1.3935 20.7049 1.125 20.4566 1.125 20.25V19.8593ZM1.125 21.75V21.3593C1.34025 21.495 1.59488 21.6124 1.875 21.7129V22.4156C1.3935 22.2049 1.125 21.9566 1.125 21.75ZM7.125 22.4141V21.7129C7.22738 21.6761 7.32563 21.6371 7.42013 21.5959C7.32938 21.8468 7.257 22.1055 7.20825 22.3732C7.18013 22.3867 7.15425 22.401 7.125 22.4141ZM16.125 19.8593C16.3403 19.995 16.5949 20.1124 16.875 20.2129V20.9156C16.3935 20.7045 16.125 20.4563 16.125 20.2496V19.8593ZM19.125 22.8664C18.5861 22.8439 18.0746 22.7726 17.625 22.662V21.9277C18.099 22.0324 18.6112 22.0965 19.125 22.1175V22.8664ZM19.875 22.1175C20.3888 22.0965 20.901 22.0324 21.375 21.9277V22.6635C20.9494 22.7685 20.4465 22.8442 19.875 22.8675V22.1175ZM19.875 21.3675V20.6175C20.3888 20.5965 20.901 20.5324 21.375 20.4277V21.1635C20.9494 21.2685 20.4465 21.3442 19.875 21.3675ZM19.125 21.3675C18.5535 21.3442 18.0506 21.2685 17.625 21.1635V20.4277C18.099 20.5324 18.6112 20.5965 19.125 20.6175V21.3675ZM16.5799 21.5959C16.6744 21.6371 16.7726 21.6761 16.875 21.7129V22.4138C16.8457 22.4006 16.8199 22.3864 16.7917 22.3732C16.743 22.1055 16.6706 21.8468 16.5799 21.5959ZM22.125 22.416V21.7133C22.4051 21.6128 22.6597 21.4954 22.875 21.3596V21.75C22.875 21.9566 22.6065 22.2049 22.125 22.416ZM22.125 20.916V20.2133C22.4051 20.1128 22.6597 19.9954 22.875 19.8596V20.25C22.875 20.4566 22.6065 20.7049 22.125 20.916ZM19.5 17.625C21.5602 17.625 22.875 18.2914 22.875 18.75C22.875 19.2086 21.5602 19.875 19.5 19.875C17.4398 19.875 16.125 19.2086 16.125 18.75C16.125 18.2914 17.4398 17.625 19.5 17.625ZM16.1081 22.875H15V21H14.25V22.875H9.75V21H9V22.875H7.89188C8.082 20.7754 9.85162 19.125 12 19.125C14.1484 19.125 15.918 20.7754 16.1081 22.875ZM14.25 16.125C14.25 17.3659 13.2409 18.375 12 18.375C10.7591 18.375 9.75 17.3659 9.75 16.125C9.75 14.8841 10.7591 13.875 12 13.875C13.2409 13.875 14.25 14.8841 14.25 16.125ZM12.75 13.2236C12.5096 13.1614 12.2595 13.125 12 13.125C11.7405 13.125 11.4904 13.1614 11.25 13.2236V7.81012C11.4064 7.8525 11.5691 7.875 11.7349 7.875H12.2651C12.4309 7.875 12.5936 7.8525 12.75 7.81012V13.2236ZM13.2263 6.56738C13.0294 6.91125 12.6615 7.125 12.2651 7.125H11.7349C11.3385 7.125 10.9706 6.91125 10.7741 6.56738L9.89587 5.03062C9.80062 4.86375 9.75 4.67363 9.75 4.48163C9.75 3.8715 10.2465 3.375 10.8566 3.375H13.1434C13.7535 3.375 14.25 3.8715 14.25 4.48163C14.25 4.67363 14.1994 4.86375 14.1041 5.03062L13.2263 6.56738ZM14.7555 5.40262C14.8496 5.238 14.9141 5.05912 14.9542 4.875H22.5C22.707 4.875 22.875 5.04338 22.875 5.25C22.875 5.45662 22.707 5.625 22.5 5.625H14.6284L14.7555 5.40262ZM19.7318 6.375H20.0182L21.8932 10.125H17.8568L19.7318 6.375ZM20.25 13.125H19.5C18.1796 13.125 17.0842 12.1455 16.9016 10.875H22.848C22.6658 12.1455 21.5704 13.125 20.25 13.125Z" fill="#2563EB"/>
<path d="M12 4.125C11.3797 4.125 10.875 4.62975 10.875 5.25C10.875 5.87025 11.3797 6.375 12 6.375C12.6203 6.375 13.125 5.87025 13.125 5.25C13.125 4.62975 12.6203 4.125 12 4.125ZM12 5.625C11.793 5.625 11.625 5.45662 11.625 5.25C11.625 5.04338 11.793 4.875 12 4.875C12.207 4.875 12.375 5.04338 12.375 5.25C12.375 5.45662 12.207 5.625 12 5.625Z" fill="#2563EB"/>
</g>
<defs>
<clipPath id="clip0_413_6400">
<rect width="24" height="24" fill="white"/>
</clipPath>
</defs>
</svg>
