<svg width="24" height="24" viewBox="0 0 24 24" fill="none" xmlns="http://www.w3.org/2000/svg">
<g clip-path="url(#clip0_413_6649)">
<path d="M22.3786 2.33719H19.2821V1.59797C19.2821 0.716719 18.5653 0 17.6841 0C16.8028 0 16.0861 0.716719 16.0861 1.59797V2.33719H7.91346V1.59797C7.91346 0.716719 7.19674 0 6.31549 0C5.43424 0 4.71752 0.716719 4.71752 1.59797V2.33719H1.62143C0.824551 2.33719 0.17627 2.98547 0.17627 3.78234V11.8636V18.0966V22.5544C0.17627 23.3513 0.824551 23.9995 1.62143 23.9995H22.3791C23.176 23.9995 23.8242 23.3513 23.8242 22.5544V3.78234C23.8238 2.98547 23.1755 2.33719 22.3786 2.33719ZM16.8375 1.59797C16.8375 1.13109 17.2177 0.750938 17.6845 0.750938C18.1514 0.750938 18.5316 1.13109 18.5316 1.59797V3.82781C18.5316 4.29422 18.1514 4.67344 17.6845 4.67344C17.2177 4.67344 16.8375 4.29375 16.8375 3.82781V1.59797ZM5.46846 1.59797C5.46846 1.13109 5.84861 0.750938 6.31549 0.750938C6.78236 0.750938 7.16252 1.13109 7.16252 1.59797V3.82781C7.16252 4.29422 6.78236 4.67344 6.31549 4.67344C5.84861 4.67344 5.46846 4.29422 5.46846 3.82781V1.59797ZM1.62143 3.08812H4.71799V3.82781C4.71799 4.70813 5.43471 5.42438 6.31596 5.42438C7.19721 5.42438 7.91393 4.70813 7.91393 3.82781V3.08812H16.0871V3.82781C16.0871 4.70813 16.8038 5.42438 17.685 5.42438C18.5663 5.42438 19.283 4.70813 19.283 3.82781V3.08812H22.3795C22.7625 3.08812 23.0738 3.39938 23.0738 3.78234V6.91875H0.926738V3.78234C0.926738 3.39938 1.23846 3.08812 1.62143 3.08812ZM20.2913 13.942C19.8192 13.372 19.7306 12.5667 20.0686 11.9072L21.1974 12.8133L20.2913 13.942ZM19.8145 14.5359L15.5063 19.9036C15.0235 19.6181 14.4642 19.4958 13.8966 19.5581C13.3294 19.62 12.81 19.86 12.4003 20.2434L11.4596 19.4888C11.7633 18.9727 11.881 18.3656 11.7914 17.7722L13.4892 17.0625C13.9345 17.6114 14.596 17.9559 15.3131 18.0005C15.368 18.0038 15.4224 18.0056 15.4767 18.0056C16.2497 18.0056 16.9627 17.6644 17.453 17.0545C17.8786 16.5239 18.0727 15.8592 17.9981 15.1833C17.9241 14.5073 17.5908 13.9003 17.0602 13.4747C16.2263 12.8058 15.0858 12.7294 14.1769 13.2666C13.988 13.2436 13.7939 13.252 13.6017 13.2942L15.2246 11.2725C15.2292 11.2669 15.2339 11.2612 15.2381 11.2556L15.4294 11.0175C15.8297 11.2547 16.283 11.3794 16.7494 11.3794C16.8455 11.3794 16.942 11.3742 17.0386 11.3634C17.6058 11.3011 18.1252 11.0611 18.5344 10.6777L19.4742 11.4319C18.8897 12.4233 19.0289 13.6941 19.8145 14.5359ZM15.0296 20.4975L14.1239 21.6258L12.9947 20.7197C13.2722 20.4891 13.6116 20.3442 13.9786 20.3039C14.3461 20.2641 14.7085 20.332 15.0296 20.4975ZM10.2385 18.5077C10.3017 18.4552 10.3636 18.4012 10.4222 18.3441L11.0686 18.0736C11.0841 18.398 11.0142 18.7219 10.8661 19.0111L10.2385 18.5077ZM15.5766 14.3311C15.5766 14.3306 15.5766 14.3306 15.5766 14.3311C15.5766 14.3306 15.5766 14.3306 15.5761 14.3306C15.4735 14.0794 15.3183 13.8652 15.1285 13.6955C15.6338 13.5975 16.1681 13.7208 16.591 14.0597C16.965 14.3602 17.2003 14.7881 17.2524 15.2648C17.3044 15.7416 17.168 16.2103 16.868 16.5839C16.4981 17.0442 15.9483 17.287 15.3596 17.2509C14.9217 17.2237 14.5252 17.048 14.2228 16.7555L14.6245 16.5877C15.5086 16.2267 15.9352 15.2147 15.5766 14.3311ZM16.9571 10.6158C16.5896 10.6561 16.2272 10.5877 15.9061 10.4227L16.8117 9.29437L17.9405 10.2C17.6635 10.4306 17.3246 10.5755 16.9571 10.6158ZM12.1908 13.852L9.0408 15.1688C8.84955 15.2489 8.75908 15.4687 8.83924 15.66C8.89924 15.8039 9.03893 15.8906 9.18565 15.8906C9.23393 15.8906 9.28314 15.8813 9.33049 15.8616L13.6017 14.0756C13.7874 14.0002 13.9828 13.9856 14.1656 14.0231C14.1731 14.025 14.1802 14.0269 14.1877 14.0283C14.4896 14.0967 14.7553 14.3058 14.881 14.6138C15.0839 15.1144 14.8421 15.6881 14.3386 15.8934L10.0641 17.6808C10.0172 17.7005 9.97502 17.7291 9.93939 17.7656C9.79361 17.9161 9.62486 18.0464 9.43971 18.1556C9.43127 18.1598 9.4233 18.165 9.41533 18.1697C8.99955 18.4083 8.50033 18.5391 7.97533 18.5391C6.89064 18.5391 5.93627 17.9798 5.60111 17.1478C5.54393 17.0058 5.40611 16.913 5.25283 16.913H3.86861V13.0491H4.29189C5.00674 13.0491 5.62033 12.9286 6.28174 12.6586L10.6027 10.8994C11.6213 10.4845 12.6117 10.4845 13.6308 10.8994L14.3321 11.1848L12.1908 13.852ZM3.11814 17.7216H0.926738V12.2391H3.11768V17.7216H3.11814ZM22.3786 23.2491H1.62143C1.23846 23.2491 0.927207 22.9378 0.927207 22.5548V18.4725H3.49361C3.7008 18.4725 3.86908 18.3047 3.86908 18.097V17.6634H5.01377C5.53221 18.6459 6.68768 19.29 7.97533 19.29C8.54346 19.29 9.09002 19.1648 9.57049 18.9347L10.7152 19.853C10.7166 19.8544 10.718 19.8558 10.7194 19.8567C10.7213 19.8581 10.7231 19.8595 10.725 19.8609L12.1917 21.038C12.1955 21.0412 12.1988 21.0445 12.2025 21.0473C12.2067 21.0511 12.2114 21.0539 12.2161 21.0572L13.9472 22.4466C14.0166 22.5023 14.0995 22.5291 14.182 22.5291C14.2917 22.5291 14.401 22.4812 14.475 22.3884L22.0181 12.9905C22.0805 12.9127 22.1096 12.8137 22.0988 12.7148C22.088 12.6159 22.0383 12.5255 21.9605 12.4631L16.9899 8.47406C16.8281 8.34422 16.5919 8.37 16.4621 8.53172L14.8228 10.5736L13.9144 10.2037C12.7219 9.71812 11.5125 9.71812 10.32 10.2037L5.99861 11.963C5.43143 12.1945 4.90502 12.2977 4.29236 12.2977H3.86908V11.8641C3.86908 11.6569 3.70127 11.4886 3.49361 11.4886H0.926738V7.66969H23.0728V22.5548C23.0733 22.9378 22.7616 23.2491 22.3786 23.2491Z" fill="#2563EB"/>
</g>
<defs>
<clipPath id="clip0_413_6649">
<rect width="24" height="24" fill="white"/>
</clipPath>
</defs>
</svg>
