<svg width="24" height="24" viewBox="0 0 24 24" fill="none" xmlns="http://www.w3.org/2000/svg">
<g clip-path="url(#clip0_413_6556)">
<path fill-rule="evenodd" clip-rule="evenodd" d="M19.125 3.75H7.125V2.25C7.125 1.42162 6.45375 0.75 5.625 0.75C4.79625 0.75 4.125 1.42162 4.125 2.25V2.625C4.125 2.832 4.29375 3 4.5 3C4.70625 3 4.875 2.832 4.875 2.625V2.25C4.875 1.83562 5.20875 1.5 5.625 1.5C6.04125 1.5 6.375 1.83562 6.375 2.25V3.75H1.875C1.37625 3.75 0.899985 3.94763 0.547485 4.299C0.198735 4.65075 0 5.12775 0 5.625V21.375C0 21.8722 0.198735 22.3492 0.547485 22.701C0.899985 23.0524 1.37625 23.25 1.875 23.25H22.125C22.6238 23.25 23.1 23.0524 23.4525 22.701C23.8013 22.3492 24 21.8722 24 21.375V5.625C24 5.12775 23.8013 4.65075 23.4525 4.299C23.1 3.94763 22.6238 3.75 22.125 3.75H19.875V2.25C19.875 1.42162 19.2038 0.75 18.375 0.75C17.5462 0.75 16.875 1.42162 16.875 2.25V2.625C16.875 2.832 17.0437 3 17.25 3C17.4563 3 17.625 2.832 17.625 2.625V2.25C17.625 1.83562 17.9587 1.5 18.375 1.5C18.7913 1.5 19.125 1.83562 19.125 2.25V3.75ZM23.25 8.25V21.375C23.25 21.6735 23.13 21.9596 22.92 22.1704C22.71 22.3815 22.425 22.5 22.125 22.5C17.925 22.5 6.075 22.5 1.875 22.5C1.575 22.5 1.29 22.3815 1.08 22.1704C0.870002 21.9596 0.75 21.6735 0.75 21.375V8.25H23.25ZM12 10.7197L10.7025 9.42038C10.14 8.85975 9.2325 8.85975 8.67 9.42038C8.4 9.68963 8.25 10.0549 8.25 10.4359C8.25 10.563 8.30623 10.7542 8.41873 10.9597C8.54248 11.1799 8.72252 11.4307 8.88002 11.625H7.5C7.2 11.625 6.915 11.7435 6.705 11.9546C6.495 12.1654 6.375 12.4515 6.375 12.75V13.875C6.375 14.082 6.54375 14.25 6.75 14.25H7.125V20.625C7.125 20.9235 7.245 21.2096 7.455 21.4204C7.665 21.6315 7.95 21.75 8.25 21.75H15.75C16.05 21.75 16.335 21.6315 16.545 21.4204C16.755 21.2096 16.875 20.9235 16.875 20.625V14.25H17.25C17.4563 14.25 17.625 14.082 17.625 13.875V12.75C17.625 12.4515 17.505 12.1654 17.295 11.9546C17.085 11.7435 16.8 11.625 16.5 11.625H15.12C15.2775 11.4307 15.4575 11.1799 15.5813 10.9597C15.6938 10.7542 15.75 10.563 15.75 10.4359C15.75 10.0549 15.6 9.69 15.33 9.42075C14.7675 8.86012 13.86 8.85975 13.3012 9.42038L12 10.7197ZM16.125 14.25V20.625C16.125 20.7244 16.0837 20.82 16.0162 20.8901C15.945 20.9606 15.8513 21 15.75 21H8.25C8.1525 21 8.05501 20.9606 7.98376 20.8901C7.91626 20.82 7.875 20.7244 7.875 20.625V14.25H16.125ZM13.5 18C12.8775 18 12.375 18.504 12.375 19.125C12.375 19.746 12.8775 20.25 13.5 20.25C14.1225 20.25 14.625 19.746 14.625 19.125C14.625 18.504 14.1225 18 13.5 18ZM13.9838 15.1099L9.48376 19.6099C9.33751 19.7561 9.33751 19.9939 9.48376 20.1401C9.63001 20.2864 9.86999 20.2864 10.0162 20.1401L14.5162 15.6401C14.6625 15.4939 14.6625 15.2561 14.5162 15.1099C14.37 14.9636 14.13 14.9636 13.9838 15.1099ZM13.5 18.75C13.7063 18.75 13.875 18.918 13.875 19.125C13.875 19.332 13.7063 19.5 13.5 19.5C13.2937 19.5 13.125 19.332 13.125 19.125C13.125 18.918 13.2937 18.75 13.5 18.75ZM10.5 15C9.8775 15 9.375 15.504 9.375 16.125C9.375 16.746 9.8775 17.25 10.5 17.25C11.1225 17.25 11.625 16.746 11.625 16.125C11.625 15.504 11.1225 15 10.5 15ZM10.5 15.75C10.7063 15.75 10.875 15.918 10.875 16.125C10.875 16.332 10.7063 16.5 10.5 16.5C10.2937 16.5 10.125 16.332 10.125 16.125C10.125 15.918 10.2937 15.75 10.5 15.75ZM12.375 12.375H16.5C16.6013 12.375 16.695 12.4144 16.7662 12.4849C16.8337 12.555 16.875 12.6506 16.875 12.75V13.5H12.375V12.375ZM11.625 12.375V13.5H7.125V12.75C7.125 12.6506 7.16626 12.555 7.23376 12.4849C7.30501 12.4144 7.4025 12.375 7.5 12.375H11.625ZM14.0962 11.625L14.3588 11.3599C14.4675 11.2519 14.6887 10.9766 14.85 10.7197C14.9175 10.6117 14.9888 10.446 15 10.4235C14.9963 10.2461 14.925 10.0766 14.8012 9.951C14.7975 9.951 14.7975 9.951 14.7975 9.95063C14.5312 9.68325 14.0963 9.68325 13.83 9.95063L12.1538 11.625H14.0962ZM11.4712 11.25L10.17 9.95063C9.90375 9.68325 9.46876 9.68325 9.20251 9.95063C9.07501 10.0763 9.00375 10.2461 9 10.4235C9.01125 10.446 9.08251 10.6117 9.15001 10.7197C9.31126 10.9766 9.53249 11.2519 9.64124 11.3599L9.90376 11.625H11.0962L11.4712 11.25ZM19.875 4.5V5.25C19.875 6.07838 19.2038 6.75 18.375 6.75C17.5462 6.75 16.875 6.07838 16.875 5.25V4.5H7.125V5.25C7.125 6.07838 6.45375 6.75 5.625 6.75C4.79625 6.75 4.125 6.07838 4.125 5.25V4.5H1.875C1.575 4.5 1.29 4.6185 1.08 4.82962C0.870002 5.04037 0.75 5.3265 0.75 5.625V7.5H23.25V5.625C23.25 5.3265 23.13 5.04037 22.92 4.82962C22.71 4.6185 22.425 4.5 22.125 4.5H19.875ZM6.375 4.5H4.875V5.25C4.875 5.66438 5.20875 6 5.625 6C6.04125 6 6.375 5.66438 6.375 5.25V4.5ZM19.125 4.5H17.625V5.25C17.625 5.66438 17.9587 6 18.375 6C18.7913 6 19.125 5.66438 19.125 5.25V4.5Z" fill="#2563EB"/>
</g>
<defs>
<clipPath id="clip0_413_6556">
<rect width="24" height="24" fill="white"/>
</clipPath>
</defs>
</svg>
