<svg width="24" height="24" viewBox="0 0 24 24" fill="none" xmlns="http://www.w3.org/2000/svg">
<path d="M17 11H20C20.275 11 20.5 10.775 20.5 10.5C20.5 10.225 20.275 10 20 10H17C16.725 10 16.5 10.225 16.5 10.5C16.5 10.775 16.725 11 17 11Z" fill="#2563EB"/>
<path d="M4 11H7C7.275 11 7.5 10.775 7.5 10.5C7.5 10.225 7.275 10 7 10H4C3.725 10 3.5 10.225 3.5 10.5C3.5 10.775 3.725 11 4 11Z" fill="#2563EB"/>
<path d="M20 19H17C16.725 19 16.5 19.225 16.5 19.5C16.5 19.775 16.725 20 17 20H20C20.275 20 20.5 19.775 20.5 19.5C20.5 19.225 20.275 19 20 19Z" fill="#2563EB"/>
<path d="M4 20H7C7.275 20 7.5 19.775 7.5 19.5C7.5 19.225 7.275 19 7 19H4C3.725 19 3.5 19.225 3.5 19.5C3.5 19.775 3.725 20 4 20Z" fill="#2563EB"/>
<path d="M22 3.5H19V2C19 1.725 18.775 1.5 18.5 1.5H15.5C15.225 1.5 15 1.725 15 2V3.5H10.5H9V2C9 1.725 8.775 1.5 8.5 1.5H5.5C5.225 1.5 5 1.725 5 2V3.5H2C1.725 3.5 1.5 3.725 1.5 4V8V22C1.5 22.275 1.725 22.5 2 22.5H22C22.275 22.5 22.5 22.275 22.5 22V8V4C22.5 3.725 22.275 3.5 22 3.5ZM16 2.5H18V5.5H16V2.5ZM6 2.5H8V5.5H6V2.5ZM21.5 21.5H2.5V8.5H21.5V21.5ZM21.5 7.5H2.5V4.5H5V6C5 6.275 5.225 6.5 5.5 6.5H8.5C8.775 6.5 9 6.275 9 6V4.5H10.5H15V6C15 6.275 15.225 6.5 15.5 6.5H18.5C18.775 6.5 19 6.275 19 6V4.5H21.5V7.5Z" fill="#2563EB"/>
<path d="M12 20C14.755 20 17 17.755 17 15C17 12.245 14.755 10 12 10C9.245 10 7 12.245 7 15C7 17.755 9.245 20 12 20ZM12 11C14.205 11 16 12.795 16 15C16 17.205 14.205 19 12 19C9.795 19 8 17.205 8 15C8 12.795 9.795 11 12 11Z" fill="#2563EB"/>
<path d="M8.53512 15.175C8.53512 15.18 8.53512 15.185 8.54012 15.19C8.56512 15.245 8.60012 15.295 8.64012 15.335C8.64512 15.34 8.64512 15.345 8.65012 15.35L10.1501 16.85C10.2451 16.95 10.3701 17 10.5001 17C10.6301 17 10.7551 16.95 10.8551 16.855C11.0501 16.66 11.0501 16.345 10.8551 16.15L10.2051 15.5H14.5001C14.7751 15.5 15.0001 15.275 15.0001 15C15.0001 14.725 14.7751 14.5 14.5001 14.5H10.2051L10.8501 13.855C11.0451 13.66 11.0451 13.345 10.8501 13.15C10.6551 12.955 10.3401 12.955 10.1451 13.15L8.64512 14.65C8.60012 14.695 8.57012 14.745 8.54512 14.8C8.54012 14.815 8.53512 14.835 8.52512 14.85C8.51012 14.89 8.50512 14.93 8.50012 14.975C8.50012 14.99 8.49512 15.01 8.49512 15.025C8.50512 15.07 8.51512 15.125 8.53512 15.175Z" fill="#2563EB"/>
</svg>
