<svg width="24" height="24" viewBox="0 0 24 24" fill="none" xmlns="http://www.w3.org/2000/svg">
<path d="M5.59998 5.12C6.2175 5.12 6.71998 4.61752 6.71998 4C6.71998 3.38248 6.2175 2.88 5.59998 2.88C4.98246 2.88 4.47998 3.38248 4.47998 4C4.47998 4.61752 4.98246 5.12 5.59998 5.12ZM5.59998 3.52C5.8647 3.52 6.07998 3.73528 6.07998 4C6.07998 4.26472 5.8647 4.48 5.59998 4.48C5.33526 4.48 5.11998 4.26472 5.11998 4C5.11998 3.73528 5.33526 3.52 5.59998 3.52Z" fill="#2563EB"/>
<path d="M8.47983 7.24238C8.67998 7.24238 8.84223 7.08013 8.84223 6.87998C8.84223 6.67983 8.67998 6.51758 8.47983 6.51758C8.27968 6.51758 8.11743 6.67983 8.11743 6.87998C8.11743 7.08013 8.27968 7.24238 8.47983 7.24238Z" fill="#2563EB"/>
<path d="M10.0659 8.97408C10.1284 9.03656 10.2103 9.06784 10.2921 9.06784C10.374 9.06784 10.4559 9.03656 10.5184 8.97408L10.88 8.61248L11.2416 8.97408C11.304 9.03656 11.386 9.06784 11.4678 9.06784C11.5496 9.06784 11.6316 9.03656 11.694 8.97408C11.819 8.84912 11.819 8.64656 11.694 8.5216L11.3324 8.16L11.694 7.7984C11.819 7.67344 11.819 7.47088 11.694 7.34592C11.5691 7.22096 11.3665 7.22096 11.2416 7.34592L10.88 7.70752L10.5184 7.34592C10.3934 7.22096 10.1908 7.22096 10.0659 7.34592C9.94093 7.47088 9.94093 7.67344 10.0659 7.7984L10.4275 8.16L10.0659 8.5216C9.94093 8.64656 9.94093 8.84904 10.0659 8.97408Z" fill="#2563EB"/>
<path d="M15.1336 9.8262C15.1961 9.88868 15.278 9.91996 15.3598 9.91996C15.4417 9.91996 15.5236 9.88868 15.5861 9.8262L15.9998 9.41244L16.4136 9.8262C16.4761 9.88868 16.558 9.91996 16.6398 9.91996C16.7217 9.91996 16.8036 9.88868 16.8661 9.8262C16.991 9.70124 16.991 9.49868 16.8661 9.37372L16.4523 8.95996L16.8661 8.5462C16.991 8.42124 16.991 8.21868 16.8661 8.09372C16.7411 7.96876 16.5385 7.96876 16.4136 8.09372L15.9998 8.50748L15.5861 8.09372C15.4611 7.96876 15.2585 7.96876 15.1336 8.09372C15.0086 8.21868 15.0086 8.42124 15.1336 8.5462L15.5473 8.95996L15.1336 9.37372C15.0085 9.49868 15.0085 9.70124 15.1336 9.8262Z" fill="#2563EB"/>
<path d="M17.5998 10.56H19.1998C19.3767 10.56 19.5198 10.4168 19.5198 10.24C19.5198 10.0633 19.3767 9.92004 19.1998 9.92004H17.9198V9.17364C17.9198 9.0558 18.0157 8.96004 18.1335 8.96004H18.5598C19.0891 8.96004 19.5198 8.5294 19.5198 8.00004C19.5198 7.47068 19.0891 7.04004 18.5598 7.04004H17.5998C17.4229 7.04004 17.2798 7.18332 17.2798 7.36004C17.2798 7.53676 17.4229 7.68004 17.5998 7.68004H18.5598C18.7363 7.68004 18.8798 7.82364 18.8798 8.00004C18.8798 8.17644 18.7363 8.32004 18.5598 8.32004H18.1335C17.6629 8.32004 17.2798 8.703 17.2798 9.17364V10.24C17.2798 10.4168 17.4229 10.56 17.5998 10.56Z" fill="#2563EB"/>
<path d="M18.2399 20.48H16.3199V12.6736C16.6273 12.7532 16.9479 12.8 17.2799 12.8C19.3974 12.8 21.1199 11.0774 21.1199 8.96C21.1199 6.84264 19.3974 5.12 17.2799 5.12C15.1624 5.12 13.4399 6.84264 13.4399 8.96C13.4399 9.53144 13.5688 10.0722 13.7936 10.56H3.19988C3.023 10.56 2.87988 10.7033 2.87988 10.88V20.8C2.87988 20.9767 3.023 21.12 3.19988 21.12H18.2399C18.4168 21.12 18.5599 20.9767 18.5599 20.8C18.5599 20.6233 18.4168 20.48 18.2399 20.48ZM11.8399 14.4H15.6799V15.04H11.8399V14.4ZM17.2799 5.76C19.0443 5.76 20.4799 7.19544 20.4799 8.96C20.4799 10.7246 19.0443 12.16 17.2799 12.16C15.5155 12.16 14.0799 10.7246 14.0799 8.96C14.0799 7.19544 15.5155 5.76 17.2799 5.76ZM15.6799 12.4463V13.76H11.8236C11.7907 13.6054 11.7066 13.4658 11.5802 13.3646C11.4152 13.2322 11.2024 13.1829 10.9961 13.2286L8.60484 13.76H7.67988V11.2H8.31988V12.8516C8.31988 13.0283 8.463 13.1716 8.63988 13.1716C8.81676 13.1716 8.95988 13.0283 8.95988 12.8516V11.2H14.1673C14.554 11.7357 15.074 12.1671 15.6799 12.4463ZM8.31988 15.04H7.67988V14.4H8.31988V15.04ZM7.03988 14.4H5.75988C5.583 14.4 5.43988 14.5433 5.43988 14.72C5.43988 14.8967 5.583 15.04 5.75988 15.04H7.03988V15.1034L4.86484 15.5867C4.84324 15.5916 4.82892 15.5833 4.8198 15.5761C4.81076 15.5689 4.7998 15.5558 4.7998 15.5346V13.9053C4.7998 13.8842 4.81076 13.871 4.8198 13.8637C4.82884 13.8563 4.84324 13.8484 4.86484 13.8532L7.03988 14.3366V14.4ZM7.67988 15.68H8.31988V20.48H7.67988V15.68ZM8.95988 15.04H10.2399C10.4168 15.04 10.5599 14.8967 10.5599 14.72C10.5599 14.5433 10.4168 14.4 10.2399 14.4H8.95988V14.3366L11.1349 13.8533C11.1565 13.8484 11.1708 13.8564 11.1799 13.8638C11.1889 13.8711 11.1999 13.8842 11.1999 13.9054V15.5347C11.1999 15.5558 11.1889 15.569 11.1799 15.5762C11.1708 15.5834 11.1564 15.5916 11.1349 15.5868L8.95988 15.1034V15.04ZM7.03988 11.2V13.6811L5.00364 13.2286C4.7974 13.1827 4.58396 13.2322 4.41956 13.3646C4.29324 13.4658 4.20908 13.6054 4.1762 13.76H3.51988V11.2H7.03988ZM3.51988 15.04V14.4H4.15988V15.04H3.51988ZM3.51988 15.68H4.1762C4.20916 15.8346 4.29316 15.974 4.41932 16.0753C4.58404 16.2074 4.79772 16.2573 5.00372 16.2114L7.03988 15.7589V20.48H3.51988V15.68ZM8.95988 20.48V15.7589L10.9961 16.2114C11.0464 16.2226 11.0974 16.2281 11.1477 16.2281C11.3036 16.2281 11.4559 16.1753 11.5805 16.0753C11.7066 15.9739 11.7907 15.8345 11.8236 15.68H15.6799V20.48H8.95988Z" fill="#2563EB"/>
<path d="M19.8399 20.48H19.1999C19.023 20.48 18.8799 20.6233 18.8799 20.8C18.8799 20.9767 19.023 21.12 19.1999 21.12H19.8399C20.0168 21.12 20.1599 20.9767 20.1599 20.8C20.1599 20.6233 20.0168 20.48 19.8399 20.48Z" fill="#2563EB"/>
</svg>
