<svg width="12" height="12" viewBox="0 0 12 12" fill="none" xmlns="http://www.w3.org/2000/svg">
<g clip-path="url(#clip0_413_6853)">
<path fill-rule="evenodd" clip-rule="evenodd" d="M-0.00210571 10.1509V2.89921C-0.00210571 2.2088 0.557489 1.64886 1.248 1.64886H10.7469C11.437 1.64886 11.9966 2.2088 11.9966 2.89921V10.1509C11.9966 10.8413 11.437 11.401 10.7469 11.401H1.248C0.557489 11.401 -0.00210571 10.8413 -0.00210571 10.1509ZM11.4968 3.64948V2.89921C11.4968 2.48497 11.161 2.14922 10.7469 2.14922H1.248C0.833551 2.14922 0.498078 2.48497 0.498078 2.89921V3.64948H11.4968ZM0.498078 4.14957V10.1509C0.498078 10.5651 0.833551 10.9009 1.248 10.9009H10.7469C11.161 10.9009 11.4968 10.5651 11.4968 10.1509V4.14957H0.498078ZM1.74783 9.9007V5.39993C1.74783 5.26157 1.85989 5.14974 1.99792 5.14974H9.99696C10.135 5.14974 10.2467 5.26157 10.2467 5.39993V9.9007C10.2467 10.0388 10.135 10.1509 9.99696 10.1509H1.99792C1.85989 10.1509 1.74783 10.0388 1.74783 9.9007ZM3.0947 5.64983C2.57566 5.64983 2.24766 5.64983 2.24766 5.64983V6.49723C2.66815 6.40151 2.99936 6.07028 3.0947 5.64983ZM8.3911 5.64983C7.03463 5.64983 4.95989 5.64983 3.60342 5.64983C3.49563 6.34673 2.94457 6.89821 2.24766 7.00607V8.29455C2.94457 8.40242 3.49563 8.95361 3.60342 9.6508H8.3911C8.4989 8.95361 9.04995 8.40242 9.74687 8.29455V7.00607C9.04995 6.89821 8.4989 6.34673 8.3911 5.64983ZM9.74687 6.49723V5.64983C9.74687 5.64983 9.41887 5.64983 8.89983 5.64983C8.99552 6.07028 9.32673 6.40151 9.74687 6.49723ZM8.89983 9.6508H9.74687V8.80339C9.32673 8.89911 8.99552 9.23034 8.89983 9.6508ZM2.24766 8.80339V9.6508H3.0947C2.99936 9.23034 2.66815 8.89911 2.24766 8.80339ZM5.99726 6.27501C6.75608 6.27501 7.37224 6.89115 7.37224 7.65017C7.37224 8.4092 6.75608 9.02562 5.99726 9.02562C5.23845 9.02562 4.62229 8.4092 4.62229 7.65017C4.62229 6.89115 5.23845 6.27501 5.99726 6.27501ZM5.99726 6.77509C5.51451 6.77509 5.12247 7.16731 5.12247 7.65017C5.12247 8.13332 5.51451 8.52554 5.99726 8.52554C6.48001 8.52554 6.87205 8.13332 6.87205 7.65017C6.87205 7.16731 6.48001 6.77509 5.99726 6.77509ZM2.12279 1.14877C1.98476 1.14877 1.8727 1.03695 1.8727 0.898871C1.8727 0.760789 1.98476 0.648682 2.12279 0.648682H3.87272C4.0104 0.648682 4.12246 0.760789 4.12246 0.898871C4.12246 1.03695 4.0104 1.14877 3.87272 1.14877H2.12279ZM8.12216 1.14877C7.98413 1.14877 7.87206 1.03695 7.87206 0.898871C7.87206 0.760789 7.98413 0.648682 8.12216 0.648682H9.87173C10.0098 0.648682 10.1218 0.760789 10.1218 0.898871C10.1218 1.03695 10.0098 1.14877 9.87173 1.14877H8.12216Z" fill="#2563EB"/>
</g>
<defs>
<clipPath id="clip0_413_6853">
<rect width="12" height="12" fill="white"/>
</clipPath>
</defs>
</svg>
