<svg width="12" height="12" viewBox="0 0 12 12" fill="none" xmlns="http://www.w3.org/2000/svg">
<g clip-path="url(#clip0_413_6845)">
<path d="M9.1875 3.56245H8.77875C8.72902 3.56245 8.68133 3.58221 8.64616 3.61737C8.611 3.65253 8.59125 3.70022 8.59125 3.74995C8.59125 3.79968 8.611 3.84737 8.64616 3.88253C8.68133 3.9177 8.72902 3.93745 8.77875 3.93745H9C8.99245 3.96679 8.99153 3.99744 8.99728 4.02718C9.00304 4.05692 9.01533 4.08501 9.03328 4.10941C9.05122 4.13382 9.07437 4.15393 9.10104 4.16829C9.12771 4.18265 9.15724 4.1909 9.1875 4.19245C9.3525 4.19245 9.38812 4.04433 9.375 3.9037C9.51023 3.86052 9.62546 3.77022 9.69972 3.64923C9.77398 3.52825 9.80234 3.38462 9.77962 3.24449C9.75691 3.10436 9.68464 2.97704 9.57597 2.88571C9.4673 2.79437 9.32945 2.74509 9.1875 2.74683C9.12882 2.74683 9.07254 2.72352 9.03105 2.68202C8.98956 2.64053 8.96625 2.58426 8.96625 2.52558C8.96625 2.4669 8.98956 2.41062 9.03105 2.36913C9.07254 2.32764 9.12882 2.30433 9.1875 2.30433H9.59625C9.64598 2.30433 9.69367 2.28457 9.72883 2.24941C9.76399 2.21425 9.78375 2.16655 9.78375 2.11683C9.78375 2.0671 9.76399 2.01941 9.72883 1.98424C9.69367 1.94908 9.64598 1.92933 9.59625 1.92933H9.375C9.38353 1.89962 9.38522 1.86837 9.37993 1.83792C9.37465 1.80747 9.36252 1.77861 9.34447 1.75353C9.32643 1.72844 9.30292 1.70777 9.27573 1.69308C9.24854 1.67839 9.21837 1.67005 9.1875 1.6687C9.0225 1.6687 8.98687 1.8187 9 1.95745C8.86577 2.00179 8.75174 2.09253 8.67838 2.21336C8.60501 2.3342 8.57712 2.47722 8.5997 2.61677C8.62228 2.75632 8.69386 2.88325 8.80158 2.97478C8.90931 3.06631 9.04614 3.11645 9.1875 3.1162C9.24667 3.1162 9.30343 3.13971 9.34527 3.18155C9.38712 3.2234 9.41062 3.28015 9.41062 3.33933C9.41062 3.3985 9.38712 3.45526 9.34527 3.4971C9.30343 3.53894 9.24667 3.56245 9.1875 3.56245Z" fill="#2563EB"/>
<path d="M2.8125 2.2987H3.22125C3.27098 2.2987 3.31867 2.27895 3.35383 2.24378C3.38899 2.20862 3.40875 2.16093 3.40875 2.1112C3.40875 2.06147 3.38899 2.01378 3.35383 1.97862C3.31867 1.94346 3.27098 1.9237 3.22125 1.9237H3C3.00754 1.89436 3.00847 1.86371 3.00271 1.83397C2.99696 1.80423 2.98466 1.77614 2.96672 1.75174C2.94877 1.72733 2.92562 1.70722 2.89895 1.69286C2.87228 1.6785 2.84275 1.67025 2.8125 1.6687C2.6475 1.6687 2.61187 1.8187 2.625 1.95745C2.49077 2.00179 2.37674 2.09253 2.30338 2.21336C2.23001 2.3342 2.20212 2.47722 2.2247 2.61677C2.24728 2.75632 2.31886 2.88325 2.42658 2.97478C2.53431 3.06631 2.67114 3.11645 2.8125 3.1162C2.87167 3.1162 2.92843 3.13971 2.97027 3.18155C3.01211 3.2234 3.03562 3.28015 3.03562 3.33933C3.03562 3.3985 3.01211 3.45526 2.97027 3.4971C2.92843 3.53894 2.87167 3.56245 2.8125 3.56245H2.40375C2.35402 3.56245 2.30633 3.58221 2.27117 3.61737C2.236 3.65253 2.21625 3.70022 2.21625 3.74995C2.21625 3.79968 2.236 3.84737 2.27117 3.88253C2.30633 3.9177 2.35402 3.93745 2.40375 3.93745H2.625C2.61745 3.96679 2.61653 3.99744 2.62228 4.02718C2.62804 4.05692 2.64034 4.08501 2.65828 4.10941C2.67623 4.13382 2.69937 4.15393 2.72604 4.16829C2.75271 4.18265 2.78224 4.1909 2.8125 4.19245C2.9775 4.19245 3.01312 4.04433 3 3.9037C3.13523 3.86052 3.25046 3.77022 3.32472 3.64923C3.39898 3.52825 3.42734 3.38462 3.40462 3.24449C3.38191 3.10436 3.30964 2.97704 3.20097 2.88571C3.0923 2.79437 2.95445 2.74509 2.8125 2.74683C2.75307 2.74683 2.69608 2.72322 2.65406 2.6812C2.61204 2.63918 2.58844 2.58219 2.58844 2.52276C2.58844 2.46334 2.61204 2.40635 2.65406 2.36433C2.69608 2.32231 2.75307 2.2987 2.8125 2.2987Z" fill="#2563EB"/>
<path d="M6 4.6499H6.5925C6.64223 4.6499 6.68992 4.63015 6.72508 4.59499C6.76025 4.55982 6.78 4.51213 6.78 4.4624C6.78 4.41267 6.76025 4.36498 6.72508 4.32982C6.68992 4.29466 6.64223 4.2749 6.5925 4.2749H6.1875V4.0874C6.1875 4.03767 6.16775 3.98998 6.13258 3.95482C6.09742 3.91966 6.04973 3.8999 6 3.8999C5.95027 3.8999 5.90258 3.91966 5.86742 3.95482C5.83226 3.98998 5.8125 4.03767 5.8125 4.0874V4.29553C5.63053 4.34387 5.47219 4.4564 5.3667 4.61235C5.2612 4.7683 5.21568 4.95714 5.23852 5.14403C5.26137 5.33092 5.35105 5.50324 5.491 5.62918C5.63096 5.75513 5.81175 5.8262 6 5.82928C6.10241 5.83626 6.19835 5.88186 6.26842 5.95687C6.33849 6.03188 6.37746 6.13069 6.37746 6.23334C6.37746 6.33598 6.33849 6.4348 6.26842 6.50981C6.19835 6.58482 6.10241 6.63042 6 6.6374H5.4075C5.35777 6.6374 5.31008 6.65716 5.27492 6.69232C5.23976 6.72748 5.22 6.77517 5.22 6.8249C5.22 6.87463 5.23976 6.92232 5.27492 6.95748C5.31008 6.99265 5.35777 7.0124 5.4075 7.0124H5.8125V7.1999C5.8125 7.24963 5.83226 7.29732 5.86742 7.33248C5.90258 7.36765 5.95027 7.3874 6 7.3874C6.04973 7.3874 6.09742 7.36765 6.13258 7.33248C6.16775 7.29732 6.1875 7.24963 6.1875 7.1999V6.99178C6.37061 6.94486 6.53038 6.83288 6.63697 6.67678C6.74356 6.52067 6.78967 6.3311 6.76671 6.14347C6.74374 5.95584 6.65327 5.78299 6.51217 5.6572C6.37108 5.53141 6.18902 5.46128 6 5.4599C5.89259 5.4599 5.78958 5.41723 5.71362 5.34128C5.63767 5.26533 5.595 5.16232 5.595 5.0549C5.595 4.94749 5.63767 4.84448 5.71362 4.76852C5.78958 4.69257 5.89259 4.6499 6 4.6499Z" fill="#2563EB"/>
<path d="M10.9275 10.5844C10.8412 10.6698 10.7246 10.7177 10.6031 10.7177C10.4817 10.7177 10.3651 10.6698 10.2788 10.5844L10.0575 10.3575C9.97894 10.2772 9.88488 10.2136 9.78104 10.1707C9.67719 10.1278 9.56572 10.1064 9.45336 10.1078C9.34101 10.1092 9.2301 10.1334 9.12736 10.1789C9.02462 10.2244 8.93218 10.2903 8.85564 10.3725L8.63439 10.6125C8.59134 10.6574 8.53967 10.6931 8.48247 10.7175C8.42528 10.7418 8.36375 10.7544 8.30157 10.7544C8.2394 10.7544 8.17787 10.7418 8.12067 10.7175C8.06348 10.6931 8.01181 10.6574 7.96876 10.6125L7.74751 10.3725C7.67111 10.29 7.57872 10.2239 7.47596 10.1783C7.3732 10.1326 7.26223 10.1083 7.14979 10.1069C7.03736 10.1055 6.92581 10.127 6.82195 10.1701C6.71808 10.2132 6.62407 10.277 6.54564 10.3575L6.32439 10.5844C6.2378 10.6694 6.12133 10.717 6.00001 10.717C5.8787 10.717 5.76222 10.6694 5.67564 10.5844L5.43751 10.3444C5.36014 10.2651 5.26769 10.2022 5.16562 10.1592C5.06354 10.1161 4.9539 10.094 4.84314 10.094C4.73237 10.094 4.62273 10.1161 4.52065 10.1592C4.41858 10.2022 4.32613 10.2651 4.24876 10.3444L4.01814 10.5844C3.93123 10.6695 3.81445 10.7171 3.69282 10.7171C3.5712 10.7171 3.45442 10.6695 3.36751 10.5844L3.13501 10.3444C3.0578 10.2652 2.96552 10.2022 2.8636 10.1593C2.76168 10.1163 2.65218 10.0941 2.54157 10.0941C2.43096 10.0941 2.32147 10.1163 2.21955 10.1593C2.11763 10.2022 2.02535 10.2652 1.94814 10.3444L1.72126 10.5844C1.63467 10.6694 1.5182 10.717 1.39689 10.717C1.27557 10.717 1.1591 10.6694 1.07251 10.5844C1.05508 10.5668 1.03434 10.5529 1.01149 10.5434C0.988645 10.5338 0.964137 10.5289 0.939385 10.5289C0.914633 10.5289 0.890126 10.5338 0.867277 10.5434C0.844428 10.5529 0.823691 10.5668 0.80626 10.5844C0.56251 10.875 1.16439 11.1094 1.39689 11.0963C1.74751 11.115 2.00626 10.845 2.22376 10.605C2.31058 10.5205 2.42696 10.4732 2.54814 10.4732C2.66931 10.4732 2.78569 10.5205 2.87251 10.605L3.10501 10.845C3.18222 10.9242 3.27451 10.9872 3.37643 11.0302C3.47834 11.0731 3.58784 11.0953 3.69845 11.0953C3.80906 11.0953 3.91855 11.0731 4.02047 11.0302C4.12239 10.9872 4.21467 10.9242 4.29189 10.845L4.52439 10.605C4.6112 10.5205 4.72759 10.4732 4.84876 10.4732C4.96993 10.4732 5.08632 10.5205 5.17314 10.605L5.40564 10.845C5.48301 10.9243 5.57545 10.9873 5.67753 11.0303C5.7796 11.0733 5.88925 11.0954 6.00001 11.0954C6.11077 11.0954 6.22042 11.0733 6.32249 11.0303C6.42457 10.9873 6.51701 10.9243 6.59439 10.845C6.73314 10.7025 6.92063 10.4569 7.14376 10.4813C7.37814 10.4625 7.55063 10.7194 7.69314 10.8675C7.77102 10.9509 7.86523 11.0174 7.96989 11.0629C8.07456 11.1084 8.18746 11.1318 8.30157 11.1318C8.41569 11.1318 8.52859 11.1084 8.63325 11.0629C8.73792 11.0174 8.83212 10.9509 8.91001 10.8675L9.13126 10.6256C9.17365 10.581 9.22469 10.5454 9.28126 10.5211C9.33783 10.4968 9.39876 10.4843 9.46032 10.4843C9.52189 10.4843 9.58282 10.4968 9.63939 10.5211C9.69596 10.5454 9.74699 10.581 9.78939 10.6256L10.0088 10.8525C10.0861 10.9318 10.1786 10.9948 10.2807 11.0378C10.3827 11.0808 10.4924 11.1029 10.6031 11.1029C10.7139 11.1029 10.8235 11.0808 10.9256 11.0378C11.0277 10.9948 11.1201 10.9318 11.1975 10.8525C11.2331 10.8167 11.2529 10.7683 11.2528 10.7178C11.2526 10.6673 11.2324 10.619 11.1966 10.5835C11.1608 10.5479 11.1123 10.528 11.0618 10.5282C11.0114 10.5284 10.9631 10.5486 10.9275 10.5844Z" fill="#2563EB"/>
<path d="M10.9275 9.23242C10.8407 9.31694 10.7243 9.36424 10.6031 9.36424C10.482 9.36424 10.3656 9.31694 10.2788 9.23242L10.0575 8.99992C9.97854 8.92019 9.8843 8.85721 9.78043 8.81474C9.67656 8.77228 9.56519 8.75121 9.45298 8.75278C9.34078 8.75436 9.23004 8.77855 9.12741 8.82391C9.02477 8.86928 8.93233 8.93488 8.85563 9.01679L8.63438 9.25679C8.59134 9.30165 8.53966 9.33735 8.48247 9.36173C8.42528 9.38612 8.36375 9.39869 8.30157 9.39869C8.2394 9.39869 8.17787 9.38612 8.12067 9.36173C8.06348 9.33735 8.01181 9.30165 7.96876 9.25679L7.74751 9.01679C7.67109 8.93441 7.57876 8.86838 7.47608 8.82272C7.37341 8.77705 7.26254 8.75269 7.15018 8.75111C7.03783 8.74953 6.92632 8.77077 6.8224 8.81354C6.71849 8.8563 6.62433 8.91971 6.54564 8.99992L6.32439 9.22867C6.23757 9.31319 6.12118 9.36049 6.00001 9.36049C5.87884 9.36049 5.76245 9.31319 5.67564 9.22867L5.43751 8.99992C5.36014 8.92066 5.26769 8.85767 5.16562 8.81467C5.06354 8.77166 4.9539 8.74951 4.84313 8.74951C4.73237 8.74951 4.62273 8.77166 4.52065 8.81467C4.41858 8.85767 4.32613 8.92066 4.24876 8.99992L4.01814 9.23992C3.931 9.32456 3.8143 9.37191 3.69282 9.37191C3.57134 9.37191 3.45464 9.32456 3.36751 9.23992L3.14064 8.99992C3.06342 8.92071 2.97114 8.85776 2.86922 8.81478C2.7673 8.7718 2.65781 8.74966 2.5472 8.74966C2.43659 8.74966 2.32709 8.7718 2.22517 8.81478C2.12326 8.85776 2.03097 8.92071 1.95376 8.99992L1.72126 9.23242C1.63444 9.31694 1.51806 9.36424 1.39689 9.36424C1.27571 9.36424 1.15933 9.31694 1.07251 9.23242C1.05508 9.21484 1.03434 9.20089 1.01149 9.19137C0.988645 9.18185 0.964137 9.17695 0.939385 9.17695C0.914633 9.17695 0.890126 9.18185 0.867277 9.19137C0.844428 9.20089 0.823691 9.21484 0.80626 9.23242C0.56251 9.52492 1.16439 9.74992 1.39689 9.74992C1.74751 9.76867 2.00626 9.49867 2.22376 9.25867C2.31011 9.17325 2.42667 9.12534 2.54814 9.12534C2.6696 9.12534 2.78616 9.17325 2.87251 9.25867L3.10501 9.49867C3.18222 9.57787 3.27451 9.64082 3.37642 9.6838C3.47834 9.72678 3.58784 9.74892 3.69845 9.74892C3.80906 9.74892 3.91855 9.72678 4.02047 9.6838C4.12239 9.64082 4.21467 9.57787 4.29188 9.49867L4.52438 9.25867C4.61074 9.17325 4.7273 9.12534 4.84876 9.12534C4.97022 9.12534 5.08678 9.17325 5.17314 9.25867L5.40563 9.49867C5.48301 9.57793 5.57545 9.64091 5.67753 9.68391C5.7796 9.72692 5.88925 9.74907 6.00001 9.74907C6.11077 9.74907 6.22042 9.72692 6.32249 9.68391C6.42457 9.64091 6.51701 9.57793 6.59438 9.49867C6.73313 9.35617 6.92063 9.11054 7.14376 9.12367C7.37813 9.10679 7.55063 9.36367 7.69313 9.51179C7.77102 9.59519 7.86522 9.66169 7.96989 9.70716C8.07456 9.75262 8.18746 9.77608 8.30157 9.77608C8.41569 9.77608 8.52858 9.75262 8.63325 9.70716C8.73792 9.66169 8.83212 9.59519 8.91001 9.51179L9.13126 9.26992C9.17365 9.22527 9.22469 9.18971 9.28126 9.16541C9.33783 9.14112 9.39875 9.12859 9.46032 9.12859C9.52189 9.12859 9.58282 9.14112 9.63939 9.16541C9.69596 9.18971 9.74699 9.22527 9.78938 9.26992L10.0088 9.49679C10.0861 9.57605 10.1786 9.63903 10.2807 9.68204C10.3827 9.72504 10.4924 9.74719 10.6031 9.74719C10.7139 9.74719 10.8235 9.72504 10.9256 9.68204C11.0277 9.63903 11.1201 9.57605 11.1975 9.49679C11.2326 9.46099 11.252 9.41272 11.2514 9.36261C11.2509 9.31251 11.2305 9.26466 11.1947 9.2296C11.1589 9.19454 11.1106 9.17515 11.0605 9.17567C11.0104 9.1762 10.9626 9.19661 10.9275 9.23242Z" fill="#2563EB"/>
<path d="M10.9286 7.87496C10.8423 7.96038 10.7257 8.00829 10.6042 8.00829C10.4828 8.00829 10.3662 7.96038 10.2799 7.87496L10.0586 7.64809C9.97964 7.56831 9.8856 7.50502 9.78196 7.46188C9.67831 7.41875 9.56713 7.39664 9.45487 7.39684C9.34207 7.39784 9.2307 7.42218 9.12776 7.46833C9.02482 7.51447 8.93255 7.58142 8.85675 7.66496L8.6355 7.90496C8.59231 7.94959 8.5406 7.98507 8.48342 8.00931C8.42625 8.03354 8.36478 8.04603 8.30268 8.04603C8.24059 8.04603 8.17912 8.03354 8.12195 8.00931C8.06477 7.98507 8.01305 7.94959 7.96987 7.90496L7.90425 7.83184C8.30746 7.48418 8.60605 7.03124 8.76664 6.52364C8.92723 6.01604 8.9435 5.47378 8.81362 4.95746C8.93728 4.98048 9.06284 4.99178 9.18862 4.99121C9.59655 4.99121 9.99531 4.87025 10.3345 4.64362C10.6737 4.41699 10.938 4.09487 11.0941 3.718C11.2502 3.34112 11.2911 2.92642 11.2115 2.52634C11.1319 2.12625 10.9355 1.75875 10.647 1.4703C10.3586 1.18186 9.99108 0.985424 9.59099 0.905842C9.19091 0.82626 8.77621 0.867105 8.39934 1.02321C8.02246 1.17932 7.70035 1.44367 7.47372 1.78285C7.24709 2.12202 7.12612 2.52079 7.12612 2.92871V2.96809C6.76983 2.81885 6.38741 2.74199 6.00112 2.74199C5.61484 2.74199 5.23241 2.81885 4.87612 2.96809C4.87612 2.95496 4.87612 2.94184 4.87612 2.92871C4.76362 0.187462 0.865497 0.187462 0.751122 2.92871C0.751122 3.47572 0.96842 4.00033 1.35521 4.38712C1.74201 4.77391 2.26661 4.99121 2.81362 4.99121C2.93941 4.99187 3.06497 4.98056 3.18862 4.95746C3.05966 5.47127 3.07548 6.01075 3.23434 6.51611C3.3932 7.02147 3.68888 7.47298 4.08862 7.82059C4.04829 7.87507 3.99672 7.92023 3.93739 7.95302C3.87807 7.98581 3.81238 8.00545 3.7448 8.0106C3.67721 8.01576 3.60931 8.00632 3.54569 7.98291C3.48208 7.95951 3.42425 7.92269 3.37612 7.87496L3.14362 7.63684C3.06641 7.55763 2.97413 7.49469 2.87221 7.45171C2.77029 7.40873 2.6608 7.38658 2.55018 7.38658C2.43957 7.38658 2.33008 7.40873 2.22816 7.45171C2.12624 7.49469 2.03396 7.55763 1.95675 7.63684L1.72237 7.87496C1.63602 7.96038 1.51946 8.00829 1.398 8.00829C1.27653 8.00829 1.15997 7.96038 1.07362 7.87496C1.05639 7.85723 1.03583 7.84307 1.01312 7.83329C0.99041 7.82351 0.965997 7.81829 0.941273 7.81794C0.91655 7.8176 0.892 7.82212 0.869025 7.83126C0.84605 7.8404 0.8251 7.85398 0.807372 7.87121C0.789643 7.88845 0.775483 7.90901 0.7657 7.93172C0.755917 7.95442 0.750703 7.97884 0.750354 8.00356C0.750006 8.02828 0.754531 8.05283 0.763671 8.07581C0.77281 8.09878 0.786386 8.11973 0.803622 8.13746C0.881255 8.21626 0.973783 8.27884 1.07582 8.32155C1.17786 8.36426 1.28738 8.38626 1.398 8.38626C1.50862 8.38626 1.61813 8.36426 1.72017 8.32155C1.82221 8.27884 1.91474 8.21626 1.99237 8.13746L2.22487 7.89746C2.31122 7.81204 2.42778 7.76413 2.54925 7.76413C2.67071 7.76413 2.78727 7.81204 2.87362 7.89746C3.09112 8.13746 3.348 8.40559 3.69862 8.38871C4.05112 8.40746 4.30987 8.13746 4.5255 7.89746C4.61185 7.81204 4.72841 7.76413 4.84987 7.76413C4.97133 7.76413 5.08789 7.81204 5.17425 7.89746L5.40675 8.13746C5.48438 8.21626 5.57691 8.27884 5.67895 8.32155C5.78099 8.36426 5.8905 8.38626 6.00112 8.38626C6.11174 8.38626 6.22125 8.36426 6.32329 8.32155C6.42533 8.27884 6.51786 8.21626 6.5955 8.13746L6.81487 7.90871C6.8574 7.8643 6.90848 7.82896 6.96503 7.80482C7.02159 7.78067 7.08244 7.76822 7.14393 7.76822C7.20542 7.76822 7.26628 7.78067 7.32283 7.80482C7.37938 7.82896 7.43047 7.8643 7.473 7.90871C7.68487 8.15996 7.94362 8.43371 8.30175 8.41684C8.66175 8.43184 8.91862 8.16184 9.13237 7.90871C9.1749 7.8643 9.22598 7.82896 9.28253 7.80482C9.33909 7.78067 9.39994 7.76822 9.46143 7.76822C9.52293 7.76822 9.58378 7.78067 9.64033 7.80482C9.69689 7.82896 9.74796 7.8643 9.7905 7.90871L10.0099 8.13746C10.0875 8.21626 10.18 8.27884 10.2821 8.32155C10.3841 8.36426 10.4936 8.38626 10.6042 8.38626C10.7149 8.38626 10.8244 8.36426 10.9264 8.32155C11.0285 8.27884 11.121 8.21626 11.1986 8.13746C11.2159 8.11973 11.2294 8.09878 11.2386 8.07581C11.2477 8.05283 11.2522 8.02828 11.2519 8.00356C11.2515 7.97884 11.2463 7.95442 11.2365 7.93172C11.2268 7.90901 11.2126 7.88845 11.1949 7.87121C11.1771 7.85398 11.1562 7.8404 11.1332 7.83126C11.1102 7.82212 11.0857 7.8176 11.061 7.81794C11.0362 7.81829 11.0118 7.82351 10.9891 7.83329C10.9664 7.84307 10.9459 7.85723 10.9286 7.87496ZM7.50112 2.92871C7.58925 0.691837 10.788 0.691837 10.8761 2.92871C10.8758 3.19315 10.8133 3.4538 10.6937 3.68966C10.5741 3.92551 10.4008 4.12996 10.1877 4.28651C9.97454 4.44306 9.72762 4.54734 9.4668 4.59093C9.20598 4.63452 8.93856 4.61621 8.68612 4.53746C8.4504 3.97174 8.0423 3.49475 7.51987 3.17434C7.50797 3.09299 7.5017 3.01092 7.50112 2.92871ZM2.81362 4.61621C0.576747 4.52621 0.576747 1.32934 2.81362 1.24121C3.05592 1.24132 3.29536 1.29361 3.51564 1.39453C3.73593 1.49544 3.9319 1.6426 4.09023 1.82602C4.24856 2.00943 4.36554 2.22479 4.4332 2.45745C4.50087 2.69011 4.51764 2.93462 4.48237 3.17434C3.95994 3.49475 3.55184 3.97174 3.31612 4.53746C3.15367 4.58941 2.98418 4.61597 2.81362 4.61621ZM6.54675 7.65184L6.3255 7.87496C6.23914 7.96038 6.12258 8.00829 6.00112 8.00829C5.87966 8.00829 5.7631 7.96038 5.67675 7.87496L5.43862 7.64059C5.29789 7.49563 5.10887 7.40736 4.90738 7.3925C4.7059 7.37764 4.50597 7.43722 4.3455 7.55996C2.57362 6.04684 3.66675 3.11434 5.9955 3.11621C6.66667 3.11671 7.31022 3.38355 7.78481 3.85815C8.25941 4.33274 8.52625 4.97628 8.52675 5.64746C8.52787 6.01382 8.44832 6.37593 8.29375 6.70808C8.13918 7.04023 7.91338 7.33428 7.63237 7.56934C7.4721 7.44931 7.27372 7.39152 7.07406 7.40669C6.87441 7.42187 6.68704 7.50897 6.54675 7.65184Z" fill="#2563EB"/>
</g>
<defs>
<clipPath id="clip0_413_6845">
<rect width="12" height="12" fill="white"/>
</clipPath>
</defs>
</svg>
