<svg width="52" height="52" viewBox="0 0 52 52" fill="none" xmlns="http://www.w3.org/2000/svg">
<rect width="52" height="52" rx="26" fill="#F8F8F8"/>
<rect width="52" height="52" rx="16" fill="#F9F1F6"/>
<path d="M19.5 31C20.3284 31 21 30.3284 21 29.5C21 28.6716 20.3284 28 19.5 28C18.6716 28 18 28.6716 18 29.5C18 30.3284 18.6716 31 19.5 31Z" fill="#2563EB"/>
<path d="M33 17H19C17.6744 17.0016 16.4036 17.5289 15.4662 18.4662C14.5289 19.4036 14.0016 20.6744 14 22L14 30C14.0016 31.3256 14.5289 32.5964 15.4662 33.5338C16.4036 34.4711 17.6744 34.9984 19 35H33C34.3256 34.9984 35.5964 34.4711 36.5338 33.5338C37.4711 32.5964 37.9984 31.3256 38 30V22C37.9984 20.6744 37.4711 19.4036 36.5338 18.4662C35.5964 17.5289 34.3256 17.0016 33 17ZM19 19H33C33.7956 19 34.5587 19.3161 35.1213 19.8787C35.6839 20.4413 36 21.2044 36 22H16C16 21.2044 16.3161 20.4413 16.8787 19.8787C17.4413 19.3161 18.2044 19 19 19ZM33 33H19C18.2044 33 17.4413 32.6839 16.8787 32.1213C16.3161 31.5587 16 30.7956 16 30V24H36V30C36 30.7956 35.6839 31.5587 35.1213 32.1213C34.5587 32.6839 33.7956 33 33 33Z" fill="#2563EB"/>
</svg>
