<svg width="52" height="52" viewBox="0 0 52 52" fill="none" xmlns="http://www.w3.org/2000/svg">
<rect width="52" height="52" rx="26" fill="#F8F8F8"/>
<rect width="52" height="52" rx="16" fill="#F9F9F1"/>
<g clip-path="url(#clip0_96_88857)">
<path d="M26 14C19.383 14 14 19.383 14 26C14 32.617 19.383 38 26 38C32.617 38 38 32.617 38 26C38 19.383 32.617 14 26 14ZM26 36C20.486 36 16 31.514 16 26C16 20.486 20.486 16 26 16C31.514 16 36 20.486 36 26C36 31.514 31.514 36 26 36ZM30 28C30 29.654 28.654 31 27 31V32C27 32.553 26.553 33 26 33C25.447 33 25 32.553 25 32V31H24.732C23.665 31 22.669 30.426 22.134 29.501C21.857 29.022 22.021 28.411 22.498 28.135C22.977 27.856 23.589 28.022 23.864 28.499C24.043 28.809 24.375 29 24.731 29H26.999C27.551 29 27.999 28.552 27.999 28C27.999 27.622 27.728 27.302 27.355 27.24L24.314 26.733C22.972 26.51 21.999 25.36 21.999 24C21.999 22.346 23.345 21 24.999 21V20C24.999 19.448 25.446 19 25.999 19C26.552 19 26.999 19.448 26.999 20V21H27.267C28.334 21 29.33 21.575 29.865 22.5C30.142 22.978 29.978 23.589 29.501 23.866C29.021 24.143 28.41 23.979 28.135 23.501C27.956 23.192 27.624 23.001 27.268 23.001H25C24.448 23.001 24 23.45 24 24.001C24 24.379 24.271 24.699 24.644 24.761L27.685 25.268C29.027 25.491 30 26.641 30 28.001V28Z" fill="#2563EB"/>
</g>
<defs>
<clipPath id="clip0_96_88857">
<rect width="24" height="24" fill="white" transform="translate(14 14)"/>
</clipPath>
</defs>
</svg>
