<svg width="52" height="52" viewBox="0 0 52 52" fill="none" xmlns="http://www.w3.org/2000/svg">
<rect width="52" height="52" rx="16" fill="#F4F8FC"/>
<path d="M36.9135 30.106C36.6929 29.41 36.077 28.899 35.3392 28.804C34.7609 28.732 34.2273 28.671 33.7232 28.625C33.4895 28.098 33.2334 27.562 32.9579 27.022C32.6225 26.373 32.0036 25.97 31.2617 25.998C30.5706 25.988 29.9018 26.373 29.5624 27.028C29.289 27.563 29.0339 28.097 28.8001 28.625C28.296 28.671 27.7624 28.731 27.1821 28.804C26.4453 28.899 25.8283 29.41 25.6109 30.106C25.3883 30.806 25.6058 31.573 26.1627 32.058C26.5306 32.38 26.8894 32.694 27.2451 32.999C27.0866 33.595 26.9494 34.189 26.8365 34.773C26.7024 35.465 26.9687 36.166 27.5358 36.601C28.1039 37.036 28.8601 37.118 29.5054 36.822C30.1203 36.542 30.7006 36.248 31.2627 35.932C31.8247 36.247 32.403 36.54 33.0159 36.82C33.6653 37.12 34.4225 37.036 34.9916 36.599C35.5557 36.165 35.8209 35.465 35.6878 34.774C35.575 34.189 35.4378 33.594 35.2792 32.999C35.636 32.693 35.9937 32.38 36.3596 32.06C36.9186 31.573 37.1351 30.806 36.9135 30.106ZM33.4691 31.893C33.1653 32.147 33.0402 32.552 33.151 32.93C33.3421 33.59 33.5078 34.251 33.6399 34.901C32.9884 34.595 32.3817 34.273 31.7902 33.92C31.6275 33.823 31.4446 33.774 31.2617 33.774C31.0787 33.774 30.8968 33.823 30.7332 33.92C30.1427 34.274 29.5359 34.595 28.8834 34.901C29.0166 34.252 29.1812 33.59 29.3723 32.93C29.4821 32.552 29.3571 32.147 29.0542 31.893C28.6151 31.526 28.1801 31.147 27.7299 30.753C28.3956 30.673 28.9993 30.61 29.5705 30.568C29.9526 30.541 30.287 30.302 30.4344 29.954C30.6824 29.366 30.9608 28.762 31.2617 28.158C31.5645 28.764 31.842 29.367 32.089 29.954C32.2363 30.303 32.5707 30.541 32.9528 30.568C33.524 30.61 34.1277 30.672 34.7934 30.753C34.3452 31.146 33.9082 31.525 33.4691 31.893ZM23.6321 26C27.4453 26 29.2219 24.252 29.2219 20.5C29.2219 16.748 27.4453 15 23.6321 15C19.8188 15 18.0422 16.748 18.0422 20.5C18.0422 24.252 19.8188 26 23.6321 26ZM23.6321 17C26.3243 17 27.1892 17.851 27.1892 20.5C27.1892 23.149 26.3243 24 23.6321 24C20.9398 24 20.0749 23.149 20.0749 20.5C20.0749 17.851 20.9398 17 23.6321 17ZM24.1473 28.979C24.1616 29.531 23.7184 29.991 23.1574 30.005C18.8075 30.117 17.1478 31.749 17.033 36.026C17.0178 36.569 16.5655 37 16.0177 37H15.9902C15.4292 36.985 14.9861 36.525 15.0003 35.974C15.1457 30.605 17.6448 28.148 23.1046 28.006H23.132C23.6808 28.006 24.1321 28.436 24.1473 28.979Z" fill="#2563EB"/>
</svg>
