<svg width="24" height="24" viewBox="0 0 24 24" fill="none" xmlns="http://www.w3.org/2000/svg">
<path d="M19.4476 12.1269C19.2926 11.9536 19.2071 11.7307 19.2071 11.5C19.2071 11.2693 19.2926 11.0464 19.4476 10.8731L20.6853 9.50527C20.8217 9.35583 20.9064 9.16779 20.9273 8.96813C20.9481 8.76847 20.904 8.56745 20.8014 8.39392L18.8674 5.10737C18.7658 4.93404 18.6111 4.79664 18.4253 4.71477C18.2395 4.6329 18.0321 4.61074 17.8328 4.65143L16.0148 5.01238C15.7835 5.05933 15.5427 5.02149 15.3378 4.906C15.133 4.7905 14.9782 4.60535 14.9028 4.38547L14.313 2.6472C14.2481 2.45854 14.1245 2.29467 13.9597 2.17877C13.7948 2.06286 13.597 2.00078 13.3943 2.00129H9.52642C9.31555 1.99048 9.10688 2.04777 8.93227 2.1644C8.75767 2.28103 8.62672 2.4506 8.55944 2.6472L8.01793 4.38547C7.94251 4.60535 7.78777 4.7905 7.5829 4.906C7.37804 5.02149 7.13723 5.05933 6.90591 5.01238L5.03965 4.65143C4.85065 4.6252 4.65798 4.65449 4.4859 4.73563C4.31383 4.81676 4.17004 4.94611 4.07267 5.10737L2.13871 8.39392C2.03347 8.56552 1.98615 8.7654 2.00351 8.96501C2.02088 9.16461 2.10205 9.35371 2.23541 9.50527L3.46347 10.8731C3.6185 11.0464 3.70399 11.2693 3.70399 11.5C3.70399 11.7307 3.6185 11.9536 3.46347 12.1269L2.23541 13.4947C2.10205 13.6463 2.02088 13.8354 2.00351 14.035C1.98615 14.2346 2.03347 14.4345 2.13871 14.6061L4.07267 17.8926C4.1743 18.066 4.32903 18.2034 4.51482 18.2852C4.70061 18.3671 4.90797 18.3893 5.10733 18.3486L6.92525 17.9876C7.15657 17.9407 7.39738 17.9785 7.60224 18.094C7.80711 18.2095 7.96185 18.3947 8.03727 18.6145L8.62713 20.3528C8.69441 20.5494 8.82536 20.719 8.99996 20.8356C9.17457 20.9522 9.38324 21.0095 9.59411 20.9987H13.462C13.6647 20.9992 13.8625 20.9371 14.0273 20.8212C14.1922 20.7053 14.3158 20.5415 14.3806 20.3528L14.9705 18.6145C15.0459 18.3947 15.2007 18.2095 15.4055 18.094C15.6104 17.9785 15.8512 17.9407 16.0825 17.9876L17.9004 18.3486C18.0998 18.3893 18.3072 18.3671 18.493 18.2852C18.6787 18.2034 18.8335 18.066 18.9351 17.8926L20.8691 14.6061C20.9717 14.4325 21.0158 14.2315 20.995 14.0319C20.9741 13.8322 20.8894 13.6442 20.753 13.4947L19.4476 12.1269ZM18.0068 13.3997L18.7804 14.2546L17.5427 16.3633L16.4016 16.1354C15.7052 15.9955 14.9807 16.1117 14.3657 16.4619C13.7508 16.8121 13.2881 17.372 13.0656 18.0351L12.6981 19.099H10.2226L9.87453 18.0161C9.65199 17.353 9.18931 16.7931 8.57434 16.4429C7.95936 16.0927 7.2349 15.9765 6.53846 16.1164L5.39743 16.3443L4.14036 14.2451L4.91394 13.3902C5.38965 12.8678 5.65264 12.1914 5.65264 11.4905C5.65264 10.7896 5.38965 10.1132 4.91394 9.59076L4.14036 8.73588L5.37809 6.64616L6.51912 6.87413C7.21556 7.01397 7.94002 6.89776 8.555 6.54756C9.16997 6.19736 9.63265 5.63755 9.85519 4.97439L10.2226 3.90103H12.6981L13.0656 4.98389C13.2881 5.64705 13.7508 6.20686 14.3657 6.55706C14.9807 6.90726 15.7052 7.02347 16.4016 6.88363L17.5427 6.65566L18.7804 8.76437L18.0068 9.61926C17.5364 10.1405 17.2767 10.8129 17.2767 11.5095C17.2767 12.2061 17.5364 12.8785 18.0068 13.3997ZM11.4604 7.70052C10.6954 7.70052 9.94755 7.92335 9.31148 8.34085C8.6754 8.75834 8.17964 9.35174 7.88689 10.046C7.59414 10.7403 7.51754 11.5042 7.66679 12.2412C7.81603 12.9783 8.18441 13.6553 8.72535 14.1866C9.26629 14.718 9.95548 15.0799 10.7058 15.2265C11.4561 15.3731 12.2338 15.2978 12.9406 15.0103C13.6473 14.7227 14.2514 14.2357 14.6764 13.6109C15.1014 12.9861 15.3283 12.2515 15.3283 11.5C15.3283 10.4923 14.9208 9.5259 14.1954 8.81336C13.47 8.10082 12.4862 7.70052 11.4604 7.70052ZM11.4604 13.3997C11.0779 13.3997 10.704 13.2883 10.3859 13.0796C10.0679 12.8708 9.82001 12.5741 9.67363 12.227C9.52726 11.8799 9.48896 11.4979 9.56358 11.1294C9.6382 10.7609 9.82239 10.4224 10.0929 10.1567C10.3633 9.891 10.7079 9.71006 11.0831 9.63676C11.4582 9.56346 11.8471 9.60108 12.2005 9.74487C12.5539 9.88865 12.8559 10.1321 13.0684 10.4446C13.2809 10.757 13.3943 11.1243 13.3943 11.5C13.3943 12.0038 13.1906 12.487 12.8279 12.8433C12.4652 13.1996 11.9733 13.3997 11.4604 13.3997Z" fill="#333333"/>
</svg>
