<svg width="24" height="24" viewBox="0 0 24 24" fill="none" xmlns="http://www.w3.org/2000/svg">
<path fill-rule="evenodd" clip-rule="evenodd" d="M5.99996 10.8C6.63648 10.8 7.24693 10.5471 7.69702 10.097C8.14711 9.64696 8.39996 9.03651 8.39996 8.39999C8.39996 7.76347 8.14711 7.15302 7.69702 6.70293C7.24693 6.25284 6.63648 5.99999 5.99996 5.99999C5.36344 5.99999 4.75299 6.25284 4.30291 6.70293C3.85282 7.15302 3.59996 7.76347 3.59996 8.39999C3.59996 9.03651 3.85282 9.64696 4.30291 10.097C4.75299 10.5471 5.36344 10.8 5.99996 10.8ZM5.99996 12C6.47272 12 6.94085 11.9069 7.37762 11.726C7.8144 11.545 8.21126 11.2799 8.54555 10.9456C8.87984 10.6113 9.14501 10.2144 9.32593 9.77765C9.50685 9.34088 9.59996 8.87275 9.59996 8.39999C9.59996 7.92723 9.50685 7.4591 9.32593 7.02233C9.14501 6.58556 8.87984 6.18869 8.54555 5.8544C8.21126 5.52011 7.8144 5.25494 7.37762 5.07402C6.94085 4.8931 6.47272 4.79999 5.99996 4.79999C5.04518 4.79999 4.12951 5.17927 3.45438 5.8544C2.77925 6.52953 2.39996 7.44521 2.39996 8.39999C2.39996 9.35477 2.77925 10.2704 3.45438 10.9456C4.12951 11.6207 5.04518 12 5.99996 12Z" fill="#2563EB"/>
<path fill-rule="evenodd" clip-rule="evenodd" d="M4.62479 10.6752C4.68066 10.7309 4.72499 10.7971 4.75524 10.87C4.78549 10.9429 4.80106 11.0211 4.80106 11.1C4.80106 11.1789 4.78549 11.2571 4.75524 11.3299C4.72499 11.4028 4.68066 11.4691 4.62479 11.5248L4.21919 11.9292C3.43863 12.71 3.00009 13.7688 2.99999 14.8728V17.1C2.99999 17.2591 2.93677 17.4117 2.82425 17.5243C2.71173 17.6368 2.55912 17.7 2.39999 17.7C2.24086 17.7 2.08825 17.6368 1.97572 17.5243C1.8632 17.4117 1.79999 17.2591 1.79999 17.1V14.8728C1.80016 13.4505 2.36517 12.0866 3.37079 11.0808L3.77519 10.6752C3.83092 10.6193 3.89713 10.575 3.97003 10.5447C4.04292 10.5145 4.12107 10.4989 4.19999 10.4989C4.27891 10.4989 4.35705 10.5145 4.42995 10.5447C4.50284 10.575 4.56905 10.6193 4.62479 10.6752ZM18.7752 10.3152C18.7193 10.3709 18.675 10.4371 18.6447 10.51C18.6145 10.5829 18.5989 10.6611 18.5989 10.74C18.5989 10.8189 18.6145 10.8971 18.6447 10.9699C18.675 11.0428 18.7193 11.1091 18.7752 11.1648L19.1808 11.5692C19.9613 12.35 20.3999 13.4088 20.4 14.5128V17.1C20.4 17.2591 20.4632 17.4117 20.5757 17.5243C20.6882 17.6368 20.8409 17.7 21 17.7C21.1591 17.7 21.3117 17.6368 21.4243 17.5243C21.5368 17.4117 21.6 17.2591 21.6 17.1V14.5128C21.5998 13.0905 21.0348 11.7266 20.0292 10.7208L19.6248 10.3152C19.5691 10.2593 19.5028 10.215 19.4299 10.1847C19.3571 10.1545 19.2789 10.1389 19.2 10.1389C19.1211 10.1389 19.0429 10.1545 18.97 10.1847C18.8971 10.215 18.8309 10.2593 18.7752 10.3152Z" fill="#2563EB"/>
<path fill-rule="evenodd" clip-rule="evenodd" d="M16.8 10.8C16.1635 10.8 15.553 10.5471 15.103 10.097C14.6529 9.64696 14.4 9.03651 14.4 8.39999C14.4 7.76347 14.6529 7.15302 15.103 6.70293C15.553 6.25284 16.1635 5.99999 16.8 5.99999C17.4365 5.99999 18.047 6.25284 18.4971 6.70293C18.9472 7.15302 19.2 7.76347 19.2 8.39999C19.2 9.03651 18.9472 9.64696 18.4971 10.097C18.047 10.5471 17.4365 10.8 16.8 10.8ZM16.8 12C16.3273 12 15.8591 11.9069 15.4224 11.726C14.9856 11.545 14.5887 11.2799 14.2544 10.9456C13.9201 10.6113 13.655 10.2144 13.474 9.77765C13.2931 9.34088 13.2 8.87275 13.2 8.39999C13.2 7.92723 13.2931 7.4591 13.474 7.02233C13.655 6.58556 13.9201 6.18869 14.2544 5.8544C14.5887 5.52011 14.9856 5.25494 15.4224 5.07402C15.8591 4.8931 16.3273 4.79999 16.8 4.79999C17.7548 4.79999 18.6705 5.17927 19.3456 5.8544C20.0207 6.52953 20.4 7.44521 20.4 8.39999C20.4 9.35477 20.0207 10.2704 19.3456 10.9456C18.6705 11.6207 17.7548 12 16.8 12ZM11.4 15.9C10.6044 15.9 9.8413 16.2161 9.27869 16.7787C8.71608 17.3413 8.40001 18.1043 8.40001 18.9V20.46C8.40001 20.6191 8.3368 20.7717 8.22428 20.8843C8.11175 20.9968 7.95914 21.06 7.80001 21.06C7.64088 21.06 7.48827 20.9968 7.37575 20.8843C7.26323 20.7717 7.20001 20.6191 7.20001 20.46V18.9C7.20001 17.7861 7.64251 16.7178 8.43016 15.9301C9.21782 15.1425 10.2861 14.7 11.4 14.7C12.5139 14.7 13.5822 15.1425 14.3699 15.9301C15.1575 16.7178 15.6 17.7861 15.6 18.9V20.46C15.6 20.6191 15.5368 20.7717 15.4243 20.8843C15.3118 20.9968 15.1591 21.06 15 21.06C14.8409 21.06 14.6883 20.9968 14.5757 20.8843C14.4632 20.7717 14.4 20.6191 14.4 20.46V18.9C14.4 18.506 14.3224 18.1159 14.1717 17.7519C14.0209 17.388 13.7999 17.0572 13.5213 16.7787C13.2428 16.5001 12.912 16.2791 12.5481 16.1283C12.1841 15.9776 11.794 15.9 11.4 15.9Z" fill="#2563EB"/>
<path fill-rule="evenodd" clip-rule="evenodd" d="M11.4 14.1C12.0365 14.1 12.647 13.8471 13.097 13.397C13.5471 12.9469 13.8 12.3365 13.8 11.7C13.8 11.0635 13.5471 10.453 13.097 10.0029C12.647 9.55283 12.0365 9.29998 11.4 9.29998C10.7635 9.29998 10.153 9.55283 9.70293 10.0029C9.25284 10.453 8.99999 11.0635 8.99999 11.7C8.99999 12.3365 9.25284 12.9469 9.70293 13.397C10.153 13.8471 10.7635 14.1 11.4 14.1ZM11.4 15.3C12.3548 15.3 13.2704 14.9207 13.9456 14.2456C14.6207 13.5704 15 12.6548 15 11.7C15 10.7452 14.6207 9.82952 13.9456 9.15439C13.2704 8.47926 12.3548 8.09998 11.4 8.09998C10.4452 8.09998 9.52953 8.47926 8.8544 9.15439C8.17927 9.82952 7.79999 10.7452 7.79999 11.7C7.79999 12.6548 8.17927 13.5704 8.8544 14.2456C9.52953 14.9207 10.4452 15.3 11.4 15.3Z" fill="#2563EB"/>
</svg>
