<svg width="52" height="52" viewBox="0 0 52 52" fill="none" xmlns="http://www.w3.org/2000/svg">
<rect width="52" height="52" rx="26" fill="#F8F8F8"/>
<rect width="52" height="52" rx="16" fill="#F1F9F1"/>
<g clip-path="url(#clip0_96_88869)">
<path d="M24 33.5C24 34.33 23.33 35 22.5 35C21.67 35 21 34.33 21 33.5C21 32.67 21.67 32 22.5 32C23.33 32 24 32.67 24 33.5ZM26 30C23.79 30 22 28.21 22 26C22 23.79 23.79 22 26 22C28.21 22 30 23.79 30 26C30 28.21 28.21 30 26 30ZM28 26C28 24.9 27.1 24 26 24C24.9 24 24 24.9 24 26C24 27.1 24.9 28 26 28C27.1 28 28 27.1 28 26ZM38 17V23H34V38H18V23H14V17C14 15.35 15.35 14 17 14H35C36.65 14 38 15.35 38 17ZM36 21V17C36 16.45 35.55 16 35 16H17C16.45 16 16 16.45 16 17V21H18V18H20V36H32V18H34V21H36ZM29.5 32C28.67 32 28 32.67 28 33.5C28 34.33 28.67 35 29.5 35C30.33 35 31 34.33 31 33.5C31 32.67 30.33 32 29.5 32Z" fill="#2563EB"/>
</g>
<defs>
<clipPath id="clip0_96_88869">
<rect width="24" height="24" fill="white" transform="translate(14 14)"/>
</clipPath>
</defs>
</svg>
