<svg width="16" height="16" viewBox="0 0 16 16" fill="none" xmlns="http://www.w3.org/2000/svg">
<path d="M5.59012 7.64247C5.99773 7.64247 6.3962 7.5216 6.73512 7.29514C7.07404 7.06868 7.33819 6.74681 7.49418 6.37022C7.65017 5.99363 7.69098 5.57924 7.61146 5.17946C7.53194 4.77968 7.33565 4.41245 7.04743 4.12422C6.7592 3.83599 6.39197 3.63971 5.99219 3.56019C5.5924 3.48066 5.17802 3.52148 4.80143 3.67747C4.42484 3.83345 4.10297 4.09761 3.87651 4.43653C3.65005 4.77545 3.52917 5.17391 3.52917 5.58153C3.52972 6.12796 3.74703 6.65185 4.13341 7.03823C4.5198 7.42462 5.04369 7.64193 5.59012 7.64247ZM5.59012 4.89455C5.72599 4.89455 5.85881 4.93484 5.97178 5.01033C6.08476 5.08581 6.17281 5.1931 6.22481 5.31863C6.2768 5.44416 6.29041 5.58229 6.2639 5.71555C6.23739 5.84881 6.17196 5.97122 6.07589 6.0673C5.97981 6.16338 5.8574 6.2288 5.72414 6.25531C5.59088 6.28182 5.45275 6.26821 5.32722 6.21622C5.20169 6.16422 5.0944 6.07617 5.01891 5.9632C4.94343 5.85022 4.90314 5.7174 4.90314 5.58153C4.90314 5.39933 4.97551 5.22459 5.10435 5.09576C5.23318 4.96693 5.40792 4.89455 5.59012 4.89455ZM11.4185 9.34894C11.0109 9.34894 10.6124 9.46981 10.2735 9.69627C9.93455 9.92273 9.67039 10.2446 9.5144 10.6212C9.35842 10.9978 9.3176 11.4122 9.39713 11.812C9.47665 12.2117 9.67293 12.579 9.96116 12.8672C10.2494 13.1554 10.6166 13.3517 11.0164 13.4312C11.4162 13.5107 11.8306 13.4699 12.2072 13.3139C12.5837 13.158 12.9056 12.8938 13.1321 12.5549C13.3585 12.216 13.4794 11.8175 13.4794 11.4099C13.4789 10.8635 13.2616 10.3396 12.8752 9.95318C12.4888 9.56679 11.9649 9.34948 11.4185 9.34894ZM11.4185 12.0969C11.2826 12.0969 11.1498 12.0566 11.0368 11.9811C10.9238 11.9056 10.8358 11.7983 10.7838 11.6728C10.7318 11.5472 10.7182 11.4091 10.7447 11.2759C10.7712 11.1426 10.8366 11.0202 10.9327 10.9241C11.0288 10.828 11.1512 10.7626 11.2844 10.7361C11.4177 10.7096 11.5558 10.7232 11.6814 10.7752C11.8069 10.8272 11.9142 10.9152 11.9897 11.0282C12.0652 11.1412 12.1055 11.274 12.1055 11.4099C12.1055 11.5921 12.0331 11.7668 11.9042 11.8956C11.7754 12.0245 11.6007 12.0969 11.4185 12.0969ZM13.7989 3.20114C13.67 3.07235 13.4953 3 13.3132 3C13.131 3 12.9563 3.07235 12.8275 3.20114L3.20973 12.8189C3.14411 12.8823 3.09178 12.9581 3.05577 13.0419C3.01977 13.1257 3.00082 13.2158 3.00003 13.307C2.99923 13.3983 3.01661 13.4887 3.05116 13.5732C3.0857 13.6576 3.13671 13.7343 3.20121 13.7988C3.26571 13.8633 3.34242 13.9143 3.42685 13.9488C3.51127 13.9834 3.60173 14.0008 3.69295 14C3.78417 13.9992 3.87431 13.9802 3.95813 13.9442C4.04194 13.9082 4.11775 13.8559 4.18112 13.7903L13.7989 4.17253C13.9276 4.0437 14 3.869 14 3.68683C14 3.50467 13.9276 3.32997 13.7989 3.20114Z" fill="#333333"/>
</svg>
