<svg width="52" height="52" viewBox="0 0 52 52" fill="none" xmlns="http://www.w3.org/2000/svg">
<rect width="52" height="52" rx="26" fill="#F8F8F8"/>
<rect width="52" height="52" rx="16" fill="#F1F8F9"/>
<path d="M31 22C31.256 22 31.512 21.902 31.707 21.707L32.631 20.783C33.02 20.924 33.473 21 34 21C35.99 21 37 19.991 37 18C37 16.009 35.99 15 34 15C32.01 15 31 16.009 31 18C31 18.527 31.076 18.98 31.217 19.369L30.293 20.293C29.902 20.684 29.902 21.316 30.293 21.707C30.488 21.902 30.744 22 31 22ZM34 17C34.879 17 35 17.122 35 18C35 18.878 34.879 19 34 19C33.121 19 33 18.878 33 18C33 17.122 33.121 17 34 17ZM34 31C33.473 31 33.02 31.076 32.631 31.217L31.707 30.293C31.316 29.902 30.684 29.902 30.293 30.293C29.902 30.684 29.902 31.316 30.293 31.707L31.217 32.631C31.076 33.02 31 33.473 31 34C31 35.991 32.01 37 34 37C35.99 37 37 35.991 37 34C37 32.009 35.99 31 34 31ZM34 35C33.121 35 33 34.878 33 34C33 33.122 33.121 33 34 33C34.879 33 35 33.122 35 34C35 34.878 34.879 35 34 35ZM29.141 27.898C29.141 29.279 28.239 30.44 27 30.854V31.026C27 31.578 26.553 32.026 26 32.026C25.447 32.026 25 31.578 25 31.026V30.859C24.044 30.545 23.248 29.808 22.915 28.856C22.733 28.335 23.008 27.764 23.529 27.582C24.051 27.401 24.621 27.675 24.803 28.196C24.968 28.669 25.493 29.026 26.025 29.026C26.64 29.026 27.14 28.52 27.14 27.898C27.145 27.204 26.52 26.695 25.844 26.774C24.327 26.683 23.14 25.422 23.14 23.902C23.14 22.671 23.922 21.626 25.012 21.217V21.026C25.012 20.474 25.459 20.026 26.012 20.026C26.565 20.026 27.012 20.474 27.012 21.026V21.211C27.797 21.502 28.439 22.124 28.729 22.943C28.914 23.464 28.641 24.035 28.12 24.219C27.602 24.405 27.028 24.13 26.845 23.61C26.721 23.26 26.389 23.026 26.018 23.026C25.535 23.026 25.141 23.419 25.141 23.902C25.141 24.35 25.479 24.724 25.918 24.774C25.921 24.774 25.959 24.771 25.962 24.772C27.739 24.772 29.141 26.174 29.141 27.898ZM20.783 19.369C20.924 18.98 21 18.527 21 18C21 16.009 19.99 15 18 15C16.01 15 15 16.009 15 18C15 19.991 16.01 21 18 21C18.527 21 18.98 20.924 19.369 20.783L20.293 21.707C20.684 22.098 21.316 22.098 21.707 21.707C22.098 21.316 22.098 20.684 21.707 20.293L20.783 19.369ZM18 19C17.121 19 17 18.878 17 18C17 17.122 17.121 17 18 17C18.879 17 19 17.122 19 18C19 18.878 18.879 19 18 19ZM20.293 30.293L19.369 31.217C18.98 31.076 18.527 31 18 31C16.01 31 15 32.009 15 34C15 35.991 16.01 37 18 37C19.99 37 21 35.991 21 34C21 33.473 20.924 33.02 20.783 32.631L21.707 31.707C22.098 31.316 22.098 30.684 21.707 30.293C21.316 29.902 20.684 29.902 20.293 30.293ZM18 35C17.121 35 17 34.878 17 34C17 33.122 17.121 33 18 33C18.879 33 19 33.122 19 34C19 34.878 18.879 35 18 35Z" fill="#2563EB"/>
</svg>
