<svg width="20" height="20" viewBox="0 0 20 20" fill="none" xmlns="http://www.w3.org/2000/svg">
<path fill-rule="evenodd" clip-rule="evenodd" d="M0 4.975C0 4.71641 0.098772 4.46842 0.274587 4.28557C0.450403 4.10272 0.68886 4 0.9375 4H19.0625C19.3111 4 19.5496 4.10272 19.7254 4.28557C19.9012 4.46842 20 4.71641 20 4.975C20 5.23359 19.9012 5.48158 19.7254 5.66443C19.5496 5.84728 19.3111 5.95 19.0625 5.95H0.9375C0.68886 5.95 0.450403 5.84728 0.274587 5.66443C0.098772 5.48158 0 5.23359 0 4.975ZM0 10.5C0 10.2414 0.098772 9.99342 0.274587 9.81057C0.450403 9.62772 0.68886 9.525 0.9375 9.525H19.0625C19.3111 9.525 19.5496 9.62772 19.7254 9.81057C19.9012 9.99342 20 10.2414 20 10.5C20 10.7586 19.9012 11.0066 19.7254 11.1894C19.5496 11.3723 19.3111 11.475 19.0625 11.475H0.9375C0.68886 11.475 0.450403 11.3723 0.274587 11.1894C0.098772 11.0066 0 10.7586 0 10.5ZM0.9375 15.05C0.68886 15.05 0.450403 15.1527 0.274587 15.3356C0.098772 15.5184 0 15.7664 0 16.025C0 16.2836 0.098772 16.5316 0.274587 16.7144C0.450403 16.8973 0.68886 17 0.9375 17H19.0625C19.3111 17 19.5496 16.8973 19.7254 16.7144C19.9012 16.5316 20 16.2836 20 16.025C20 15.7664 19.9012 15.5184 19.7254 15.3356C19.5496 15.1527 19.3111 15.05 19.0625 15.05H0.9375Z" fill="#404040"/>
</svg>
