<svg width="52" height="52" viewBox="0 0 52 52" fill="none" xmlns="http://www.w3.org/2000/svg">
<rect width="52" height="52" rx="26" fill="#F8F8F8"/>
<rect width="52" height="52" rx="16" fill="#F1F8F9"/>
<g clip-path="url(#clip0_96_88865)">
<path d="M36.999 32H34.0012C32.8852 32 31.8133 31.529 31.0573 30.708L28.2534 27.661C27.8874 27.252 27.9214 26.621 28.3304 26.255C28.6984 25.927 29.2584 25.918 29.5854 26.189L32.3062 28.805C32.7032 29.188 33.3372 29.177 33.7202 28.777C34.1032 28.379 34.0912 27.746 33.6922 27.363L30.9213 24.702C30.3683 24.238 29.6833 24.007 28.9994 24.007V23.001C28.9994 22.659 28.9644 22.324 28.8984 22.001H31.8263C32.9932 22.001 34.1302 22.413 35.0271 23.16L36.3581 24.269C36.5451 24.425 36.7721 24.501 36.998 24.501C37.285 24.501 37.569 24.378 37.767 24.141C38.121 23.717 38.063 23.086 37.639 22.733L36.3081 21.623C35.0521 20.577 33.4602 20.001 31.8273 20.001H27.9974C27.0845 18.787 25.6325 18.001 24.0006 18.001H22.0007C21.9997 15.794 20.2057 14 17.9998 14C15.7939 14 14 15.794 14 18V34C14 36.206 15.7939 38 17.9998 38C20.2057 38 21.9997 36.206 21.9997 34H23.9996C26.0535 34 27.8214 32.755 28.5904 30.98L29.5864 32.062C30.7193 33.294 32.3282 34 34.0022 34H37C37.552 34 38 33.552 38 33C38 32.448 37.551 32 36.999 32ZM17.9998 16C19.1028 16 19.9998 16.897 19.9998 18H15.9999C15.9999 16.897 16.8969 16 17.9998 16ZM15.9999 24C17.1029 24 17.9998 24.897 17.9998 26C17.9998 27.103 17.1029 28 15.9999 28V24ZM17.9998 36C16.8969 36 15.9999 35.103 15.9999 34H19.9998C19.9998 35.103 19.1028 36 17.9998 36ZM23.9996 32H15.9999V30C18.2058 30 19.9998 28.206 19.9998 26C19.9998 23.794 18.2058 22 15.9999 22V20H23.9996C25.6535 20 26.9995 21.346 26.9995 23V24.762C26.9995 24.762 26.9975 24.764 26.9965 24.765C25.7665 25.867 25.6625 27.765 26.7735 29.006L26.9895 29.241C26.8665 30.783 25.5735 32 23.9996 32ZM24.9995 23.5C24.9995 24.328 24.3276 25 23.4996 25C22.6716 25 21.9997 24.328 21.9997 23.5C21.9997 22.672 22.6716 22 23.4996 22C24.3276 22 24.9995 22.672 24.9995 23.5ZM24.9995 28.5C24.9995 29.328 24.3276 30 23.4996 30C22.6716 30 21.9997 29.328 21.9997 28.5C21.9997 27.672 22.6716 27 23.4996 27C24.3276 27 24.9995 27.672 24.9995 28.5Z" fill="#2563EB"/>
</g>
<defs>
<clipPath id="clip0_96_88865">
<rect width="24" height="24" fill="white" transform="translate(14 14)"/>
</clipPath>
</defs>
</svg>
