<svg width="24" height="24" viewBox="0 0 24 24" fill="none" xmlns="http://www.w3.org/2000/svg">
<path d="M9.854 9.85401L9.5 9.50001M14.504 14.504L14.15 14.15M9.5 14.5L14.5 9.50001M20.5 15.8V8.20001C20.4995 7.86735 20.4122 7.54059 20.2466 7.25206C20.081 6.96354 19.843 6.72326 19.556 6.55501L12.944 2.75501C12.6573 2.58852 12.3316 2.50082 12 2.50082C11.6684 2.50082 11.3427 2.58852 11.056 2.75501L4.444 6.55501C4.15635 6.72249 3.91774 6.9626 3.75207 7.2513C3.58639 7.54 3.49947 7.86715 3.5 8.20001V15.802C3.50065 16.1345 3.58808 16.4611 3.75364 16.7494C3.91921 17.0377 4.15717 17.2779 4.444 17.446L11.056 21.246C11.3427 21.4125 11.6684 21.5002 12 21.5002C12.3316 21.5002 12.6573 21.4125 12.944 21.246L19.556 17.446C19.8438 17.2784 20.0825 17.0382 20.2482 16.7493C20.4139 16.4604 20.5007 16.133 20.5 15.8Z" stroke="#404040" stroke-width="1.5" stroke-linecap="round" stroke-linejoin="round"/>
</svg>
