<svg width="25" height="25" viewBox="0 0 25 25" fill="none" xmlns="http://www.w3.org/2000/svg">
<path fill-rule="evenodd" clip-rule="evenodd" d="M6.75743 17.0962C5.91549 16.1815 5.34444 15.0242 5.11511 13.7674C4.88388 12.5072 5.00262 11.2026 5.45681 10.013C5.90713 8.83008 6.67593 7.81507 7.66669 7.09545C9.67686 5.63485 12.3232 5.63485 14.3333 7.09545C15.3241 7.81507 16.0929 8.83008 16.5431 10.013C16.9974 11.2026 17.1162 12.5072 16.8848 13.7674C16.6556 15.0242 16.0845 16.1815 15.2425 17.0962C14.1276 18.3134 12.5977 19 11 19C9.40233 19 7.87244 18.3134 6.75743 17.0962Z" stroke="#333333" stroke-linecap="round" stroke-linejoin="round"/>
<path d="M19.0986 19.6748L18.7539 20.043L16.1455 17.2725L16.4902 16.9053L19.0986 19.6748ZM12.2041 8.5127C12.9754 8.58721 13.6851 9.03514 14.1182 9.74609L13.6689 9.94824C13.3345 9.47372 12.8277 9.15188 12.2598 9.07129L12.2041 8.5127Z" fill="#333333" stroke="#333333"/>
</svg>
