<svg width="52" height="52" viewBox="0 0 52 52" fill="none" xmlns="http://www.w3.org/2000/svg">
<rect width="52" height="52" rx="26" fill="#F8F8F8"/>
<rect width="52" height="52" rx="16" fill="#F9F5F1"/>
<path d="M35 20H19C18.141 20 17.328 19.628 16.765 19.001C17.315 18.387 18.114 18 19 18H37C37.553 18 38 17.552 38 17C38 16.448 37.553 16 37 16H19C16.239 16 14 18.239 14 21V31C14 33.761 16.239 36 19 36H35C36.657 36 38 34.657 38 33V23C38 21.343 36.657 20 35 20ZM36 33C36 33.551 35.552 34 35 34H19C17.346 34 16 32.654 16 31V20.998C16.854 21.637 17.904 22 19 22H35C35.552 22 36 22.449 36 23V33ZM34 28C34 28.552 33.552 29 33 29C32.448 29 32 28.552 32 28C32 27.448 32.448 27 33 27C33.552 27 34 27.448 34 28Z" fill="#2563EB"/>
</svg>
