<svg width="12" height="12" viewBox="0 0 12 12" fill="none" xmlns="http://www.w3.org/2000/svg">
<g clip-path="url(#clip0_413_7198)">
<path d="M5.8125 6.375H1.6875C1.37738 6.375 1.125 6.12262 1.125 5.8125V3.1875H9.75V5.8125C9.75 6.06056 10.125 6.06075 10.125 5.8125V1.6875C10.125 1.17056 9.70444 0.75 9.1875 0.75H1.6875C1.17056 0.75 0.75 1.17056 0.75 1.6875V5.8125C0.75 6.32944 1.17056 6.75 1.6875 6.75H5.8125C6.06038 6.75 6.06075 6.375 5.8125 6.375ZM1.125 2.8125V2.25H9.75V2.8125H1.125ZM1.6875 1.125H9.1875C9.49763 1.125 9.75 1.37738 9.75 1.6875V1.875H1.125V1.6875C1.125 1.37738 1.37738 1.125 1.6875 1.125Z" fill="#2563EB"/>
<path d="M2.0625 3.75C1.959 3.75 1.875 3.834 1.875 3.9375V5.0625C1.875 5.166 1.959 5.25 2.0625 5.25H3.5625C3.666 5.25 3.75 5.166 3.75 5.0625V3.9375C3.75 3.834 3.666 3.75 3.5625 3.75H2.0625ZM3.375 4.875H2.25V4.125H3.375V4.875Z" fill="#2563EB"/>
<path d="M9 4.3125V3.9375C9 3.834 8.91619 3.75 8.8125 3.75H4.5C4.3965 3.75 4.3125 3.834 4.3125 3.9375V5.0625C4.3125 5.166 4.3965 5.25 4.5 5.25H7.5C7.74825 5.25 7.74787 4.875 7.5 4.875H4.6875V4.125H8.625V4.3125C8.625 4.56056 9 4.56075 9 4.3125Z" fill="#2563EB"/>
<path d="M11.1951 6.99244L10.4451 6.24244C10.2696 6.06694 10.0046 6.33225 10.18 6.50756L10.4224 6.75L10.2088 6.96356C9.82708 6.636 9.34352 6.42525 8.81252 6.38456V6.16088C9.13502 6.07706 9.37502 5.78587 9.37502 5.4375C9.37502 5.02387 9.03865 4.6875 8.62502 4.6875C8.2114 4.6875 7.87502 5.02387 7.87502 5.4375C7.87502 5.78587 8.11483 6.07706 8.43752 6.16088V6.38456C7.90633 6.42525 7.42296 6.636 7.04121 6.96356L6.82765 6.75L7.07008 6.50756C7.24558 6.33206 6.98027 6.06712 6.80496 6.24244L6.05496 6.99244C5.87908 7.16831 6.14665 7.43081 6.32008 7.25756L6.56252 7.01513L6.7759 7.22869C6.41008 7.65506 6.18752 8.20781 6.18752 8.8125C6.18752 10.1565 7.28102 11.25 8.62502 11.25C9.96902 11.25 11.0625 10.1565 11.0625 8.8125C11.0625 8.20781 10.84 7.65506 10.474 7.22869L10.6875 7.01513L10.93 7.25756C11.1028 7.43044 11.3728 7.17019 11.1951 6.99244ZM8.25002 5.4375C8.25002 5.23069 8.41821 5.0625 8.62502 5.0625C8.83165 5.0625 9.00002 5.23069 9.00002 5.4375C9.00002 5.64431 8.83165 5.8125 8.62502 5.8125C8.41821 5.8125 8.25002 5.64431 8.25002 5.4375ZM8.62502 10.875C7.48783 10.875 6.56252 9.94969 6.56252 8.8125C6.56252 7.67531 7.48783 6.75 8.62502 6.75C9.76221 6.75 10.6875 7.67531 10.6875 8.8125C10.6875 9.94969 9.76221 10.875 8.62502 10.875Z" fill="#2563EB"/>
<path d="M9.5625 8.62496H8.8125V7.31246C8.8125 7.0644 8.4375 7.06421 8.4375 7.31246V8.81246C8.4375 8.91596 8.52131 8.99996 8.625 8.99996H9.5625C9.81075 8.99996 9.81037 8.62496 9.5625 8.62496Z" fill="#2563EB"/>
<path d="M5.57007 8.30498L4.82007 7.55498C4.74676 7.48167 4.62826 7.48167 4.55495 7.55498C4.48164 7.6283 4.48164 7.7468 4.55495 7.82011L4.98489 8.25005H3.18751C2.93964 8.25005 2.93926 8.62505 3.18751 8.62505H4.98489L4.55495 9.05498C4.3772 9.23273 4.6472 9.49298 4.82007 9.32011L5.57007 8.57011C5.64282 8.49736 5.64282 8.37773 5.57007 8.30498Z" fill="#2563EB"/>
<path d="M2.43751 8.625C2.68539 8.625 2.68576 8.25 2.43751 8.25H2.25001C2.00214 8.25 2.00176 8.625 2.25001 8.625H2.43751Z" fill="#2563EB"/>
<path d="M1.31251 8.625H1.50001C1.74789 8.625 1.74826 8.25 1.50001 8.25H1.31251C1.06464 8.25 1.06426 8.625 1.31251 8.625Z" fill="#2563EB"/>
<path d="M3.5625 9.93754H1.76513L2.19506 9.50761C2.37056 9.33211 2.10525 9.06717 1.92994 9.24248L1.17994 9.99248C1.10663 10.0656 1.10756 10.1854 1.17994 10.2578L1.92994 11.0078C2.10281 11.1807 2.37281 10.9204 2.19506 10.7427L1.76513 10.3125H3.5625C3.81038 10.3125 3.81075 9.93754 3.5625 9.93754Z" fill="#2563EB"/>
<path d="M4.50001 9.9375H4.31251C4.06464 9.9375 4.06426 10.3125 4.31251 10.3125H4.50001C4.74789 10.3125 4.74826 9.9375 4.50001 9.9375Z" fill="#2563EB"/>
<path d="M5.43751 9.9375H5.25001C5.00214 9.9375 5.00176 10.3125 5.25001 10.3125H5.43751C5.68539 10.3125 5.68576 9.9375 5.43751 9.9375Z" fill="#2563EB"/>
<path d="M8.4375 10.3125V10.5C8.4375 10.748 8.8125 10.7482 8.8125 10.5V10.3125C8.8125 10.0644 8.4375 10.0642 8.4375 10.3125Z" fill="#2563EB"/>
<path d="M7.12479 8.625H6.9371C6.68923 8.62519 6.68923 9 6.93729 9H7.12498C7.37285 8.99962 7.37285 8.625 7.12479 8.625Z" fill="#2563EB"/>
<path d="M10.1248 9H10.3123C10.5602 9 10.5606 8.625 10.3123 8.625H10.1248C9.87658 8.625 9.87695 9 10.1248 9Z" fill="#2563EB"/>
</g>
<defs>
<clipPath id="clip0_413_7198">
<rect width="12" height="12" fill="white"/>
</clipPath>
</defs>
</svg>
