<svg width="12" height="12" viewBox="0 0 12 12" fill="none" xmlns="http://www.w3.org/2000/svg">
<path d="M2.75647 8.25006C2.74521 8.24805 2.72241 8.24713 2.71097 8.24713C2.70758 8.2464 2.70401 8.24585 2.70044 8.2453C2.68414 8.24072 2.66803 8.22534 2.66803 8.20337C2.66803 8.18835 2.67508 8.17828 2.68158 8.17169C2.68909 8.16418 2.70007 8.15979 2.7117 8.15979H2.86148C2.96503 8.15979 3.04898 8.07593 3.04898 7.97229C3.04898 7.88204 2.98401 7.81034 2.8992 7.7924V7.77637C2.8992 7.67273 2.81525 7.58887 2.7117 7.58887C2.60815 7.58887 2.5242 7.67273 2.5242 7.77637V7.83114C2.48435 7.85111 2.4469 7.87572 2.41553 7.90747C2.33652 7.98657 2.29303 8.09167 2.29303 8.20337C2.29303 8.40643 2.43832 8.57983 2.63846 8.61536C2.64157 8.61591 2.64478 8.61646 2.64798 8.61682C2.66254 8.6192 2.67819 8.62085 2.69687 8.6214C2.71124 8.62762 2.7236 8.64191 2.7236 8.66187C2.7236 8.67377 2.71893 8.68457 2.71207 8.69171C2.70255 8.70087 2.69183 8.70563 2.68002 8.70563H2.46478C2.36124 8.70563 2.27728 8.78949 2.27728 8.89313C2.27728 8.99677 2.36124 9.08063 2.46478 9.08063H2.49648C2.50673 9.17457 2.58342 9.24854 2.68002 9.24854C2.78357 9.24854 2.86752 9.16467 2.86752 9.06104V9.0338C2.90676 9.01386 2.94416 8.98926 2.9772 8.95685C3.05548 8.8772 3.0986 8.77246 3.0986 8.66187C3.0986 8.46008 2.95468 8.28687 2.75647 8.25006Z" fill="#2563EB"/>
<path d="M5.02484 6.40253C5.3037 6.40253 5.53774 6.21774 5.61795 5.96509H6.22803C6.33157 5.96509 6.41553 5.88123 6.41553 5.77759C6.41553 5.67395 6.33157 5.59009 6.22803 5.59009H5.61795C5.55666 5.397 5.40544 5.24585 5.21234 5.18456V4.35852C5.21234 4.25488 5.12839 4.17102 5.02484 4.17102C4.9213 4.17102 4.83734 4.25488 4.83734 4.35852V5.18456C4.58469 5.26476 4.3999 5.49873 4.3999 5.77759C4.3999 6.12219 4.68024 6.40253 5.02484 6.40253ZM5.02484 5.52765C5.16272 5.52765 5.27487 5.63971 5.27487 5.77759C5.27487 5.91547 5.16272 6.02753 5.02484 6.02753C4.88705 6.02753 4.7749 5.91547 4.7749 5.77759C4.7749 5.63971 4.88705 5.52765 5.02484 5.52765Z" fill="#2563EB"/>
<path d="M10.4786 6.08503L10.2296 5.28943C10.1943 5.17664 10.1172 5.08453 10.0126 5.02979C9.90802 4.97485 9.78818 4.96405 9.67538 4.99957L8.77036 5.28303C8.52698 3.43091 6.94202 1.99536 5.0246 1.99536C2.93921 1.99536 1.24265 3.69183 1.24265 5.77722C1.24265 6.30589 1.35582 6.83288 1.56847 7.31127C1.27909 7.59684 1.09918 7.99306 1.09918 8.43079C1.09918 9.29871 1.80524 10.0048 2.67316 10.0048C3.17925 10.0048 3.62905 9.76369 3.91718 9.39145C4.2742 9.50068 4.64547 9.55927 5.0246 9.55927C5.85045 9.55927 6.61293 9.29009 7.23561 8.83911H10.4585C10.7024 8.83911 10.9008 8.64081 10.9008 8.39691V6.52521C10.9008 6.28819 10.713 6.09579 10.4786 6.08503ZM9.78754 5.35736C9.81042 5.35022 9.82947 5.35718 9.83871 5.36194C9.84796 5.3667 9.86444 5.37842 9.87167 5.40149L10.085 6.08301H8.79097C8.79912 5.98185 8.80646 5.88044 8.80646 5.77722C8.80646 5.73981 8.80193 5.70353 8.80084 5.66637L9.78754 5.35736ZM8.59219 7.02051H9.96332V7.90161H8.15123C8.33545 7.6313 8.48238 7.3346 8.59219 7.02051ZM2.67316 9.62976C2.01205 9.62976 1.47418 9.09198 1.47418 8.43079C1.47418 7.76959 2.01205 7.23181 2.67316 7.23181C3.33426 7.23181 3.87213 7.76959 3.87213 8.43079C3.87213 9.09198 3.33426 9.62976 2.67316 9.62976ZM2.57181 5.59009H2.18963C2.28267 4.17125 3.41848 3.03543 4.83737 2.94235V3.32452C4.83737 3.42816 4.92133 3.51202 5.02487 3.51202C5.12842 3.51202 5.21237 3.42816 5.21237 3.32452V2.94238C6.63102 3.03572 7.76644 4.17143 7.85947 5.59009H7.47803C7.37448 5.59009 7.29053 5.67395 7.29053 5.77759C7.29053 5.88123 7.37448 5.96509 7.47803 5.96509H7.85944C7.76609 7.38356 6.63078 8.51893 5.21237 8.61224V8.23065C5.21237 8.12701 5.12842 8.04315 5.02487 8.04315C4.92133 8.04315 4.83737 8.12701 4.83737 8.23065V8.61401C4.63577 8.60067 4.43717 8.56522 4.24316 8.50933C4.24446 8.48313 4.24713 8.4573 4.24713 8.43079C4.24713 7.56287 3.54108 6.85681 2.67316 6.85681C2.58275 6.85681 2.49465 6.86617 2.40836 6.88088C2.28409 6.59046 2.21112 6.28395 2.19055 5.96509H2.57181C2.67535 5.96509 2.75931 5.88123 2.75931 5.77759C2.75931 5.67395 2.67535 5.59009 2.57181 5.59009ZM4.11507 9.05983C4.14032 9.00216 4.16223 8.94279 4.18052 8.88177C4.45529 8.95697 4.73801 8.99677 5.0246 8.99677C6.7998 8.99677 8.24396 7.55243 8.24396 5.77722C8.24396 4.00201 6.7998 2.55786 5.0246 2.55786C3.24939 2.55786 1.80515 4.00201 1.80515 5.77722C1.80515 6.2001 1.88963 6.60534 2.04694 6.98751C1.98744 7.01344 1.93046 7.04375 1.87503 7.07654C1.70653 6.66809 1.61765 6.22332 1.61765 5.77722C1.61765 3.89874 3.14603 2.37036 5.0246 2.37036C6.90317 2.37036 8.43146 3.89874 8.43146 5.77722C8.43146 7.65588 6.90317 9.18427 5.0246 9.18427C4.71402 9.18427 4.40939 9.14118 4.11507 9.05983ZM10.5258 8.39691C10.5258 8.4339 10.4956 8.46411 10.4585 8.46411H7.68228C7.74277 8.40426 7.79899 8.34039 7.85536 8.27661H10.1508C10.2544 8.27661 10.3383 8.19275 10.3383 8.08911V6.83301C10.3383 6.72937 10.2544 6.64551 10.1508 6.64551H8.70189C8.71656 6.58345 8.73024 6.5212 8.7418 6.45801H10.4585C10.4956 6.45801 10.5258 6.48822 10.5258 6.52521V8.39691Z" fill="#2563EB"/>
</svg>
