<svg width="16" height="16" viewBox="0 0 16 16" fill="none" xmlns="http://www.w3.org/2000/svg">
<path d="M8.00002 8.00002C7.26669 8.00002 6.63891 7.73891 6.11669 7.21669C5.59447 6.69446 5.33335 6.06669 5.33335 5.33335C5.33335 4.60002 5.59447 3.97224 6.11669 3.45002C6.63891 2.9278 7.26669 2.66669 8.00002 2.66669C8.73335 2.66669 9.36113 2.9278 9.88335 3.45002C10.4056 3.97224 10.6667 4.60002 10.6667 5.33335C10.6667 6.06669 10.4056 6.69446 9.88335 7.21669C9.36113 7.73891 8.73335 8.00002 8.00002 8.00002ZM2.66669 13.3334V11.4667C2.66669 11.0889 2.76402 10.7418 2.95869 10.4254C3.15335 10.1089 3.41158 9.86713 3.73335 9.70002C4.42224 9.35558 5.12224 9.09735 5.83335 8.92535C6.54446 8.75335 7.26669 8.66713 8.00002 8.66669C8.73335 8.66624 9.45558 8.75246 10.1667 8.92535C10.8778 9.09824 11.5778 9.35647 12.2667 9.70002C12.5889 9.86669 12.8474 10.1085 13.042 10.4254C13.2367 10.7422 13.3338 11.0894 13.3334 11.4667V13.3334H2.66669ZM4.00002 12H12V11.4667C12 11.3445 11.9696 11.2334 11.9087 11.1334C11.8478 11.0334 11.7671 10.9556 11.6667 10.9C11.0667 10.6 10.4611 10.3751 9.85002 10.2254C9.23891 10.0756 8.62224 10.0005 8.00002 10C7.3778 9.99958 6.76113 10.0747 6.15002 10.2254C5.53891 10.376 4.93335 10.6009 4.33335 10.9C4.23335 10.9556 4.15269 11.0334 4.09135 11.1334C4.03002 11.2334 3.99958 11.3445 4.00002 11.4667V12ZM8.00002 6.66669C8.36669 6.66669 8.68069 6.53624 8.94202 6.27535C9.20335 6.01446 9.3338 5.70046 9.33335 5.33335C9.33291 4.96624 9.20247 4.65246 8.94202 4.39202C8.68158 4.13158 8.36758 4.00091 8.00002 4.00002C7.63246 3.99913 7.31869 4.1298 7.05869 4.39202C6.79869 4.65424 6.66802 4.96802 6.66669 5.33335C6.66535 5.69869 6.79602 6.01269 7.05869 6.27535C7.32135 6.53802 7.63513 6.66847 8.00002 6.66669Z" fill="#333333"/>
</svg>
