<svg width="12" height="12" viewBox="0 0 12 12" fill="none" xmlns="http://www.w3.org/2000/svg">
<path d="M10.6384 2.97503H8.84892C8.96004 2.83067 9.02508 2.65727 9.02508 2.47091C9.02508 1.89419 8.73108 1.56335 8.21844 1.56335C7.71468 1.56335 7.11336 2.11451 6.80676 2.62019C6.50016 2.11451 5.89884 1.56335 5.39508 1.56335C4.88244 1.56335 4.58844 1.89407 4.58844 2.47091C4.58844 2.65739 4.65348 2.83079 4.7646 2.97503H2.97504C2.86368 2.97503 2.77344 3.06527 2.77344 3.17663V4.38659C2.77344 4.49795 2.86368 4.58831 2.97504 4.58831H3.17676V6.01235C2.93928 6.03323 2.70528 6.09071 2.487 6.18743C2.38416 6.23183 2.33784 6.35087 2.38224 6.45371C2.3838 6.45707 2.38608 6.45995 2.38776 6.46319C2.43564 6.55499 2.553 6.59735 2.6484 6.55643C2.81592 6.48239 2.99484 6.43595 3.17676 6.41627C3.24372 6.40907 3.31104 6.40523 3.37848 6.40523C3.4458 6.40535 3.51312 6.40931 3.58008 6.41675C3.83388 6.44447 4.08192 6.52415 4.302 6.65531C4.85268 6.98195 5.19348 7.58099 5.19348 8.21831C5.19264 8.59091 5.07852 8.93795 4.88412 9.22667C4.83636 9.29759 4.78356 9.36491 4.72668 9.42827C4.66116 9.50111 4.58988 9.56843 4.51368 9.62999C4.2024 9.88115 3.8076 10.0325 3.3786 10.0333C2.38032 10.0313 1.56552 9.21647 1.5636 8.21831C1.5636 8.00051 1.60188 7.78679 1.67652 7.58303C1.71552 7.48331 1.66512 7.37111 1.5684 7.32923C1.56528 7.32803 1.56264 7.32611 1.55952 7.32491C1.45656 7.28663 1.33764 7.34111 1.29936 7.44191C1.2066 7.68995 1.16016 7.95203 1.16016 8.21831C1.16016 9.44039 2.1564 10.4366 3.3786 10.4366C4.0662 10.4366 4.68132 10.1222 5.08836 9.62999H6.80688H10.2352C10.3465 9.62999 10.4369 9.53975 10.4369 9.42827V6.20159V4.58831H10.6386C10.75 4.58831 10.8402 4.49807 10.8402 4.38659V3.17663C10.84 3.06527 10.7497 2.97503 10.6384 2.97503ZM10.4366 4.18499H10.2349H7.00836V3.37835H7.98312H10.4366V4.18499ZM10.0333 5.99999H7.00836V4.58831H10.0333V5.99999ZM10.0333 9.22667H7.00836V6.40331H10.0333V9.22667ZM5.59668 8.21831C5.59668 7.49603 5.2386 6.81563 4.65288 6.40331H6.60492V9.22667H5.3532C5.50848 8.92379 5.59668 8.58119 5.59668 8.21831ZM4.99164 2.47079C4.99164 2.02763 5.18556 1.96667 5.39496 1.96667C5.799 1.96667 6.35988 2.59319 6.54384 2.97503H5.63028C5.27808 2.97503 4.99164 2.74871 4.99164 2.47079ZM8.21832 1.96667C8.42772 1.96667 8.62164 2.02775 8.62164 2.47079C8.62164 2.74871 8.3352 2.97491 7.98312 2.97491H7.06944C7.2534 2.59319 7.81428 1.96667 8.21832 1.96667ZM3.17664 3.37835H5.63028H6.60492V4.18499H3.37836H3.17664V3.37835ZM3.57996 4.58831H6.60492V5.99999H3.57996V4.58831ZM7.815 8.82335H9.4284C9.53976 8.82335 9.63012 8.73311 9.63012 8.62163V7.00835C9.63012 6.89699 9.53988 6.80663 9.4284 6.80663H7.815C7.70364 6.80663 7.61328 6.89687 7.61328 7.00835V8.62163C7.61328 8.73299 7.70364 8.82335 7.815 8.82335ZM8.0166 7.20995H9.22668V8.42003H8.0166V7.20995ZM1.77312 6.98003C1.73484 6.94367 1.71264 6.89327 1.7106 6.83891C1.7106 6.78443 1.72872 6.73403 1.767 6.69575C1.8396 6.61715 1.97268 6.61307 2.0514 6.68759C2.0538 6.68999 2.05572 6.69287 2.058 6.69527C2.09184 6.73091 2.112 6.77783 2.11392 6.82883C2.11596 6.88115 2.09568 6.93359 2.05944 6.97199C2.02116 7.01243 1.96872 7.03451 1.9122 7.03451C1.86528 7.03451 1.81884 7.01819 1.78176 6.98675C1.779 6.98435 1.77576 6.98255 1.77312 6.98003ZM3.37836 9.62999C3.64284 9.62999 3.8898 9.55547 4.10172 9.42827C4.197 9.37115 4.28544 9.30383 4.3644 9.22667C4.6266 8.97023 4.78992 8.61323 4.78992 8.21831C4.78992 7.50851 4.26288 6.92111 3.57996 6.82271C3.51384 6.81323 3.447 6.80663 3.37836 6.80663C3.30972 6.80663 3.24276 6.81323 3.17664 6.82271C2.49372 6.92111 1.96668 7.50851 1.96668 8.21831C1.96668 8.99675 2.60004 9.62999 3.37836 9.62999ZM3.17664 7.23035C3.2418 7.21703 3.30924 7.21007 3.37836 7.21007C3.44736 7.21007 3.5148 7.21715 3.57996 7.23035C4.03968 7.32407 4.3866 7.73135 4.3866 8.21831C4.3866 8.70515 4.03968 9.11255 3.57996 9.20627C3.5148 9.21959 3.44736 9.22667 3.37836 9.22667C3.30924 9.22667 3.24192 9.21959 3.17664 9.20627C2.71692 9.11255 2.37 8.70515 2.37 8.21831C2.37 7.73135 2.71704 7.32407 3.17664 7.23035ZM2.98092 7.81499C2.98092 7.70567 3.06804 7.61711 3.17664 7.61387C3.17856 7.61387 3.18048 7.61327 3.18252 7.61327H3.37824H3.57984H3.58572C3.65352 7.61327 3.71688 7.64735 3.75408 7.70411C3.7914 7.76075 3.79776 7.83227 3.77088 7.89467L3.57972 8.33915L3.42408 8.70131C3.41304 8.72699 3.39708 8.74883 3.37812 8.76695C3.34068 8.80283 3.29064 8.82335 3.23868 8.82347C3.21792 8.82347 3.19692 8.81915 3.1764 8.81231C3.17064 8.81039 3.16488 8.80931 3.15912 8.80679C3.05676 8.76287 3.0096 8.64419 3.05364 8.54195L3.1764 8.25623L3.27936 8.01659H3.18228C3.18024 8.01659 3.17832 8.01611 3.1764 8.01599C3.06816 8.01287 2.98092 7.92431 2.98092 7.81499Z" fill="#2563EB"/>
</svg>
