<svg width="12" height="12" viewBox="0 0 12 12" fill="none" xmlns="http://www.w3.org/2000/svg">
<g clip-path="url(#clip0_413_7054)">
<path fill-rule="evenodd" clip-rule="evenodd" d="M10.2285 10.3971C9.72935 10.3971 9.32865 9.99643 9.32865 9.4973C9.32865 8.99818 9.72935 8.59045 10.2285 8.59045C10.7276 8.59045 11.1353 8.99818 11.1353 9.4973C11.1353 9.99643 10.7276 10.3971 10.2285 10.3971ZM10.9385 11.0509H1.06151C0.478032 11.0509 0 10.5729 0 9.9894V3.83122V2.56585C0 1.98237 0.478032 1.50433 1.06151 1.50433H2.21441V1.13878C2.21441 1.03333 2.29877 0.948975 2.40422 0.948975C2.50967 0.948975 2.59402 1.03333 2.59402 1.13878V1.50433H4.6116V1.13878C4.6116 1.03333 4.69596 0.948975 4.80141 0.948975C4.90685 0.948975 4.99121 1.03333 4.99121 1.13878V1.50433H7.00879V1.13878C7.00879 1.03333 7.09315 0.948975 7.19859 0.948975C7.30404 0.948975 7.38137 1.03333 7.38137 1.13878V1.50433H9.40598V1.13878C9.40598 1.03333 9.49033 0.948975 9.59578 0.948975C9.6942 0.948975 9.77856 1.03333 9.77856 1.13878V1.50433H10.9385C11.522 1.50433 12 1.98237 12 2.56585V9.9894C12 10.5729 11.522 11.0509 10.9385 11.0509ZM1.06151 1.87692C0.681898 1.87692 0.372583 2.18623 0.372583 2.56585V3.64845H11.6204V2.56585C11.6204 2.18623 11.3181 1.87692 10.9385 1.87692H9.77856V2.2495C9.77856 2.34792 9.6942 2.43228 9.59578 2.43228C9.49033 2.43228 9.40598 2.34792 9.40598 2.2495V1.87692H7.38137V2.2495C7.38137 2.34792 7.30404 2.43228 7.19859 2.43228C7.09315 2.43228 7.00879 2.34792 7.00879 2.2495V1.87692H4.99121V2.2495C4.99121 2.34792 4.90685 2.43228 4.80141 2.43228C4.69596 2.43228 4.6116 2.34792 4.6116 2.2495V1.87692H2.59402V2.2495C2.59402 2.34792 2.50967 2.43228 2.40422 2.43228C2.29877 2.43228 2.21441 2.34792 2.21441 2.2495V1.87692H1.06151ZM0.372583 4.02103V9.9894C0.372583 10.369 0.681898 10.6713 1.06151 10.6713H10.9385C11.3181 10.6713 11.6204 10.369 11.6204 9.9894V4.02103H0.372583ZM9.8348 3.20557H2.1652C2.05975 3.20557 1.9754 3.12121 1.9754 3.01576C1.9754 2.91031 2.05975 2.82595 2.1652 2.82595H9.8348C9.94025 2.82595 10.0246 2.91031 10.0246 3.01576C10.0246 3.12121 9.94025 3.20557 9.8348 3.20557ZM5.99649 10.1511C5.25132 10.1511 4.54833 9.86286 4.01406 9.32859C3.48682 8.80135 3.19156 8.09836 3.19156 7.34616C3.19156 6.601 3.48682 5.89098 4.01406 5.36374C4.54833 4.8365 5.25132 4.54124 5.99649 4.54124C6.74868 4.54124 7.45167 4.8365 7.97891 5.36374C8.51318 5.89098 8.80141 6.601 8.80141 7.34616C8.80141 8.09836 8.51318 8.80135 7.97891 9.32859C7.45167 9.86286 6.74868 10.1511 5.99649 10.1511ZM5.99649 4.92086C5.34974 4.92086 4.73814 5.17393 4.2812 5.63087C3.82425 6.08781 3.57118 6.69941 3.57118 7.34616C3.57118 7.99291 3.82425 8.60451 4.2812 9.06848C4.73814 9.52542 5.34974 9.7785 5.99649 9.7785C6.65026 9.7785 7.25483 9.52542 7.7188 9.06848C8.17575 8.60451 8.42882 7.99291 8.42882 7.34616C8.42882 6.69941 8.17575 6.08781 7.7188 5.63087C7.25483 5.17393 6.65026 4.92086 5.99649 4.92086ZM5.79965 8.4147C5.56063 8.35847 5.3638 8.19678 5.28647 7.97182C5.25835 7.8734 5.30756 7.76796 5.40598 7.73281C5.50439 7.70469 5.60984 7.7539 5.64499 7.85231C5.68014 7.97182 5.82777 8.05618 5.98243 8.05618H5.98946H5.99649C6.0246 8.05618 6.05975 8.05618 6.08787 8.04915C6.19332 8.02103 6.27768 7.96479 6.31986 7.89449C6.33392 7.85934 6.35501 7.8031 6.33392 7.73984C6.29174 7.59221 6.20035 7.57112 5.96837 7.53597C5.74341 7.49379 5.42706 7.44458 5.30756 7.072C5.25835 6.91734 5.27241 6.75565 5.35677 6.61506C5.44815 6.45337 5.60984 6.34089 5.79965 6.29168V6.20732C5.79965 6.10187 5.88401 6.01752 5.98946 6.01752C6.0949 6.01752 6.17926 6.10187 6.17926 6.20732V6.27762C6.42531 6.32683 6.6362 6.49555 6.71353 6.72753C6.74165 6.82595 6.68541 6.9314 6.58699 6.95952C6.48858 6.99467 6.38313 6.93843 6.35501 6.84001C6.3058 6.69238 6.10193 6.60803 5.9051 6.6502C5.80668 6.67129 5.72232 6.72753 5.68014 6.79783C5.65905 6.83298 5.63796 6.88922 5.66608 6.95952C5.70826 7.10012 5.79262 7.12824 6.03163 7.16339C6.25659 7.19854 6.57294 7.24774 6.69244 7.62033C6.74165 7.77499 6.72056 7.93667 6.64323 8.0843C6.55185 8.24599 6.3761 8.36549 6.17926 8.40767V8.485C6.17926 8.59045 6.0949 8.67481 5.98946 8.67481C5.88401 8.67481 5.79965 8.59045 5.79965 8.485V8.4147ZM5.51142 9.34968C5.49736 9.34968 5.47627 9.34968 5.46221 9.34265C4.92794 9.20205 4.48506 8.85759 4.20387 8.37955C3.9297 7.90152 3.8594 7.34616 4 6.81189C4.02812 6.71347 4.12654 6.6502 4.23199 6.67832C4.3304 6.70644 4.38664 6.81189 4.36555 6.91031C4.24605 7.34616 4.30228 7.8031 4.53427 8.19678C4.75923 8.58342 5.12478 8.86462 5.56063 8.98412C5.65905 9.01224 5.72232 9.11066 5.6942 9.21611C5.67311 9.30047 5.59578 9.34968 5.51142 9.34968ZM7.81722 8.02103C7.80316 8.02103 7.78207 8.02103 7.76801 8.014C7.6696 7.98588 7.60633 7.88746 7.63445 7.78904C7.75395 7.34616 7.69069 6.88922 7.46573 6.50258C7.24077 6.1089 6.87522 5.82771 6.43937 5.7082C6.33392 5.68711 6.27768 5.58166 6.3058 5.48325C6.33392 5.38483 6.43234 5.32156 6.53779 5.34968C7.63445 5.64493 8.29525 6.78377 8 7.88043C7.97188 7.96479 7.90158 8.02103 7.81722 8.02103ZM1.77153 6.10187C1.27241 6.10187 0.864675 5.69414 0.864675 5.19502C0.864675 4.70293 1.27241 4.2952 1.77153 4.2952C2.26362 4.2952 2.67135 4.70293 2.67135 5.19502C2.67135 5.69414 2.26362 6.10187 1.77153 6.10187ZM1.77153 4.66778C1.47627 4.66778 1.23726 4.9068 1.23726 5.19502C1.23726 5.49028 1.47627 5.72929 1.77153 5.72929C2.05975 5.72929 2.29877 5.49028 2.29877 5.19502C2.29877 4.9068 2.05975 4.66778 1.77153 4.66778ZM10.2285 6.10187C9.72935 6.10187 9.32865 5.69414 9.32865 5.19502C9.32865 4.70293 9.72935 4.2952 10.2285 4.2952C10.7276 4.2952 11.1353 4.70293 11.1353 5.19502C11.1353 5.69414 10.7276 6.10187 10.2285 6.10187ZM10.2285 4.66778C9.94025 4.66778 9.70123 4.9068 9.70123 5.19502C9.70123 5.49028 9.94025 5.72929 10.2285 5.72929C10.5237 5.72929 10.7557 5.49028 10.7557 5.19502C10.7557 4.9068 10.5237 4.66778 10.2285 4.66778ZM1.77153 8.25302C1.27241 8.25302 0.864675 7.84528 0.864675 7.34616C0.864675 6.84704 1.27241 6.44634 1.77153 6.44634C2.26362 6.44634 2.67135 6.84704 2.67135 7.34616C2.67135 7.84528 2.26362 8.25302 1.77153 8.25302ZM1.77153 6.81892C1.47627 6.81892 1.23726 7.05794 1.23726 7.34616C1.23726 7.64142 1.47627 7.8734 1.77153 7.8734C2.05975 7.8734 2.29877 7.64142 2.29877 7.34616C2.29877 7.05794 2.05975 6.81892 1.77153 6.81892ZM10.2285 8.25302C9.72935 8.25302 9.32865 7.84528 9.32865 7.34616C9.32865 6.84704 9.72935 6.44634 10.2285 6.44634C10.7276 6.44634 11.1353 6.84704 11.1353 7.34616C11.1353 7.84528 10.7276 8.25302 10.2285 8.25302ZM10.2285 6.81892C9.94025 6.81892 9.70123 7.05794 9.70123 7.34616C9.70123 7.64142 9.94025 7.8734 10.2285 7.8734C10.5237 7.8734 10.7557 7.64142 10.7557 7.34616C10.7557 7.05794 10.5237 6.81892 10.2285 6.81892ZM1.77153 10.3971C1.27241 10.3971 0.864675 9.99643 0.864675 9.4973C0.864675 8.99818 1.27241 8.59045 1.77153 8.59045C2.26362 8.59045 2.67135 8.99818 2.67135 9.4973C2.67135 9.99643 2.26362 10.3971 1.77153 10.3971ZM1.77153 8.97006C1.47627 8.97006 1.23726 9.20205 1.23726 9.4973C1.23726 9.78553 1.47627 10.0245 1.77153 10.0245C2.05975 10.0245 2.29877 9.78553 2.29877 9.4973C2.29877 9.20205 2.05975 8.97006 1.77153 8.97006ZM10.2285 8.97006C9.94025 8.97006 9.70123 9.20205 9.70123 9.4973C9.70123 9.78553 9.94025 10.0245 10.2285 10.0245C10.5237 10.0245 10.7557 9.78553 10.7557 9.4973C10.7557 9.20205 10.5237 8.97006 10.2285 8.97006Z" fill="#2563EB"/>
</g>
<defs>
<clipPath id="clip0_413_7054">
<rect width="12" height="12" fill="white"/>
</clipPath>
</defs>
</svg>
