<svg width="12" height="12" viewBox="0 0 12 12" fill="none" xmlns="http://www.w3.org/2000/svg">
<path d="M2.67291 5.82397H2.0374C1.8318 5.82397 1.66357 5.99768 1.66357 6.20998V6.78898C1.66357 7.00128 1.8318 7.17498 2.0374 7.17498H2.67291C2.87852 7.17498 3.04674 7.00128 3.04674 6.78898V6.20998C3.04674 5.99768 2.87852 5.82397 2.67291 5.82397ZM2.76637 6.76968C2.76637 6.82758 2.72899 6.88548 2.65422 6.88548H2.0374C1.98133 6.88548 1.92525 6.84688 1.92525 6.76968V6.19068C1.92525 6.13278 1.96264 6.07488 2.0374 6.07488H2.67291C2.72899 6.07488 2.78506 6.11348 2.78506 6.19068V6.76968H2.76637Z" fill="#2563EB"/>
<path d="M4.54205 5.82397H3.90654C3.70094 5.82397 3.53271 5.99768 3.53271 6.20998V6.78898C3.53271 7.00128 3.70094 7.17498 3.90654 7.17498H4.54205C4.74766 7.17498 4.91588 7.00128 4.91588 6.78898V6.20998C4.91588 5.99768 4.74766 5.82397 4.54205 5.82397ZM4.63551 6.76968C4.63551 6.82758 4.59813 6.88548 4.52336 6.88548H3.90654C3.85047 6.88548 3.7944 6.84688 3.7944 6.76968V6.19068C3.7944 6.13278 3.83178 6.07488 3.90654 6.07488H4.54205C4.59813 6.07488 4.6542 6.11348 4.6542 6.19068V6.76968H4.63551Z" fill="#2563EB"/>
<path d="M6.41113 5.82397H5.77562C5.57002 5.82397 5.40179 5.99768 5.40179 6.20998V6.78898C5.40179 7.00128 5.57002 7.17498 5.77562 7.17498H6.41113C6.61674 7.17498 6.78496 7.00128 6.78496 6.78898V6.20998C6.78496 5.99768 6.61674 5.82397 6.41113 5.82397ZM6.50459 6.76968C6.50459 6.82758 6.46721 6.88548 6.39244 6.88548H5.77562C5.71955 6.88548 5.66348 6.84688 5.66348 6.76968V6.19068C5.66348 6.13278 5.70086 6.07488 5.77562 6.07488H6.41113C6.46721 6.07488 6.52328 6.11348 6.52328 6.19068V6.76968H6.50459Z" fill="#2563EB"/>
<path d="M8.2804 5.82397H7.64489C7.43928 5.82397 7.27106 5.99768 7.27106 6.20998V6.78898C7.27106 7.00128 7.43928 7.17498 7.64489 7.17498H8.2804C8.486 7.17498 8.65423 7.00128 8.65423 6.78898V6.20998C8.65423 5.99768 8.486 5.82397 8.2804 5.82397ZM8.39254 6.76968C8.39254 6.82758 8.35516 6.88548 8.2804 6.88548H7.64489C7.58881 6.88548 7.53274 6.84688 7.53274 6.76968V6.19068C7.53274 6.13278 7.57012 6.07488 7.64489 6.07488H8.2804C8.33647 6.07488 8.39254 6.11348 8.39254 6.19068V6.76968Z" fill="#2563EB"/>
<path d="M2.67291 7.48328H2.0374C1.8318 7.48328 1.66357 7.65698 1.66357 7.86928V8.44828C1.66357 8.66058 1.8318 8.83428 2.0374 8.83428H2.67291C2.87852 8.83428 3.04674 8.66058 3.04674 8.44828V7.86928C3.04674 7.65698 2.87852 7.48328 2.67291 7.48328ZM2.76637 8.44828C2.76637 8.50618 2.72899 8.56408 2.65422 8.56408H2.0374C1.98133 8.56408 1.92525 8.52548 1.92525 8.44828V7.86928C1.92525 7.81138 1.96264 7.75348 2.0374 7.75348H2.67291C2.72899 7.75348 2.78506 7.79208 2.78506 7.86928V8.44828H2.76637Z" fill="#2563EB"/>
<path d="M4.54205 7.48328H3.90654C3.70094 7.48328 3.53271 7.65698 3.53271 7.86928V8.44828C3.53271 8.66058 3.70094 8.83428 3.90654 8.83428H4.54205C4.74766 8.83428 4.91588 8.66058 4.91588 8.44828V7.86928C4.91588 7.65698 4.74766 7.48328 4.54205 7.48328ZM4.63551 8.44828C4.63551 8.50618 4.59813 8.56408 4.52336 8.56408H3.90654C3.85047 8.56408 3.7944 8.52548 3.7944 8.44828V7.86928C3.7944 7.81138 3.83178 7.75348 3.90654 7.75348H4.54205C4.59813 7.75348 4.6542 7.79208 4.6542 7.86928V8.44828H4.63551Z" fill="#2563EB"/>
<path d="M6.41113 7.48328H5.77562C5.57002 7.48328 5.40179 7.65698 5.40179 7.86928V8.44828C5.40179 8.66058 5.57002 8.83428 5.77562 8.83428H6.41113C6.61674 8.83428 6.78496 8.66058 6.78496 8.44828V7.86928C6.78496 7.65698 6.61674 7.48328 6.41113 7.48328ZM6.50459 8.44828C6.50459 8.50618 6.46721 8.56408 6.39244 8.56408H5.77562C5.71955 8.56408 5.66348 8.52548 5.66348 8.44828V7.86928C5.66348 7.81138 5.70086 7.75348 5.77562 7.75348H6.41113C6.46721 7.75348 6.52328 7.79208 6.52328 7.86928V8.44828H6.50459Z" fill="#2563EB"/>
<path d="M2.67291 9.16235H2.0374C1.8318 9.16235 1.66357 9.33605 1.66357 9.54836V10.1274C1.66357 10.3397 1.8318 10.5134 2.0374 10.5134H2.67291C2.87852 10.5134 3.04674 10.3397 3.04674 10.1274V9.54836C3.04674 9.33605 2.87852 9.16235 2.67291 9.16235ZM2.76637 10.1081C2.76637 10.166 2.72899 10.2239 2.65422 10.2239H2.0374C1.98133 10.2239 1.92525 10.1853 1.92525 10.1081V9.52906C1.92525 9.47116 1.96264 9.41325 2.0374 9.41325H2.67291C2.72899 9.41325 2.78506 9.45186 2.78506 9.52906V10.1081H2.76637Z" fill="#2563EB"/>
<path d="M4.54205 9.16235H3.90654C3.70094 9.16235 3.53271 9.33605 3.53271 9.54836V10.1274C3.53271 10.3397 3.70094 10.5134 3.90654 10.5134H4.54205C4.74766 10.5134 4.91588 10.3397 4.91588 10.1274V9.54836C4.91588 9.33605 4.74766 9.16235 4.54205 9.16235ZM4.63551 10.1081C4.63551 10.166 4.59813 10.2239 4.52336 10.2239H3.90654C3.85047 10.2239 3.7944 10.1853 3.7944 10.1081V9.52906C3.7944 9.47116 3.83178 9.41325 3.90654 9.41325H4.54205C4.59813 9.41325 4.6542 9.45186 4.6542 9.52906V10.1081H4.63551Z" fill="#2563EB"/>
<path d="M6.41113 9.16235H5.77562C5.57002 9.16235 5.40179 9.33605 5.40179 9.54836V10.1274C5.40179 10.3397 5.57002 10.5134 5.77562 10.5134H6.41113C6.61674 10.5134 6.78496 10.3397 6.78496 10.1274V9.54836C6.78496 9.33605 6.61674 9.16235 6.41113 9.16235ZM6.50459 10.1081C6.50459 10.166 6.46721 10.2239 6.39244 10.2239H5.77562C5.71955 10.2239 5.66348 10.1853 5.66348 10.1081V9.52906C5.66348 9.47116 5.70086 9.41325 5.77562 9.41325H6.41113C6.46721 9.41325 6.52328 9.45186 6.52328 9.52906V10.1081H6.50459Z" fill="#2563EB"/>
<path d="M10.6167 2.92865H10.8784C10.9532 2.92865 11.0093 2.98655 11.0093 3.06375V3.33395C11.0093 3.41115 11.0653 3.46905 11.1401 3.46905C11.2149 3.46905 11.2709 3.41115 11.2709 3.33395V3.06375C11.2709 2.98655 11.327 2.92865 11.4018 2.92865H11.6635C11.7382 2.92865 11.7943 2.87075 11.7943 2.79355C11.7943 2.71634 11.7382 2.65844 11.6635 2.65844H11.4018C11.327 2.65844 11.2709 2.60054 11.2709 2.52334V2.25314C11.2709 2.17594 11.2149 2.11804 11.1401 2.11804C11.0653 2.11804 11.0093 2.17594 11.0093 2.25314V2.52334C11.0093 2.60054 10.9532 2.65844 10.8784 2.65844H10.6167C10.542 2.65844 10.4859 2.71634 10.4859 2.79355C10.4859 2.87075 10.542 2.92865 10.6167 2.92865Z" fill="#2563EB"/>
<path d="M0.504669 1.01797V1.28817C0.504669 1.36537 0.560744 1.42327 0.635509 1.42327C0.710275 1.42327 0.76635 1.36537 0.76635 1.28817V1.01797C0.76635 0.940769 0.822424 0.882869 0.89719 0.882869H1.15887C1.23364 0.882869 1.28971 0.824969 1.28971 0.747768C1.28971 0.670568 1.23364 0.612668 1.15887 0.612668H0.915881C0.841115 0.612668 0.785041 0.554768 0.785041 0.477567V0.207366C0.785041 0.130166 0.728967 0.0722656 0.654201 0.0722656C0.579435 0.0722656 0.523361 0.130166 0.523361 0.207366V0.477567C0.523361 0.554768 0.467286 0.612668 0.392521 0.612668H0.13084C0.0560741 0.612668 0 0.670568 0 0.747768C0 0.824969 0.0560741 0.882869 0.13084 0.882869H0.392521C0.448595 0.882869 0.504669 0.940769 0.504669 1.01797Z" fill="#2563EB"/>
<path d="M8.28027 0.960179L8.69148 1.19178L8.91578 1.61638C8.93447 1.65498 8.99055 1.69358 9.02793 1.69358C9.084 1.69358 9.12139 1.67428 9.14008 1.61638L9.36438 1.19178L9.77559 0.960179C9.81297 0.940879 9.85035 0.882979 9.85035 0.844379C9.85035 0.805778 9.83166 0.747878 9.77559 0.728578L9.36438 0.496977L9.14008 0.0723753C9.084 -0.0241251 8.95316 -0.0241251 8.89709 0.0723753L8.67279 0.496977L8.26158 0.728578C8.24289 0.728578 8.20551 0.786479 8.20551 0.825079C8.20551 0.863679 8.24289 0.940879 8.28027 0.960179ZM8.84102 0.709278C8.85971 0.689978 8.8784 0.670678 8.89709 0.651378L9.00924 0.419777L9.12139 0.651378C9.14008 0.670678 9.15877 0.689978 9.17746 0.709278L9.40176 0.825079L9.17746 0.940879C9.15877 0.960179 9.14008 0.979479 9.12139 0.998779L9.00924 1.23038L8.89709 0.998779C8.8784 0.979479 8.85971 0.960179 8.84102 0.940879L8.61672 0.825079L8.84102 0.709278Z" fill="#2563EB"/>
<path d="M9.83179 7.13636C9.88787 7.13636 9.96263 7.15565 10.0187 7.15565V4.41504V3.39214C10.0187 2.87104 9.6075 2.44644 9.10283 2.44644H8.48601V2.04113C8.48601 1.73233 8.24302 1.50073 7.96265 1.50073C7.68227 1.50073 7.43929 1.75163 7.43929 2.04113V2.44644H6.63555V2.04113C6.63555 1.73233 6.39256 1.50073 6.11219 1.50073C5.81313 1.50073 5.58883 1.75163 5.58883 2.04113V2.44644H4.7851V2.04113C4.7851 1.73233 4.54211 1.50073 4.26174 1.50073C3.98137 1.50073 3.73838 1.75163 3.73838 2.04113V2.44644H2.93465V2.04113C2.93465 1.73233 2.69166 1.50073 2.41128 1.50073C2.13091 1.50073 1.88792 1.75163 1.88792 2.04113V2.44644H1.27111C0.766437 2.44644 0.355225 2.87104 0.355225 3.39214V4.41504V11.0543C0.355225 11.5754 0.766437 12 1.27111 12H9.14021C9.19628 12 9.27105 12 9.32712 11.9807C9.30843 11.9807 9.28974 11.9807 9.25236 11.9614C9.36451 11.9807 9.49535 12 9.62619 12C10.9346 12 12 10.8999 12 9.54887C11.9439 8.29436 11.0094 7.25216 9.83179 7.13636ZM7.70097 2.04113C7.70097 1.88673 7.81312 1.77093 7.96265 1.77093C8.11218 1.77093 8.22433 1.88673 8.22433 2.04113V2.58154V3.12194C8.22433 3.27634 8.11218 3.39214 7.96265 3.39214C7.92526 3.39214 7.88788 3.39214 7.86919 3.37284C7.83181 3.35354 7.81312 3.33424 7.79442 3.31494C7.77573 3.29564 7.77573 3.29564 7.75704 3.27634C7.75704 3.25704 7.73835 3.25704 7.73835 3.23774C7.73835 3.21844 7.71966 3.21844 7.71966 3.19914C7.71966 3.17984 7.71966 3.17984 7.71966 3.16054V3.14124V2.04113H7.70097ZM6.0935 1.79023C6.24303 1.79023 6.35518 1.90603 6.35518 2.06043V2.60084V3.14124V3.19914C6.33649 3.29564 6.26172 3.39214 6.14958 3.41144C6.13088 3.41144 6.11219 3.41144 6.0935 3.41144C6.05612 3.41144 6.01874 3.41144 6.00004 3.39214C5.96266 3.37284 5.94397 3.35354 5.92528 3.33424C5.90659 3.31494 5.90659 3.31494 5.8879 3.29564C5.8879 3.27634 5.8692 3.27634 5.8692 3.25704V3.23774C5.8692 3.21844 5.8692 3.21844 5.85051 3.19914C5.85051 3.17984 5.85051 3.16054 5.85051 3.14124V2.60084V2.06043C5.83182 1.90603 5.94397 1.79023 6.0935 1.79023ZM4.22436 1.79023C4.37389 1.79023 4.48604 1.90603 4.48604 2.06043V3.12194C4.48604 3.19914 4.44865 3.25704 4.41127 3.31494C4.37389 3.35354 4.29912 3.39214 4.22436 3.39214C4.18697 3.39214 4.14959 3.39214 4.1309 3.37284C4.09352 3.35354 4.07482 3.33424 4.05613 3.31494C4.03744 3.29564 4.03744 3.29564 4.01875 3.27634C4.01875 3.27634 4.01875 3.27634 4.01875 3.25704C4.01875 3.25704 4.00006 3.23774 4.00006 3.21844V3.19914V3.17984C4.00006 3.16054 4.00006 3.14124 4.00006 3.12194V2.58154V2.04113C3.96268 1.90603 4.09352 1.79023 4.22436 1.79023ZM2.3739 1.79023C2.52343 1.79023 2.63558 1.90603 2.63558 2.06043V3.12194C2.63558 3.21844 2.57951 3.29564 2.50474 3.35354C2.46736 3.37284 2.42998 3.39214 2.3739 3.39214C2.35521 3.39214 2.33652 3.39214 2.31783 3.39214H2.29914H2.28044C2.26175 3.39214 2.26175 3.37284 2.26175 3.37284C2.26175 3.37284 2.24306 3.37284 2.24306 3.35354C2.22437 3.35354 2.22437 3.33424 2.22437 3.33424L2.20568 3.31494C2.20568 3.31494 2.20568 3.29564 2.18699 3.29564C2.18699 3.29564 2.18699 3.27634 2.1683 3.27634C2.1683 3.25704 2.1683 3.25704 2.1496 3.23774V3.21844C2.1496 3.19914 2.1496 3.17984 2.1496 3.16054V2.62014V2.07973C2.11222 1.90603 2.22437 1.79023 2.3739 1.79023ZM0.579522 3.39214C0.579522 3.02544 0.859894 2.73594 1.21503 2.73594H1.83185V3.12194C1.83185 3.17984 1.85054 3.25704 1.86923 3.31494V3.33424C1.88792 3.35354 1.88792 3.37284 1.90662 3.41144C1.90662 3.41144 1.90662 3.43074 1.92531 3.43074C1.96269 3.48864 2.01876 3.54654 2.07484 3.58514C2.09353 3.60444 2.11222 3.60444 2.13091 3.62374C2.1496 3.62374 2.1496 3.64304 2.1683 3.64304C2.18699 3.64304 2.20568 3.66234 2.22437 3.66234C2.24306 3.66234 2.24306 3.66234 2.26175 3.68164H2.31783H2.35521C2.44867 3.68164 2.54212 3.64304 2.61689 3.60444C2.76642 3.50794 2.87857 3.33424 2.87857 3.14124V2.75524H3.6823V3.14124V3.23774V3.25704C3.6823 3.27634 3.6823 3.29564 3.701 3.29564C3.701 3.31494 3.71969 3.33424 3.71969 3.35354C3.71969 3.37284 3.73838 3.37284 3.73838 3.39214C3.75707 3.41144 3.75707 3.43074 3.77576 3.45004L3.81314 3.48864L3.85053 3.52724C3.86922 3.54654 3.88791 3.56584 3.9066 3.56584C3.92529 3.56584 3.92529 3.58514 3.92529 3.58514C3.94398 3.60444 3.98137 3.62374 4.00006 3.62374H4.01875C4.03744 3.64304 4.07482 3.64304 4.09352 3.64304H4.11221H4.18697H4.22436C4.37389 3.64304 4.50473 3.58514 4.59819 3.48864C4.69164 3.39214 4.74772 3.25704 4.74772 3.10264V2.71664H5.55145V3.10264C5.55145 3.14124 5.55145 3.17984 5.57014 3.19914C5.58883 3.29564 5.64491 3.39214 5.71967 3.46934C5.75706 3.50794 5.81313 3.54654 5.8692 3.56584C5.8692 3.56584 5.8879 3.56584 5.8879 3.58514C5.90659 3.58514 5.92528 3.60444 5.94397 3.60444C5.96266 3.60444 5.98135 3.62374 5.98135 3.62374H6.01874H6.07481C6.11219 3.62374 6.14958 3.62374 6.18696 3.60444C6.39256 3.56584 6.56079 3.39214 6.59817 3.17984C6.59817 3.14124 6.61686 3.10264 6.61686 3.06404V2.67804H7.42059V3.06404C7.42059 3.21844 7.47667 3.35354 7.57013 3.45004C7.6262 3.50794 7.68227 3.54654 7.73835 3.56584C7.75704 3.56584 7.77573 3.58514 7.81312 3.58514C7.83181 3.58514 7.83181 3.58514 7.8505 3.60444H7.90657H7.96265C8.26171 3.60444 8.48601 3.35354 8.48601 3.06404V2.67804H9.10283C9.45796 2.67804 9.73833 2.96754 9.73833 3.33424V4.22204H0.579522V3.39214ZM1.21503 11.7105C0.859894 11.7105 0.579522 11.421 0.579522 11.0543V4.55014H9.73833V7.11705H9.71964H9.79441C9.71964 7.11705 9.64488 7.09775 9.57011 7.09775C9.40189 7.09775 9.25236 7.11705 9.10283 7.15565C9.1589 7.13635 9.21497 7.13636 9.27105 7.13636V5.53445C9.27105 5.28355 9.06544 5.07125 8.82245 5.07125H1.4954C1.25241 5.07125 1.04681 5.28355 1.04681 5.53445V10.7841C1.04681 11.035 1.25241 11.2473 1.4954 11.2473H7.86919L7.88788 11.2666C8.14956 11.5561 8.48601 11.7684 8.85984 11.8842C8.729 11.8456 8.59816 11.7877 8.46732 11.7105H1.21503ZM9.10283 7.15565C8.03741 7.38726 7.21499 8.37156 7.21499 9.54887C7.21499 10.1086 7.4019 10.6297 7.71966 11.035C7.70097 10.9964 7.68227 10.9771 7.64489 10.9385H1.4954C1.40195 10.9385 1.30849 10.8613 1.30849 10.7455V5.53445C1.30849 5.43795 1.38325 5.34145 1.4954 5.34145H8.84115C8.9346 5.34145 9.02806 5.41865 9.02806 5.53445V7.19426C9.02806 7.17496 9.06544 7.17496 9.10283 7.15565ZM8.97198 11.9035C9.00937 11.9228 9.04675 11.9228 9.08413 11.9228C9.04675 11.9421 9.00937 11.9228 8.97198 11.9035ZM9.57011 11.7105C8.41124 11.7105 7.47667 10.7455 7.47667 9.54887C7.47667 8.35226 8.41124 7.38726 9.57011 7.38726C10.729 7.38726 11.6636 8.35226 11.6636 9.54887C11.6636 10.7455 10.729 11.7105 9.57011 11.7105Z" fill="#2563EB"/>
<path d="M9.57004 7.9082C8.69154 7.9082 7.98126 8.64161 7.98126 9.54871C7.98126 10.4558 8.69154 11.1892 9.57004 11.1892C10.4485 11.1892 11.1588 10.4558 11.1588 9.54871C11.1588 8.64161 10.4485 7.9082 9.57004 7.9082ZM9.57004 10.919C8.84107 10.919 8.26163 10.3014 8.26163 9.56801C8.26163 8.81531 8.85976 8.217 9.57004 8.217C10.299 8.217 10.8784 8.83461 10.8784 9.56801C10.8971 10.3014 10.299 10.919 9.57004 10.919Z" fill="#2563EB"/>
<path d="M9.57001 8.98859C9.68216 8.98859 9.77561 9.08509 9.77561 9.20089C9.77561 9.27809 9.83169 9.33599 9.90645 9.33599C9.98122 9.33599 10.0373 9.27809 10.0373 9.20089C10.0373 8.96929 9.88776 8.79559 9.70085 8.73769V8.66049C9.70085 8.58329 9.64477 8.52539 9.57001 8.52539C9.49524 8.52539 9.43917 8.58329 9.43917 8.66049V8.73769C9.23356 8.79559 9.10272 8.98859 9.10272 9.20089C9.10272 9.47109 9.30833 9.7027 9.5887 9.7027C9.70085 9.7027 9.79431 9.7992 9.79431 9.915C9.79431 10.0308 9.70085 10.1273 9.5887 10.1273C9.47655 10.1273 9.38309 10.0308 9.38309 9.915C9.38309 9.8378 9.32702 9.7799 9.25225 9.7799C9.17749 9.7799 9.12141 9.8378 9.12141 9.915C9.12141 10.1466 9.27094 10.3203 9.45786 10.3782V10.4554C9.45786 10.5326 9.51393 10.5905 9.5887 10.5905C9.66347 10.5905 9.71954 10.5326 9.71954 10.4554V10.3782C9.90645 10.3203 10.056 10.1273 10.056 9.915C10.056 9.6448 9.85038 9.41319 9.57001 9.41319C9.45786 9.41319 9.3644 9.31669 9.3644 9.20089C9.38309 9.08509 9.45786 8.98859 9.57001 8.98859Z" fill="#2563EB"/>
</svg>
