<svg width="16" height="16" viewBox="0 0 16 16" fill="none" xmlns="http://www.w3.org/2000/svg">
<g clip-path="url(#clip0_409_4910)">
<path fill-rule="evenodd" clip-rule="evenodd" d="M15.963 7.23C16.1766 9.34099 15.5429 11.4504 14.2013 13.0941C12.8596 14.7379 10.92 15.7814 8.80897 15.995C6.69798 16.2086 4.58858 15.5749 2.94483 14.2333C1.30107 12.8917 0.257601 10.952 0.0439687 8.841C0.0230166 8.64315 0.0815188 8.44508 0.206606 8.29036C0.331692 8.13564 0.513117 8.03695 0.710969 8.016C0.90882 7.99505 1.10689 8.05355 1.26161 8.17864C1.41633 8.30372 1.51502 8.48515 1.53597 8.683C1.65147 9.77654 2.04251 10.8229 2.67249 11.7242C3.30247 12.6254 4.15081 13.3521 5.1381 13.8363C6.1254 14.3205 7.21939 14.5462 8.31769 14.4925C9.416 14.4387 10.4827 14.1072 11.418 13.529C12.3533 12.9508 13.1267 12.1447 13.6657 11.1862C14.2046 10.2278 14.4916 9.14823 14.4998 8.04864C14.508 6.94905 14.2371 5.86536 13.7125 4.89897C13.1878 3.93259 12.4266 3.1151 11.5 2.523V4.25C11.5 4.44891 11.421 4.63968 11.2803 4.78033C11.1396 4.92098 10.9489 5 10.75 5C10.5511 5 10.3603 4.92098 10.2196 4.78033C10.079 4.63968 9.99997 4.44891 9.99997 4.25V0H14.25C14.4489 0 14.6396 0.0790176 14.7803 0.21967C14.921 0.360322 15 0.551088 15 0.75C15 0.948912 14.921 1.13968 14.7803 1.28033C14.6396 1.42098 14.4489 1.5 14.25 1.5H12.664C13.5905 2.1648 14.3641 3.01999 14.9331 4.00824C15.5021 4.99649 15.8532 6.09495 15.963 7.23ZM6.99997 2C7.26518 2 7.51954 1.89464 7.70708 1.70711C7.89461 1.51957 7.99997 1.26522 7.99997 1C7.99997 0.734784 7.89461 0.48043 7.70708 0.292893C7.51954 0.105357 7.26518 0 6.99997 0C6.73475 0 6.4804 0.105357 6.29286 0.292893C6.10533 0.48043 5.99997 0.734784 5.99997 1C5.99997 1.26522 6.10533 1.51957 6.29286 1.70711C6.4804 1.89464 6.73475 2 6.99997 2ZM4.74997 2.25C4.74997 2.51522 4.64461 2.76957 4.45708 2.95711C4.26954 3.14464 4.01519 3.25 3.74997 3.25C3.48475 3.25 3.2304 3.14464 3.04286 2.95711C2.85533 2.76957 2.74997 2.51522 2.74997 2.25C2.74997 1.98478 2.85533 1.73043 3.04286 1.54289C3.2304 1.35536 3.48475 1.25 3.74997 1.25C4.01519 1.25 4.26954 1.35536 4.45708 1.54289C4.64461 1.73043 4.74997 1.98478 4.74997 2.25ZM1.49997 6C1.76519 6 2.01954 5.89464 2.20708 5.70711C2.39461 5.51957 2.49997 5.26522 2.49997 5C2.49997 4.73478 2.39461 4.48043 2.20708 4.29289C2.01954 4.10536 1.76519 4 1.49997 4C1.23475 4 0.980398 4.10536 0.792862 4.29289C0.605326 4.48043 0.499969 4.73478 0.499969 5C0.499969 5.26522 0.605326 5.51957 0.792862 5.70711C0.980398 5.89464 1.23475 6 1.49997 6Z" fill="#333333"/>
</g>
<defs>
<clipPath id="clip0_409_4910">
<rect width="16" height="16" fill="white"/>
</clipPath>
</defs>
</svg>
