<svg width="16" height="16" viewBox="0 0 16 16" fill="none" xmlns="http://www.w3.org/2000/svg">
<path d="M14.6667 7.99998C14.6667 11.682 11.682 14.6666 8.00004 14.6666C4.31804 14.6666 1.33337 11.682 1.33337 7.99998C1.33337 4.31798 4.31804 1.33331 8.00004 1.33331V2.66665C6.74588 2.66674 5.53187 3.10882 4.57132 3.9152C3.61076 4.72158 2.96511 5.84067 2.7478 7.07586C2.53049 8.31105 2.75542 9.58331 3.38308 10.6691C4.01074 11.7549 5.00097 12.5848 6.17979 13.0129C7.35861 13.4411 8.6506 13.4401 9.82876 13.0101C11.0069 12.5802 11.9959 11.7488 12.6219 10.6621C13.2479 9.57532 13.4709 8.30272 13.2517 7.06786C13.0325 5.83301 12.3852 4.71489 11.4234 3.90998L10 5.33331V1.33331H14L12.3687 2.96465C13.0907 3.58984 13.6696 4.36315 14.0662 5.23201C14.4627 6.10087 14.6675 7.04491 14.6667 7.99998Z" fill="#333333"/>
</svg>
