<svg width="16" height="16" viewBox="0 0 16 16" fill="none" xmlns="http://www.w3.org/2000/svg">
<path d="M13.3333 8.00002C13.3333 9.41451 12.7714 10.7711 11.7712 11.7713C10.771 12.7715 9.41445 13.3334 7.99996 13.3334C6.58547 13.3334 5.22892 12.7715 4.22872 11.7713C3.22853 10.7711 2.66663 9.41451 2.66663 8.00002C2.66663 6.58553 3.22853 5.22898 4.22872 4.22878C5.22892 3.22859 6.58547 2.66669 7.99996 2.66669C9.41445 2.66669 10.771 3.22859 11.7712 4.22878C12.7714 5.22898 13.3333 6.58553 13.3333 8.00002Z" stroke="#333333" stroke-width="1.5"/>
<path d="M11.8993 4.12669C13.24 3.88002 14.226 3.98669 14.5526 4.50869C15.2266 5.58602 12.8393 8.02269 9.22065 9.95069C5.60198 11.8787 2.12131 12.5687 1.44731 11.4907C1.09198 10.9227 1.58731 9.97736 2.66665 8.92669" stroke="#333333" stroke-width="1.5"/>
</svg>
