<svg width="12" height="12" viewBox="0 0 12 12" fill="none" xmlns="http://www.w3.org/2000/svg">
<path d="M9.75 1.125H9C9 0.975 8.94375 0.825 8.83125 0.73125C8.7375 0.61875 8.5875 0.5625 8.4375 0.5625C8.11875 0.5625 7.875 0.80625 7.875 1.125H6.5625C6.5625 0.80625 6.31875 0.5625 6 0.5625C5.68125 0.5625 5.4375 0.80625 5.4375 1.125H4.125C4.125 0.80625 3.88125 0.5625 3.5625 0.5625C3.24375 0.5625 3 0.80625 3 1.125H2.25C1.93125 1.125 1.6875 1.36875 1.6875 1.6875V9.375V9.39375C1.6875 9.4125 1.6875 9.43125 1.70625 9.45V9.46875C1.70625 9.4875 1.725 9.50625 1.74375 9.525L3.61875 11.4C3.6375 11.4187 3.65625 11.4375 3.675 11.4375H3.75H9.75C10.0688 11.4375 10.3125 11.1938 10.3125 10.875V1.6875C10.3125 1.36875 10.0688 1.125 9.75 1.125ZM9 2.625C9 2.94375 8.75625 3.1875 8.4375 3.1875C8.11875 3.1875 7.875 2.94375 7.875 2.625C7.875 2.56875 7.89375 2.49375 7.9125 2.4375C7.9875 2.6625 8.19375 2.8125 8.4375 2.8125C8.68125 2.8125 8.8875 2.6625 8.9625 2.4375C8.98125 2.49375 9 2.56875 9 2.625ZM8.25 1.125C8.25 1.0125 8.325 0.9375 8.4375 0.9375C8.49375 0.9375 8.53125 0.95625 8.56875 0.99375C8.60625 1.03125 8.625 1.06875 8.625 1.125V1.3125V2.25C8.625 2.3625 8.55 2.4375 8.4375 2.4375C8.325 2.4375 8.25 2.3625 8.25 2.25V1.3125V1.125ZM6.5625 2.625C6.5625 2.94375 6.31875 3.1875 6 3.1875C5.68125 3.1875 5.4375 2.94375 5.4375 2.625C5.4375 2.56875 5.45625 2.49375 5.475 2.4375C5.55 2.6625 5.75625 2.8125 6 2.8125C6.24375 2.8125 6.45 2.6625 6.525 2.4375C6.54375 2.49375 6.5625 2.56875 6.5625 2.625ZM5.8125 1.125C5.8125 1.0125 5.8875 0.9375 6 0.9375C6.1125 0.9375 6.1875 1.0125 6.1875 1.125V2.25C6.1875 2.3625 6.1125 2.4375 6 2.4375C5.8875 2.4375 5.8125 2.3625 5.8125 2.25V1.125ZM4.125 2.625C4.125 2.94375 3.88125 3.1875 3.5625 3.1875C3.24375 3.1875 3 2.94375 3 2.625C3 2.56875 3.01875 2.49375 3.0375 2.4375C3.1125 2.6625 3.31875 2.8125 3.5625 2.8125C3.80625 2.8125 4.0125 2.6625 4.0875 2.4375C4.10625 2.49375 4.125 2.56875 4.125 2.625ZM3.375 1.125C3.375 1.0125 3.45 0.9375 3.5625 0.9375C3.675 0.9375 3.75 1.0125 3.75 1.125V2.25C3.75 2.3625 3.675 2.4375 3.5625 2.4375C3.45 2.4375 3.375 2.3625 3.375 2.25V1.125ZM2.25 1.5H3V1.875C2.775 2.04375 2.625 2.325 2.625 2.625C2.625 3.15 3.0375 3.5625 3.5625 3.5625C4.0875 3.5625 4.5 3.15 4.5 2.625C4.5 2.325 4.35 2.04375 4.125 1.875V1.5H5.4375V1.875C5.2125 2.04375 5.0625 2.325 5.0625 2.625C5.0625 3.15 5.475 3.5625 6 3.5625C6.525 3.5625 6.9375 3.15 6.9375 2.625C6.9375 2.325 6.7875 2.04375 6.5625 1.875V1.5H7.875V1.875C7.65 2.04375 7.5 2.325 7.5 2.625C7.5 3.15 7.9125 3.5625 8.4375 3.5625C8.9625 3.5625 9.375 3.15 9.375 2.625C9.375 2.325 9.225 2.04375 9 1.875V1.5H9.75C9.8625 1.5 9.9375 1.575 9.9375 1.6875V3.9375H2.0625V1.6875C2.0625 1.575 2.1375 1.5 2.25 1.5ZM3.5625 10.8L2.325 9.5625H3.5625V10.8ZM9.75 11.0625H3.9375V9.375C3.9375 9.2625 3.8625 9.1875 3.75 9.1875H2.0625V4.3125H9.9375V10.875C9.9375 10.9875 9.8625 11.0625 9.75 11.0625Z" fill="#2563EB"/>
<path d="M6.52499 4.68745C6.11249 4.6687 5.69999 4.7812 5.34374 4.9687C4.81874 5.2687 4.42499 5.77495 4.31249 6.37495C4.27499 6.56245 4.25624 6.78745 4.29374 7.0312L4.31249 7.23745L3.56249 8.0437C3.44999 8.17495 3.39374 8.36245 3.39374 8.5312C3.39374 8.77495 3.59999 8.9812 3.84374 8.9812H4.31249V9.8812C4.31249 10.0875 4.42499 10.275 4.61249 10.3687C4.78124 10.4437 4.98749 10.4437 5.13749 10.35L5.81249 9.93745V10.5C5.81249 10.6125 5.88749 10.6875 5.99999 10.6875H7.98749C8.04374 10.6875 8.08124 10.6687 8.11874 10.6312C8.15624 10.5937 8.17499 10.5375 8.17499 10.4812L8.11874 9.9562C8.06249 9.3187 8.13749 8.6437 8.36249 7.9312C8.39999 7.7812 8.43749 7.6687 8.49374 7.53745C8.56874 7.31245 8.62499 7.08745 8.62499 6.8437C8.64374 5.69995 7.68749 4.72495 6.52499 4.68745ZM7.76249 9.9937L7.79999 10.3125H6.18749V9.63745C6.18749 9.56246 6.14999 9.5062 6.09374 9.4687C6.03749 9.4312 5.96249 9.4312 5.90624 9.4687L4.94999 10.05C4.91249 10.0687 4.83749 10.0875 4.78124 10.05C4.72499 10.0125 4.68749 9.9562 4.68749 9.89995V8.81245C4.68749 8.69995 4.61249 8.62495 4.49999 8.62495H3.82499C3.78749 8.62495 3.74999 8.58745 3.74999 8.54995C3.74999 8.4562 3.78749 8.36245 3.82499 8.3062L4.63124 7.4437C4.66874 7.4062 4.68749 7.34996 4.68749 7.2937L4.64999 6.9937C4.63124 6.78745 4.63124 6.61871 4.66874 6.44995C4.74374 6.07495 4.94999 5.73745 5.24999 5.4937V6.22495C5.24999 6.29995 5.28749 6.3562 5.34374 6.3937C5.39999 6.4312 5.47499 6.4312 5.53124 6.3937C5.56874 6.37495 5.58749 6.37495 5.62499 6.37495C5.73749 6.37495 5.81249 6.44995 5.81249 6.56245C5.81249 6.67495 5.73749 6.74995 5.62499 6.74995C5.58749 6.74995 5.56874 6.74995 5.53124 6.7312C5.47499 6.69371 5.39999 6.69371 5.34374 6.7312C5.28749 6.74995 5.24999 6.82495 5.24999 6.8812V7.87495C5.24999 7.98745 5.32499 8.06245 5.43749 8.06245H6.18749C6.18749 8.3812 6.43124 8.62495 6.74999 8.62495C7.06874 8.62495 7.31249 8.3812 7.31249 8.06245H7.94999C7.76249 8.73745 7.70624 9.37495 7.76249 9.9937ZM8.13749 7.4062C8.09999 7.49995 8.08124 7.5937 8.04374 7.68745H7.06874C6.99374 7.68745 6.93749 7.72495 6.89999 7.7812C6.86249 7.83745 6.86249 7.91245 6.89999 7.9687C6.93749 8.0062 6.93749 8.02495 6.93749 8.06245C6.93749 8.17495 6.86249 8.24995 6.74999 8.24995C6.63749 8.24995 6.56249 8.17495 6.56249 8.06245C6.56249 8.02495 6.56249 8.0062 6.58124 7.9687C6.61874 7.91245 6.61874 7.83745 6.58124 7.7812C6.56249 7.72495 6.48749 7.68745 6.43124 7.68745H5.62499V7.12495C5.94374 7.12495 6.18749 6.8812 6.18749 6.56245C6.18749 6.2437 5.94374 5.99995 5.62499 5.99995V5.24995C5.88749 5.1187 6.20624 5.0437 6.50624 5.06245C7.46249 5.09995 8.26874 5.9062 8.24999 6.8437C8.24999 7.04995 8.21249 7.23745 8.13749 7.4062Z" fill="#2563EB"/>
</svg>
