<svg width="12" height="12" viewBox="0 0 12 12" fill="none" xmlns="http://www.w3.org/2000/svg">
<g clip-path="url(#clip0_413_6813)">
<path d="M11.272 7.8131C11.2265 7.50436 11.011 7.26263 10.7097 7.18228C10.4301 7.10749 10.132 7.13733 9.87005 7.2664L8.42684 7.97941C8.30131 7.53232 7.8908 7.2078 7.40801 7.2078H5.65179C4.51496 6.57434 3.38175 6.82371 2.28071 7.94883C2.19867 7.86694 2.0895 7.82168 1.97302 7.82149H1.97229C1.8551 7.82149 1.74509 7.86698 1.66242 7.94965L0.846166 8.76591C0.676807 8.93637 0.676807 9.21377 0.846166 9.38426L3.02897 11.5671C3.11163 11.6497 3.22167 11.6952 3.33886 11.6952H3.33961C3.45675 11.695 3.56653 11.6494 3.64826 11.5671L4.46405 10.7512C4.5469 10.6684 4.59244 10.5581 4.59223 10.4406C4.59209 10.3595 4.56966 10.2821 4.52881 10.2149C4.54392 10.2125 4.5585 10.2109 4.57198 10.2109H6.23616C6.66572 10.2109 7.00669 10.1661 7.37637 10.0609L8.60086 9.7121C9.03124 9.58924 9.37458 9.42406 9.75769 9.21387L10.906 8.58356C11.1756 8.43628 11.3193 8.13384 11.272 7.81305L11.272 7.8131ZM4.19885 10.4861L3.38262 11.3024C3.3672 11.3179 3.34866 11.3202 3.33896 11.3203H3.33886C3.32895 11.3203 3.31006 11.3179 3.29414 11.3019L1.11211 9.11993C1.08804 9.09558 1.08806 9.05451 1.11176 9.03066L1.9276 8.21482C1.94353 8.19891 1.96238 8.19652 1.97229 8.19652H1.97238C1.98209 8.19652 2.00063 8.19888 2.01649 8.21484L4.19932 10.3977C4.21484 10.4131 4.21721 10.4316 4.21721 10.4413C4.21721 10.4512 4.21484 10.4701 4.19885 10.4861ZM10.7259 8.25469L9.57722 8.88513C9.21631 9.08316 8.89463 9.23827 8.49797 9.35149L7.27367 9.70024C6.93931 9.79535 6.62899 9.83592 6.23609 9.83592H4.57191C4.45571 9.83592 4.34187 9.87077 4.24561 9.91359L2.54602 8.21402C3.5397 7.19604 4.51017 6.98128 5.50856 7.55766L5.55206 7.58278H7.40799C7.77068 7.58278 8.07042 7.86623 8.09042 8.22823C8.09217 8.25989 8.08423 8.2819 8.06229 8.30489C8.04059 8.32784 8.01886 8.33719 7.98731 8.33719H5.88202C5.77847 8.33719 5.69452 8.42114 5.69452 8.52469C5.69452 8.62823 5.77847 8.71219 5.88202 8.71219H7.98731C8.1221 8.71219 8.24229 8.66041 8.33414 8.56319C8.38278 8.51229 8.41798 8.45428 8.43978 8.39128L10.036 7.60268C10.2162 7.51387 10.421 7.49323 10.6129 7.54458C10.7697 7.58637 10.8773 7.70716 10.9009 7.86773C10.9254 8.03402 10.8585 8.18222 10.7258 8.25469H10.7259ZM3.51164 10.4254C3.51164 10.5297 3.42661 10.6147 3.32231 10.6147C3.21802 10.6147 3.13299 10.5297 3.13299 10.4254C3.13299 10.3211 3.21802 10.236 3.32231 10.236C3.42661 10.236 3.51164 10.3211 3.51164 10.4254ZM4.37396 2.75672C3.88629 2.75672 3.48956 3.15345 3.48956 3.64111C3.48956 4.18095 3.79953 4.7547 4.37396 4.7547C4.94838 4.7547 5.25835 4.18095 5.25835 3.64111C5.25835 3.15345 4.8616 2.75672 4.37396 2.75672ZM4.37396 4.37972C3.98906 4.37972 3.86456 3.88212 3.86456 3.64113C3.86456 3.36026 4.09308 3.13174 4.37396 3.13174C4.65483 3.13174 4.88335 3.36026 4.88335 3.64113C4.88335 3.94781 4.72531 4.37972 4.37396 4.37972ZM3.18809 6.63216H4.86253C4.95931 6.78265 5.12813 6.88261 5.31996 6.88261H8.05772C8.24956 6.88261 8.41838 6.78265 8.51515 6.63216H10.1896C10.4633 6.63216 10.686 6.40945 10.686 6.13573V5.66738C10.686 5.18119 10.2666 4.78563 9.75115 4.78563H8.25638C8.13956 4.78563 8.02624 4.80614 7.91824 4.84601C7.80401 4.80577 7.68047 4.78364 7.55152 4.78364H5.82624C5.69728 4.78364 5.57372 4.80577 5.45949 4.84603C5.35149 4.80616 5.23817 4.78563 5.12135 4.78563H3.6266C3.1111 4.78563 2.69171 5.18119 2.69171 5.66738V6.13573C2.69171 6.40945 2.91441 6.63216 3.18813 6.63216H3.18809ZM10.311 5.66738V6.13573C10.311 6.20269 10.2565 6.25716 10.1896 6.25716H8.60128V5.77235C8.60128 5.54152 8.51663 5.32908 8.3753 5.16063H9.7511C10.0598 5.16063 10.311 5.38795 10.311 5.66738H10.311ZM7.55149 5.15864C7.92359 5.15864 8.22631 5.43394 8.22631 5.77235V6.33902C8.22631 6.43198 8.15067 6.50761 8.05772 6.50761H5.31996C5.22699 6.50761 5.15138 6.43198 5.15138 6.33902V5.77235C5.15138 5.43396 5.4541 5.15864 5.82621 5.15864H7.55149ZM3.06666 5.66738C3.06666 5.38795 3.31784 5.16063 3.62656 5.16063H5.00234C4.86103 5.32908 4.77635 5.54149 4.77635 5.77235V6.25716H3.18806C3.12113 6.25716 3.06664 6.20269 3.06664 6.13573L3.06666 5.66738ZM6.6885 2.4611C6.14187 2.4611 5.69714 2.90613 5.69714 3.45312C5.69714 4.06221 6.04458 4.70953 6.6885 4.70953C7.33242 4.70953 7.68052 4.06219 7.68052 3.45312C7.68052 2.90611 7.23551 2.4611 6.6885 2.4611ZM6.6885 4.33455C6.2228 4.33455 6.07214 3.74072 6.07214 3.45314C6.07214 3.11292 6.34864 2.83613 6.6885 2.83613C7.02837 2.83613 7.30552 3.11292 7.30552 3.45314C7.30552 3.81914 7.11408 4.33455 6.6885 4.33455ZM6.04667 1.59771L5.9761 2.08777C5.96616 2.15665 5.9952 2.22534 6.05154 2.26624C6.08417 2.28991 6.12281 2.30201 6.1617 2.30201C6.18994 2.30201 6.21832 2.29563 6.2446 2.28267L6.68853 2.06377L7.13313 2.28272C7.1956 2.31347 7.26987 2.30709 7.32614 2.26622C7.38242 2.22534 7.41148 2.15665 7.40154 2.08779L7.33097 1.59773L7.67597 1.24268C7.72444 1.19278 7.74131 1.12015 7.7198 1.05398C7.69826 0.98782 7.64189 0.939023 7.57331 0.927234L7.08563 0.843258L6.85432 0.404719C6.82186 0.343195 6.75804 0.304688 6.68848 0.304688H6.68839C6.6188 0.304711 6.55496 0.343289 6.52254 0.404883L6.29187 0.843281L5.8043 0.927258C5.73572 0.93907 5.67935 0.987867 5.65781 1.05401C5.6363 1.12017 5.65317 1.1928 5.70164 1.2427L6.04664 1.59776L6.04667 1.59771ZM6.44658 1.19712C6.504 1.18723 6.55355 1.1512 6.58071 1.09964L6.68867 0.894422L6.79699 1.0998C6.82414 1.1513 6.87366 1.18723 6.93103 1.19712L7.15917 1.2364L6.99778 1.4025C6.95726 1.4442 6.93839 1.50234 6.94667 1.55988L6.97967 1.7891L6.77128 1.68649C6.74517 1.67362 6.71681 1.6672 6.68846 1.6672C6.6601 1.6672 6.63167 1.67365 6.60553 1.68654L6.39797 1.78889L6.43092 1.55988C6.43922 1.50234 6.42035 1.4442 6.37981 1.4025L6.21842 1.2364L6.44653 1.19712H6.44658ZM3.73207 2.00838L3.66153 2.49834C3.65161 2.5672 3.6806 2.63587 3.7369 2.67675C3.79315 2.71765 3.86747 2.72402 3.92984 2.69332L4.37391 2.47493L4.81798 2.69332C4.84418 2.70621 4.87249 2.71256 4.90069 2.71256C4.9396 2.71256 4.97831 2.70047 5.01092 2.67675C5.06719 2.63587 5.09621 2.56718 5.08629 2.49834L5.01574 2.00838L5.36126 1.65333C5.4098 1.60345 5.42672 1.53077 5.40521 1.46459C5.38367 1.3984 5.32728 1.34958 5.25867 1.33777L4.7704 1.25379L4.53978 0.816C4.50734 0.75443 4.44347 0.715898 4.37389 0.715898C4.3043 0.715898 4.24043 0.75443 4.20799 0.816L3.97735 1.25379L3.48907 1.33777C3.42047 1.34955 3.36408 1.3984 3.34254 1.46459C3.32103 1.53077 3.33795 1.60345 3.38649 1.65333L3.73203 2.00838H3.73207ZM4.13199 1.6077C4.18938 1.59783 4.23891 1.56183 4.2661 1.51031L4.37393 1.30566L4.48174 1.51031C4.50888 1.56185 4.55843 1.59783 4.61585 1.60772L4.84423 1.647L4.68267 1.81301C4.6421 1.8547 4.62317 1.9129 4.63146 1.97048L4.66449 2.19994L4.45667 2.09773C4.43058 2.08488 4.40227 2.07848 4.37393 2.07848C4.3456 2.07848 4.31728 2.08491 4.2912 2.09773L4.08338 2.19994L4.1164 1.97048C4.1247 1.91287 4.10578 1.8547 4.06519 1.81298L3.90361 1.64698L4.13199 1.6077ZM8.36187 2.00838L8.2913 2.49834C8.28136 2.56718 8.31038 2.63587 8.36665 2.67675C8.3993 2.70047 8.43797 2.71256 8.4769 2.71256C8.5051 2.71256 8.53341 2.70621 8.55961 2.69332L9.00371 2.47491L9.44778 2.6933C9.51014 2.724 9.58446 2.71762 9.64071 2.67673C9.69699 2.63585 9.726 2.56716 9.71609 2.49832L9.64554 2.00836L9.99106 1.6533C10.0396 1.60343 10.0565 1.53075 10.035 1.46456C10.0135 1.39838 9.95707 1.34955 9.88847 1.33774L9.40022 1.25377L9.16957 0.815977C9.13711 0.754406 9.07327 0.715875 9.00368 0.715875C8.9341 0.715875 8.87025 0.754406 8.83779 0.815977L8.60714 1.25377L8.11887 1.33774C8.05027 1.34953 7.99388 1.39838 7.97234 1.46456C7.95082 1.53075 7.96774 1.60343 8.01628 1.6533L8.36182 2.00836L8.36187 2.00838ZM8.76178 1.6077C8.81918 1.59783 8.86871 1.56183 8.89589 1.51031L9.00373 1.30563L9.11156 1.51031C9.13873 1.56183 9.18825 1.59783 9.24567 1.6077L9.47403 1.64698L9.31247 1.81298C9.2719 1.85468 9.25296 1.91287 9.26126 1.97046L9.29428 2.19991L9.08646 2.0977C9.03427 2.07204 8.97317 2.07204 8.92097 2.0977L8.71315 2.19991L8.74617 1.97048C8.75447 1.91287 8.73556 1.8547 8.69496 1.81298L8.53339 1.64698L8.76176 1.6077H8.76178ZM9.00371 2.75677C8.51604 2.75677 8.11932 3.15349 8.11932 3.64116C8.11932 4.18099 8.42928 4.75474 9.00371 4.75474C9.57813 4.75474 9.8881 4.18099 9.8881 3.64116C9.8881 3.15349 9.49135 2.75677 9.00371 2.75677ZM9.00371 4.37977C8.65235 4.37977 8.49432 3.94786 8.49432 3.64118C8.49432 3.3603 8.72283 3.13179 9.00371 3.13179C9.28458 3.13179 9.5131 3.3603 9.5131 3.64118C9.5131 3.88216 9.3886 4.37977 9.00371 4.37977Z" fill="#2563EB"/>
</g>
<defs>
<clipPath id="clip0_413_6813">
<rect width="12" height="12" fill="white"/>
</clipPath>
</defs>
</svg>
