<svg width="12" height="12" viewBox="0 0 12 12" fill="none" xmlns="http://www.w3.org/2000/svg">
<g clip-path="url(#clip0_413_6836)">
<path d="M10.4284 3.1875H11.25C11.5601 3.1875 11.8125 2.93513 11.8125 2.625C11.8125 2.31487 11.5601 2.0625 11.25 2.0625H7.482C7.40981 1.6935 7.119 1.40269 6.75 1.3305V0.9375C6.75 0.523875 6.41363 0.1875 6 0.1875C5.58637 0.1875 5.25 0.523875 5.25 0.9375V1.3305C4.881 1.40269 4.59019 1.6935 4.518 2.0625H0.75C0.439875 2.0625 0.1875 2.31487 0.1875 2.625C0.1875 2.93513 0.439875 3.1875 0.75 3.1875H1.57162L0.634125 5.0625H0.1875V5.25C0.1875 6.18038 0.944438 6.9375 1.875 6.9375H2.25C3.18056 6.9375 3.9375 6.18038 3.9375 5.25V5.0625H3.49088L2.55338 3.1875H4.90013L5.06137 3.46969C5.11387 3.56156 5.18231 3.64106 5.26013 3.70837H5.25V6.76538C4.80244 7.02525 4.5 7.50863 4.5 8.0625C4.5 8.59369 4.77825 9.06 5.19581 9.32662C4.86244 9.44363 4.56206 9.63 4.3125 9.87019V8.625C4.3125 8.016 3.24994 7.6875 2.25 7.6875C1.25006 7.6875 0.1875 8.016 0.1875 8.625V10.875C0.1875 11.484 1.25006 11.8125 2.25 11.8125C2.742 11.8125 3.20175 11.7399 3.56325 11.61C3.56325 11.6151 3.5625 11.6199 3.5625 11.625V11.8125H8.4375V11.625C8.4375 11.6199 8.43675 11.6151 8.43675 11.61C8.79806 11.7399 9.25781 11.8125 9.75 11.8125C10.7499 11.8125 11.8125 11.484 11.8125 10.875V9.375C11.8125 8.766 10.7499 8.4375 9.75 8.4375C8.75006 8.4375 7.6875 8.766 7.6875 9.375V9.87019C7.43794 9.63 7.13756 9.44363 6.80419 9.32662C7.22175 9.06 7.5 8.59369 7.5 8.0625C7.5 7.50881 7.19756 7.02525 6.75 6.76538V3.70856H6.73969C6.81769 3.64106 6.88613 3.56175 6.93863 3.46969L7.09988 3.1875H9.44662L8.50912 5.0625H8.0625V5.25C8.0625 6.18038 8.81944 6.9375 9.75 6.9375H10.125C11.0556 6.9375 11.8125 6.18038 11.8125 5.25V5.0625H11.3659L10.4284 3.1875ZM6 0.5625C6.20681 0.5625 6.375 0.730687 6.375 0.9375V1.3125H5.625V0.9375C5.625 0.730687 5.79319 0.5625 6 0.5625ZM2.25 6.5625H1.875C1.21481 6.5625 0.667125 6.07275 0.575813 5.4375H3.549C3.45788 6.07275 2.91019 6.5625 2.25 6.5625ZM3.07162 5.0625H1.05338L1.99088 3.1875H2.13412L3.07162 5.0625ZM0.75 2.8125C0.6465 2.8125 0.5625 2.72831 0.5625 2.625C0.5625 2.52169 0.6465 2.4375 0.75 2.4375H4.52287C4.54294 2.52956 4.57519 2.619 4.62225 2.70131L4.68581 2.8125H0.75ZM2.0625 9.55875V9.93375C1.77675 9.92212 1.52531 9.88425 1.3125 9.83175V9.46387C1.5495 9.51619 1.80562 9.54825 2.0625 9.55875ZM2.4375 9.55875C2.69438 9.54825 2.9505 9.51619 3.1875 9.46387V9.83175C2.97469 9.88425 2.72325 9.92212 2.4375 9.93375V9.55875ZM2.0625 10.3088V10.6838C1.77675 10.6721 1.52531 10.6342 1.3125 10.5817V10.2139C1.5495 10.2662 1.80562 10.2983 2.0625 10.3088ZM2.0625 11.0588V11.4338C1.77675 11.4221 1.52531 11.3842 1.3125 11.3317V10.9639C1.5495 11.0162 1.80562 11.0483 2.0625 11.0588ZM2.4375 11.0588C2.69438 11.0483 2.9505 11.0162 3.1875 10.9639V11.331C2.96269 11.3863 2.70694 11.4219 2.4375 11.4332V11.0588ZM2.4375 10.6838V10.3088C2.69438 10.2983 2.9505 10.2662 3.1875 10.2139V10.5817C2.97469 10.6342 2.72325 10.6721 2.4375 10.6838ZM3.5625 10.1064C3.70256 10.0562 3.82987 9.9975 3.9375 9.92962V10.125C3.9375 10.2283 3.80325 10.3524 3.5625 10.458V10.1064ZM3.5625 9.708V9.35662C3.70256 9.30638 3.82987 9.24769 3.9375 9.17981V9.375C3.9375 9.47831 3.80325 9.60244 3.5625 9.708ZM2.25 8.0625C3.28012 8.0625 3.9375 8.39569 3.9375 8.625C3.9375 8.85431 3.28012 9.1875 2.25 9.1875C1.21987 9.1875 0.5625 8.85431 0.5625 8.625C0.5625 8.39569 1.21987 8.0625 2.25 8.0625ZM0.5625 9.17962C0.670125 9.2475 0.797437 9.30619 0.9375 9.35644V9.70781C0.69675 9.60244 0.5625 9.47831 0.5625 9.375V9.17962ZM0.5625 9.92962C0.670125 9.9975 0.797437 10.0562 0.9375 10.1064V10.4578C0.69675 10.3524 0.5625 10.2283 0.5625 10.125V9.92962ZM0.5625 10.875V10.6796C0.670125 10.7475 0.797437 10.8062 0.9375 10.8564V11.2078C0.69675 11.1024 0.5625 10.9783 0.5625 10.875ZM3.5625 11.2071V10.8564C3.61369 10.8381 3.66281 10.8186 3.71006 10.7979C3.66469 10.9234 3.6285 11.0527 3.60413 11.1866C3.59006 11.1934 3.57713 11.2005 3.5625 11.2071ZM8.0625 9.92962C8.17013 9.9975 8.29744 10.0562 8.4375 10.1064V10.4578C8.19675 10.3523 8.0625 10.2281 8.0625 10.1248V9.92962ZM9.5625 11.4332C9.29306 11.4219 9.03731 11.3863 8.8125 11.331V10.9639C9.0495 11.0162 9.30562 11.0483 9.5625 11.0588V11.4332ZM9.9375 11.0588C10.1944 11.0483 10.4505 11.0162 10.6875 10.9639V11.3317C10.4747 11.3842 10.2233 11.4221 9.9375 11.4338V11.0588ZM9.9375 10.6838V10.3088C10.1944 10.2983 10.4505 10.2662 10.6875 10.2139V10.5817C10.4747 10.6342 10.2233 10.6721 9.9375 10.6838ZM9.5625 10.6838C9.27675 10.6721 9.02531 10.6342 8.8125 10.5817V10.2139C9.0495 10.2662 9.30562 10.2983 9.5625 10.3088V10.6838ZM8.28994 10.7979C8.33719 10.8186 8.38631 10.8381 8.4375 10.8564V11.2069C8.42288 11.2003 8.40994 11.1932 8.39587 11.1866C8.3715 11.0527 8.33531 10.9234 8.28994 10.7979ZM11.0625 11.208V10.8566C11.2026 10.8064 11.3299 10.7477 11.4375 10.6798V10.875C11.4375 10.9783 11.3033 11.1024 11.0625 11.208ZM11.0625 10.458V10.1066C11.2026 10.0564 11.3299 9.99769 11.4375 9.92981V10.125C11.4375 10.2283 11.3033 10.3524 11.0625 10.458ZM9.75 8.8125C10.7801 8.8125 11.4375 9.14569 11.4375 9.375C11.4375 9.60431 10.7801 9.9375 9.75 9.9375C8.71988 9.9375 8.0625 9.60431 8.0625 9.375C8.0625 9.14569 8.71988 8.8125 9.75 8.8125ZM8.05406 11.4375H7.5V10.5H7.125V11.4375H4.875V10.5H4.5V11.4375H3.94594C4.041 10.3877 4.92581 9.5625 6 9.5625C7.07419 9.5625 7.959 10.3877 8.05406 11.4375ZM7.125 8.0625C7.125 8.68294 6.62044 9.1875 6 9.1875C5.37956 9.1875 4.875 8.68294 4.875 8.0625C4.875 7.44206 5.37956 6.9375 6 6.9375C6.62044 6.9375 7.125 7.44206 7.125 8.0625ZM6.375 6.61181C6.25481 6.58069 6.12975 6.5625 6 6.5625C5.87025 6.5625 5.74519 6.58069 5.625 6.61181V3.90506C5.70319 3.92625 5.78456 3.9375 5.86744 3.9375H6.13256C6.21544 3.9375 6.29681 3.92625 6.375 3.90506V6.61181ZM6.61312 3.28369C6.51469 3.45563 6.33075 3.5625 6.13256 3.5625H5.86744C5.66925 3.5625 5.48531 3.45563 5.38706 3.28369L4.94794 2.51531C4.90031 2.43187 4.875 2.33681 4.875 2.24081C4.875 1.93575 5.12325 1.6875 5.42831 1.6875H6.57169C6.87675 1.6875 7.125 1.93575 7.125 2.24081C7.125 2.33681 7.09969 2.43187 7.05206 2.51531L6.61312 3.28369ZM7.37775 2.70131C7.42481 2.619 7.45706 2.52956 7.47712 2.4375H11.25C11.3535 2.4375 11.4375 2.52169 11.4375 2.625C11.4375 2.72831 11.3535 2.8125 11.25 2.8125H7.31419L7.37775 2.70131ZM9.86588 3.1875H10.0091L10.9466 5.0625H8.92838L9.86588 3.1875ZM10.125 6.5625H9.75C9.08981 6.5625 8.54212 6.07275 8.45081 5.4375H11.424C11.3329 6.07275 10.7852 6.5625 10.125 6.5625Z" fill="#2563EB"/>
<path d="M6 2.0625C5.68988 2.0625 5.4375 2.31488 5.4375 2.625C5.4375 2.93512 5.68988 3.1875 6 3.1875C6.31012 3.1875 6.5625 2.93512 6.5625 2.625C6.5625 2.31488 6.31012 2.0625 6 2.0625ZM6 2.8125C5.8965 2.8125 5.8125 2.72831 5.8125 2.625C5.8125 2.52169 5.8965 2.4375 6 2.4375C6.1035 2.4375 6.1875 2.52169 6.1875 2.625C6.1875 2.72831 6.1035 2.8125 6 2.8125Z" fill="#2563EB"/>
</g>
<defs>
<clipPath id="clip0_413_6836">
<rect width="12" height="12" fill="white"/>
</clipPath>
</defs>
</svg>
