<svg width="12" height="12" viewBox="0 0 12 12" fill="none" xmlns="http://www.w3.org/2000/svg">
<g clip-path="url(#clip0_413_6820)">
<path d="M5.80654 4.64511V5.03221H6.19364V4.64511C6.62061 4.64511 6.96783 4.29789 6.96783 3.87092C6.96783 3.44395 6.62061 3.09673 6.19364 3.09673H5.80654C5.59306 3.09673 5.41945 2.92311 5.41945 2.70963C5.41945 2.49615 5.59306 2.32253 5.80654 2.32253H6.19364C6.40712 2.32253 6.58074 2.49615 6.58074 2.70963H6.96783C6.96783 2.28266 6.62061 1.93544 6.19364 1.93544V1.54834H5.80654V1.93544C5.37957 1.93544 5.03235 2.28266 5.03235 2.70963C5.03235 3.1366 5.37957 3.48382 5.80654 3.48382H6.19364C6.40712 3.48382 6.58074 3.65744 6.58074 3.87092C6.58074 4.0844 6.40712 4.25802 6.19364 4.25802H5.80654C5.59306 4.25802 5.41945 4.0844 5.41945 3.87092V3.67737H5.03235V3.87092C5.03235 4.29789 5.37957 4.64511 5.80654 4.64511Z" fill="#2563EB"/>
<path d="M6.00008 6.58064C7.81441 6.58064 9.29041 5.10464 9.29041 3.29032C9.29041 1.476 7.81441 0 6.00008 0C4.18576 0 2.70976 1.476 2.70976 3.29032C2.70976 5.10464 4.18576 6.58064 6.00008 6.58064ZM3.87105 3.29032C3.87105 2.11645 4.82621 1.16129 6.00008 1.16129C7.17396 1.16129 8.12912 2.11645 8.12912 3.29032C8.12912 4.46419 7.17396 5.41935 6.00008 5.41935C4.82621 5.41935 3.87105 4.46419 3.87105 3.29032ZM4.36499 5.1989C4.51634 5.32877 4.68299 5.44006 4.86221 5.53142L4.71396 5.8891C4.48809 5.77684 4.27925 5.6369 4.09131 5.47239L4.36499 5.1989ZM5.21931 5.68103C5.40647 5.74239 5.60312 5.7811 5.80654 5.79677V6.18387C5.55105 6.16684 5.30467 6.11768 5.07125 6.03852L5.21931 5.68103ZM6.19363 5.79658C6.39705 5.7809 6.5937 5.74219 6.78086 5.68084L6.92892 6.03832C6.6955 6.11748 6.44912 6.16664 6.19363 6.18368V5.79658ZM7.13776 5.53161C7.31699 5.44026 7.48363 5.32877 7.63499 5.1991L7.90867 5.47277C7.72073 5.63729 7.51189 5.77723 7.28602 5.88948L7.13776 5.53161ZM7.90867 4.92523C8.03834 4.77387 8.14983 4.60723 8.24118 4.428L8.59886 4.57626C8.4866 4.80213 8.34666 5.01097 8.18215 5.1989L7.90867 4.92523ZM8.3906 4.0711C8.45196 3.88394 8.49066 3.68729 8.50634 3.48387H8.89344C8.87641 3.73935 8.82725 3.98574 8.74808 4.21916L8.3906 4.0711ZM8.50634 3.09677C8.49066 2.89335 8.45196 2.69671 8.3906 2.50955L8.74808 2.36148C8.82725 2.5949 8.87641 2.84129 8.89344 3.09677H8.50634ZM8.24118 2.15245C8.14983 1.97342 8.03834 1.80658 7.90867 1.65523L8.18234 1.38155C8.34686 1.56948 8.48679 1.77832 8.59905 2.00419L8.24118 2.15245ZM7.63499 1.38174C7.48363 1.25187 7.31699 1.14058 7.13776 1.04923L7.28602 0.691548C7.51189 0.803806 7.72073 0.943742 7.90867 1.10826L7.63499 1.38174ZM6.78066 0.899613C6.5935 0.838258 6.39686 0.799548 6.19344 0.783871V0.396774C6.44892 0.413806 6.69531 0.462968 6.92873 0.542129L6.78066 0.899613ZM5.80654 0.784064C5.60312 0.799742 5.40647 0.838452 5.21931 0.899806L5.07125 0.542129C5.30467 0.462968 5.55105 0.413806 5.80654 0.396774V0.784064ZM4.86221 1.04903C4.68299 1.14039 4.51634 1.25187 4.36499 1.38155L4.09131 1.10787C4.27925 0.943355 4.48809 0.803419 4.71396 0.691161L4.86221 1.04903ZM4.09131 1.65542C3.96163 1.80677 3.85015 1.97342 3.75879 2.15264L3.40112 2.00439C3.51338 1.77852 3.65331 1.56968 3.81783 1.38174L4.09131 1.65542ZM3.60938 2.50955C3.54821 2.69671 3.50931 2.89335 3.49363 3.09677H3.10654C3.12357 2.84129 3.17273 2.5949 3.25189 2.36148L3.60938 2.50955ZM3.49363 3.48387C3.50931 3.68729 3.54802 3.88394 3.60938 4.0711L3.25189 4.21916C3.17273 3.98574 3.12357 3.73935 3.10654 3.48387H3.49363ZM3.75879 4.42819C3.85015 4.60723 3.96163 4.77406 4.09131 4.92542L3.81763 5.1991C3.65312 5.01116 3.51318 4.80232 3.40092 4.57645L3.75879 4.42819Z" fill="#2563EB"/>
<path d="M8.90332 6.96777H3.09687C2.77674 6.96777 2.51622 7.22829 2.51622 7.54842V11.4194C2.51622 11.7395 2.77674 12 3.09687 12H8.90332C9.22345 12 9.48396 11.7395 9.48396 11.4194V7.54842C9.48396 7.22829 9.22345 6.96777 8.90332 6.96777ZM3.09687 7.35487H8.90332C9.01016 7.35487 9.09687 7.44177 9.09687 7.54842V8.12906H2.90332V7.54842C2.90332 7.44177 2.99003 7.35487 3.09687 7.35487ZM9.09687 8.51616V8.90326H2.90332V8.51616H9.09687ZM8.90332 11.6129H3.09687C2.99003 11.6129 2.90332 11.526 2.90332 11.4194V9.29035H9.09687V11.4194C9.09687 11.526 9.00996 11.6129 8.90332 11.6129Z" fill="#2563EB"/>
<path d="M6.00009 11.2258H8.70977V9.67737H6.00009V11.2258ZM7.16138 10.8387V10.0645H7.54848V10.8387H7.16138ZM8.32267 10.8387H7.93558V10.0645H8.32267V10.8387ZM6.38719 10.0645H6.77429V10.8387H6.38719V10.0645Z" fill="#2563EB"/>
<path d="M3.29041 10.8387H4.83879V11.2258H3.29041V10.8387Z" fill="#2563EB"/>
<path d="M3.29041 10.0646H4.83879V10.4517H3.29041V10.0646Z" fill="#2563EB"/>
<path d="M11.6577 8.97295L11.4194 9.25902V2.32263H11.0323V9.72353L10.8388 9.95579L10.6452 9.72353V2.32263H10.2581V9.25902L10.0197 8.97295L9.72221 9.2207L10.8388 10.5604L11.9552 9.2207L11.6577 8.97295Z" fill="#2563EB"/>
<path d="M11.0323 0.77417H11.4194V1.16127H11.0323V0.77417Z" fill="#2563EB"/>
<path d="M11.0323 1.54834H11.4194V1.93544H11.0323V1.54834Z" fill="#2563EB"/>
<path d="M11.0323 0H11.4194V0.387097H11.0323V0Z" fill="#2563EB"/>
<path d="M0.0447998 2.77932L0.342284 3.02706L0.580735 2.74099V9.67738H0.967832V2.27648L1.16138 2.04422L1.35493 2.27648V9.67738H1.74203V2.74099L1.98028 3.02706L2.27777 2.77932L1.16138 1.43958L0.0447998 2.77932Z" fill="#2563EB"/>
<path d="M0.580734 10.0646H0.967831V10.4517H0.580734V10.0646Z" fill="#2563EB"/>
<path d="M0.580734 11.6129H0.967831V12H0.580734V11.6129Z" fill="#2563EB"/>
<path d="M0.580734 10.8387H0.967831V11.2258H0.580734V10.8387Z" fill="#2563EB"/>
</g>
<defs>
<clipPath id="clip0_413_6820">
<rect width="12" height="12" fill="white"/>
</clipPath>
</defs>
</svg>
