<svg width="12" height="12" viewBox="0 0 12 12" fill="none" xmlns="http://www.w3.org/2000/svg">
<g clip-path="url(#clip0_413_7086)">
<path d="M11.1893 1.16859H9.64103V0.798984C9.64103 0.358359 9.28267 0 8.84204 0C8.40142 0 8.04306 0.358359 8.04306 0.798984V1.16859H3.95673V0.798984C3.95673 0.358359 3.59837 0 3.15774 0C2.71712 0 2.35876 0.358359 2.35876 0.798984V1.16859H0.810713C0.412275 1.16859 0.0881348 1.49273 0.0881348 1.89117V5.9318V9.04828V11.2772C0.0881348 11.6756 0.412275 11.9998 0.810713 11.9998H11.1895C11.588 11.9998 11.9121 11.6756 11.9121 11.2772V1.89117C11.9119 1.49273 11.5877 1.16859 11.1893 1.16859ZM8.41876 0.798984C8.41876 0.565547 8.60884 0.375469 8.84227 0.375469C9.07571 0.375469 9.26579 0.565547 9.26579 0.798984V1.91391C9.26579 2.14711 9.07571 2.33672 8.84227 2.33672C8.60884 2.33672 8.41876 2.14688 8.41876 1.91391V0.798984ZM2.73423 0.798984C2.73423 0.565547 2.92431 0.375469 3.15774 0.375469C3.39118 0.375469 3.58126 0.565547 3.58126 0.798984V1.91391C3.58126 2.14711 3.39118 2.33672 3.15774 2.33672C2.92431 2.33672 2.73423 2.14711 2.73423 1.91391V0.798984ZM0.810713 1.54406H2.35899V1.91391C2.35899 2.35406 2.71735 2.71219 3.15798 2.71219C3.5986 2.71219 3.95696 2.35406 3.95696 1.91391V1.54406H8.04353V1.91391C8.04353 2.35406 8.40188 2.71219 8.84251 2.71219C9.28313 2.71219 9.64149 2.35406 9.64149 1.91391V1.54406H11.1898C11.3813 1.54406 11.5369 1.69969 11.5369 1.89117V3.45938H0.463369V1.89117C0.463369 1.69969 0.619228 1.54406 0.810713 1.54406ZM10.1456 6.97102C9.90962 6.68602 9.86532 6.28336 10.0343 5.95359L10.5987 6.40664L10.1456 6.97102ZM9.90728 7.26797L7.75313 9.9518C7.51173 9.80906 7.23212 9.74789 6.94829 9.77906C6.6647 9.81 6.40501 9.93 6.20017 10.1217L5.72978 9.74438C5.88165 9.48633 5.94048 9.18281 5.89571 8.88609L6.74462 8.53125C6.96727 8.8057 7.29798 8.97797 7.65657 9.00023C7.68399 9.00187 7.71118 9.00281 7.73837 9.00281C8.12485 9.00281 8.48134 8.83219 8.72649 8.52727C8.93931 8.26195 9.03634 7.92961 8.99907 7.59164C8.96204 7.25367 8.7954 6.95016 8.53009 6.73734C8.11313 6.40289 7.5429 6.36469 7.08845 6.63328C6.99399 6.6218 6.89696 6.62602 6.80087 6.64711L7.61228 5.63625C7.61462 5.63344 7.61696 5.63062 7.61907 5.62781L7.7147 5.50875C7.91485 5.62734 8.14149 5.68969 8.3747 5.68969C8.42274 5.68969 8.47102 5.68711 8.51931 5.68172C8.8029 5.65055 9.06259 5.53055 9.2672 5.33883L9.73712 5.71594C9.44485 6.21164 9.51446 6.84703 9.90728 7.26797ZM7.51478 10.2487L7.06196 10.8129L6.49735 10.3598C6.6361 10.2445 6.80579 10.1721 6.98931 10.152C7.17306 10.132 7.35423 10.166 7.51478 10.2487ZM5.11923 9.25383C5.15087 9.22758 5.18181 9.20062 5.2111 9.17203L5.53431 9.0368C5.54204 9.19898 5.50712 9.36094 5.43306 9.50555L5.11923 9.25383ZM7.78829 7.16555C7.78829 7.16531 7.78829 7.16531 7.78829 7.16555C7.78829 7.16531 7.78829 7.16531 7.78806 7.16531C7.73673 7.03969 7.65915 6.93258 7.56423 6.84773C7.81688 6.79875 8.08407 6.86039 8.29548 7.02984C8.48251 7.18008 8.60017 7.39406 8.62618 7.63242C8.6522 7.87078 8.58399 8.10516 8.43399 8.29195C8.24907 8.52211 7.97415 8.64352 7.67978 8.62547C7.46087 8.61187 7.26259 8.52398 7.11142 8.37774L7.31227 8.29383C7.75431 8.11336 7.96759 7.60734 7.78829 7.16555ZM8.47853 5.30789C8.29478 5.32805 8.1136 5.29383 7.95306 5.21133L8.40587 4.64719L8.97024 5.1C8.83173 5.21531 8.66228 5.28773 8.47853 5.30789ZM6.0954 6.92602L4.5204 7.58438C4.42478 7.62445 4.37954 7.73437 4.41962 7.83C4.44962 7.90195 4.51946 7.94531 4.59282 7.94531C4.61696 7.94531 4.64157 7.94063 4.66524 7.93078L6.80087 7.03781C6.89368 7.00008 6.99142 6.99281 7.08282 7.01156C7.08657 7.0125 7.09009 7.01344 7.09384 7.01414C7.24478 7.04836 7.37767 7.15289 7.44048 7.30688C7.54196 7.55719 7.42103 7.84406 7.16931 7.94672L5.03204 8.84039C5.0086 8.85023 4.98751 8.86453 4.9697 8.88281C4.89681 8.95805 4.81243 9.0232 4.71985 9.07781C4.71563 9.07992 4.71165 9.0825 4.70767 9.08484C4.49978 9.20414 4.25017 9.26953 3.98767 9.26953C3.44532 9.26953 2.96813 8.98992 2.80056 8.57391C2.77196 8.50289 2.70306 8.45648 2.62642 8.45648H1.93431V6.52453H2.14595C2.50337 6.52453 2.81017 6.4643 3.14087 6.3293L5.30134 5.44969C5.81064 5.24227 6.30587 5.24227 6.8154 5.44969L7.16603 5.59242L6.0954 6.92602ZM1.55907 8.86078H0.463369V6.11953H1.55884V8.86078H1.55907ZM11.1893 11.6245H0.810713C0.619228 11.6245 0.463604 11.4689 0.463604 11.2774V9.23625H1.74681C1.8504 9.23625 1.93454 9.15234 1.93454 9.04852V8.83172H2.50688C2.7661 9.32297 3.34384 9.645 3.98767 9.645C4.27173 9.645 4.54501 9.58242 4.78524 9.46734L5.35759 9.92648C5.35829 9.92719 5.35899 9.92789 5.3597 9.92836C5.36063 9.92906 5.36157 9.92977 5.36251 9.93047L6.09587 10.519C6.09774 10.5206 6.09938 10.5223 6.10126 10.5237C6.10337 10.5255 6.10571 10.527 6.10806 10.5286L6.9736 11.2233C7.00829 11.2512 7.04977 11.2645 7.09102 11.2645C7.14587 11.2645 7.20048 11.2406 7.23751 11.1942L11.0091 6.49523C11.0402 6.45633 11.0548 6.40688 11.0494 6.35742C11.044 6.30797 11.0191 6.26273 10.9802 6.23156L8.49493 4.23703C8.41407 4.17211 8.29595 4.185 8.23103 4.26586L7.41142 5.2868L6.9572 5.10187C6.36095 4.85906 5.75626 4.85906 5.16001 5.10187L2.99931 5.98148C2.71571 6.09727 2.45251 6.14883 2.14618 6.14883H1.93454V5.93203C1.93454 5.82844 1.85063 5.7443 1.74681 5.7443H0.463369V3.83484H11.5364V11.2774C11.5367 11.4689 11.3808 11.6245 11.1893 11.6245Z" fill="#2563EB"/>
</g>
<defs>
<clipPath id="clip0_413_7086">
<rect width="12" height="12" fill="white"/>
</clipPath>
</defs>
</svg>
