<svg width="12" height="12" viewBox="0 0 12 12" fill="none" xmlns="http://www.w3.org/2000/svg">
<path d="M9.01882 2.40161C7.78856 2.40161 6.78766 3.401 6.78766 4.62941C6.78766 5.85782 7.78856 6.85721 9.01882 6.85721C10.2491 6.85721 11.25 5.85782 11.25 4.62941C11.25 3.401 10.2491 2.40161 9.01882 2.40161ZM9.09641 5.63979C8.99287 5.63979 8.90891 5.55584 8.90891 5.45229C8.90891 5.34873 8.99287 5.26479 9.09641 5.26479C9.72028 5.26479 9.72028 4.31376 9.09641 4.31376H8.67838L8.88534 4.55894C8.95213 4.63807 8.94212 4.75636 8.863 4.82316C8.78404 4.88984 8.6657 4.88008 8.59878 4.80082L8.13147 4.2472C8.0721 4.17683 8.07332 4.07395 8.13147 4.00532L8.59878 3.45171C8.66557 3.37254 8.78387 3.36259 8.863 3.42937C8.94212 3.49617 8.95213 3.61447 8.88534 3.69359L8.67838 3.93876H9.09641C9.56118 3.93876 9.93932 4.31639 9.93932 4.78058C9.93932 5.28928 9.54036 5.63979 9.09641 5.63979Z" fill="#2563EB"/>
<path d="M9.24895 8.66214C9.14541 8.66214 9.06145 8.74609 9.06145 8.84964V10.3403C9.06145 10.4929 8.93699 10.617 8.784 10.617H1.40245C1.24947 10.617 1.125 10.4929 1.125 10.3403V2.65259H2.40436C2.5079 2.65259 2.59186 2.56865 2.59186 2.46509V1.38293H8.784C8.93699 1.38293 9.06145 1.50706 9.06145 1.65962V1.82198C9.06145 1.92553 9.14541 2.00948 9.24895 2.00948C9.3525 2.00948 9.43645 1.92553 9.43645 1.82198V1.65962C9.43645 1.30027 9.14376 1.00793 8.784 1.00793L2.40423 1.00794C2.36178 1.00794 2.31652 1.02354 2.28165 1.05367L0.814796 2.32332C0.775787 2.35712 0.75 2.40884 0.75 2.46509V10.3403C0.75 10.6997 1.04269 10.992 1.40245 10.992H8.784C9.14376 10.992 9.43645 10.6997 9.43645 10.3403V8.84964C9.43645 8.74609 9.3525 8.66214 9.24895 8.66214ZM2.21686 1.60571V2.27759H1.44063L2.21686 1.60571Z" fill="#2563EB"/>
<path d="M2.80566 6.2548C2.54349 6.2548 2.3302 6.042 2.3302 5.78044C2.3302 5.67688 2.24625 5.59294 2.1427 5.59294C2.03915 5.59294 1.9552 5.67688 1.9552 5.78044C1.9552 6.18442 2.23917 6.5232 2.61816 6.60874V6.9594C2.61816 7.06295 2.70211 7.1469 2.80566 7.1469C2.9092 7.1469 2.99316 7.06295 2.99316 6.9594V6.60874C3.37214 6.5232 3.65611 6.18442 3.65611 5.78044C3.65611 5.3121 3.27459 4.93108 2.80566 4.93108C2.54349 4.93108 2.3302 4.71829 2.3302 4.45672C2.3302 4.19516 2.5435 3.98236 2.80566 3.98236C3.06782 3.98236 3.28111 4.19516 3.28111 4.45672C3.28111 4.56028 3.36507 4.64422 3.46861 4.64422C3.57216 4.64422 3.65611 4.56028 3.65611 4.45672C3.65611 4.05274 3.37214 3.71396 2.99316 3.62842V3.21558C2.99316 3.11202 2.9092 3.02808 2.80566 3.02808C2.70211 3.02808 2.61816 3.11202 2.61816 3.21558V3.62842C2.23917 3.71396 1.9552 4.05274 1.9552 4.45672C1.9552 4.92506 2.33672 5.30608 2.80566 5.30608C3.06782 5.30608 3.28111 5.51887 3.28111 5.78044C3.28111 6.042 3.06782 6.2548 2.80566 6.2548Z" fill="#2563EB"/>
<path d="M1.9552 9.96213C1.9552 10.0657 2.03915 10.1496 2.1427 10.1496L8.04437 10.1453C8.14767 10.1449 8.23121 10.0611 8.23121 9.95776V7.55896C8.23121 7.4554 8.14725 7.37146 8.04371 7.37146H6.78754C6.68399 7.37146 6.60004 7.4554 6.60004 7.55896V9.77311L5.8667 9.77381V8.25904C5.8667 8.15548 5.78275 8.07154 5.6792 8.07154H4.50721C4.40366 8.07154 4.31971 8.15548 4.31971 8.25904V9.77529L3.58637 9.776V8.83775C3.58637 8.73419 3.50242 8.65025 3.39887 8.65025H2.1427C2.03915 8.65025 1.9552 8.73419 1.9552 8.83775L1.9552 9.96213ZM6.97504 7.74646H7.85621V9.77091L7.45954 9.77229C7.45949 9.77229 7.45944 9.77228 7.4594 9.77228H7.45921L6.97504 9.77275V7.74646ZM4.69471 9.77463V8.44654H5.4917V9.77417L5.0125 9.77463H4.69471ZM2.3302 9.02525H3.21137V9.77463H2.3302V9.02525Z" fill="#2563EB"/>
<path d="M9.24897 7.64553C9.36551 7.64553 9.45998 7.55106 9.45998 7.43452C9.45998 7.31798 9.36551 7.22351 9.24897 7.22351C9.13244 7.22351 9.03796 7.31798 9.03796 7.43452C9.03796 7.55106 9.13244 7.64553 9.24897 7.64553Z" fill="#2563EB"/>
<path d="M9.24897 8.30178C9.36551 8.30178 9.45998 8.20731 9.45998 8.09077C9.45998 7.97423 9.36551 7.87976 9.24897 7.87976C9.13244 7.87976 9.03796 7.97423 9.03796 8.09077C9.03796 8.20731 9.13244 8.30178 9.24897 8.30178Z" fill="#2563EB"/>
<path d="M4.16406 3.55078H6.07889C6.18243 3.55078 6.26639 3.46684 6.26639 3.36328C6.26639 3.25972 6.18243 3.17578 6.07889 3.17578H4.16406C4.06052 3.17578 3.97656 3.25972 3.97656 3.36328C3.97656 3.46684 4.06052 3.55078 4.16406 3.55078Z" fill="#2563EB"/>
<path d="M4.16406 4.7002H6.07889C6.18243 4.7002 6.26639 4.61625 6.26639 4.5127C6.26639 4.40914 6.18243 4.3252 6.07889 4.3252H4.16406C4.06052 4.3252 3.97656 4.40914 3.97656 4.5127C3.97656 4.61625 4.06052 4.7002 4.16406 4.7002Z" fill="#2563EB"/>
<path d="M6.10483 5.47461H4.19C4.08646 5.47461 4.0025 5.55855 4.0025 5.66211C4.0025 5.76567 4.08646 5.84961 4.19 5.84961H6.10483C6.20837 5.84961 6.29233 5.76567 6.29233 5.66211C6.29233 5.55855 6.20837 5.47461 6.10483 5.47461Z" fill="#2563EB"/>
<path d="M4.16406 6.99915H6.07889C6.18243 6.99915 6.26639 6.9152 6.26639 6.81165C6.26639 6.70809 6.18243 6.62415 6.07889 6.62415H4.16406C4.06052 6.62415 3.97656 6.70809 3.97656 6.81165C3.97656 6.9152 4.06052 6.99915 4.16406 6.99915Z" fill="#2563EB"/>
</svg>
