<svg width="104" height="104" viewBox="0 0 104 104" fill="none" xmlns="http://www.w3.org/2000/svg">
<rect width="104" height="104" rx="8" fill="#3C61D6"/>
<g clip-path="url(#clip0_569_1579)">
<path d="M82.0606 81.0909H78.0849V53.9394C78.0849 53.3576 77.697 52.9697 77.1152 52.9697H72.5576C71.9758 52.9697 71.5879 53.3576 71.5879 53.9394V81.0909H67.1273V58.9818C67.1273 58.4 66.7394 58.0121 66.1576 58.0121H61.6C61.0182 58.0121 60.6303 58.4 60.6303 58.9818V81.0909H56.1697V68.097C56.1697 67.5151 55.7818 67.1273 55.2 67.1273H50.6425C50.0606 67.1273 49.6728 67.5151 49.6728 68.097V81.0909H45.2122V65.0909C45.2122 64.5091 44.8243 64.1212 44.2425 64.1212H39.6849C39.1031 64.1212 38.7152 64.5091 38.7152 65.0909V81.0909H34.2546V72.1697C34.2546 71.5879 33.8667 71.2 33.2849 71.2H28.7273C28.1455 71.2 27.7576 71.5879 27.7576 72.1697V81.0909H22.9091V29.503C22.9091 28.9212 22.5212 28.5333 21.9394 28.5333C21.3576 28.5333 20.9697 28.9212 20.9697 29.503V82.0606C20.9697 82.6424 21.3576 83.0303 21.9394 83.0303H82.0606C82.6425 83.0303 83.0303 82.6424 83.0303 82.0606C83.0303 81.4788 82.6425 81.0909 82.0606 81.0909ZM32.3152 81.0909H29.697V73.1394H32.3152V81.0909ZM43.2728 81.0909H40.6546V66.0606H43.2728V81.0909ZM54.2303 81.0909H51.6122V69.0667H54.2303V81.0909ZM65.1879 81.0909H62.5697V59.9515H65.1879V81.0909ZM76.1455 81.0909H73.5273V54.9091H76.1455V81.0909Z" fill="white"/>
<path d="M30.9576 60.2425C28.8243 60.2425 27.1758 61.988 27.1758 64.0243C27.1758 66.0607 28.9212 67.8061 30.9576 67.8061C32.994 67.8061 34.7394 66.0607 34.7394 64.0243C34.7394 63.5395 34.6424 63.0546 34.4485 62.6668L39.4909 59.0789C40.1697 59.6607 40.9455 59.9516 41.9152 59.9516C43.2728 59.9516 44.4364 59.2728 45.1152 58.2062L49.0909 59.5637V59.8546C49.0909 61.988 50.8364 63.6365 52.8728 63.6365C54.9091 63.6365 56.6546 61.891 56.6546 59.8546C56.6546 59.2728 56.5576 58.788 56.2667 58.3031L61.5031 54.1334C62.1818 54.6183 62.9576 54.9092 63.7334 54.9092C65.8667 54.9092 67.5152 53.1637 67.5152 51.1274C67.5152 50.7395 67.4182 50.3516 67.3212 49.9637L72.0728 46.9577C72.7515 47.6365 73.6243 48.0243 74.6909 48.0243C76.8243 48.0243 78.4728 46.2789 78.4728 44.2425C78.4728 42.1092 76.7273 40.4607 74.6909 40.4607C72.5576 40.4607 70.9091 42.2061 70.9091 44.2425C70.9091 44.6304 71.0061 45.0183 71.1031 45.4061L66.5455 48.3152C65.8667 47.6365 64.994 47.2486 63.9273 47.2486C61.794 47.2486 60.1455 48.994 60.1455 51.0304C60.1455 51.6122 60.2424 52.0971 60.5334 52.5819L55.2 56.8486C54.5212 56.3637 53.7455 56.0728 52.9697 56.0728C51.6121 56.0728 50.4485 56.7516 49.7697 57.8183L45.794 56.4607C45.794 56.3637 45.794 56.2668 45.794 56.1698C45.794 54.0365 44.0485 52.388 42.0121 52.388C39.9758 52.388 38.2303 54.1334 38.2303 56.1698C38.2303 56.6546 38.3273 57.1395 38.5212 57.5274L33.5758 61.1152C32.8 60.6304 31.9273 60.2425 30.9576 60.2425ZM30.9576 65.9637C29.8909 65.9637 29.1152 65.091 29.1152 64.1213C29.1152 63.1516 29.9879 62.2789 30.9576 62.2789C31.5394 62.2789 32.1212 62.5698 32.5091 63.0546C32.7031 63.3455 32.897 63.7334 32.897 64.1213C32.897 65.091 32.0243 65.9637 30.9576 65.9637ZM74.8849 42.3031C75.9515 42.3031 76.7273 43.1758 76.7273 44.1455C76.7273 45.1152 75.8546 45.988 74.8849 45.988C74.2061 45.988 73.6243 45.6001 73.3334 45.1152C73.1394 44.8243 73.0424 44.4365 73.0424 44.1455C72.9455 43.1758 73.8182 42.3031 74.8849 42.3031ZM63.9273 49.188C64.994 49.188 65.7697 50.0607 65.7697 51.0304C65.7697 52.0001 64.897 52.9698 63.9273 52.9698C62.9576 52.9698 62.0849 52.0971 62.0849 51.1274C62.0849 50.1577 62.8606 49.188 63.9273 49.188ZM52.9697 58.0122C54.0364 58.0122 54.8121 58.8849 54.8121 59.8546C54.8121 60.8243 53.9394 61.794 52.9697 61.794C52 61.794 51.0303 61.0183 51.0303 59.9516C51.0303 58.8849 51.9031 58.0122 52.9697 58.0122ZM42.0121 54.2304C43.0788 54.2304 43.8546 55.1031 43.8546 56.0728C43.8546 57.0425 42.9818 57.9152 42.0121 57.9152C41.4303 57.9152 40.8485 57.6243 40.4606 57.1395C40.2667 56.8486 40.0728 56.4607 40.0728 56.0728C40.0728 55.1031 40.9455 54.2304 42.0121 54.2304Z" fill="white"/>
<path d="M48.7998 51.0303C57.0423 51.0303 63.8301 44.2425 63.8301 36C63.8301 27.7576 57.1392 20.9697 48.7998 20.9697C40.4604 20.9697 33.7695 27.7576 33.7695 36C33.7695 44.3394 40.5574 51.0303 48.7998 51.0303ZM47.8301 23.0061V24.4606C47.8301 25.0425 48.218 25.4303 48.7998 25.4303C49.3817 25.4303 49.7695 25.0425 49.7695 24.4606V23.0061C56.1695 23.4909 61.4059 28.6303 61.7938 35.0303H60.3392C59.7574 35.0303 59.3695 35.4182 59.3695 36C59.3695 36.5818 59.7574 36.9697 60.3392 36.9697H61.7938C61.3089 43.3697 56.1695 48.6061 49.7695 48.994V47.5394C49.7695 46.9576 49.3817 46.5697 48.7998 46.5697C48.218 46.5697 47.8301 46.9576 47.8301 47.5394V49.0909C41.4301 48.6061 36.1938 43.4667 35.8059 37.0667H37.2604C37.8423 37.0667 38.2301 36.6788 38.2301 36.097C38.2301 35.5152 37.8423 35.1273 37.2604 35.1273H35.8059C36.2907 28.6303 41.4301 23.4909 47.8301 23.0061Z" fill="white"/>
<path d="M44.4362 43.6607C44.921 43.9516 45.5029 43.7577 45.7938 43.2728L48.121 39.2001C48.315 39.2971 48.6059 39.2971 48.8968 39.2971C50.7392 39.2971 52.1938 37.8425 52.1938 36.0001C52.1938 34.5455 51.2241 33.2849 49.8665 32.8971V27.7577C49.8665 27.1758 49.4786 26.788 48.8968 26.788C48.315 26.788 47.9271 27.1758 47.9271 27.7577V32.8971C46.5695 33.2849 45.5998 34.5455 45.5998 36.0001C45.5998 36.8728 45.8907 37.6486 46.4725 38.2304L44.0483 42.3031C43.7574 42.788 43.9513 43.3698 44.4362 43.6607ZM48.7998 34.6425C49.5756 34.6425 50.1574 35.2243 50.1574 36.0001C50.1574 36.7758 49.5756 37.3577 48.7998 37.3577C48.5089 37.3577 48.315 37.2607 48.121 37.1637C47.7332 36.9698 47.4422 36.4849 47.4422 36.0001C47.4422 35.3213 48.0241 34.6425 48.7998 34.6425Z" fill="white"/>
</g>
<defs>
<clipPath id="clip0_569_1579">
<rect width="64" height="64" fill="white" transform="translate(20 20)"/>
</clipPath>
</defs>
</svg>
