<svg width="104" height="104" viewBox="0 0 104 104" fill="none" xmlns="http://www.w3.org/2000/svg">
<rect width="104" height="104" rx="8" fill="#3C61D6"/>
<path d="M50.7747 49.2258C48.4797 49.2258 46.6124 51.093 46.6124 53.388C46.6124 54.6453 47.1654 55.806 48.1158 56.5913V60.9048C48.1158 62.371 49.3085 63.5637 50.7747 63.5637C52.2408 63.5637 53.4335 62.371 53.4335 60.9048V56.5913C54.384 55.8058 54.9368 54.6453 54.9368 53.388C54.9369 51.093 53.0698 49.2258 50.7747 49.2258ZM51.9083 55.2297C51.6133 55.4118 51.4337 55.7338 51.4337 56.0806V60.905C51.4337 61.2621 51.1319 61.5638 50.7748 61.5638C50.4177 61.5638 50.1159 61.2622 50.1159 60.905V56.0806C50.1159 55.7338 49.9362 55.4117 49.6412 55.2296C48.997 54.832 48.6125 54.1436 48.6125 53.3881C48.6125 52.196 49.5825 51.226 50.7748 51.226C51.967 51.226 52.937 52.196 52.937 53.3881C52.9369 54.1435 52.5524 54.832 51.9083 55.2297ZM76.3138 59.0378C76.6942 57.0972 76.8893 55.0931 76.8893 53.0707V32.7632C76.8893 32.3632 76.6509 32.0016 76.2832 31.844L51.1687 21.0807C50.9172 20.9731 50.6323 20.9731 50.3808 21.0807L25.2663 31.8441C24.8987 32.0017 24.6602 32.3632 24.6602 32.7633V53.0708C24.6602 60.542 27.2165 67.3793 32.0529 72.8438C36.7145 78.1111 43.3024 81.7126 50.6029 82.9852C50.6598 82.9951 50.7172 83.0001 50.7747 83.0001C50.8322 83.0001 50.8895 82.9951 50.9464 82.9852C55.7227 82.1527 60.253 80.307 64.0878 77.642C65.2693 78.0538 66.5377 78.2785 67.8577 78.2785C74.1888 78.2785 79.3395 73.1277 79.3395 66.7967C79.3397 63.8078 78.1915 61.0827 76.3138 59.0378ZM50.7747 80.9845C36.5675 78.4297 26.6602 66.975 26.6602 53.0707V33.4227L50.7747 23.088L74.8892 33.4227V53.0708C74.8892 54.5577 74.7764 56.0332 74.5564 57.477C73.8327 56.9553 73.046 56.516 72.2102 56.1723C72.3285 55.1516 72.3893 54.1121 72.3893 53.0708V35.7305C72.3893 35.3305 72.1509 34.9688 71.7832 34.8112L51.1687 25.9766C50.9172 25.869 50.6323 25.869 50.3808 25.9766L29.7663 34.8113C29.3987 34.969 29.1602 35.3305 29.1602 35.7306V53.0708C29.1602 59.3262 31.2649 65.0631 35.2468 69.6612C39.1214 74.1355 44.4223 77.158 50.5765 78.4018C50.6419 78.415 50.7083 78.4216 50.7747 78.4216C50.841 78.4216 50.9074 78.415 50.9728 78.4018C54.1677 77.7561 57.1507 76.6186 59.8533 75.0198C60.4923 75.642 61.2029 76.1905 61.972 76.6515C58.6387 78.7722 54.8034 80.2595 50.7747 80.9845ZM56.4319 65.6626H39.8982C39.5544 65.6626 39.2748 65.383 39.2748 65.0393V47.7503C39.2748 47.4066 39.5544 47.127 39.8982 47.127H61.6513C61.995 47.127 62.2747 47.4066 62.2747 47.7503V56.7666C59.0712 58.5568 56.8087 61.8367 56.4319 65.6626ZM58.6588 45.1268H56.5915V42.4712C56.5915 39.2638 53.982 36.6543 50.7747 36.6543C47.5673 36.6543 44.9578 39.2638 44.9578 42.4712V45.1268H42.8907V42.4712C42.8907 38.1241 46.4274 34.5873 50.7747 34.5873C55.1219 34.5873 58.6588 38.1241 58.6588 42.4712V45.1268ZM46.9578 45.1268V42.4712C46.9578 40.3666 48.67 38.6543 50.7747 38.6543C52.8793 38.6543 54.5915 40.3666 54.5915 42.4712V45.1268H46.9578ZM61.6513 45.1268H60.6589V42.4712C60.6589 37.0212 56.2249 32.5873 50.7748 32.5873C45.3247 32.5873 40.8908 37.0213 40.8908 42.4712V45.1268H39.8983C38.4518 45.1268 37.2749 46.3037 37.2749 47.7502V65.0392C37.2749 66.4857 38.4518 67.6625 39.8983 67.6625H56.4087C56.5704 69.8213 57.3322 71.8156 58.5268 73.479C56.155 74.837 53.5535 75.8182 50.7749 76.4003C39.0332 73.9413 31.1604 64.5897 31.1604 53.0706V36.39L50.7749 27.9838L70.3895 36.39V53.0707C70.3895 53.9085 70.3468 54.7447 70.264 55.569C69.4879 55.4027 68.683 55.3146 67.8579 55.3146C66.6072 55.3146 65.4029 55.5163 64.2749 55.8877V47.7503C64.2747 46.3037 63.0978 45.1268 61.6513 45.1268ZM67.8577 76.2782C62.6294 76.2782 58.3759 72.0247 58.3759 66.7965C58.3759 61.5681 62.6294 57.3146 67.8577 57.3146C73.086 57.3146 77.3395 61.5681 77.3395 66.7965C77.3397 72.0247 73.086 76.2782 67.8577 76.2782ZM74.4782 61.8575C73.9964 61.3782 73.3575 61.1148 72.6783 61.1148C72.675 61.1148 72.6715 61.1148 72.6683 61.1148C71.9863 61.1175 71.3468 61.3856 70.8673 61.8697L66.4775 66.3032L64.8462 64.6717C63.85 63.6756 62.2292 63.6757 61.2332 64.6718C60.2373 65.668 60.2373 67.2886 61.2333 68.2847L64.678 71.7295C65.176 72.2275 65.8304 72.4766 66.4845 72.4766C67.1387 72.4766 67.793 72.2275 68.291 71.7293C69.595 70.4252 70.9102 69.0913 72.1822 67.8012C72.9508 67.0216 73.7195 66.2418 74.4902 65.4642C75.4793 64.4657 75.4739 62.8478 74.4782 61.8575ZM73.0694 64.0565C72.2975 64.8353 71.5277 65.6163 70.7579 66.3972C69.4884 67.6847 68.1758 69.0161 66.8767 70.3152C66.6604 70.5315 66.3084 70.5315 66.0922 70.3152L62.6474 66.8706C62.4312 66.6543 62.4312 66.3022 62.6474 66.0861C62.7555 65.978 62.8975 65.9238 63.0397 65.9238C63.1818 65.9238 63.3237 65.978 63.4319 66.0861L65.7739 68.4281C65.9615 68.6156 66.2159 68.721 66.481 68.721H66.4835C66.7497 68.7203 67.0045 68.6137 67.1917 68.4246L72.2884 63.277C72.3914 63.173 72.529 63.1153 72.676 63.1148C72.8209 63.1092 72.9632 63.1713 73.0679 63.2755C73.2832 63.4897 73.2838 63.84 73.0694 64.0565Z" fill="white"/>
</svg>
