<svg width="20" height="20" viewBox="0 0 20 20" fill="none" xmlns="http://www.w3.org/2000/svg">
<g clip-path="url(#clip0_42_2)">
<path fill-rule="evenodd" clip-rule="evenodd" d="M2.5 0.625C1.46447 0.625 0.625 1.46447 0.625 2.5V5.625C0.625 6.66053 1.46447 7.5 2.5 7.5H7.5C8.53553 7.5 9.375 6.66053 9.375 5.625V2.5C9.375 1.46447 8.53553 0.625 7.5 0.625H2.5ZM1.875 2.5C1.875 2.15482 2.15482 1.875 2.5 1.875H7.5C7.84519 1.875 8.125 2.15482 8.125 2.5V5.625C8.125 5.97019 7.84519 6.25 7.5 6.25H2.5C2.15482 6.25 1.875 5.97019 1.875 5.625V2.5Z" fill="black"/>
<path fill-rule="evenodd" clip-rule="evenodd" d="M12.5 19.375C11.4645 19.375 10.625 18.5355 10.625 17.5V14.375C10.625 13.3395 11.4645 12.5 12.5 12.5H17.5C18.5355 12.5 19.375 13.3395 19.375 14.375V17.5C19.375 18.5355 18.5355 19.375 17.5 19.375H12.5ZM11.875 17.5C11.875 17.8452 12.1548 18.125 12.5 18.125H17.5C17.8452 18.125 18.125 17.8452 18.125 17.5V14.375C18.125 14.0298 17.8452 13.75 17.5 13.75H12.5C12.1548 13.75 11.875 14.0298 11.875 14.375V17.5Z" fill="black"/>
<path fill-rule="evenodd" clip-rule="evenodd" d="M0.625 10.625C0.625 9.58947 1.46447 8.75 2.5 8.75H7.5C8.53553 8.75 9.375 9.58947 9.375 10.625V17.5C9.375 18.5355 8.53553 19.375 7.5 19.375H2.5C1.46447 19.375 0.625 18.5355 0.625 17.5V10.625ZM2.5 10C2.15482 10 1.875 10.2798 1.875 10.625V17.5C1.875 17.8452 2.15482 18.125 2.5 18.125H7.5C7.84519 18.125 8.125 17.8452 8.125 17.5V10.625C8.125 10.2798 7.84519 10 7.5 10H2.5Z" fill="black"/>
<path fill-rule="evenodd" clip-rule="evenodd" d="M12.5 11.25C11.4645 11.25 10.625 10.4105 10.625 9.375V2.5C10.625 1.46447 11.4645 0.625 12.5 0.625H17.5C18.5355 0.625 19.375 1.46447 19.375 2.5V9.375C19.375 10.4105 18.5355 11.25 17.5 11.25H12.5ZM11.875 9.375C11.875 9.72019 12.1548 10 12.5 10H17.5C17.8452 10 18.125 9.72019 18.125 9.375V2.5C18.125 2.15482 17.8452 1.875 17.5 1.875H12.5C12.1548 1.875 11.875 2.15482 11.875 2.5V9.375Z" fill="black"/>
</g>
<defs>
<clipPath id="clip0_42_2">
<rect width="20" height="20" fill="white"/>
</clipPath>
</defs>
</svg>
