<svg width="20" height="20" viewBox="0 0 20 20" fill="none" xmlns="http://www.w3.org/2000/svg">
<g clip-path="url(#clip0_42_14)">
<path fill-rule="evenodd" clip-rule="evenodd" d="M0.833374 3.33333C0.833374 1.95262 1.95267 0.833328 3.33337 0.833328H16.6667C18.0475 0.833328 19.1667 1.95262 19.1667 3.33333V9.16666H17.5V3.33333C17.5 2.8731 17.127 2.49999 16.6667 2.49999H3.33337C2.87314 2.49999 2.50004 2.8731 2.50004 3.33333V16.6667C2.50004 17.1269 2.87314 17.5 3.33337 17.5H9.16671V19.1667H3.33337C1.95267 19.1667 0.833374 18.0474 0.833374 16.6667V3.33333Z" fill="black"/>
<path fill-rule="evenodd" clip-rule="evenodd" d="M6.66675 1.66666C6.66675 1.20643 7.03985 0.833328 7.50008 0.833328H12.5001C12.9603 0.833328 13.3334 1.20643 13.3334 1.66666V7.49999C13.3334 7.76786 13.2047 8.0194 12.9873 8.17603C12.77 8.33265 12.4907 8.37524 12.2366 8.29056L10.0001 7.54507L7.76361 8.29056C7.50948 8.37524 7.23013 8.33265 7.01282 8.17603C6.79551 8.0194 6.66675 7.76786 6.66675 7.49999V1.66666ZM8.33341 2.49999V6.3438L9.73658 5.87609C9.90758 5.81907 10.0926 5.81907 10.2636 5.87609L11.6667 6.3438V2.49999H8.33341Z" fill="black"/>
<path fill-rule="evenodd" clip-rule="evenodd" d="M14.1667 10.8333C12.3258 10.8333 10.8334 12.3257 10.8334 14.1667C10.8334 16.0076 12.3258 17.5 14.1667 17.5C16.0077 17.5 17.5001 16.0076 17.5001 14.1667C17.5001 12.3257 16.0077 10.8333 14.1667 10.8333ZM9.16675 14.1667C9.16675 11.4052 11.4053 9.16666 14.1667 9.16666C16.9282 9.16666 19.1667 11.4052 19.1667 14.1667C19.1667 16.9281 16.9282 19.1667 14.1667 19.1667C11.4053 19.1667 9.16675 16.9281 9.16675 14.1667Z" fill="black"/>
<path fill-rule="evenodd" clip-rule="evenodd" d="M13.3334 14.1667V12.0833H15V13.6517L16.206 14.2547L15.4607 15.7453L13.794 14.912C13.5117 14.7708 13.3334 14.4823 13.3334 14.1667Z" fill="black"/>
</g>
<defs>
<clipPath id="clip0_42_14">
<rect width="20" height="20" fill="white"/>
</clipPath>
</defs>
</svg>
