<svg width="20" height="20" viewBox="0 0 20 20" fill="none" xmlns="http://www.w3.org/2000/svg">
<g clip-path="url(#clip0_43_87)">
<mask id="mask0_43_87" style="mask-type:luminance" maskUnits="userSpaceOnUse" x="0" y="0" width="20" height="20">
<path d="M0 1.90735e-06H20V20H0V1.90735e-06Z" fill="white"/>
</mask>
<g mask="url(#mask0_43_87)">
<path d="M10 6.92712C8.30292 6.92712 6.9271 8.3029 6.9271 10C6.9271 11.6972 8.30292 13.0729 10 13.0729C11.6971 13.0729 13.073 11.6972 13.073 10C13.073 8.3029 11.6971 6.92712 10 6.92712ZM18.6251 7.8072L17.7931 8.49212C16.8441 9.27341 16.8441 10.7266 17.7931 11.5079L18.6251 12.1929C18.92 12.4356 18.9961 12.8559 18.8051 13.1866L17.1623 16.0322C16.9713 16.3629 16.5692 16.5071 16.2116 16.3731L15.2025 15.9951C14.0513 15.5638 12.7928 16.2904 12.5907 17.503L12.4135 18.566C12.3507 18.9427 12.0248 19.2188 11.6429 19.2188H8.35714C7.97527 19.2188 7.64933 18.9427 7.58655 18.566L7.40937 17.503C7.2073 16.2904 5.94874 15.5638 4.79761 15.9951L3.78847 16.3731C3.43081 16.5071 3.02874 16.3629 2.83777 16.0322L1.19491 13.1866C1.00398 12.8559 1.08011 12.4356 1.37495 12.1929L2.20698 11.5079C3.15601 10.7266 3.15601 9.27341 2.20698 8.49212L1.37495 7.8072C1.08011 7.56446 1.00398 7.14415 1.19491 6.81341L2.83777 3.9679C3.02874 3.63716 3.43081 3.49294 3.78847 3.62692L4.79761 4.00497C5.94874 4.43622 7.2073 3.70962 7.40937 2.49708L7.58655 1.43407C7.64933 1.05739 7.97527 0.781298 8.35714 0.781298H11.6429C12.0248 0.781298 12.3507 1.05739 12.4135 1.43407L12.5907 2.49708C12.7928 3.70962 14.0513 4.43622 15.2025 4.00497L16.2116 3.62692C16.5692 3.49294 16.9713 3.63716 17.1623 3.9679L18.8051 6.81341C18.9961 7.14415 18.92 7.56446 18.6251 7.8072Z" stroke="black" stroke-width="1.5" stroke-miterlimit="10" stroke-linecap="round" stroke-linejoin="round"/>
</g>
</g>
<defs>
<clipPath id="clip0_43_87">
<rect width="20" height="20" fill="white"/>
</clipPath>
</defs>
</svg>
